<svg width="32" height="32" viewBox="0 0 32 32" fill="none" xmlns="http://www.w3.org/2000/svg">
<path d="M29.999 30H21.999V22H29.999V30ZM23.999 28H27.999V24H23.999V28ZM19.999 27H7.99902C6.40772 27 4.8816 26.3679 3.75638 25.2426C2.63116 24.1174 1.99902 22.5913 1.99902 21C1.99902 19.4087 2.63116 17.8826 3.75638 16.7574C4.8816 15.6321 6.40772 15 7.99902 15H9.99902V17H7.99902C6.93816 17 5.92074 17.4214 5.1706 18.1716C4.42045 18.9217 3.99902 19.9391 3.99902 21C3.99902 22.0609 4.42045 23.0783 5.1706 23.8284C5.92074 24.5786 6.93816 25 7.99902 25H19.999V27Z" fill="#6B8BBA"/>
<path d="M19.999 20H11.999V12H19.999V20ZM13.999 18H17.999V14H13.999V18Z" fill="#6B8BBA"/>
<path d="M23.999 17H21.999V15H23.999C25.0599 15 26.0773 14.5786 26.8274 13.8284C27.5776 13.0783 27.999 12.0609 27.999 11C27.999 9.93913 27.5776 8.92172 26.8274 8.17157C26.0773 7.42143 25.0599 7 23.999 7H11.999V5H23.999C25.5903 5 27.1164 5.63214 28.2417 6.75736C29.3669 7.88258 29.999 9.4087 29.999 11C29.999 12.5913 29.3669 14.1174 28.2417 15.2426C27.1164 16.3679 25.5903 17 23.999 17ZM9.99902 10H1.99902V2H9.99902V10ZM3.99902 8H7.99902V4H3.99902V8Z" fill="#6B8BBA"/>
</svg>
