<svg width="32" height="32" viewBox="0 0 32 32" fill="none" xmlns="http://www.w3.org/2000/svg">
<path d="M17.171 2C17.9664 2.0007 18.729 2.31723 19.291 2.88L25.119 8.708C25.6818 9.27007 25.9983 10.0326 25.999 10.828V26C25.999 27.0609 25.5776 28.0783 24.8274 28.8284C24.0773 29.5786 23.0599 30 21.999 30H9.99902C8.93816 30 7.92074 29.5786 7.1706 28.8284C6.42045 28.0783 5.99902 27.0609 5.99902 26V24H7.99902V26C7.99902 26.5304 8.20974 27.0391 8.58481 27.4142C8.95988 27.7893 9.46859 28 9.99902 28H21.999C22.5295 28 23.0382 27.7893 23.4132 27.4142C23.7883 27.0391 23.999 26.5304 23.999 26V12H18.999C18.2034 12 17.4403 11.6839 16.8777 11.1213C16.3151 10.5587 15.999 9.79565 15.999 9V4H9.99902C9.46859 4 8.95988 4.21071 8.58481 4.58579C8.20974 4.96086 7.99902 5.46957 7.99902 6V18H5.99902V6C5.99902 4.93913 6.42045 3.92172 7.1706 3.17157C7.92074 2.42143 8.93816 2 9.99902 2H17.171ZM20.999 24C21.2642 24 21.5186 24.1054 21.7061 24.2929C21.8937 24.4804 21.999 24.7348 21.999 25C21.999 25.2652 21.8937 25.5196 21.7061 25.7071C21.5186 25.8946 21.2642 26 20.999 26H10.999C10.7338 26 10.4795 25.8946 10.2919 25.7071C10.1044 25.5196 9.99902 25.2652 9.99902 25C9.99902 24.7348 10.1044 24.4804 10.2919 24.2929C10.4795 24.1054 10.7338 24 10.999 24H20.999ZM12.999 20C13.2642 20 13.5186 20.1054 13.7061 20.2929C13.8937 20.4804 13.999 20.7348 13.999 21C13.999 21.2652 13.8937 21.5196 13.7061 21.7071C13.5186 21.8946 13.2642 22 12.999 22H2.99902C2.73381 22 2.47945 21.8946 2.29192 21.7071C2.10438 21.5196 1.99902 21.2652 1.99902 21C1.99902 20.7348 2.10438 20.4804 2.29192 20.2929C2.47945 20.1054 2.73381 20 2.99902 20H12.999ZM20.999 16C21.2642 16 21.5186 16.1054 21.7061 16.2929C21.8937 16.4804 21.999 16.7348 21.999 17C21.999 17.2652 21.8937 17.5196 21.7061 17.7071C21.5186 17.8946 21.2642 18 20.999 18H10.999C10.7338 18 10.4795 17.8946 10.2919 17.7071C10.1044 17.5196 9.99902 17.2652 9.99902 17C9.99902 16.7348 10.1044 16.4804 10.2919 16.2929C10.4795 16.1054 10.7338 16 10.999 16H20.999ZM17.999 9C17.999 9.26522 18.1044 9.51957 18.2919 9.70711C18.4795 9.89464 18.7338 10 18.999 10H23.585L17.999 4.414V9Z" fill="#6B8BBA"/>
</svg>
