<svg width="32" height="32" viewBox="0 0 32 32" fill="none" xmlns="http://www.w3.org/2000/svg">
<path d="M18.3337 2.6665C19.1293 2.6665 19.8924 2.98257 20.455 3.54518C21.0176 4.10779 21.3337 4.87085 21.3337 5.6665V7.99984H25.0003C25.5694 7.99984 26.1329 8.11192 26.6586 8.32969C27.1844 8.54746 27.6621 8.86665 28.0645 9.26904C28.4668 9.67143 28.786 10.1491 29.0038 10.6749C29.2216 11.2006 29.3337 11.7641 29.3337 12.3332V23.6665C29.3337 24.2356 29.2216 24.7991 29.0038 25.3248C28.786 25.8505 28.4668 26.3282 28.0645 26.7306C27.6621 27.133 27.1844 27.4522 26.6586 27.67C26.1329 27.8878 25.5694 27.9998 25.0003 27.9998H7.00033C5.85105 27.9998 4.74885 27.5433 3.9362 26.7306C3.12354 25.918 2.66699 24.8158 2.66699 23.6665V12.3332C2.66699 11.1839 3.12354 10.0817 3.9362 9.26904C4.74885 8.45638 5.85105 7.99984 7.00033 7.99984H10.667V5.6665C10.667 4.87085 10.9831 4.10779 11.5457 3.54518C12.1083 2.98257 12.8713 2.6665 13.667 2.6665H18.3337ZM27.3337 17.9825C26.6377 18.4299 25.8277 18.6674 25.0003 18.6665H18.667C18.667 19.0201 18.5265 19.3593 18.2765 19.6093C18.0264 19.8594 17.6873 19.9998 17.3337 19.9998H14.667C14.3134 19.9998 13.9742 19.8594 13.7242 19.6093C13.4741 19.3593 13.3337 19.0201 13.3337 18.6665H7.00033C6.17299 18.6674 5.36292 18.4299 4.66699 17.9825V23.6665C4.66699 24.9545 5.71233 25.9998 7.00033 25.9998H25.0003C25.6192 25.9998 26.2127 25.754 26.6502 25.3164C27.0878 24.8788 27.3337 24.2853 27.3337 23.6665V17.9825ZM7.00033 9.99984C6.38149 9.99984 5.78799 10.2457 5.35041 10.6833C4.91283 11.1208 4.66699 11.7143 4.66699 12.3332V14.3332C4.66699 15.6212 5.71233 16.6665 7.00033 16.6665H13.3337V15.9998C13.3337 15.6462 13.4741 15.3071 13.7242 15.057C13.9742 14.807 14.3134 14.6665 14.667 14.6665H17.3337C17.6873 14.6665 18.0264 14.807 18.2765 15.057C18.5265 15.3071 18.667 15.6462 18.667 15.9998V16.6665H25.0003C25.6192 16.6665 26.2127 16.4207 26.6502 15.9831C27.0878 15.5455 27.3337 14.952 27.3337 14.3332V12.3332C27.3337 11.7143 27.0878 11.1208 26.6502 10.6833C26.2127 10.2457 25.6192 9.99984 25.0003 9.99984H7.00033ZM13.667 4.6665C13.4018 4.6665 13.1474 4.77186 12.9599 4.9594C12.7723 5.14693 12.667 5.40129 12.667 5.6665V7.99984H19.3337V5.6665C19.3337 5.40129 19.2283 5.14693 19.0408 4.9594C18.8532 4.77186 18.5989 4.6665 18.3337 4.6665H13.667Z" fill="#3499FF"/>
</svg>
