<svg width="1683" height="1259" viewBox="0 0 1683 1259" fill="none" xmlns="http://www.w3.org/2000/svg">
<g opacity="0.3" clip-path="url(#clip0_127_3102)">
<path d="M873.333 48.36V45.981H850.781V4H848.4V45.981H768.196V4H765.814V45.981H685.614V4H683.232V45.981H603.029V4H600.647V45.981H520.443V4H518.061V45.981H437.858V4H435.476V45.981H355.272V4H352.89V45.981H272.686V4H270.305V45.981H190.101V4H187.719V45.981H107.519V4H105.137V45.981H24.9337V4H22.5518V45.981H0V48.36H22.5518V128.468H0V130.847H22.5518V210.955H0V213.334H22.5518V293.442H0V295.821H22.5518V375.929H0V378.308H22.5518V458.416H0V460.795H22.5518V540.903H0V543.282H22.5518V585.263H24.9337V543.282H105.137V585.263H107.519V543.282H187.719V585.263H190.101V543.282H270.305V585.263H272.686V543.282H352.89V585.263H355.272V543.282H435.476V585.263H437.858V543.282H518.061V585.263H520.443V543.282H600.647V585.263H603.029V543.282H683.232V585.263H685.614V543.282H765.814V585.263H768.196V543.282H848.4V585.263H850.781V543.282H873.333V540.903H850.781V460.795H873.333V458.416H850.781V378.308H873.333V375.929H850.781V295.821H873.333V293.442H850.781V213.334H873.333V210.955H850.781V130.847H873.333V128.468H850.781V48.36H873.333ZM105.137 540.903H24.9337V460.795H105.137V540.903ZM105.137 458.416H24.9337V378.308H105.137V458.416ZM105.137 375.929H24.9337V295.821H105.137V375.929ZM105.137 293.442H24.9337V213.334H105.137V293.442ZM105.137 210.955H24.9337V130.847H105.137V210.955ZM105.137 128.468H24.9337V48.36H105.137V128.468ZM187.719 540.903H107.519V460.795H187.719V540.903ZM187.719 458.416H107.519V378.308H187.719V458.416ZM187.719 375.929H107.519V295.821H187.719V375.929ZM187.719 293.442H107.519V213.334H187.719V293.442ZM187.719 210.955H107.519V130.847H187.719V210.955ZM187.719 128.468H107.519V48.36H187.719V128.468ZM270.305 540.903H190.101V460.795H270.305V540.903ZM270.305 458.416H190.101V378.308H270.305V458.416ZM270.305 375.929H190.101V295.821H270.305V375.929ZM270.305 293.442H190.101V213.334H270.305V293.442ZM270.305 210.955H190.101V130.847H270.305V210.955ZM270.305 128.468H190.101V48.36H270.305V128.468ZM352.89 540.903H272.686V460.795H352.89V540.903ZM352.89 458.416H272.686V378.308H352.89V458.416ZM352.89 375.929H272.686V295.821H352.89V375.929ZM352.89 293.442H272.686V213.334H352.89V293.442ZM352.89 210.955H272.686V130.847H352.89V210.955ZM352.89 128.468H272.686V48.36H352.89V128.468ZM435.476 540.903H355.272V460.795H435.476V540.903ZM435.476 458.416H355.272V378.308H435.476V458.416ZM435.476 375.929H355.272V295.821H435.476V375.929ZM435.476 293.442H355.272V213.334H435.476V293.442ZM435.476 210.955H355.272V130.847H435.476V210.955ZM435.476 128.468H355.272V48.36H435.476V128.468ZM518.061 540.903H437.858V460.795H518.061V540.903ZM518.061 458.416H437.858V378.308H518.061V458.416ZM518.061 375.929H437.858V295.821H518.061V375.929ZM518.061 293.442H437.858V213.334H518.061V293.442ZM518.061 210.955H437.858V130.847H518.061V210.955ZM518.061 128.468H437.858V48.36H518.061V128.468ZM600.647 540.903H520.443V460.795H600.647V540.903ZM600.647 458.416H520.443V378.308H600.647V458.416ZM600.647 375.929H520.443V295.821H600.647V375.929ZM600.647 293.442H520.443V213.334H600.647V293.442ZM600.647 210.955H520.443V130.847H600.647V210.955ZM600.647 128.468H520.443V48.36H600.647V128.468ZM683.232 540.903H603.029V460.795H683.232V540.903ZM683.232 458.416H603.029V378.308H683.232V458.416ZM683.232 375.929H603.029V295.821H683.232V375.929ZM683.232 293.442H603.029V213.334H683.232V293.442ZM683.232 210.955H603.029V130.847H683.232V210.955ZM683.232 128.468H603.029V48.36H683.232V128.468ZM765.814 540.903H685.614V460.795H765.814V540.903ZM765.814 458.416H685.614V378.308H765.814V458.416ZM765.814 375.929H685.614V295.821H765.814V375.929ZM765.814 293.442H685.614V213.334H765.814V293.442ZM765.814 210.955H685.614V130.847H765.814V210.955ZM765.814 128.468H685.614V48.36H765.814V128.468ZM848.4 540.903H768.196V460.795H848.4V540.903ZM848.4 458.416H768.196V378.308H848.4V458.416ZM848.4 375.929H768.196V295.821H848.4V375.929ZM848.4 293.442H768.196V213.334H848.4V293.442ZM848.4 210.955H768.196V130.847H848.4V210.955ZM848.4 128.468H768.196V48.36H848.4V128.468Z" fill="url(#paint0_radial_127_3102)"/>
</g>
<g opacity="0.3" clip-path="url(#clip1_127_3102)">
<path d="M1682.67 48.36V45.981H1660.11V4H1657.73V45.981H1577.53V4H1575.15V45.981H1494.95V4H1492.57V45.981H1412.36V4H1409.98V45.981H1329.78V4H1327.39V45.981H1247.19V4H1244.81V45.981H1164.6V4H1162.22V45.981H1082.02V4H1079.64V45.981H999.434V4H997.052V45.981H916.852V4H914.47V45.981H834.267V4H831.885V45.981H809.333V48.36H831.885V128.468H809.333V130.847H831.885V210.955H809.333V213.334H831.885V293.442H809.333V295.821H831.885V375.929H809.333V378.308H831.885V458.416H809.333V460.795H831.885V540.903H809.333V543.282H831.885V585.263H834.267V543.282H914.47V585.263H916.852V543.282H997.052V585.263H999.434V543.282H1079.64V585.263H1082.02V543.282H1162.22V585.263H1164.6V543.282H1244.81V585.263H1247.19V543.282H1327.39V585.263H1329.78V543.282H1409.98V585.263H1412.36V543.282H1492.57V585.263H1494.95V543.282H1575.15V585.263H1577.53V543.282H1657.73V585.263H1660.11V543.282H1682.67V540.903H1660.11V460.795H1682.67V458.416H1660.11V378.308H1682.67V375.929H1660.11V295.821H1682.67V293.442H1660.11V213.334H1682.67V210.955H1660.11V130.847H1682.67V128.468H1660.11V48.36H1682.67ZM914.47 540.903H834.267V460.795H914.47V540.903ZM914.47 458.416H834.267V378.308H914.47V458.416ZM914.47 375.929H834.267V295.821H914.47V375.929ZM914.47 293.442H834.267V213.334H914.47V293.442ZM914.47 210.955H834.267V130.847H914.47V210.955ZM914.47 128.468H834.267V48.36H914.47V128.468ZM997.052 540.903H916.852V460.795H997.052V540.903ZM997.052 458.416H916.852V378.308H997.052V458.416ZM997.052 375.929H916.852V295.821H997.052V375.929ZM997.052 293.442H916.852V213.334H997.052V293.442ZM997.052 210.955H916.852V130.847H997.052V210.955ZM997.052 128.468H916.852V48.36H997.052V128.468ZM1079.64 540.903H999.434V460.795H1079.64V540.903ZM1079.64 458.416H999.434V378.308H1079.64V458.416ZM1079.64 375.929H999.434V295.821H1079.64V375.929ZM1079.64 293.442H999.434V213.334H1079.64V293.442ZM1079.64 210.955H999.434V130.847H1079.64V210.955ZM1079.64 128.468H999.434V48.36H1079.64V128.468ZM1162.22 540.903H1082.02V460.795H1162.22V540.903ZM1162.22 458.416H1082.02V378.308H1162.22V458.416ZM1162.22 375.929H1082.02V295.821H1162.22V375.929ZM1162.22 293.442H1082.02V213.334H1162.22V293.442ZM1162.22 210.955H1082.02V130.847H1162.22V210.955ZM1162.22 128.468H1082.02V48.36H1162.22V128.468ZM1244.81 540.903H1164.6V460.795H1244.81V540.903ZM1244.81 458.416H1164.6V378.308H1244.81V458.416ZM1244.81 375.929H1164.6V295.821H1244.81V375.929ZM1244.81 293.442H1164.6V213.334H1244.81V293.442ZM1244.81 210.955H1164.6V130.847H1244.81V210.955ZM1244.81 128.468H1164.6V48.36H1244.81V128.468ZM1327.39 540.903H1247.19V460.795H1327.39V540.903ZM1327.39 458.416H1247.19V378.308H1327.39V458.416ZM1327.39 375.929H1247.19V295.821H1327.39V375.929ZM1327.39 293.442H1247.19V213.334H1327.39V293.442ZM1327.39 210.955H1247.19V130.847H1327.39V210.955ZM1327.39 128.468H1247.19V48.36H1327.39V128.468ZM1409.98 540.903H1329.78V460.795H1409.98V540.903ZM1409.98 458.416H1329.78V378.308H1409.98V458.416ZM1409.98 375.929H1329.78V295.821H1409.98V375.929ZM1409.98 293.442H1329.78V213.334H1409.98V293.442ZM1409.98 210.955H1329.78V130.847H1409.98V210.955ZM1409.98 128.468H1329.78V48.36H1409.98V128.468ZM1492.57 540.903H1412.36V460.795H1492.57V540.903ZM1492.57 458.416H1412.36V378.308H1492.57V458.416ZM1492.57 375.929H1412.36V295.821H1492.57V375.929ZM1492.57 293.442H1412.36V213.334H1492.57V293.442ZM1492.57 210.955H1412.36V130.847H1492.57V210.955ZM1492.57 128.468H1412.36V48.36H1492.57V128.468ZM1575.15 540.903H1494.95V460.795H1575.15V540.903ZM1575.15 458.416H1494.95V378.308H1575.15V458.416ZM1575.15 375.929H1494.95V295.821H1575.15V375.929ZM1575.15 293.442H1494.95V213.334H1575.15V293.442ZM1575.15 210.955H1494.95V130.847H1575.15V210.955ZM1575.15 128.468H1494.95V48.36H1575.15V128.468ZM1657.73 540.903H1577.53V460.795H1657.73V540.903ZM1657.73 458.416H1577.53V378.308H1657.73V458.416ZM1657.73 375.929H1577.53V295.821H1657.73V375.929ZM1657.73 293.442H1577.53V213.334H1657.73V293.442ZM1657.73 210.955H1577.53V130.847H1657.73V210.955ZM1657.73 128.468H1577.53V48.36H1657.73V128.468Z" fill="url(#paint1_radial_127_3102)"/>
</g>
<defs>
<radialGradient id="paint0_radial_127_3102" cx="0" cy="0" r="1" gradientUnits="userSpaceOnUse" gradientTransform="translate(436.667 295.995) scale(434.46 286.401)">
<stop offset="0.14" stop-color="#3654FF"/>
<stop offset="1" stop-color="#0D143D"/>
</radialGradient>
<radialGradient id="paint1_radial_127_3102" cx="0" cy="0" r="1" gradientUnits="userSpaceOnUse" gradientTransform="translate(1246 295.995) scale(434.46 286.401)">
<stop offset="0.14" stop-color="#3654FF"/>
<stop offset="1" stop-color="#0D143D"/>
</radialGradient>
<clipPath id="clip0_127_3102">
<rect width="873.333" height="581.263" fill="white" transform="translate(0 4)"/>
</clipPath>
<clipPath id="clip1_127_3102">
<rect width="873.333" height="581.263" fill="white" transform="translate(809.333 4)"/>
</clipPath>
</defs>
</svg>
