<svg width="32" height="32" viewBox="0 0 32 32" fill="none" xmlns="http://www.w3.org/2000/svg">
<path d="M26.5482 7.64286C26.5482 8.25257 26.2759 8.8563 25.747 9.4196C25.2181 9.9829 24.4428 10.4947 23.4654 10.9259C22.4881 11.357 21.3278 11.699 20.0509 11.9323C18.7739 12.1656 17.4053 12.2857 16.0231 12.2857C13.2317 12.2857 10.5546 11.7966 8.58077 10.9259C6.60693 10.0551 5.49805 8.87422 5.49805 7.64286C5.49805 7.03315 5.77029 6.42941 6.29922 5.86611C6.82815 5.30282 7.60342 4.79099 8.58077 4.35986C9.55811 3.92873 10.7184 3.58674 11.9953 3.35342C13.2723 3.12009 14.6409 3 16.0231 3C17.4053 3 18.7739 3.12009 20.0509 3.35342C21.3278 3.58674 22.4881 3.92873 23.4654 4.35986C24.4428 4.79099 25.2181 5.30282 25.747 5.86611C26.2759 6.42941 26.5482 7.03315 26.5482 7.64286Z" stroke="#6B8BBA" stroke-width="1.4" stroke-linecap="round" stroke-linejoin="round"/>
<path d="M26.5482 24.3564C26.5482 25.1714 26.0618 25.9721 25.1381 26.6779C24.2143 27.3837 22.8856 27.9698 21.2856 28.3773C19.6856 28.7848 17.8706 28.9993 16.0231 28.9993C14.1756 28.9993 12.3606 28.7848 10.7606 28.3773C9.16057 27.9698 7.8319 27.3837 6.90814 26.6779C5.98437 25.9721 5.49805 25.1714 5.49805 24.3564" stroke="#6B8BBA" stroke-width="1.4" stroke-linecap="round" stroke-linejoin="round"/>
<path d="M26.5482 18.7861C26.5482 19.6011 26.0618 20.4018 25.1381 21.1076C24.2143 21.8134 22.8856 22.3995 21.2856 22.807C19.6856 23.2145 17.8706 23.429 16.0231 23.429C14.1756 23.429 12.3606 23.2145 10.7606 22.807C9.16057 22.3995 7.8319 21.8134 6.90814 21.1076C5.98437 20.4018 5.49805 19.6011 5.49805 18.7861" stroke="#6B8BBA" stroke-width="1.4" stroke-linecap="round" stroke-linejoin="round"/>
<path d="M26.5482 13.2148C26.5482 14.0298 26.0618 14.8305 25.1381 15.5363C24.2143 16.2421 22.8856 16.8282 21.2856 17.2357C19.6856 17.6432 17.8706 17.8577 16.0231 17.8577C14.1756 17.8577 12.3606 17.6432 10.7606 17.2357C9.16057 16.8282 7.8319 16.2421 6.90814 15.5363C5.98437 14.8305 5.49805 14.0298 5.49805 13.2148" stroke="#6B8BBA" stroke-width="1.4" stroke-linecap="round" stroke-linejoin="round"/>
<path d="M5.49805 7.64258V24.3568" stroke="#6B8BBA" stroke-width="1.4" stroke-linecap="round" stroke-linejoin="round"/>
<path d="M26.5508 7.64258V24.3569" stroke="#6B8BBA" stroke-width="1.4" stroke-linecap="round" stroke-linejoin="round"/>
</svg>
