<svg width="333" height="317" viewBox="0 0 333 317" fill="none" xmlns="http://www.w3.org/2000/svg">
<path d="M200.507 304.937H192.519C189.359 304.937 186.797 302.375 186.797 299.215V254.082H206.23V299.215C206.229 302.375 203.667 304.937 200.507 304.937Z" fill="#172133"/>
<path d="M149.654 316.239H141.577C137.904 316.239 135.306 312.648 136.454 309.159L159.731 238.445H179.164L154.777 312.532C154.048 314.744 151.983 316.239 149.654 316.239Z" fill="#232E40"/>
<path d="M243.373 316.239H251.45C255.122 316.239 257.721 312.648 256.573 309.159L233.296 238.445H213.863L238.25 312.532C238.978 314.744 241.044 316.239 243.373 316.239Z" fill="#232E40"/>
<mask id="path-4-inside-1_490_356" fill="white">
<path d="M77.6484 135.343C77.6484 69.5636 130.974 16.2385 196.753 16.2385C262.533 16.2385 315.858 69.5636 315.858 135.343C315.858 201.123 262.533 254.448 196.753 254.448C130.974 254.448 77.6484 201.123 77.6484 135.343Z"/>
</mask>
<path d="M77.6484 135.343C77.6484 69.5636 130.974 16.2385 196.753 16.2385C262.533 16.2385 315.858 69.5636 315.858 135.343C315.858 201.123 262.533 254.448 196.753 254.448C130.974 254.448 77.6484 201.123 77.6484 135.343Z" fill="#0A0E1A"/>
<path d="M77.6484 135.343M315.858 135.343M315.858 135.343M77.6484 135.343M196.753 16.2385M315.858 135.343M196.753 254.448M77.6484 135.343M196.753 254.448V251.086C132.831 251.086 81.0108 199.266 81.0108 135.343H77.6484H74.286C74.286 202.98 129.117 257.811 196.753 257.811V254.448ZM315.858 135.343H312.496C312.496 199.266 260.676 251.086 196.753 251.086V254.448V257.811C264.39 257.811 319.22 202.98 319.22 135.343H315.858ZM196.753 16.2385V19.6009C260.676 19.6009 312.496 71.4206 312.496 135.343H315.858H319.22C319.22 67.7066 264.39 12.8762 196.753 12.8762V16.2385ZM196.753 16.2385V12.8762C129.117 12.8762 74.286 67.7066 74.286 135.343H77.6484H81.0108C81.0108 71.4206 132.831 19.6009 196.753 19.6009V16.2385Z" fill="#364153" mask="url(#path-4-inside-1_490_356)"/>
<mask id="path-6-inside-2_490_356" fill="white">
<path d="M117.352 135.344C117.352 91.4911 152.902 55.9411 196.755 55.9411C240.608 55.9411 276.158 91.4911 276.158 135.344C276.158 179.198 240.608 214.748 196.755 214.748C152.902 214.748 117.352 179.198 117.352 135.344Z"/>
</mask>
<path d="M117.352 135.344M276.158 135.344M276.158 135.344M117.352 135.344M196.755 55.9411M276.158 135.344M196.755 214.748M117.352 135.344M196.755 214.748V211.385C154.759 211.385 120.714 177.341 120.714 135.344H117.352H113.989C113.989 181.055 151.045 218.11 196.755 218.11V214.748ZM276.158 135.344H272.796C272.796 177.341 238.751 211.385 196.755 211.385V214.748V218.11C242.465 218.11 279.52 181.055 279.52 135.344H276.158ZM196.755 55.9411V59.3035C238.751 59.3035 272.796 93.3481 272.796 135.344H276.158H279.52C279.52 89.6342 242.465 52.5787 196.755 52.5787V55.9411ZM196.755 55.9411V52.5787C151.045 52.5787 113.989 89.6342 113.989 135.344H117.352H120.714C120.714 93.3481 154.759 59.3035 196.755 59.3035V55.9411Z" fill="#4A5565" mask="url(#path-6-inside-2_490_356)"/>
<mask id="path-8-inside-3_490_356" fill="white">
<path d="M157.055 135.346C157.055 113.419 174.83 95.6443 196.756 95.6443C218.683 95.6443 236.458 113.419 236.458 135.346C236.458 157.273 218.683 175.048 196.756 175.048C174.83 175.048 157.055 157.273 157.055 135.346Z"/>
</mask>
<path d="M157.055 135.346M236.458 135.346M236.458 135.346M157.055 135.346M196.756 95.6443M236.458 135.346M196.756 175.048M157.055 135.346M196.756 175.048V171.685C176.687 171.685 160.417 155.416 160.417 135.346H157.055H153.692C153.692 159.13 172.973 178.41 196.756 178.41V175.048ZM236.458 135.346H233.096C233.096 155.416 216.826 171.685 196.756 171.685V175.048V178.41C220.54 178.41 239.82 159.13 239.82 135.346H236.458ZM196.756 95.6443V99.0067C216.826 99.0067 233.096 115.276 233.096 135.346H236.458H239.82C239.82 111.562 220.54 92.2819 196.756 92.2819V95.6443ZM196.756 95.6443V92.2819C172.973 92.2819 153.692 111.562 153.692 135.346H157.055H160.417C160.417 115.276 176.687 99.0067 196.756 99.0067V95.6443Z" fill="#6A7282" mask="url(#path-8-inside-3_490_356)"/>
<g filter="url(#filter0_d_490_356)">
<path d="M185.348 136.582C185.348 130.283 190.454 125.177 196.753 125.177C203.052 125.177 208.158 130.283 208.158 136.582C208.158 142.881 203.052 147.987 196.753 147.987C190.454 147.987 185.348 142.881 185.348 136.582Z" fill="#75BAFF" fill-opacity="0.6" shape-rendering="crispEdges"/>
</g>
<g filter="url(#filter1_f_490_356)">
<path d="M312 135.751C312 199.263 260.513 250.751 197 250.751C133.487 250.751 82 199.263 82 135.751C82 72.238 133.487 20.7507 197 20.7507C260.513 20.7507 312 72.238 312 135.751ZM107.634 135.751C107.634 185.106 147.644 225.117 197 225.117C246.356 225.117 286.366 185.106 286.366 135.751C286.366 86.395 246.356 46.3843 197 46.3843C147.644 46.3843 107.634 86.395 107.634 135.751Z" fill="url(#paint0_linear_490_356)" fill-opacity="0.8"/>
</g>
<path d="M50 95.251L80.5006 123.251L73.5 130.251L45.5005 99.751L50 95.251Z" fill="#0A0E1A"/>
<path d="M28.6866 54.4553C27.7205 54.4242 26.7535 54.7598 25.516 55.9973C24.3268 57.1865 22.9951 60.6223 22.2698 63.6596C22.22 63.8681 22.1753 64.0656 22.1306 64.2634L46.4542 86.6889C44.9256 80.6134 42.7169 73.9186 40.0998 68.2206C37.6148 62.8094 34.7246 58.2878 32.1135 56.0807C30.808 54.9773 29.6524 54.4866 28.6866 54.4553ZM19.6989 67.2339L17.484 69.4488L51.8565 106.731L56.9812 101.607L19.6989 67.2339ZM14.5136 71.8804C14.3158 71.9251 14.1182 71.9698 13.9098 72.0196C10.8725 72.745 7.43666 74.0766 6.24724 75.2658C5.00971 76.5033 4.67398 77.4703 4.70506 78.4364C4.73636 79.4025 5.22707 80.5578 6.33048 81.8635C8.53752 84.4746 13.0595 87.365 18.4706 89.8501C24.1688 92.4672 30.8631 94.6761 36.9386 96.2044L14.5136 71.8804ZM59.8014 104.206L54.4563 109.551L70.0538 126.469L76.7194 119.804L59.8014 104.206ZM79.5395 122.403L72.6534 129.289L73.094 129.767C73.107 129.779 74.0348 130.666 75.3475 131.104C76.6691 131.545 78.0533 131.717 80.0102 129.76C81.9671 127.803 81.7943 126.419 81.3536 125.097C80.9156 123.783 80.0262 122.853 80.016 122.843L79.5395 122.403ZM83.834 131.144C83.5025 131.618 83.1297 132.062 82.7199 132.47C82.3119 132.88 81.8683 133.253 81.3944 133.584L104.298 154.048L83.834 131.144Z" fill="#92ACD8"/>
<defs>
<filter id="filter0_d_490_356" x="155.166" y="94.9951" width="83.1738" height="83.1739" filterUnits="userSpaceOnUse" color-interpolation-filters="sRGB">
<feFlood flood-opacity="0" result="BackgroundImageFix"/>
<feColorMatrix in="SourceAlpha" type="matrix" values="0 0 0 0 0 0 0 0 0 0 0 0 0 0 0 0 0 0 127 0" result="hardAlpha"/>
<feOffset/>
<feGaussianBlur stdDeviation="15.0909"/>
<feComposite in2="hardAlpha" operator="out"/>
<feColorMatrix type="matrix" values="0 0 0 0 0.231373 0 0 0 0 0.509804 0 0 0 0 0.964706 0 0 0 0.725 0"/>
<feBlend mode="normal" in2="BackgroundImageFix" result="effect1_dropShadow_490_356"/>
<feBlend mode="normal" in="SourceGraphic" in2="effect1_dropShadow_490_356" result="shape"/>
</filter>
<filter id="filter1_f_490_356" x="61.2493" y="5.72205e-06" width="271.501" height="271.501" filterUnits="userSpaceOnUse" color-interpolation-filters="sRGB">
<feFlood flood-opacity="0" result="BackgroundImageFix"/>
<feBlend mode="normal" in="SourceGraphic" in2="BackgroundImageFix" result="shape"/>
<feGaussianBlur stdDeviation="10.3754" result="effect1_foregroundBlur_490_356"/>
</filter>
<linearGradient id="paint0_linear_490_356" x1="82" y1="20.7507" x2="339.889" y2="58.0795" gradientUnits="userSpaceOnUse">
<stop stop-color="#30D5C8"/>
<stop offset="1" stop-color="#7557FF"/>
</linearGradient>
</defs>
</svg>
