<svg width="1699" height="582" viewBox="0 0 1699 582" fill="none" xmlns="http://www.w3.org/2000/svg">
<g opacity="0.15" clip-path="url(#clip0_203_15456)">
<path d="M873.333 44.36V41.981H850.781V0H848.4V41.981H768.196V0H765.814V41.981H685.614V0H683.232V41.981H603.029V0H600.647V41.981H520.443V0H518.061V41.981H437.858V0H435.476V41.981H355.272V0H352.89V41.981H272.686V0H270.305V41.981H190.101V0H187.719V41.981H107.519V0H105.137V41.981H24.9337V0H22.5518V41.981H0V44.36H22.5518V124.468H0V126.847H22.5518V206.955H0V209.334H22.5518V289.442H0V291.821H22.5518V371.929H0V374.308H22.5518V454.416H0V456.795H22.5518V536.903H0V539.282H22.5518V581.263H24.9337V539.282H105.137V581.263H107.519V539.282H187.719V581.263H190.101V539.282H270.305V581.263H272.686V539.282H352.89V581.263H355.272V539.282H435.476V581.263H437.858V539.282H518.061V581.263H520.443V539.282H600.647V581.263H603.029V539.282H683.232V581.263H685.614V539.282H765.814V581.263H768.196V539.282H848.4V581.263H850.781V539.282H873.333V536.903H850.781V456.795H873.333V454.416H850.781V374.308H873.333V371.929H850.781V291.821H873.333V289.442H850.781V209.334H873.333V206.955H850.781V126.847H873.333V124.468H850.781V44.36H873.333ZM105.137 536.903H24.9337V456.795H105.137V536.903ZM105.137 454.416H24.9337V374.308H105.137V454.416ZM105.137 371.929H24.9337V291.821H105.137V371.929ZM105.137 289.442H24.9337V209.334H105.137V289.442ZM105.137 206.955H24.9337V126.847H105.137V206.955ZM105.137 124.468H24.9337V44.36H105.137V124.468ZM187.719 536.903H107.519V456.795H187.719V536.903ZM187.719 454.416H107.519V374.308H187.719V454.416ZM187.719 371.929H107.519V291.821H187.719V371.929ZM187.719 289.442H107.519V209.334H187.719V289.442ZM187.719 206.955H107.519V126.847H187.719V206.955ZM187.719 124.468H107.519V44.36H187.719V124.468ZM270.305 536.903H190.101V456.795H270.305V536.903ZM270.305 454.416H190.101V374.308H270.305V454.416ZM270.305 371.929H190.101V291.821H270.305V371.929ZM270.305 289.442H190.101V209.334H270.305V289.442ZM270.305 206.955H190.101V126.847H270.305V206.955ZM270.305 124.468H190.101V44.36H270.305V124.468ZM352.89 536.903H272.686V456.795H352.89V536.903ZM352.89 454.416H272.686V374.308H352.89V454.416ZM352.89 371.929H272.686V291.821H352.89V371.929ZM352.89 289.442H272.686V209.334H352.89V289.442ZM352.89 206.955H272.686V126.847H352.89V206.955ZM352.89 124.468H272.686V44.36H352.89V124.468ZM435.476 536.903H355.272V456.795H435.476V536.903ZM435.476 454.416H355.272V374.308H435.476V454.416ZM435.476 371.929H355.272V291.821H435.476V371.929ZM435.476 289.442H355.272V209.334H435.476V289.442ZM435.476 206.955H355.272V126.847H435.476V206.955ZM435.476 124.468H355.272V44.36H435.476V124.468ZM518.061 536.903H437.858V456.795H518.061V536.903ZM518.061 454.416H437.858V374.308H518.061V454.416ZM518.061 371.929H437.858V291.821H518.061V371.929ZM518.061 289.442H437.858V209.334H518.061V289.442ZM518.061 206.955H437.858V126.847H518.061V206.955ZM518.061 124.468H437.858V44.36H518.061V124.468ZM600.647 536.903H520.443V456.795H600.647V536.903ZM600.647 454.416H520.443V374.308H600.647V454.416ZM600.647 371.929H520.443V291.821H600.647V371.929ZM600.647 289.442H520.443V209.334H600.647V289.442ZM600.647 206.955H520.443V126.847H600.647V206.955ZM600.647 124.468H520.443V44.36H600.647V124.468ZM683.232 536.903H603.029V456.795H683.232V536.903ZM683.232 454.416H603.029V374.308H683.232V454.416ZM683.232 371.929H603.029V291.821H683.232V371.929ZM683.232 289.442H603.029V209.334H683.232V289.442ZM683.232 206.955H603.029V126.847H683.232V206.955ZM683.232 124.468H603.029V44.36H683.232V124.468ZM765.814 536.903H685.614V456.795H765.814V536.903ZM765.814 454.416H685.614V374.308H765.814V454.416ZM765.814 371.929H685.614V291.821H765.814V371.929ZM765.814 289.442H685.614V209.334H765.814V289.442ZM765.814 206.955H685.614V126.847H765.814V206.955ZM765.814 124.468H685.614V44.36H765.814V124.468ZM848.4 536.903H768.196V456.795H848.4V536.903ZM848.4 454.416H768.196V374.308H848.4V454.416ZM848.4 371.929H768.196V291.821H848.4V371.929ZM848.4 289.442H768.196V209.334H848.4V289.442ZM848.4 206.955H768.196V126.847H848.4V206.955ZM848.4 124.468H768.196V44.36H848.4V124.468Z" fill="url(#paint0_radial_203_15456)"/>
</g>
<g opacity="0.15" clip-path="url(#clip1_203_15456)">
<path d="M1698.67 44.36V41.981H1676.12V0H1673.73V41.981H1593.53V0H1591.15V41.981H1510.95V0H1508.57V41.981H1428.36V0H1425.98V41.981H1345.78V0H1343.4V41.981H1263.19V0H1260.81V41.981H1180.61V0H1178.22V41.981H1098.02V0H1095.64V41.981H1015.43V0H1013.05V41.981H932.853V0H930.471V41.981H850.268V0H847.886V41.981H825.334V44.36H847.886V124.468H825.334V126.847H847.886V206.955H825.334V209.334H847.886V289.442H825.334V291.821H847.886V371.929H825.334V374.308H847.886V454.416H825.334V456.795H847.886V536.903H825.334V539.282H847.886V581.263H850.268V539.282H930.471V581.263H932.853V539.282H1013.05V581.263H1015.43V539.282H1095.64V581.263H1098.02V539.282H1178.22V581.263H1180.61V539.282H1260.81V581.263H1263.19V539.282H1343.4V581.263H1345.78V539.282H1425.98V581.263H1428.36V539.282H1508.57V581.263H1510.95V539.282H1591.15V581.263H1593.53V539.282H1673.73V581.263H1676.12V539.282H1698.67V536.903H1676.12V456.795H1698.67V454.416H1676.12V374.308H1698.67V371.929H1676.12V291.821H1698.67V289.442H1676.12V209.334H1698.67V206.955H1676.12V126.847H1698.67V124.468H1676.12V44.36H1698.67ZM930.471 536.903H850.268V456.795H930.471V536.903ZM930.471 454.416H850.268V374.308H930.471V454.416ZM930.471 371.929H850.268V291.821H930.471V371.929ZM930.471 289.442H850.268V209.334H930.471V289.442ZM930.471 206.955H850.268V126.847H930.471V206.955ZM930.471 124.468H850.268V44.36H930.471V124.468ZM1013.05 536.903H932.853V456.795H1013.05V536.903ZM1013.05 454.416H932.853V374.308H1013.05V454.416ZM1013.05 371.929H932.853V291.821H1013.05V371.929ZM1013.05 289.442H932.853V209.334H1013.05V289.442ZM1013.05 206.955H932.853V126.847H1013.05V206.955ZM1013.05 124.468H932.853V44.36H1013.05V124.468ZM1095.64 536.903H1015.43V456.795H1095.64V536.903ZM1095.64 454.416H1015.43V374.308H1095.64V454.416ZM1095.64 371.929H1015.43V291.821H1095.64V371.929ZM1095.64 289.442H1015.43V209.334H1095.64V289.442ZM1095.64 206.955H1015.43V126.847H1095.64V206.955ZM1095.64 124.468H1015.43V44.36H1095.64V124.468ZM1178.22 536.903H1098.02V456.795H1178.22V536.903ZM1178.22 454.416H1098.02V374.308H1178.22V454.416ZM1178.22 371.929H1098.02V291.821H1178.22V371.929ZM1178.22 289.442H1098.02V209.334H1178.22V289.442ZM1178.22 206.955H1098.02V126.847H1178.22V206.955ZM1178.22 124.468H1098.02V44.36H1178.22V124.468ZM1260.81 536.903H1180.61V456.795H1260.81V536.903ZM1260.81 454.416H1180.61V374.308H1260.81V454.416ZM1260.81 371.929H1180.61V291.821H1260.81V371.929ZM1260.81 289.442H1180.61V209.334H1260.81V289.442ZM1260.81 206.955H1180.61V126.847H1260.81V206.955ZM1260.81 124.468H1180.61V44.36H1260.81V124.468ZM1343.4 536.903H1263.19V456.795H1343.4V536.903ZM1343.4 454.416H1263.19V374.308H1343.4V454.416ZM1343.4 371.929H1263.19V291.821H1343.4V371.929ZM1343.4 289.442H1263.19V209.334H1343.4V289.442ZM1343.4 206.955H1263.19V126.847H1343.4V206.955ZM1343.4 124.468H1263.19V44.36H1343.4V124.468ZM1425.98 536.903H1345.78V456.795H1425.98V536.903ZM1425.98 454.416H1345.78V374.308H1425.98V454.416ZM1425.98 371.929H1345.78V291.821H1425.98V371.929ZM1425.98 289.442H1345.78V209.334H1425.98V289.442ZM1425.98 206.955H1345.78V126.847H1425.98V206.955ZM1425.98 124.468H1345.78V44.36H1425.98V124.468ZM1508.57 536.903H1428.36V456.795H1508.57V536.903ZM1508.57 454.416H1428.36V374.308H1508.57V454.416ZM1508.57 371.929H1428.36V291.821H1508.57V371.929ZM1508.57 289.442H1428.36V209.334H1508.57V289.442ZM1508.57 206.955H1428.36V126.847H1508.57V206.955ZM1508.57 124.468H1428.36V44.36H1508.57V124.468ZM1591.15 536.903H1510.95V456.795H1591.15V536.903ZM1591.15 454.416H1510.95V374.308H1591.15V454.416ZM1591.15 371.929H1510.95V291.821H1591.15V371.929ZM1591.15 289.442H1510.95V209.334H1591.15V289.442ZM1591.15 206.955H1510.95V126.847H1591.15V206.955ZM1591.15 124.468H1510.95V44.36H1591.15V124.468ZM1673.73 536.903H1593.53V456.795H1673.73V536.903ZM1673.73 454.416H1593.53V374.308H1673.73V454.416ZM1673.73 371.929H1593.53V291.821H1673.73V371.929ZM1673.73 289.442H1593.53V209.334H1673.73V289.442ZM1673.73 206.955H1593.53V126.847H1673.73V206.955ZM1673.73 124.468H1593.53V44.36H1673.73V124.468Z" fill="url(#paint1_radial_203_15456)"/>
</g>
<defs>
<radialGradient id="paint0_radial_203_15456" cx="0" cy="0" r="1" gradientUnits="userSpaceOnUse" gradientTransform="translate(436.667 291.995) scale(434.46 286.401)">
<stop offset="0.14" stop-color="#3654FF"/>
<stop offset="1" stop-color="#0D143D"/>
</radialGradient>
<radialGradient id="paint1_radial_203_15456" cx="0" cy="0" r="1" gradientUnits="userSpaceOnUse" gradientTransform="translate(1262 291.995) scale(434.46 286.401)">
<stop offset="0.14" stop-color="#3654FF"/>
<stop offset="1" stop-color="#0D143D"/>
</radialGradient>
<clipPath id="clip0_203_15456">
<rect width="873.333" height="581.263" fill="white"/>
</clipPath>
<clipPath id="clip1_203_15456">
<rect width="873.333" height="581.263" fill="white" transform="translate(825.334)"/>
</clipPath>
</defs>
</svg>
