<svg width="621" height="631" viewBox="0 0 621 631" fill="none" xmlns="http://www.w3.org/2000/svg">
<g opacity="0.57">
<path d="M267.034 301.882C266.566 301.882 266.188 301.504 266.188 301.035C266.188 272.066 278.312 244.081 299.454 224.256C303.192 220.75 307.221 217.489 311.429 214.565C311.812 214.299 312.34 214.393 312.607 214.777C312.874 215.161 312.779 215.689 312.395 215.955C308.256 218.833 304.291 222.042 300.612 225.492C279.811 244.998 267.881 272.533 267.881 301.036C267.881 301.504 267.502 301.882 267.034 301.882Z" fill="#3499FF" fill-opacity="0.6"/>
<path d="M475.812 301.882C475.344 301.882 474.966 301.504 474.966 301.036C474.966 289.214 472.99 277.621 469.093 266.58C468.938 266.138 469.17 265.655 469.61 265.499C470.052 265.348 470.534 265.576 470.69 266.016C474.65 277.24 476.658 289.022 476.658 301.036C476.659 301.504 476.279 301.882 475.812 301.882Z" fill="#3499FF" fill-opacity="0.6"/>
<path d="M467.873 261.22C467.48 261.22 467.107 261.009 466.945 260.656C457.252 239.642 441.022 221.981 420.009 209.585C419.541 209.309 419.406 208.738 419.708 208.31C420.01 207.882 420.633 207.757 421.102 208.035C442.457 220.633 458.951 238.582 468.8 259.94C469.017 260.41 468.777 260.951 468.264 261.148C468.137 261.197 468.004 261.22 467.873 261.22Z" fill="#3499FF" fill-opacity="0.6"/>
<path d="M318.763 211.729C318.472 211.729 318.189 211.579 318.032 211.31C317.796 210.906 317.932 210.388 318.335 210.152C334.374 200.763 352.732 195.799 371.423 195.799C386.99 195.799 401.977 199.118 415.968 205.665C416.392 205.863 416.575 206.367 416.376 206.791C416.177 207.213 415.674 207.396 415.251 207.199C401.485 200.759 386.739 197.493 371.423 197.493C353.032 197.493 334.971 202.376 319.19 211.613C319.056 211.692 318.909 211.729 318.763 211.729Z" fill="#3499FF" fill-opacity="0.6"/>
<path d="M248.463 301.22C247.956 301.22 247.547 300.836 247.547 300.361C247.547 250.539 278.967 205.372 327.595 185.295C328.063 185.1 328.599 185.301 328.802 185.734C329.006 186.168 328.796 186.676 328.333 186.867C280.37 206.67 249.379 251.22 249.379 300.361C249.379 300.836 248.968 301.22 248.463 301.22Z" fill="#3499FF" fill-opacity="0.6"/>
<path d="M494.395 301.883C493.927 301.883 493.548 301.504 493.548 301.036C493.548 262.535 475.06 225.839 444.092 202.875C443.717 202.597 443.638 202.067 443.916 201.691C444.195 201.316 444.726 201.238 445.101 201.515C460.317 212.798 472.931 227.641 481.58 244.44C490.645 262.05 495.242 281.092 495.242 301.035C495.241 301.504 494.863 301.883 494.395 301.883Z" fill="#3499FF" fill-opacity="0.6"/>
<path d="M437.263 198.008C437.108 198.008 436.951 197.966 436.81 197.876C434.306 196.286 431.712 194.767 429.097 193.364C428.685 193.143 428.53 192.63 428.752 192.217C428.973 191.806 429.486 191.65 429.897 191.872C432.548 193.295 435.179 194.835 437.718 196.447C438.112 196.698 438.229 197.222 437.979 197.616C437.818 197.87 437.543 198.008 437.263 198.008Z" fill="#3499FF" fill-opacity="0.6"/>
<path d="M424.085 190.726C423.963 190.726 423.84 190.7 423.722 190.644C407.318 182.859 389.722 178.912 371.424 178.912C358.043 178.912 344.889 181.062 332.329 185.303C331.88 185.453 331.405 185.215 331.256 184.772C331.106 184.329 331.345 183.849 331.786 183.7C344.521 179.399 357.857 177.219 371.423 177.219C389.975 177.219 407.815 181.222 424.448 189.116C424.87 189.316 425.051 189.821 424.85 190.243C424.706 190.548 424.401 190.726 424.085 190.726Z" fill="#3499FF" fill-opacity="0.6"/>
<path d="M514.991 301.882C514.523 301.882 514.145 301.504 514.145 301.036C514.145 285.32 511.607 269.875 506.602 255.131C506.452 254.689 506.689 254.207 507.132 254.056C507.576 253.907 508.056 254.144 508.206 254.586C513.27 269.506 515.839 285.133 515.839 301.035C515.838 301.504 515.459 301.882 514.991 301.882Z" fill="#3499FF" fill-opacity="0.6"/>
<path d="M504.407 247.685C504.073 247.685 503.757 247.487 503.623 247.158C493.544 222.452 476.749 201.087 455.053 185.373C454.675 185.099 454.59 184.57 454.864 184.191C455.137 183.812 455.666 183.728 456.046 184.002C477.998 199.902 494.991 221.52 505.19 246.519C505.367 246.952 505.159 247.447 504.726 247.623C504.622 247.664 504.514 247.685 504.407 247.685Z" fill="#3499FF" fill-opacity="0.6"/>
<path d="M446.66 179.887C446.5 179.887 446.339 179.847 446.193 179.763C422.554 166.091 395.257 158.863 367.255 158.863C354.635 158.863 342.096 160.325 329.988 163.208C329.517 163.32 329.031 163.057 328.909 162.617C328.787 162.178 329.073 161.731 329.547 161.617C341.799 158.7 354.486 157.22 367.255 157.22C395.589 157.22 423.21 164.533 447.131 178.368C447.546 178.609 447.672 179.115 447.413 179.499C447.246 179.75 446.956 179.887 446.66 179.887Z" fill="#3499FF" fill-opacity="0.6"/>
<path d="M308.299 172.902C307.986 172.902 307.684 172.727 307.538 172.428C307.332 172.008 307.505 171.501 307.925 171.295C312.338 169.131 316.91 167.175 321.512 165.479C321.95 165.319 322.437 165.542 322.599 165.981C322.76 166.421 322.536 166.907 322.097 167.068C317.549 168.744 313.031 170.677 308.671 172.815C308.551 172.874 308.423 172.902 308.299 172.902Z" fill="#3499FF" fill-opacity="0.6"/>
<path d="M227.86 301.882C227.392 301.882 227.014 301.504 227.014 301.036C227.014 275.392 233.822 250.204 246.702 228.195C259.203 206.835 277.093 188.923 298.44 176.397C298.843 176.16 299.361 176.295 299.598 176.698C299.834 177.102 299.699 177.62 299.296 177.857C255.755 203.41 228.707 250.609 228.707 301.037C228.707 301.504 228.327 301.882 227.86 301.882Z" fill="#3499FF" fill-opacity="0.6"/>
</g>
<g opacity="0.3">
<path d="M212.699 294.739C211.999 294.739 211.43 294.17 211.43 293.469C211.43 270.963 216.01 249.201 225.044 228.787C233.772 209.067 246.206 191.557 262.003 176.743C267.69 171.41 273.816 166.453 280.209 162.008C280.785 161.608 281.576 161.749 281.976 162.327C282.376 162.902 282.234 163.694 281.659 164.093C275.366 168.467 269.338 173.346 263.741 178.595C232.11 208.256 213.969 250.126 213.969 293.469C213.969 294.17 213.4 294.739 212.699 294.739Z" fill="#00FFEB"/>
<path d="M530.139 294.738C529.439 294.738 528.87 294.17 528.87 293.469C528.87 275.495 525.866 257.865 519.942 241.073C519.709 240.412 520.056 239.687 520.717 239.453C521.377 239.224 522.104 239.566 522.337 240.228C528.357 257.293 531.409 275.206 531.409 293.47C531.409 294.17 530.84 294.738 530.139 294.738Z" fill="#00FFEB"/>
<path d="M517.71 233.059C517.214 233.059 516.744 232.768 516.539 232.283C504.163 202.966 483.439 178.328 456.608 161.033C456.019 160.653 455.848 159.867 456.228 159.278C456.609 158.687 457.397 158.52 457.983 158.899C485.246 176.472 506.303 201.506 518.878 231.297C519.15 231.943 518.848 232.688 518.201 232.96C518.041 233.027 517.874 233.059 517.71 233.059Z" fill="#00FFEB"/>
<path d="M291.357 157.666C290.921 157.666 290.496 157.44 290.26 157.037C289.906 156.432 290.109 155.654 290.714 155.3C315.101 141.026 343.009 133.48 371.425 133.48C395.091 133.48 417.877 138.526 439.148 148.479C439.783 148.776 440.057 149.532 439.76 150.167C439.463 150.803 438.709 151.076 438.072 150.779C417.14 140.985 394.717 136.02 371.425 136.02C343.46 136.02 315.995 143.444 291.998 157.492C291.796 157.61 291.575 157.666 291.357 157.666Z" fill="#00FFEB"/>
<path d="M184.925 294.554C184.164 294.554 183.547 293.973 183.547 293.258C183.547 217.083 231.46 148.027 305.613 117.33C306.312 117.042 307.124 117.34 307.43 117.994C307.737 118.649 307.42 119.415 306.723 119.703C233.57 149.986 186.303 218.111 186.303 293.258C186.303 293.973 185.686 294.554 184.925 294.554Z" fill="#00FFEB"/>
<path d="M558.394 294.739C557.693 294.739 557.124 294.17 557.124 293.469C557.124 234.923 529.011 179.123 481.922 144.207C481.359 143.788 481.24 142.994 481.658 142.43C482.077 141.866 482.871 141.748 483.435 142.166C506.568 159.319 525.745 181.886 538.893 207.426C552.675 234.197 559.664 263.147 559.664 293.468C559.663 294.17 559.094 294.739 558.394 294.739Z" fill="#00FFEB"/>
<path d="M471.539 136.802C471.306 136.802 471.07 136.739 470.858 136.604C467.044 134.182 463.097 131.873 459.129 129.742C458.511 129.411 458.278 128.641 458.611 128.023C458.943 127.405 459.715 127.175 460.329 127.505C464.353 129.665 468.353 132.005 472.221 134.461C472.813 134.837 472.987 135.621 472.612 136.213C472.369 136.594 471.958 136.802 471.539 136.802Z" fill="#00FFEB"/>
<path d="M451.632 125.22C451.452 125.22 451.27 125.179 451.097 125.092C426.584 112.775 400.291 106.529 372.948 106.529C352.951 106.529 333.296 109.931 314.528 116.641C313.875 116.875 313.167 116.503 312.947 115.812C312.726 115.121 313.077 114.372 313.73 114.138C332.756 107.336 352.679 103.887 372.948 103.887C400.664 103.887 427.317 110.218 452.168 122.705C452.79 123.018 453.055 123.806 452.761 124.465C452.547 124.941 452.099 125.22 451.632 125.22Z" fill="#00FFEB"/>
<path d="M589.711 294.739C589.01 294.739 588.441 294.171 588.441 293.47C588.441 269.57 584.582 246.085 576.972 223.668C576.746 223.004 577.102 222.283 577.766 222.057C578.43 221.832 579.151 222.188 579.376 222.851C587.076 245.533 590.98 269.292 590.98 293.47C590.98 294.171 590.411 294.739 589.711 294.739Z" fill="#00FFEB"/>
<path d="M574.159 213.22C573.611 213.22 573.093 212.904 572.872 212.384C556.114 172.638 528.19 138.267 492.121 112.985C491.5 112.55 491.361 111.71 491.811 111.109C492.26 110.507 493.13 110.375 493.75 110.809C530.241 136.385 558.489 171.159 575.444 211.369C575.733 212.056 575.393 212.84 574.683 213.12C574.51 213.187 574.333 213.22 574.159 213.22Z" fill="#00FFEB"/>
<path d="M486.822 109.411C486.593 109.411 486.36 109.349 486.151 109.218C451.795 87.7812 412.124 76.4507 371.427 76.4507C353.084 76.4507 334.861 78.743 317.264 83.2634C316.584 83.4394 315.892 83.028 315.718 82.35C315.544 81.6711 315.952 80.9786 316.632 80.8043C334.435 76.2306 352.871 73.9111 371.427 73.9111C412.601 73.9111 452.736 85.3754 487.495 107.065C488.09 107.435 488.271 108.219 487.899 108.814C487.659 109.2 487.245 109.411 486.822 109.411Z" fill="#00FFEB"/>
<path d="M275.437 98.6297C274.967 98.6297 274.517 98.3682 274.296 97.9187C273.987 97.2889 274.247 96.5278 274.877 96.2197C281.581 92.9319 288.531 89.9572 295.533 87.3779C296.191 87.1367 296.922 87.4727 297.163 88.1305C297.406 88.7882 297.069 89.5188 296.41 89.7609C289.489 92.3097 282.621 95.2496 275.994 98.4994C275.816 98.5882 275.625 98.6297 275.437 98.6297Z" fill="#00FFEB"/>
<path d="M153.135 294.739C152.434 294.739 151.865 294.17 151.865 293.469C151.865 254.48 162.216 216.188 181.798 182.728C200.804 150.253 228.003 123.021 260.456 103.976C261.06 103.622 261.839 103.823 262.194 104.428C262.549 105.033 262.346 105.812 261.741 106.166C195.534 145.021 154.405 216.791 154.405 293.469C154.405 294.17 153.836 294.739 153.135 294.739Z" fill="#00FFEB"/>
</g>
<path d="M424.41 347.581C422.968 348.265 421.411 348.663 419.815 348.738C416.846 348.877 414.109 347.881 412.11 345.932L405.702 339.686C399.401 343.945 392.544 346.982 385.286 348.725L384.841 358.023C384.702 360.912 383.418 363.683 381.228 365.825C379.033 367.969 376.188 369.232 373.217 369.371C367.094 369.658 362.344 365.036 362.629 359.067L363.074 349.767C355.946 348.702 349.349 346.3 343.432 342.613L336.394 349.49C334.197 351.638 331.355 352.897 328.384 353.036C325.415 353.176 322.677 352.179 320.678 350.23C316.558 346.214 316.887 339.351 321.41 334.931L328.464 328.035C324.671 322.258 322.194 315.816 321.093 308.854L311.584 309.303C305.462 309.59 300.711 304.969 300.995 298.999C301.134 296.109 302.418 293.339 304.61 291.196C306.804 289.052 309.649 287.789 312.62 287.65L322.131 287.202C323.904 280.107 327.01 273.401 331.375 267.241L324.95 260.981C320.83 256.965 321.159 250.102 325.682 245.68C327.88 243.531 330.723 242.274 333.691 242.135C336.661 241.994 339.398 242.99 341.399 244.94L347.807 251.186C354.103 246.927 360.962 243.889 368.224 242.148L368.668 232.849C368.955 226.88 374.17 221.787 380.292 221.502C383.261 221.361 385.998 222.358 387.999 224.306C389.995 226.253 391.019 228.915 390.881 231.803L390.435 241.101C397.559 242.167 404.158 244.569 410.078 248.256L417.114 241.379C419.311 239.231 422.153 237.972 425.124 237.833C428.094 237.693 430.832 238.69 432.831 240.638C436.95 244.654 436.622 251.517 432.098 255.937L425.045 262.832C428.838 268.61 431.314 275.054 432.416 282.013L441.925 281.566C448.049 281.278 452.799 285.899 452.515 291.868C452.227 297.839 447.014 302.93 440.889 303.216L431.381 303.665C429.606 310.761 426.499 317.466 422.136 323.625L428.561 329.886C432.68 333.902 432.351 340.766 427.829 345.186C426.811 346.187 425.655 346.99 424.41 347.581ZM406.188 336.269L414.123 344.003C415.633 345.477 417.701 346.23 419.94 346.124C422.181 346.021 424.331 345.066 425.988 343.447C429.425 340.087 429.674 334.871 426.544 331.822L418.626 324.103L419.303 323.183C424.013 316.779 427.274 309.737 428.995 302.25L429.245 301.163L441.013 300.608C445.641 300.394 449.584 296.53 449.805 292.001C450.022 287.473 446.429 283.966 441.799 284.185L430.03 284.737L429.884 283.667C428.876 276.311 426.276 269.544 422.157 263.554L421.564 262.693L430.258 254.196C433.694 250.837 433.944 245.622 430.814 242.571C429.303 241.097 427.235 240.344 424.997 240.45C422.757 240.553 420.61 241.509 418.949 243.128L410.237 251.645L409.329 251.054C403.189 247.045 396.256 244.517 388.724 243.546L387.62 243.404L388.169 231.934C388.275 229.737 387.498 227.714 385.982 226.237C384.471 224.764 382.404 224.01 380.165 224.117C375.534 224.331 371.59 228.196 371.373 232.724L370.826 244.193L369.704 244.44C362.04 246.127 354.836 249.317 348.285 253.924L347.317 254.604L339.383 246.87C337.871 245.397 335.804 244.644 333.564 244.75C331.326 244.855 329.178 245.806 327.518 247.428C324.08 250.788 323.83 256.003 326.962 259.054L334.879 266.772L334.203 267.692C329.49 274.097 326.23 281.139 324.511 288.624L324.261 289.711L312.492 290.265C310.25 290.37 308.104 291.321 306.443 292.944C304.781 294.571 303.806 296.675 303.701 298.872C303.484 303.4 307.076 306.908 311.706 306.691L323.475 306.136L323.621 307.206C324.629 314.562 327.229 321.329 331.348 327.319L331.94 328.179L323.246 336.677C319.808 340.037 319.558 345.252 322.69 348.303C324.201 349.777 326.267 350.53 328.506 350.425C330.749 350.318 332.897 349.365 334.554 347.746L343.267 339.229L344.175 339.82C350.31 343.83 357.244 346.354 364.78 347.327L365.883 347.469L365.335 358.94C365.117 363.469 368.707 366.975 373.339 366.758C375.582 366.652 377.729 365.7 379.387 364.078C381.051 362.451 382.025 360.347 382.129 358.151L382.679 346.68L383.802 346.433C391.462 344.746 398.668 341.552 405.219 336.948L406.188 336.269ZM391.764 331.248C386.535 333.731 380.803 335.245 374.835 335.526C363.856 336.041 353.738 332.355 346.34 325.145C338.945 317.938 335.155 308.074 335.667 297.37C336.18 286.664 340.933 276.398 349.053 268.462C357.174 260.523 367.695 255.867 378.671 255.348C401.325 254.283 418.894 271.399 417.839 293.505C417.059 309.787 406.386 324.304 391.764 331.248ZM362.697 261.956C358.401 263.996 354.406 266.774 350.89 270.21C343.3 277.631 338.856 287.231 338.378 297.243C337.898 307.256 341.442 316.482 348.355 323.218C355.265 329.952 364.714 333.395 374.961 332.913C396.126 331.92 414.143 314.296 415.13 293.634C416.119 272.971 399.708 256.968 378.547 257.964C373.049 258.221 367.671 259.594 362.697 261.956Z" fill="#6B8BBA" fill-opacity="0.6"/>
<path d="M296.646 385.598C294.75 386.499 292.68 386.674 290.801 386.093C288.884 385.499 287.399 384.187 286.617 382.401L284.403 377.345C279.84 378.595 275.239 379.022 270.694 378.616L268.402 384.108C267.595 386.037 266.095 387.621 264.174 388.567C262.203 389.574 260.13 389.712 258.213 389.118C256.296 388.525 254.809 387.214 254.026 385.425C253.246 383.644 253.26 381.6 254.064 379.672L256.358 374.18C252.554 372 249.323 369.149 246.73 365.687L241.283 368.371C239.373 369.269 237.239 369.514 235.32 368.922C233.403 368.328 231.918 367.017 231.136 365.23C229.526 361.552 231.439 356.971 235.401 355.017L240.871 352.321C240.044 347.979 240.074 343.513 240.961 339.015L235.541 337.338C233.624 336.744 232.137 335.433 231.354 333.644C230.574 331.862 230.588 329.818 231.393 327.889C232.197 325.961 233.699 324.379 235.62 323.432C237.604 322.481 239.664 322.288 241.581 322.88L247 324.558C249.643 320.602 252.925 317.143 256.775 314.246L254.553 309.171C252.943 305.492 254.857 300.911 258.82 298.958C260.776 298.028 262.863 297.814 264.78 298.407C266.698 298.999 268.184 300.312 268.967 302.1L271.181 307.153C275.742 305.904 280.344 305.478 284.889 305.883L287.181 300.391L287.181 300.392C287.986 298.462 289.488 296.879 291.409 295.933C293.329 294.952 295.451 294.787 297.371 295.38C301.323 296.604 303.182 300.841 301.519 304.827L299.225 310.32C303.031 312.501 306.262 315.352 308.854 318.813L314.3 316.129C316.28 315.207 318.346 314.984 320.261 315.578C322.179 316.17 323.665 317.483 324.448 319.27C326.06 322.947 324.145 327.529 320.181 329.483L314.713 332.178C315.539 336.521 315.51 340.988 314.623 345.485L320.042 347.161C323.995 348.386 325.854 352.625 324.19 356.61C323.386 358.538 321.884 360.122 319.963 361.068C318.056 362.028 315.921 362.213 314.002 361.619L308.584 359.943C305.938 363.898 302.657 367.358 298.807 370.253L301.031 375.328C302.641 379.007 300.727 383.588 296.764 385.541C296.725 385.56 296.686 385.579 296.646 385.598ZM269.059 375.772L270.164 375.903C275.056 376.487 280.029 376.026 284.944 374.53L286.064 374.191L289.129 381.195C289.639 382.358 290.603 383.209 291.846 383.595C293.064 383.973 294.409 383.858 295.642 383.273C295.668 383.26 295.694 383.247 295.72 383.234C298.319 381.954 299.575 378.947 298.519 376.536L295.461 369.554L296.402 368.884C300.65 365.862 304.193 362.124 306.933 357.777L307.546 356.803L315.046 359.123C316.291 359.507 317.669 359.408 318.918 358.763C320.176 358.143 321.159 357.104 321.688 355.84C322.778 353.232 321.571 350.461 318.998 349.665L311.498 347.345L311.747 346.257C312.851 341.405 312.885 336.58 311.846 331.92L311.617 330.888L319.139 327.18C321.739 325.899 322.994 322.894 321.937 320.482C321.428 319.319 320.463 318.465 319.22 318.08C318.003 317.703 316.658 317.817 315.426 318.402C315.398 318.415 315.374 318.428 315.347 318.441L307.802 322.161L307.191 321.285C304.509 317.44 301.017 314.359 296.811 312.125L295.86 311.62L299.018 304.059C300.108 301.451 298.901 298.681 296.328 297.887C295.085 297.5 293.705 297.564 292.457 298.246C291.199 298.866 290.215 299.905 289.686 301.17L289.687 301.171L286.527 308.732L285.422 308.6C280.53 308.017 275.557 308.478 270.644 309.973L269.524 310.312L266.457 303.309C265.948 302.147 264.983 301.293 263.739 300.907C262.523 300.531 261.178 300.645 259.946 301.23C259.919 301.242 259.893 301.256 259.867 301.269C257.268 302.549 256.012 305.555 257.069 307.967L260.125 314.949L259.184 315.619C254.936 318.641 251.393 322.379 248.654 326.727L248.04 327.702L240.538 325.38C239.296 324.996 237.925 325.116 236.668 325.74C235.411 326.361 234.427 327.399 233.898 328.664C233.368 329.932 233.358 331.271 233.871 332.44C234.379 333.603 235.344 334.454 236.587 334.839L244.089 337.161L243.84 338.249C242.736 343.103 242.702 347.927 243.741 352.584L243.97 353.617L236.446 357.325C233.848 358.607 232.592 361.613 233.648 364.025C234.158 365.187 235.122 366.039 236.365 366.424C237.607 366.81 238.96 366.666 240.238 366.064L247.782 362.346L248.393 363.222C251.078 367.067 254.571 370.148 258.774 372.381L259.723 372.886L256.565 380.447C256.035 381.714 256.025 383.055 256.537 384.222C257.045 385.385 258.011 386.237 259.254 386.621C260.497 387.008 261.86 386.911 263.125 386.262C264.384 385.642 265.367 384.604 265.897 383.338L269.059 375.772ZM287.744 366.108C281.045 369.289 273.732 369.912 267.094 367.859C253.112 363.53 246.535 348.521 252.432 334.402C255.289 327.565 260.611 321.952 267.418 318.597C274.265 315.198 281.714 314.546 288.489 316.642C295.265 318.74 300.523 323.376 303.29 329.698C306.057 336.016 306.008 343.261 303.15 350.099C300.295 356.937 294.973 362.55 288.165 365.904C288.027 365.973 287.886 366.041 287.744 366.108ZM268.843 320.72C268.716 320.78 268.59 320.841 268.463 320.904C262.319 323.932 257.513 329.002 254.935 335.177C249.611 347.92 255.533 361.459 268.137 365.36C274.239 367.25 280.958 366.597 287.121 363.599C293.264 360.571 298.068 355.503 300.648 349.325L300.649 349.324C303.23 343.15 303.275 336.607 300.778 330.905C298.284 325.207 293.548 321.03 287.446 319.142C281.469 317.29 274.879 317.853 268.843 320.72Z" fill="#6B8BBA" fill-opacity="0.6"/>
<path d="M194.786 170.658C194.786 173.328 192.621 175.493 189.952 175.493C187.282 175.493 185.117 173.328 185.117 170.658C185.117 167.988 187.282 165.824 189.952 165.824C192.621 165.824 194.786 167.988 194.786 170.658Z" fill="#30D5C8"/>
<path d="M358.881 42.5537V90.5537H270.881V123.887V187.887H212.881V259.22" stroke="#6B8BBA" stroke-width="2.66667"/>
<path d="M358.881 90.5537L457.548 90.5537V153.22H516.214V245.887H542.42V307.871" stroke="#6B8BBA" stroke-width="2.66667"/>
<path d="M287.67 241.163C287.67 242.612 286.495 243.788 285.045 243.788C283.595 243.788 282.42 242.613 282.42 241.163C282.42 239.714 283.595 238.538 285.045 238.538C286.495 238.538 287.67 239.713 287.67 241.163Z" fill="#3499FF"/>
<path d="M309.753 94.5379C312.33 94.5379 314.419 92.4486 314.419 89.8713C314.419 87.2939 312.33 85.2046 309.753 85.2046C307.175 85.2046 305.086 87.2939 305.086 89.8713C305.086 92.4486 307.175 94.5379 309.753 94.5379Z" fill="#3499FF"/>
<path d="M542.498 221.943C543.948 221.943 545.123 220.768 545.123 219.318C545.123 217.868 543.948 216.693 542.498 216.693C541.048 216.693 539.873 217.868 539.873 219.318C539.873 220.768 541.048 221.943 542.498 221.943Z" fill="#30D5C8"/>
<path d="M594.214 273.246C594.214 275.915 592.049 278.08 589.379 278.08C586.709 278.08 584.545 275.915 584.545 273.246C584.545 270.576 586.709 268.411 589.379 268.411C592.049 268.411 594.214 270.576 594.214 273.246Z" fill="#30D5C8"/>
<path d="M405.086 181.205C405.086 183.414 403.295 185.205 401.086 185.205C398.877 185.205 397.086 183.414 397.086 181.205C397.086 178.996 398.877 177.205 401.086 177.205C403.295 177.205 405.086 178.996 405.086 181.205Z" fill="#30D5C8"/>
<path d="M511.83 207.073L473.126 193.858C472.684 193.707 472.447 193.225 472.598 192.783L490.649 139.916C490.8 139.474 491.282 139.237 491.724 139.388L530.428 152.603C530.871 152.755 531.107 153.236 530.956 153.679L512.906 206.545C512.755 206.987 512.273 207.224 511.83 207.073Z" fill="#30D5C8"/>
<path d="M512.104 207.923C511.928 207.923 511.748 207.894 511.573 207.834L472.868 194.619C472.451 194.477 472.114 194.181 471.92 193.785C471.726 193.389 471.697 192.94 471.839 192.523L489.89 139.657C490.033 139.239 490.329 138.903 490.726 138.708C491.121 138.514 491.569 138.485 491.987 138.628L530.69 151.843C531.107 151.985 531.444 152.282 531.639 152.678C531.833 153.074 531.862 153.522 531.719 153.939L513.669 206.805C513.434 207.49 512.791 207.923 512.104 207.923ZM491.456 140.148C491.438 140.148 491.417 140.161 491.412 140.177L473.361 193.043C473.354 193.062 473.369 193.091 473.388 193.097L512.092 206.312H512.092C512.111 206.318 512.14 206.305 512.147 206.286L530.197 153.419C530.204 153.4 530.189 153.371 530.17 153.365L491.467 140.15C491.463 140.149 491.459 140.148 491.456 140.148Z" fill="#233863"/>
<path d="M519.865 203.549L479.098 200.284C478.631 200.246 478.284 199.838 478.321 199.372L482.781 143.687C482.819 143.221 483.227 142.873 483.693 142.91L524.461 146.176C524.927 146.213 525.275 146.622 525.237 147.088L520.777 202.772C520.74 203.239 520.331 203.586 519.865 203.549Z" fill="#D4ECFF"/>
<path d="M519.932 204.355C519.887 204.355 519.842 204.354 519.797 204.35L479.029 201.085C478.59 201.049 478.191 200.845 477.904 200.51C477.618 200.174 477.48 199.746 477.515 199.307L481.975 143.623C482.048 142.715 482.846 142.036 483.753 142.109L524.52 145.374C525.427 145.447 526.106 146.244 526.033 147.151L521.573 202.836C521.538 203.276 521.334 203.676 520.998 203.962C520.698 204.218 520.323 204.355 519.932 204.355ZM483.622 143.711C483.599 143.711 483.58 143.729 483.578 143.752L479.119 199.435C479.117 199.456 479.138 199.48 479.159 199.482L519.926 202.747C519.951 202.743 519.971 202.728 519.972 202.708L524.432 147.023C524.434 147 524.417 146.979 524.393 146.977L483.625 143.711C483.624 143.711 483.623 143.711 483.622 143.711Z" fill="#233863"/>
<path d="M518.483 155.559C518.469 155.559 518.454 155.559 518.439 155.558L508.112 154.73C507.817 154.707 507.597 154.448 507.621 154.153C507.644 153.858 507.894 153.637 508.198 153.661L518.525 154.489C518.82 154.513 519.04 154.771 519.017 155.066C518.994 155.347 518.76 155.559 518.483 155.559Z" fill="#30D5C8"/>
<path d="M518.224 158.858C518.21 158.858 518.195 158.858 518.18 158.857L507.853 158.03C507.558 158.006 507.338 157.748 507.361 157.452C507.385 157.158 507.64 156.936 507.938 156.961L518.266 157.788C518.561 157.812 518.781 158.07 518.757 158.366C518.735 158.645 518.501 158.858 518.224 158.858Z" fill="#30D5C8"/>
<path d="M494.044 194.331C494.03 194.331 494.015 194.331 494 194.33L483.673 193.502C483.378 193.479 483.158 193.22 483.181 192.925C483.205 192.63 483.463 192.409 483.759 192.434L494.086 193.261C494.381 193.284 494.601 193.542 494.578 193.838C494.555 194.119 494.32 194.331 494.044 194.331Z" fill="#30D5C8"/>
<path d="M494.492 176.387C494.478 176.387 494.463 176.386 494.449 176.385L485.267 175.65C484.972 175.626 484.752 175.368 484.775 175.072C484.799 174.778 485.053 174.554 485.352 174.581L494.535 175.317C494.829 175.34 495.05 175.599 495.026 175.894C495.004 176.174 494.769 176.387 494.492 176.387Z" fill="#233863"/>
<path d="M500.122 189.156C500.109 189.156 500.094 189.155 500.079 189.154L484.288 187.89C483.993 187.866 483.773 187.608 483.797 187.313C483.821 187.018 484.074 186.794 484.374 186.822L500.165 188.086C500.46 188.11 500.68 188.368 500.656 188.663C500.634 188.943 500.4 189.156 500.122 189.156Z" fill="#233863"/>
<path d="M496.779 182.728C496.765 182.728 496.75 182.728 496.735 182.727L484.78 181.769C484.486 181.745 484.265 181.487 484.289 181.192C484.312 180.897 484.562 180.676 484.866 180.7L496.821 181.658C497.116 181.681 497.336 181.94 497.312 182.235C497.29 182.515 497.056 182.728 496.779 182.728Z" fill="#233863"/>
<path d="M516.633 172.497C516.619 172.497 516.604 172.497 516.59 172.496L485.673 170.019C485.378 169.996 485.158 169.738 485.181 169.442C485.205 169.147 485.455 168.922 485.759 168.951L516.675 171.427C516.97 171.451 517.19 171.709 517.167 172.004C517.144 172.285 516.91 172.497 516.633 172.497Z" fill="#233863"/>
<path d="M515.364 184.168C515.35 184.168 515.335 184.167 515.32 184.166L500.548 182.983C500.253 182.959 500.033 182.701 500.056 182.406C500.08 182.111 500.331 181.888 500.634 181.914L515.406 183.098C515.701 183.121 515.921 183.38 515.898 183.675C515.875 183.955 515.641 184.168 515.364 184.168Z" fill="#233863"/>
<path d="M516.872 178.178C516.857 178.178 516.842 178.178 516.827 178.177L497.881 176.578C497.586 176.553 497.367 176.294 497.393 175.999C497.418 175.703 497.679 175.489 497.971 175.509L516.917 177.108C517.212 177.133 517.431 177.392 517.406 177.687C517.382 177.967 517.148 178.178 516.872 178.178Z" fill="#233863"/>
<path d="M377.43 53.7998L334.591 58.1469C332.557 58.3527 330.967 57.0126 331.039 55.1537L332.236 24.0288C332.307 22.1692 334.013 20.4944 336.047 20.2886L378.886 15.9415C380.92 15.7346 382.51 17.0746 382.438 18.9347L381.241 50.0596C381.17 51.918 379.464 53.5928 377.43 53.7998Z" fill="#30D5C8"/>
<path d="M378.716 55.4847C378.281 55.6222 377.83 55.717 377.368 55.7636L377.367 55.764L334.512 60.1133C331.303 60.4385 328.782 58.3163 328.894 55.379L330.093 24.237C330.206 21.3022 332.916 18.6462 336.119 18.3216L378.975 13.9718C382.184 13.6466 384.704 15.7705 384.593 18.7061L383.393 49.8474C383.297 52.3606 381.303 54.6673 378.716 55.4847ZM377.516 51.8511C378.376 51.7621 379.085 51.0601 379.114 50.2828L380.314 19.1415C380.344 18.3625 379.675 17.7993 378.823 17.8869L335.969 22.2362C335.118 22.3167 334.4 23.0272 334.369 23.8062L333.172 54.9453C333.142 55.7243 333.811 56.2863 334.661 56.2004L377.516 51.8511Z" fill="#233863"/>
<path d="M354.954 44.8324C354.722 44.9031 354.482 44.9516 354.24 44.9785C353.352 45.0735 352.522 44.8453 351.9 44.3364L345.212 38.8375C344.404 38.1715 344.421 36.9553 345.25 36.1206C346.078 35.2888 347.408 35.1489 348.219 35.8141L354.28 40.798L368.994 25.8521C369.815 25.0135 371.147 24.8678 371.963 25.5301C372.777 26.1905 372.767 27.4057 371.942 28.2445L356.594 43.8361C356.138 44.302 355.569 44.6444 354.954 44.8324Z" fill="#D4ECFF"/>
<rect x="431.752" y="109.205" width="34.6667" height="25.3333" fill="#080C26"/>
<path fill-rule="evenodd" clip-rule="evenodd" d="M433.308 102.039C432.218 102.039 431.172 102.472 430.401 103.243C429.63 104.014 429.197 105.059 429.197 106.15V134.927C429.197 136.018 429.63 137.063 430.401 137.834C431.172 138.605 432.218 139.039 433.308 139.039H466.197C467.288 139.039 468.333 138.605 469.104 137.834C469.875 137.063 470.308 136.018 470.308 134.927V106.15C470.308 105.059 469.875 104.014 469.104 103.243C468.333 102.472 467.288 102.039 466.197 102.039H433.308ZM442.815 113.611C442.861 113.218 442.998 112.841 443.215 112.511C443.432 112.18 443.723 111.905 444.066 111.707C444.408 111.508 444.792 111.393 445.187 111.37C445.582 111.347 445.977 111.416 446.341 111.572C447.377 112.016 449.564 113.015 452.335 114.614C454.282 115.727 456.163 116.953 457.967 118.286C458.284 118.522 458.542 118.829 458.719 119.182C458.897 119.535 458.989 119.925 458.989 120.321C458.989 120.716 458.897 121.106 458.719 121.459C458.542 121.813 458.284 122.12 457.967 122.356C456.162 123.687 454.282 124.911 452.335 126.023C450.398 127.154 448.396 128.171 446.341 129.069C445.977 129.226 445.582 129.296 445.187 129.273C444.792 129.249 444.408 129.134 444.065 128.936C443.723 128.738 443.431 128.462 443.214 128.131C442.997 127.8 442.861 127.423 442.815 127.03C442.569 124.802 442.448 122.562 442.454 120.321C442.454 117.133 442.684 114.732 442.815 113.611Z" fill="#75BAFF"/>
<rect x="527.752" y="253.205" width="44" height="32" fill="#080C26"/>
<mask id="mask0_152_5265" style="mask-type:luminance" maskUnits="userSpaceOnUse" x="527" y="252" width="46" height="38">
<path d="M568.251 254.76H531.251C530.116 254.76 529.195 255.68 529.195 256.815V285.593C529.195 286.728 530.116 287.649 531.251 287.649H568.251C569.386 287.649 570.306 286.728 570.306 285.593V256.815C570.306 255.68 569.386 254.76 568.251 254.76Z" fill="white" stroke="white" stroke-width="4.11111" stroke-linecap="round" stroke-linejoin="round"/>
<path d="M557.974 272.232V279.426M549.752 262.982V279.426M541.529 267.093V279.426" stroke="black" stroke-width="4.11111" stroke-linecap="round" stroke-linejoin="round"/>
</mask>
<g mask="url(#mask0_152_5265)">
<path d="M525.084 246.538H574.417V295.871H525.084V246.538Z" fill="#30D5C8"/>
</g>
<g clip-path="url(#clip0_152_5265)">
<path d="M234.094 180.463L224.259 177.827C223.834 177.712 223.391 177.682 222.955 177.739C222.519 177.796 222.098 177.939 221.717 178.159L204.873 187.884C204.107 188.326 203.549 189.054 203.32 189.908C203.091 190.762 203.211 191.672 203.653 192.438L220.32 221.305C220.762 222.071 221.49 222.629 222.344 222.858C223.198 223.087 224.107 222.967 224.873 222.525L247.967 209.192C248.733 208.75 249.291 208.022 249.52 207.168C249.749 206.314 249.629 205.404 249.187 204.638L236.129 182.021C235.909 181.64 235.616 181.306 235.267 181.038C234.918 180.771 234.519 180.575 234.094 180.463ZM235.984 199.271C236.347 199.899 236.515 200.62 236.468 201.344C236.42 202.067 236.159 202.761 235.718 203.336C235.277 203.911 234.674 204.343 233.988 204.576C233.301 204.809 232.561 204.833 231.86 204.646C231.16 204.458 230.53 204.067 230.052 203.522C229.574 202.976 229.268 202.302 229.174 201.583C229.079 200.864 229.2 200.133 229.52 199.482C229.841 198.832 230.348 198.291 230.976 197.929C231.077 197.87 231.264 197.762 231.164 197.589L229.056 193.937C229.002 193.852 228.919 193.79 228.822 193.764C228.749 193.778 228.683 193.817 228.634 193.873L223.787 199.211L223.614 199.311C223.556 199.363 223.517 199.433 223.506 199.511C223.494 199.588 223.509 199.666 223.55 199.733L228.467 208.249C228.827 208.881 228.992 209.607 228.939 210.333C228.887 211.059 228.619 211.753 228.17 212.326C227.722 212.9 227.113 213.327 226.421 213.553C225.729 213.779 224.985 213.794 224.285 213.596C223.584 213.397 222.958 212.995 222.487 212.44C222.016 211.885 221.721 211.203 221.639 210.479C221.557 209.756 221.692 209.025 222.028 208.378C222.363 207.732 222.883 207.201 223.522 206.851C223.623 206.793 223.81 206.684 223.719 206.525L220.727 201.344C220.311 200.634 220.145 199.804 220.258 198.989C220.37 198.174 220.753 197.42 221.346 196.849L226.19 191.473L226.363 191.373C226.773 191.02 227.256 190.762 227.777 190.618C228.297 190.473 228.844 190.446 229.377 190.537C229.91 190.629 230.416 190.837 230.859 191.147C231.301 191.457 231.67 191.861 231.939 192.33L235.984 199.271Z" fill="#30D5C8"/>
</g>
<g clip-path="url(#clip1_152_5265)">
<rect x="248.008" y="128.208" width="44" height="29.3333" transform="rotate(-4.24253 248.008 128.208)" fill="#080C26"/>
<path d="M264.37 134.64C264.46 135.863 264.061 137.072 263.261 138.002C262.46 138.931 261.323 139.504 260.099 139.594C258.876 139.685 257.667 139.286 256.738 138.485C255.809 137.685 255.236 136.548 255.145 135.324C255.054 134.101 255.453 132.892 256.254 131.963C257.055 131.033 258.192 130.461 259.415 130.37C260.638 130.279 261.848 130.678 262.777 131.479C263.706 132.28 264.279 133.417 264.37 134.64Z" fill="#CDDAED"/>
<path d="M249.728 124.905C248.504 124.996 247.367 125.569 246.566 126.498C245.766 127.427 245.367 128.636 245.457 129.859L247.51 157.533C247.601 158.757 248.174 159.894 249.103 160.695C250.032 161.495 251.241 161.894 252.465 161.804L292.438 158.838C293.662 158.747 294.799 158.175 295.599 157.245C296.4 156.316 296.799 155.107 296.708 153.884L294.656 126.21C294.565 124.987 293.992 123.849 293.063 123.049C292.134 122.248 290.924 121.849 289.701 121.94L249.728 124.905ZM289.929 125.015C290.337 124.984 290.74 125.117 291.05 125.384C291.359 125.651 291.55 126.03 291.581 126.438L292.949 144.887L280.897 139.761C280.598 139.638 280.268 139.613 279.954 139.687C279.639 139.762 279.356 139.934 279.144 140.179L268.583 152.433L260 147.591C259.69 147.416 259.329 147.354 258.978 147.415C258.628 147.476 258.309 147.656 258.076 147.926L250.477 155.767L250.6 157.428L250.585 157.305L248.532 129.631C248.502 129.224 248.635 128.82 248.902 128.511C249.169 128.201 249.548 128.01 249.956 127.98L289.929 125.015Z" fill="#CDDAED"/>
</g>
<g clip-path="url(#clip2_152_5265)">
<path d="M210.327 287.722C210.759 287.468 211.231 287.223 211.742 286.989C211.31 287.633 210.847 288.256 210.355 288.857C209.492 289.896 208.819 290.448 208.397 290.621L208.289 290.658C208.259 290.615 208.232 290.569 208.209 290.522C208.036 290.183 208.042 289.856 208.332 289.412C208.659 288.903 209.316 288.321 210.327 287.722ZM217.897 282.644C217.531 282.72 217.165 282.8 216.799 282.885C217.343 281.82 217.857 280.74 218.341 279.647C218.828 280.55 219.353 281.433 219.913 282.293C219.243 282.391 218.571 282.508 217.897 282.644ZM225.682 285.539C225.204 285.152 224.756 284.729 224.341 284.275C225.048 284.29 225.677 284.345 226.228 284.442C227.205 284.617 227.665 284.895 227.825 285.086C227.874 285.14 227.903 285.21 227.905 285.283C227.894 285.501 227.831 285.712 227.72 285.9C227.659 286.051 227.559 286.183 227.43 286.282C227.368 286.323 227.292 286.34 227.218 286.329C226.94 286.319 226.422 286.125 225.682 285.539ZM218.822 270.906C218.698 271.658 218.489 272.522 218.205 273.462C218.101 273.11 218.009 272.754 217.931 272.395C217.696 271.307 217.662 270.453 217.789 269.861C217.906 269.315 218.128 269.096 218.393 268.988C218.535 268.925 218.686 268.883 218.84 268.865C218.88 268.957 218.927 269.148 218.939 269.475C218.955 269.851 218.916 270.329 218.822 270.909V270.906Z" fill="#3499FF"/>
<path fill-rule="evenodd" clip-rule="evenodd" d="M205.63 249.415H221.95C222.767 249.415 223.551 249.74 224.13 250.318L235.559 261.748C236.138 262.326 236.463 263.111 236.463 263.928V292.582C236.463 294.217 235.813 295.786 234.657 296.942C233.5 298.099 231.932 298.748 230.296 298.748H205.63C203.994 298.748 202.426 298.099 201.269 296.942C200.113 295.786 199.463 294.217 199.463 292.582V255.582C199.463 253.946 200.113 252.378 201.269 251.221C202.426 250.065 203.994 249.415 205.63 249.415ZM222.588 254.04V260.207C222.588 261.024 222.913 261.809 223.491 262.387C224.069 262.965 224.853 263.29 225.671 263.29H231.838L222.588 254.04ZM206.138 291.558C206.416 292.113 206.847 292.616 207.489 292.85C208.127 293.081 208.759 292.973 209.277 292.757C210.258 292.357 211.235 291.413 212.132 290.334C213.159 289.098 214.238 287.476 215.28 285.678C217.293 285.083 219.353 284.664 221.438 284.426C222.363 285.607 223.319 286.625 224.244 287.355C225.107 288.034 226.103 288.598 227.123 288.641C227.679 288.668 228.229 288.519 228.696 288.216C229.174 287.904 229.528 287.454 229.787 286.933C230.065 286.375 230.235 285.792 230.213 285.197C230.194 284.61 229.977 284.047 229.596 283.6C228.899 282.767 227.759 282.367 226.636 282.166C225.275 281.956 223.893 281.905 222.52 282.012C221.361 280.372 220.35 278.632 219.498 276.814C220.269 274.779 220.846 272.855 221.102 271.282C221.213 270.61 221.271 269.969 221.25 269.389C221.246 268.814 221.112 268.246 220.858 267.73C220.712 267.445 220.504 267.196 220.25 267.002C219.995 266.807 219.701 266.671 219.387 266.605C218.765 266.472 218.123 266.605 217.534 266.842C216.372 267.305 215.758 268.291 215.527 269.38C215.302 270.428 215.404 271.649 215.669 272.882C215.94 274.134 216.403 275.497 216.995 276.875C216.046 279.229 214.952 281.522 213.72 283.742C212.132 284.243 210.6 284.909 209.151 285.731C208.01 286.409 206.995 287.211 206.385 288.157C205.737 289.162 205.537 290.359 206.138 291.558Z" fill="#3499FF"/>
</g>
<g filter="url(#filter0_f_152_5265)">
<path d="M235.009 353.959C180.74 391.254 99.1292 371.103 148.686 426.974C198.243 482.845 420.159 474.893 474.428 437.598C528.696 400.302 394.766 347.786 345.209 291.915C295.653 236.044 289.277 316.663 235.009 353.959Z" fill="url(#paint0_linear_152_5265)"/>
</g>
<defs>
<filter id="filter0_f_152_5265" x="0.000640869" y="139.45" width="620.477" height="461.113" filterUnits="userSpaceOnUse" color-interpolation-filters="sRGB">
<feFlood flood-opacity="0" result="BackgroundImageFix"/>
<feBlend mode="normal" in="SourceGraphic" in2="BackgroundImageFix" result="shape"/>
<feGaussianBlur stdDeviation="66.6667" result="effect1_foregroundBlur_152_5265"/>
</filter>
<linearGradient id="paint0_linear_152_5265" x1="498.547" y1="421.022" x2="322.597" y2="223.385" gradientUnits="userSpaceOnUse">
<stop stop-color="#30D5C8"/>
<stop offset="1" stop-color="#7557FF"/>
</linearGradient>
<clipPath id="clip0_152_5265">
<rect width="40" height="40" fill="white" transform="translate(199.1 191.218) rotate(-30)"/>
</clipPath>
<clipPath id="clip1_152_5265">
<rect width="49.3333" height="49.3333" fill="white" transform="translate(244.658 119.097) rotate(-4.24253)"/>
</clipPath>
<clipPath id="clip2_152_5265">
<rect width="49.3333" height="49.3333" fill="white" transform="translate(193.297 249.415)"/>
</clipPath>
</defs>
</svg>
