<svg width="651" height="627" viewBox="0 0 651 627" fill="none" xmlns="http://www.w3.org/2000/svg">
<g opacity="0.57">
<path d="M267.027 298.011C266.559 298.011 266.181 297.632 266.181 297.164C266.181 268.195 278.305 240.21 299.447 220.385C303.185 216.879 307.214 213.618 311.422 210.693C311.805 210.428 312.333 210.522 312.601 210.906C312.867 211.29 312.772 211.818 312.388 212.084C308.249 214.962 304.285 218.171 300.605 221.621C279.804 241.127 267.875 268.662 267.875 297.165C267.874 297.632 267.495 298.011 267.027 298.011Z" fill="#3499FF" fill-opacity="0.6"/>
<path d="M475.804 298.011C475.336 298.011 474.958 297.633 474.958 297.165C474.958 285.343 472.982 273.75 469.086 262.708C468.93 262.267 469.162 261.784 469.602 261.628C470.044 261.477 470.526 261.705 470.682 262.145C474.642 273.369 476.65 285.151 476.65 297.165C476.651 297.633 476.272 298.011 475.804 298.011Z" fill="#3499FF" fill-opacity="0.6"/>
<path d="M467.867 257.349C467.474 257.349 467.101 257.138 466.939 256.785C457.246 235.771 441.016 218.11 420.003 205.714C419.535 205.438 419.4 204.867 419.702 204.439C420.004 204.011 420.627 203.886 421.096 204.164C442.451 216.762 458.945 234.71 468.795 256.069C469.011 256.539 468.771 257.08 468.258 257.277C468.131 257.326 467.998 257.349 467.867 257.349Z" fill="#3499FF" fill-opacity="0.6"/>
<path d="M318.759 207.858C318.468 207.858 318.185 207.708 318.028 207.439C317.792 207.035 317.928 206.517 318.331 206.281C334.37 196.892 352.728 191.928 371.419 191.928C386.986 191.928 401.973 195.247 415.964 201.794C416.388 201.992 416.571 202.496 416.372 202.92C416.174 203.342 415.67 203.525 415.247 203.328C401.482 196.887 386.735 193.622 371.419 193.622C353.028 193.622 334.967 198.505 319.186 207.742C319.052 207.821 318.905 207.858 318.759 207.858Z" fill="#3499FF" fill-opacity="0.6"/>
<path d="M248.457 297.349C247.95 297.349 247.541 296.965 247.541 296.49C247.541 246.668 278.962 201.501 327.589 181.423C328.057 181.229 328.593 181.429 328.796 181.863C329.001 182.297 328.79 182.805 328.327 182.996C280.364 202.799 249.373 247.349 249.373 296.49C249.373 296.965 248.963 297.349 248.457 297.349Z" fill="#3499FF" fill-opacity="0.6"/>
<path d="M494.388 298.012C493.92 298.012 493.542 297.633 493.542 297.165C493.542 258.664 475.053 221.968 444.085 199.004C443.71 198.725 443.631 198.196 443.909 197.82C444.188 197.445 444.719 197.367 445.094 197.644C460.31 208.927 472.924 223.77 481.573 240.569C490.638 258.179 495.236 277.221 495.236 297.164C495.235 297.633 494.856 298.012 494.388 298.012Z" fill="#3499FF" fill-opacity="0.6"/>
<path d="M437.259 194.137C437.104 194.137 436.947 194.095 436.806 194.005C434.303 192.415 431.708 190.896 429.093 189.492C428.681 189.272 428.526 188.759 428.748 188.346C428.969 187.935 429.482 187.779 429.893 188.001C432.544 189.424 435.175 190.964 437.714 192.576C438.108 192.827 438.225 193.351 437.975 193.745C437.814 193.998 437.54 194.137 437.259 194.137Z" fill="#3499FF" fill-opacity="0.6"/>
<path d="M424.078 186.855C423.956 186.855 423.833 186.829 423.716 186.773C407.311 178.988 389.716 175.041 371.417 175.041C358.036 175.041 344.882 177.191 332.322 181.432C331.874 181.582 331.398 181.344 331.249 180.901C331.099 180.458 331.338 179.978 331.78 179.829C344.514 175.528 357.85 173.348 371.417 173.348C389.968 173.348 407.808 177.351 424.441 185.244C424.863 185.445 425.044 185.95 424.843 186.372C424.699 186.677 424.394 186.855 424.078 186.855Z" fill="#3499FF" fill-opacity="0.6"/>
<path d="M514.987 298.011C514.519 298.011 514.141 297.633 514.141 297.165C514.141 281.449 511.603 266.004 506.598 251.259C506.448 250.818 506.685 250.336 507.128 250.185C507.572 250.036 508.052 250.272 508.202 250.715C513.266 265.635 515.835 281.262 515.835 297.164C515.834 297.633 515.455 298.011 514.987 298.011Z" fill="#3499FF" fill-opacity="0.6"/>
<path d="M504.401 243.814C504.068 243.814 503.751 243.615 503.617 243.287C493.538 218.581 476.743 197.216 455.047 181.502C454.669 181.228 454.584 180.699 454.858 180.32C455.131 179.941 455.66 179.856 456.04 180.131C477.992 196.031 494.985 217.649 505.184 242.648C505.361 243.081 505.153 243.576 504.72 243.752C504.616 243.793 504.508 243.814 504.401 243.814Z" fill="#3499FF" fill-opacity="0.6"/>
<path d="M446.654 176.016C446.493 176.016 446.332 175.976 446.186 175.892C422.547 162.22 395.25 154.992 367.248 154.992C354.628 154.992 342.089 156.454 329.981 159.337C329.51 159.449 329.024 159.186 328.902 158.746C328.78 158.307 329.066 157.859 329.54 157.746C341.792 154.828 354.479 153.349 367.248 153.349C395.582 153.349 423.203 160.662 447.124 174.497C447.539 174.738 447.665 175.244 447.406 175.628C447.239 175.879 446.949 176.016 446.654 176.016Z" fill="#3499FF" fill-opacity="0.6"/>
<path d="M308.292 169.03C307.979 169.03 307.677 168.856 307.531 168.556C307.325 168.137 307.498 167.63 307.918 167.424C312.332 165.26 316.903 163.304 321.505 161.608C321.943 161.447 322.43 161.671 322.592 162.11C322.753 162.55 322.529 163.036 322.09 163.197C317.542 164.872 313.024 166.806 308.664 168.944C308.544 169.003 308.417 169.03 308.292 169.03Z" fill="#3499FF" fill-opacity="0.6"/>
<path d="M227.853 298.011C227.385 298.011 227.007 297.633 227.007 297.165C227.007 271.521 233.815 246.333 246.695 224.324C259.196 202.964 277.086 185.052 298.433 172.526C298.836 172.289 299.355 172.424 299.591 172.827C299.827 173.231 299.692 173.749 299.289 173.986C255.748 199.539 228.7 246.738 228.7 297.166C228.7 297.633 228.321 298.011 227.853 298.011Z" fill="#3499FF" fill-opacity="0.6"/>
</g>
<g opacity="0.3">
<path d="M212.697 290.868C211.996 290.868 211.427 290.299 211.427 289.598C211.427 267.092 216.007 245.33 225.041 224.916C233.769 205.196 246.203 187.685 262 172.872C267.687 167.539 273.813 162.581 280.206 158.137C280.782 157.737 281.573 157.878 281.973 158.456C282.374 159.031 282.231 159.823 281.656 160.222C275.363 164.596 269.335 169.475 263.738 174.724C232.107 204.385 213.966 246.255 213.966 289.598C213.966 290.299 213.397 290.868 212.697 290.868Z" fill="#00FFEB"/>
<path d="M530.135 290.867C529.434 290.867 528.865 290.299 528.865 289.598C528.865 271.624 525.861 253.994 519.937 237.202C519.704 236.541 520.051 235.816 520.712 235.582C521.372 235.352 522.099 235.695 522.332 236.357C528.352 253.422 531.404 271.335 531.404 289.598C531.404 290.299 530.835 290.867 530.135 290.867Z" fill="#00FFEB"/>
<path d="M517.705 229.188C517.209 229.188 516.739 228.897 516.534 228.412C504.158 199.095 483.435 174.457 456.603 157.162C456.014 156.782 455.843 155.996 456.224 155.407C456.604 154.816 457.393 154.649 457.978 155.028C485.241 172.601 506.298 197.635 518.873 227.426C519.145 228.071 518.843 228.816 518.196 229.089C518.036 229.156 517.869 229.188 517.705 229.188Z" fill="#00FFEB"/>
<path d="M291.352 153.794C290.916 153.794 290.491 153.569 290.255 153.166C289.901 152.561 290.104 151.783 290.71 151.429C315.096 137.155 343.004 129.609 371.42 129.609C395.087 129.609 417.872 134.655 439.143 144.608C439.778 144.905 440.052 145.661 439.755 146.296C439.458 146.932 438.704 147.205 438.067 146.908C417.136 137.114 394.712 132.148 371.42 132.148C343.456 132.148 315.991 139.573 291.993 153.621C291.791 153.739 291.57 153.794 291.352 153.794Z" fill="#00FFEB"/>
<path d="M184.92 290.682C184.159 290.682 183.542 290.102 183.542 289.386C183.542 213.212 231.455 144.156 305.608 113.459C306.307 113.171 307.119 113.468 307.425 114.123C307.732 114.778 307.415 115.544 306.718 115.832C233.566 146.115 186.298 214.24 186.298 289.387C186.298 290.102 185.681 290.682 184.92 290.682Z" fill="#00FFEB"/>
<path d="M558.39 290.868C557.689 290.868 557.12 290.299 557.12 289.598C557.12 231.052 529.007 175.252 481.918 140.336C481.355 139.917 481.236 139.123 481.654 138.559C482.073 137.995 482.867 137.877 483.431 138.295C506.564 155.448 525.741 178.015 538.889 203.555C552.671 230.326 559.66 259.276 559.66 289.597C559.659 290.299 559.091 290.868 558.39 290.868Z" fill="#00FFEB"/>
<path d="M471.532 132.931C471.299 132.931 471.063 132.868 470.851 132.733C467.037 130.31 463.09 128.002 459.122 125.871C458.504 125.539 458.271 124.77 458.604 124.152C458.937 123.534 459.708 123.304 460.322 123.634C464.347 125.793 468.346 128.134 472.214 130.59C472.806 130.966 472.98 131.75 472.605 132.342C472.362 132.723 471.952 132.931 471.532 132.931Z" fill="#00FFEB"/>
<path d="M451.627 121.349C451.447 121.349 451.265 121.308 451.092 121.221C426.579 108.904 400.286 102.658 372.943 102.658C352.946 102.658 333.291 106.06 314.523 112.77C313.871 113.004 313.162 112.632 312.942 111.941C312.721 111.25 313.072 110.5 313.725 110.267C332.751 103.465 352.674 100.016 372.943 100.016C400.659 100.016 427.312 106.347 452.163 118.834C452.786 119.147 453.05 119.934 452.756 120.594C452.542 121.07 452.094 121.349 451.627 121.349Z" fill="#00FFEB"/>
<path d="M589.706 290.868C589.005 290.868 588.436 290.299 588.436 289.599C588.436 265.699 584.577 242.214 576.967 219.797C576.741 219.133 577.097 218.411 577.761 218.186C578.425 217.961 579.146 218.317 579.372 218.98C587.071 241.662 590.975 265.421 590.975 289.599C590.975 290.299 590.407 290.868 589.706 290.868Z" fill="#00FFEB"/>
<path d="M574.154 209.349C573.606 209.349 573.088 209.033 572.867 208.513C556.109 168.767 528.186 134.396 492.116 109.114C491.495 108.679 491.356 107.839 491.806 107.238C492.255 106.636 493.125 106.504 493.745 106.938C530.236 132.514 558.484 167.287 575.439 207.498C575.728 208.185 575.388 208.969 574.678 209.249C574.505 209.316 574.328 209.349 574.154 209.349Z" fill="#00FFEB"/>
<path d="M486.815 105.54C486.586 105.54 486.353 105.478 486.144 105.347C451.788 83.9101 412.117 72.5796 371.42 72.5796C353.077 72.5796 334.854 74.8719 317.257 79.3923C316.577 79.5683 315.885 79.1569 315.711 78.4789C315.537 77.8 315.946 77.1075 316.625 76.9332C334.428 72.3595 352.864 70.04 371.42 70.04C412.594 70.04 452.73 81.5043 487.488 103.194C488.083 103.564 488.264 104.348 487.893 104.942C487.652 105.328 487.238 105.54 486.815 105.54Z" fill="#00FFEB"/>
<path d="M275.433 94.7586C274.964 94.7586 274.513 94.4971 274.292 94.0476C273.983 93.4178 274.243 92.6567 274.873 92.3486C281.577 89.0608 288.527 86.0861 295.529 83.5068C296.187 83.2656 296.918 83.6016 297.159 84.2594C297.402 84.9171 297.065 85.6477 296.406 85.8898C289.485 88.4386 282.617 91.3785 275.99 94.6283C275.813 94.7172 275.621 94.7586 275.433 94.7586Z" fill="#00FFEB"/>
<path d="M153.13 290.868C152.429 290.868 151.86 290.299 151.86 289.598C151.86 250.609 162.211 212.317 181.793 178.857C200.799 146.382 227.998 119.15 260.451 100.105C261.055 99.7514 261.835 99.952 262.189 100.557C262.544 101.162 262.342 101.94 261.736 102.295C195.529 141.15 154.4 212.92 154.4 289.598C154.4 290.299 153.831 290.868 153.13 290.868Z" fill="#00FFEB"/>
</g>
<path d="M426.111 347.111C424.723 347.739 423.207 348.069 421.639 348.068C418.722 348.066 415.979 346.916 413.919 344.829L407.318 338.142C401.31 342.183 394.697 344.949 387.629 346.375L387.623 355.844C387.621 358.787 386.485 361.553 384.427 363.633C382.365 365.715 379.621 366.865 376.702 366.863C370.684 366.858 365.791 361.909 365.794 355.83L365.8 346.359C358.73 344.925 352.12 342.152 346.121 338.101L339.509 344.778C337.445 346.864 334.704 348.01 331.784 348.008C328.866 348.006 326.123 346.856 324.064 344.769C319.819 340.469 319.825 333.48 324.074 329.188L330.701 322.492C326.697 316.411 323.957 309.714 322.549 302.554L313.205 302.55C307.188 302.545 302.294 297.597 302.297 291.517C302.299 288.574 303.435 285.808 305.494 283.728C307.556 281.646 310.299 280.495 313.219 280.498L322.566 280.504C323.983 273.347 326.73 266.653 330.743 260.578L324.124 253.875C319.879 249.575 319.885 242.586 324.133 238.292C326.199 236.206 328.941 235.061 331.857 235.063C334.776 235.063 337.519 236.214 339.58 238.301L346.181 244.988C352.185 240.947 358.799 238.18 365.871 236.756L365.876 227.285C365.881 221.207 370.781 216.262 376.798 216.268C379.715 216.269 382.458 217.42 384.519 219.506C386.576 221.59 387.708 224.357 387.706 227.298L387.699 236.768C394.765 238.202 401.376 240.975 407.379 245.027L413.989 238.349C416.053 236.263 418.794 235.117 421.714 235.12C424.633 235.121 427.376 236.271 429.435 238.358C433.679 242.657 433.675 249.647 429.425 253.938L422.797 260.634C426.803 266.716 429.541 273.414 430.949 280.571L440.295 280.578C446.313 280.581 451.206 285.529 451.203 291.609C451.198 297.689 446.3 302.633 440.28 302.626L430.936 302.622C429.518 309.779 426.769 316.472 422.758 322.547L429.378 329.251C433.621 333.55 433.616 340.541 429.368 344.832C428.411 345.804 427.31 346.568 426.111 347.111ZM407.638 334.678L415.812 342.958C417.368 344.536 419.44 345.405 421.64 345.406C423.844 345.41 425.917 344.54 427.473 342.968C430.702 339.706 430.705 334.393 427.48 331.128L419.323 322.864L419.947 321.958C424.289 315.65 427.173 308.621 428.52 301.062L428.716 299.964L440.281 299.97C444.83 299.977 448.533 296.224 448.541 291.612C448.544 287.001 444.843 283.246 440.292 283.245L428.726 283.236L428.532 282.136C427.198 274.578 424.322 267.545 419.987 261.23L419.363 260.322L427.531 252.072C430.76 248.81 430.763 243.499 427.538 240.232C425.982 238.654 423.91 237.785 421.71 237.784C419.509 237.781 417.439 238.652 415.878 240.224L407.693 248.494L406.771 247.847C400.538 243.455 393.591 240.538 386.127 239.18L385.034 238.981L385.041 227.3C385.043 225.063 384.184 222.96 382.622 221.378C381.065 219.802 378.994 218.931 376.795 218.931C372.243 218.924 368.538 222.678 368.535 227.289L368.529 238.97L367.435 239.168C359.966 240.517 353.018 243.423 346.78 247.806L345.858 248.454L337.683 240.174C336.126 238.596 334.055 237.727 331.854 237.726C329.655 237.724 327.583 238.591 326.023 240.165C322.793 243.428 322.79 248.739 326.016 252.006L334.173 260.269L333.549 261.175C329.205 267.484 326.321 274.514 324.976 282.071L324.78 283.168L313.214 283.161C311.011 283.159 308.942 284.026 307.381 285.601C305.819 287.181 304.957 289.282 304.956 291.519C304.953 296.13 308.654 299.886 313.204 299.89L324.769 299.895L324.963 300.995C326.298 308.553 329.173 315.587 333.508 321.901L334.131 322.808L325.963 331.059C322.733 334.322 322.73 339.633 325.956 342.9C327.512 344.478 329.583 345.347 331.783 345.348C333.988 345.349 336.058 344.48 337.615 342.909L345.802 334.638L346.723 335.285C352.952 339.677 359.899 342.592 367.367 343.951L368.46 344.149L368.453 355.832C368.449 360.444 372.148 364.198 376.7 364.202C378.905 364.203 380.975 363.335 382.533 361.761C384.096 360.181 384.957 358.08 384.958 355.843L384.967 344.161L386.061 343.964C393.527 342.614 400.477 339.705 406.715 335.324L407.638 334.678ZM393.198 328.85C388.163 331.131 382.587 332.398 376.722 332.394C365.933 332.386 355.795 328.131 348.174 320.411C340.556 312.695 336.363 302.442 336.371 291.54C336.379 280.637 340.582 270.39 348.211 262.684C355.841 254.975 365.988 250.735 376.774 250.739C399.037 250.753 417.138 269.079 417.125 291.592C417.114 308.175 407.277 322.474 393.198 328.85ZM361.348 256.707C357.211 258.58 353.406 261.221 350.103 264.557C342.972 271.763 339.04 281.347 339.035 291.543C339.027 301.741 342.947 311.33 350.069 318.542C357.188 325.752 366.655 329.726 376.725 329.733C397.525 329.749 414.451 312.635 414.464 291.593C414.477 270.548 397.57 253.415 376.774 253.403C371.37 253.398 366.137 254.538 361.348 256.707Z" fill="#6B8BBA" fill-opacity="0.6"/>
<path d="M298.376 383.55C296.551 384.377 294.52 384.455 292.642 383.771C290.726 383.071 289.201 381.66 288.348 379.798L285.933 374.529C281.496 375.583 276.984 375.795 272.488 375.16L270.485 380.655C269.78 382.585 268.375 384.128 266.527 385.001C264.633 385.933 262.597 385.973 260.681 385.273C258.765 384.575 257.239 383.164 256.385 381.3C255.534 379.443 255.452 377.358 256.155 375.429L258.159 369.933C254.311 367.523 250.995 364.455 248.28 360.795L243.039 363.269C241.199 364.093 239.108 364.24 237.192 363.542C235.275 362.843 233.751 361.431 232.898 359.57C231.141 355.736 232.813 351.152 236.624 349.35L241.887 346.864C240.871 342.392 240.693 337.833 241.358 333.284L235.941 331.309C234.025 330.609 232.499 329.198 231.645 327.334C230.793 325.476 230.712 323.391 231.415 321.461C232.118 319.532 233.524 317.989 235.372 317.116C237.283 316.242 239.303 316.145 241.218 316.843L246.634 318.819C249.054 314.91 252.127 311.538 255.785 308.768L253.36 303.478C251.603 299.644 253.275 295.061 257.088 293.259C258.972 292.405 261.018 292.289 262.934 292.987C264.851 293.685 266.376 295.098 267.229 296.96L269.645 302.228C274.081 301.174 278.594 300.963 283.089 301.598L285.092 296.102L285.093 296.104C285.796 294.173 287.201 292.629 289.05 291.757C290.896 290.849 292.978 290.784 294.897 291.482C298.847 292.924 300.875 297.341 299.422 301.329L297.418 306.824C301.268 309.236 304.584 312.304 307.298 315.964L312.538 313.488C314.446 312.643 316.47 312.517 318.384 313.216C320.301 313.913 321.826 315.326 322.68 317.189C324.439 321.021 322.766 325.606 318.951 327.408L313.691 329.893C314.706 334.367 314.885 338.925 314.221 343.474L319.636 345.449C323.588 346.891 325.616 351.309 324.162 355.296C323.459 357.225 322.054 358.769 320.205 359.641C318.371 360.529 316.277 360.614 314.359 359.914L308.943 357.939C306.521 361.848 303.449 365.221 299.792 367.989L302.218 373.278C303.975 377.113 302.303 381.696 298.49 383.497C298.452 383.514 298.415 383.533 298.376 383.55ZM270.745 372.176L271.839 372.364C276.686 373.199 281.563 372.969 286.334 371.681L287.422 371.389L290.767 378.689C291.323 379.901 292.312 380.817 293.555 381.271C294.772 381.716 296.092 381.665 297.279 381.127C297.304 381.116 297.329 381.103 297.355 381.091C299.855 379.911 300.953 376.903 299.8 374.39L296.464 367.113L297.359 366.475C301.403 363.596 304.72 359.953 307.216 355.648L307.776 354.684L315.271 357.417C316.515 357.87 317.868 357.835 319.068 357.238C320.279 356.666 321.199 355.653 321.661 354.388C322.614 351.779 321.296 348.892 318.724 347.953L311.228 345.22L311.423 344.121C312.285 339.222 312.094 334.298 310.854 329.49L310.581 328.425L317.818 325.006C320.32 323.824 321.417 320.818 320.263 318.304C319.707 317.092 318.717 316.173 317.475 315.719C316.258 315.275 314.939 315.326 313.753 315.864C313.726 315.876 313.702 315.888 313.677 315.9L306.417 319.331L305.775 318.406C302.954 314.351 299.37 311.035 295.123 308.55L294.164 307.989L296.923 300.423C297.876 297.814 296.558 294.927 293.987 293.991C292.743 293.536 291.387 293.534 290.189 294.169C288.979 294.741 288.059 295.754 287.596 297.019L287.597 297.02L284.835 304.586L283.741 304.398C278.895 303.564 274.018 303.793 269.247 305.08L268.16 305.372L264.814 298.074C264.257 296.862 263.267 295.943 262.025 295.489C260.808 295.045 259.489 295.096 258.303 295.634C258.277 295.645 258.252 295.658 258.227 295.67C255.726 296.85 254.629 299.858 255.782 302.372L259.117 309.649L258.221 310.287C254.177 313.165 250.861 316.809 248.365 321.115L247.805 322.079L240.308 319.344C239.066 318.892 237.721 318.947 236.512 319.524C235.302 320.097 234.381 321.108 233.919 322.374C233.456 323.642 233.509 325.009 234.067 326.227C234.622 327.439 235.613 328.355 236.855 328.809L244.353 331.544L244.158 332.643C243.296 337.544 243.487 342.468 244.727 347.273L245 348.338L237.761 351.758C235.261 352.94 234.164 355.948 235.317 358.461C235.873 359.673 236.862 360.589 238.105 361.043C239.346 361.497 240.672 361.415 241.903 360.864L249.161 357.435L249.804 358.359C252.627 362.415 256.212 365.73 260.455 368.214L261.414 368.776L258.654 376.342C258.191 377.609 258.244 378.977 258.802 380.194C259.357 381.406 260.348 382.323 261.59 382.776C262.833 383.231 264.171 383.197 265.387 382.597C266.598 382.025 267.519 381.014 267.982 379.746L270.745 372.176ZM288.701 363.22C282.251 366.141 275.075 366.421 268.441 364.002C254.466 358.903 247.29 343.26 252.443 329.133C254.94 322.293 259.921 316.821 266.47 313.727C273.057 310.59 280.365 310.287 287.136 312.756C293.909 315.228 299.303 320.217 302.323 326.805C305.342 333.39 305.63 340.784 303.133 347.626C300.638 354.467 295.657 359.938 289.107 363.032C288.974 363.095 288.838 363.158 288.701 363.22ZM267.973 315.963C267.85 316.019 267.73 316.075 267.607 316.133C261.696 318.926 257.197 323.867 254.944 330.047C250.292 342.796 256.755 356.907 269.352 361.502C275.451 363.729 282.04 363.388 287.971 360.628C293.882 357.835 298.378 352.895 300.633 346.714L300.634 346.713C302.889 340.536 302.629 333.858 299.905 327.915C297.183 321.977 292.324 317.482 286.224 315.258C280.251 313.077 273.786 313.331 267.973 315.963Z" fill="#6B8BBA" fill-opacity="0.6"/>
<path d="M194.781 166.787C194.781 169.457 192.617 171.621 189.947 171.621C187.277 171.621 185.112 169.457 185.112 166.787C185.112 164.117 187.277 161.953 189.947 161.953C192.617 161.953 194.781 164.117 194.781 166.787Z" fill="#30D5C8"/>
<path d="M358.876 38.6826V86.6826H270.876V120.016V184.016H212.876V255.349" stroke="#6B8BBA" stroke-width="2.66667"/>
<path d="M358.876 86.6826L457.543 86.6826V149.349H516.209V242.016H542.415V304" stroke="#6B8BBA" stroke-width="2.66667"/>
<path d="M287.665 237.292C287.665 238.741 286.49 239.917 285.04 239.917C283.59 239.917 282.415 238.742 282.415 237.292C282.415 235.843 283.59 234.667 285.04 234.667C286.49 234.667 287.665 235.842 287.665 237.292Z" fill="#3499FF"/>
<path d="M309.748 90.6668C312.325 90.6668 314.414 88.5775 314.414 86.0002C314.414 83.4228 312.325 81.3335 309.748 81.3335C307.17 81.3335 305.081 83.4228 305.081 86.0002C305.081 88.5775 307.17 90.6668 309.748 90.6668Z" fill="#3499FF"/>
<path d="M542.493 218.072C543.943 218.072 545.118 216.897 545.118 215.447C545.118 213.997 543.943 212.822 542.493 212.822C541.043 212.822 539.868 213.997 539.868 215.447C539.868 216.897 541.043 218.072 542.493 218.072Z" fill="#30D5C8"/>
<path d="M594.209 269.374C594.209 272.044 592.044 274.209 589.374 274.209C586.705 274.209 584.54 272.044 584.54 269.374C584.54 266.705 586.705 264.54 589.374 264.54C592.044 264.54 594.209 266.705 594.209 269.374Z" fill="#30D5C8"/>
<path d="M405.081 177.333C405.081 179.543 403.29 181.333 401.081 181.333C398.872 181.333 397.081 179.543 397.081 177.333C397.081 175.124 398.872 173.333 401.081 173.333C403.29 173.334 405.081 175.124 405.081 177.333Z" fill="#30D5C8"/>
<path d="M511.828 203.202L473.123 189.987C472.681 189.835 472.444 189.354 472.595 188.911L490.646 136.045C490.797 135.603 491.279 135.366 491.721 135.517L530.425 148.732C530.868 148.883 531.105 149.365 530.953 149.807L512.903 202.674C512.752 203.116 512.27 203.353 511.828 203.202Z" fill="#30D5C8"/>
<path d="M512.101 204.051C511.925 204.051 511.745 204.023 511.57 203.963L472.866 190.748C472.449 190.606 472.111 190.31 471.917 189.914C471.723 189.517 471.694 189.069 471.836 188.652L489.887 135.786C490.03 135.368 490.326 135.032 490.723 134.837C491.118 134.643 491.566 134.613 491.984 134.757L530.687 147.971C531.104 148.114 531.441 148.41 531.636 148.807C531.83 149.203 531.859 149.651 531.716 150.068L513.666 202.934C513.431 203.619 512.788 204.051 512.101 204.051ZM491.453 136.277C491.435 136.277 491.414 136.29 491.409 136.306L473.358 189.172C473.351 189.191 473.366 189.219 473.385 189.226L512.089 202.441H512.09C512.108 202.447 512.137 202.434 512.144 202.415L530.194 149.548C530.201 149.529 530.186 149.5 530.167 149.494L491.464 136.279C491.46 136.278 491.456 136.277 491.453 136.277Z" fill="#233863"/>
<path d="M519.862 199.678L479.095 196.413C478.629 196.375 478.281 195.967 478.318 195.5L482.778 139.816C482.816 139.35 483.224 139.002 483.69 139.039L524.458 142.305C524.924 142.342 525.272 142.751 525.234 143.217L520.774 198.901C520.737 199.368 520.328 199.715 519.862 199.678Z" fill="#D4ECFF"/>
<path d="M519.929 200.484C519.884 200.484 519.839 200.483 519.794 200.479L479.026 197.214C478.587 197.178 478.188 196.974 477.901 196.639C477.615 196.303 477.477 195.875 477.512 195.436L481.972 139.752C482.045 138.844 482.843 138.165 483.75 138.238L524.517 141.503C525.424 141.576 526.103 142.373 526.03 143.28L521.57 198.965C521.535 199.405 521.331 199.805 520.995 200.091C520.695 200.347 520.32 200.484 519.929 200.484ZM483.619 139.84C483.596 139.84 483.578 139.857 483.575 139.881L479.116 195.564C479.114 195.585 479.135 195.609 479.156 195.611L519.923 198.876C519.948 198.871 519.968 198.857 519.969 198.837L524.429 143.152C524.431 143.129 524.414 143.108 524.39 143.106L483.622 139.84C483.621 139.84 483.62 139.84 483.619 139.84Z" fill="#233863"/>
<path d="M518.483 151.688C518.469 151.688 518.454 151.688 518.439 151.687L508.112 150.859C507.817 150.836 507.597 150.577 507.621 150.282C507.644 149.987 507.894 149.766 508.198 149.79L518.525 150.618C518.82 150.642 519.04 150.9 519.017 151.195C518.994 151.476 518.76 151.688 518.483 151.688Z" fill="#30D5C8"/>
<path d="M518.222 154.987C518.208 154.987 518.193 154.987 518.178 154.986L507.851 154.159C507.556 154.135 507.336 153.877 507.359 153.581C507.383 153.286 507.638 153.065 507.936 153.09L518.264 153.917C518.559 153.941 518.779 154.199 518.755 154.495C518.733 154.774 518.499 154.987 518.222 154.987Z" fill="#30D5C8"/>
<path d="M494.042 190.46C494.028 190.46 494.013 190.46 493.998 190.459L483.671 189.631C483.376 189.608 483.156 189.349 483.179 189.054C483.203 188.759 483.461 188.538 483.757 188.562L494.084 189.389C494.379 189.413 494.599 189.671 494.576 189.967C494.553 190.248 494.318 190.46 494.042 190.46Z" fill="#30D5C8"/>
<path d="M494.491 172.515C494.477 172.515 494.462 172.515 494.448 172.514L485.266 171.779C484.971 171.755 484.751 171.497 484.774 171.201C484.798 170.907 485.052 170.683 485.351 170.71L494.534 171.446C494.828 171.469 495.049 171.728 495.025 172.023C495.003 172.303 494.768 172.515 494.491 172.515Z" fill="#233863"/>
<path d="M500.12 185.284C500.106 185.284 500.091 185.283 500.076 185.282L484.285 184.018C483.99 183.994 483.77 183.736 483.794 183.441C483.818 183.146 484.071 182.922 484.371 182.95L500.162 184.214C500.457 184.238 500.677 184.496 500.653 184.791C500.631 185.071 500.397 185.284 500.12 185.284Z" fill="#233863"/>
<path d="M496.776 178.857C496.762 178.857 496.747 178.857 496.732 178.856L484.777 177.898C484.483 177.874 484.262 177.616 484.286 177.32C484.309 177.026 484.559 176.805 484.863 176.829L496.818 177.787C497.113 177.81 497.333 178.069 497.309 178.364C497.287 178.644 497.053 178.857 496.776 178.857Z" fill="#233863"/>
<path d="M516.63 168.626C516.616 168.626 516.601 168.626 516.587 168.625L485.67 166.148C485.375 166.125 485.155 165.866 485.178 165.571C485.202 165.276 485.452 165.051 485.756 165.08L516.672 167.556C516.967 167.579 517.187 167.838 517.164 168.133C517.141 168.413 516.907 168.626 516.63 168.626Z" fill="#233863"/>
<path d="M515.362 180.297C515.348 180.297 515.333 180.297 515.318 180.296L500.546 179.113C500.251 179.089 500.031 178.831 500.054 178.536C500.078 178.241 500.329 178.018 500.632 178.044L515.404 179.228C515.699 179.251 515.919 179.509 515.896 179.805C515.873 180.085 515.639 180.297 515.362 180.297Z" fill="#233863"/>
<path d="M516.869 174.307C516.854 174.307 516.839 174.307 516.824 174.306L497.878 172.707C497.583 172.682 497.364 172.423 497.39 172.127C497.415 171.832 497.676 171.618 497.969 171.638L516.914 173.237C517.209 173.262 517.428 173.521 517.403 173.816C517.379 174.096 517.145 174.307 516.869 174.307Z" fill="#233863"/>
<path d="M378.005 52.5816L336.61 53.7711C334.644 53.8269 333.005 52.2798 332.95 50.3156L332.005 17.4256C331.948 15.4604 333.495 13.8216 335.46 13.7658L376.856 12.5763C378.821 12.5192 380.46 14.0663 380.516 16.0318L381.461 48.9218C381.518 50.8857 379.971 52.5245 378.005 52.5816Z" fill="#30D5C8"/>
<path d="M379.363 54.4581C378.949 54.569 378.517 54.6335 378.07 54.646L378.069 54.6463L336.673 55.8358C333.574 55.9244 330.977 53.4754 330.888 50.373L329.943 17.4814C329.855 14.3817 332.311 11.7845 335.405 11.696L376.802 10.5061C379.902 10.4176 382.497 12.8682 382.588 15.9689L383.53 48.8596C383.608 51.5142 381.824 53.7985 379.363 54.4581ZM377.949 50.5135C378.78 50.4878 379.422 49.8007 379.397 48.9797L378.455 16.0889C378.431 15.2662 377.742 14.6162 376.92 14.641L335.524 15.8305C334.702 15.848 334.051 16.5433 334.075 17.3661L335.02 50.2547C335.043 51.0774 335.732 51.7261 336.553 51.703L377.949 50.5135Z" fill="#233863"/>
<path d="M355.528 41.3279C355.303 41.3882 355.069 41.4239 354.831 41.4363C353.957 41.4777 353.122 41.1752 352.475 40.5849L345.523 34.209C344.683 33.4368 344.626 32.1292 345.397 31.2878C346.167 30.4494 347.475 30.39 348.318 31.1615L354.618 36.9402L368.285 21.8648C369.047 21.0185 370.356 20.953 371.204 21.7217C372.05 22.4881 372.114 23.7953 371.347 24.6413L357.092 40.3682C356.668 40.8384 356.126 41.1678 355.528 41.3279Z" fill="#D4ECFF"/>
<rect x="431.747" y="105.333" width="34.6667" height="25.3333" fill="#080C26"/>
<path fill-rule="evenodd" clip-rule="evenodd" d="M433.303 98.167C432.213 98.167 431.167 98.6001 430.396 99.3711C429.626 100.142 429.192 101.188 429.192 102.278V131.056C429.192 132.146 429.626 133.192 430.396 133.963C431.167 134.734 432.213 135.167 433.303 135.167H466.192C467.283 135.167 468.328 134.734 469.099 133.963C469.87 133.192 470.303 132.146 470.303 131.056V102.278C470.303 101.188 469.87 100.142 469.099 99.3711C468.328 98.6001 467.283 98.167 466.192 98.167H433.303ZM442.81 109.74C442.856 109.347 442.993 108.97 443.21 108.639C443.427 108.308 443.719 108.033 444.061 107.835C444.404 107.637 444.788 107.522 445.182 107.498C445.577 107.475 445.972 107.544 446.336 107.701C447.372 108.145 449.559 109.144 452.33 110.743C454.277 111.856 456.158 113.082 457.962 114.414C458.279 114.65 458.537 114.957 458.714 115.31C458.892 115.664 458.984 116.054 458.984 116.449C458.984 116.845 458.892 117.234 458.714 117.588C458.537 117.941 458.279 118.248 457.962 118.484C456.158 119.815 454.277 121.04 452.33 122.151C450.393 123.283 448.391 124.3 446.336 125.198C445.972 125.354 445.577 125.424 445.182 125.401C444.787 125.378 444.403 125.263 444.06 125.064C443.718 124.866 443.426 124.591 443.209 124.26C442.992 123.929 442.856 123.552 442.81 123.158C442.564 120.931 442.443 118.691 442.449 116.449C442.449 113.261 442.679 110.86 442.81 109.74Z" fill="#75BAFF"/>
<rect x="527.748" y="249.333" width="44" height="32" fill="#080C26"/>
<mask id="mask0_61_3721" style="mask-type:luminance" maskUnits="userSpaceOnUse" x="527" y="248" width="46" height="38">
<path d="M568.245 250.889H531.245C530.11 250.889 529.189 251.809 529.189 252.944V281.722C529.189 282.857 530.11 283.778 531.245 283.778H568.245C569.38 283.778 570.301 282.857 570.301 281.722V252.944C570.301 251.809 569.38 250.889 568.245 250.889Z" fill="white" stroke="white" stroke-width="4.11111" stroke-linecap="round" stroke-linejoin="round"/>
<path d="M557.967 268.361V275.555M549.745 259.111V275.555M541.522 263.222V275.555" stroke="black" stroke-width="4.11111" stroke-linecap="round" stroke-linejoin="round"/>
</mask>
<g mask="url(#mask0_61_3721)">
<path d="M525.079 242.667H574.412V292H525.079V242.667Z" fill="#30D5C8"/>
</g>
<g clip-path="url(#clip0_61_3721)">
<path d="M234.089 176.592L224.254 173.956C223.829 173.841 223.386 173.811 222.95 173.868C222.514 173.925 222.093 174.068 221.712 174.288L204.868 184.013C204.103 184.455 203.544 185.183 203.315 186.037C203.086 186.891 203.206 187.801 203.648 188.566L220.315 217.434C220.757 218.2 221.485 218.758 222.339 218.987C223.193 219.216 224.103 219.096 224.868 218.654L247.962 205.321C248.728 204.879 249.286 204.151 249.515 203.297C249.744 202.443 249.624 201.533 249.182 200.767L236.124 178.15C235.904 177.768 235.611 177.435 235.262 177.167C234.913 176.9 234.514 176.704 234.089 176.592ZM235.98 195.4C236.342 196.028 236.51 196.749 236.463 197.473C236.416 198.196 236.155 198.89 235.713 199.465C235.272 200.04 234.669 200.472 233.983 200.705C233.296 200.938 232.556 200.962 231.855 200.775C231.155 200.587 230.526 200.196 230.047 199.65C229.569 199.105 229.264 198.43 229.169 197.711C229.074 196.992 229.195 196.262 229.516 195.611C229.836 194.961 230.343 194.42 230.971 194.057C231.072 193.999 231.259 193.891 231.159 193.718L229.051 190.066C228.997 189.981 228.914 189.919 228.817 189.893C228.744 189.907 228.678 189.946 228.629 190.002L223.782 195.34L223.609 195.44C223.551 195.492 223.512 195.562 223.501 195.639C223.489 195.717 223.505 195.795 223.545 195.862L228.462 204.378C228.823 205.01 228.987 205.736 228.934 206.462C228.882 207.188 228.614 207.882 228.166 208.455C227.717 209.029 227.108 209.455 226.416 209.682C225.724 209.908 224.98 209.923 224.28 209.724C223.579 209.526 222.954 209.124 222.482 208.569C222.011 208.014 221.716 207.332 221.634 206.608C221.552 205.885 221.688 205.154 222.023 204.507C222.358 203.861 222.878 203.329 223.517 202.98C223.618 202.922 223.805 202.813 223.714 202.654L220.722 197.473C220.306 196.763 220.14 195.933 220.253 195.118C220.365 194.303 220.748 193.549 221.341 192.978L226.185 187.602L226.358 187.502C226.768 187.149 227.251 186.891 227.772 186.747C228.293 186.602 228.839 186.575 229.372 186.666C229.905 186.758 230.411 186.966 230.854 187.276C231.297 187.586 231.666 187.99 231.934 188.459L235.98 195.4Z" fill="#30D5C8"/>
</g>
<g clip-path="url(#clip1_61_3721)">
<rect x="248.005" y="124.337" width="44" height="29.3333" transform="rotate(-4.24253 248.005 124.337)" fill="#080C26"/>
<path d="M264.365 130.769C264.455 131.992 264.056 133.201 263.256 134.13C262.455 135.06 261.318 135.633 260.094 135.723C258.871 135.814 257.662 135.415 256.733 134.614C255.804 133.814 255.231 132.676 255.14 131.453C255.049 130.23 255.448 129.021 256.249 128.092C257.05 127.162 258.187 126.589 259.41 126.499C260.633 126.408 261.843 126.807 262.772 127.608C263.701 128.408 264.274 129.546 264.365 130.769Z" fill="#CDDAED"/>
<path d="M249.723 121.034C248.499 121.125 247.362 121.698 246.561 122.627C245.761 123.556 245.362 124.765 245.453 125.988L247.505 153.662C247.596 154.886 248.169 156.023 249.098 156.823C250.027 157.624 251.237 158.023 252.46 157.932L292.433 154.967C293.657 154.876 294.794 154.303 295.595 153.374C296.395 152.445 296.794 151.236 296.704 150.013L294.651 122.339C294.56 121.115 293.987 119.978 293.058 119.178C292.129 118.377 290.919 117.978 289.696 118.069L249.723 121.034ZM289.924 121.143C290.332 121.113 290.735 121.246 291.045 121.513C291.355 121.78 291.546 122.159 291.576 122.567L292.944 141.016L280.893 135.89C280.594 135.767 280.263 135.741 279.949 135.816C279.634 135.891 279.351 136.063 279.14 136.308L268.578 148.562L259.995 143.72C259.685 143.545 259.324 143.483 258.973 143.544C258.623 143.605 258.304 143.785 258.072 144.054L250.472 151.896L250.596 153.557L250.58 153.434L248.527 125.76C248.497 125.352 248.63 124.949 248.897 124.64C249.164 124.33 249.543 124.139 249.951 124.109L289.924 121.143Z" fill="#CDDAED"/>
</g>
<g clip-path="url(#clip2_61_3721)">
<path d="M210.321 283.851C210.753 283.596 211.225 283.352 211.737 283.117C211.304 283.762 210.841 284.385 210.349 284.986C209.486 286.025 208.814 286.577 208.391 286.75L208.283 286.787C208.253 286.744 208.226 286.698 208.203 286.651C208.03 286.312 208.037 285.985 208.326 285.541C208.653 285.032 209.31 284.449 210.321 283.851ZM217.891 278.773C217.525 278.849 217.159 278.929 216.793 279.014C217.337 277.949 217.851 276.869 218.335 275.776C218.822 276.679 219.347 277.562 219.907 278.422C219.237 278.52 218.565 278.637 217.891 278.773ZM225.676 281.668C225.198 281.281 224.75 280.858 224.335 280.404C225.042 280.419 225.671 280.474 226.222 280.571C227.2 280.746 227.659 281.024 227.819 281.215C227.869 281.269 227.897 281.339 227.899 281.412C227.888 281.63 227.825 281.841 227.714 282.029C227.653 282.18 227.553 282.312 227.425 282.411C227.362 282.452 227.286 282.469 227.212 282.458C226.934 282.448 226.416 282.254 225.676 281.668ZM218.816 267.035C218.693 267.787 218.483 268.65 218.199 269.591C218.095 269.239 218.004 268.883 217.925 268.524C217.691 267.436 217.657 266.582 217.783 265.99C217.9 265.444 218.122 265.225 218.387 265.117C218.529 265.054 218.68 265.012 218.834 264.994C218.875 265.086 218.921 265.277 218.933 265.604C218.95 265.98 218.91 266.458 218.816 267.038V267.035Z" fill="#3499FF"/>
<path fill-rule="evenodd" clip-rule="evenodd" d="M205.626 245.544H221.946C222.763 245.544 223.548 245.869 224.126 246.447L235.556 257.877C236.134 258.455 236.459 259.24 236.459 260.057V288.711C236.459 290.346 235.809 291.915 234.653 293.071C233.496 294.228 231.928 294.877 230.292 294.877H205.626C203.99 294.877 202.422 294.228 201.265 293.071C200.109 291.915 199.459 290.346 199.459 288.711V251.711C199.459 250.075 200.109 248.507 201.265 247.35C202.422 246.194 203.99 245.544 205.626 245.544ZM222.584 250.169V256.336C222.584 257.153 222.909 257.938 223.487 258.516C224.065 259.094 224.85 259.419 225.667 259.419H231.834L222.584 250.169ZM206.134 287.687C206.412 288.242 206.844 288.745 207.485 288.979C208.123 289.21 208.755 289.102 209.273 288.886C210.254 288.486 211.231 287.542 212.128 286.463C213.155 285.226 214.234 283.605 215.276 281.807C217.289 281.211 219.349 280.793 221.434 280.555C222.359 281.736 223.315 282.754 224.24 283.484C225.103 284.163 226.099 284.727 227.12 284.77C227.675 284.797 228.226 284.648 228.692 284.345C229.17 284.033 229.525 283.583 229.784 283.062C230.061 282.504 230.231 281.921 230.209 281.326C230.191 280.739 229.973 280.176 229.592 279.729C228.896 278.896 227.755 278.496 226.632 278.295C225.271 278.085 223.89 278.034 222.516 278.141C221.357 276.501 220.346 274.761 219.494 272.942C220.265 270.907 220.842 268.983 221.098 267.411C221.209 266.739 221.267 266.097 221.246 265.518C221.242 264.942 221.108 264.375 220.854 263.859C220.708 263.574 220.5 263.325 220.246 263.13C219.991 262.936 219.697 262.8 219.383 262.734C218.761 262.601 218.119 262.734 217.53 262.971C216.368 263.433 215.754 264.42 215.523 265.509C215.298 266.557 215.4 267.778 215.665 269.011C215.936 270.263 216.399 271.626 216.991 273.004C216.042 275.358 214.948 277.651 213.716 279.871C212.128 280.371 210.596 281.038 209.147 281.859C208.006 282.538 206.992 283.339 206.381 284.286C205.734 285.291 205.533 286.488 206.134 287.687Z" fill="#3499FF"/>
</g>
<g filter="url(#filter0_f_61_3721)">
<path d="M235.008 350.088C180.739 387.383 99.1282 367.231 148.685 423.103C198.242 478.974 420.158 471.022 474.427 433.727C528.695 396.431 394.765 343.915 345.208 288.044C295.652 232.173 289.276 312.792 235.008 350.088Z" fill="url(#paint0_linear_61_3721)"/>
</g>
<line x1="97.082" y1="463" x2="650.415" y2="463" stroke="url(#paint1_linear_61_3721)" stroke-width="2"/>
<defs>
<filter id="filter0_f_61_3721" x="-0.000335693" y="135.579" width="620.477" height="461.113" filterUnits="userSpaceOnUse" color-interpolation-filters="sRGB">
<feFlood flood-opacity="0" result="BackgroundImageFix"/>
<feBlend mode="normal" in="SourceGraphic" in2="BackgroundImageFix" result="shape"/>
<feGaussianBlur stdDeviation="66.6667" result="effect1_foregroundBlur_61_3721"/>
</filter>
<linearGradient id="paint0_linear_61_3721" x1="498.546" y1="417.151" x2="322.596" y2="219.514" gradientUnits="userSpaceOnUse">
<stop stop-color="#30D5C8"/>
<stop offset="1" stop-color="#7557FF"/>
</linearGradient>
<linearGradient id="paint1_linear_61_3721" x1="97.082" y1="464" x2="97.1808" y2="471.907" gradientUnits="userSpaceOnUse">
<stop stop-color="#6DDCFF"/>
<stop offset="1" stop-color="#7557FF"/>
</linearGradient>
<clipPath id="clip0_61_3721">
<rect width="40" height="40" fill="white" transform="translate(199.095 187.347) rotate(-30)"/>
</clipPath>
<clipPath id="clip1_61_3721">
<rect width="49.3333" height="49.3333" fill="white" transform="translate(244.654 115.226) rotate(-4.24253)"/>
</clipPath>
<clipPath id="clip2_61_3721">
<rect width="49.3333" height="49.3333" fill="white" transform="translate(193.292 245.544)"/>
</clipPath>
</defs>
</svg>
