<svg width="300" height="300" viewBox="0 0 300 300" fill="none" xmlns="http://www.w3.org/2000/svg">
<path d="M183.466 286.512H178.534C176.582 286.512 175 284.094 175 281.111V238.512H187V281.111C187 284.094 185.418 286.512 183.466 286.512Z" fill="#172133"/>
<path d="M146.031 299.512H140.018C137.284 299.512 135.35 295.958 136.204 292.505L153.533 222.512H168L149.845 295.843C149.303 298.033 147.765 299.512 146.031 299.512Z" fill="#232E40"/>
<path d="M215.969 299.512H221.982C224.716 299.512 226.651 295.958 225.796 292.505L208.467 222.512H194L212.155 295.843C212.697 298.033 214.235 299.512 215.969 299.512Z" fill="#232E40"/>
<mask id="path-4-inside-1_696_767" fill="white">
<path d="M61.6484 119.105C61.6484 53.3251 114.974 0 180.753 0C246.533 0 299.858 53.3251 299.858 119.105C299.858 184.885 246.533 238.21 180.753 238.21C114.974 238.21 61.6484 184.885 61.6484 119.105Z"/>
</mask>
<path d="M61.6484 119.105C61.6484 53.3251 114.974 0 180.753 0C246.533 0 299.858 53.3251 299.858 119.105C299.858 184.885 246.533 238.21 180.753 238.21C114.974 238.21 61.6484 184.885 61.6484 119.105Z" fill="#0A0E1A"/>
<path d="M61.6484 119.105M299.858 119.105M299.858 119.105M61.6484 119.105M180.753 0M299.858 119.105M180.753 238.21M61.6484 119.105M180.753 238.21V234.847C116.831 234.847 65.0108 183.028 65.0108 119.105H61.6484H58.286C58.286 186.742 113.117 241.572 180.753 241.572V238.21ZM299.858 119.105H296.496C296.496 183.028 244.676 234.847 180.753 234.847V238.21V241.572C248.39 241.572 303.22 186.742 303.22 119.105H299.858ZM180.753 0V3.36239C244.676 3.36239 296.496 55.1821 296.496 119.105H299.858H303.22C303.22 51.4681 248.39 -3.36239 180.753 -3.36239V0ZM180.753 0V-3.36239C113.117 -3.36239 58.286 51.4681 58.286 119.105H61.6484H65.0108C65.0108 55.1821 116.831 3.36239 180.753 3.36239V0Z" fill="#364153" mask="url(#path-4-inside-1_696_767)"/>
<mask id="path-6-inside-2_696_767" fill="white">
<path d="M101.352 119.106C101.352 75.2526 136.902 39.7026 180.755 39.7026C224.608 39.7026 260.158 75.2526 260.158 119.106C260.158 162.959 224.608 198.509 180.755 198.509C136.902 198.509 101.352 162.959 101.352 119.106Z"/>
</mask>
<path d="M101.352 119.106M260.158 119.106M260.158 119.106M101.352 119.106M180.755 39.7026M260.158 119.106M180.755 198.509M101.352 119.106M180.755 198.509V195.147C138.759 195.147 104.714 161.102 104.714 119.106H101.352H97.9892C97.9892 164.816 135.045 201.871 180.755 201.871V198.509ZM260.158 119.106H256.796C256.796 161.102 222.751 195.147 180.755 195.147V198.509V201.871C226.465 201.871 263.52 164.816 263.52 119.106H260.158ZM180.755 39.7026V43.065C222.751 43.065 256.796 77.1096 256.796 119.106H260.158H263.52C263.52 73.3956 226.465 36.3402 180.755 36.3402V39.7026ZM180.755 39.7026V36.3402C135.045 36.3402 97.9892 73.3956 97.9892 119.106H101.352H104.714C104.714 77.1096 138.759 43.065 180.755 43.065V39.7026Z" fill="#4A5565" mask="url(#path-6-inside-2_696_767)"/>
<mask id="path-8-inside-3_696_767" fill="white">
<path d="M141.055 119.107C141.055 97.1808 158.83 79.4058 180.756 79.4058C202.683 79.4058 220.458 97.1808 220.458 119.107C220.458 141.034 202.683 158.809 180.756 158.809C158.83 158.809 141.055 141.034 141.055 119.107Z"/>
</mask>
<path d="M141.055 119.107M220.458 119.107M220.458 119.107M141.055 119.107M180.756 79.4058M220.458 119.107M180.756 158.809M141.055 119.107M180.756 158.809V155.447C160.687 155.447 144.417 139.177 144.417 119.107H141.055H137.692C137.692 142.891 156.973 162.171 180.756 162.171V158.809ZM220.458 119.107H217.096C217.096 139.177 200.826 155.447 180.756 155.447V158.809V162.171C204.54 162.171 223.82 142.891 223.82 119.107H220.458ZM180.756 79.4058V82.7682C200.826 82.7682 217.096 99.0378 217.096 119.107H220.458H223.82C223.82 95.3238 204.54 76.0434 180.756 76.0434V79.4058ZM180.756 79.4058V76.0434C156.973 76.0434 137.692 95.3238 137.692 119.107H141.055H144.417C144.417 99.0378 160.687 82.7682 180.756 82.7682V79.4058Z" fill="#6A7282" mask="url(#path-8-inside-3_696_767)"/>
<g filter="url(#filter0_d_696_767)">
<path d="M169.348 120.344C169.348 114.045 174.454 108.938 180.753 108.938C187.052 108.938 192.158 114.045 192.158 120.344C192.158 126.642 187.052 131.749 180.753 131.749C174.454 131.749 169.348 126.642 169.348 120.344Z" fill="#75BAFF"/>
</g>
<g opacity="0.9">
<g filter="url(#filter1_f_696_767)">
<path d="M107.934 108.076C123.965 100.29 130.131 78.3889 136.656 97.5201C143.181 116.651 111.647 167.816 95.6162 175.603C79.585 183.39 85.1272 144.85 78.602 125.719C72.0769 106.588 91.9027 115.863 107.934 108.076Z" fill="url(#paint0_linear_696_767)" fill-opacity="0.96"/>
</g>
</g>
<path d="M104.435 147.703L54.7476 143.61L58.4403 128.465L104.435 147.703Z" fill="url(#paint1_linear_696_767)"/>
<path d="M50 89.0125L80.5006 117.012L73.5 124.012L45.5005 93.5125L50 89.0125Z" fill="#0A0E1A"/>
<path d="M28.6866 48.2168C27.7205 48.1857 26.7535 48.5212 25.516 49.7587C24.3268 50.948 22.9951 54.3838 22.2698 57.4211C22.22 57.6295 22.1753 57.8271 22.1306 58.0249L46.4542 80.4503C44.9256 74.3749 42.7169 67.6801 40.0998 61.9821C37.6148 56.5708 34.7246 52.0492 32.1135 49.8422C30.808 48.7388 29.6524 48.2481 28.6866 48.2168ZM19.6989 60.9953L17.484 63.2102L51.8565 100.493L56.9812 95.368L19.6989 60.9953ZM14.5136 65.6419C14.3158 65.6866 14.1182 65.7313 13.9098 65.7811C10.8725 66.5064 7.43666 67.8381 6.24724 69.0273C5.00971 70.2648 4.67398 71.2317 4.70506 72.1978C4.73636 73.1639 5.22707 74.3193 6.33048 75.625C8.53752 78.2361 13.0595 81.1265 18.4706 83.6116C24.1688 86.2286 30.8631 88.4376 36.9386 89.9659L14.5136 65.6419ZM59.8014 97.9676L54.4563 103.313L70.0538 120.231L76.7194 113.565L59.8014 97.9676ZM79.5395 116.165L72.6534 123.05L73.094 123.529C73.107 123.541 74.0348 124.428 75.3475 124.865C76.6691 125.306 78.0533 125.479 80.0102 123.522C81.9671 121.564 81.7943 120.18 81.3536 118.859C80.9156 117.544 80.0262 116.615 80.016 116.604L79.5395 116.165ZM83.834 124.906C83.5025 125.38 83.1297 125.823 82.7199 126.231C82.3119 126.641 81.8683 127.014 81.3944 127.346L104.298 147.81L83.834 124.906Z" fill="url(#paint2_linear_696_767)"/>
<defs>
<filter id="filter0_d_696_767" x="139.166" y="78.7566" width="83.1738" height="83.1739" filterUnits="userSpaceOnUse" color-interpolation-filters="sRGB">
<feFlood flood-opacity="0" result="BackgroundImageFix"/>
<feColorMatrix in="SourceAlpha" type="matrix" values="0 0 0 0 0 0 0 0 0 0 0 0 0 0 0 0 0 0 127 0" result="hardAlpha"/>
<feOffset/>
<feGaussianBlur stdDeviation="15.0909"/>
<feComposite in2="hardAlpha" operator="out"/>
<feColorMatrix type="matrix" values="0 0 0 0 0.231373 0 0 0 0 0.509804 0 0 0 0 0.964706 0 0 0 0.725 0"/>
<feBlend mode="normal" in2="BackgroundImageFix" result="effect1_dropShadow_696_767"/>
<feBlend mode="normal" in="SourceGraphic" in2="effect1_dropShadow_696_767" result="shape"/>
</filter>
<filter id="filter1_f_696_767" x="52.3257" y="64.8833" width="110.207" height="136.744" filterUnits="userSpaceOnUse" color-interpolation-filters="sRGB">
<feFlood flood-opacity="0" result="BackgroundImageFix"/>
<feBlend mode="normal" in="SourceGraphic" in2="BackgroundImageFix" result="shape"/>
<feGaussianBlur stdDeviation="12.5" result="effect1_foregroundBlur_696_767"/>
</filter>
<linearGradient id="paint0_linear_696_767" x1="88.4912" y1="179.064" x2="65.4961" y2="111.237" gradientUnits="userSpaceOnUse">
<stop stop-color="#30D5C8"/>
<stop offset="1" stop-color="#7557FF"/>
</linearGradient>
<linearGradient id="paint1_linear_696_767" x1="98.9739" y1="146.356" x2="49.8634" y2="132.009" gradientUnits="userSpaceOnUse">
<stop stop-color="#0A0E1A" stop-opacity="0.3"/>
<stop offset="1" stop-color="#0A0E1A" stop-opacity="0.15"/>
</linearGradient>
<linearGradient id="paint2_linear_696_767" x1="82" y1="126.012" x2="103" y2="147.012" gradientUnits="userSpaceOnUse">
<stop stop-color="#92ACD8"/>
<stop offset="1" stop-color="#4388C0"/>
</linearGradient>
</defs>
</svg>
