<svg width="275" height="300" viewBox="0 0 275 300" fill="none" xmlns="http://www.w3.org/2000/svg">
<path d="M157.305 286.206H152.373C150.421 286.206 148.839 283.788 148.839 280.805V238.206H160.839V280.805C160.839 283.788 159.257 286.206 157.305 286.206Z" fill="#172133"/>
<path d="M119.87 299.206H113.857C111.123 299.206 109.188 295.652 110.043 292.199L127.372 222.206H141.839L123.684 295.537C123.142 297.726 121.604 299.206 119.87 299.206Z" fill="#232E40"/>
<path d="M189.808 299.206H195.821C198.555 299.206 200.489 295.652 199.635 292.199L182.306 222.206H167.839L185.994 295.537C186.536 297.726 188.074 299.206 189.808 299.206Z" fill="#232E40"/>
<mask id="path-4-inside-1_696_787" fill="white">
<path d="M36.3076 119.105C36.3076 53.3251 89.6327 0 155.412 0C221.192 0 274.517 53.3251 274.517 119.105C274.517 184.885 221.192 238.21 155.412 238.21C89.6327 238.21 36.3076 184.885 36.3076 119.105Z"/>
</mask>
<path d="M36.3076 119.105C36.3076 53.3251 89.6327 0 155.412 0C221.192 0 274.517 53.3251 274.517 119.105C274.517 184.885 221.192 238.21 155.412 238.21C89.6327 238.21 36.3076 184.885 36.3076 119.105Z" fill="#0A0E1A"/>
<path d="M36.3076 119.105M274.517 119.105M274.517 119.105M36.3076 119.105M155.412 0M274.517 119.105M155.412 238.21M36.3076 119.105M155.412 238.21V234.847C91.4897 234.847 39.67 183.028 39.67 119.105H36.3076H32.9452C32.9452 186.742 87.7757 241.572 155.412 241.572V238.21ZM274.517 119.105H271.155C271.155 183.028 219.335 234.847 155.412 234.847V238.21V241.572C223.049 241.572 277.88 186.742 277.88 119.105H274.517ZM155.412 0V3.36239C219.335 3.36239 271.155 55.1821 271.155 119.105H274.517H277.88C277.88 51.4681 223.049 -3.36239 155.412 -3.36239V0ZM155.412 0V-3.36239C87.7757 -3.36239 32.9452 51.4681 32.9452 119.105H36.3076H39.67C39.67 55.1821 91.4897 3.36239 155.412 3.36239V0Z" fill="#364153" mask="url(#path-4-inside-1_696_787)"/>
<mask id="path-6-inside-2_696_787" fill="white">
<path d="M76.0107 119.106C76.0107 75.2526 111.561 39.7026 155.414 39.7026C199.267 39.7026 234.817 75.2526 234.817 119.106C234.817 162.959 199.267 198.509 155.414 198.509C111.561 198.509 76.0107 162.959 76.0107 119.106Z"/>
</mask>
<path d="M76.0107 119.106M234.817 119.106M234.817 119.106M76.0107 119.106M155.414 39.7026M234.817 119.106M155.414 198.509M76.0107 119.106M155.414 198.509V195.147C113.418 195.147 79.3731 161.102 79.3731 119.106H76.0107H72.6484C72.6484 164.816 109.704 201.871 155.414 201.871V198.509ZM234.817 119.106H231.455C231.455 161.102 197.41 195.147 155.414 195.147V198.509V201.871C201.124 201.871 238.18 164.816 238.18 119.106H234.817ZM155.414 39.7026V43.065C197.41 43.065 231.455 77.1096 231.455 119.106H234.817H238.18C238.18 73.3956 201.124 36.3402 155.414 36.3402V39.7026ZM155.414 39.7026V36.3402C109.704 36.3402 72.6484 73.3956 72.6484 119.106H76.0107H79.3731C79.3731 77.1096 113.418 43.065 155.414 43.065V39.7026Z" fill="#4A5565" mask="url(#path-6-inside-2_696_787)"/>
<mask id="path-8-inside-3_696_787" fill="white">
<path d="M115.714 119.107C115.714 97.1808 133.489 79.4058 155.415 79.4058C177.342 79.4058 195.117 97.1808 195.117 119.107C195.117 141.034 177.342 158.809 155.415 158.809C133.489 158.809 115.714 141.034 115.714 119.107Z"/>
</mask>
<path d="M115.714 119.107M195.117 119.107M195.117 119.107M115.714 119.107M155.415 79.4058M195.117 119.107M155.415 158.809M115.714 119.107M155.415 158.809V155.447C135.346 155.447 119.076 139.177 119.076 119.107H115.714H112.351C112.351 142.891 131.632 162.171 155.415 162.171V158.809ZM195.117 119.107H191.755C191.755 139.177 175.485 155.447 155.415 155.447V158.809V162.171C179.199 162.171 198.479 142.891 198.479 119.107H195.117ZM155.415 79.4058V82.7682C175.485 82.7682 191.755 99.0378 191.755 119.107H195.117H198.479C198.479 95.3238 179.199 76.0434 155.415 76.0434V79.4058ZM155.415 79.4058V76.0434C131.632 76.0434 112.351 95.3238 112.351 119.107H115.714H119.076C119.076 99.0378 135.346 82.7682 155.415 82.7682V79.4058Z" fill="#6A7282" mask="url(#path-8-inside-3_696_787)"/>
<circle cx="155.626" cy="119.317" r="11.24" fill="#75BAFF" fill-opacity="0.5"/>
<g filter="url(#filter0_f_696_787)">
<rect x="105.659" y="69.5122" width="100" height="100" fill="url(#paint0_linear_696_787)" fill-opacity="0.8"/>
<rect x="106.308" y="70.1607" width="98.7031" height="98.7031" stroke="black" stroke-width="1.29692"/>
</g>
<path d="M156.767 120.564L38.574 87.1671L47.7954 63.9061L156.767 120.564Z" fill="url(#paint1_linear_696_787)"/>
<path d="M102.659 62.0125L133.16 90.0125L126.159 97.0125L98.1597 66.5125L102.659 62.0125Z" fill="#0A0E1A"/>
<path d="M81.3457 21.2168C80.3796 21.1857 79.4127 21.5212 78.1751 22.7587C76.9859 23.948 75.6543 27.3838 74.929 30.4211C74.8792 30.6295 74.8345 30.8271 74.7898 31.0249L99.1134 53.4503C97.5848 47.3749 95.3761 40.6801 92.759 34.9821C90.2739 29.5708 87.3837 25.0492 84.7726 22.8422C83.4672 21.7388 82.3116 21.2481 81.3457 21.2168ZM72.3581 33.9953L70.1432 36.2102L104.516 73.4927L109.64 68.368L72.3581 33.9953ZM67.1728 38.6419C66.975 38.6866 66.7774 38.7313 66.569 38.7811C63.5317 39.5064 60.0958 40.8381 58.9064 42.0273C57.6689 43.2648 57.3332 44.2317 57.3642 45.1978C57.3955 46.1639 57.8862 47.3193 58.9897 48.625C61.1967 51.2361 65.7187 54.1265 71.1297 56.6116C76.828 59.2286 83.5223 61.4376 89.5978 62.9659L67.1728 38.6419ZM112.461 70.9676L107.116 76.3127L122.713 93.2309L129.379 86.5653L112.461 70.9676ZM132.199 89.1647L125.313 96.0504L125.753 96.5285C125.766 96.5409 126.694 97.4278 128.007 97.8655C129.328 98.306 130.713 98.4786 132.669 96.5215C134.626 94.5644 134.453 93.1804 134.013 91.8588C133.575 90.5444 132.685 89.6149 132.675 89.6043L132.199 89.1647ZM136.493 97.9057C136.162 98.3796 135.789 98.8231 135.379 99.2312C134.971 99.6411 134.527 100.014 134.054 100.346L156.957 120.81L136.493 97.9057Z" fill="url(#paint2_linear_696_787)"/>
<defs>
<filter id="filter0_f_696_787" x="81.6592" y="45.5122" width="148" height="148" filterUnits="userSpaceOnUse" color-interpolation-filters="sRGB">
<feFlood flood-opacity="0" result="BackgroundImageFix"/>
<feBlend mode="normal" in="SourceGraphic" in2="BackgroundImageFix" result="shape"/>
<feGaussianBlur stdDeviation="12" result="effect1_foregroundBlur_696_787"/>
</filter>
<linearGradient id="paint0_linear_696_787" x1="105.659" y1="69.5122" x2="217.785" y2="85.7421" gradientUnits="userSpaceOnUse">
<stop stop-color="#30D5C8"/>
<stop offset="1" stop-color="#7557FF"/>
</linearGradient>
<linearGradient id="paint1_linear_696_787" x1="153.798" y1="116.893" x2="27.9963" y2="63.6668" gradientUnits="userSpaceOnUse">
<stop stop-color="#0A0E1A" stop-opacity="0.3"/>
<stop offset="1" stop-color="#0A0E1A" stop-opacity="0.15"/>
</linearGradient>
<linearGradient id="paint2_linear_696_787" x1="138.159" y1="102.512" x2="156.659" y2="120.512" gradientUnits="userSpaceOnUse">
<stop stop-color="#92ACD8"/>
<stop offset="1" stop-color="#57A0E8"/>
</linearGradient>
</defs>
</svg>
