<svg width="460" height="463" viewBox="0 0 460 463" fill="none" xmlns="http://www.w3.org/2000/svg">
<path d="M281.457 445.206H269.139C264.265 445.206 260.314 441.255 260.314 436.381V366.781H290.282V436.381C290.282 441.255 286.331 445.206 281.457 445.206Z" fill="#172133"/>
<path d="M203.036 462.634H190.581C184.917 462.634 180.91 457.096 182.681 451.717L218.576 342.667H248.544L210.936 456.917C209.813 460.329 206.628 462.634 203.036 462.634Z" fill="#232E40"/>
<path d="M347.56 462.634H360.015C365.679 462.634 369.686 457.096 367.916 451.717L332.02 342.667H302.053L339.66 456.917C340.783 460.329 343.969 462.634 347.56 462.634Z" fill="#232E40"/>
<mask id="path-4-inside-1_72_6687" fill="white">
<path d="M92 183.673C92 82.2333 174.233 0 275.673 0V0C377.113 0 459.346 82.2333 459.346 183.673V183.673C459.346 285.113 377.113 367.346 275.673 367.346V367.346C174.233 367.346 92 285.113 92 183.673V183.673Z"/>
</mask>
<path d="M92 183.673C92 82.2333 174.233 0 275.673 0V0C377.113 0 459.346 82.2333 459.346 183.673V183.673C459.346 285.113 377.113 367.346 275.673 367.346V367.346C174.233 367.346 92 285.113 92 183.673V183.673Z" fill="#0A0E1A"/>
<path d="M92 183.673M459.346 183.673M459.346 183.673M92 183.673M275.673 0M459.346 183.673M275.673 367.346M92 183.673M275.673 367.346V362.161C177.097 362.161 97.1852 282.249 97.1852 183.673H92H86.8148C86.8148 287.977 171.37 372.532 275.673 372.532V367.346ZM459.346 183.673H454.161C454.161 282.249 374.249 362.161 275.673 362.161V367.346V372.532C379.977 372.532 464.532 287.977 464.532 183.673H459.346ZM275.673 0V5.18519C374.249 5.18519 454.161 85.097 454.161 183.673H459.346H464.532C464.532 79.3696 379.977 -5.18519 275.673 -5.18519V0ZM275.673 0V-5.18519C171.37 -5.18519 86.8148 79.3696 86.8148 183.673H92H97.1852C97.1852 85.097 177.097 5.18519 275.673 5.18519V0Z" fill="#364153" mask="url(#path-4-inside-1_72_6687)"/>
<mask id="path-6-inside-2_72_6687" fill="white">
<path d="M153.224 183.675C153.224 116.048 208.046 61.2261 275.672 61.2261V61.2261C343.299 61.2261 398.121 116.048 398.121 183.675V183.675C398.121 251.301 343.299 306.124 275.672 306.124V306.124C208.046 306.124 153.224 251.301 153.224 183.675V183.675Z"/>
</mask>
<path d="M153.224 183.675M398.121 183.675M398.121 183.675M153.224 183.675M275.672 61.2261M398.121 183.675M275.672 306.124M153.224 183.675M275.672 306.124V300.938C210.91 300.938 158.409 248.438 158.409 183.675H153.224H148.038C148.038 254.165 205.182 311.309 275.672 311.309V306.124ZM398.121 183.675H392.936C392.936 248.438 340.435 300.938 275.672 300.938V306.124V311.309C346.163 311.309 403.306 254.165 403.306 183.675H398.121ZM275.672 61.2261V66.4113C340.435 66.4113 392.936 118.912 392.936 183.675H398.121H403.306C403.306 113.185 346.163 56.0409 275.672 56.0409V61.2261ZM275.672 61.2261V56.0409C205.182 56.0409 148.038 113.185 148.038 183.675H153.224H158.409C158.409 118.912 210.91 66.4113 275.672 66.4113V61.2261Z" fill="#4A5565" mask="url(#path-6-inside-2_72_6687)"/>
<mask id="path-8-inside-3_72_6687" fill="white">
<path d="M214.453 183.677C214.453 149.863 241.864 122.452 275.678 122.452V122.452C309.491 122.452 336.902 149.863 336.902 183.677V183.677C336.902 217.49 309.491 244.901 275.678 244.901V244.901C241.864 244.901 214.453 217.49 214.453 183.677V183.677Z"/>
</mask>
<path d="M214.453 183.677M336.902 183.677M336.902 183.677M214.453 183.677M275.678 122.452M336.902 183.677M275.678 244.901M214.453 183.677M275.678 244.901V239.716C244.728 239.716 219.638 214.626 219.638 183.677H214.453H209.268C209.268 220.354 239.001 250.086 275.678 250.086V244.901ZM336.902 183.677H331.717C331.717 214.626 306.627 239.716 275.678 239.716V244.901V250.086C312.354 250.086 342.087 220.354 342.087 183.677H336.902ZM275.678 122.452V127.638C306.627 127.638 331.717 152.727 331.717 183.677H336.902H342.087C342.087 147 312.354 117.267 275.678 117.267V122.452ZM275.678 122.452V117.267C239.001 117.267 209.268 147 209.268 183.677H214.453H219.638C219.638 152.727 244.728 127.638 275.678 127.638V122.452Z" fill="#6A7282" mask="url(#path-8-inside-3_72_6687)"/>
<g filter="url(#filter0_d_72_6687)">
<path d="M258.083 185.583C258.083 175.87 265.957 167.995 275.671 167.995V167.995C285.384 167.995 293.259 175.87 293.259 185.583V185.583C293.259 195.297 285.384 203.171 275.671 203.171V203.171C265.957 203.171 258.083 195.297 258.083 185.583V185.583Z" fill="#75BAFF"/>
</g>
<g opacity="0.9">
<g filter="url(#filter1_f_72_6687)">
<path d="M166.46 166.666C191.183 154.658 200.691 120.885 210.754 150.387C220.816 179.89 172.187 258.792 147.465 270.8C122.743 282.808 131.29 223.375 121.227 193.873C111.165 164.371 141.738 178.675 166.46 166.666Z" fill="url(#paint0_linear_72_6687)"/>
</g>
</g>
<path d="M66.6667 136.667L107.334 174L98 183.333L60.6674 142.667L66.6667 136.667Z" fill="#0A0E1A"/>
<path d="M38.2474 82.2726C36.9593 82.2312 35.67 82.6785 34.02 84.3286C32.4344 85.9142 30.6589 90.4953 29.6918 94.545C29.6254 94.8229 29.5658 95.0863 29.5061 95.35L61.9376 125.251C59.8995 117.15 56.9546 108.224 53.4651 100.626C50.1517 93.4113 46.2981 87.3825 42.8166 84.4398C41.076 82.9686 39.5353 82.3143 38.2474 82.2726ZM26.264 99.3107L23.3107 102.264L69.1407 151.974L75.9736 145.141L26.264 99.3107ZM19.3501 105.506C19.0864 105.566 18.823 105.625 18.5451 105.692C14.4954 106.659 9.91425 108.434 8.32835 110.02C6.67831 111.67 6.23067 112.959 6.27211 114.247C6.31384 115.535 6.96812 117.076 8.43934 118.817C11.3821 122.298 17.4114 126.152 24.6261 129.466C32.2238 132.955 41.1496 135.9 49.2502 137.938L19.3501 105.506ZM79.7339 148.607L72.6071 155.734L93.4037 178.291L102.291 169.404L79.7339 148.607ZM106.051 172.87L96.8698 182.051L97.4574 182.688C97.4747 182.705 98.7118 183.887 100.462 184.471C102.224 185.058 104.07 185.288 106.679 182.679C109.288 180.069 109.058 178.224 108.47 176.462C107.886 174.709 106.7 173.47 106.687 173.456L106.051 172.87ZM111.777 184.525C111.335 185.156 110.838 185.748 110.292 186.292C109.748 186.838 109.156 187.336 108.525 187.778L139.062 215.063L111.777 184.525Z" fill="#92ACD8"/>
<defs>
<filter id="filter0_d_72_6687" x="211.539" y="121.452" width="128.264" height="128.264" filterUnits="userSpaceOnUse" color-interpolation-filters="sRGB">
<feFlood flood-opacity="0" result="BackgroundImageFix"/>
<feColorMatrix in="SourceAlpha" type="matrix" values="0 0 0 0 0 0 0 0 0 0 0 0 0 0 0 0 0 0 127 0" result="hardAlpha"/>
<feOffset/>
<feGaussianBlur stdDeviation="23.2719"/>
<feComposite in2="hardAlpha" operator="out"/>
<feColorMatrix type="matrix" values="0 0 0 0 0.231373 0 0 0 0 0.509804 0 0 0 0 0.964706 0 0 0 0.725 0"/>
<feBlend mode="normal" in2="BackgroundImageFix" result="effect1_dropShadow_72_6687"/>
<feBlend mode="normal" in="SourceGraphic" in2="effect1_dropShadow_72_6687" result="shape"/>
</filter>
<filter id="filter1_f_72_6687" x="87.2598" y="106.611" width="156.845" height="197.77" filterUnits="userSpaceOnUse" color-interpolation-filters="sRGB">
<feFlood flood-opacity="0" result="BackgroundImageFix"/>
<feBlend mode="normal" in="SourceGraphic" in2="BackgroundImageFix" result="shape"/>
<feGaussianBlur stdDeviation="16" result="effect1_foregroundBlur_72_6687"/>
</filter>
<linearGradient id="paint0_linear_72_6687" x1="136.478" y1="276.137" x2="101.016" y2="171.54" gradientUnits="userSpaceOnUse">
<stop stop-color="#30D5C8"/>
<stop offset="1" stop-color="#7557FF"/>
</linearGradient>
</defs>
</svg>
