<svg width="318" height="400" viewBox="0 0 318 400" fill="none" xmlns="http://www.w3.org/2000/svg">
<path d="M163.811 384.932H153.161C148.947 384.932 145.531 381.516 145.531 377.302V317.124H171.441V377.302C171.441 381.516 168.025 384.932 163.811 384.932Z" fill="#172133"/>
<path d="M96.0083 400H85.2395C80.3425 400 76.8779 395.212 78.4088 390.561L109.445 296.275H135.355L102.839 395.057C101.868 398.007 99.1135 400 96.0083 400Z" fill="#232E40"/>
<path d="M220.968 400H231.736C236.633 400 240.098 395.212 238.567 390.561L207.531 296.275H181.621L214.137 395.057C215.108 398.007 217.862 400 220.968 400Z" fill="#232E40"/>
<mask id="path-4-inside-1_152_5025" fill="white">
<path d="M0 158.806C0 71.1001 71.1001 0 158.806 0V0C246.513 0 317.613 71.1001 317.613 158.806V158.806C317.613 246.513 246.513 317.613 158.806 317.613V317.613C71.1001 317.613 0 246.513 0 158.806V158.806Z"/>
</mask>
<path d="M0 158.806C0 71.1001 71.1001 0 158.806 0V0C246.513 0 317.613 71.1001 317.613 158.806V158.806C317.613 246.513 246.513 317.613 158.806 317.613V317.613C71.1001 317.613 0 246.513 0 158.806V158.806Z" fill="#0A0E1A"/>
<path d="M0 158.806M317.613 158.806M317.613 158.806M0 158.806M158.806 0M317.613 158.806M158.806 317.613M0 158.806M158.806 317.613V313.13C73.5761 313.13 4.48319 244.037 4.48319 158.806H0H-4.48319C-4.48319 248.989 68.6241 322.096 158.806 322.096V317.613ZM317.613 158.806H313.13C313.13 244.037 244.037 313.13 158.806 313.13V317.613V322.096C248.989 322.096 322.096 248.989 322.096 158.806H317.613ZM158.806 0V4.48319C244.037 4.48319 313.13 73.5761 313.13 158.806H317.613H322.096C322.096 68.6241 248.989 -4.48319 158.806 -4.48319V0ZM158.806 0V-4.48319C68.6241 -4.48319 -4.48319 68.6241 -4.48319 158.806H0H4.48319C4.48319 73.5761 73.5761 4.48319 158.806 4.48319V0Z" fill="#364153" mask="url(#path-4-inside-1_152_5025)"/>
<mask id="path-6-inside-2_152_5025" fill="white">
<path d="M52.9375 158.808C52.9375 100.337 100.338 52.9369 158.808 52.9369V52.9369C217.279 52.9369 264.679 100.337 264.679 158.808V158.808C264.679 217.279 217.279 264.679 158.808 264.679V264.679C100.338 264.679 52.9375 217.279 52.9375 158.808V158.808Z"/>
</mask>
<path d="M52.9375 158.808M264.679 158.808M264.679 158.808M52.9375 158.808M158.808 52.9369M264.679 158.808M158.808 264.679M52.9375 158.808M158.808 264.679V260.196C102.814 260.196 57.4207 214.803 57.4207 158.808H52.9375H48.4543C48.4543 219.755 97.8616 269.162 158.808 269.162V264.679ZM264.679 158.808H260.196C260.196 214.803 214.803 260.196 158.808 260.196V264.679V269.162C219.755 269.162 269.163 219.755 269.163 158.808H264.679ZM158.808 52.9369V57.4201C214.803 57.4201 260.196 102.813 260.196 158.808H264.679H269.163C269.163 97.861 219.755 48.4537 158.808 48.4537V52.9369ZM158.808 52.9369V48.4537C97.8616 48.4537 48.4543 97.861 48.4543 158.808H52.9375H57.4207C57.4207 102.813 102.814 57.4201 158.808 57.4201V52.9369Z" fill="#4A5565" mask="url(#path-6-inside-2_152_5025)"/>
<mask id="path-8-inside-3_152_5025" fill="white">
<path d="M105.875 158.81C105.875 129.574 129.575 105.874 158.81 105.874V105.874C188.046 105.874 211.746 129.574 211.746 158.81V158.81C211.746 188.045 188.046 211.745 158.81 211.745V211.745C129.575 211.745 105.875 188.045 105.875 158.81V158.81Z"/>
</mask>
<path d="M105.875 158.81M211.746 158.81M211.746 158.81M105.875 158.81M158.81 105.874M211.746 158.81M158.81 211.745M105.875 158.81M158.81 211.745V207.262C132.051 207.262 110.358 185.569 110.358 158.81H105.875H101.392C101.392 190.521 127.099 216.229 158.81 216.229V211.745ZM211.746 158.81H207.263C207.263 185.569 185.57 207.262 158.81 207.262V211.745V216.229C190.522 216.229 216.229 190.521 216.229 158.81H211.746ZM158.81 105.874V110.358C185.57 110.358 207.263 132.05 207.263 158.81H211.746H216.229C216.229 127.098 190.522 101.391 158.81 101.391V105.874ZM158.81 105.874V101.391C127.099 101.391 101.392 127.098 101.392 158.81H105.875H110.358C110.358 132.05 132.051 110.358 158.81 110.358V105.874Z" fill="#6A7282" mask="url(#path-8-inside-3_152_5025)"/>
<circle cx="159.092" cy="159.089" r="14.9866" fill="#75BAFF"/>
<g filter="url(#filter0_f_152_5025)">
<rect x="97.9902" y="99.1426" width="121.046" height="121.046" fill="url(#paint0_linear_152_5025)" fill-opacity="0.8"/>
<rect x="98.8548" y="100.007" width="119.317" height="119.317" stroke="black" stroke-width="1.72923"/>
</g>
<path d="M88.4694 82.6832L129.137 120.017L119.803 129.35L82.4701 88.6832L88.4694 82.6832Z" fill="#0A0E1A"/>
<path d="M60.0521 28.289C58.764 28.2475 57.4747 28.6949 55.8247 30.3449C54.2391 31.9305 52.4636 36.5116 51.4965 40.5614C51.43 40.8393 51.3704 41.1027 51.3108 41.3664L83.7423 71.267C81.7042 63.1664 78.7592 54.24 75.2698 46.6427C71.9564 39.4277 68.1028 33.3989 64.6213 30.4562C62.8807 28.985 61.34 28.3307 60.0521 28.289ZM48.0686 45.327L45.1154 48.2802L90.9454 97.9902L97.7783 91.1573L48.0686 45.327ZM41.1548 51.5224C40.8911 51.582 40.6277 51.6416 40.3498 51.7081C36.3001 52.6752 31.7189 54.4507 30.133 56.0363C28.483 57.6863 28.0354 58.9756 28.0768 60.2637C28.1185 61.5518 28.7728 63.0923 30.244 64.8332C33.1867 68.3147 39.2161 72.1686 46.4308 75.482C54.0285 78.9714 62.9542 81.9167 71.0549 83.9545L41.1548 51.5224ZM101.539 94.6234L94.4118 101.75L115.208 124.308L124.096 115.42L101.539 94.6234ZM127.856 118.886L118.675 128.067L119.262 128.705C119.279 128.721 120.516 129.904 122.267 130.487C124.029 131.075 125.874 131.305 128.484 128.695C131.093 126.086 130.862 124.24 130.275 122.478C129.691 120.726 128.505 119.486 128.491 119.472L127.856 118.886ZM133.582 130.541C133.14 131.173 132.643 131.764 132.097 132.308C131.553 132.855 130.961 133.352 130.329 133.794L160.867 161.079L133.582 130.541Z" fill="#92ACD8"/>
<defs>
<filter id="filter0_f_152_5025" x="70.3226" y="71.4749" width="176.382" height="176.381" filterUnits="userSpaceOnUse" color-interpolation-filters="sRGB">
<feFlood flood-opacity="0" result="BackgroundImageFix"/>
<feBlend mode="normal" in="SourceGraphic" in2="BackgroundImageFix" result="shape"/>
<feGaussianBlur stdDeviation="13.8338" result="effect1_foregroundBlur_152_5025"/>
</filter>
<linearGradient id="paint0_linear_152_5025" x1="97.9902" y1="99.1426" x2="233.714" y2="118.788" gradientUnits="userSpaceOnUse">
<stop stop-color="#30D5C8"/>
<stop offset="1" stop-color="#7557FF"/>
</linearGradient>
</defs>
</svg>
