<svg width="408" height="400" viewBox="0 0 408 400" fill="none" xmlns="http://www.w3.org/2000/svg">
<path d="M252.62 382.016H246.044C243.441 382.016 241.332 378.792 241.332 374.815V318.016H257.332V374.815C257.332 378.792 255.222 382.016 252.62 382.016Z" fill="#172133"/>
<path d="M202.707 399.35H194.69C191.044 399.35 188.465 394.61 189.604 390.006L212.709 296.683H231.999L207.792 394.457C207.069 397.377 205.018 399.35 202.707 399.35Z" fill="#232E40"/>
<path d="M295.958 399.35H303.975C307.621 399.35 310.2 394.61 309.06 390.006L285.955 296.683H266.666L290.873 394.457C291.596 397.377 293.646 399.35 295.958 399.35Z" fill="#232E40"/>
<mask id="path-4-inside-1_199_13685" fill="white">
<path d="M90.1973 158.806C90.1973 71.1001 161.297 0 249.004 0V0C336.71 0 407.81 71.1001 407.81 158.806V158.806C407.81 246.513 336.71 317.613 249.004 317.613V317.613C161.297 317.613 90.1973 246.513 90.1973 158.806V158.806Z"/>
</mask>
<path d="M90.1973 158.806C90.1973 71.1001 161.297 0 249.004 0V0C336.71 0 407.81 71.1001 407.81 158.806V158.806C407.81 246.513 336.71 317.613 249.004 317.613V317.613C161.297 317.613 90.1973 246.513 90.1973 158.806V158.806Z" fill="#0A0E1A"/>
<path d="M90.1973 158.806M407.81 158.806M407.81 158.806M90.1973 158.806M249.004 0M407.81 158.806M249.004 317.613M90.1973 158.806M249.004 317.613V313.13C163.773 313.13 94.6805 244.037 94.6805 158.806H90.1973H85.7141C85.7141 248.989 158.821 322.096 249.004 322.096V317.613ZM407.81 158.806H403.327C403.327 244.037 334.234 313.13 249.004 313.13V317.613V322.096C339.186 322.096 412.293 248.989 412.293 158.806H407.81ZM249.004 0V4.48319C334.234 4.48319 403.327 73.5761 403.327 158.806H407.81H412.293C412.293 68.6241 339.186 -4.48319 249.004 -4.48319V0ZM249.004 0V-4.48319C158.821 -4.48319 85.7141 68.6241 85.7141 158.806H90.1973H94.6805C94.6805 73.5761 163.773 4.48319 249.004 4.48319V0Z" fill="#364153" mask="url(#path-4-inside-1_199_13685)"/>
<mask id="path-6-inside-2_199_13685" fill="white">
<path d="M143.135 158.808C143.135 100.337 190.535 52.9369 249.006 52.9369V52.9369C307.477 52.9369 354.877 100.337 354.877 158.808V158.808C354.877 217.279 307.477 264.679 249.006 264.679V264.679C190.535 264.679 143.135 217.279 143.135 158.808V158.808Z"/>
</mask>
<path d="M143.135 158.808M354.877 158.808M354.877 158.808M143.135 158.808M249.006 52.9369M354.877 158.808M249.006 264.679M143.135 158.808M249.006 264.679V260.196C193.011 260.196 147.618 214.803 147.618 158.808H143.135H138.652C138.652 219.755 188.059 269.162 249.006 269.162V264.679ZM354.877 158.808H350.394C350.394 214.803 305.001 260.196 249.006 260.196V264.679V269.162C309.953 269.162 359.36 219.755 359.36 158.808H354.877ZM249.006 52.9369V57.4201C305.001 57.4201 350.394 102.813 350.394 158.808H354.877H359.36C359.36 97.861 309.953 48.4537 249.006 48.4537V52.9369ZM249.006 52.9369V48.4537C188.059 48.4537 138.652 97.861 138.652 158.808H143.135H147.618C147.618 102.813 193.011 57.4201 249.006 57.4201V52.9369Z" fill="#4A5565" mask="url(#path-6-inside-2_199_13685)"/>
<mask id="path-8-inside-3_199_13685" fill="white">
<path d="M196.072 158.81C196.072 129.574 219.772 105.874 249.008 105.874V105.874C278.243 105.874 301.943 129.574 301.943 158.81V158.81C301.943 188.045 278.243 211.745 249.008 211.745V211.745C219.772 211.745 196.072 188.045 196.072 158.81V158.81Z"/>
</mask>
<path d="M196.072 158.81M301.943 158.81M301.943 158.81M196.072 158.81M249.008 105.874M301.943 158.81M249.008 211.745M196.072 158.81M249.008 211.745V207.262C222.248 207.262 200.555 185.569 200.555 158.81H196.072H191.589C191.589 190.521 217.296 216.229 249.008 216.229V211.745ZM301.943 158.81H297.46C297.46 185.569 275.767 207.262 249.008 207.262V211.745V216.229C280.719 216.229 306.426 190.521 306.426 158.81H301.943ZM249.008 105.874V110.358C275.767 110.358 297.46 132.05 297.46 158.81H301.943H306.426C306.426 127.098 280.719 101.391 249.008 101.391V105.874ZM249.008 105.874V101.391C217.296 101.391 191.589 127.098 191.589 158.81H196.072H200.555C200.555 132.05 222.248 110.358 249.008 110.358V105.874Z" fill="#6A7282" mask="url(#path-8-inside-3_199_13685)"/>
<g filter="url(#filter0_d_199_13685)">
<path d="M233.797 160.458C233.797 152.06 240.605 145.251 249.004 145.251V145.251C257.402 145.251 264.21 152.06 264.21 160.458V160.458C264.21 168.857 257.402 175.665 249.004 175.665V175.665C240.605 175.665 233.797 168.857 233.797 160.458V160.458Z" fill="#75BAFF"/>
</g>
<g opacity="0.9">
<g filter="url(#filter1_f_199_13685)">
<path d="M154.58 144.102C175.955 133.72 184.176 104.519 192.876 130.027C201.577 155.535 159.531 223.755 138.156 234.138C116.781 244.52 124.171 193.134 115.471 167.625C106.77 142.117 133.205 154.485 154.58 144.102Z" fill="url(#paint0_linear_199_13685)"/>
</g>
</g>
<path d="M66.6667 105.35L107.334 142.683L98 152.017L60.6674 111.35L66.6667 105.35Z" fill="#0A0E1A"/>
<path d="M38.2474 50.9557C36.9593 50.9143 35.67 51.3616 34.02 53.0117C32.4344 54.5973 30.6589 59.1784 29.6918 63.2281C29.6254 63.506 29.5658 63.7695 29.5061 64.0332L61.9376 93.9338C59.8995 85.8332 56.9546 76.9068 53.4651 69.3094C50.1517 62.0944 46.2981 56.0657 42.8166 53.1229C41.076 51.6517 39.5353 50.9974 38.2474 50.9557ZM26.264 67.9938L23.3107 70.947L69.1407 120.657L75.9736 113.824L26.264 67.9938ZM19.3501 74.1892C19.0864 74.2488 18.823 74.3084 18.5451 74.3748C14.4954 75.3419 9.91425 77.1174 8.32835 78.703C6.67831 80.3531 6.23067 81.6423 6.27211 82.9305C6.31384 84.2186 6.96812 85.7591 8.43934 87.4999C11.3821 90.9814 17.4114 94.8353 24.6261 98.1487C32.2238 101.638 41.1496 104.583 49.2502 106.621L19.3501 74.1892ZM79.7339 117.29L72.6071 124.417L93.4037 146.974L102.291 138.087L79.7339 117.29ZM106.051 141.553L96.8698 150.734L97.4574 151.371C97.4747 151.388 98.7118 152.57 100.462 153.154C102.224 153.741 104.07 153.971 106.679 151.362C109.288 148.753 109.058 146.907 108.47 145.145C107.886 143.393 106.7 142.153 106.687 142.139L106.051 141.553ZM111.777 153.208C111.335 153.839 110.838 154.431 110.292 154.975C109.748 155.521 109.156 156.019 108.525 156.461L139.062 183.746L111.777 153.208Z" fill="url(#paint1_linear_199_13685)"/>
<defs>
<filter id="filter0_d_199_13685" x="193.554" y="105.009" width="110.899" height="110.899" filterUnits="userSpaceOnUse" color-interpolation-filters="sRGB">
<feFlood flood-opacity="0" result="BackgroundImageFix"/>
<feColorMatrix in="SourceAlpha" type="matrix" values="0 0 0 0 0 0 0 0 0 0 0 0 0 0 0 0 0 0 127 0" result="hardAlpha"/>
<feOffset/>
<feGaussianBlur stdDeviation="20.1212"/>
<feComposite in2="hardAlpha" operator="out"/>
<feColorMatrix type="matrix" values="0 0 0 0 0.231373 0 0 0 0 0.509804 0 0 0 0 0.964706 0 0 0 0.725 0"/>
<feBlend mode="normal" in2="BackgroundImageFix" result="effect1_dropShadow_199_13685"/>
<feBlend mode="normal" in="SourceGraphic" in2="effect1_dropShadow_199_13685" result="shape"/>
</filter>
<filter id="filter1_f_199_13685" x="80.4362" y="86.5113" width="146.942" height="182.326" filterUnits="userSpaceOnUse" color-interpolation-filters="sRGB">
<feFlood flood-opacity="0" result="BackgroundImageFix"/>
<feBlend mode="normal" in="SourceGraphic" in2="BackgroundImageFix" result="shape"/>
<feGaussianBlur stdDeviation="16.6667" result="effect1_foregroundBlur_199_13685"/>
</filter>
<linearGradient id="paint0_linear_199_13685" x1="128.656" y1="238.752" x2="97.9961" y2="148.316" gradientUnits="userSpaceOnUse">
<stop stop-color="#30D5C8"/>
<stop offset="1" stop-color="#7557FF"/>
</linearGradient>
<linearGradient id="paint1_linear_199_13685" x1="94.6654" y1="141.35" x2="129.332" y2="174.016" gradientUnits="userSpaceOnUse">
<stop stop-color="#92ACD8"/>
<stop offset="1" stop-color="#496DBB"/>
</linearGradient>
</defs>
</svg>
