<svg width="1381" height="936" viewBox="0 0 1381 936" fill="none" xmlns="http://www.w3.org/2000/svg">
<path d="M1291.08 678.631H1288.42C1288.32 678.063 1288.13 677.563 1287.85 677.131C1287.57 676.699 1287.23 676.332 1286.83 676.031C1286.43 675.73 1285.97 675.503 1285.47 675.35C1284.98 675.196 1284.45 675.119 1283.9 675.119C1282.89 675.119 1281.99 675.372 1281.2 675.878C1280.41 676.384 1279.78 677.125 1279.32 678.102C1278.87 679.08 1278.64 680.273 1278.64 681.682C1278.64 683.102 1278.87 684.301 1279.32 685.278C1279.78 686.256 1280.41 686.994 1281.2 687.494C1282 687.994 1282.9 688.244 1283.89 688.244C1284.44 688.244 1284.96 688.171 1285.46 688.023C1285.96 687.869 1286.41 687.645 1286.81 687.35C1287.22 687.054 1287.56 686.693 1287.84 686.267C1288.12 685.835 1288.32 685.341 1288.42 684.784L1291.08 684.793C1290.94 685.651 1290.67 686.44 1290.26 687.162C1289.85 687.878 1289.33 688.497 1288.7 689.02C1288.07 689.537 1287.34 689.938 1286.53 690.222C1285.72 690.506 1284.83 690.648 1283.87 690.648C1282.36 690.648 1281.01 690.29 1279.83 689.574C1278.65 688.852 1277.72 687.821 1277.04 686.48C1276.36 685.139 1276.02 683.54 1276.02 681.682C1276.02 679.818 1276.36 678.219 1277.05 676.884C1277.73 675.543 1278.66 674.514 1279.84 673.798C1281.02 673.077 1282.37 672.716 1283.87 672.716C1284.8 672.716 1285.66 672.85 1286.46 673.117C1287.27 673.378 1287.99 673.764 1288.64 674.276C1289.28 674.781 1289.81 675.401 1290.23 676.134C1290.65 676.861 1290.94 677.693 1291.08 678.631ZM1299.54 690.673C1298.32 690.673 1297.25 690.392 1296.33 689.83C1295.42 689.267 1294.71 688.48 1294.2 687.469C1293.69 686.457 1293.44 685.276 1293.44 683.923C1293.44 682.565 1293.69 681.378 1294.2 680.361C1294.71 679.344 1295.42 678.554 1296.33 677.992C1297.25 677.429 1298.32 677.148 1299.54 677.148C1300.77 677.148 1301.84 677.429 1302.76 677.992C1303.67 678.554 1304.38 679.344 1304.89 680.361C1305.39 681.378 1305.65 682.565 1305.65 683.923C1305.65 685.276 1305.39 686.457 1304.89 687.469C1304.38 688.48 1303.67 689.267 1302.76 689.83C1301.84 690.392 1300.77 690.673 1299.54 690.673ZM1299.55 688.534C1300.35 688.534 1301.01 688.324 1301.53 687.903C1302.05 687.483 1302.44 686.923 1302.69 686.225C1302.94 685.526 1303.07 684.756 1303.07 683.915C1303.07 683.08 1302.94 682.313 1302.69 681.614C1302.44 680.909 1302.05 680.344 1301.53 679.918C1301.01 679.492 1300.35 679.278 1299.55 679.278C1298.75 679.278 1298.09 679.492 1297.56 679.918C1297.04 680.344 1296.65 680.909 1296.39 681.614C1296.14 682.313 1296.02 683.08 1296.02 683.915C1296.02 684.756 1296.14 685.526 1296.39 686.225C1296.65 686.923 1297.04 687.483 1297.56 687.903C1298.09 688.324 1298.75 688.534 1299.55 688.534ZM1308.49 690.409V677.318H1310.94V679.449H1311.1C1311.37 678.727 1311.82 678.165 1312.44 677.761C1313.06 677.352 1313.8 677.148 1314.66 677.148C1315.54 677.148 1316.27 677.352 1316.86 677.761C1317.46 678.171 1317.9 678.733 1318.18 679.449H1318.32C1318.63 678.75 1319.13 678.193 1319.81 677.778C1320.49 677.358 1321.3 677.148 1322.25 677.148C1323.43 677.148 1324.4 677.52 1325.15 678.264C1325.91 679.009 1326.29 680.131 1326.29 681.631V690.409H1323.74V681.869C1323.74 680.983 1323.5 680.341 1323.01 679.943C1322.53 679.546 1321.95 679.347 1321.28 679.347C1320.45 679.347 1319.81 679.602 1319.35 680.114C1318.89 680.619 1318.66 681.27 1318.66 682.065V690.409H1316.12V681.707C1316.12 680.997 1315.9 680.426 1315.45 679.994C1315.01 679.563 1314.43 679.347 1313.72 679.347C1313.24 679.347 1312.79 679.475 1312.39 679.73C1311.98 679.98 1311.66 680.33 1311.41 680.778C1311.16 681.227 1311.04 681.747 1311.04 682.338V690.409H1308.49ZM1329.7 695.318V677.318H1332.19V679.44H1332.4C1332.55 679.168 1332.76 678.852 1333.04 678.494C1333.32 678.136 1333.71 677.824 1334.2 677.557C1334.7 677.284 1335.35 677.148 1336.16 677.148C1337.22 677.148 1338.16 677.415 1338.99 677.949C1339.82 678.483 1340.47 679.253 1340.94 680.259C1341.42 681.264 1341.66 682.475 1341.66 683.889C1341.66 685.304 1341.42 686.517 1340.95 687.528C1340.48 688.534 1339.83 689.31 1339.01 689.855C1338.18 690.395 1337.24 690.665 1336.19 690.665C1335.39 690.665 1334.74 690.531 1334.24 690.264C1333.74 689.997 1333.34 689.685 1333.06 689.327C1332.78 688.969 1332.56 688.651 1332.4 688.372H1332.25V695.318H1329.7ZM1332.2 683.864C1332.2 684.784 1332.33 685.591 1332.6 686.284C1332.87 686.977 1333.25 687.52 1333.76 687.912C1334.26 688.298 1334.88 688.492 1335.62 688.492C1336.38 688.492 1337.01 688.29 1337.53 687.886C1338.04 687.477 1338.42 686.923 1338.68 686.225C1338.95 685.526 1339.08 684.739 1339.08 683.864C1339.08 683 1338.95 682.225 1338.69 681.537C1338.44 680.85 1338.05 680.307 1337.53 679.909C1337.02 679.511 1336.38 679.313 1335.62 679.313C1334.88 679.313 1334.25 679.503 1333.74 679.884C1333.24 680.264 1332.85 680.796 1332.59 681.477C1332.33 682.159 1332.2 682.955 1332.2 683.864ZM1352.81 684.98V677.318H1355.36V690.409H1352.86V688.142H1352.72C1352.42 688.841 1351.94 689.423 1351.27 689.889C1350.61 690.35 1349.79 690.58 1348.81 690.58C1347.97 690.58 1347.22 690.395 1346.58 690.026C1345.93 689.651 1345.43 689.097 1345.06 688.364C1344.7 687.631 1344.51 686.725 1344.51 685.645V677.318H1347.06V685.338C1347.06 686.23 1347.31 686.94 1347.8 687.469C1348.3 687.997 1348.94 688.261 1349.73 688.261C1350.21 688.261 1350.68 688.142 1351.15 687.903C1351.63 687.665 1352.03 687.304 1352.34 686.821C1352.66 686.338 1352.81 685.725 1352.81 684.98ZM1364.9 677.318V679.364H1357.75V677.318H1364.9ZM1359.67 674.182H1362.21V686.565C1362.21 687.06 1362.29 687.432 1362.44 687.682C1362.58 687.926 1362.77 688.094 1363.01 688.185C1363.24 688.27 1363.5 688.313 1363.78 688.313C1363.99 688.313 1364.17 688.298 1364.32 688.27C1364.47 688.242 1364.59 688.219 1364.68 688.202L1365.14 690.307C1364.99 690.364 1364.78 690.421 1364.51 690.477C1364.23 690.54 1363.89 690.574 1363.48 690.58C1362.81 690.591 1362.19 690.472 1361.61 690.222C1361.03 689.972 1360.56 689.585 1360.2 689.063C1359.84 688.54 1359.67 687.884 1359.67 687.094V674.182ZM1373.22 690.673C1371.93 690.673 1370.82 690.398 1369.89 689.847C1368.96 689.29 1368.24 688.509 1367.74 687.503C1367.24 686.492 1366.99 685.307 1366.99 683.949C1366.99 682.608 1367.24 681.426 1367.74 680.403C1368.24 679.381 1368.95 678.582 1369.85 678.009C1370.76 677.435 1371.82 677.148 1373.04 677.148C1373.78 677.148 1374.49 677.27 1375.19 677.514C1375.88 677.759 1376.5 678.142 1377.05 678.665C1377.6 679.188 1378.04 679.867 1378.36 680.702C1378.68 681.531 1378.83 682.54 1378.83 683.727V684.631H1368.43V682.722H1376.34C1376.34 682.051 1376.2 681.457 1375.93 680.94C1375.66 680.418 1375.27 680.006 1374.78 679.705C1374.29 679.403 1373.72 679.253 1373.06 679.253C1372.34 679.253 1371.72 679.429 1371.18 679.781C1370.65 680.128 1370.24 680.582 1369.95 681.145C1369.67 681.702 1369.53 682.307 1369.53 682.96V684.452C1369.53 685.327 1369.68 686.071 1369.99 686.685C1370.3 687.298 1370.74 687.767 1371.29 688.091C1371.85 688.409 1372.5 688.568 1373.24 688.568C1373.73 688.568 1374.17 688.5 1374.56 688.364C1374.96 688.222 1375.31 688.011 1375.6 687.733C1375.89 687.455 1376.11 687.111 1376.26 686.702L1378.67 687.136C1378.48 687.847 1378.13 688.469 1377.63 689.003C1377.14 689.531 1376.52 689.943 1375.77 690.239C1375.02 690.528 1374.17 690.673 1373.22 690.673Z" fill="#B8D0F2"/>
<rect x="1222.13" y="665.542" width="33.0667" height="33.0667" rx="4.53333" fill="#0D2651" stroke="#1F8EFF" stroke-width="1.6"/>
<path d="M1286.11 842.873C1286.01 842.066 1285.64 841.441 1284.98 840.998C1284.32 840.549 1283.49 840.325 1282.49 840.325C1281.78 840.325 1281.16 840.438 1280.63 840.665C1280.11 840.887 1279.7 841.194 1279.42 841.586C1279.13 841.972 1278.99 842.413 1278.99 842.907C1278.99 843.322 1279.09 843.68 1279.28 843.981C1279.48 844.282 1279.74 844.535 1280.05 844.739C1280.38 844.938 1280.72 845.106 1281.09 845.242C1281.46 845.373 1281.82 845.481 1282.16 845.566L1283.86 846.009C1284.42 846.146 1284.99 846.33 1285.58 846.563C1286.16 846.796 1286.7 847.103 1287.2 847.484C1287.7 847.864 1288.11 848.336 1288.42 848.898C1288.73 849.461 1288.88 850.134 1288.88 850.918C1288.88 851.907 1288.63 852.785 1288.12 853.552C1287.61 854.319 1286.88 854.924 1285.91 855.367C1284.95 855.81 1283.79 856.032 1282.42 856.032C1281.12 856.032 1279.99 855.825 1279.03 855.41C1278.08 854.995 1277.33 854.407 1276.79 853.646C1276.25 852.879 1275.95 851.969 1275.9 850.918H1278.54C1278.59 851.549 1278.79 852.075 1279.15 852.495C1279.51 852.91 1279.98 853.219 1280.54 853.424C1281.11 853.623 1281.73 853.722 1282.41 853.722C1283.15 853.722 1283.81 853.606 1284.39 853.373C1284.98 853.134 1285.44 852.805 1285.77 852.384C1286.11 851.958 1286.28 851.461 1286.28 850.893C1286.28 850.376 1286.13 849.952 1285.83 849.623C1285.54 849.293 1285.15 849.021 1284.65 848.805C1284.15 848.589 1283.59 848.398 1282.97 848.234L1280.91 847.671C1279.51 847.29 1278.4 846.731 1277.58 845.992C1276.77 845.254 1276.36 844.276 1276.36 843.06C1276.36 842.055 1276.64 841.177 1277.18 840.427C1277.73 839.677 1278.47 839.094 1279.4 838.68C1280.33 838.259 1281.38 838.049 1282.55 838.049C1283.73 838.049 1284.78 838.256 1285.68 838.671C1286.59 839.086 1287.3 839.657 1287.83 840.384C1288.35 841.106 1288.62 841.935 1288.65 842.873H1286.11ZM1297.87 855.981C1296.7 855.981 1295.65 855.779 1294.73 855.376C1293.82 854.972 1293.09 854.413 1292.56 853.697C1292.03 852.975 1291.75 852.14 1291.71 851.191H1294.38C1294.42 851.708 1294.59 852.157 1294.9 852.538C1295.22 852.913 1295.64 853.202 1296.15 853.407C1296.66 853.612 1297.23 853.714 1297.85 853.714C1298.54 853.714 1299.15 853.594 1299.68 853.356C1300.21 853.117 1300.63 852.785 1300.93 852.359C1301.23 851.927 1301.38 851.43 1301.38 850.867C1301.38 850.282 1301.23 849.768 1300.93 849.325C1300.63 848.876 1300.2 848.523 1299.62 848.268C1299.06 848.012 1298.37 847.884 1297.56 847.884H1296.09V845.737H1297.56C1298.21 845.737 1298.78 845.62 1299.27 845.387C1299.76 845.154 1300.15 844.83 1300.43 844.415C1300.7 843.995 1300.84 843.504 1300.84 842.941C1300.84 842.401 1300.72 841.933 1300.48 841.535C1300.24 841.131 1299.9 840.816 1299.45 840.589C1299.02 840.362 1298.5 840.248 1297.9 840.248C1297.33 840.248 1296.8 840.353 1296.31 840.563C1295.82 840.768 1295.42 841.063 1295.12 841.45C1294.81 841.83 1294.64 842.288 1294.62 842.822H1292.07C1292.1 841.879 1292.38 841.049 1292.91 840.333C1293.44 839.617 1294.15 839.058 1295.02 838.654C1295.9 838.251 1296.87 838.049 1297.94 838.049C1299.06 838.049 1300.02 838.268 1300.83 838.705C1301.65 839.137 1302.28 839.714 1302.73 840.435C1303.18 841.157 1303.4 841.947 1303.39 842.805C1303.4 843.782 1303.12 844.612 1302.57 845.293C1302.03 845.975 1301.3 846.433 1300.39 846.665V846.802C1301.55 846.978 1302.45 847.438 1303.08 848.183C1303.73 848.927 1304.05 849.85 1304.04 850.952C1304.05 851.913 1303.78 852.773 1303.24 853.535C1302.7 854.296 1301.97 854.896 1301.05 855.333C1300.12 855.765 1299.06 855.981 1297.87 855.981Z" fill="#B8D0F2"/>
<rect x="1221.33" y="830.075" width="34.6667" height="34.6667" rx="5.33333" fill="#6ECFE5"/>
<path d="M1273.92 773.076V755.622H1284.86V757.889H1276.55V763.207H1284.29V765.465H1276.55V770.809H1284.97V773.076H1273.92ZM1295.89 763.241V765.457H1288.15V763.241H1295.89ZM1309.01 760.207C1308.92 759.4 1308.54 758.775 1307.88 758.332C1307.23 757.883 1306.4 757.659 1305.4 757.659C1304.68 757.659 1304.06 757.772 1303.54 757.999C1303.02 758.221 1302.61 758.528 1302.32 758.92C1302.04 759.306 1301.89 759.747 1301.89 760.241C1301.89 760.656 1301.99 761.014 1302.18 761.315C1302.38 761.616 1302.64 761.869 1302.96 762.073C1303.28 762.272 1303.63 762.44 1304 762.576C1304.37 762.707 1304.72 762.815 1305.06 762.9L1306.77 763.343C1307.33 763.48 1307.9 763.664 1308.48 763.897C1309.07 764.13 1309.61 764.437 1310.11 764.818C1310.61 765.198 1311.01 765.67 1311.32 766.232C1311.63 766.795 1311.79 767.468 1311.79 768.252C1311.79 769.241 1311.53 770.119 1311.02 770.886C1310.52 771.653 1309.78 772.258 1308.81 772.701C1307.85 773.144 1306.69 773.366 1305.33 773.366C1304.02 773.366 1302.89 773.159 1301.94 772.744C1300.98 772.329 1300.23 771.741 1299.69 770.98C1299.15 770.213 1298.86 769.303 1298.8 768.252H1301.44C1301.49 768.883 1301.7 769.409 1302.06 769.829C1302.42 770.244 1302.88 770.553 1303.44 770.758C1304.01 770.957 1304.63 771.056 1305.31 771.056C1306.06 771.056 1306.72 770.94 1307.3 770.707C1307.88 770.468 1308.34 770.139 1308.68 769.718C1309.01 769.292 1309.18 768.795 1309.18 768.227C1309.18 767.71 1309.03 767.286 1308.74 766.957C1308.45 766.627 1308.05 766.355 1307.55 766.139C1307.06 765.923 1306.5 765.732 1305.87 765.568L1303.81 765.005C1302.41 764.624 1301.31 764.065 1300.49 763.326C1299.67 762.588 1299.27 761.61 1299.27 760.394C1299.27 759.389 1299.54 758.511 1300.09 757.761C1300.63 757.011 1301.37 756.428 1302.3 756.014C1303.23 755.593 1304.29 755.383 1305.46 755.383C1306.64 755.383 1307.68 755.59 1308.58 756.005C1309.49 756.42 1310.21 756.991 1310.73 757.718C1311.25 758.44 1311.53 759.269 1311.55 760.207H1309.01ZM1320.77 773.315C1319.6 773.315 1318.56 773.113 1317.64 772.71C1316.72 772.306 1316 771.747 1315.46 771.031C1314.94 770.309 1314.65 769.474 1314.61 768.525H1317.29C1317.32 769.042 1317.49 769.491 1317.81 769.872C1318.13 770.247 1318.54 770.536 1319.05 770.741C1319.56 770.945 1320.13 771.048 1320.76 771.048C1321.44 771.048 1322.05 770.928 1322.58 770.69C1323.11 770.451 1323.53 770.119 1323.83 769.693C1324.13 769.261 1324.28 768.764 1324.28 768.201C1324.28 767.616 1324.13 767.102 1323.83 766.659C1323.54 766.21 1323.1 765.857 1322.53 765.602C1321.96 765.346 1321.27 765.218 1320.47 765.218H1318.99V763.07H1320.47C1321.11 763.07 1321.68 762.954 1322.17 762.721C1322.67 762.488 1323.05 762.164 1323.33 761.749C1323.61 761.329 1323.75 760.838 1323.75 760.275C1323.75 759.735 1323.63 759.267 1323.38 758.869C1323.14 758.465 1322.8 758.15 1322.36 757.923C1321.92 757.695 1321.4 757.582 1320.81 757.582C1320.24 757.582 1319.71 757.687 1319.21 757.897C1318.72 758.102 1318.33 758.397 1318.02 758.784C1317.71 759.164 1317.55 759.622 1317.53 760.156H1314.98C1315.01 759.213 1315.28 758.383 1315.81 757.667C1316.35 756.951 1317.05 756.392 1317.93 755.988C1318.8 755.585 1319.77 755.383 1320.84 755.383C1321.96 755.383 1322.93 755.602 1323.74 756.039C1324.56 756.471 1325.19 757.048 1325.63 757.769C1326.08 758.491 1326.3 759.281 1326.3 760.139C1326.3 761.116 1326.03 761.945 1325.48 762.627C1324.93 763.309 1324.21 763.767 1323.3 763.999V764.136C1324.46 764.312 1325.35 764.772 1325.99 765.517C1326.63 766.261 1326.95 767.184 1326.94 768.286C1326.95 769.247 1326.68 770.107 1326.14 770.869C1325.61 771.63 1324.88 772.23 1323.95 772.667C1323.03 773.099 1321.97 773.315 1320.77 773.315Z" fill="#B8D0F2"/>
<rect x="1221.33" y="747.409" width="34.6667" height="34.6667" rx="5.33333" fill="#7557FF"/>
<path d="M0 864.909L1132 864.909" stroke="url(#paint0_linear_159_6976)" stroke-opacity="0.9" stroke-width="2"/>
<path d="M0 798.242L1132 798.242" stroke="url(#paint1_linear_159_6976)" stroke-opacity="0.9" stroke-width="2"/>
<path d="M0 731.575L1132 731.575" stroke="url(#paint2_linear_159_6976)" stroke-opacity="0.9" stroke-width="2"/>
<path d="M0 664.909L1132 664.909" stroke="url(#paint3_linear_159_6976)" stroke-opacity="0.9" stroke-width="2"/>
<path d="M0 598.242L1132 598.242" stroke="url(#paint4_linear_159_6976)" stroke-opacity="0.9" stroke-width="2"/>
<path d="M0 531.575L1132 531.575" stroke="url(#paint5_linear_159_6976)" stroke-opacity="0.9" stroke-width="2"/>
<path d="M0 464.909L1132 464.909" stroke="url(#paint6_linear_159_6976)" stroke-opacity="0.9" stroke-width="2"/>
<path d="M0 398.242L1132 398.242" stroke="url(#paint7_linear_159_6976)" stroke-opacity="0.9" stroke-width="2"/>
<path d="M809.333 441.134L791.28 504.908L724.605 461.588L748.481 455.824C743.523 447.705 737.753 439.864 731.217 432.364C721.884 421.748 711.045 411.878 698.879 402.918C686.519 393.839 672.988 385.652 658.472 378.471C643.741 371.177 628.229 364.761 612.086 359.285C579.6 348.193 544.678 340.42 508.999 335.043C473.066 329.777 436.62 326.589 400 325.508C436.891 324.203 473.866 325.029 510.579 327.978C547.386 331.082 584.136 336.682 619.589 346.093C637.443 350.801 654.747 356.551 671.336 363.287C688.146 370.118 704.016 378.115 718.726 387.166C733.633 396.377 747.165 406.711 759.099 417.995C768.743 427.151 777.332 436.873 784.78 447.062L809.333 441.134Z" fill="url(#paint8_linear_159_6976)"/>
<path d="M792.562 505.271L810.616 441.497L811.237 439.302L809.021 439.838L785.326 445.56C777.951 435.564 769.488 426.021 760.017 417.028L760.015 417.026C748.011 405.676 734.406 395.288 719.428 386.032L719.425 386.03C704.649 376.939 688.713 368.91 671.838 362.052H671.837C655.195 355.294 637.837 349.527 619.931 344.806C584.385 335.369 547.555 329.759 510.69 326.649H510.686C473.922 323.696 436.895 322.868 399.953 324.175L399.961 326.841C436.53 327.92 472.925 331.104 508.806 336.362C544.425 341.731 579.265 349.488 611.655 360.547L611.657 360.548C627.746 366.006 643.204 372.399 657.881 379.666L659.232 380.339C673.171 387.325 686.179 395.245 698.089 403.993C710.181 412.899 720.947 422.702 730.212 433.24C736.281 440.205 741.681 447.462 746.378 454.96L724.292 460.292L721.281 461.019L723.879 462.706L790.553 506.026L792.07 507.012L792.562 505.271Z" stroke="url(#paint9_linear_159_6976)" stroke-opacity="0.5" stroke-width="2.66667"/>
<path d="M222.666 798.075H382.666V864.742H222.666V798.075Z" fill="#6ECFE5"/>
<path d="M222.666 798.075V799.409H382.666V798.075V796.742H222.666V798.075Z" fill="#080C26"/>
<path d="M233.333 396.742H371.999C377.154 396.742 381.333 400.922 381.333 406.076V794.076H223.999V406.076C223.999 400.922 228.178 396.742 233.333 396.742Z" fill="#0D2651" stroke="#1F8EFF" stroke-width="2.66667"/>
<rect x="198.666" y="300.742" width="208.667" height="74.6667" rx="10.6667" fill="url(#paint10_linear_159_6976)"/>
<rect x="199.333" y="301.409" width="207.333" height="73.3333" rx="10" stroke="url(#paint11_linear_159_6976)" stroke-opacity="0.9" stroke-width="1.33333"/>
<path d="M239.562 351.742V325.075H241.27V351.742H239.562ZM244.093 333.877C244.01 333.037 243.652 332.384 243.02 331.919C242.388 331.454 241.531 331.221 240.447 331.221C239.711 331.221 239.09 331.325 238.583 331.534C238.076 331.735 237.687 332.016 237.416 332.377C237.152 332.738 237.02 333.148 237.02 333.606C237.006 333.988 237.086 334.322 237.26 334.606C237.44 334.891 237.687 335.138 237.999 335.346C238.312 335.547 238.673 335.724 239.083 335.877C239.492 336.023 239.93 336.148 240.395 336.252L242.312 336.711C243.242 336.919 244.097 337.197 244.874 337.544C245.652 337.891 246.326 338.318 246.895 338.825C247.465 339.332 247.906 339.929 248.218 340.617C248.538 341.304 248.701 342.093 248.708 342.981C248.701 344.287 248.367 345.419 247.708 346.377C247.055 347.329 246.11 348.068 244.874 348.596C243.645 349.117 242.163 349.377 240.426 349.377C238.704 349.377 237.204 349.113 235.926 348.586C234.656 348.058 233.663 347.277 232.947 346.242C232.239 345.2 231.867 343.912 231.833 342.377H236.197C236.246 343.093 236.451 343.69 236.812 344.169C237.18 344.641 237.669 344.999 238.281 345.242C238.899 345.478 239.597 345.596 240.374 345.596C241.138 345.596 241.801 345.485 242.364 345.263C242.933 345.04 243.374 344.731 243.687 344.336C243.999 343.94 244.156 343.485 244.156 342.971C244.156 342.492 244.013 342.089 243.729 341.763C243.451 341.436 243.041 341.159 242.499 340.929C241.965 340.7 241.308 340.492 240.531 340.304L238.208 339.721C236.409 339.284 234.989 338.6 233.947 337.669C232.906 336.738 232.388 335.485 232.395 333.909C232.388 332.617 232.732 331.488 233.426 330.523C234.128 329.558 235.09 328.804 236.312 328.263C237.534 327.721 238.923 327.45 240.479 327.45C242.062 327.45 243.444 327.721 244.624 328.263C245.812 328.804 246.735 329.558 247.395 330.523C248.055 331.488 248.395 332.606 248.416 333.877H244.093ZM259.502 349.367C257.946 349.367 256.561 349.1 255.346 348.565C254.137 348.023 253.183 347.28 252.481 346.336C251.787 345.384 251.429 344.287 251.408 343.044H255.95C255.978 343.565 256.148 344.023 256.46 344.419C256.78 344.808 257.203 345.11 257.731 345.325C258.259 345.54 258.853 345.648 259.512 345.648C260.2 345.648 260.808 345.527 261.335 345.284C261.863 345.04 262.276 344.704 262.575 344.273C262.873 343.843 263.023 343.346 263.023 342.784C263.023 342.214 262.863 341.711 262.544 341.273C262.231 340.829 261.78 340.481 261.189 340.231C260.606 339.981 259.912 339.856 259.106 339.856H257.117V336.544H259.106C259.787 336.544 260.387 336.426 260.908 336.19C261.436 335.954 261.846 335.627 262.137 335.211C262.429 334.787 262.575 334.294 262.575 333.731C262.575 333.197 262.446 332.728 262.189 332.325C261.939 331.915 261.585 331.596 261.127 331.367C260.676 331.138 260.148 331.023 259.544 331.023C258.933 331.023 258.373 331.134 257.867 331.356C257.36 331.572 256.953 331.881 256.648 332.284C256.342 332.686 256.179 333.159 256.158 333.7H251.835C251.856 332.471 252.207 331.388 252.887 330.45C253.568 329.513 254.485 328.78 255.637 328.252C256.797 327.718 258.106 327.45 259.564 327.45C261.037 327.45 262.325 327.718 263.429 328.252C264.533 328.787 265.391 329.509 266.002 330.419C266.62 331.322 266.926 332.336 266.919 333.461C266.926 334.655 266.554 335.652 265.804 336.45C265.061 337.249 264.092 337.756 262.898 337.971V338.138C264.467 338.339 265.662 338.884 266.481 339.773C267.308 340.655 267.717 341.759 267.71 343.086C267.717 344.301 267.367 345.381 266.658 346.325C265.957 347.27 264.988 348.013 263.752 348.554C262.516 349.096 261.099 349.367 259.502 349.367ZM270.63 345.325V341.773L279.536 327.742H282.598V332.659H280.786L275.171 341.544V341.711H287.827V345.325H270.63ZM280.869 349.075V344.242L280.952 342.669V327.742H285.182V349.075H280.869ZM290.833 349.075V345.825L298.426 338.794C299.072 338.169 299.614 337.606 300.051 337.106C300.496 336.606 300.833 336.117 301.062 335.638C301.291 335.152 301.406 334.627 301.406 334.065C301.406 333.44 301.263 332.902 300.979 332.45C300.694 331.992 300.305 331.641 299.812 331.398C299.319 331.148 298.76 331.023 298.135 331.023C297.482 331.023 296.913 331.155 296.426 331.419C295.94 331.683 295.565 332.061 295.301 332.554C295.038 333.047 294.906 333.634 294.906 334.315H290.624C290.624 332.919 290.94 331.707 291.572 330.679C292.204 329.652 293.09 328.856 294.229 328.294C295.367 327.731 296.68 327.45 298.166 327.45C299.694 327.45 301.024 327.721 302.156 328.263C303.294 328.797 304.18 329.54 304.812 330.492C305.444 331.443 305.76 332.534 305.76 333.763C305.76 334.568 305.6 335.363 305.281 336.148C304.968 336.933 304.409 337.804 303.604 338.763C302.798 339.714 301.663 340.856 300.197 342.19L297.083 345.242V345.388H306.041V349.075H290.833ZM309.434 349.075V327.742H313.945V337.148H314.226L321.903 327.742H327.309L319.393 337.294L327.403 349.075H322.007L316.163 340.304L313.945 343.013V349.075H309.434Z" fill="#FF4B4B"/>
<path d="M346.668 345.853L356.001 336.52L362.224 342.742L374.668 330.298" stroke="#DF4343" stroke-width="3.11111" stroke-linecap="round" stroke-linejoin="round"/>
<path d="M368.445 330.298H374.668V336.52" stroke="#DF4343" stroke-width="3.11111" stroke-linecap="round" stroke-linejoin="round"/>
<path d="M721.332 798.075H881.332V864.742H721.332V798.075Z" fill="#6ECFE5"/>
<path d="M721.332 798.075V799.409H881.332V798.075V796.742H721.332V798.075Z" fill="#080C26"/>
<path d="M721.332 711.408H881.332V796.742H721.332V711.408Z" fill="#7557FF"/>
<path d="M721.332 711.408V712.742H881.332V711.408V710.075H721.332V711.408Z" fill="#080C26"/>
<path d="M731.999 600.741H870.665C875.82 600.741 879.999 604.921 879.999 610.075V707.408H722.665V610.075C722.665 604.921 726.844 600.741 731.999 600.741Z" fill="#0D2651" stroke="#1F8EFF" stroke-width="2.66667"/>
<rect x="708" y="507.575" width="186.667" height="74.6667" rx="10.6667" fill="url(#paint12_linear_159_6976)"/>
<rect x="708.667" y="508.242" width="185.333" height="73.3333" rx="10" stroke="url(#paint13_linear_159_6976)" stroke-opacity="0.9" stroke-width="1.33333"/>
<path d="M748.896 558.575V531.908H750.604V558.575H748.896ZM753.427 540.71C753.344 539.87 752.986 539.217 752.354 538.752C751.722 538.287 750.865 538.054 749.781 538.054C749.045 538.054 748.424 538.158 747.917 538.367C747.41 538.568 747.021 538.849 746.75 539.21C746.486 539.571 746.354 539.981 746.354 540.439C746.34 540.821 746.42 541.155 746.594 541.439C746.774 541.724 747.021 541.971 747.333 542.179C747.646 542.38 748.007 542.558 748.417 542.71C748.826 542.856 749.264 542.981 749.729 543.085L751.646 543.544C752.576 543.752 753.431 544.03 754.208 544.377C754.986 544.724 755.66 545.151 756.229 545.658C756.799 546.165 757.24 546.762 757.552 547.45C757.872 548.137 758.035 548.926 758.042 549.814C758.035 551.12 757.701 552.252 757.042 553.21C756.389 554.162 755.444 554.901 754.208 555.429C752.979 555.95 751.497 556.21 749.76 556.21C748.038 556.21 746.538 555.946 745.26 555.419C743.99 554.891 742.997 554.11 742.281 553.075C741.573 552.033 741.201 550.745 741.167 549.21H745.531C745.58 549.926 745.785 550.523 746.146 551.002C746.514 551.474 747.003 551.832 747.615 552.075C748.233 552.311 748.931 552.429 749.708 552.429C750.472 552.429 751.135 552.318 751.698 552.096C752.267 551.873 752.708 551.564 753.021 551.169C753.333 550.773 753.49 550.318 753.49 549.804C753.49 549.325 753.347 548.922 753.063 548.596C752.785 548.269 752.375 547.992 751.833 547.762C751.299 547.533 750.642 547.325 749.865 547.137L747.542 546.554C745.743 546.117 744.323 545.433 743.281 544.502C742.24 543.571 741.722 542.318 741.729 540.742C741.722 539.45 742.066 538.321 742.76 537.356C743.462 536.391 744.424 535.637 745.646 535.096C746.868 534.554 748.257 534.283 749.813 534.283C751.396 534.283 752.778 534.554 753.958 535.096C755.146 535.637 756.069 536.391 756.729 537.356C757.389 538.321 757.729 539.439 757.75 540.71H753.427ZM761.794 555.908L770.638 538.408V538.262H760.336V534.575H775.305V538.314L766.451 555.908H761.794ZM785.924 556.2C784.32 556.2 782.893 555.939 781.643 555.419C780.4 554.891 779.424 554.172 778.716 553.262C778.008 552.353 777.654 551.321 777.654 550.169C777.654 549.28 777.855 548.464 778.258 547.721C778.668 546.971 779.223 546.349 779.924 545.856C780.626 545.356 781.411 545.037 782.279 544.898V544.752C781.14 544.523 780.216 543.971 779.508 543.096C778.799 542.214 778.445 541.189 778.445 540.023C778.445 538.919 778.768 537.936 779.414 537.075C780.06 536.207 780.945 535.526 782.07 535.033C783.202 534.533 784.487 534.283 785.924 534.283C787.362 534.283 788.643 534.533 789.768 535.033C790.9 535.533 791.789 536.217 792.435 537.085C793.081 537.946 793.407 538.926 793.414 540.023C793.407 541.196 793.046 542.221 792.331 543.096C791.615 543.971 790.699 544.523 789.581 544.752V544.898C790.435 545.037 791.209 545.356 791.904 545.856C792.605 546.349 793.161 546.971 793.57 547.721C793.987 548.464 794.199 549.28 794.206 550.169C794.199 551.321 793.841 552.353 793.133 553.262C792.424 554.172 791.445 554.891 790.195 555.419C788.952 555.939 787.529 556.2 785.924 556.2ZM785.924 552.887C786.64 552.887 787.265 552.759 787.799 552.502C788.334 552.238 788.751 551.877 789.049 551.419C789.355 550.953 789.508 550.419 789.508 549.814C789.508 549.196 789.352 548.651 789.039 548.179C788.727 547.7 788.303 547.325 787.768 547.054C787.234 546.776 786.619 546.637 785.924 546.637C785.237 546.637 784.622 546.776 784.081 547.054C783.539 547.325 783.112 547.7 782.799 548.179C782.494 548.651 782.341 549.196 782.341 549.814C782.341 550.419 782.49 550.953 782.789 551.419C783.088 551.877 783.508 552.238 784.049 552.502C784.591 552.759 785.216 552.887 785.924 552.887ZM785.924 543.356C786.522 543.356 787.053 543.235 787.518 542.992C787.984 542.748 788.348 542.412 788.612 541.981C788.876 541.551 789.008 541.054 789.008 540.492C789.008 539.936 788.876 539.45 788.612 539.033C788.348 538.61 787.987 538.28 787.529 538.044C787.07 537.801 786.536 537.679 785.924 537.679C785.32 537.679 784.786 537.801 784.32 538.044C783.855 538.28 783.49 538.61 783.227 539.033C782.97 539.45 782.841 539.936 782.841 540.492C782.841 541.054 782.973 541.551 783.237 541.981C783.501 542.412 783.865 542.748 784.331 542.992C784.796 543.235 785.327 543.356 785.924 543.356ZM797.484 555.908V534.575H801.995V543.981H802.276L809.953 534.575H815.359L807.443 544.127L815.453 555.908H810.057L804.214 547.137L801.995 549.846V555.908H797.484Z" fill="#30D5C8"/>
<path d="M862.002 537.131L852.669 546.464L846.446 540.242L834.002 552.686" stroke="#66F2C3" stroke-width="3.11111" stroke-linecap="round" stroke-linejoin="round"/>
<path d="M840.223 552.686H834V546.464" stroke="#66F2C3" stroke-width="3.11111" stroke-linecap="round" stroke-linejoin="round"/>
<path d="M864.693 304.814L876.725 277.593L878.517 280.58H862.431L865.503 277.337V285.444H859.359V274.948H883.295V279.428L872.202 304.814H864.693ZM891.151 304.814L903.183 277.593L904.975 280.58H888.89L891.962 277.337V285.444H885.818V274.948H909.754V279.428L898.66 304.814H891.151ZM917.307 304.814L937.701 274.948H942.779L922.384 304.814H917.307ZM919.909 291.076C918.459 291.076 917.179 290.749 916.069 290.094C914.96 289.412 914.078 288.459 913.424 287.236C912.798 285.984 912.485 284.519 912.485 282.841C912.485 281.163 912.798 279.712 913.424 278.489C914.078 277.266 914.96 276.313 916.069 275.63C917.179 274.948 918.459 274.606 919.909 274.606C921.36 274.606 922.64 274.948 923.749 275.63C924.859 276.313 925.726 277.266 926.352 278.489C926.978 279.712 927.291 281.163 927.291 282.841C927.291 284.519 926.978 285.984 926.352 287.236C925.726 288.459 924.859 289.412 923.749 290.094C922.64 290.749 921.36 291.076 919.909 291.076ZM919.909 287.577C920.848 287.577 921.602 287.193 922.171 286.425C922.74 285.629 923.024 284.434 923.024 282.841C923.024 281.248 922.74 280.068 922.171 279.3C921.602 278.503 920.848 278.105 919.909 278.105C918.999 278.105 918.245 278.503 917.648 279.3C917.079 280.068 916.795 281.248 916.795 282.841C916.795 284.406 917.079 285.586 917.648 286.382C918.245 287.179 918.999 287.577 919.909 287.577ZM940.176 305.156C938.754 305.156 937.474 304.829 936.336 304.174C935.227 303.492 934.359 302.539 933.733 301.316C933.108 300.064 932.795 298.599 932.795 296.921C932.795 295.243 933.108 293.792 933.733 292.569C934.359 291.346 935.227 290.393 936.336 289.71C937.474 289.028 938.754 288.686 940.176 288.686C941.655 288.686 942.949 289.028 944.059 289.71C945.168 290.393 946.036 291.346 946.661 292.569C947.287 293.792 947.6 295.243 947.6 296.921C947.6 298.599 947.287 300.064 946.661 301.316C946.036 302.539 945.168 303.492 944.059 304.174C942.949 304.829 941.655 305.156 940.176 305.156ZM940.176 301.657C941.115 301.657 941.868 301.273 942.437 300.505C943.006 299.709 943.291 298.514 943.291 296.921C943.291 295.357 943.006 294.176 942.437 293.38C941.868 292.583 941.115 292.185 940.176 292.185C939.266 292.185 938.512 292.583 937.915 293.38C937.346 294.148 937.061 295.328 937.061 296.921C937.061 298.514 937.346 299.709 937.915 300.505C938.512 301.273 939.266 301.657 940.176 301.657Z" fill="#30D5C8"/>
<path d="M764.921 363.814V342.609H756.558V337.681H779.332V342.609H770.969V363.814H764.921ZM794.728 364.262C792.712 364.262 790.833 363.939 789.09 363.292C787.373 362.62 785.88 361.674 784.61 360.454C783.341 359.235 782.345 357.804 781.624 356.161C780.927 354.518 780.578 352.714 780.578 350.748C780.578 348.782 780.927 346.977 781.624 345.334C782.345 343.692 783.341 342.261 784.61 341.041C785.905 339.822 787.41 338.888 789.128 338.241C790.845 337.569 792.724 337.233 794.765 337.233C797.03 337.233 799.071 337.631 800.888 338.428C802.729 339.199 804.273 340.344 805.517 341.862L801.634 345.446C800.738 344.426 799.743 343.667 798.648 343.169C797.553 342.646 796.358 342.385 795.064 342.385C793.844 342.385 792.724 342.584 791.704 342.982C790.683 343.381 789.8 343.953 789.053 344.7C788.306 345.446 787.721 346.33 787.298 347.35C786.9 348.371 786.701 349.503 786.701 350.748C786.701 351.992 786.9 353.125 787.298 354.145C787.721 355.166 788.306 356.049 789.053 356.796C789.8 357.542 790.683 358.115 791.704 358.513C792.724 358.911 793.844 359.11 795.064 359.11C796.358 359.11 797.553 358.862 798.648 358.364C799.743 357.841 800.738 357.057 801.634 356.012L805.517 359.596C804.273 361.114 802.729 362.271 800.888 363.068C799.071 363.864 797.018 364.262 794.728 364.262ZM821.748 364.262C819.682 364.262 817.766 363.926 815.998 363.254C814.256 362.582 812.738 361.637 811.444 360.417C810.174 359.198 809.179 357.766 808.457 356.124C807.76 354.481 807.412 352.689 807.412 350.748C807.412 348.806 807.76 347.014 808.457 345.372C809.179 343.729 810.187 342.298 811.481 341.078C812.775 339.859 814.294 338.913 816.036 338.241C817.778 337.569 819.67 337.233 821.71 337.233C823.776 337.233 825.668 337.569 827.385 338.241C829.127 338.913 830.633 339.859 831.902 341.078C833.197 342.298 834.205 343.729 834.926 345.372C835.648 346.99 836.009 348.782 836.009 350.748C836.009 352.689 835.648 354.494 834.926 356.161C834.205 357.804 833.197 359.235 831.902 360.454C830.633 361.649 829.127 362.582 827.385 363.254C825.668 363.926 823.789 364.262 821.748 364.262ZM821.71 359.11C822.88 359.11 823.95 358.911 824.921 358.513C825.917 358.115 826.788 357.542 827.534 356.796C828.281 356.049 828.854 355.166 829.252 354.145C829.675 353.125 829.886 351.992 829.886 350.748C829.886 349.503 829.675 348.371 829.252 347.35C828.854 346.33 828.281 345.446 827.534 344.7C826.813 343.953 825.954 343.381 824.958 342.982C823.963 342.584 822.88 342.385 821.71 342.385C820.541 342.385 819.458 342.584 818.462 342.982C817.492 343.381 816.633 343.953 815.886 344.7C815.14 345.446 814.555 346.33 814.132 347.35C813.734 348.371 813.534 349.503 813.534 350.748C813.534 351.967 813.734 353.1 814.132 354.145C814.555 355.166 815.127 356.049 815.849 356.796C816.596 357.542 817.467 358.115 818.462 358.513C819.458 358.911 820.541 359.11 821.71 359.11ZM851.127 363.814V337.681H862.439C864.779 337.681 866.795 338.067 868.487 338.838C870.18 339.585 871.486 340.668 872.407 342.086C873.328 343.505 873.789 345.198 873.789 347.164C873.789 349.105 873.328 350.785 872.407 352.204C871.486 353.598 870.18 354.668 868.487 355.414C866.795 356.161 864.779 356.534 862.439 356.534H854.487L857.175 353.884V363.814H851.127ZM867.741 363.814L861.207 354.332H867.666L874.274 363.814H867.741ZM857.175 354.556L854.487 351.718H862.103C863.97 351.718 865.364 351.32 866.285 350.524C867.206 349.702 867.666 348.582 867.666 347.164C867.666 345.72 867.206 344.6 866.285 343.804C865.364 343.007 863.97 342.609 862.103 342.609H854.487L857.175 339.734V354.556ZM888.138 364.113C885.848 364.113 883.832 363.665 882.09 362.769C880.372 361.873 879.041 360.654 878.095 359.11C877.149 357.542 876.676 355.763 876.676 353.772C876.676 351.756 877.137 349.976 878.058 348.433C879.004 346.865 880.285 345.646 881.903 344.774C883.521 343.878 885.35 343.43 887.391 343.43C889.357 343.43 891.124 343.854 892.692 344.7C894.285 345.521 895.542 346.716 896.463 348.284C897.384 349.827 897.844 351.681 897.844 353.846C897.844 354.07 897.832 354.332 897.807 354.63C897.782 354.904 897.757 355.166 897.732 355.414H881.418V352.017H894.671L892.431 353.025C892.431 351.98 892.22 351.071 891.796 350.3C891.373 349.528 890.788 348.931 890.042 348.508C889.295 348.06 888.424 347.836 887.428 347.836C886.433 347.836 885.549 348.06 884.778 348.508C884.031 348.931 883.446 349.541 883.023 350.337C882.6 351.109 882.388 352.03 882.388 353.1V353.996C882.388 355.091 882.625 356.062 883.098 356.908C883.596 357.729 884.28 358.364 885.151 358.812C886.047 359.235 887.092 359.446 888.287 359.446C889.357 359.446 890.291 359.285 891.087 358.961C891.908 358.638 892.655 358.152 893.327 357.505L896.426 360.865C895.505 361.91 894.348 362.719 892.954 363.292C891.56 363.839 889.955 364.113 888.138 364.113ZM910.346 364.113C908.454 364.113 906.749 363.69 905.231 362.844C903.713 361.973 902.506 360.766 901.61 359.222C900.739 357.679 900.303 355.862 900.303 353.772C900.303 351.656 900.739 349.827 901.61 348.284C902.506 346.741 903.713 345.546 905.231 344.7C906.749 343.854 908.454 343.43 910.346 343.43C912.038 343.43 913.519 343.804 914.789 344.55C916.058 345.297 917.041 346.43 917.738 347.948C918.435 349.466 918.783 351.407 918.783 353.772C918.783 356.111 918.447 358.053 917.775 359.596C917.103 361.114 916.133 362.246 914.863 362.993C913.619 363.74 912.113 364.113 910.346 364.113ZM911.354 359.334C912.3 359.334 913.158 359.11 913.93 358.662C914.701 358.214 915.311 357.58 915.759 356.758C916.232 355.912 916.469 354.917 916.469 353.772C916.469 352.602 916.232 351.606 915.759 350.785C915.311 349.964 914.701 349.329 913.93 348.881C913.158 348.433 912.3 348.209 911.354 348.209C910.383 348.209 909.512 348.433 908.741 348.881C907.969 349.329 907.347 349.964 906.874 350.785C906.426 351.606 906.202 352.602 906.202 353.772C906.202 354.917 906.426 355.912 906.874 356.758C907.347 357.58 907.969 358.214 908.741 358.662C909.512 359.11 910.383 359.334 911.354 359.334ZM916.618 363.814V359.708L916.73 353.734L916.357 347.798V336.113H922.181V363.814H916.618ZM936.045 364.113C934.378 364.113 932.885 363.79 931.565 363.142C930.271 362.495 929.263 361.512 928.541 360.193C927.82 358.849 927.459 357.144 927.459 355.078V343.729H933.283V354.22C933.283 355.887 933.631 357.119 934.328 357.916C935.05 358.687 936.058 359.073 937.352 359.073C938.248 359.073 939.045 358.886 939.741 358.513C940.438 358.115 940.986 357.518 941.384 356.721C941.782 355.9 941.981 354.879 941.981 353.66V343.729H947.805V363.814H942.28V358.289L943.288 359.894C942.616 361.288 941.621 362.346 940.301 363.068C939.007 363.765 937.589 364.113 936.045 364.113ZM962.908 364.113C960.742 364.113 958.813 363.678 957.121 362.806C955.429 361.91 954.097 360.678 953.126 359.11C952.181 357.542 951.708 355.763 951.708 353.772C951.708 351.756 952.181 349.976 953.126 348.433C954.097 346.865 955.429 345.646 957.121 344.774C958.813 343.878 960.742 343.43 962.908 343.43C965.023 343.43 966.865 343.878 968.433 344.774C970.001 345.646 971.158 346.902 971.905 348.545L967.388 350.972C966.865 350.026 966.205 349.329 965.409 348.881C964.637 348.433 963.791 348.209 962.87 348.209C961.875 348.209 960.979 348.433 960.182 348.881C959.386 349.329 958.751 349.964 958.278 350.785C957.83 351.606 957.606 352.602 957.606 353.772C957.606 354.942 957.83 355.937 958.278 356.758C958.751 357.58 959.386 358.214 960.182 358.662C960.979 359.11 961.875 359.334 962.87 359.334C963.791 359.334 964.637 359.123 965.409 358.7C966.205 358.252 966.865 357.542 967.388 356.572L971.905 359.036C971.158 360.654 970.001 361.91 968.433 362.806C966.865 363.678 965.023 364.113 962.908 364.113ZM983.763 364.113C981.399 364.113 979.557 363.516 978.238 362.321C976.919 361.102 976.259 359.297 976.259 356.908V339.286H982.083V356.833C982.083 357.679 982.307 358.339 982.755 358.812C983.203 359.26 983.813 359.484 984.585 359.484C985.506 359.484 986.29 359.235 986.937 358.737L988.505 362.844C987.907 363.267 987.186 363.59 986.339 363.814C985.518 364.014 984.659 364.113 983.763 364.113ZM973.161 348.657V344.177H987.086V348.657H973.161ZM991.774 363.814V343.729H997.598V363.814H991.774ZM994.686 340.929C993.616 340.929 992.745 340.618 992.073 339.996C991.401 339.374 991.065 338.602 991.065 337.681C991.065 336.76 991.401 335.989 992.073 335.366C992.745 334.744 993.616 334.433 994.686 334.433C995.756 334.433 996.627 334.732 997.299 335.329C997.971 335.902 998.307 336.648 998.307 337.569C998.307 338.54 997.971 339.349 997.299 339.996C996.652 340.618 995.781 340.929 994.686 340.929ZM1012.56 364.113C1010.42 364.113 1008.52 363.665 1006.85 362.769C1005.21 361.873 1003.9 360.654 1002.93 359.11C1001.98 357.542 1001.51 355.763 1001.51 353.772C1001.51 351.756 1001.98 349.976 1002.93 348.433C1003.9 346.865 1005.21 345.646 1006.85 344.774C1008.52 343.878 1010.42 343.43 1012.56 343.43C1014.68 343.43 1016.57 343.878 1018.24 344.774C1019.9 345.646 1021.21 346.853 1022.16 348.396C1023.1 349.939 1023.57 351.731 1023.57 353.772C1023.57 355.763 1023.1 357.542 1022.16 359.11C1021.21 360.654 1019.9 361.873 1018.24 362.769C1016.57 363.665 1014.68 364.113 1012.56 364.113ZM1012.56 359.334C1013.53 359.334 1014.4 359.11 1015.17 358.662C1015.95 358.214 1016.56 357.58 1017 356.758C1017.45 355.912 1017.68 354.917 1017.68 353.772C1017.68 352.602 1017.45 351.606 1017 350.785C1016.56 349.964 1015.95 349.329 1015.17 348.881C1014.4 348.433 1013.53 348.209 1012.56 348.209C1011.59 348.209 1010.72 348.433 1009.95 348.881C1009.18 349.329 1008.55 349.964 1008.08 350.785C1007.63 351.606 1007.41 352.602 1007.41 353.772C1007.41 354.917 1007.63 355.912 1008.08 356.758C1008.55 357.58 1009.18 358.214 1009.95 358.662C1010.72 359.11 1011.59 359.334 1012.56 359.334ZM1039.67 343.43C1041.27 343.43 1042.69 343.754 1043.93 344.401C1045.2 345.023 1046.2 345.994 1046.92 347.313C1047.64 348.607 1048 350.275 1048 352.316V363.814H1042.18V353.212C1042.18 351.594 1041.82 350.399 1041.09 349.628C1040.4 348.856 1039.4 348.47 1038.11 348.47C1037.19 348.47 1036.35 348.67 1035.61 349.068C1034.88 349.441 1034.31 350.026 1033.89 350.822C1033.49 351.619 1033.29 352.639 1033.29 353.884V363.814H1027.47V343.729H1033.03V349.292L1031.98 347.612C1032.71 346.268 1033.74 345.235 1035.08 344.513C1036.43 343.791 1037.96 343.43 1039.67 343.43Z" fill="#CDDAED"/>
<g filter="url(#filter0_f_159_6976)">
<path d="M901.285 341.388C863.56 300.125 792.193 301.127 843.905 264.43C895.616 227.732 1077.63 276.905 1115.36 318.168C1153.08 359.431 1032.23 377.158 980.521 413.856C928.809 450.554 939.011 382.651 901.285 341.388Z" fill="url(#paint14_linear_159_6976)" fill-opacity="0.6"/>
</g>
<path d="M117.318 920.348C117.318 922.229 116.966 923.839 116.261 925.18C115.563 926.516 114.608 927.538 113.398 928.248C112.193 928.959 110.827 929.314 109.298 929.314C107.77 929.314 106.401 928.959 105.19 928.248C103.986 927.533 103.031 926.507 102.327 925.172C101.628 923.831 101.278 922.223 101.278 920.348C101.278 918.467 101.628 916.859 102.327 915.524C103.031 914.183 103.986 913.158 105.19 912.447C106.401 911.737 107.77 911.382 109.298 911.382C110.827 911.382 112.193 911.737 113.398 912.447C114.608 913.158 115.563 914.183 116.261 915.524C116.966 916.859 117.318 918.467 117.318 920.348ZM114.139 920.348C114.139 919.024 113.932 917.908 113.517 916.998C113.108 916.084 112.54 915.393 111.812 914.927C111.085 914.456 110.247 914.22 109.298 914.22C108.349 914.22 107.511 914.456 106.784 914.927C106.057 915.393 105.486 916.084 105.071 916.998C104.662 917.908 104.457 919.024 104.457 920.348C104.457 921.672 104.662 922.791 105.071 923.706C105.486 924.615 106.057 925.305 106.784 925.777C107.511 926.243 108.349 926.476 109.298 926.476C110.247 926.476 111.085 926.243 111.812 925.777C112.54 925.305 113.108 924.615 113.517 923.706C113.932 922.791 114.139 921.672 114.139 920.348ZM126.708 915.984V918.371H119.183V915.984H126.708ZM121.04 912.848H124.126V925.138C124.126 925.552 124.188 925.871 124.313 926.092C124.444 926.308 124.614 926.456 124.825 926.535C125.035 926.615 125.268 926.655 125.523 926.655C125.717 926.655 125.893 926.641 126.052 926.612C126.217 926.584 126.342 926.558 126.427 926.535L126.947 928.947C126.782 929.004 126.546 929.067 126.239 929.135C125.938 929.203 125.569 929.243 125.131 929.254C124.359 929.277 123.663 929.16 123.043 928.905C122.424 928.643 121.933 928.24 121.569 927.695C121.211 927.149 121.035 926.467 121.04 925.649V912.848ZM132.655 921.405V929.075H129.57V911.621H132.587V918.209H132.74C133.047 917.47 133.521 916.888 134.163 916.462C134.811 916.03 135.635 915.814 136.635 915.814C137.544 915.814 138.337 916.004 139.013 916.385C139.689 916.766 140.212 917.322 140.581 918.055C140.956 918.788 141.143 919.683 141.143 920.74V929.075H138.058V921.217C138.058 920.337 137.831 919.652 137.376 919.163C136.928 918.669 136.297 918.422 135.484 918.422C134.939 918.422 134.45 918.541 134.018 918.78C133.592 919.013 133.257 919.351 133.013 919.794C132.774 920.237 132.655 920.774 132.655 921.405ZM150.084 929.331C148.771 929.331 147.638 929.058 146.683 928.513C145.734 927.962 145.004 927.183 144.493 926.177C143.982 925.166 143.726 923.976 143.726 922.606C143.726 921.26 143.982 920.078 144.493 919.061C145.01 918.038 145.732 917.243 146.658 916.675C147.584 916.101 148.672 915.814 149.922 915.814C150.729 915.814 151.49 915.945 152.206 916.206C152.928 916.462 153.564 916.859 154.115 917.399C154.672 917.939 155.109 918.626 155.428 919.462C155.746 920.291 155.905 921.28 155.905 922.427V923.373H145.175V921.294H152.947C152.942 920.703 152.814 920.177 152.564 919.717C152.314 919.251 151.964 918.885 151.516 918.618C151.072 918.351 150.555 918.217 149.964 918.217C149.334 918.217 148.78 918.371 148.303 918.677C147.825 918.979 147.453 919.376 147.186 919.871C146.925 920.359 146.791 920.896 146.786 921.481V923.297C146.786 924.058 146.925 924.712 147.203 925.257C147.482 925.797 147.871 926.212 148.371 926.501C148.871 926.785 149.456 926.927 150.126 926.927C150.575 926.927 150.982 926.865 151.345 926.74C151.709 926.609 152.024 926.419 152.291 926.169C152.558 925.919 152.76 925.609 152.896 925.24L155.777 925.564C155.595 926.325 155.249 926.99 154.737 927.558C154.232 928.121 153.584 928.558 152.794 928.871C152.004 929.177 151.101 929.331 150.084 929.331ZM158.515 929.075V915.984H161.506V918.166H161.643C161.881 917.41 162.29 916.828 162.87 916.419C163.455 916.004 164.123 915.797 164.873 915.797C165.043 915.797 165.234 915.805 165.444 915.822C165.66 915.834 165.839 915.854 165.981 915.882V918.72C165.85 918.675 165.643 918.635 165.359 918.601C165.08 918.561 164.81 918.541 164.549 918.541C163.987 918.541 163.481 918.663 163.032 918.908C162.589 919.146 162.239 919.479 161.984 919.905C161.728 920.331 161.6 920.822 161.6 921.379V929.075H158.515ZM177.793 929.075L172.867 911.621H176.268L179.413 924.447H179.575L182.933 911.621H186.026L189.393 924.456H189.546L192.691 911.621H196.092L191.165 929.075H188.046L184.552 916.828H184.415L180.913 929.075H177.793ZM200.579 929.339C199.749 929.339 199.002 929.192 198.337 928.896C197.678 928.595 197.156 928.152 196.769 927.567C196.388 926.981 196.198 926.26 196.198 925.402C196.198 924.663 196.335 924.052 196.607 923.57C196.88 923.087 197.252 922.7 197.724 922.41C198.195 922.121 198.727 921.902 199.317 921.754C199.914 921.601 200.531 921.49 201.167 921.422C201.934 921.342 202.556 921.271 203.033 921.209C203.511 921.141 203.857 921.038 204.073 920.902C204.295 920.76 204.406 920.541 204.406 920.246V920.195C204.406 919.552 204.215 919.055 203.835 918.703C203.454 918.351 202.906 918.175 202.19 918.175C201.434 918.175 200.835 918.339 200.391 918.669C199.954 918.998 199.658 919.388 199.505 919.837L196.624 919.427C196.852 918.632 197.227 917.967 197.749 917.433C198.272 916.893 198.911 916.49 199.667 916.223C200.423 915.95 201.258 915.814 202.173 915.814C202.803 915.814 203.431 915.888 204.056 916.035C204.681 916.183 205.252 916.427 205.769 916.768C206.286 917.104 206.701 917.561 207.013 918.141C207.332 918.72 207.491 919.445 207.491 920.314V929.075H204.525V927.277H204.423C204.235 927.641 203.971 927.981 203.63 928.3C203.295 928.612 202.871 928.865 202.36 929.058C201.854 929.246 201.261 929.339 200.579 929.339ZM201.38 927.072C201.999 927.072 202.536 926.95 202.991 926.706C203.445 926.456 203.795 926.126 204.039 925.717C204.289 925.308 204.414 924.862 204.414 924.379V922.837C204.317 922.916 204.153 922.99 203.92 923.058C203.692 923.126 203.437 923.186 203.153 923.237C202.869 923.288 202.587 923.334 202.309 923.373C202.031 923.413 201.789 923.447 201.585 923.476C201.124 923.538 200.712 923.641 200.349 923.783C199.985 923.925 199.698 924.123 199.488 924.379C199.278 924.629 199.173 924.953 199.173 925.351C199.173 925.919 199.38 926.348 199.795 926.638C200.21 926.927 200.738 927.072 201.38 927.072ZM210.593 929.075V915.984H213.585V918.166H213.721C213.96 917.41 214.369 916.828 214.948 916.419C215.533 916.004 216.201 915.797 216.951 915.797C217.121 915.797 217.312 915.805 217.522 915.822C217.738 915.834 217.917 915.854 218.059 915.882V918.72C217.928 918.675 217.721 918.635 217.437 918.601C217.158 918.561 216.888 918.541 216.627 918.541C216.065 918.541 215.559 918.663 215.11 918.908C214.667 919.146 214.317 919.479 214.062 919.905C213.806 920.331 213.678 920.822 213.678 921.379V929.075H210.593ZM225.365 929.331C224.053 929.331 222.919 929.058 221.964 928.513C221.016 927.962 220.286 927.183 219.774 926.177C219.263 925.166 219.007 923.976 219.007 922.606C219.007 921.26 219.263 920.078 219.774 919.061C220.291 918.038 221.013 917.243 221.939 916.675C222.865 916.101 223.953 915.814 225.203 915.814C226.01 915.814 226.771 915.945 227.487 916.206C228.209 916.462 228.845 916.859 229.396 917.399C229.953 917.939 230.391 918.626 230.709 919.462C231.027 920.291 231.186 921.28 231.186 922.427V923.373H220.456V921.294H228.229C228.223 920.703 228.095 920.177 227.845 919.717C227.595 919.251 227.246 918.885 226.797 918.618C226.354 918.351 225.837 918.217 225.246 918.217C224.615 918.217 224.061 918.371 223.584 918.677C223.107 918.979 222.734 919.376 222.467 919.871C222.206 920.359 222.072 920.896 222.067 921.481V923.297C222.067 924.058 222.206 924.712 222.484 925.257C222.763 925.797 223.152 926.212 223.652 926.501C224.152 926.785 224.737 926.927 225.408 926.927C225.857 926.927 226.263 926.865 226.626 926.74C226.99 926.609 227.305 926.419 227.572 926.169C227.839 925.919 228.041 925.609 228.178 925.24L231.058 925.564C230.876 926.325 230.53 926.99 230.018 927.558C229.513 928.121 228.865 928.558 228.075 928.871C227.286 929.177 226.382 929.331 225.365 929.331ZM236.881 921.405V929.075H233.796V911.621H236.813V918.209H236.967C237.273 917.47 237.748 916.888 238.39 916.462C239.038 916.03 239.862 915.814 240.862 915.814C241.771 915.814 242.563 916.004 243.239 916.385C243.915 916.766 244.438 917.322 244.808 918.055C245.183 918.788 245.37 919.683 245.37 920.74V929.075H242.285V921.217C242.285 920.337 242.058 919.652 241.603 919.163C241.154 918.669 240.523 918.422 239.711 918.422C239.165 918.422 238.677 918.541 238.245 918.78C237.819 919.013 237.484 919.351 237.239 919.794C237.001 920.237 236.881 920.774 236.881 921.405ZM254.225 929.331C252.947 929.331 251.839 929.05 250.901 928.487C249.964 927.925 249.237 927.138 248.719 926.126C248.208 925.115 247.952 923.933 247.952 922.581C247.952 921.229 248.208 920.044 248.719 919.027C249.237 918.01 249.964 917.22 250.901 916.658C251.839 916.095 252.947 915.814 254.225 915.814C255.504 915.814 256.612 916.095 257.549 916.658C258.487 917.22 259.211 918.01 259.722 919.027C260.239 920.044 260.498 921.229 260.498 922.581C260.498 923.933 260.239 925.115 259.722 926.126C259.211 927.138 258.487 927.925 257.549 928.487C256.612 929.05 255.504 929.331 254.225 929.331ZM254.242 926.859C254.935 926.859 255.515 926.669 255.981 926.288C256.447 925.902 256.793 925.385 257.021 924.737C257.254 924.089 257.37 923.368 257.37 922.572C257.37 921.771 257.254 921.047 257.021 920.399C256.793 919.746 256.447 919.226 255.981 918.839C255.515 918.453 254.935 918.26 254.242 918.26C253.532 918.26 252.941 918.453 252.469 918.839C252.004 919.226 251.654 919.746 251.421 920.399C251.194 921.047 251.08 921.771 251.08 922.572C251.08 923.368 251.194 924.089 251.421 924.737C251.654 925.385 252.004 925.902 252.469 926.288C252.941 926.669 253.532 926.859 254.242 926.859ZM271.46 923.57V915.984H274.545V929.075H271.554V926.748H271.418C271.122 927.481 270.636 928.081 269.96 928.547C269.29 929.013 268.463 929.246 267.48 929.246C266.622 929.246 265.864 929.055 265.205 928.675C264.551 928.288 264.04 927.729 263.67 926.996C263.301 926.257 263.116 925.365 263.116 924.32V915.984H266.202V923.842C266.202 924.672 266.429 925.331 266.884 925.82C267.338 926.308 267.935 926.552 268.673 926.552C269.128 926.552 269.568 926.442 269.994 926.22C270.42 925.998 270.77 925.669 271.043 925.231C271.321 924.788 271.46 924.234 271.46 923.57ZM288.065 919.445L285.252 919.751C285.173 919.467 285.033 919.2 284.835 918.95C284.641 918.7 284.38 918.498 284.05 918.345C283.721 918.192 283.317 918.115 282.84 918.115C282.198 918.115 281.658 918.254 281.221 918.533C280.789 918.811 280.576 919.172 280.582 919.615C280.576 919.996 280.715 920.305 280.999 920.544C281.289 920.783 281.766 920.979 282.431 921.132L284.664 921.609C285.903 921.876 286.823 922.3 287.425 922.879C288.033 923.459 288.34 924.217 288.346 925.155C288.34 925.979 288.099 926.706 287.621 927.337C287.15 927.962 286.494 928.45 285.653 928.802C284.812 929.155 283.846 929.331 282.755 929.331C281.153 929.331 279.863 928.996 278.886 928.325C277.908 927.649 277.326 926.709 277.138 925.504L280.147 925.214C280.283 925.805 280.573 926.251 281.016 926.552C281.46 926.854 282.036 927.004 282.746 927.004C283.479 927.004 284.067 926.854 284.511 926.552C284.96 926.251 285.184 925.879 285.184 925.436C285.184 925.061 285.039 924.751 284.749 924.507C284.465 924.263 284.022 924.075 283.42 923.945L281.187 923.476C279.931 923.214 279.002 922.774 278.4 922.155C277.798 921.53 277.499 920.74 277.505 919.785C277.499 918.979 277.718 918.28 278.161 917.689C278.61 917.092 279.232 916.632 280.028 916.308C280.829 915.979 281.752 915.814 282.798 915.814C284.332 915.814 285.539 916.141 286.42 916.794C287.306 917.447 287.854 918.331 288.065 919.445ZM296.685 929.331C295.373 929.331 294.239 929.058 293.285 928.513C292.336 927.962 291.606 927.183 291.094 926.177C290.583 925.166 290.327 923.976 290.327 922.606C290.327 921.26 290.583 920.078 291.094 919.061C291.612 918.038 292.333 917.243 293.259 916.675C294.185 916.101 295.273 915.814 296.523 915.814C297.33 915.814 298.092 915.945 298.808 916.206C299.529 916.462 300.165 916.859 300.717 917.399C301.273 917.939 301.711 918.626 302.029 919.462C302.347 920.291 302.506 921.28 302.506 922.427V923.373H291.776V921.294H299.549C299.543 920.703 299.415 920.177 299.165 919.717C298.915 919.251 298.566 918.885 298.117 918.618C297.674 918.351 297.157 918.217 296.566 918.217C295.935 918.217 295.381 918.371 294.904 918.677C294.427 918.979 294.055 919.376 293.788 919.871C293.526 920.359 293.393 920.896 293.387 921.481V923.297C293.387 924.058 293.526 924.712 293.805 925.257C294.083 925.797 294.472 926.212 294.972 926.501C295.472 926.785 296.058 926.927 296.728 926.927C297.177 926.927 297.583 926.865 297.947 926.74C298.31 926.609 298.626 926.419 298.893 926.169C299.16 925.919 299.362 925.609 299.498 925.24L302.379 925.564C302.197 926.325 301.85 926.99 301.339 927.558C300.833 928.121 300.185 928.558 299.396 928.871C298.606 929.177 297.702 929.331 296.685 929.331ZM312.241 910.802L306.616 931.7H303.915L309.54 910.802H312.241ZM326.214 929.075H320.3V911.621H326.334C328.067 911.621 329.555 911.97 330.8 912.669C332.05 913.362 333.01 914.359 333.68 915.66C334.351 916.962 334.686 918.518 334.686 920.331C334.686 922.149 334.348 923.712 333.672 925.018C333.001 926.325 332.033 927.328 330.766 928.027C329.504 928.726 327.987 929.075 326.214 929.075ZM323.462 926.339H326.061C327.277 926.339 328.291 926.118 329.104 925.675C329.916 925.226 330.527 924.558 330.936 923.672C331.345 922.78 331.55 921.666 331.55 920.331C331.55 918.996 331.345 917.888 330.936 917.007C330.527 916.121 329.922 915.459 329.121 915.021C328.325 914.578 327.337 914.356 326.155 914.356H323.462V926.339ZM341.321 929.339C340.491 929.339 339.744 929.192 339.08 928.896C338.42 928.595 337.898 928.152 337.511 927.567C337.131 926.981 336.94 926.26 336.94 925.402C336.94 924.663 337.077 924.052 337.349 923.57C337.622 923.087 337.994 922.7 338.466 922.41C338.938 922.121 339.469 921.902 340.06 921.754C340.656 921.601 341.273 921.49 341.909 921.422C342.676 921.342 343.298 921.271 343.776 921.209C344.253 921.141 344.599 921.038 344.815 920.902C345.037 920.76 345.148 920.541 345.148 920.246V920.195C345.148 919.552 344.957 919.055 344.577 918.703C344.196 918.351 343.648 918.175 342.932 918.175C342.176 918.175 341.577 918.339 341.134 918.669C340.696 918.998 340.401 919.388 340.247 919.837L337.366 919.427C337.594 918.632 337.969 917.967 338.491 917.433C339.014 916.893 339.653 916.49 340.409 916.223C341.165 915.95 342 915.814 342.915 915.814C343.545 915.814 344.173 915.888 344.798 916.035C345.423 916.183 345.994 916.427 346.511 916.768C347.028 917.104 347.443 917.561 347.756 918.141C348.074 918.72 348.233 919.445 348.233 920.314V929.075H345.267V927.277H345.165C344.977 927.641 344.713 927.981 344.372 928.3C344.037 928.612 343.614 928.865 343.102 929.058C342.597 929.246 342.003 929.339 341.321 929.339ZM342.122 927.072C342.741 927.072 343.278 926.95 343.733 926.706C344.188 926.456 344.537 926.126 344.781 925.717C345.031 925.308 345.156 924.862 345.156 924.379V922.837C345.06 922.916 344.895 922.99 344.662 923.058C344.435 923.126 344.179 923.186 343.895 923.237C343.611 923.288 343.33 923.334 343.051 923.373C342.773 923.413 342.531 923.447 342.327 923.476C341.866 923.538 341.455 923.641 341.091 923.783C340.727 923.925 340.44 924.123 340.23 924.379C340.02 924.629 339.915 924.953 339.915 925.351C339.915 925.919 340.122 926.348 340.537 926.638C340.952 926.927 341.48 927.072 342.122 927.072ZM357.872 915.984V918.371H350.347V915.984H357.872ZM352.205 912.848H355.29V925.138C355.29 925.552 355.352 925.871 355.477 926.092C355.608 926.308 355.778 926.456 355.989 926.535C356.199 926.615 356.432 926.655 356.688 926.655C356.881 926.655 357.057 926.641 357.216 926.612C357.381 926.584 357.506 926.558 357.591 926.535L358.111 928.947C357.946 929.004 357.71 929.067 357.403 929.135C357.102 929.203 356.733 929.243 356.295 929.254C355.523 929.277 354.827 929.16 354.207 928.905C353.588 928.643 353.097 928.24 352.733 927.695C352.375 927.149 352.199 926.467 352.205 925.649V912.848ZM364.219 929.339C363.39 929.339 362.643 929.192 361.978 928.896C361.319 928.595 360.796 928.152 360.41 927.567C360.029 926.981 359.839 926.26 359.839 925.402C359.839 924.663 359.975 924.052 360.248 923.57C360.521 923.087 360.893 922.7 361.364 922.41C361.836 922.121 362.367 921.902 362.958 921.754C363.555 921.601 364.171 921.49 364.808 921.422C365.575 921.342 366.197 921.271 366.674 921.209C367.151 921.141 367.498 921.038 367.714 920.902C367.935 920.76 368.046 920.541 368.046 920.246V920.195C368.046 919.552 367.856 919.055 367.475 918.703C367.094 918.351 366.546 918.175 365.83 918.175C365.075 918.175 364.475 918.339 364.032 918.669C363.594 918.998 363.299 919.388 363.146 919.837L360.265 919.427C360.492 918.632 360.867 917.967 361.39 917.433C361.913 916.893 362.552 916.49 363.308 916.223C364.063 915.95 364.898 915.814 365.813 915.814C366.444 915.814 367.072 915.888 367.697 916.035C368.322 916.183 368.893 916.427 369.41 916.768C369.927 917.104 370.342 917.561 370.654 918.141C370.972 918.72 371.131 919.445 371.131 920.314V929.075H368.165V927.277H368.063C367.876 927.641 367.612 927.981 367.271 928.3C366.935 928.612 366.512 928.865 366.001 929.058C365.495 929.246 364.901 929.339 364.219 929.339ZM365.021 927.072C365.64 927.072 366.177 926.95 366.631 926.706C367.086 926.456 367.435 926.126 367.68 925.717C367.93 925.308 368.055 924.862 368.055 924.379V922.837C367.958 922.916 367.793 922.99 367.56 923.058C367.333 923.126 367.077 923.186 366.793 923.237C366.509 923.288 366.228 923.334 365.95 923.373C365.671 923.413 365.43 923.447 365.225 923.476C364.765 923.538 364.353 923.641 363.989 923.783C363.626 923.925 363.339 924.123 363.129 924.379C362.918 924.629 362.813 924.953 362.813 925.351C362.813 925.919 363.021 926.348 363.435 926.638C363.85 926.927 364.379 927.072 365.021 927.072ZM380.323 929.075V911.621H383.485V926.425H391.173V929.075H380.323ZM397.548 929.339C396.718 929.339 395.971 929.192 395.306 928.896C394.647 928.595 394.124 928.152 393.738 927.567C393.357 926.981 393.167 926.26 393.167 925.402C393.167 924.663 393.303 924.052 393.576 923.57C393.849 923.087 394.221 922.7 394.692 922.41C395.164 922.121 395.695 921.902 396.286 921.754C396.883 921.601 397.499 921.49 398.136 921.422C398.903 921.342 399.525 921.271 400.002 921.209C400.479 921.141 400.826 921.038 401.042 920.902C401.263 920.76 401.374 920.541 401.374 920.246V920.195C401.374 919.552 401.184 919.055 400.803 918.703C400.423 918.351 399.874 918.175 399.158 918.175C398.403 918.175 397.803 918.339 397.36 918.669C396.923 918.998 396.627 919.388 396.474 919.837L393.593 919.427C393.82 918.632 394.195 917.967 394.718 917.433C395.241 916.893 395.88 916.49 396.636 916.223C397.391 915.95 398.227 915.814 399.141 915.814C399.772 915.814 400.4 915.888 401.025 916.035C401.65 916.183 402.221 916.427 402.738 916.768C403.255 917.104 403.67 917.561 403.982 918.141C404.3 918.72 404.46 919.445 404.46 920.314V929.075H401.494V927.277H401.391C401.204 927.641 400.94 927.981 400.599 928.3C400.263 928.612 399.84 928.865 399.329 929.058C398.823 929.246 398.229 929.339 397.548 929.339ZM398.349 927.072C398.968 927.072 399.505 926.95 399.96 926.706C400.414 926.456 400.763 926.126 401.008 925.717C401.258 925.308 401.383 924.862 401.383 924.379V922.837C401.286 922.916 401.121 922.99 400.888 923.058C400.661 923.126 400.406 923.186 400.121 923.237C399.837 923.288 399.556 923.334 399.278 923.373C398.999 923.413 398.758 923.447 398.553 923.476C398.093 923.538 397.681 923.641 397.317 923.783C396.954 923.925 396.667 924.123 396.457 924.379C396.246 924.629 396.141 924.953 396.141 925.351C396.141 925.919 396.349 926.348 396.763 926.638C397.178 926.927 397.707 927.072 398.349 927.072ZM410.374 924.967L410.366 921.243H410.86L415.565 915.984H419.17L413.383 922.427H412.744L410.374 924.967ZM407.562 929.075V911.621H410.647V929.075H407.562ZM415.778 929.075L411.516 923.118L413.596 920.945L419.468 929.075H415.778ZM426.482 929.331C425.17 929.331 424.036 929.058 423.082 928.513C422.133 927.962 421.403 927.183 420.891 926.177C420.38 925.166 420.124 923.976 420.124 922.606C420.124 921.26 420.38 920.078 420.891 919.061C421.408 918.038 422.13 917.243 423.056 916.675C423.982 916.101 425.07 915.814 426.32 915.814C427.127 915.814 427.888 915.945 428.604 916.206C429.326 916.462 429.962 916.859 430.513 917.399C431.07 917.939 431.508 918.626 431.826 919.462C432.144 920.291 432.303 921.28 432.303 922.427V923.373H421.573V921.294H429.346C429.34 920.703 429.212 920.177 428.962 919.717C428.712 919.251 428.363 918.885 427.914 918.618C427.471 918.351 426.954 918.217 426.363 918.217C425.732 918.217 425.178 918.371 424.701 918.677C424.224 918.979 423.852 919.376 423.585 919.871C423.323 920.359 423.19 920.896 423.184 921.481V923.297C423.184 924.058 423.323 924.712 423.602 925.257C423.88 925.797 424.269 926.212 424.769 926.501C425.269 926.785 425.854 926.927 426.525 926.927C426.974 926.927 427.38 926.865 427.744 926.74C428.107 926.609 428.423 926.419 428.69 926.169C428.957 925.919 429.158 925.609 429.295 925.24L432.175 925.564C431.994 926.325 431.647 926.99 431.136 927.558C430.63 928.121 429.982 928.558 429.192 928.871C428.403 929.177 427.499 929.331 426.482 929.331ZM437.999 921.405V929.075H434.913V911.621H437.93V918.209H438.084C438.391 917.47 438.865 916.888 439.507 916.462C440.155 916.03 440.979 915.814 441.979 915.814C442.888 915.814 443.68 916.004 444.357 916.385C445.033 916.766 445.555 917.322 445.925 918.055C446.3 918.788 446.487 919.683 446.487 920.74V929.075H443.402V921.217C443.402 920.337 443.175 919.652 442.72 919.163C442.271 918.669 441.641 918.422 440.828 918.422C440.283 918.422 439.794 918.541 439.362 918.78C438.936 919.013 438.601 919.351 438.357 919.794C438.118 920.237 437.999 920.774 437.999 921.405ZM455.342 929.331C454.064 929.331 452.956 929.05 452.018 928.487C451.081 927.925 450.354 927.138 449.837 926.126C449.325 925.115 449.07 923.933 449.07 922.581C449.07 921.229 449.325 920.044 449.837 919.027C450.354 918.01 451.081 917.22 452.018 916.658C452.956 916.095 454.064 915.814 455.342 915.814C456.621 915.814 457.729 916.095 458.666 916.658C459.604 917.22 460.328 918.01 460.839 919.027C461.357 920.044 461.615 921.229 461.615 922.581C461.615 923.933 461.357 925.115 460.839 926.126C460.328 927.138 459.604 927.925 458.666 928.487C457.729 929.05 456.621 929.331 455.342 929.331ZM455.359 926.859C456.053 926.859 456.632 926.669 457.098 926.288C457.564 925.902 457.911 925.385 458.138 924.737C458.371 924.089 458.487 923.368 458.487 922.572C458.487 921.771 458.371 921.047 458.138 920.399C457.911 919.746 457.564 919.226 457.098 918.839C456.632 918.453 456.053 918.26 455.359 918.26C454.649 918.26 454.058 918.453 453.587 918.839C453.121 919.226 452.771 919.746 452.538 920.399C452.311 921.047 452.197 921.771 452.197 922.572C452.197 923.368 452.311 924.089 452.538 924.737C452.771 925.385 453.121 925.902 453.587 926.288C454.058 926.669 454.649 926.859 455.359 926.859ZM472.577 923.57V915.984H475.663V929.075H472.671V926.748H472.535C472.239 927.481 471.754 928.081 471.077 928.547C470.407 929.013 469.58 929.246 468.597 929.246C467.739 929.246 466.981 929.055 466.322 928.675C465.668 928.288 465.157 927.729 464.788 926.996C464.418 926.257 464.234 925.365 464.234 924.32V915.984H467.319V923.842C467.319 924.672 467.546 925.331 468.001 925.82C468.455 926.308 469.052 926.552 469.79 926.552C470.245 926.552 470.685 926.442 471.112 926.22C471.538 925.998 471.887 925.669 472.16 925.231C472.438 924.788 472.577 924.234 472.577 923.57ZM489.182 919.445L486.369 919.751C486.29 919.467 486.151 919.2 485.952 918.95C485.759 918.7 485.497 918.498 485.168 918.345C484.838 918.192 484.435 918.115 483.957 918.115C483.315 918.115 482.776 918.254 482.338 918.533C481.906 918.811 481.693 919.172 481.699 919.615C481.693 919.996 481.832 920.305 482.116 920.544C482.406 920.783 482.884 920.979 483.548 921.132L485.781 921.609C487.02 921.876 487.94 922.3 488.543 922.879C489.151 923.459 489.457 924.217 489.463 925.155C489.457 925.979 489.216 926.706 488.739 927.337C488.267 927.962 487.611 928.45 486.77 928.802C485.929 929.155 484.963 929.331 483.872 929.331C482.27 929.331 480.98 928.996 480.003 928.325C479.026 927.649 478.443 926.709 478.256 925.504L481.264 925.214C481.401 925.805 481.69 926.251 482.134 926.552C482.577 926.854 483.153 927.004 483.864 927.004C484.597 927.004 485.185 926.854 485.628 926.552C486.077 926.251 486.301 925.879 486.301 925.436C486.301 925.061 486.156 924.751 485.866 924.507C485.582 924.263 485.139 924.075 484.537 923.945L482.304 923.476C481.048 923.214 480.119 922.774 479.517 922.155C478.915 921.53 478.616 920.74 478.622 919.785C478.616 918.979 478.835 918.28 479.278 917.689C479.727 917.092 480.349 916.632 481.145 916.308C481.946 915.979 482.869 915.814 483.915 915.814C485.449 915.814 486.656 916.141 487.537 916.794C488.423 917.447 488.972 918.331 489.182 919.445ZM497.803 929.331C496.49 929.331 495.357 929.058 494.402 928.513C493.453 927.962 492.723 927.183 492.212 926.177C491.7 925.166 491.445 923.976 491.445 922.606C491.445 921.26 491.7 920.078 492.212 919.061C492.729 918.038 493.45 917.243 494.376 916.675C495.303 916.101 496.391 915.814 497.641 915.814C498.447 915.814 499.209 915.945 499.925 916.206C500.646 916.462 501.283 916.859 501.834 917.399C502.391 917.939 502.828 918.626 503.146 919.462C503.464 920.291 503.624 921.28 503.624 922.427V923.373H492.893V921.294H500.666C500.661 920.703 500.533 920.177 500.283 919.717C500.033 919.251 499.683 918.885 499.234 918.618C498.791 918.351 498.274 918.217 497.683 918.217C497.053 918.217 496.499 918.371 496.021 918.677C495.544 918.979 495.172 919.376 494.905 919.871C494.643 920.359 494.51 920.896 494.504 921.481V923.297C494.504 924.058 494.643 924.712 494.922 925.257C495.2 925.797 495.589 926.212 496.089 926.501C496.589 926.785 497.175 926.927 497.845 926.927C498.294 926.927 498.7 926.865 499.064 926.74C499.428 926.609 499.743 926.419 500.01 926.169C500.277 925.919 500.479 925.609 500.615 925.24L503.496 925.564C503.314 926.325 502.967 926.99 502.456 927.558C501.95 928.121 501.303 928.558 500.513 928.871C499.723 929.177 498.82 929.331 497.803 929.331Z" fill="#B8D0F2"/>
<path d="M894.173 935.069L882.845 912.914L880.005 914.272L888.474 930.834C888.759 931.263 888.116 931.174 888.116 931.174C878.307 931.067 874.341 921.043 874.341 921.043L878.986 912.092L887.116 908.644L879.612 906.464L872.536 892.742L865.443 906.535L857.975 908.644L866.301 912.199L870.768 921.15C865.407 931.978 857.01 931.227 857.01 931.227C856.42 931.263 856.635 930.941 856.635 930.941L865.068 914.272L862.334 912.878L850.828 935.408H858.475C867.927 935.408 872.322 924.938 872.322 924.938C872.518 924.42 872.715 925.01 872.715 925.01C877.843 935.444 885.311 935.408 885.311 935.408H893.887C894.459 935.426 894.173 935.069 894.173 935.069ZM872.59 917.559L868.034 908.679L872.554 899.8L877.146 908.679L872.59 917.559Z" fill="url(#paint15_linear_159_6976)"/>
<path d="M716.451 925.117L714.486 932.21H708L716.451 904.57H724.652L733.228 932.21H726.51L724.384 925.117H716.451ZM723.473 920.454L721.757 914.594C721.257 912.95 720.775 910.895 720.364 909.269H720.275C719.864 910.913 719.453 913.003 719.006 914.594L717.362 920.454H723.473Z" fill="white"/>
<path d="M742.696 920.616H742.786C743.232 919.794 743.733 918.972 744.215 918.204L748.271 912.183H755.775L748.593 920.294L756.793 932.229H749.129L744.287 923.993L742.679 925.958V932.229H736.461V903.106H742.696V920.616Z" fill="white"/>
<path d="M775.608 927.334C775.608 929.263 775.697 931.104 775.894 932.211H770.284L769.908 930.192H769.783C768.479 931.8 766.424 932.658 764.048 932.658C759.992 932.658 757.562 929.71 757.562 926.512C757.562 921.295 762.244 918.811 769.337 918.847V918.561C769.337 917.489 768.765 915.97 765.692 915.97C763.637 915.97 761.475 916.667 760.153 917.489L759.01 913.469C760.403 912.683 763.155 911.7 766.8 911.7C773.482 911.7 775.608 915.631 775.608 920.348V927.334ZM769.533 922.742C766.246 922.706 763.709 923.474 763.709 925.904C763.709 927.512 764.781 928.281 766.174 928.281C767.729 928.281 768.997 927.262 769.408 925.976C769.498 925.654 769.533 925.279 769.533 924.904V922.742Z" fill="white"/>
<path d="M780.485 926.762C781.628 927.459 784.004 928.281 785.863 928.281C787.757 928.281 788.525 927.62 788.525 926.601C788.525 925.583 787.917 925.082 785.577 924.296C781.432 922.903 779.842 920.651 779.877 918.311C779.877 914.541 783.075 911.7 788.042 911.7C790.383 911.7 792.473 912.236 793.706 912.844L792.598 917.15C791.705 916.649 789.972 916.006 788.257 916.006C786.738 916.006 785.88 916.614 785.88 917.65C785.88 918.597 786.667 919.079 789.114 919.955C792.92 921.259 794.528 923.189 794.564 926.137C794.564 929.871 791.616 932.658 785.863 932.658C783.236 932.658 780.896 932.051 779.377 931.229L780.485 926.762Z" fill="white"/>
<path d="M798.316 903.106H804.552V914.541H804.641C805.302 913.684 806.124 912.987 807.107 912.487C808.054 911.986 809.197 911.7 810.341 911.7C814.325 911.7 817.345 914.452 817.345 920.473V932.194H811.109V921.17C811.109 918.543 810.216 916.739 807.875 916.739C806.231 916.739 805.213 917.811 804.766 918.919C804.606 919.33 804.552 919.866 804.552 920.312V932.212H798.316V903.106Z" fill="white"/>
<path d="M837.085 932.21L834.584 927.208C833.565 925.278 832.904 923.849 832.118 922.241H832.029C831.457 923.831 830.76 925.278 829.902 927.208L827.598 932.21H820.469L828.455 918.221L820.755 904.57H827.937L830.349 909.609C831.171 911.288 831.778 912.646 832.44 914.201H832.529C833.19 912.432 833.726 911.199 834.423 909.609L836.763 904.57H843.892L836.102 918.06L844.303 932.21H837.085Z" fill="white"/>
<defs>
<filter id="filter0_f_159_6976" x="574.21" y="-0.000152588" width="799.862" height="675.913" filterUnits="userSpaceOnUse" color-interpolation-filters="sRGB">
<feFlood flood-opacity="0" result="BackgroundImageFix"/>
<feBlend mode="normal" in="SourceGraphic" in2="BackgroundImageFix" result="shape"/>
<feGaussianBlur stdDeviation="125.77" result="effect1_foregroundBlur_159_6976"/>
</filter>
<linearGradient id="paint0_linear_159_6976" x1="0" y1="864.909" x2="1121.75" y2="864.909" gradientUnits="userSpaceOnUse">
<stop stop-color="#080C26"/>
<stop offset="0.465026" stop-color="#50688B" stop-opacity="0.3"/>
<stop offset="1" stop-color="#080C26"/>
</linearGradient>
<linearGradient id="paint1_linear_159_6976" x1="0" y1="798.242" x2="1121.75" y2="798.242" gradientUnits="userSpaceOnUse">
<stop stop-color="#080C26"/>
<stop offset="0.465026" stop-color="#50688B" stop-opacity="0.3"/>
<stop offset="1" stop-color="#080C26"/>
</linearGradient>
<linearGradient id="paint2_linear_159_6976" x1="0" y1="731.575" x2="1121.75" y2="731.575" gradientUnits="userSpaceOnUse">
<stop stop-color="#080C26"/>
<stop offset="0.465026" stop-color="#50688B" stop-opacity="0.3"/>
<stop offset="1" stop-color="#080C26"/>
</linearGradient>
<linearGradient id="paint3_linear_159_6976" x1="0" y1="664.909" x2="1121.75" y2="664.909" gradientUnits="userSpaceOnUse">
<stop stop-color="#080C26"/>
<stop offset="0.465026" stop-color="#50688B" stop-opacity="0.3"/>
<stop offset="1" stop-color="#080C26"/>
</linearGradient>
<linearGradient id="paint4_linear_159_6976" x1="0" y1="598.242" x2="1121.75" y2="598.242" gradientUnits="userSpaceOnUse">
<stop stop-color="#080C26"/>
<stop offset="0.465026" stop-color="#50688B" stop-opacity="0.3"/>
<stop offset="1" stop-color="#080C26"/>
</linearGradient>
<linearGradient id="paint5_linear_159_6976" x1="0" y1="531.575" x2="1121.75" y2="531.575" gradientUnits="userSpaceOnUse">
<stop stop-color="#080C26"/>
<stop offset="0.465026" stop-color="#50688B" stop-opacity="0.3"/>
<stop offset="1" stop-color="#080C26"/>
</linearGradient>
<linearGradient id="paint6_linear_159_6976" x1="0" y1="464.909" x2="1121.75" y2="464.909" gradientUnits="userSpaceOnUse">
<stop stop-color="#080C26"/>
<stop offset="0.465026" stop-color="#50688B" stop-opacity="0.3"/>
<stop offset="1" stop-color="#080C26"/>
</linearGradient>
<linearGradient id="paint7_linear_159_6976" x1="0" y1="398.242" x2="1121.75" y2="398.242" gradientUnits="userSpaceOnUse">
<stop stop-color="#080C26"/>
<stop offset="0.465026" stop-color="#50688B" stop-opacity="0.3"/>
<stop offset="1" stop-color="#080C26"/>
</linearGradient>
<linearGradient id="paint8_linear_159_6976" x1="796.291" y1="675.761" x2="513.811" y2="346.629" gradientUnits="userSpaceOnUse">
<stop stop-color="#30D5C8"/>
<stop offset="1" stop-color="#080C26"/>
</linearGradient>
<linearGradient id="paint9_linear_159_6976" x1="743.241" y1="495.999" x2="626.163" y2="378.666" gradientUnits="userSpaceOnUse">
<stop stop-color="#38FFEF"/>
<stop offset="1" stop-color="#30D5C8" stop-opacity="0.3"/>
</linearGradient>
<linearGradient id="paint10_linear_159_6976" x1="198.666" y1="338.076" x2="407.333" y2="338.076" gradientUnits="userSpaceOnUse">
<stop stop-color="#2B0D0D"/>
<stop offset="1" stop-color="#080C26"/>
</linearGradient>
<linearGradient id="paint11_linear_159_6976" x1="198.666" y1="338.076" x2="407.333" y2="338.076" gradientUnits="userSpaceOnUse">
<stop stop-color="#DF4343"/>
<stop offset="1" stop-color="#521919"/>
</linearGradient>
<linearGradient id="paint12_linear_159_6976" x1="708" y1="544.909" x2="894.667" y2="544.909" gradientUnits="userSpaceOnUse">
<stop stop-color="#0D3236"/>
<stop offset="1" stop-color="#080C26"/>
</linearGradient>
<linearGradient id="paint13_linear_159_6976" x1="708" y1="544.909" x2="894.667" y2="544.909" gradientUnits="userSpaceOnUse">
<stop stop-color="#66F2C3"/>
<stop offset="1" stop-color="#184D52"/>
</linearGradient>
<linearGradient id="paint14_linear_159_6976" x1="1132.12" y1="336.507" x2="948.664" y2="466.195" gradientUnits="userSpaceOnUse">
<stop stop-color="#30D5C8"/>
<stop offset="1" stop-color="#7557FF"/>
</linearGradient>
<linearGradient id="paint15_linear_159_6976" x1="872.961" y1="892.742" x2="872.429" y2="922.009" gradientUnits="userSpaceOnUse">
<stop stop-color="#30D5C8"/>
<stop offset="1" stop-color="#7557FF"/>
</linearGradient>
</defs>
</svg>
