<svg width="651" height="631" viewBox="0 0 651 631" fill="none" xmlns="http://www.w3.org/2000/svg">
<g opacity="0.57">
<path d="M267.032 301.882C266.564 301.882 266.186 301.504 266.186 301.035C266.186 272.066 278.31 244.081 299.452 224.256C303.19 220.75 307.219 217.489 311.427 214.565C311.81 214.299 312.338 214.393 312.606 214.777C312.872 215.161 312.777 215.689 312.393 215.955C308.254 218.833 304.289 222.042 300.61 225.492C279.809 244.998 267.879 272.533 267.879 301.036C267.879 301.504 267.5 301.882 267.032 301.882Z" fill="#3499FF" fill-opacity="0.6"/>
<path d="M475.81 301.882C475.342 301.882 474.964 301.504 474.964 301.036C474.964 289.214 472.988 277.621 469.091 266.58C468.936 266.138 469.168 265.655 469.608 265.499C470.05 265.348 470.532 265.576 470.688 266.016C474.648 277.24 476.656 289.022 476.656 301.036C476.657 301.504 476.277 301.882 475.81 301.882Z" fill="#3499FF" fill-opacity="0.6"/>
<path d="M467.871 261.22C467.478 261.22 467.105 261.009 466.943 260.656C457.25 239.642 441.02 221.981 420.007 209.585C419.539 209.309 419.404 208.738 419.706 208.31C420.008 207.882 420.631 207.757 421.1 208.035C442.455 220.633 458.949 238.582 468.798 259.94C469.015 260.41 468.775 260.951 468.262 261.148C468.135 261.197 468.002 261.22 467.871 261.22Z" fill="#3499FF" fill-opacity="0.6"/>
<path d="M318.761 211.729C318.47 211.729 318.187 211.579 318.03 211.31C317.794 210.906 317.93 210.388 318.333 210.152C334.372 200.763 352.73 195.799 371.421 195.799C386.988 195.799 401.975 199.118 415.966 205.665C416.39 205.863 416.573 206.367 416.374 206.791C416.176 207.213 415.672 207.396 415.249 207.199C401.484 200.759 386.737 197.493 371.421 197.493C353.03 197.493 334.969 202.376 319.188 211.613C319.054 211.692 318.907 211.729 318.761 211.729Z" fill="#3499FF" fill-opacity="0.6"/>
<path d="M248.461 301.22C247.954 301.22 247.545 300.836 247.545 300.361C247.545 250.539 278.965 205.372 327.593 185.295C328.061 185.1 328.597 185.301 328.8 185.734C329.004 186.168 328.794 186.676 328.331 186.867C280.368 206.67 249.377 251.22 249.377 300.361C249.377 300.836 248.966 301.22 248.461 301.22Z" fill="#3499FF" fill-opacity="0.6"/>
<path d="M494.393 301.883C493.925 301.883 493.547 301.504 493.547 301.036C493.547 262.535 475.058 225.839 444.09 202.875C443.715 202.597 443.636 202.067 443.914 201.691C444.193 201.316 444.724 201.238 445.099 201.515C460.315 212.798 472.929 227.641 481.578 244.44C490.643 262.05 495.24 281.092 495.24 301.035C495.24 301.504 494.861 301.883 494.393 301.883Z" fill="#3499FF" fill-opacity="0.6"/>
<path d="M437.261 198.008C437.106 198.008 436.949 197.966 436.808 197.876C434.304 196.286 431.71 194.767 429.095 193.364C428.683 193.143 428.528 192.63 428.75 192.217C428.971 191.806 429.484 191.65 429.895 191.872C432.546 193.295 435.177 194.835 437.716 196.447C438.11 196.698 438.227 197.222 437.977 197.616C437.816 197.87 437.542 198.008 437.261 198.008Z" fill="#3499FF" fill-opacity="0.6"/>
<path d="M424.083 190.726C423.961 190.726 423.838 190.7 423.72 190.644C407.316 182.859 389.72 178.912 371.422 178.912C358.041 178.912 344.887 181.062 332.327 185.303C331.878 185.453 331.403 185.215 331.254 184.772C331.104 184.329 331.343 183.849 331.784 183.7C344.519 179.399 357.855 177.219 371.421 177.219C389.973 177.219 407.813 181.222 424.446 189.116C424.868 189.316 425.049 189.821 424.848 190.243C424.704 190.548 424.399 190.726 424.083 190.726Z" fill="#3499FF" fill-opacity="0.6"/>
<path d="M514.989 301.882C514.521 301.882 514.143 301.504 514.143 301.036C514.143 285.32 511.605 269.875 506.6 255.131C506.45 254.689 506.687 254.207 507.13 254.056C507.574 253.907 508.054 254.144 508.204 254.586C513.268 269.506 515.837 285.133 515.837 301.035C515.836 301.504 515.457 301.882 514.989 301.882Z" fill="#3499FF" fill-opacity="0.6"/>
<path d="M504.405 247.685C504.071 247.685 503.755 247.487 503.621 247.158C493.542 222.452 476.747 201.087 455.051 185.373C454.673 185.099 454.588 184.57 454.862 184.191C455.135 183.812 455.664 183.728 456.044 184.002C477.996 199.902 494.989 221.52 505.188 246.519C505.365 246.952 505.157 247.447 504.724 247.623C504.62 247.664 504.512 247.685 504.405 247.685Z" fill="#3499FF" fill-opacity="0.6"/>
<path d="M446.658 179.887C446.498 179.887 446.337 179.847 446.191 179.763C422.552 166.091 395.255 158.863 367.253 158.863C354.633 158.863 342.094 160.325 329.986 163.208C329.515 163.32 329.029 163.057 328.907 162.617C328.785 162.178 329.071 161.731 329.545 161.617C341.797 158.7 354.484 157.22 367.253 157.22C395.587 157.22 423.208 164.533 447.129 178.368C447.544 178.609 447.67 179.115 447.411 179.499C447.244 179.75 446.954 179.887 446.658 179.887Z" fill="#3499FF" fill-opacity="0.6"/>
<path d="M308.297 172.902C307.984 172.902 307.682 172.727 307.536 172.428C307.33 172.008 307.503 171.501 307.923 171.295C312.336 169.131 316.908 167.175 321.51 165.479C321.948 165.319 322.435 165.542 322.597 165.981C322.758 166.421 322.534 166.907 322.095 167.068C317.547 168.744 313.029 170.677 308.669 172.815C308.549 172.874 308.421 172.902 308.297 172.902Z" fill="#3499FF" fill-opacity="0.6"/>
<path d="M227.858 301.882C227.39 301.882 227.012 301.504 227.012 301.036C227.012 275.392 233.82 250.204 246.7 228.195C259.201 206.835 277.091 188.923 298.438 176.397C298.841 176.16 299.359 176.295 299.596 176.698C299.832 177.102 299.697 177.62 299.294 177.857C255.753 203.41 228.705 250.609 228.705 301.037C228.705 301.504 228.326 301.882 227.858 301.882Z" fill="#3499FF" fill-opacity="0.6"/>
</g>
<g opacity="0.3">
<path d="M212.697 294.739C211.997 294.739 211.428 294.17 211.428 293.469C211.428 270.963 216.008 249.201 225.042 228.787C233.77 209.067 246.204 191.557 262.001 176.743C267.688 171.41 273.814 166.453 280.207 162.008C280.783 161.608 281.574 161.749 281.974 162.327C282.374 162.902 282.232 163.694 281.657 164.093C275.364 168.467 269.336 173.346 263.739 178.595C232.108 208.256 213.967 250.126 213.967 293.469C213.967 294.17 213.398 294.739 212.697 294.739Z" fill="#00FFEB"/>
<path d="M530.137 294.738C529.437 294.738 528.868 294.17 528.868 293.469C528.868 275.495 525.864 257.865 519.94 241.073C519.707 240.412 520.054 239.687 520.715 239.453C521.375 239.224 522.102 239.566 522.335 240.228C528.355 257.293 531.407 275.206 531.407 293.47C531.407 294.17 530.838 294.738 530.137 294.738Z" fill="#00FFEB"/>
<path d="M517.708 233.059C517.212 233.059 516.742 232.768 516.537 232.283C504.161 202.966 483.438 178.328 456.606 161.033C456.017 160.653 455.846 159.867 456.226 159.278C456.607 158.687 457.396 158.52 457.981 158.899C485.244 176.472 506.301 201.506 518.876 231.297C519.148 231.943 518.846 232.688 518.199 232.96C518.039 233.027 517.872 233.059 517.708 233.059Z" fill="#00FFEB"/>
<path d="M291.355 157.666C290.919 157.666 290.494 157.44 290.258 157.037C289.904 156.432 290.107 155.654 290.712 155.3C315.099 141.026 343.007 133.48 371.423 133.48C395.09 133.48 417.875 138.526 439.146 148.479C439.781 148.776 440.055 149.532 439.758 150.167C439.461 150.803 438.707 151.076 438.07 150.779C417.139 140.985 394.715 136.02 371.423 136.02C343.458 136.02 315.993 143.444 291.996 157.492C291.794 157.61 291.573 157.666 291.355 157.666Z" fill="#00FFEB"/>
<path d="M184.923 294.554C184.162 294.554 183.545 293.973 183.545 293.258C183.545 217.083 231.458 148.027 305.611 117.33C306.31 117.042 307.122 117.34 307.428 117.994C307.735 118.649 307.418 119.415 306.721 119.703C233.568 149.986 186.301 218.111 186.301 293.258C186.301 293.973 185.684 294.554 184.923 294.554Z" fill="#00FFEB"/>
<path d="M558.392 294.739C557.691 294.739 557.122 294.17 557.122 293.469C557.122 234.923 529.009 179.123 481.92 144.207C481.357 143.788 481.238 142.994 481.656 142.43C482.075 141.866 482.869 141.748 483.433 142.166C506.566 159.319 525.743 181.886 538.891 207.426C552.673 234.197 559.662 263.147 559.662 293.468C559.661 294.17 559.092 294.739 558.392 294.739Z" fill="#00FFEB"/>
<path d="M471.537 136.802C471.304 136.802 471.068 136.739 470.856 136.604C467.042 134.182 463.095 131.873 459.127 129.742C458.509 129.411 458.276 128.641 458.609 128.023C458.941 127.405 459.713 127.175 460.327 127.505C464.351 129.665 468.351 132.005 472.219 134.461C472.811 134.837 472.985 135.621 472.61 136.213C472.367 136.594 471.957 136.802 471.537 136.802Z" fill="#00FFEB"/>
<path d="M451.63 125.22C451.45 125.22 451.268 125.179 451.095 125.092C426.582 112.775 400.289 106.529 372.946 106.529C352.949 106.529 333.294 109.931 314.526 116.641C313.874 116.875 313.165 116.503 312.945 115.812C312.724 115.121 313.075 114.372 313.728 114.138C332.754 107.336 352.677 103.887 372.946 103.887C400.662 103.887 427.315 110.218 452.166 122.705C452.789 123.018 453.053 123.806 452.759 124.465C452.545 124.941 452.097 125.22 451.63 125.22Z" fill="#00FFEB"/>
<path d="M589.709 294.739C589.008 294.739 588.439 294.171 588.439 293.47C588.439 269.57 584.58 246.085 576.97 223.668C576.744 223.004 577.1 222.283 577.764 222.057C578.428 221.832 579.149 222.188 579.374 222.851C587.074 245.533 590.978 269.292 590.978 293.47C590.978 294.171 590.41 294.739 589.709 294.739Z" fill="#00FFEB"/>
<path d="M574.157 213.22C573.609 213.22 573.091 212.904 572.87 212.384C556.112 172.638 528.188 138.267 492.119 112.985C491.498 112.55 491.359 111.71 491.809 111.109C492.258 110.507 493.128 110.375 493.748 110.809C530.239 136.385 558.487 171.159 575.442 211.369C575.731 212.056 575.391 212.84 574.681 213.12C574.508 213.187 574.331 213.22 574.157 213.22Z" fill="#00FFEB"/>
<path d="M486.82 109.411C486.591 109.411 486.358 109.349 486.149 109.218C451.793 87.7812 412.122 76.4507 371.425 76.4507C353.082 76.4507 334.859 78.743 317.262 83.2634C316.582 83.4394 315.89 83.028 315.716 82.35C315.542 81.6711 315.95 80.9786 316.63 80.8043C334.433 76.2306 352.869 73.9111 371.425 73.9111C412.599 73.9111 452.734 85.3754 487.493 107.065C488.088 107.435 488.269 108.219 487.898 108.814C487.657 109.2 487.243 109.411 486.82 109.411Z" fill="#00FFEB"/>
<path d="M275.435 98.6297C274.966 98.6297 274.515 98.3682 274.294 97.9187C273.985 97.2889 274.245 96.5278 274.875 96.2197C281.579 92.9319 288.529 89.9572 295.531 87.3779C296.189 87.1367 296.92 87.4727 297.161 88.1305C297.404 88.7882 297.067 89.5188 296.408 89.7609C289.487 92.3097 282.619 95.2496 275.992 98.4994C275.815 98.5882 275.623 98.6297 275.435 98.6297Z" fill="#00FFEB"/>
<path d="M153.133 294.739C152.432 294.739 151.863 294.17 151.863 293.469C151.863 254.48 162.214 216.188 181.796 182.728C200.802 150.253 228.001 123.021 260.454 103.976C261.058 103.622 261.837 103.823 262.192 104.428C262.547 105.033 262.345 105.812 261.739 106.166C195.532 145.021 154.403 216.791 154.403 293.469C154.403 294.17 153.834 294.739 153.133 294.739Z" fill="#00FFEB"/>
</g>
<path d="M424.41 347.581C422.968 348.266 421.411 348.663 419.815 348.738C416.846 348.878 414.109 347.881 412.11 345.932L405.702 339.686C399.401 343.946 392.544 346.982 385.286 348.725L384.841 358.023C384.702 360.913 383.418 363.683 381.228 365.825C379.033 367.97 376.188 369.232 373.217 369.371C367.094 369.658 362.344 365.037 362.629 359.068L363.074 349.768C355.946 348.703 349.349 346.3 343.432 342.614L336.394 349.491C334.197 351.639 331.355 352.897 328.384 353.036C325.415 353.176 322.677 352.179 320.678 350.231C316.558 346.214 316.887 339.352 321.41 334.931L328.464 328.036C324.671 322.259 322.194 315.816 321.093 308.855L311.584 309.304C305.462 309.591 300.711 304.969 300.995 298.999C301.134 296.109 302.418 293.339 304.61 291.196C306.804 289.052 309.649 287.789 312.62 287.65L322.131 287.203C323.904 280.107 327.01 273.402 331.375 267.242L324.95 260.981C320.83 256.965 321.159 250.103 325.682 245.681C327.88 243.532 330.723 242.275 333.691 242.136C336.661 241.994 339.398 242.991 341.399 244.94L347.807 251.186C354.103 246.927 360.962 243.889 368.224 242.148L368.668 232.849C368.955 226.881 374.17 221.788 380.292 221.502C383.261 221.362 385.998 222.358 387.999 224.306C389.995 226.253 391.019 228.915 390.881 231.803L390.435 241.102C397.559 242.167 404.158 244.569 410.078 248.257L417.114 241.38C419.311 239.231 422.153 237.973 425.124 237.834C428.094 237.694 430.832 238.69 432.831 240.639C436.95 244.655 436.622 251.518 432.098 255.937L425.045 262.833C428.838 268.611 431.314 275.054 432.416 282.014L441.925 281.567C448.049 281.278 452.799 285.9 452.515 291.869C452.227 297.839 447.014 302.931 440.889 303.216L431.381 303.665C429.606 310.762 426.499 317.467 422.136 323.625L428.561 329.887C432.68 333.903 432.351 340.766 427.829 345.186C426.811 346.187 425.655 346.99 424.41 347.581ZM406.188 336.27L414.123 344.003C415.633 345.478 417.701 346.23 419.94 346.124C422.181 346.022 424.331 345.067 425.988 343.447C429.425 340.088 429.674 334.872 426.544 331.822L418.626 324.103L419.303 323.183C424.013 316.78 427.274 309.738 428.995 302.251L429.245 301.163L441.013 300.608C445.641 300.395 449.584 296.53 449.805 292.002C450.022 287.474 446.429 283.967 441.799 284.186L430.03 284.738L429.884 283.668C428.876 276.311 426.276 269.544 422.157 263.555L421.564 262.694L430.258 254.197C433.694 250.837 433.944 245.622 430.814 242.571C429.303 241.097 427.235 240.345 424.997 240.45C422.757 240.554 420.61 241.51 418.949 243.129L410.237 251.646L409.329 251.055C403.189 247.045 396.256 244.518 388.724 243.546L387.62 243.404L388.169 231.934C388.275 229.737 387.498 227.714 385.982 226.237C384.471 224.765 382.404 224.01 380.165 224.117C375.534 224.331 371.59 228.196 371.373 232.724L370.826 244.194L369.704 244.441C362.04 246.128 354.836 249.317 348.285 253.924L347.317 254.604L339.383 246.871C337.871 245.397 335.804 244.644 333.564 244.75C331.326 244.855 329.178 245.807 327.518 247.428C324.08 250.788 323.83 256.003 326.962 259.054L334.879 266.772L334.203 267.692C329.49 274.097 326.23 281.14 324.511 288.625L324.261 289.712L312.492 290.266C310.25 290.37 308.104 291.322 306.443 292.945C304.781 294.571 303.806 296.676 303.701 298.872C303.484 303.4 307.076 306.909 311.706 306.691L323.475 306.136L323.621 307.207C324.629 314.563 327.229 321.33 331.348 327.32L331.94 328.18L323.246 336.677C319.808 340.037 319.558 345.252 322.69 348.303C324.201 349.778 326.267 350.531 328.506 350.425C330.749 350.319 332.897 349.365 334.554 347.747L343.267 339.229L344.175 339.82C350.31 343.83 357.244 346.355 364.78 347.327L365.883 347.469L365.335 358.941C365.117 363.469 368.707 366.976 373.339 366.759C375.582 366.653 377.729 365.701 379.387 364.079C381.051 362.452 382.025 360.347 382.129 358.151L382.679 346.68L383.802 346.434C391.462 344.746 398.668 341.553 405.219 336.949L406.188 336.27ZM391.764 331.248C386.535 333.731 380.803 335.246 374.835 335.527C363.856 336.042 353.738 332.356 346.34 325.145C338.945 317.938 335.155 308.074 335.667 297.37C336.18 286.664 340.933 276.399 349.053 268.463C357.174 260.523 367.695 255.868 378.671 255.349C401.325 254.284 418.894 271.399 417.839 293.505C417.059 309.788 406.386 324.304 391.764 331.248ZM362.697 261.957C358.401 263.997 354.406 266.774 350.89 270.21C343.3 277.631 338.856 287.232 338.378 297.244C337.898 307.257 341.442 316.482 348.355 323.218C355.265 329.952 364.714 333.395 374.961 332.914C396.126 331.921 414.143 314.296 415.13 293.635C416.119 272.971 399.708 256.968 378.547 257.965C373.049 258.222 367.671 259.595 362.697 261.957Z" fill="#6B8BBA" fill-opacity="0.6"/>
<path d="M296.646 385.599C294.75 386.499 292.68 386.675 290.801 386.093C288.884 385.5 287.399 384.188 286.617 382.401L284.403 377.346C279.84 378.596 275.239 379.023 270.694 378.617L268.402 384.109C267.595 386.038 266.095 387.621 264.174 388.567C262.203 389.574 260.13 389.712 258.213 389.118C256.296 388.526 254.809 387.214 254.026 385.426C253.246 383.644 253.26 381.601 254.064 379.673L256.358 374.18C252.554 372.001 249.323 369.15 246.73 365.688L241.283 368.371C239.373 369.27 237.239 369.515 235.32 368.923C233.403 368.329 231.918 367.017 231.136 365.231C229.526 361.553 231.439 356.971 235.401 355.017L240.871 352.321C240.044 347.98 240.074 343.513 240.961 339.015L235.541 337.338C233.624 336.744 232.137 335.433 231.354 333.645C230.574 331.862 230.588 329.818 231.393 327.89C232.197 325.962 233.699 324.379 235.62 323.432C237.604 322.481 239.664 322.288 241.581 322.881L247 324.558C249.643 320.603 252.925 317.143 256.775 314.247L254.553 309.171C252.943 305.492 254.857 300.912 258.82 298.958C260.776 298.028 262.863 297.815 264.78 298.408C266.698 299 268.184 300.313 268.967 302.1L271.181 307.154C275.742 305.905 280.344 305.479 284.889 305.884L287.181 300.392L287.181 300.393C287.986 298.463 289.488 296.879 291.409 295.933C293.329 294.953 295.451 294.788 297.371 295.38C301.323 296.605 303.182 300.842 301.519 304.828L299.225 310.32C303.031 312.501 306.262 315.352 308.854 318.814L314.3 316.129C316.28 315.207 318.346 314.985 320.261 315.578C322.179 316.17 323.665 317.483 324.448 319.271C326.06 322.948 324.145 327.53 320.181 329.484L314.713 332.178C315.539 336.522 315.51 340.988 314.623 345.486L320.042 347.162C323.995 348.387 325.854 352.625 324.19 356.611C323.386 358.539 321.884 360.122 319.963 361.068C318.056 362.029 315.921 362.214 314.002 361.619L308.584 359.943C305.938 363.898 302.657 367.359 298.807 370.254L301.031 375.328C302.641 379.008 300.727 383.588 296.764 385.542C296.725 385.56 296.686 385.58 296.646 385.599ZM269.059 375.772L270.164 375.903C275.056 376.488 280.029 376.026 284.944 374.531L286.064 374.191L289.129 381.196C289.639 382.358 290.603 383.21 291.846 383.595C293.064 383.973 294.409 383.859 295.642 383.273C295.668 383.261 295.694 383.247 295.72 383.235C298.319 381.954 299.575 378.948 298.519 376.536L295.461 369.554L296.402 368.885C300.65 365.863 304.193 362.125 306.933 357.778L307.546 356.803L315.046 359.123C316.291 359.508 317.669 359.409 318.918 358.764C320.176 358.144 321.159 357.105 321.688 355.84C322.778 353.232 321.571 350.462 318.998 349.665L311.498 347.346L311.747 346.257C312.851 341.405 312.885 336.581 311.846 331.921L311.617 330.888L319.139 327.18C321.739 325.899 322.994 322.895 321.937 320.482C321.428 319.32 320.463 318.466 319.22 318.08C318.003 317.703 316.658 317.818 315.426 318.403C315.398 318.416 315.374 318.429 315.347 318.441L307.802 322.162L307.191 321.285C304.509 317.441 301.017 314.359 296.811 312.126L295.86 311.621L299.018 304.06C300.108 301.452 298.901 298.681 296.328 297.887C295.085 297.501 293.705 297.564 292.457 298.247C291.199 298.866 290.215 299.905 289.686 301.17L289.687 301.171L286.527 308.732L285.422 308.601C280.53 308.018 275.557 308.478 270.644 309.973L269.524 310.313L266.457 303.31C265.948 302.147 264.983 301.293 263.739 300.908C262.523 300.531 261.178 300.645 259.946 301.23C259.919 301.243 259.893 301.257 259.867 301.269C257.268 302.55 256.012 305.556 257.069 307.967L260.125 314.95L259.184 315.62C254.936 318.642 251.393 322.379 248.654 326.728L248.04 327.702L240.538 325.381C239.296 324.996 237.925 325.116 236.668 325.741C235.411 326.362 234.427 327.399 233.898 328.664C233.368 329.932 233.358 331.272 233.871 332.44C234.379 333.603 235.344 334.454 236.587 334.84L244.089 337.161L243.84 338.249C242.736 343.103 242.702 347.928 243.741 352.585L243.97 353.617L236.446 357.326C233.848 358.607 232.592 361.614 233.648 364.025C234.158 365.188 235.122 366.039 236.365 366.425C237.607 366.811 238.96 366.666 240.238 366.065L247.782 362.347L248.393 363.222C251.078 367.067 254.571 370.148 258.774 372.381L259.723 372.886L256.565 380.448C256.035 381.714 256.025 383.055 256.537 384.222C257.045 385.386 258.011 386.238 259.254 386.622C260.497 387.008 261.86 386.911 263.125 386.262C264.384 385.643 265.367 384.605 265.897 383.338L269.059 375.772ZM287.744 366.109C281.045 369.29 273.732 369.912 267.094 367.859C253.112 363.531 246.535 348.522 252.432 334.402C255.289 327.566 260.611 321.953 267.418 318.597C274.265 315.198 281.714 314.546 288.489 316.642C295.265 318.74 300.523 323.377 303.29 329.699C306.057 336.017 306.008 343.261 303.15 350.1C300.295 356.937 294.973 362.55 288.165 365.904C288.027 365.973 287.886 366.041 287.744 366.109ZM268.843 320.72C268.716 320.78 268.59 320.841 268.463 320.905C262.319 323.933 257.513 329.002 254.935 335.178C249.611 347.92 255.533 361.46 268.137 365.361C274.239 367.251 280.958 366.597 287.121 363.599C293.264 360.571 298.068 355.503 300.648 349.325L300.649 349.325C303.23 343.151 303.275 336.607 300.778 330.906C298.284 325.208 293.548 321.031 287.446 319.142C281.469 317.291 274.879 317.853 268.843 320.72Z" fill="#6B8BBA" fill-opacity="0.6"/>
<path d="M194.784 170.658C194.784 173.328 192.62 175.493 189.95 175.493C187.28 175.493 185.115 173.328 185.115 170.658C185.115 167.988 187.28 165.824 189.95 165.824C192.62 165.824 194.784 167.988 194.784 170.658Z" fill="#30D5C8"/>
<path d="M358.879 42.5537V90.5537H270.879V123.887V187.887H212.879V259.22" stroke="#6B8BBA" stroke-width="2.66667"/>
<path d="M358.879 90.5537L457.546 90.5537V153.22H516.212V245.887H542.418V307.871" stroke="#6B8BBA" stroke-width="2.66667"/>
<path d="M287.668 241.163C287.668 242.612 286.493 243.788 285.043 243.788C283.593 243.788 282.418 242.613 282.418 241.163C282.418 239.714 283.593 238.538 285.043 238.538C286.493 238.538 287.668 239.713 287.668 241.163Z" fill="#3499FF"/>
<path d="M309.751 94.5379C312.328 94.5379 314.417 92.4486 314.417 89.8713C314.417 87.2939 312.328 85.2046 309.751 85.2046C307.173 85.2046 305.084 87.2939 305.084 89.8713C305.084 92.4486 307.173 94.5379 309.751 94.5379Z" fill="#3499FF"/>
<path d="M542.496 221.943C543.946 221.943 545.121 220.768 545.121 219.318C545.121 217.868 543.946 216.693 542.496 216.693C541.046 216.693 539.871 217.868 539.871 219.318C539.871 220.768 541.046 221.943 542.496 221.943Z" fill="#30D5C8"/>
<path d="M594.212 273.246C594.212 275.915 592.047 278.08 589.377 278.08C586.707 278.08 584.543 275.915 584.543 273.246C584.543 270.576 586.707 268.411 589.377 268.411C592.047 268.411 594.212 270.576 594.212 273.246Z" fill="#30D5C8"/>
<path d="M405.084 181.205C405.084 183.414 403.293 185.205 401.084 185.205C398.875 185.205 397.084 183.414 397.084 181.205C397.084 178.996 398.875 177.205 401.084 177.205C403.293 177.205 405.084 178.996 405.084 181.205Z" fill="#30D5C8"/>
<path d="M511.829 207.073L473.124 193.858C472.682 193.707 472.445 193.225 472.596 192.783L490.647 139.916C490.798 139.474 491.28 139.237 491.722 139.388L530.426 152.603C530.869 152.755 531.106 153.236 530.954 153.679L512.904 206.545C512.753 206.987 512.271 207.224 511.829 207.073Z" fill="#30D5C8"/>
<path d="M512.102 207.923C511.926 207.923 511.746 207.894 511.571 207.834L472.867 194.619C472.45 194.477 472.112 194.181 471.918 193.785C471.724 193.389 471.695 192.94 471.837 192.523L489.888 139.657C490.031 139.239 490.327 138.903 490.724 138.708C491.119 138.514 491.567 138.485 491.985 138.628L530.688 151.843C531.105 151.985 531.442 152.282 531.637 152.678C531.831 153.074 531.86 153.522 531.717 153.939L513.667 206.805C513.432 207.49 512.789 207.923 512.102 207.923ZM491.454 140.148C491.436 140.148 491.415 140.161 491.41 140.177L473.359 193.043C473.352 193.062 473.367 193.091 473.386 193.097L512.09 206.312H512.091C512.109 206.318 512.138 206.305 512.145 206.286L530.195 153.419C530.202 153.4 530.187 153.371 530.168 153.365L491.465 140.15C491.461 140.149 491.457 140.148 491.454 140.148Z" fill="#233863"/>
<path d="M519.863 203.549L479.096 200.284C478.63 200.246 478.282 199.838 478.319 199.372L482.779 143.687C482.817 143.221 483.225 142.873 483.691 142.91L524.459 146.176C524.925 146.213 525.273 146.622 525.235 147.088L520.775 202.772C520.738 203.239 520.329 203.586 519.863 203.549Z" fill="#D4ECFF"/>
<path d="M519.93 204.355C519.885 204.355 519.84 204.354 519.795 204.35L479.027 201.085C478.588 201.049 478.189 200.845 477.902 200.51C477.616 200.174 477.478 199.746 477.513 199.307L481.973 143.623C482.046 142.715 482.844 142.036 483.751 142.109L524.518 145.374C525.425 145.447 526.104 146.244 526.031 147.151L521.571 202.836C521.536 203.276 521.332 203.676 520.996 203.962C520.696 204.218 520.321 204.355 519.93 204.355ZM483.62 143.711C483.597 143.711 483.579 143.729 483.576 143.752L479.117 199.435C479.115 199.456 479.136 199.48 479.157 199.482L519.924 202.747C519.949 202.743 519.969 202.728 519.97 202.708L524.43 147.023C524.432 147 524.415 146.979 524.391 146.977L483.623 143.711C483.622 143.711 483.621 143.711 483.62 143.711Z" fill="#233863"/>
<path d="M518.481 155.559C518.467 155.559 518.452 155.559 518.437 155.558L508.11 154.73C507.815 154.707 507.595 154.448 507.619 154.153C507.643 153.858 507.892 153.637 508.196 153.661L518.523 154.489C518.818 154.513 519.038 154.771 519.015 155.066C518.992 155.347 518.758 155.559 518.481 155.559Z" fill="#30D5C8"/>
<path d="M518.222 158.858C518.208 158.858 518.193 158.858 518.178 158.857L507.851 158.03C507.556 158.006 507.336 157.748 507.359 157.452C507.383 157.158 507.638 156.936 507.936 156.961L518.264 157.788C518.559 157.812 518.779 158.07 518.755 158.366C518.733 158.645 518.499 158.858 518.222 158.858Z" fill="#30D5C8"/>
<path d="M494.042 194.331C494.028 194.331 494.013 194.331 493.998 194.33L483.671 193.502C483.376 193.479 483.156 193.22 483.179 192.925C483.203 192.63 483.461 192.409 483.757 192.434L494.084 193.261C494.379 193.284 494.599 193.542 494.576 193.838C494.553 194.119 494.318 194.331 494.042 194.331Z" fill="#30D5C8"/>
<path d="M494.49 176.387C494.476 176.387 494.461 176.386 494.447 176.385L485.265 175.65C484.97 175.626 484.75 175.368 484.773 175.072C484.797 174.778 485.051 174.554 485.35 174.581L494.533 175.317C494.827 175.34 495.048 175.599 495.024 175.894C495.002 176.174 494.767 176.387 494.49 176.387Z" fill="#233863"/>
<path d="M500.121 189.156C500.107 189.156 500.092 189.155 500.077 189.154L484.286 187.89C483.991 187.866 483.771 187.608 483.795 187.313C483.819 187.018 484.072 186.794 484.372 186.822L500.163 188.086C500.458 188.11 500.678 188.368 500.654 188.663C500.632 188.943 500.398 189.156 500.121 189.156Z" fill="#233863"/>
<path d="M496.777 182.728C496.763 182.728 496.748 182.728 496.733 182.727L484.778 181.769C484.484 181.745 484.263 181.487 484.287 181.192C484.31 180.897 484.56 180.676 484.864 180.7L496.819 181.658C497.114 181.681 497.334 181.94 497.31 182.235C497.288 182.515 497.054 182.728 496.777 182.728Z" fill="#233863"/>
<path d="M516.631 172.497C516.617 172.497 516.602 172.497 516.588 172.496L485.671 170.019C485.376 169.996 485.156 169.738 485.179 169.442C485.203 169.147 485.453 168.922 485.757 168.951L516.673 171.427C516.968 171.451 517.188 171.709 517.165 172.004C517.142 172.285 516.908 172.497 516.631 172.497Z" fill="#233863"/>
<path d="M515.362 184.168C515.348 184.168 515.333 184.167 515.318 184.166L500.546 182.983C500.251 182.959 500.031 182.701 500.054 182.406C500.078 182.111 500.329 181.888 500.632 181.914L515.404 183.098C515.699 183.121 515.919 183.38 515.896 183.675C515.873 183.955 515.639 184.168 515.362 184.168Z" fill="#233863"/>
<path d="M516.87 178.178C516.855 178.178 516.84 178.178 516.825 178.177L497.879 176.578C497.584 176.553 497.365 176.294 497.391 175.999C497.416 175.703 497.677 175.489 497.97 175.509L516.915 177.108C517.21 177.133 517.429 177.392 517.404 177.687C517.38 177.967 517.146 178.178 516.87 178.178Z" fill="#233863"/>
<path d="M377.428 53.7998L334.589 58.1469C332.555 58.3527 330.965 57.0126 331.037 55.1537L332.234 24.0288C332.305 22.1692 334.011 20.4944 336.045 20.2886L378.884 15.9415C380.918 15.7346 382.508 17.0746 382.436 18.9347L381.239 50.0596C381.168 51.918 379.462 53.5928 377.428 53.7998Z" fill="#30D5C8"/>
<path d="M378.714 55.4847C378.279 55.6222 377.828 55.717 377.366 55.7636L377.365 55.764L334.51 60.1133C331.301 60.4385 328.78 58.3163 328.893 55.379L330.091 24.237C330.204 21.3022 332.914 18.6462 336.117 18.3216L378.973 13.9718C382.182 13.6466 384.702 15.7705 384.591 18.7061L383.391 49.8474C383.295 52.3606 381.301 54.6673 378.714 55.4847ZM377.514 51.8511C378.374 51.7621 379.083 51.0601 379.112 50.2828L380.312 19.1415C380.342 18.3625 379.673 17.7993 378.821 17.8869L335.967 22.2362C335.117 22.3167 334.398 23.0272 334.368 23.8062L333.17 54.9453C333.14 55.7243 333.809 56.2863 334.659 56.2004L377.514 51.8511Z" fill="#233863"/>
<path d="M354.952 44.8324C354.72 44.9031 354.48 44.9516 354.238 44.9785C353.35 45.0735 352.52 44.8453 351.898 44.3364L345.21 38.8375C344.402 38.1715 344.419 36.9553 345.248 36.1206C346.076 35.2888 347.406 35.1489 348.218 35.8141L354.278 40.798L368.992 25.8521C369.813 25.0135 371.145 24.8678 371.961 25.5301C372.775 26.1905 372.765 27.4057 371.94 28.2445L356.592 43.8361C356.136 44.302 355.567 44.6444 354.952 44.8324Z" fill="#D4ECFF"/>
<rect x="431.75" y="109.205" width="34.6667" height="25.3333" fill="#080C26"/>
<path fill-rule="evenodd" clip-rule="evenodd" d="M433.306 102.039C432.216 102.039 431.17 102.472 430.399 103.243C429.628 104.014 429.195 105.059 429.195 106.15V134.927C429.195 136.018 429.628 137.063 430.399 137.834C431.17 138.605 432.216 139.039 433.306 139.039H466.195C467.286 139.039 468.331 138.605 469.102 137.834C469.873 137.063 470.306 136.018 470.306 134.927V106.15C470.306 105.059 469.873 104.014 469.102 103.243C468.331 102.472 467.286 102.039 466.195 102.039H433.306ZM442.813 113.611C442.859 113.218 442.996 112.841 443.213 112.511C443.43 112.18 443.722 111.905 444.064 111.707C444.406 111.508 444.79 111.393 445.185 111.37C445.58 111.347 445.975 111.416 446.339 111.572C447.375 112.016 449.562 113.015 452.333 114.614C454.28 115.727 456.161 116.953 457.965 118.286C458.282 118.522 458.54 118.829 458.717 119.182C458.895 119.535 458.987 119.925 458.987 120.321C458.987 120.716 458.895 121.106 458.717 121.459C458.54 121.813 458.282 122.12 457.965 122.356C456.16 123.687 454.28 124.911 452.333 126.023C450.396 127.154 448.394 128.171 446.339 129.069C445.975 129.226 445.58 129.296 445.185 129.273C444.79 129.249 444.406 129.134 444.063 128.936C443.721 128.738 443.429 128.462 443.212 128.131C442.995 127.8 442.859 127.423 442.813 127.03C442.567 124.802 442.446 122.562 442.452 120.321C442.452 117.133 442.682 114.732 442.813 113.611Z" fill="#75BAFF"/>
<rect x="527.75" y="253.205" width="44" height="32" fill="#080C26"/>
<mask id="mask0_177_8751" style="mask-type:luminance" maskUnits="userSpaceOnUse" x="527" y="252" width="46" height="38">
<path d="M568.249 254.76H531.249C530.114 254.76 529.193 255.68 529.193 256.815V285.593C529.193 286.728 530.114 287.649 531.249 287.649H568.249C569.384 287.649 570.304 286.728 570.304 285.593V256.815C570.304 255.68 569.384 254.76 568.249 254.76Z" fill="white" stroke="white" stroke-width="4.11111" stroke-linecap="round" stroke-linejoin="round"/>
<path d="M557.972 272.232V279.426M549.75 262.982V279.426M541.527 267.093V279.426" stroke="black" stroke-width="4.11111" stroke-linecap="round" stroke-linejoin="round"/>
</mask>
<g mask="url(#mask0_177_8751)">
<path d="M525.082 246.538H574.415V295.871H525.082V246.538Z" fill="#30D5C8"/>
</g>
<g clip-path="url(#clip0_177_8751)">
<path d="M234.092 180.463L224.257 177.827C223.832 177.712 223.389 177.682 222.953 177.739C222.517 177.796 222.096 177.939 221.715 178.159L204.871 187.884C204.106 188.326 203.547 189.054 203.318 189.908C203.089 190.762 203.209 191.672 203.651 192.438L220.318 221.305C220.76 222.071 221.488 222.629 222.342 222.858C223.196 223.087 224.106 222.967 224.871 222.525L247.965 209.192C248.731 208.75 249.289 208.022 249.518 207.168C249.747 206.314 249.627 205.404 249.185 204.638L236.127 182.021C235.907 181.64 235.614 181.306 235.265 181.038C234.916 180.771 234.517 180.575 234.092 180.463ZM235.982 199.271C236.345 199.899 236.513 200.62 236.466 201.344C236.418 202.067 236.158 202.761 235.716 203.336C235.275 203.911 234.672 204.343 233.986 204.576C233.299 204.809 232.559 204.833 231.858 204.646C231.158 204.458 230.528 204.067 230.05 203.522C229.572 202.976 229.266 202.302 229.172 201.583C229.077 200.864 229.198 200.133 229.519 199.482C229.839 198.832 230.346 198.291 230.974 197.929C231.075 197.87 231.262 197.762 231.162 197.589L229.054 193.937C229 193.852 228.917 193.79 228.82 193.764C228.747 193.778 228.681 193.817 228.632 193.873L223.785 199.211L223.612 199.311C223.554 199.363 223.515 199.433 223.504 199.511C223.492 199.588 223.508 199.666 223.548 199.733L228.465 208.249C228.826 208.881 228.99 209.607 228.937 210.333C228.885 211.059 228.617 211.753 228.168 212.326C227.72 212.9 227.111 213.327 226.419 213.553C225.727 213.779 224.983 213.794 224.283 213.596C223.582 213.397 222.956 212.995 222.485 212.44C222.014 211.885 221.719 211.203 221.637 210.479C221.555 209.756 221.69 209.025 222.026 208.378C222.361 207.732 222.881 207.201 223.52 206.851C223.621 206.793 223.808 206.684 223.717 206.525L220.725 201.344C220.309 200.634 220.143 199.804 220.256 198.989C220.368 198.174 220.751 197.42 221.344 196.849L226.188 191.473L226.361 191.373C226.771 191.02 227.254 190.762 227.775 190.618C228.296 190.473 228.842 190.446 229.375 190.537C229.908 190.629 230.414 190.837 230.857 191.147C231.3 191.457 231.668 191.861 231.937 192.33L235.982 199.271Z" fill="#30D5C8"/>
</g>
<g clip-path="url(#clip1_177_8751)">
<rect x="248.006" y="128.208" width="44" height="29.3333" transform="rotate(-4.24253 248.006 128.208)" fill="#080C26"/>
<path d="M264.368 134.64C264.458 135.863 264.059 137.072 263.259 138.002C262.458 138.931 261.321 139.504 260.097 139.594C258.874 139.685 257.665 139.286 256.736 138.485C255.807 137.685 255.234 136.548 255.143 135.324C255.052 134.101 255.451 132.892 256.252 131.963C257.053 131.033 258.19 130.461 259.413 130.37C260.636 130.279 261.846 130.678 262.775 131.479C263.704 132.28 264.277 133.417 264.368 134.64Z" fill="#CDDAED"/>
<path d="M249.726 124.905C248.502 124.996 247.365 125.569 246.564 126.498C245.764 127.427 245.365 128.636 245.455 129.859L247.508 157.533C247.599 158.757 248.172 159.894 249.101 160.695C250.03 161.495 251.24 161.894 252.463 161.804L292.436 158.838C293.66 158.747 294.797 158.175 295.598 157.245C296.398 156.316 296.797 155.107 296.706 153.884L294.654 126.21C294.563 124.987 293.99 123.849 293.061 123.049C292.132 122.248 290.922 121.849 289.699 121.94L249.726 124.905ZM289.927 125.015C290.335 124.984 290.738 125.117 291.048 125.384C291.357 125.651 291.548 126.03 291.579 126.438L292.947 144.887L280.896 139.761C280.596 139.638 280.266 139.613 279.952 139.687C279.637 139.762 279.354 139.934 279.143 140.179L268.581 152.433L259.998 147.591C259.688 147.416 259.327 147.354 258.976 147.415C258.626 147.476 258.307 147.656 258.075 147.926L250.475 155.767L250.598 157.428L250.583 157.305L248.53 129.631C248.5 129.224 248.633 128.82 248.9 128.511C249.167 128.201 249.546 128.01 249.954 127.98L289.927 125.015Z" fill="#CDDAED"/>
</g>
<g clip-path="url(#clip2_177_8751)">
<path d="M210.325 287.722C210.757 287.468 211.229 287.223 211.741 286.989C211.308 287.633 210.845 288.256 210.353 288.857C209.49 289.896 208.818 290.448 208.395 290.621L208.287 290.658C208.257 290.615 208.23 290.569 208.207 290.522C208.034 290.183 208.041 289.856 208.33 289.412C208.657 288.903 209.314 288.321 210.325 287.722ZM217.895 282.644C217.529 282.72 217.163 282.8 216.797 282.885C217.341 281.82 217.855 280.74 218.339 279.647C218.826 280.55 219.351 281.433 219.911 282.293C219.241 282.391 218.569 282.508 217.895 282.644ZM225.68 285.539C225.202 285.152 224.754 284.729 224.339 284.275C225.046 284.29 225.675 284.345 226.226 284.442C227.203 284.617 227.663 284.895 227.823 285.086C227.872 285.14 227.901 285.21 227.903 285.283C227.892 285.501 227.829 285.712 227.718 285.9C227.657 286.051 227.557 286.183 227.429 286.282C227.366 286.323 227.29 286.34 227.216 286.329C226.938 286.319 226.42 286.125 225.68 285.539ZM218.82 270.906C218.697 271.658 218.487 272.522 218.203 273.462C218.099 273.11 218.007 272.754 217.929 272.395C217.694 271.307 217.661 270.453 217.787 269.861C217.904 269.315 218.126 269.096 218.391 268.988C218.533 268.925 218.684 268.883 218.838 268.865C218.878 268.957 218.925 269.148 218.937 269.475C218.953 269.851 218.914 270.329 218.82 270.909V270.906Z" fill="#3499FF"/>
<path fill-rule="evenodd" clip-rule="evenodd" d="M205.628 249.415H221.948C222.765 249.415 223.55 249.74 224.128 250.318L235.558 261.748C236.136 262.326 236.461 263.111 236.461 263.928V292.582C236.461 294.217 235.811 295.786 234.655 296.942C233.498 298.099 231.93 298.748 230.294 298.748H205.628C203.992 298.748 202.424 298.099 201.267 296.942C200.111 295.786 199.461 294.217 199.461 292.582V255.582C199.461 253.946 200.111 252.378 201.267 251.221C202.424 250.065 203.992 249.415 205.628 249.415ZM222.586 254.04V260.207C222.586 261.024 222.911 261.809 223.489 262.387C224.067 262.965 224.852 263.29 225.669 263.29H231.836L222.586 254.04ZM206.136 291.558C206.414 292.113 206.846 292.616 207.487 292.85C208.125 293.081 208.757 292.973 209.275 292.757C210.256 292.357 211.233 291.413 212.13 290.334C213.157 289.098 214.236 287.476 215.278 285.678C217.291 285.083 219.351 284.664 221.436 284.426C222.361 285.607 223.317 286.625 224.242 287.355C225.105 288.034 226.101 288.598 227.122 288.641C227.677 288.668 228.227 288.519 228.694 288.216C229.172 287.904 229.527 287.454 229.786 286.933C230.063 286.375 230.233 285.792 230.211 285.197C230.192 284.61 229.975 284.047 229.594 283.6C228.898 282.767 227.757 282.367 226.634 282.166C225.273 281.956 223.892 281.905 222.518 282.012C221.359 280.372 220.348 278.632 219.496 276.814C220.267 274.779 220.844 272.855 221.1 271.282C221.211 270.61 221.269 269.969 221.248 269.389C221.244 268.814 221.11 268.246 220.856 267.73C220.71 267.445 220.502 267.196 220.248 267.002C219.993 266.807 219.699 266.671 219.385 266.605C218.763 266.472 218.121 266.605 217.532 266.842C216.37 267.305 215.756 268.291 215.525 269.38C215.3 270.428 215.402 271.649 215.667 272.882C215.938 274.134 216.401 275.497 216.993 276.875C216.044 279.229 214.95 281.522 213.718 283.742C212.13 284.243 210.598 284.909 209.149 285.731C208.008 286.409 206.994 287.211 206.383 288.157C205.736 289.162 205.535 290.359 206.136 291.558Z" fill="#3499FF"/>
</g>
<g filter="url(#filter0_f_177_8751)">
<path d="M235.009 353.959C180.74 391.254 99.1292 371.103 148.686 426.974C198.243 482.845 420.159 474.893 474.428 437.598C528.696 400.302 394.766 347.786 345.209 291.915C295.653 236.044 289.277 316.663 235.009 353.959Z" fill="url(#paint0_linear_177_8751)"/>
</g>
<line x1="97.084" y1="466.871" x2="650.417" y2="466.871" stroke="url(#paint1_linear_177_8751)" stroke-width="2"/>
<defs>
<filter id="filter0_f_177_8751" x="0.000640869" y="139.45" width="620.477" height="461.113" filterUnits="userSpaceOnUse" color-interpolation-filters="sRGB">
<feFlood flood-opacity="0" result="BackgroundImageFix"/>
<feBlend mode="normal" in="SourceGraphic" in2="BackgroundImageFix" result="shape"/>
<feGaussianBlur stdDeviation="66.6667" result="effect1_foregroundBlur_177_8751"/>
</filter>
<linearGradient id="paint0_linear_177_8751" x1="498.547" y1="421.022" x2="322.597" y2="223.385" gradientUnits="userSpaceOnUse">
<stop stop-color="#30D5C8"/>
<stop offset="1" stop-color="#7557FF"/>
</linearGradient>
<linearGradient id="paint1_linear_177_8751" x1="97.084" y1="467.871" x2="97.1827" y2="475.778" gradientUnits="userSpaceOnUse">
<stop stop-color="#6DDCFF"/>
<stop offset="1" stop-color="#7557FF"/>
</linearGradient>
<clipPath id="clip0_177_8751">
<rect width="40" height="40" fill="white" transform="translate(199.098 191.218) rotate(-30)"/>
</clipPath>
<clipPath id="clip1_177_8751">
<rect width="49.3333" height="49.3333" fill="white" transform="translate(244.656 119.097) rotate(-4.24253)"/>
</clipPath>
<clipPath id="clip2_177_8751">
<rect width="49.3333" height="49.3333" fill="white" transform="translate(193.295 249.415)"/>
</clipPath>
</defs>
</svg>
