<svg width="651" height="631" viewBox="0 0 651 631" fill="none" xmlns="http://www.w3.org/2000/svg">
<path d="M511.829 207.073L473.124 193.858C472.682 193.707 472.445 193.225 472.596 192.783L490.647 139.916C490.798 139.474 491.28 139.237 491.722 139.388L530.426 152.603C530.869 152.755 531.106 153.236 530.954 153.679L512.904 206.545C512.753 206.987 512.271 207.224 511.829 207.073Z" fill="#30D5C8"/>
<path d="M512.102 207.923C511.926 207.923 511.746 207.894 511.571 207.834L472.867 194.619C472.45 194.477 472.112 194.181 471.918 193.785C471.724 193.389 471.695 192.94 471.837 192.523L489.888 139.657C490.031 139.239 490.327 138.903 490.724 138.708C491.119 138.514 491.567 138.485 491.985 138.628L530.688 151.843C531.105 151.985 531.442 152.282 531.637 152.678C531.831 153.074 531.86 153.522 531.717 153.939L513.667 206.805C513.432 207.49 512.789 207.923 512.102 207.923ZM491.454 140.148C491.436 140.148 491.415 140.161 491.41 140.177L473.359 193.043C473.352 193.062 473.367 193.091 473.386 193.097L512.09 206.312H512.091C512.109 206.318 512.138 206.305 512.145 206.286L530.195 153.419C530.202 153.4 530.187 153.371 530.168 153.365L491.465 140.15C491.461 140.149 491.457 140.148 491.454 140.148Z" fill="#233863"/>
<path d="M519.863 203.549L479.096 200.284C478.63 200.246 478.282 199.838 478.319 199.372L482.779 143.687C482.817 143.221 483.225 142.873 483.691 142.91L524.459 146.176C524.925 146.213 525.273 146.622 525.235 147.088L520.775 202.772C520.738 203.239 520.329 203.586 519.863 203.549Z" fill="#D4ECFF"/>
<path d="M519.93 204.355C519.885 204.355 519.84 204.354 519.795 204.35L479.027 201.085C478.588 201.049 478.189 200.845 477.902 200.51C477.616 200.174 477.478 199.746 477.513 199.307L481.973 143.623C482.046 142.715 482.844 142.036 483.751 142.109L524.518 145.374C525.425 145.447 526.104 146.244 526.031 147.151L521.571 202.836C521.536 203.276 521.332 203.676 520.996 203.962C520.696 204.218 520.321 204.355 519.93 204.355ZM483.62 143.711C483.597 143.711 483.579 143.729 483.576 143.752L479.117 199.435C479.115 199.456 479.136 199.48 479.157 199.482L519.924 202.747C519.949 202.743 519.969 202.728 519.97 202.708L524.43 147.023C524.432 147 524.415 146.979 524.391 146.977L483.623 143.711C483.622 143.711 483.621 143.711 483.62 143.711Z" fill="#233863"/>
<path d="M518.481 155.559C518.467 155.559 518.452 155.559 518.437 155.558L508.11 154.73C507.815 154.707 507.595 154.448 507.619 154.153C507.643 153.858 507.892 153.637 508.196 153.661L518.523 154.489C518.818 154.513 519.038 154.771 519.015 155.066C518.992 155.347 518.758 155.559 518.481 155.559Z" fill="#30D5C8"/>
<path d="M518.222 158.858C518.208 158.858 518.193 158.858 518.178 158.857L507.851 158.03C507.556 158.006 507.336 157.748 507.359 157.452C507.383 157.158 507.638 156.936 507.936 156.961L518.264 157.788C518.559 157.812 518.779 158.07 518.755 158.366C518.733 158.645 518.499 158.858 518.222 158.858Z" fill="#30D5C8"/>
<path d="M494.042 194.331C494.028 194.331 494.013 194.331 493.998 194.33L483.671 193.502C483.376 193.479 483.156 193.22 483.179 192.925C483.203 192.63 483.461 192.409 483.757 192.434L494.084 193.261C494.379 193.284 494.599 193.542 494.576 193.838C494.553 194.119 494.318 194.331 494.042 194.331Z" fill="#30D5C8"/>
<path d="M494.49 176.387C494.476 176.387 494.461 176.386 494.447 176.385L485.265 175.65C484.97 175.626 484.75 175.368 484.773 175.072C484.797 174.778 485.051 174.554 485.35 174.581L494.533 175.317C494.827 175.34 495.048 175.599 495.024 175.894C495.002 176.174 494.767 176.387 494.49 176.387Z" fill="#233863"/>
<path d="M500.121 189.156C500.107 189.156 500.092 189.155 500.077 189.154L484.286 187.89C483.991 187.866 483.771 187.608 483.795 187.313C483.819 187.018 484.072 186.794 484.372 186.822L500.163 188.086C500.458 188.11 500.678 188.368 500.654 188.663C500.632 188.943 500.398 189.156 500.121 189.156Z" fill="#233863"/>
<path d="M496.777 182.728C496.763 182.728 496.748 182.728 496.733 182.727L484.778 181.769C484.484 181.745 484.263 181.487 484.287 181.192C484.31 180.897 484.56 180.676 484.864 180.7L496.819 181.658C497.114 181.681 497.334 181.94 497.31 182.235C497.288 182.515 497.054 182.728 496.777 182.728Z" fill="#233863"/>
<path d="M516.631 172.497C516.617 172.497 516.602 172.497 516.588 172.496L485.671 170.019C485.376 169.996 485.156 169.738 485.179 169.442C485.203 169.147 485.453 168.922 485.757 168.951L516.673 171.427C516.968 171.451 517.188 171.709 517.165 172.004C517.142 172.285 516.908 172.497 516.631 172.497Z" fill="#233863"/>
<path d="M515.362 184.168C515.348 184.168 515.333 184.167 515.318 184.166L500.546 182.983C500.251 182.959 500.031 182.701 500.054 182.406C500.078 182.111 500.329 181.888 500.632 181.914L515.404 183.098C515.699 183.121 515.919 183.38 515.896 183.675C515.873 183.955 515.639 184.168 515.362 184.168Z" fill="#233863"/>
<path d="M516.87 178.178C516.855 178.178 516.84 178.178 516.825 178.177L497.879 176.578C497.584 176.553 497.365 176.294 497.391 175.999C497.416 175.703 497.677 175.489 497.97 175.509L516.915 177.108C517.21 177.133 517.429 177.392 517.404 177.687C517.38 177.967 517.146 178.178 516.87 178.178Z" fill="#233863"/>
<rect x="431.75" y="109.205" width="34.6667" height="25.3333" fill="#080C26"/>
<path fill-rule="evenodd" clip-rule="evenodd" d="M433.306 102.039C432.216 102.039 431.17 102.472 430.399 103.243C429.628 104.014 429.195 105.059 429.195 106.15V134.927C429.195 136.018 429.628 137.063 430.399 137.834C431.17 138.605 432.216 139.039 433.306 139.039H466.195C467.286 139.039 468.331 138.605 469.102 137.834C469.873 137.063 470.306 136.018 470.306 134.927V106.15C470.306 105.059 469.873 104.014 469.102 103.243C468.331 102.472 467.286 102.039 466.195 102.039H433.306ZM442.813 113.611C442.859 113.218 442.996 112.841 443.213 112.511C443.43 112.18 443.722 111.905 444.064 111.707C444.406 111.508 444.79 111.393 445.185 111.37C445.58 111.347 445.975 111.416 446.339 111.572C447.375 112.016 449.562 113.015 452.333 114.614C454.28 115.727 456.161 116.953 457.965 118.286C458.282 118.522 458.54 118.829 458.717 119.182C458.895 119.535 458.987 119.925 458.987 120.321C458.987 120.716 458.895 121.106 458.717 121.459C458.54 121.813 458.282 122.12 457.965 122.356C456.16 123.687 454.28 124.911 452.333 126.023C450.396 127.154 448.394 128.171 446.339 129.069C445.975 129.226 445.58 129.296 445.185 129.273C444.79 129.249 444.406 129.134 444.063 128.936C443.721 128.738 443.429 128.462 443.212 128.131C442.995 127.8 442.859 127.423 442.813 127.03C442.567 124.802 442.446 122.562 442.452 120.321C442.452 117.133 442.682 114.732 442.813 113.611Z" fill="#75BAFF"/>
<rect x="527.75" y="253.205" width="44" height="32" fill="#080C26"/>
<mask id="mask0_157_6975" style="mask-type:luminance" maskUnits="userSpaceOnUse" x="527" y="252" width="46" height="38">
<path d="M568.249 254.76H531.249C530.114 254.76 529.193 255.68 529.193 256.815V285.593C529.193 286.728 530.114 287.649 531.249 287.649H568.249C569.384 287.649 570.304 286.728 570.304 285.593V256.815C570.304 255.68 569.384 254.76 568.249 254.76Z" fill="white" stroke="white" stroke-width="4.11111" stroke-linecap="round" stroke-linejoin="round"/>
<path d="M557.972 272.232V279.426M549.75 262.982V279.426M541.527 267.093V279.426" stroke="black" stroke-width="4.11111" stroke-linecap="round" stroke-linejoin="round"/>
</mask>
<g mask="url(#mask0_157_6975)">
<path d="M525.082 246.538H574.415V295.871H525.082V246.538Z" fill="#30D5C8"/>
</g>
<g clip-path="url(#clip0_157_6975)">
<path d="M234.092 180.463L224.257 177.827C223.832 177.712 223.389 177.682 222.953 177.739C222.517 177.796 222.096 177.939 221.715 178.159L204.871 187.884C204.106 188.326 203.547 189.054 203.318 189.908C203.089 190.762 203.209 191.672 203.651 192.438L220.318 221.305C220.76 222.071 221.488 222.629 222.342 222.858C223.196 223.087 224.106 222.967 224.871 222.525L247.965 209.192C248.731 208.75 249.289 208.022 249.518 207.168C249.747 206.314 249.627 205.404 249.185 204.638L236.127 182.021C235.907 181.64 235.614 181.306 235.265 181.038C234.916 180.771 234.517 180.575 234.092 180.463ZM235.982 199.271C236.345 199.899 236.513 200.62 236.466 201.344C236.418 202.067 236.158 202.761 235.716 203.336C235.275 203.911 234.672 204.343 233.986 204.576C233.299 204.809 232.559 204.833 231.858 204.646C231.158 204.458 230.528 204.067 230.05 203.522C229.572 202.976 229.266 202.302 229.172 201.583C229.077 200.864 229.198 200.133 229.519 199.482C229.839 198.832 230.346 198.291 230.974 197.929C231.075 197.87 231.262 197.762 231.162 197.589L229.054 193.937C229 193.852 228.917 193.79 228.82 193.764C228.747 193.778 228.681 193.817 228.632 193.873L223.785 199.211L223.612 199.311C223.554 199.363 223.515 199.433 223.504 199.511C223.492 199.588 223.508 199.666 223.548 199.733L228.465 208.249C228.826 208.881 228.99 209.607 228.937 210.333C228.885 211.059 228.617 211.753 228.168 212.326C227.72 212.9 227.111 213.327 226.419 213.553C225.727 213.779 224.983 213.794 224.283 213.596C223.582 213.397 222.956 212.995 222.485 212.44C222.014 211.885 221.719 211.203 221.637 210.479C221.555 209.756 221.69 209.025 222.026 208.378C222.361 207.732 222.881 207.201 223.52 206.851C223.621 206.793 223.808 206.684 223.717 206.525L220.725 201.344C220.309 200.634 220.143 199.804 220.256 198.989C220.368 198.174 220.751 197.42 221.344 196.849L226.188 191.473L226.361 191.373C226.771 191.02 227.254 190.762 227.775 190.618C228.296 190.473 228.842 190.446 229.375 190.537C229.908 190.629 230.414 190.837 230.857 191.147C231.3 191.457 231.668 191.861 231.937 192.33L235.982 199.271Z" fill="#30D5C8"/>
</g>
<g clip-path="url(#clip1_157_6975)">
<rect x="248.006" y="128.208" width="44" height="29.3333" transform="rotate(-4.24253 248.006 128.208)" fill="#080C26"/>
<path d="M264.368 134.64C264.458 135.863 264.059 137.072 263.259 138.002C262.458 138.931 261.321 139.504 260.097 139.594C258.874 139.685 257.665 139.286 256.736 138.485C255.807 137.685 255.234 136.548 255.143 135.324C255.052 134.101 255.451 132.892 256.252 131.963C257.053 131.033 258.19 130.461 259.413 130.37C260.636 130.279 261.846 130.678 262.775 131.479C263.704 132.28 264.277 133.417 264.368 134.64Z" fill="#CDDAED"/>
<path d="M249.726 124.905C248.502 124.996 247.365 125.569 246.564 126.498C245.764 127.427 245.365 128.636 245.455 129.859L247.508 157.533C247.599 158.757 248.172 159.894 249.101 160.695C250.03 161.495 251.24 161.894 252.463 161.804L292.436 158.838C293.66 158.747 294.797 158.175 295.598 157.245C296.398 156.316 296.797 155.107 296.706 153.884L294.654 126.21C294.563 124.987 293.99 123.849 293.061 123.049C292.132 122.248 290.922 121.849 289.699 121.94L249.726 124.905ZM289.927 125.015C290.335 124.984 290.738 125.117 291.048 125.384C291.357 125.651 291.548 126.03 291.579 126.438L292.947 144.887L280.896 139.761C280.596 139.638 280.266 139.613 279.952 139.687C279.637 139.762 279.354 139.934 279.143 140.179L268.581 152.433L259.998 147.591C259.688 147.416 259.327 147.354 258.976 147.415C258.626 147.476 258.307 147.656 258.075 147.926L250.475 155.767L250.598 157.428L250.583 157.305L248.53 129.631C248.5 129.224 248.633 128.82 248.9 128.511C249.167 128.201 249.546 128.01 249.954 127.98L289.927 125.015Z" fill="#CDDAED"/>
</g>
<g clip-path="url(#clip2_157_6975)">
<path d="M210.325 287.722C210.757 287.468 211.229 287.223 211.741 286.989C211.308 287.633 210.845 288.256 210.353 288.857C209.49 289.896 208.818 290.448 208.395 290.621L208.287 290.658C208.257 290.615 208.23 290.569 208.207 290.522C208.034 290.183 208.041 289.856 208.33 289.412C208.657 288.903 209.314 288.321 210.325 287.722ZM217.895 282.644C217.529 282.72 217.163 282.8 216.797 282.885C217.341 281.82 217.855 280.74 218.339 279.647C218.826 280.55 219.351 281.433 219.911 282.293C219.241 282.391 218.569 282.508 217.895 282.644ZM225.68 285.539C225.202 285.152 224.754 284.729 224.339 284.275C225.046 284.29 225.675 284.345 226.226 284.442C227.203 284.617 227.663 284.895 227.823 285.086C227.872 285.14 227.901 285.21 227.903 285.283C227.892 285.501 227.829 285.712 227.718 285.9C227.657 286.051 227.557 286.183 227.429 286.282C227.366 286.323 227.29 286.34 227.216 286.329C226.938 286.319 226.42 286.125 225.68 285.539ZM218.82 270.906C218.697 271.658 218.487 272.522 218.203 273.462C218.099 273.11 218.007 272.754 217.929 272.395C217.694 271.307 217.661 270.453 217.787 269.861C217.904 269.315 218.126 269.096 218.391 268.988C218.533 268.925 218.684 268.883 218.838 268.865C218.878 268.957 218.925 269.148 218.937 269.475C218.953 269.851 218.914 270.329 218.82 270.909V270.906Z" fill="#3499FF"/>
<path fill-rule="evenodd" clip-rule="evenodd" d="M205.628 249.415H221.948C222.765 249.415 223.55 249.74 224.128 250.318L235.558 261.748C236.136 262.326 236.461 263.111 236.461 263.928V292.582C236.461 294.217 235.811 295.786 234.655 296.942C233.498 298.099 231.93 298.748 230.294 298.748H205.628C203.992 298.748 202.424 298.099 201.267 296.942C200.111 295.786 199.461 294.217 199.461 292.582V255.582C199.461 253.946 200.111 252.378 201.267 251.221C202.424 250.065 203.992 249.415 205.628 249.415ZM222.586 254.04V260.207C222.586 261.024 222.911 261.809 223.489 262.387C224.067 262.965 224.852 263.29 225.669 263.29H231.836L222.586 254.04ZM206.136 291.558C206.414 292.113 206.846 292.616 207.487 292.85C208.125 293.081 208.757 292.973 209.275 292.757C210.256 292.357 211.233 291.413 212.13 290.334C213.157 289.098 214.236 287.476 215.278 285.678C217.291 285.083 219.351 284.664 221.436 284.426C222.361 285.607 223.317 286.625 224.242 287.355C225.105 288.034 226.101 288.598 227.122 288.641C227.677 288.668 228.227 288.519 228.694 288.216C229.172 287.904 229.527 287.454 229.786 286.933C230.063 286.375 230.233 285.792 230.211 285.197C230.192 284.61 229.975 284.047 229.594 283.6C228.898 282.767 227.757 282.367 226.634 282.166C225.273 281.956 223.892 281.905 222.518 282.012C221.359 280.372 220.348 278.632 219.496 276.814C220.267 274.779 220.844 272.855 221.1 271.282C221.211 270.61 221.269 269.969 221.248 269.389C221.244 268.814 221.11 268.246 220.856 267.73C220.71 267.445 220.502 267.196 220.248 267.002C219.993 266.807 219.699 266.671 219.385 266.605C218.763 266.472 218.121 266.605 217.532 266.842C216.37 267.305 215.756 268.291 215.525 269.38C215.3 270.428 215.402 271.649 215.667 272.882C215.938 274.134 216.401 275.497 216.993 276.875C216.044 279.229 214.95 281.522 213.718 283.742C212.13 284.243 210.598 284.909 209.149 285.731C208.008 286.409 206.994 287.211 206.383 288.157C205.736 289.162 205.535 290.359 206.136 291.558Z" fill="#3499FF"/>
</g>
<g filter="url(#filter0_f_157_6975)">
<path d="M235.009 353.958C180.74 391.254 99.1292 371.102 148.686 426.973C198.243 482.844 420.159 474.893 474.428 437.597C528.696 400.302 394.766 347.786 345.209 291.914C295.653 236.043 289.277 316.663 235.009 353.958Z" fill="url(#paint0_linear_157_6975)"/>
</g>
<g opacity="0.57">
<path d="M267.032 301.882C266.564 301.882 266.186 301.504 266.186 301.035C266.186 272.066 278.31 244.081 299.452 224.256C303.19 220.75 307.219 217.489 311.427 214.565C311.81 214.299 312.338 214.393 312.606 214.777C312.872 215.161 312.777 215.689 312.393 215.955C308.254 218.833 304.289 222.042 300.61 225.492C279.809 244.998 267.879 272.533 267.879 301.036C267.879 301.504 267.5 301.882 267.032 301.882Z" fill="#3499FF" fill-opacity="0.6"/>
<path d="M475.81 301.882C475.342 301.882 474.964 301.504 474.964 301.036C474.964 289.214 472.988 277.621 469.091 266.58C468.936 266.138 469.168 265.655 469.608 265.499C470.05 265.348 470.532 265.576 470.688 266.016C474.648 277.24 476.656 289.022 476.656 301.036C476.657 301.504 476.277 301.882 475.81 301.882Z" fill="#3499FF" fill-opacity="0.6"/>
<path d="M467.871 261.22C467.478 261.22 467.105 261.009 466.943 260.656C457.25 239.642 441.02 221.981 420.007 209.585C419.539 209.309 419.404 208.738 419.706 208.31C420.008 207.882 420.631 207.757 421.1 208.035C442.455 220.633 458.949 238.582 468.798 259.94C469.015 260.41 468.775 260.951 468.262 261.148C468.135 261.197 468.002 261.22 467.871 261.22Z" fill="#3499FF" fill-opacity="0.6"/>
<path d="M318.761 211.729C318.47 211.729 318.187 211.579 318.03 211.31C317.794 210.906 317.93 210.388 318.333 210.152C334.372 200.763 352.73 195.799 371.421 195.799C386.988 195.799 401.975 199.118 415.966 205.665C416.39 205.863 416.573 206.367 416.374 206.791C416.176 207.213 415.672 207.396 415.249 207.199C401.484 200.759 386.737 197.493 371.421 197.493C353.03 197.493 334.969 202.376 319.188 211.613C319.054 211.692 318.907 211.729 318.761 211.729Z" fill="#3499FF" fill-opacity="0.6"/>
<path d="M248.461 301.22C247.954 301.22 247.545 300.836 247.545 300.361C247.545 250.539 278.965 205.372 327.593 185.295C328.061 185.1 328.597 185.301 328.8 185.734C329.004 186.168 328.794 186.676 328.331 186.867C280.368 206.67 249.377 251.22 249.377 300.361C249.377 300.836 248.966 301.22 248.461 301.22Z" fill="#3499FF" fill-opacity="0.6"/>
<path d="M494.393 301.883C493.925 301.883 493.547 301.504 493.547 301.036C493.547 262.535 475.058 225.839 444.09 202.875C443.715 202.597 443.636 202.067 443.914 201.691C444.193 201.316 444.724 201.238 445.099 201.515C460.315 212.798 472.929 227.641 481.578 244.44C490.643 262.05 495.24 281.092 495.24 301.035C495.24 301.504 494.861 301.883 494.393 301.883Z" fill="#3499FF" fill-opacity="0.6"/>
<path d="M437.261 198.008C437.106 198.008 436.949 197.966 436.808 197.876C434.304 196.286 431.71 194.767 429.095 193.364C428.683 193.143 428.528 192.63 428.75 192.217C428.971 191.806 429.484 191.65 429.895 191.872C432.546 193.295 435.177 194.835 437.716 196.447C438.11 196.698 438.227 197.222 437.977 197.616C437.816 197.87 437.542 198.008 437.261 198.008Z" fill="#3499FF" fill-opacity="0.6"/>
<path d="M424.083 190.726C423.961 190.726 423.838 190.7 423.72 190.644C407.316 182.859 389.72 178.912 371.422 178.912C358.041 178.912 344.887 181.062 332.327 185.303C331.878 185.453 331.403 185.215 331.254 184.772C331.104 184.329 331.343 183.849 331.784 183.7C344.519 179.399 357.855 177.219 371.421 177.219C389.973 177.219 407.813 181.222 424.446 189.116C424.868 189.316 425.049 189.821 424.848 190.243C424.704 190.548 424.399 190.726 424.083 190.726Z" fill="#3499FF" fill-opacity="0.6"/>
<path d="M514.989 301.882C514.521 301.882 514.143 301.504 514.143 301.036C514.143 285.32 511.605 269.875 506.6 255.131C506.45 254.689 506.687 254.207 507.13 254.056C507.574 253.907 508.054 254.144 508.204 254.586C513.268 269.506 515.837 285.133 515.837 301.035C515.836 301.504 515.457 301.882 514.989 301.882Z" fill="#3499FF" fill-opacity="0.6"/>
<path d="M504.405 247.685C504.071 247.685 503.755 247.487 503.621 247.158C493.542 222.452 476.747 201.087 455.051 185.373C454.673 185.099 454.588 184.57 454.862 184.191C455.135 183.812 455.664 183.728 456.044 184.002C477.996 199.902 494.989 221.52 505.188 246.519C505.365 246.952 505.157 247.447 504.724 247.623C504.62 247.664 504.512 247.685 504.405 247.685Z" fill="#3499FF" fill-opacity="0.6"/>
<path d="M446.658 179.887C446.498 179.887 446.337 179.847 446.191 179.763C422.552 166.091 395.255 158.863 367.253 158.863C354.633 158.863 342.094 160.325 329.986 163.208C329.515 163.32 329.029 163.057 328.907 162.617C328.785 162.178 329.071 161.731 329.545 161.617C341.797 158.7 354.484 157.22 367.253 157.22C395.587 157.22 423.208 164.533 447.129 178.368C447.544 178.609 447.67 179.115 447.411 179.499C447.244 179.75 446.954 179.887 446.658 179.887Z" fill="#3499FF" fill-opacity="0.6"/>
<path d="M308.297 172.902C307.984 172.902 307.682 172.727 307.536 172.428C307.33 172.008 307.503 171.501 307.923 171.295C312.336 169.131 316.908 167.175 321.51 165.479C321.948 165.319 322.435 165.542 322.597 165.981C322.758 166.421 322.534 166.907 322.095 167.068C317.547 168.744 313.029 170.677 308.669 172.815C308.549 172.874 308.421 172.902 308.297 172.902Z" fill="#3499FF" fill-opacity="0.6"/>
<path d="M227.858 301.882C227.39 301.882 227.012 301.504 227.012 301.036C227.012 275.392 233.82 250.204 246.7 228.195C259.201 206.835 277.091 188.923 298.438 176.397C298.841 176.16 299.359 176.295 299.596 176.698C299.832 177.102 299.697 177.62 299.294 177.857C255.753 203.41 228.705 250.609 228.705 301.037C228.705 301.504 228.326 301.882 227.858 301.882Z" fill="#3499FF" fill-opacity="0.6"/>
</g>
<g opacity="0.3">
<path d="M212.697 294.739C211.997 294.739 211.428 294.17 211.428 293.469C211.428 270.963 216.008 249.201 225.042 228.787C233.77 209.067 246.204 191.557 262.001 176.743C267.688 171.41 273.814 166.453 280.207 162.008C280.783 161.608 281.574 161.749 281.974 162.327C282.374 162.902 282.232 163.694 281.657 164.093C275.364 168.467 269.336 173.346 263.739 178.595C232.108 208.256 213.967 250.126 213.967 293.469C213.967 294.17 213.398 294.739 212.697 294.739Z" fill="#00FFEB"/>
<path d="M530.137 294.738C529.437 294.738 528.868 294.17 528.868 293.469C528.868 275.495 525.864 257.865 519.94 241.073C519.707 240.412 520.054 239.687 520.715 239.453C521.375 239.224 522.102 239.566 522.335 240.228C528.355 257.293 531.407 275.206 531.407 293.47C531.407 294.17 530.838 294.738 530.137 294.738Z" fill="#00FFEB"/>
<path d="M517.708 233.059C517.212 233.059 516.742 232.768 516.537 232.283C504.161 202.966 483.438 178.328 456.606 161.033C456.017 160.653 455.846 159.867 456.226 159.278C456.607 158.687 457.396 158.52 457.981 158.899C485.244 176.472 506.301 201.506 518.876 231.297C519.148 231.943 518.846 232.688 518.199 232.96C518.039 233.027 517.872 233.059 517.708 233.059Z" fill="#00FFEB"/>
<path d="M291.355 157.666C290.919 157.666 290.494 157.44 290.258 157.037C289.904 156.432 290.107 155.654 290.712 155.3C315.099 141.026 343.007 133.48 371.423 133.48C395.09 133.48 417.875 138.526 439.146 148.479C439.781 148.776 440.055 149.532 439.758 150.167C439.461 150.803 438.707 151.076 438.07 150.779C417.139 140.985 394.715 136.02 371.423 136.02C343.458 136.02 315.993 143.444 291.996 157.492C291.794 157.61 291.573 157.666 291.355 157.666Z" fill="#00FFEB"/>
<path d="M184.923 294.554C184.162 294.554 183.545 293.973 183.545 293.258C183.545 217.083 231.458 148.027 305.611 117.33C306.31 117.042 307.122 117.34 307.428 117.994C307.735 118.649 307.418 119.415 306.721 119.703C233.568 149.986 186.301 218.111 186.301 293.258C186.301 293.973 185.684 294.554 184.923 294.554Z" fill="#00FFEB"/>
<path d="M558.392 294.739C557.691 294.739 557.122 294.17 557.122 293.469C557.122 234.923 529.009 179.123 481.92 144.207C481.357 143.788 481.238 142.994 481.656 142.43C482.075 141.866 482.869 141.748 483.433 142.166C506.566 159.319 525.743 181.886 538.891 207.426C552.673 234.197 559.662 263.147 559.662 293.468C559.661 294.17 559.092 294.739 558.392 294.739Z" fill="#00FFEB"/>
<path d="M471.537 136.802C471.304 136.802 471.068 136.739 470.856 136.604C467.042 134.182 463.095 131.873 459.127 129.742C458.509 129.411 458.276 128.641 458.609 128.023C458.941 127.405 459.713 127.175 460.327 127.505C464.351 129.665 468.351 132.005 472.219 134.461C472.811 134.837 472.985 135.621 472.61 136.213C472.367 136.594 471.957 136.802 471.537 136.802Z" fill="#00FFEB"/>
<path d="M451.63 125.22C451.45 125.22 451.268 125.179 451.095 125.092C426.582 112.775 400.289 106.529 372.946 106.529C352.949 106.529 333.294 109.931 314.526 116.641C313.874 116.875 313.165 116.503 312.945 115.812C312.724 115.121 313.075 114.372 313.728 114.138C332.754 107.336 352.677 103.887 372.946 103.887C400.662 103.887 427.315 110.218 452.166 122.705C452.789 123.018 453.053 123.806 452.759 124.465C452.545 124.941 452.097 125.22 451.63 125.22Z" fill="#00FFEB"/>
<path d="M589.709 294.739C589.008 294.739 588.439 294.171 588.439 293.47C588.439 269.57 584.58 246.085 576.97 223.668C576.744 223.004 577.1 222.283 577.764 222.057C578.428 221.832 579.149 222.188 579.374 222.851C587.074 245.533 590.978 269.292 590.978 293.47C590.978 294.171 590.41 294.739 589.709 294.739Z" fill="#00FFEB"/>
<path d="M574.157 213.22C573.609 213.22 573.091 212.904 572.87 212.384C556.112 172.638 528.188 138.267 492.119 112.985C491.498 112.55 491.359 111.71 491.809 111.109C492.258 110.507 493.128 110.375 493.748 110.809C530.239 136.385 558.487 171.159 575.442 211.369C575.731 212.056 575.391 212.84 574.681 213.12C574.508 213.187 574.331 213.22 574.157 213.22Z" fill="#00FFEB"/>
<path d="M486.82 109.411C486.591 109.411 486.358 109.349 486.149 109.218C451.793 87.7812 412.122 76.4507 371.425 76.4507C353.082 76.4507 334.859 78.743 317.262 83.2634C316.582 83.4394 315.89 83.028 315.716 82.35C315.542 81.6711 315.95 80.9786 316.63 80.8043C334.433 76.2306 352.869 73.9111 371.425 73.9111C412.599 73.9111 452.734 85.3754 487.493 107.065C488.088 107.435 488.269 108.219 487.898 108.814C487.657 109.2 487.243 109.411 486.82 109.411Z" fill="#00FFEB"/>
<path d="M275.435 98.6297C274.966 98.6297 274.515 98.3682 274.294 97.9187C273.985 97.2889 274.245 96.5278 274.875 96.2197C281.579 92.9319 288.529 89.9572 295.531 87.3779C296.189 87.1367 296.92 87.4727 297.161 88.1305C297.404 88.7882 297.067 89.5188 296.408 89.7609C289.487 92.3097 282.619 95.2496 275.992 98.4994C275.815 98.5882 275.623 98.6297 275.435 98.6297Z" fill="#00FFEB"/>
<path d="M153.133 294.739C152.432 294.739 151.863 294.17 151.863 293.469C151.863 254.48 162.214 216.188 181.796 182.728C200.802 150.253 228.001 123.021 260.454 103.976C261.058 103.622 261.837 103.823 262.192 104.428C262.547 105.033 262.345 105.812 261.739 106.166C195.532 145.021 154.403 216.791 154.403 293.469C154.403 294.17 153.834 294.739 153.133 294.739Z" fill="#00FFEB"/>
</g>
<path d="M424.408 347.581C422.966 348.265 421.409 348.663 419.813 348.738C416.844 348.877 414.107 347.881 412.108 345.932L405.7 339.686C399.399 343.945 392.542 346.982 385.284 348.725L384.839 358.023C384.7 360.912 383.416 363.683 381.226 365.825C379.031 367.969 376.186 369.232 373.215 369.371C367.092 369.658 362.342 365.036 362.627 359.067L363.072 349.767C355.944 348.702 349.347 346.3 343.43 342.613L336.392 349.49C334.195 351.638 331.353 352.897 328.382 353.036C325.413 353.176 322.675 352.179 320.676 350.23C316.556 346.214 316.885 339.351 321.408 334.931L328.462 328.035C324.669 322.258 322.192 315.816 321.091 308.854L311.582 309.303C305.46 309.59 300.709 304.969 300.993 298.999C301.132 296.109 302.416 293.339 304.608 291.196C306.802 289.052 309.648 287.789 312.618 287.65L322.129 287.202C323.903 280.107 327.008 273.401 331.373 267.241L324.948 260.981C320.828 256.965 321.157 250.102 325.68 245.68C327.878 243.531 330.721 242.274 333.689 242.135C336.659 241.994 339.397 242.99 341.397 244.94L347.805 251.186C354.101 246.927 360.96 243.889 368.222 242.148L368.666 232.849C368.953 226.88 374.168 221.787 380.29 221.502C383.259 221.361 385.996 222.358 387.997 224.306C389.993 226.253 391.017 228.915 390.879 231.803L390.433 241.101C397.557 242.167 404.156 244.569 410.076 248.256L417.112 241.379C419.309 239.231 422.151 237.972 425.122 237.833C428.092 237.693 430.83 238.69 432.829 240.638C436.948 244.654 436.62 251.517 432.096 255.937L425.043 262.832C428.836 268.61 431.312 275.054 432.414 282.013L441.923 281.566C448.047 281.278 452.797 285.899 452.513 291.868C452.225 297.839 447.012 302.93 440.887 303.216L431.379 303.665C429.604 310.761 426.497 317.466 422.135 323.625L428.56 329.886C432.678 333.902 432.349 340.766 427.827 345.186C426.809 346.187 425.653 346.99 424.408 347.581ZM406.186 336.269L414.121 344.003C415.631 345.477 417.699 346.23 419.938 346.124C422.179 346.021 424.329 345.066 425.986 343.447C429.423 340.087 429.672 334.871 426.542 331.822L418.624 324.103L419.301 323.183C424.011 316.779 427.272 309.737 428.993 302.25L429.243 301.163L441.011 300.608C445.639 300.394 449.582 296.53 449.803 292.001C450.02 287.473 446.427 283.966 441.797 284.185L430.028 284.737L429.882 283.667C428.874 276.311 426.274 269.544 422.155 263.554L421.562 262.693L430.256 254.196C433.692 250.837 433.942 245.622 430.812 242.571C429.301 241.097 427.234 240.344 424.995 240.45C422.755 240.553 420.608 241.509 418.947 243.128L410.235 251.645L409.327 251.054C403.188 247.045 396.254 244.517 388.722 243.546L387.618 243.404L388.167 231.934C388.273 229.737 387.496 227.714 385.98 226.237C384.469 224.764 382.402 224.01 380.163 224.117C375.532 224.331 371.588 228.196 371.371 232.724L370.824 244.193L369.702 244.44C362.039 246.127 354.835 249.317 348.284 253.924L347.315 254.604L339.381 246.87C337.869 245.397 335.802 244.644 333.562 244.75C331.324 244.855 329.176 245.806 327.516 247.428C324.078 250.788 323.828 256.003 326.96 259.054L334.877 266.772L334.201 267.692C329.488 274.097 326.228 281.139 324.509 288.624L324.259 289.711L312.49 290.265C310.248 290.37 308.103 291.321 306.441 292.944C304.779 294.571 303.804 296.675 303.699 298.872C303.483 303.4 307.074 306.908 311.704 306.691L323.473 306.136L323.619 307.206C324.627 314.562 327.227 321.329 331.346 327.319L331.938 328.179L323.244 336.677C319.806 340.037 319.556 345.252 322.688 348.303C324.199 349.777 326.265 350.53 328.504 350.425C330.747 350.318 332.895 349.365 334.552 347.746L343.265 339.229L344.173 339.82C350.308 343.83 357.242 346.354 364.778 347.327L365.881 347.469L365.333 358.94C365.115 363.469 368.706 366.975 373.337 366.758C375.58 366.652 377.727 365.7 379.385 364.078C381.049 362.451 382.023 360.347 382.127 358.151L382.677 346.68L383.8 346.433C391.46 344.746 398.666 341.552 405.217 336.948L406.186 336.269ZM391.762 331.248C386.533 333.731 380.801 335.245 374.833 335.526C363.854 336.041 353.736 332.355 346.338 325.145C338.944 317.938 335.153 308.074 335.665 297.37C336.178 286.664 340.931 276.398 349.051 268.462C357.172 260.523 367.693 255.867 378.669 255.348C401.323 254.283 418.892 271.399 417.837 293.505C417.057 309.787 406.385 324.304 391.762 331.248ZM362.695 261.956C358.399 263.996 354.404 266.774 350.888 270.21C343.298 277.631 338.854 287.231 338.376 297.243C337.896 307.256 341.44 316.482 348.353 323.218C355.263 329.952 364.712 333.395 374.959 332.913C396.124 331.92 414.141 314.296 415.128 293.634C416.117 272.971 399.706 256.968 378.545 257.964C373.047 258.221 367.669 259.594 362.695 261.956Z" fill="#6B8BBA" fill-opacity="0.6"/>
<path d="M296.644 385.598C294.748 386.499 292.678 386.674 290.8 386.093C288.882 385.499 287.397 384.187 286.615 382.401L284.401 377.345C279.838 378.595 275.237 379.022 270.692 378.616L268.4 384.108C267.593 386.037 266.093 387.621 264.172 388.567C262.201 389.574 260.128 389.712 258.211 389.118C256.294 388.525 254.807 387.214 254.024 385.425C253.244 383.644 253.258 381.6 254.062 379.672L256.356 374.18C252.552 372 249.321 369.149 246.728 365.687L241.281 368.371C239.371 369.269 237.237 369.514 235.319 368.922C233.401 368.328 231.916 367.017 231.134 365.23C229.524 361.552 231.438 356.971 235.399 355.017L240.869 352.321C240.042 347.979 240.072 343.513 240.959 339.015L235.539 337.338C233.622 336.744 232.135 335.433 231.352 333.644C230.572 331.862 230.586 329.818 231.391 327.889C232.195 325.961 233.697 324.379 235.618 323.432C237.602 322.481 239.662 322.288 241.579 322.88L246.998 324.558C249.641 320.602 252.923 317.143 256.774 314.246L254.551 309.171C252.941 305.492 254.855 300.911 258.818 298.958C260.774 298.028 262.861 297.814 264.778 298.407C266.696 298.999 268.182 300.312 268.965 302.1L271.179 307.153C275.74 305.904 280.342 305.478 284.887 305.883L287.179 300.391L287.179 300.392C287.984 298.462 289.486 296.879 291.407 295.933C293.327 294.952 295.449 294.787 297.369 295.38C301.321 296.604 303.18 300.841 301.517 304.827L299.223 310.32C303.029 312.501 306.26 315.352 308.852 318.813L314.298 316.129C316.278 315.207 318.344 314.984 320.259 315.578C322.177 316.17 323.663 317.483 324.446 319.27C326.058 322.947 324.143 327.529 320.179 329.483L314.711 332.178C315.537 336.521 315.508 340.988 314.621 345.485L320.04 347.161C323.993 348.386 325.852 352.625 324.188 356.61C323.384 358.538 321.882 360.122 319.961 361.068C318.054 362.028 315.919 362.213 314 361.619L308.582 359.943C305.937 363.898 302.655 367.358 298.805 370.253L301.029 375.328C302.639 379.007 300.725 383.588 296.762 385.541C296.723 385.56 296.684 385.579 296.644 385.598ZM269.057 375.772L270.162 375.903C275.054 376.487 280.027 376.026 284.942 374.53L286.062 374.191L289.127 381.195C289.637 382.358 290.601 383.209 291.844 383.595C293.062 383.973 294.407 383.858 295.64 383.273C295.666 383.26 295.692 383.247 295.718 383.234C298.317 381.954 299.573 378.947 298.517 376.536L295.459 369.554L296.4 368.884C300.648 365.862 304.191 362.124 306.931 357.777L307.544 356.803L315.044 359.123C316.289 359.507 317.667 359.408 318.916 358.763C320.174 358.143 321.157 357.104 321.686 355.84C322.776 353.232 321.569 350.461 318.996 349.665L311.496 347.345L311.745 346.257C312.849 341.405 312.883 336.58 311.844 331.92L311.615 330.888L319.137 327.18C321.737 325.899 322.993 322.894 321.936 320.482C321.426 319.319 320.461 318.465 319.218 318.08C318.001 317.703 316.656 317.817 315.424 318.402C315.396 318.415 315.372 318.428 315.345 318.441L307.8 322.161L307.189 321.285C304.507 317.44 301.015 314.359 296.809 312.125L295.858 311.62L299.016 304.059C300.106 301.451 298.899 298.681 296.327 297.887C295.083 297.5 293.703 297.564 292.455 298.246C291.197 298.866 290.213 299.905 289.684 301.17L289.685 301.171L286.525 308.732L285.42 308.6C280.528 308.017 275.555 308.478 270.642 309.973L269.522 310.312L266.455 303.309C265.946 302.147 264.981 301.293 263.737 300.907C262.521 300.531 261.176 300.645 259.944 301.23C259.917 301.242 259.891 301.256 259.865 301.269C257.266 302.549 256.01 305.555 257.067 307.967L260.123 314.949L259.182 315.619C254.934 318.641 251.391 322.379 248.652 326.727L248.038 327.702L240.536 325.38C239.294 324.996 237.923 325.116 236.666 325.74C235.409 326.361 234.425 327.399 233.896 328.664C233.366 329.932 233.356 331.271 233.869 332.44C234.377 333.603 235.342 334.454 236.585 334.839L244.087 337.161L243.838 338.249C242.734 343.103 242.7 347.927 243.739 352.584L243.968 353.617L236.444 357.325C233.846 358.607 232.59 361.613 233.646 364.025C234.156 365.187 235.12 366.039 236.363 366.424C237.605 366.81 238.958 366.666 240.236 366.064L247.78 362.346L248.392 363.222C251.076 367.067 254.569 370.148 258.772 372.381L259.721 372.886L256.563 380.447C256.033 381.714 256.023 383.055 256.535 384.222C257.043 385.385 258.009 386.237 259.252 386.621C260.495 387.008 261.858 386.911 263.123 386.262C264.382 385.642 265.365 384.604 265.895 383.338L269.057 375.772ZM287.742 366.108C281.043 369.289 273.73 369.912 267.092 367.859C253.11 363.53 246.533 348.521 252.43 334.402C255.287 327.565 260.609 321.952 267.416 318.597C274.263 315.198 281.712 314.546 288.487 316.642C295.263 318.74 300.521 323.376 303.288 329.698C306.055 336.016 306.006 343.261 303.148 350.099C300.293 356.937 294.971 362.55 288.163 365.904C288.025 365.973 287.884 366.041 287.742 366.108ZM268.841 320.72C268.714 320.78 268.588 320.841 268.461 320.904C262.317 323.932 257.511 329.002 254.933 335.177C249.609 347.92 255.531 361.459 268.135 365.36C274.237 367.25 280.956 366.597 287.119 363.599C293.262 360.571 298.066 355.503 300.646 349.325L300.647 349.324C303.228 343.15 303.273 336.607 300.776 330.905C298.282 325.207 293.547 321.03 287.444 319.142C281.468 317.29 274.877 317.853 268.841 320.72Z" fill="#6B8BBA" fill-opacity="0.6"/>
<path d="M194.784 170.658C194.784 173.328 192.62 175.493 189.95 175.493C187.28 175.493 185.115 173.328 185.115 170.658C185.115 167.988 187.28 165.824 189.95 165.824C192.62 165.824 194.784 167.988 194.784 170.658Z" fill="#30D5C8"/>
<path d="M358.879 42.5537V90.5537H270.879V123.887V187.887H212.879V259.22" stroke="#6B8BBA" stroke-width="2.66667"/>
<path d="M358.879 90.5537L457.546 90.5537V153.22H516.212V245.887H542.418V307.871" stroke="#6B8BBA" stroke-width="2.66667"/>
<path d="M287.668 241.163C287.668 242.612 286.493 243.788 285.043 243.788C283.593 243.788 282.418 242.613 282.418 241.163C282.418 239.714 283.593 238.538 285.043 238.538C286.493 238.538 287.668 239.713 287.668 241.163Z" fill="#3499FF"/>
<path d="M309.751 94.5379C312.328 94.5379 314.417 92.4486 314.417 89.8713C314.417 87.2939 312.328 85.2046 309.751 85.2046C307.173 85.2046 305.084 87.2939 305.084 89.8713C305.084 92.4486 307.173 94.5379 309.751 94.5379Z" fill="#3499FF"/>
<path d="M542.496 221.943C543.946 221.943 545.121 220.768 545.121 219.318C545.121 217.868 543.946 216.693 542.496 216.693C541.046 216.693 539.871 217.868 539.871 219.318C539.871 220.768 541.046 221.943 542.496 221.943Z" fill="#30D5C8"/>
<path d="M594.212 273.246C594.212 275.915 592.047 278.08 589.377 278.08C586.707 278.08 584.543 275.915 584.543 273.246C584.543 270.576 586.707 268.411 589.377 268.411C592.047 268.411 594.212 270.576 594.212 273.246Z" fill="#30D5C8"/>
<path d="M405.084 181.205C405.084 183.414 403.293 185.205 401.084 185.205C398.875 185.205 397.084 183.414 397.084 181.205C397.084 178.996 398.875 177.205 401.084 177.205C403.293 177.205 405.084 178.996 405.084 181.205Z" fill="#30D5C8"/>
<path d="M377.428 53.7998L334.589 58.1469C332.555 58.3527 330.965 57.0126 331.037 55.1537L332.234 24.0288C332.305 22.1692 334.011 20.4944 336.045 20.2886L378.884 15.9415C380.918 15.7346 382.508 17.0746 382.436 18.9347L381.239 50.0596C381.168 51.918 379.462 53.5928 377.428 53.7998Z" fill="#30D5C8"/>
<path d="M378.714 55.4847C378.279 55.6222 377.828 55.717 377.366 55.7636L377.365 55.764L334.51 60.1133C331.301 60.4385 328.78 58.3163 328.893 55.379L330.091 24.237C330.204 21.3022 332.914 18.6462 336.117 18.3216L378.973 13.9718C382.182 13.6466 384.702 15.7705 384.591 18.7061L383.391 49.8474C383.295 52.3606 381.301 54.6673 378.714 55.4847ZM377.514 51.8511C378.374 51.7621 379.083 51.0601 379.112 50.2828L380.312 19.1415C380.342 18.3625 379.673 17.7993 378.821 17.8869L335.967 22.2362C335.117 22.3167 334.398 23.0272 334.368 23.8062L333.17 54.9453C333.14 55.7243 333.809 56.2863 334.659 56.2004L377.514 51.8511Z" fill="#233863"/>
<path d="M354.952 44.8324C354.72 44.9031 354.48 44.9516 354.238 44.9785C353.35 45.0735 352.52 44.8453 351.898 44.3364L345.21 38.8375C344.402 38.1715 344.419 36.9553 345.248 36.1206C346.076 35.2888 347.406 35.1489 348.218 35.8141L354.278 40.798L368.992 25.8521C369.813 25.0135 371.145 24.8678 371.961 25.5301C372.775 26.1905 372.765 27.4057 371.94 28.2445L356.592 43.8361C356.136 44.302 355.567 44.6444 354.952 44.8324Z" fill="#D4ECFF"/>
<line x1="97.084" y1="466.871" x2="650.417" y2="466.871" stroke="url(#paint1_linear_157_6975)" stroke-width="2"/>
<defs>
<filter id="filter0_f_157_6975" x="0.000640869" y="139.45" width="620.477" height="461.113" filterUnits="userSpaceOnUse" color-interpolation-filters="sRGB">
<feFlood flood-opacity="0" result="BackgroundImageFix"/>
<feBlend mode="normal" in="SourceGraphic" in2="BackgroundImageFix" result="shape"/>
<feGaussianBlur stdDeviation="66.6667" result="effect1_foregroundBlur_157_6975"/>
</filter>
<linearGradient id="paint0_linear_157_6975" x1="498.547" y1="421.021" x2="322.597" y2="223.384" gradientUnits="userSpaceOnUse">
<stop stop-color="#30D5C8"/>
<stop offset="1" stop-color="#7557FF"/>
</linearGradient>
<linearGradient id="paint1_linear_157_6975" x1="97.084" y1="467.871" x2="97.1827" y2="475.778" gradientUnits="userSpaceOnUse">
<stop stop-color="#6DDCFF"/>
<stop offset="1" stop-color="#7557FF"/>
</linearGradient>
<clipPath id="clip0_157_6975">
<rect width="40" height="40" fill="white" transform="translate(199.098 191.218) rotate(-30)"/>
</clipPath>
<clipPath id="clip1_157_6975">
<rect width="49.3333" height="49.3333" fill="white" transform="translate(244.656 119.097) rotate(-4.24253)"/>
</clipPath>
<clipPath id="clip2_157_6975">
<rect width="49.3333" height="49.3333" fill="white" transform="translate(193.295 249.415)"/>
</clipPath>
</defs>
</svg>
