<svg width="32" height="32" viewBox="0 0 32 32" fill="none" xmlns="http://www.w3.org/2000/svg">
<path d="M8.11998 20C7.60067 18.8263 7.33271 17.5569 7.33331 16.2734C7.33331 11.336 11.2133 7.33337 16 7.33337C20.7866 7.33337 24.6666 11.3374 24.6666 16.2747C24.6671 17.5578 24.3991 18.8267 23.88 20" stroke="#3499FF" stroke-width="2" stroke-linecap="round"/>
<path d="M16 2.66669V4.00002M29.3334 16H28M4.00002 16H2.66669M25.4267 6.57069L24.484 7.51335M7.51602 7.51469L6.57335 6.57202M19.356 25.7414C20.7027 25.3054 21.244 24.072 21.396 22.832C21.4414 22.4614 21.136 22.1534 20.7627 22.1534H11.3027C11.2115 22.1519 11.1211 22.1698 11.0374 22.2059C10.9536 22.242 10.8785 22.2955 10.817 22.3628C10.7555 22.4301 10.709 22.5097 10.6805 22.5964C10.6521 22.683 10.6424 22.7747 10.652 22.8654C10.8014 24.1027 11.1774 25.008 12.604 25.7414M19.356 25.7414H12.604M19.356 25.7414C19.1947 28.3347 18.4454 29.3614 16.0094 29.332C13.404 29.38 12.804 28.1107 12.604 25.7414" stroke="#3499FF" stroke-width="2" stroke-linecap="round" stroke-linejoin="round"/>
</svg>
