<svg width="32" height="32" viewBox="0 0 32 32" fill="none" xmlns="http://www.w3.org/2000/svg">
<g clip-path="url(#clip0_152_6756)">
<path d="M25.1647 11.9154C26.4466 11.9154 27.676 12.4246 28.5824 13.331C29.4888 14.2374 29.998 15.4668 29.998 16.7487H31.998C31.998 14.9364 31.2781 13.1983 29.9966 11.9168C28.7151 10.6353 26.977 9.91536 25.1647 9.91536V11.9154ZM29.998 16.7487C29.998 18.0306 29.4888 19.26 28.5824 20.1664C27.676 21.0728 26.4466 21.582 25.1647 21.582V23.582C26.0621 23.582 26.9507 23.4053 27.7797 23.0619C28.6088 22.7185 29.3621 22.2151 29.9966 21.5806C30.6311 20.9461 31.1345 20.1928 31.4779 19.3637C31.8213 18.5346 31.998 17.6461 31.998 16.7487H29.998ZM23.6647 20.082V17.6754H21.6647V20.082H23.6647ZM23.6647 17.6754C23.6647 16.5261 23.2082 15.4239 22.3955 14.6112C21.5829 13.7986 20.4807 13.342 19.3314 13.342V15.342C19.6378 15.342 19.9412 15.4024 20.2243 15.5196C20.5074 15.6369 20.7646 15.8088 20.9813 16.0254C21.198 16.2421 21.3698 16.4993 21.4871 16.7824C21.6044 17.0655 21.6647 17.3689 21.6647 17.6754H23.6647ZM19.3314 13.342H12.6647V15.342H19.3314V13.342ZM12.6647 13.342C11.5154 13.342 10.4132 13.7986 9.60058 14.6112C8.78792 15.4239 8.33138 16.5261 8.33138 17.6754H10.3314C10.3314 17.0565 10.5772 16.463 11.0148 16.0254C11.4524 15.5879 12.0459 15.342 12.6647 15.342V13.342ZM8.33138 17.6754V20.082H10.3314V17.6754H8.33138ZM6.83138 21.582C5.5495 21.582 4.32012 21.0728 3.4137 20.1664C2.50727 19.26 1.99805 18.0306 1.99805 16.7487H-0.00195312C-0.00195312 17.6461 0.174796 18.5346 0.518203 19.3637C0.86161 20.1928 1.36495 20.9461 1.99948 21.5806C3.28098 22.8621 5.01907 23.582 6.83138 23.582V21.582ZM1.99805 16.7487C1.99805 15.4668 2.50727 14.2374 3.4137 13.331C4.32012 12.4246 5.5495 11.9154 6.83138 11.9154V9.91536C5.01907 9.91536 3.28098 10.6353 1.99948 11.9168C0.717985 13.1983 -0.00195312 14.9364 -0.00195312 16.7487H1.99805ZM6.84471 9.0937C6.78693 9.38821 6.74245 9.68518 6.71138 9.9837L8.70138 10.1837C8.72471 9.95036 8.75971 9.71703 8.80638 9.4837L6.84471 9.0937ZM8.59305 5.2337C7.72143 6.36915 7.12433 7.68986 6.84471 9.0937L8.80638 9.48536C9.02551 8.38233 9.4954 7.34446 10.1797 6.45203L8.59305 5.2337ZM11.8697 2.54536C10.586 3.17786 9.46485 4.09877 8.59305 5.2337L10.1797 6.4487C10.8648 5.55666 11.7458 4.83581 12.7547 4.3387L11.8697 2.54536ZM15.998 1.58203C14.5663 1.58224 13.1537 1.91185 11.8697 2.54536L12.7547 4.3387C13.764 3.84082 14.8726 3.58192 15.998 3.58203V1.58203ZM20.1264 2.54536C18.8424 1.91185 17.4298 1.58224 15.998 1.58203V3.58203C17.1229 3.58217 18.2326 3.84107 19.2414 4.3387L20.1264 2.54536ZM23.403 5.2337C22.5314 4.09817 21.4103 3.17834 20.1264 2.54536L19.2414 4.3387C20.2489 4.83575 21.1304 5.55766 21.8147 6.4487L23.403 5.2337ZM25.1514 9.0937C24.8718 7.68986 24.2747 6.36915 23.403 5.2337L21.8164 6.45036C22.4997 7.3437 22.9714 8.38203 23.1914 9.4837L25.1514 9.0937ZM25.2847 9.9837C25.2536 9.68518 25.2092 9.38821 25.1514 9.0937L23.1897 9.48536C23.2364 9.71648 23.2714 9.94925 23.2947 10.1837L25.2847 9.9837ZM6.83138 11.9154C7.86471 11.9154 8.60971 11.0904 8.70138 10.1837L6.71138 9.98203C6.71027 9.97536 6.71582 9.96592 6.72805 9.9537L6.76638 9.9287C6.78693 9.91994 6.80904 9.91541 6.83138 9.91536V11.9154ZM8.33138 20.082C8.33138 20.4837 8.33138 20.7354 8.31805 20.9254C8.3181 21.0084 8.30574 21.091 8.28138 21.1704L10.128 21.9354C10.2514 21.6387 10.2947 21.3454 10.313 21.062C10.3314 20.787 10.3314 20.457 10.3314 20.082H8.33138ZM6.83138 23.582C7.20638 23.582 7.53638 23.582 7.81138 23.5654C8.09471 23.5454 8.38971 23.502 8.68471 23.3787L7.91971 21.532C7.84033 21.5564 7.75775 21.5687 7.67471 21.5687C7.39381 21.582 7.11256 21.5865 6.83138 21.582V23.582ZM8.28138 21.1704C8.24787 21.2515 8.19867 21.3252 8.13661 21.3873C8.07455 21.4493 8.00084 21.4985 7.91971 21.532L8.68471 23.3787C9.33757 23.1077 9.85778 22.5885 10.128 21.9354L8.28138 21.1704ZM25.1647 21.582C24.763 21.582 24.5114 21.582 24.3214 21.5687C24.2383 21.5687 24.1558 21.5547 24.0764 21.5304L23.3097 23.3787C23.6064 23.502 23.9014 23.5454 24.1847 23.5637C24.4597 23.582 24.7897 23.582 25.1647 23.582V21.582ZM21.6647 20.082C21.6647 20.457 21.6647 20.787 21.6814 21.062C21.7014 21.3454 21.7447 21.6404 21.868 21.9354L23.7147 21.1687C23.6903 21.0893 23.678 21.0084 23.678 20.9254C23.6647 20.6445 23.6603 20.3632 23.6647 20.082H21.6647ZM24.0764 21.5304C23.9953 21.4969 23.9215 21.4493 23.8595 21.3873C23.7974 21.3252 23.7482 21.2498 23.7147 21.1687L21.868 21.9354C22.1391 22.5882 22.6582 23.1084 23.3114 23.3787L24.0764 21.5304ZM25.1647 9.91536C25.1869 9.91536 25.2086 9.91981 25.2297 9.9287C25.2475 9.93759 25.2603 9.94592 25.268 9.9537C25.2803 9.96592 25.2858 9.97592 25.2847 9.9837L23.2947 10.1837C23.3864 11.0887 24.1297 11.9154 25.1647 11.9154V9.91536Z" fill="#6B8BBA"/>
<path d="M19.332 14.249H12.6654C10.8244 14.249 9.33203 15.7414 9.33203 17.5824V27.5824C9.33203 29.4233 10.8244 30.9157 12.6654 30.9157H19.332C21.173 30.9157 22.6654 29.4233 22.6654 27.5824V17.5824C22.6654 15.7414 21.173 14.249 19.332 14.249Z" stroke="#6B8BBA" stroke-width="1.46885"/>
<path d="M15.165 22.582H16.8317Z" fill="#6B8BBA"/>
<path d="M15.165 22.582H16.8317" stroke="#6B8BBA" stroke-width="1.46885" stroke-linecap="round"/>
</g>
<defs>
<clipPath id="clip0_152_6756">
<rect width="32" height="32" fill="white"/>
</clipPath>
</defs>
</svg>
