<svg width="64" height="64" viewBox="0 0 64 64" fill="none" xmlns="http://www.w3.org/2000/svg">
<path d="M21.333 48C16.885 48 13.1063 46.4453 9.99701 43.336C6.88767 40.2267 5.33301 36.448 5.33301 32C5.33301 27.552 6.88767 23.7733 9.99701 20.664C13.1063 17.5547 16.885 16 21.333 16C22.9437 16 24.4868 16.2311 25.9623 16.6933C27.4379 17.1556 28.7934 17.8258 30.029 18.704C28.205 20.4373 26.7952 22.4551 25.7997 24.7573C24.8041 27.0631 24.3063 29.4773 24.3063 32C24.3063 34.5227 24.8041 36.9369 25.7997 39.2427C26.7952 41.5484 28.2059 43.5662 30.0317 45.296C28.7943 46.176 27.4379 46.8462 25.9623 47.3067C24.4868 47.7689 22.9437 48 21.333 48ZM42.6663 48C41.0557 48 39.5135 47.7689 38.0397 47.3067C36.5659 46.8444 35.2086 46.1751 33.9677 45.2987C34.3143 44.984 34.6415 44.648 34.949 44.2907L35.8663 43.2213C36.8334 43.8916 37.8903 44.4107 39.037 44.7787C40.1837 45.1467 41.3935 45.3316 42.6663 45.3333C46.3552 45.3333 49.5001 44.0329 52.101 41.432C54.7019 38.8311 56.0014 35.6871 55.9997 32C55.9979 28.3129 54.6975 25.1689 52.0983 22.568C49.4992 19.9671 46.3552 18.6667 42.6663 18.6667C41.3917 18.6667 40.181 18.8516 39.0343 19.2213C37.8877 19.5911 36.8317 20.1102 35.8663 20.7787L34.949 19.712C34.6415 19.3547 34.3152 19.0178 33.9703 18.7013C35.2059 17.8231 36.5615 17.1538 38.037 16.6933C39.5143 16.2311 41.0575 16 42.6663 16C47.1143 16 50.893 17.5547 54.0023 20.664C57.1117 23.7733 58.6663 27.552 58.6663 32C58.6663 36.448 57.1117 40.2267 54.0023 43.336C50.893 46.4453 47.1143 48 42.6663 48ZM31.9997 43.8453C30.3215 42.352 29.013 40.5742 28.0743 38.512C27.1357 36.4498 26.6663 34.2791 26.6663 32C26.6663 29.7209 27.1357 27.5502 28.0743 25.488C29.013 23.4258 30.3215 21.648 31.9997 20.1547C33.6779 21.648 34.9863 23.4258 35.925 25.488C36.8637 27.5502 37.333 29.7209 37.333 32C37.333 34.2791 36.8637 36.4498 35.925 38.512C34.9863 40.5742 33.6779 42.352 31.9997 43.8453Z" fill="url(#paint0_linear_61_6620)"/>
<defs>
<linearGradient id="paint0_linear_61_6620" x1="65.333" y1="54.6667" x2="9.99967" y2="19.3333" gradientUnits="userSpaceOnUse">
<stop stop-color="#66F2C3"/>
<stop offset="0.940724" stop-color="#75BAFF"/>
</linearGradient>
</defs>
</svg>
