<svg width="64" height="64" viewBox="0 0 64 64" fill="none" xmlns="http://www.w3.org/2000/svg">
<path d="M44 37.5H52C52.9283 37.5 53.8185 37.1312 54.4749 36.4749C55.1312 35.8185 55.5 34.9283 55.5 34V26C55.5 25.0717 55.1312 24.1815 54.4749 23.5251C53.8185 22.8687 52.9283 22.5 52 22.5H44C43.0717 22.5 42.1815 22.8687 41.5251 23.5251C40.8688 24.1815 40.5 25.0717 40.5 26V28.5H21.5V19.5H24C24.9283 19.5 25.8185 19.1313 26.4749 18.4749C27.1313 17.8185 27.5 16.9283 27.5 16V8C27.5 7.07174 27.1313 6.1815 26.4749 5.52513C25.8185 4.86875 24.9283 4.5 24 4.5H16C15.0717 4.5 14.1815 4.86875 13.5251 5.52513C12.8687 6.1815 12.5 7.07174 12.5 8V16C12.5 16.9283 12.8687 17.8185 13.5251 18.4749C14.1815 19.1313 15.0717 19.5 16 19.5H18.5V48C18.5 49.4587 19.0795 50.8576 20.1109 51.8891C21.1424 52.9205 22.5413 53.5 24 53.5H40.5V56C40.5 56.9283 40.8688 57.8185 41.5251 58.4749C42.1815 59.1312 43.0717 59.5 44 59.5H52C52.9283 59.5 53.8185 59.1312 54.4749 58.4749C55.1312 57.8185 55.5 56.9283 55.5 56V48C55.5 47.0717 55.1312 46.1815 54.4749 45.5251C53.8185 44.8688 52.9283 44.5 52 44.5H44C43.0717 44.5 42.1815 44.8688 41.5251 45.5251C40.8688 46.1815 40.5 47.0717 40.5 48V50.5H24C23.337 50.5 22.7011 50.2366 22.2322 49.7678C21.7634 49.2989 21.5 48.663 21.5 48V31.5H40.5V34C40.5 34.9283 40.8688 35.8185 41.5251 36.4749C42.1815 37.1312 43.0717 37.5 44 37.5ZM15.5 16V8C15.5 7.86739 15.5527 7.74021 15.6464 7.64645C15.7402 7.55268 15.8674 7.5 16 7.5H24C24.1326 7.5 24.2598 7.55268 24.3536 7.64645C24.4473 7.74021 24.5 7.86739 24.5 8V16C24.5 16.1326 24.4473 16.2598 24.3536 16.3536C24.2598 16.4473 24.1326 16.5 24 16.5H16C15.8674 16.5 15.7402 16.4473 15.6464 16.3536C15.5527 16.2598 15.5 16.1326 15.5 16ZM43.5 48C43.5 47.8674 43.5527 47.7402 43.6464 47.6464C43.7402 47.5527 43.8674 47.5 44 47.5H52C52.1326 47.5 52.2598 47.5527 52.3536 47.6464C52.4473 47.7402 52.5 47.8674 52.5 48V56C52.5 56.1326 52.4473 56.2598 52.3536 56.3536C52.2598 56.4473 52.1326 56.5 52 56.5H44C43.8674 56.5 43.7402 56.4473 43.6464 56.3536C43.5527 56.2598 43.5 56.1326 43.5 56V48ZM43.5 26C43.5 25.8674 43.5527 25.7402 43.6464 25.6464C43.7402 25.5527 43.8674 25.5 44 25.5H52C52.1326 25.5 52.2598 25.5527 52.3536 25.6464C52.4473 25.7402 52.5 25.8674 52.5 26V34C52.5 34.1326 52.4473 34.2598 52.3536 34.3536C52.2598 34.4473 52.1326 34.5 52 34.5H44C43.8674 34.5 43.7402 34.4473 43.6464 34.3536C43.5527 34.2598 43.5 34.1326 43.5 34V26Z" fill="url(#paint0_linear_61_6630)"/>
<defs>
<linearGradient id="paint0_linear_61_6630" x1="16" y1="12" x2="59.3333" y2="69.3333" gradientUnits="userSpaceOnUse">
<stop stop-color="#75BAFF"/>
<stop offset="1" stop-color="#66F2C3"/>
</linearGradient>
</defs>
</svg>
