<svg width="273" height="390" viewBox="0 0 273 390" fill="none" xmlns="http://www.w3.org/2000/svg">
<path opacity="0.4" d="M31.6336 37.9722C16.2756 37.9722 3.82812 25.5248 3.82812 10.1668C3.82812 -5.1912 16.2756 -17.6387 31.6336 -17.6387H241.346V-30.2214V-141.25" stroke="#8EA1BD" stroke-width="5" stroke-linecap="round" stroke-linejoin="round"/>
<path opacity="0.3" d="M74.1367 37.9727H241.342C256.7 37.9727 269.147 50.4201 269.147 65.7781C269.147 81.1361 256.7 93.5836 241.342 93.5836" stroke="#3499FF" stroke-width="5" stroke-linecap="round" stroke-linejoin="round"/>
<path d="M31.6336 149.18C16.2756 149.18 3.82812 136.733 3.82812 121.375C3.82812 106.017 16.2756 93.5693 31.6336 93.5693H198.839" stroke="#8EA1BD" stroke-width="5" stroke-linecap="round" stroke-linejoin="round"/>
<path d="M74.1367 149.181H241.342C256.7 149.181 269.147 161.628 269.147 176.986C269.147 192.344 256.7 204.792 241.342 204.792" stroke="#3499FF" stroke-width="5" stroke-linecap="round" stroke-linejoin="round"/>
<g opacity="0.4" filter="url(#filter0_d_1_98)">
<path d="M241.345 87.4036C229.419 87.4036 219.713 77.6975 219.713 65.7712C219.713 53.8449 229.419 44.1387 241.345 44.1387C253.272 44.1387 262.978 53.8449 262.978 65.7712C262.978 77.6975 253.272 87.4036 241.345 87.4036Z" fill="#BBD1F0"/>
</g>
<path opacity="0.5" d="M241.346 82.0013C232.398 82.0013 225.115 74.7183 225.115 65.7702C225.115 56.8221 232.398 49.5391 241.346 49.5391C250.294 49.5391 257.578 56.8221 257.578 65.7702C257.578 74.7183 250.294 82.0013 241.346 82.0013Z" fill="#4D72A8"/>
<g filter="url(#filter1_d_1_98)">
<path d="M31.6325 143.007C19.7062 143.007 10 133.301 10 121.375C10 109.448 19.7062 99.7422 31.6325 99.7422C43.5588 99.7422 53.265 109.448 53.265 121.375C53.265 133.301 43.5588 143.007 31.6325 143.007Z" fill="#BBD1F0"/>
</g>
<path d="M31.6335 137.607C22.6854 137.607 15.4023 130.324 15.4023 121.376C15.4023 112.428 22.6854 105.145 31.6335 105.145C40.5816 105.145 47.8646 112.428 47.8646 121.376C47.8646 130.324 40.5816 137.607 31.6335 137.607Z" fill="#4D72A8"/>
<path d="M32.1218 128.949C31.0612 128.949 30.1166 128.767 29.288 128.402C28.4641 128.033 27.8131 127.526 27.3349 126.882C26.8614 126.233 26.6175 125.485 26.6033 124.638H29.6999C29.7189 124.993 29.8349 125.305 30.0479 125.575C30.2657 125.84 30.5546 126.046 30.9144 126.193C31.2743 126.34 31.6791 126.413 32.1289 126.413C32.5977 126.413 33.012 126.33 33.3718 126.165C33.7317 125.999 34.0134 125.769 34.217 125.476C34.4206 125.182 34.5224 124.844 34.5224 124.46C34.5224 124.072 34.4135 123.729 34.1957 123.43C33.9826 123.127 33.6748 122.891 33.2724 122.72C32.8746 122.55 32.4012 122.464 31.8519 122.464H30.4954V120.206H31.8519C32.3159 120.206 32.7255 120.125 33.0806 119.964C33.4405 119.804 33.7198 119.581 33.9187 119.297C34.1175 119.008 34.217 118.672 34.217 118.288C34.217 117.924 34.1294 117.604 33.9542 117.33C33.7837 117.05 33.5423 116.832 33.2298 116.676C32.922 116.52 32.5621 116.442 32.1502 116.442C31.7335 116.442 31.3524 116.518 31.0067 116.669C30.6611 116.816 30.3841 117.027 30.1758 117.301C29.9674 117.576 29.8562 117.898 29.842 118.267H26.8945C26.9087 117.429 27.1478 116.69 27.6119 116.051C28.0759 115.412 28.7009 114.912 29.4869 114.553C30.2776 114.188 31.1701 114.006 32.1644 114.006C33.1682 114.006 34.0465 114.188 34.7994 114.553C35.5522 114.917 36.137 115.41 36.5536 116.03C36.975 116.645 37.1834 117.337 37.1786 118.104C37.1834 118.918 36.93 119.598 36.4187 120.142C35.9121 120.687 35.2515 121.032 34.4371 121.179V121.293C35.5072 121.43 36.3216 121.802 36.8803 122.408C37.4438 123.009 37.7231 123.762 37.7184 124.666C37.7231 125.495 37.484 126.231 37.0011 126.875C36.5228 127.519 35.8623 128.026 35.0195 128.395C34.1767 128.764 33.2108 128.949 32.1218 128.949Z" fill="#B8D0F2"/>
<g filter="url(#filter2_d_1_98)">
<path d="M241.345 198.613C229.419 198.613 219.713 188.906 219.713 176.98C219.713 165.054 229.419 155.348 241.345 155.348C253.272 155.348 262.978 165.054 262.978 176.98C262.978 188.906 253.272 198.613 241.345 198.613Z" fill="#BBD1F0"/>
</g>
<path d="M241.346 193.21C232.398 193.21 225.115 185.927 225.115 176.979C225.115 168.031 232.398 160.748 241.346 160.748C250.294 160.748 257.578 168.031 257.578 176.979C257.578 185.927 250.294 193.21 241.346 193.21Z" fill="#4D72A8"/>
<path d="M235.34 181.193V178.771L241.412 169.205H243.5V172.557H242.264L238.436 178.615V178.729H247.066V181.193H235.34ZM242.321 183.75V180.455L242.378 179.382V169.205H245.262V183.75H242.321Z" fill="#B8D0F2"/>
<g opacity="0.4" filter="url(#filter3_d_1_98)">
<path d="M31.6325 31.8001C19.7062 31.8001 10 22.0939 10 10.1676C10 -1.75865 19.7062 -11.4648 31.6325 -11.4648C43.5588 -11.4648 53.265 -1.75865 53.265 10.1676C53.265 22.0939 43.5588 31.8001 31.6325 31.8001Z" fill="#BBD1F0"/>
</g>
<path opacity="0.5" d="M31.6335 26.3978C22.6854 26.3978 15.4023 19.1148 15.4023 10.1667C15.4023 1.21857 22.6854 -6.06445 31.6335 -6.06445C40.5816 -6.06445 47.8646 1.21857 47.8646 10.1667C47.8646 19.1148 40.5816 26.3978 31.6335 26.3978Z" fill="#4D72A8"/>
<circle cx="74.1375" cy="149.18" r="1.69215" fill="#8EA1BD"/>
<path d="M68.2367 149.181H41.6699" stroke="#8EA1BD" stroke-width="5" stroke-linecap="round" stroke-linejoin="round"/>
<circle cx="38.7175" cy="149.18" r="1.69215" fill="#8EA1BD"/>
<circle opacity="0.4" cx="234.257" cy="93.5769" r="1.69215" fill="#3499FF"/>
<path opacity="0.3" d="M228.354 93.5762H201.787" stroke="#3499FF" stroke-width="5" stroke-linecap="round" stroke-linejoin="round"/>
<circle opacity="0.4" cx="196.839" cy="93.5769" r="1.69215" fill="#3499FF"/>
<circle opacity="0.8" cx="234.257" cy="204.785" r="1.69215" fill="#3499FF"/>
<path opacity="0.8" d="M228.354 204.785H201.787" stroke="#3499FF" stroke-width="5" stroke-linecap="round" stroke-linejoin="round"/>
<circle cx="198.837" cy="204.785" r="1.69215" fill="#1460D0"/>
<circle opacity="0.4" cx="74.1375" cy="37.9715" r="1.69215" fill="#8EA1BD"/>
<path opacity="0.4" d="M68.2367 37.9727H41.6699" stroke="#8EA1BD" stroke-width="5" stroke-linecap="round" stroke-linejoin="round"/>
<circle opacity="0.4" cx="38.7175" cy="37.9715" r="1.69215" fill="#8EA1BD"/>
<path opacity="0.3" d="M31.6336 260.659C16.2756 260.659 3.82812 248.211 3.82812 232.853C3.82812 217.495 16.2756 205.048 31.6336 205.048H200.734" stroke="#8EA1BD" stroke-width="5" stroke-linecap="round" stroke-linejoin="round"/>
<path opacity="0.3" d="M74.1367 260.66H241.342C256.7 260.66 269.147 273.108 269.147 288.466C269.147 303.824 256.7 316.271 241.342 316.271" stroke="#3499FF" stroke-width="5" stroke-linecap="round" stroke-linejoin="round"/>
<path opacity="0.3" d="M31.6336 371.868C16.2756 371.868 3.82812 359.42 3.82812 344.062C3.82812 328.704 16.2756 316.257 31.6336 316.257H198.839" stroke="#8EA1BD" stroke-opacity="0.9" stroke-width="5" stroke-linecap="round" stroke-linejoin="round"/>
<path opacity="0.3" d="M74.1367 371.867H241.342C256.7 371.867 269.147 384.315 269.147 399.673C269.147 415.031 256.7 427.478 241.342 427.478" stroke="#3499FF" stroke-width="5" stroke-linecap="round" stroke-linejoin="round"/>
<g opacity="0.4" filter="url(#filter4_d_1_98)">
<path d="M241.345 310.091C229.419 310.091 219.713 300.385 219.713 288.459C219.713 276.532 229.419 266.826 241.345 266.826C253.272 266.826 262.978 276.532 262.978 288.459C262.978 300.385 253.272 310.091 241.345 310.091Z" fill="#BBD1F0"/>
</g>
<path opacity="0.5" d="M241.346 304.689C232.398 304.689 225.115 297.406 225.115 288.458C225.115 279.51 232.398 272.227 241.346 272.227C250.294 272.227 257.578 279.51 257.578 288.458C257.578 297.406 250.294 304.689 241.346 304.689Z" fill="#4D72A8"/>
<g opacity="0.4" filter="url(#filter5_d_1_98)">
<path d="M31.6325 365.695C19.7062 365.695 10 355.988 10 344.062C10 332.136 19.7062 322.43 31.6325 322.43C43.5588 322.43 53.265 332.136 53.265 344.062C53.265 355.988 43.5588 365.695 31.6325 365.695Z" fill="#BBD1F0"/>
</g>
<path opacity="0.5" d="M31.6335 360.293C22.6854 360.293 15.4023 353.01 15.4023 344.062C15.4023 335.114 22.6854 327.831 31.6335 327.831C40.5816 327.831 47.8646 335.114 47.8646 344.062C47.8646 353.01 40.5816 360.293 31.6335 360.293Z" fill="#4D72A8"/>
<g opacity="0.4" filter="url(#filter6_d_1_98)">
<path d="M241.345 421.3C229.419 421.3 219.713 411.594 219.713 399.668C219.713 387.741 229.419 378.035 241.345 378.035C253.272 378.035 262.978 387.741 262.978 399.668C262.978 411.594 253.272 421.3 241.345 421.3Z" fill="#BBD1F0"/>
</g>
<path opacity="0.5" d="M241.346 415.898C232.398 415.898 225.115 408.615 225.115 399.667C225.115 390.719 232.398 383.436 241.346 383.436C250.294 383.436 257.578 390.719 257.578 399.667C257.578 408.615 250.294 415.898 241.346 415.898Z" fill="#4D72A8"/>
<g opacity="0.4" filter="url(#filter7_d_1_98)">
<path d="M31.6325 254.487C19.7062 254.487 10 244.78 10 232.854C10 220.928 19.7062 211.222 31.6325 211.222C43.5588 211.222 53.265 220.928 53.265 232.854C53.265 244.78 43.5588 254.487 31.6325 254.487Z" fill="#BBD1F0"/>
</g>
<path opacity="0.5" d="M31.6335 249.084C22.6854 249.084 15.4023 241.801 15.4023 232.853C15.4023 223.905 22.6854 216.622 31.6335 216.622C40.5816 216.622 47.8646 223.905 47.8646 232.853C47.8646 241.801 40.5816 249.084 31.6335 249.084Z" fill="#4D72A8"/>
<circle opacity="0.4" cx="74.1375" cy="371.868" r="1.69215" fill="#8EA1BD"/>
<path opacity="0.4" d="M68.2367 371.867H41.6699" stroke="#8EA1BD" stroke-width="5" stroke-linecap="round" stroke-linejoin="round"/>
<circle opacity="0.4" cx="38.7175" cy="371.868" r="1.69215" fill="#8EA1BD"/>
<circle opacity="0.4" cx="234.257" cy="316.263" r="1.69215" fill="#3499FF"/>
<path opacity="0.3" d="M228.354 316.264H201.787" stroke="#3499FF" stroke-width="5" stroke-linecap="round" stroke-linejoin="round"/>
<circle opacity="0.4" cx="198.837" cy="316.263" r="1.69215" fill="#3499FF"/>
<circle opacity="0.4" cx="74.1375" cy="260.659" r="1.69215" fill="#8EA1BD"/>
<path opacity="0.4" d="M68.2367 260.66H41.6699" stroke="#8EA1BD" stroke-width="5" stroke-linecap="round" stroke-linejoin="round"/>
<circle opacity="0.4" cx="38.7175" cy="260.659" r="1.69215" fill="#8EA1BD"/>
<defs>
<filter id="filter0_d_1_98" x="209.713" y="34.1387" width="63.265" height="63.265" filterUnits="userSpaceOnUse" color-interpolation-filters="sRGB">
<feFlood flood-opacity="0" result="BackgroundImageFix"/>
<feColorMatrix in="SourceAlpha" type="matrix" values="0 0 0 0 0 0 0 0 0 0 0 0 0 0 0 0 0 0 127 0" result="hardAlpha"/>
<feOffset/>
<feGaussianBlur stdDeviation="5"/>
<feColorMatrix type="matrix" values="0 0 0 0 0.45098 0 0 0 0 0.627451 0 0 0 0 0.886275 0 0 0 1 0"/>
<feBlend mode="normal" in2="BackgroundImageFix" result="effect1_dropShadow_1_98"/>
<feBlend mode="normal" in="SourceGraphic" in2="effect1_dropShadow_1_98" result="shape"/>
</filter>
<filter id="filter1_d_1_98" x="0" y="89.7422" width="63.265" height="63.265" filterUnits="userSpaceOnUse" color-interpolation-filters="sRGB">
<feFlood flood-opacity="0" result="BackgroundImageFix"/>
<feColorMatrix in="SourceAlpha" type="matrix" values="0 0 0 0 0 0 0 0 0 0 0 0 0 0 0 0 0 0 127 0" result="hardAlpha"/>
<feOffset/>
<feGaussianBlur stdDeviation="5"/>
<feColorMatrix type="matrix" values="0 0 0 0 0.45098 0 0 0 0 0.627451 0 0 0 0 0.886275 0 0 0 1 0"/>
<feBlend mode="normal" in2="BackgroundImageFix" result="effect1_dropShadow_1_98"/>
<feBlend mode="normal" in="SourceGraphic" in2="effect1_dropShadow_1_98" result="shape"/>
</filter>
<filter id="filter2_d_1_98" x="209.713" y="145.348" width="63.265" height="63.265" filterUnits="userSpaceOnUse" color-interpolation-filters="sRGB">
<feFlood flood-opacity="0" result="BackgroundImageFix"/>
<feColorMatrix in="SourceAlpha" type="matrix" values="0 0 0 0 0 0 0 0 0 0 0 0 0 0 0 0 0 0 127 0" result="hardAlpha"/>
<feOffset/>
<feGaussianBlur stdDeviation="5"/>
<feColorMatrix type="matrix" values="0 0 0 0 0.45098 0 0 0 0 0.627451 0 0 0 0 0.886275 0 0 0 1 0"/>
<feBlend mode="normal" in2="BackgroundImageFix" result="effect1_dropShadow_1_98"/>
<feBlend mode="normal" in="SourceGraphic" in2="effect1_dropShadow_1_98" result="shape"/>
</filter>
<filter id="filter3_d_1_98" x="0" y="-21.4648" width="63.265" height="63.265" filterUnits="userSpaceOnUse" color-interpolation-filters="sRGB">
<feFlood flood-opacity="0" result="BackgroundImageFix"/>
<feColorMatrix in="SourceAlpha" type="matrix" values="0 0 0 0 0 0 0 0 0 0 0 0 0 0 0 0 0 0 127 0" result="hardAlpha"/>
<feOffset/>
<feGaussianBlur stdDeviation="5"/>
<feColorMatrix type="matrix" values="0 0 0 0 0.45098 0 0 0 0 0.627451 0 0 0 0 0.886275 0 0 0 1 0"/>
<feBlend mode="normal" in2="BackgroundImageFix" result="effect1_dropShadow_1_98"/>
<feBlend mode="normal" in="SourceGraphic" in2="effect1_dropShadow_1_98" result="shape"/>
</filter>
<filter id="filter4_d_1_98" x="209.713" y="256.826" width="63.265" height="63.265" filterUnits="userSpaceOnUse" color-interpolation-filters="sRGB">
<feFlood flood-opacity="0" result="BackgroundImageFix"/>
<feColorMatrix in="SourceAlpha" type="matrix" values="0 0 0 0 0 0 0 0 0 0 0 0 0 0 0 0 0 0 127 0" result="hardAlpha"/>
<feOffset/>
<feGaussianBlur stdDeviation="5"/>
<feColorMatrix type="matrix" values="0 0 0 0 0.45098 0 0 0 0 0.627451 0 0 0 0 0.886275 0 0 0 1 0"/>
<feBlend mode="normal" in2="BackgroundImageFix" result="effect1_dropShadow_1_98"/>
<feBlend mode="normal" in="SourceGraphic" in2="effect1_dropShadow_1_98" result="shape"/>
</filter>
<filter id="filter5_d_1_98" x="0" y="312.43" width="63.265" height="63.265" filterUnits="userSpaceOnUse" color-interpolation-filters="sRGB">
<feFlood flood-opacity="0" result="BackgroundImageFix"/>
<feColorMatrix in="SourceAlpha" type="matrix" values="0 0 0 0 0 0 0 0 0 0 0 0 0 0 0 0 0 0 127 0" result="hardAlpha"/>
<feOffset/>
<feGaussianBlur stdDeviation="5"/>
<feColorMatrix type="matrix" values="0 0 0 0 0.45098 0 0 0 0 0.627451 0 0 0 0 0.886275 0 0 0 1 0"/>
<feBlend mode="normal" in2="BackgroundImageFix" result="effect1_dropShadow_1_98"/>
<feBlend mode="normal" in="SourceGraphic" in2="effect1_dropShadow_1_98" result="shape"/>
</filter>
<filter id="filter6_d_1_98" x="209.713" y="368.035" width="63.265" height="63.265" filterUnits="userSpaceOnUse" color-interpolation-filters="sRGB">
<feFlood flood-opacity="0" result="BackgroundImageFix"/>
<feColorMatrix in="SourceAlpha" type="matrix" values="0 0 0 0 0 0 0 0 0 0 0 0 0 0 0 0 0 0 127 0" result="hardAlpha"/>
<feOffset/>
<feGaussianBlur stdDeviation="5"/>
<feColorMatrix type="matrix" values="0 0 0 0 0.45098 0 0 0 0 0.627451 0 0 0 0 0.886275 0 0 0 1 0"/>
<feBlend mode="normal" in2="BackgroundImageFix" result="effect1_dropShadow_1_98"/>
<feBlend mode="normal" in="SourceGraphic" in2="effect1_dropShadow_1_98" result="shape"/>
</filter>
<filter id="filter7_d_1_98" x="0" y="201.222" width="63.265" height="63.265" filterUnits="userSpaceOnUse" color-interpolation-filters="sRGB">
<feFlood flood-opacity="0" result="BackgroundImageFix"/>
<feColorMatrix in="SourceAlpha" type="matrix" values="0 0 0 0 0 0 0 0 0 0 0 0 0 0 0 0 0 0 127 0" result="hardAlpha"/>
<feOffset/>
<feGaussianBlur stdDeviation="5"/>
<feColorMatrix type="matrix" values="0 0 0 0 0.45098 0 0 0 0 0.627451 0 0 0 0 0.886275 0 0 0 1 0"/>
<feBlend mode="normal" in2="BackgroundImageFix" result="effect1_dropShadow_1_98"/>
<feBlend mode="normal" in="SourceGraphic" in2="effect1_dropShadow_1_98" result="shape"/>
</filter>
</defs>
</svg>
