<svg width="289" height="390" viewBox="0 0 289 390" fill="none" xmlns="http://www.w3.org/2000/svg">
<path opacity="0.4" d="M39.3758 42.1803C24.0178 42.1803 11.5703 29.7328 11.5703 14.3748C11.5703 -0.983184 24.0178 -13.4307 39.3758 -13.4307H206.581" stroke="#8EA1BD" stroke-width="5" stroke-linecap="round" stroke-linejoin="round"/>
<path opacity="0.3" d="M81.8789 42.1807H249.084C264.442 42.1807 276.889 54.6282 276.889 69.9861C276.889 85.3441 264.442 97.7916 249.084 97.7916" stroke="#3499FF" stroke-width="5" stroke-linecap="round" stroke-linejoin="round"/>
<g opacity="0.4" filter="url(#filter0_d_1_187)">
<path d="M39.3747 36.0072C27.4484 36.0072 17.7422 26.301 17.7422 14.3747C17.7422 2.44838 27.4484 -7.25781 39.3747 -7.25781C51.301 -7.25781 61.0072 2.44838 61.0072 14.3747C61.0072 26.301 51.301 36.0072 39.3747 36.0072Z" fill="#BBD1F0"/>
</g>
<path opacity="0.5" d="M39.3757 30.6068C30.4276 30.6068 23.1445 23.3238 23.1445 14.3757C23.1445 5.42756 30.4276 -1.85547 39.3757 -1.85547C48.3238 -1.85547 55.6068 5.42756 55.6068 14.3757C55.6068 23.3238 48.3238 30.6068 39.3757 30.6068Z" fill="#4D72A8"/>
<g opacity="0.4" filter="url(#filter1_d_1_187)">
<path d="M249.088 91.6126C237.161 91.6126 227.455 81.9064 227.455 69.9801C227.455 58.0538 237.161 48.3477 249.088 48.3477C261.014 48.3477 270.72 58.0538 270.72 69.9801C270.72 81.9064 261.014 91.6126 249.088 91.6126Z" fill="#BBD1F0"/>
</g>
<path opacity="0.5" d="M249.089 86.2103C240.14 86.2103 232.857 78.9273 232.857 69.9792C232.857 61.0311 240.14 53.748 249.089 53.748C258.037 53.748 265.32 61.0311 265.32 69.9792C265.32 78.9273 258.037 86.2103 249.089 86.2103Z" fill="#4D72A8"/>
<circle opacity="0.4" cx="81.8797" cy="42.1804" r="1.69215" fill="#8EA1BD"/>
<path opacity="0.4" d="M75.9789 42.1807H49.4121" stroke="#8EA1BD" stroke-width="5" stroke-linecap="round" stroke-linejoin="round"/>
<circle opacity="0.4" cx="46.4597" cy="42.1804" r="1.69215" fill="#8EA1BD"/>
<circle opacity="0.4" cx="241.999" cy="97.7849" r="1.69215" fill="#3499FF"/>
<path opacity="0.3" d="M236.096 97.7852H209.529" stroke="#3499FF" stroke-width="5" stroke-linecap="round" stroke-linejoin="round"/>
<circle cx="206.579" cy="97.7849" r="1.69215" fill="#1460D0"/>
<path d="M39.3758 153.659C24.0178 153.659 11.5703 141.211 11.5703 125.853C11.5703 110.495 24.0178 98.0479 39.3758 98.0479H208.476" stroke="#8EA1BD" stroke-width="5" stroke-linecap="round" stroke-linejoin="round"/>
<path d="M81.8789 153.66H249.084C264.442 153.66 276.889 166.108 276.889 181.466C276.889 196.824 264.442 209.271 249.084 209.271" stroke="#3499FF" stroke-width="5" stroke-linecap="round" stroke-linejoin="round"/>
<path opacity="0.3" d="M39.3758 264.868C24.0178 264.868 11.5703 252.42 11.5703 237.062C11.5703 221.704 24.0178 209.257 39.3758 209.257H206.581" stroke="#8EA1BD" stroke-opacity="0.9" stroke-width="5" stroke-linecap="round" stroke-linejoin="round"/>
<path opacity="0.3" d="M83.5696 369.257H250.775V424.868V454.25V466.25" stroke="#8EA1BD" stroke-opacity="0.9" stroke-width="5" stroke-linecap="round" stroke-linejoin="round"/>
<path opacity="0.3" d="M81.8789 264.867H249.084C264.442 264.867 276.889 277.315 276.889 292.673C276.889 308.031 264.442 320.478 249.084 320.478" stroke="#3499FF" stroke-width="5" stroke-linecap="round" stroke-linejoin="round"/>
<g filter="url(#filter2_d_1_187)">
<path d="M249.088 203.091C237.161 203.091 227.455 193.385 227.455 181.459C227.455 169.532 237.161 159.826 249.088 159.826C261.014 159.826 270.72 169.532 270.72 181.459C270.72 193.385 261.014 203.091 249.088 203.091Z" fill="#BBD1F0"/>
</g>
<path d="M249.089 197.689C240.14 197.689 232.857 190.406 232.857 181.458C232.857 172.51 240.14 165.227 249.089 165.227C258.037 165.227 265.32 172.51 265.32 181.458C265.32 190.406 258.037 197.689 249.089 197.689Z" fill="#4D72A8"/>
<g opacity="0.4" filter="url(#filter3_d_1_187)">
<path d="M39.3747 258.695C27.4484 258.695 17.7422 248.988 17.7422 237.062C17.7422 225.136 27.4484 215.43 39.3747 215.43C51.301 215.43 61.0072 225.136 61.0072 237.062C61.0072 248.988 51.301 258.695 39.3747 258.695Z" fill="#BBD1F0"/>
</g>
<path opacity="0.5" d="M39.3757 253.293C30.4276 253.293 23.1445 246.01 23.1445 237.062C23.1445 228.114 30.4276 220.831 39.3757 220.831C48.3238 220.831 55.6068 228.114 55.6068 237.062C55.6068 246.01 48.3238 253.293 39.3757 253.293Z" fill="#4D72A8"/>
<g opacity="0.4" filter="url(#filter4_d_1_187)">
<path d="M249.088 314.3C237.161 314.3 227.455 304.594 227.455 292.668C227.455 280.741 237.161 271.035 249.088 271.035C261.014 271.035 270.72 280.741 270.72 292.668C270.72 304.594 261.014 314.3 249.088 314.3Z" fill="#BBD1F0"/>
</g>
<path opacity="0.5" d="M249.089 308.898C240.14 308.898 232.857 301.615 232.857 292.667C232.857 283.719 240.14 276.436 249.089 276.436C258.037 276.436 265.32 283.719 265.32 292.667C265.32 301.615 258.037 308.898 249.089 308.898Z" fill="#4D72A8"/>
<g filter="url(#filter5_d_1_187)">
<path d="M39.3747 147.487C27.4484 147.487 17.7422 137.78 17.7422 125.854C17.7422 113.928 27.4484 104.222 39.3747 104.222C51.301 104.222 61.0072 113.928 61.0072 125.854C61.0072 137.78 51.301 147.487 39.3747 147.487Z" fill="#BBD1F0"/>
</g>
<path d="M39.3757 142.084C30.4276 142.084 23.1445 134.801 23.1445 125.853C23.1445 116.905 30.4276 109.622 39.3757 109.622C48.3238 109.622 55.6068 116.905 55.6068 125.853C55.6068 134.801 48.3238 142.084 39.3757 142.084Z" fill="#4D72A8"/>
<path d="M38.4466 132.949C37.4428 132.949 36.5479 132.764 35.7619 132.395C34.9806 132.026 34.3604 131.517 33.9011 130.868C33.4418 130.219 33.2027 129.476 33.1838 128.638H36.1667C36.1999 129.201 36.4366 129.658 36.877 130.009C37.3173 130.359 37.8405 130.534 38.4466 130.534C38.9295 130.534 39.3556 130.428 39.725 130.214C40.099 129.997 40.3902 129.696 40.5985 129.312C40.8116 128.924 40.9181 128.479 40.9181 127.977C40.9181 127.466 40.8092 127.016 40.5914 126.628C40.3784 126.24 40.0824 125.937 39.7037 125.719C39.3249 125.501 38.8916 125.39 38.4039 125.385C37.9778 125.385 37.5635 125.473 37.161 125.648C36.7633 125.823 36.4532 126.062 36.2306 126.365L33.4963 125.875L34.1852 118.205H43.0772V120.719H36.7207L36.3443 124.362H36.4295C36.6852 124.002 37.0711 123.704 37.5872 123.467C38.1033 123.231 38.6809 123.112 39.3201 123.112C40.1961 123.112 40.9773 123.318 41.6639 123.73C42.3504 124.142 42.8926 124.708 43.2903 125.428C43.688 126.143 43.8845 126.966 43.8798 127.899C43.8845 128.879 43.6573 129.75 43.198 130.513C42.7434 131.27 42.1066 131.867 41.2875 132.303C40.4731 132.733 39.5261 132.949 38.4466 132.949Z" fill="#B8D0F2"/>
<circle opacity="0.4" cx="81.8797" cy="264.868" r="1.69215" fill="#8EA1BD"/>
<path opacity="0.4" d="M75.9789 264.867H49.4121" stroke="#8EA1BD" stroke-width="5" stroke-linecap="round" stroke-linejoin="round"/>
<circle opacity="0.4" cx="46.4597" cy="264.868" r="1.69215" fill="#8EA1BD"/>
<circle cx="241.999" cy="209.263" r="1.69215" fill="#3499FF"/>
<circle opacity="0.4" cx="83.9988" cy="369.263" r="1.69215" fill="#3499FF"/>
<path d="M236.096 209.264H209.529" stroke="#3499FF" stroke-width="5" stroke-linecap="round" stroke-linejoin="round"/>
<path opacity="0.4" d="M78.0961 369.264H49.5293" stroke="#3499FF" stroke-width="5" stroke-linecap="round" stroke-linejoin="round"/>
<circle cx="206.579" cy="209.263" r="1.69215" fill="#3499FF"/>
<circle opacity="0.4" cx="44.5789" cy="369.263" r="1.69215" fill="#3499FF"/>
<circle opacity="0.4" cx="241.999" cy="320.471" r="1.69215" fill="#3499FF"/>
<path opacity="0.3" d="M236.096 320.473H209.529" stroke="#3499FF" stroke-width="5" stroke-linecap="round" stroke-linejoin="round"/>
<circle opacity="0.4" cx="206.579" cy="320.471" r="1.69215" fill="#045482"/>
<circle cx="81.8797" cy="153.659" r="1.69215" fill="#8EA1BD"/>
<path d="M75.9789 153.66H49.4121" stroke="#8EA1BD" stroke-width="5" stroke-linecap="round" stroke-linejoin="round"/>
<circle cx="46.4597" cy="153.659" r="1.69215" fill="#8EA1BD"/>
<path opacity="0.3" d="M206.582 320.473H39.377V368.75" stroke="#3499FF" stroke-width="5" stroke-linecap="round" stroke-linejoin="round"/>
<path d="M73.1616 325.921L67.7129 320.472L73.1616 315.023" stroke="#153667" stroke-width="5" stroke-linecap="round" stroke-linejoin="round"/>
<path d="M93.1929 325.921L87.7441 320.472L93.1929 315.023" stroke="#153667" stroke-width="5" stroke-linecap="round" stroke-linejoin="round"/>
<path d="M249.06 188.949C248.312 188.944 247.59 188.819 246.894 188.572C246.203 188.326 245.582 187.926 245.033 187.372C244.484 186.818 244.048 186.084 243.726 185.17C243.409 184.257 243.251 183.134 243.251 181.804C243.255 180.582 243.395 179.491 243.67 178.53C243.949 177.564 244.347 176.745 244.863 176.072C245.384 175.4 246.006 174.889 246.731 174.538C247.455 174.183 248.267 174.006 249.167 174.006C250.137 174.006 250.994 174.195 251.738 174.574C252.481 174.948 253.078 175.457 253.528 176.101C253.982 176.745 254.257 177.467 254.351 178.267H251.319C251.2 177.76 250.952 177.363 250.573 177.074C250.194 176.785 249.725 176.641 249.167 176.641C248.22 176.641 247.5 177.053 247.008 177.876C246.52 178.7 246.271 179.82 246.262 181.236H246.361C246.579 180.805 246.873 180.438 247.242 180.135C247.616 179.827 248.04 179.593 248.513 179.432C248.992 179.266 249.496 179.183 250.026 179.183C250.888 179.183 251.655 179.387 252.327 179.794C253 180.196 253.53 180.75 253.918 181.456C254.306 182.161 254.501 182.969 254.501 183.878C254.501 184.863 254.271 185.739 253.812 186.506C253.357 187.273 252.72 187.874 251.901 188.31C251.087 188.741 250.14 188.954 249.06 188.949ZM249.046 186.534C249.519 186.534 249.943 186.42 250.317 186.193C250.691 185.966 250.985 185.658 251.198 185.27C251.411 184.882 251.518 184.446 251.518 183.963C251.518 183.48 251.411 183.047 251.198 182.663C250.99 182.28 250.701 181.974 250.331 181.747C249.962 181.52 249.541 181.406 249.067 181.406C248.712 181.406 248.383 181.473 248.08 181.605C247.782 181.738 247.519 181.922 247.292 182.159C247.069 182.396 246.894 182.67 246.766 182.983C246.638 183.291 246.574 183.62 246.574 183.97C246.574 184.439 246.681 184.867 246.894 185.256C247.112 185.644 247.405 185.954 247.775 186.186C248.149 186.418 248.573 186.534 249.046 186.534Z" fill="#B8D0F2"/>
<defs>
<filter id="filter0_d_1_187" x="7.74219" y="-17.2578" width="63.265" height="63.265" filterUnits="userSpaceOnUse" color-interpolation-filters="sRGB">
<feFlood flood-opacity="0" result="BackgroundImageFix"/>
<feColorMatrix in="SourceAlpha" type="matrix" values="0 0 0 0 0 0 0 0 0 0 0 0 0 0 0 0 0 0 127 0" result="hardAlpha"/>
<feOffset/>
<feGaussianBlur stdDeviation="5"/>
<feColorMatrix type="matrix" values="0 0 0 0 0.45098 0 0 0 0 0.627451 0 0 0 0 0.886275 0 0 0 1 0"/>
<feBlend mode="normal" in2="BackgroundImageFix" result="effect1_dropShadow_1_187"/>
<feBlend mode="normal" in="SourceGraphic" in2="effect1_dropShadow_1_187" result="shape"/>
</filter>
<filter id="filter1_d_1_187" x="217.455" y="38.3477" width="63.265" height="63.265" filterUnits="userSpaceOnUse" color-interpolation-filters="sRGB">
<feFlood flood-opacity="0" result="BackgroundImageFix"/>
<feColorMatrix in="SourceAlpha" type="matrix" values="0 0 0 0 0 0 0 0 0 0 0 0 0 0 0 0 0 0 127 0" result="hardAlpha"/>
<feOffset/>
<feGaussianBlur stdDeviation="5"/>
<feColorMatrix type="matrix" values="0 0 0 0 0.45098 0 0 0 0 0.627451 0 0 0 0 0.886275 0 0 0 1 0"/>
<feBlend mode="normal" in2="BackgroundImageFix" result="effect1_dropShadow_1_187"/>
<feBlend mode="normal" in="SourceGraphic" in2="effect1_dropShadow_1_187" result="shape"/>
</filter>
<filter id="filter2_d_1_187" x="217.455" y="149.826" width="63.265" height="63.265" filterUnits="userSpaceOnUse" color-interpolation-filters="sRGB">
<feFlood flood-opacity="0" result="BackgroundImageFix"/>
<feColorMatrix in="SourceAlpha" type="matrix" values="0 0 0 0 0 0 0 0 0 0 0 0 0 0 0 0 0 0 127 0" result="hardAlpha"/>
<feOffset/>
<feGaussianBlur stdDeviation="5"/>
<feColorMatrix type="matrix" values="0 0 0 0 0.45098 0 0 0 0 0.627451 0 0 0 0 0.886275 0 0 0 1 0"/>
<feBlend mode="normal" in2="BackgroundImageFix" result="effect1_dropShadow_1_187"/>
<feBlend mode="normal" in="SourceGraphic" in2="effect1_dropShadow_1_187" result="shape"/>
</filter>
<filter id="filter3_d_1_187" x="7.74219" y="205.43" width="63.265" height="63.265" filterUnits="userSpaceOnUse" color-interpolation-filters="sRGB">
<feFlood flood-opacity="0" result="BackgroundImageFix"/>
<feColorMatrix in="SourceAlpha" type="matrix" values="0 0 0 0 0 0 0 0 0 0 0 0 0 0 0 0 0 0 127 0" result="hardAlpha"/>
<feOffset/>
<feGaussianBlur stdDeviation="5"/>
<feColorMatrix type="matrix" values="0 0 0 0 0.45098 0 0 0 0 0.627451 0 0 0 0 0.886275 0 0 0 1 0"/>
<feBlend mode="normal" in2="BackgroundImageFix" result="effect1_dropShadow_1_187"/>
<feBlend mode="normal" in="SourceGraphic" in2="effect1_dropShadow_1_187" result="shape"/>
</filter>
<filter id="filter4_d_1_187" x="217.455" y="261.035" width="63.265" height="63.265" filterUnits="userSpaceOnUse" color-interpolation-filters="sRGB">
<feFlood flood-opacity="0" result="BackgroundImageFix"/>
<feColorMatrix in="SourceAlpha" type="matrix" values="0 0 0 0 0 0 0 0 0 0 0 0 0 0 0 0 0 0 127 0" result="hardAlpha"/>
<feOffset/>
<feGaussianBlur stdDeviation="5"/>
<feColorMatrix type="matrix" values="0 0 0 0 0.45098 0 0 0 0 0.627451 0 0 0 0 0.886275 0 0 0 1 0"/>
<feBlend mode="normal" in2="BackgroundImageFix" result="effect1_dropShadow_1_187"/>
<feBlend mode="normal" in="SourceGraphic" in2="effect1_dropShadow_1_187" result="shape"/>
</filter>
<filter id="filter5_d_1_187" x="7.74219" y="94.2217" width="63.265" height="63.265" filterUnits="userSpaceOnUse" color-interpolation-filters="sRGB">
<feFlood flood-opacity="0" result="BackgroundImageFix"/>
<feColorMatrix in="SourceAlpha" type="matrix" values="0 0 0 0 0 0 0 0 0 0 0 0 0 0 0 0 0 0 127 0" result="hardAlpha"/>
<feOffset/>
<feGaussianBlur stdDeviation="5"/>
<feColorMatrix type="matrix" values="0 0 0 0 0.45098 0 0 0 0 0.627451 0 0 0 0 0.886275 0 0 0 1 0"/>
<feBlend mode="normal" in2="BackgroundImageFix" result="effect1_dropShadow_1_187"/>
<feBlend mode="normal" in="SourceGraphic" in2="effect1_dropShadow_1_187" result="shape"/>
</filter>
</defs>
</svg>
