<svg width="289" height="390" viewBox="0 0 289 390" fill="none" xmlns="http://www.w3.org/2000/svg">
<path d="M39.3758 147.972C24.0178 147.972 11.5703 135.525 11.5703 120.167C11.5703 104.809 24.0178 92.3613 39.3758 92.3613H249.088V79.7786V-31.25" stroke="#8EA1BD" stroke-width="5" stroke-linecap="round" stroke-linejoin="round"/>
<path d="M81.8789 147.973H249.084C264.442 147.973 276.889 160.42 276.889 175.778C276.889 191.136 264.442 203.584 249.084 203.584" stroke="#3499FF" stroke-width="5" stroke-linecap="round" stroke-linejoin="round"/>
<path opacity="0.3" d="M39.3758 259.18C24.0178 259.18 11.5703 246.733 11.5703 231.375C11.5703 216.017 24.0178 203.569 39.3758 203.569H206.581" stroke="#8EA1BD" stroke-width="5" stroke-linecap="round" stroke-linejoin="round"/>
<path opacity="0.3" d="M81.8789 259.181H249.084C264.442 259.181 276.889 271.628 276.889 286.986C276.889 302.344 264.442 314.792 249.084 314.792" stroke="#3499FF" stroke-width="5" stroke-linecap="round" stroke-linejoin="round"/>
<g filter="url(#filter0_d_1_5)">
<path d="M249.088 197.404C237.161 197.404 227.455 187.697 227.455 175.771C227.455 163.845 237.161 154.139 249.088 154.139C261.014 154.139 270.72 163.845 270.72 175.771C270.72 187.697 261.014 197.404 249.088 197.404Z" fill="#BBD1F0"/>
</g>
<path d="M249.089 192.001C240.14 192.001 232.857 184.718 232.857 175.77C232.857 166.822 240.14 159.539 249.089 159.539C258.037 159.539 265.32 166.822 265.32 175.77C265.32 184.718 258.037 192.001 249.089 192.001Z" fill="#4D72A8"/>
<path d="M244.281 182.75V180.534L249.458 175.74C249.898 175.314 250.268 174.93 250.566 174.589C250.869 174.249 251.099 173.915 251.255 173.588C251.411 173.257 251.489 172.899 251.489 172.516C251.489 172.089 251.392 171.723 251.198 171.415C251.004 171.102 250.739 170.863 250.403 170.697C250.067 170.527 249.685 170.442 249.259 170.442C248.814 170.442 248.426 170.532 248.094 170.712C247.763 170.892 247.507 171.15 247.327 171.486C247.147 171.822 247.058 172.222 247.058 172.686H244.138C244.138 171.734 244.354 170.908 244.785 170.207C245.216 169.507 245.819 168.964 246.596 168.581C247.372 168.197 248.267 168.006 249.281 168.006C250.322 168.006 251.229 168.19 252.001 168.56C252.777 168.924 253.381 169.431 253.812 170.08C254.243 170.728 254.458 171.472 254.458 172.31C254.458 172.859 254.349 173.401 254.131 173.936C253.918 174.471 253.537 175.065 252.988 175.719C252.439 176.367 251.665 177.146 250.665 178.055L248.542 180.136V180.236H254.65V182.75H244.281Z" fill="#B8D0F2"/>
<g opacity="0.4" filter="url(#filter1_d_1_5)">
<path d="M39.3747 253.007C27.4484 253.007 17.7422 243.301 17.7422 231.375C17.7422 219.448 27.4484 209.742 39.3747 209.742C51.301 209.742 61.0072 219.448 61.0072 231.375C61.0072 243.301 51.301 253.007 39.3747 253.007Z" fill="#BBD1F0"/>
</g>
<path opacity="0.5" d="M39.3757 247.607C30.4276 247.607 23.1445 240.324 23.1445 231.376C23.1445 222.428 30.4276 215.145 39.3757 215.145C48.3238 215.145 55.6068 222.428 55.6068 231.376C55.6068 240.324 48.3238 247.607 39.3757 247.607Z" fill="#4D72A8"/>
<g opacity="0.4" filter="url(#filter2_d_1_5)">
<path d="M249.088 308.613C237.161 308.613 227.455 298.906 227.455 286.98C227.455 275.054 237.161 265.348 249.088 265.348C261.014 265.348 270.72 275.054 270.72 286.98C270.72 298.906 261.014 308.613 249.088 308.613Z" fill="#BBD1F0"/>
</g>
<path opacity="0.5" d="M249.089 303.21C240.14 303.21 232.857 295.927 232.857 286.979C232.857 278.031 240.14 270.748 249.089 270.748C258.037 270.748 265.32 278.031 265.32 286.979C265.32 295.927 258.037 303.21 249.089 303.21Z" fill="#4D72A8"/>
<g filter="url(#filter3_d_1_5)">
<path d="M39.3747 141.8C27.4484 141.8 17.7422 132.094 17.7422 120.168C17.7422 108.241 27.4484 98.5352 39.3747 98.5352C51.301 98.5352 61.0072 108.241 61.0072 120.168C61.0072 132.094 51.301 141.8 39.3747 141.8Z" fill="#BBD1F0"/>
</g>
<path d="M39.3757 136.398C30.4276 136.398 23.1445 129.115 23.1445 120.167C23.1445 111.219 30.4276 103.936 39.3757 103.936C48.3238 103.936 55.6068 111.219 55.6068 120.167C55.6068 129.115 48.3238 136.398 39.3757 136.398Z" fill="#4D72A8"/>
<path d="M41.5149 113.205V127.75H38.4396V116.124H38.3544L35.0234 118.212V115.484L38.6243 113.205H41.5149Z" fill="#B8D0F2"/>
<path d="M206.169 97.8174L200.721 92.3687L206.169 86.9199" stroke="#8EA1BD" stroke-width="5" stroke-linecap="round" stroke-linejoin="round"/>
<path d="M226.202 97.8174L220.746 92.3687L226.202 86.9199" stroke="#8EA1BD" stroke-width="5" stroke-linecap="round" stroke-linejoin="round"/>
<circle opacity="0.4" cx="81.8797" cy="259.18" r="1.69215" fill="#8EA1BD"/>
<path opacity="0.4" d="M75.9789 259.181H49.4121" stroke="#8EA1BD" stroke-width="5" stroke-linecap="round" stroke-linejoin="round"/>
<circle opacity="0.4" cx="46.4597" cy="259.18" r="1.69215" fill="#8EA1BD"/>
<circle cx="241.999" cy="203.577" r="1.69215" fill="#3499FF"/>
<path opacity="0.8" d="M236.096 203.576H209.529" stroke="#3499FF" stroke-width="5" stroke-linecap="round" stroke-linejoin="round"/>
<circle cx="204.581" cy="203.577" r="1.69215" fill="#3499FF"/>
<circle opacity="0.4" cx="241.999" cy="314.785" r="1.69215" fill="#3499FF"/>
<path opacity="0.3" d="M236.096 314.785H209.529" stroke="#3499FF" stroke-width="5" stroke-linecap="round" stroke-linejoin="round"/>
<circle opacity="0.4" cx="206.579" cy="314.785" r="1.69215" fill="#1460D0" fill-opacity="0.5"/>
<circle cx="81.8797" cy="147.971" r="1.69215" fill="#8EA1BD"/>
<path d="M75.9789 147.973H49.4121" stroke="#8EA1BD" stroke-width="5" stroke-linecap="round" stroke-linejoin="round"/>
<circle cx="46.4597" cy="147.971" r="1.69215" fill="#8EA1BD"/>
<path opacity="0.3" d="M39.3758 370.659C24.0178 370.659 11.5703 358.211 11.5703 342.853C11.5703 327.495 24.0178 315.048 39.3758 315.048H208.476" stroke="#8EA1BD" stroke-width="5" stroke-linecap="round" stroke-linejoin="round"/>
<path opacity="0.3" d="M81.8789 370.66H249.084C264.442 370.66 276.889 383.108 276.889 398.466C276.889 413.824 264.442 426.271 249.084 426.271" stroke="#3499FF" stroke-width="5" stroke-linecap="round" stroke-linejoin="round"/>
<g opacity="0.4" filter="url(#filter4_d_1_5)">
<path d="M249.088 420.091C237.161 420.091 227.455 410.385 227.455 398.459C227.455 386.532 237.161 376.826 249.088 376.826C261.014 376.826 270.72 386.532 270.72 398.459C270.72 410.385 261.014 420.091 249.088 420.091Z" fill="#BBD1F0"/>
</g>
<path opacity="0.5" d="M249.089 414.689C240.14 414.689 232.857 407.406 232.857 398.458C232.857 389.51 240.14 382.227 249.089 382.227C258.037 382.227 265.32 389.51 265.32 398.458C265.32 407.406 258.037 414.689 249.089 414.689Z" fill="#4D72A8"/>
<g opacity="0.4" filter="url(#filter5_d_1_5)">
<path d="M39.3747 364.487C27.4484 364.487 17.7422 354.78 17.7422 342.854C17.7422 330.928 27.4484 321.222 39.3747 321.222C51.301 321.222 61.0072 330.928 61.0072 342.854C61.0072 354.78 51.301 364.487 39.3747 364.487Z" fill="#BBD1F0"/>
</g>
<path opacity="0.5" d="M39.3757 359.084C30.4276 359.084 23.1445 351.801 23.1445 342.853C23.1445 333.905 30.4276 326.622 39.3757 326.622C48.3238 326.622 55.6068 333.905 55.6068 342.853C55.6068 351.801 48.3238 359.084 39.3757 359.084Z" fill="#4D72A8"/>
<circle opacity="0.4" cx="81.8797" cy="370.659" r="1.69215" fill="#8EA1BD"/>
<path opacity="0.4" d="M75.9789 370.66H49.4121" stroke="#8EA1BD" stroke-width="5" stroke-linecap="round" stroke-linejoin="round"/>
<circle opacity="0.4" cx="46.4597" cy="370.659" r="1.69215" fill="#8EA1BD"/>
<defs>
<filter id="filter0_d_1_5" x="217.455" y="144.139" width="63.265" height="63.265" filterUnits="userSpaceOnUse" color-interpolation-filters="sRGB">
<feFlood flood-opacity="0" result="BackgroundImageFix"/>
<feColorMatrix in="SourceAlpha" type="matrix" values="0 0 0 0 0 0 0 0 0 0 0 0 0 0 0 0 0 0 127 0" result="hardAlpha"/>
<feOffset/>
<feGaussianBlur stdDeviation="5"/>
<feColorMatrix type="matrix" values="0 0 0 0 0.45098 0 0 0 0 0.627451 0 0 0 0 0.886275 0 0 0 1 0"/>
<feBlend mode="normal" in2="BackgroundImageFix" result="effect1_dropShadow_1_5"/>
<feBlend mode="normal" in="SourceGraphic" in2="effect1_dropShadow_1_5" result="shape"/>
</filter>
<filter id="filter1_d_1_5" x="7.74219" y="199.742" width="63.265" height="63.265" filterUnits="userSpaceOnUse" color-interpolation-filters="sRGB">
<feFlood flood-opacity="0" result="BackgroundImageFix"/>
<feColorMatrix in="SourceAlpha" type="matrix" values="0 0 0 0 0 0 0 0 0 0 0 0 0 0 0 0 0 0 127 0" result="hardAlpha"/>
<feOffset/>
<feGaussianBlur stdDeviation="5"/>
<feColorMatrix type="matrix" values="0 0 0 0 0.45098 0 0 0 0 0.627451 0 0 0 0 0.886275 0 0 0 1 0"/>
<feBlend mode="normal" in2="BackgroundImageFix" result="effect1_dropShadow_1_5"/>
<feBlend mode="normal" in="SourceGraphic" in2="effect1_dropShadow_1_5" result="shape"/>
</filter>
<filter id="filter2_d_1_5" x="217.455" y="255.348" width="63.265" height="63.265" filterUnits="userSpaceOnUse" color-interpolation-filters="sRGB">
<feFlood flood-opacity="0" result="BackgroundImageFix"/>
<feColorMatrix in="SourceAlpha" type="matrix" values="0 0 0 0 0 0 0 0 0 0 0 0 0 0 0 0 0 0 127 0" result="hardAlpha"/>
<feOffset/>
<feGaussianBlur stdDeviation="5"/>
<feColorMatrix type="matrix" values="0 0 0 0 0.45098 0 0 0 0 0.627451 0 0 0 0 0.886275 0 0 0 1 0"/>
<feBlend mode="normal" in2="BackgroundImageFix" result="effect1_dropShadow_1_5"/>
<feBlend mode="normal" in="SourceGraphic" in2="effect1_dropShadow_1_5" result="shape"/>
</filter>
<filter id="filter3_d_1_5" x="7.74219" y="88.5352" width="63.265" height="63.265" filterUnits="userSpaceOnUse" color-interpolation-filters="sRGB">
<feFlood flood-opacity="0" result="BackgroundImageFix"/>
<feColorMatrix in="SourceAlpha" type="matrix" values="0 0 0 0 0 0 0 0 0 0 0 0 0 0 0 0 0 0 127 0" result="hardAlpha"/>
<feOffset/>
<feGaussianBlur stdDeviation="5"/>
<feColorMatrix type="matrix" values="0 0 0 0 0.45098 0 0 0 0 0.627451 0 0 0 0 0.886275 0 0 0 1 0"/>
<feBlend mode="normal" in2="BackgroundImageFix" result="effect1_dropShadow_1_5"/>
<feBlend mode="normal" in="SourceGraphic" in2="effect1_dropShadow_1_5" result="shape"/>
</filter>
<filter id="filter4_d_1_5" x="217.455" y="366.826" width="63.265" height="63.265" filterUnits="userSpaceOnUse" color-interpolation-filters="sRGB">
<feFlood flood-opacity="0" result="BackgroundImageFix"/>
<feColorMatrix in="SourceAlpha" type="matrix" values="0 0 0 0 0 0 0 0 0 0 0 0 0 0 0 0 0 0 127 0" result="hardAlpha"/>
<feOffset/>
<feGaussianBlur stdDeviation="5"/>
<feColorMatrix type="matrix" values="0 0 0 0 0.45098 0 0 0 0 0.627451 0 0 0 0 0.886275 0 0 0 1 0"/>
<feBlend mode="normal" in2="BackgroundImageFix" result="effect1_dropShadow_1_5"/>
<feBlend mode="normal" in="SourceGraphic" in2="effect1_dropShadow_1_5" result="shape"/>
</filter>
<filter id="filter5_d_1_5" x="7.74219" y="311.222" width="63.265" height="63.265" filterUnits="userSpaceOnUse" color-interpolation-filters="sRGB">
<feFlood flood-opacity="0" result="BackgroundImageFix"/>
<feColorMatrix in="SourceAlpha" type="matrix" values="0 0 0 0 0 0 0 0 0 0 0 0 0 0 0 0 0 0 127 0" result="hardAlpha"/>
<feOffset/>
<feGaussianBlur stdDeviation="5"/>
<feColorMatrix type="matrix" values="0 0 0 0 0.45098 0 0 0 0 0.627451 0 0 0 0 0.886275 0 0 0 1 0"/>
<feBlend mode="normal" in2="BackgroundImageFix" result="effect1_dropShadow_1_5"/>
<feBlend mode="normal" in="SourceGraphic" in2="effect1_dropShadow_1_5" result="shape"/>
</filter>
</defs>
</svg>
