<svg width="32" height="32" viewBox="0 0 32 32" fill="none" xmlns="http://www.w3.org/2000/svg">
<g clip-path="url(#clip0_1_16)">
<path d="M27.6173 10.8374L27.2893 11.592C27.2381 11.7149 27.1516 11.8199 27.0408 11.8937C26.93 11.9676 26.7998 12.007 26.6667 12.007C26.5335 12.007 26.4033 11.9676 26.2925 11.8937C26.1817 11.8199 26.0953 11.7149 26.044 11.592L25.716 10.8374C25.1393 9.50231 24.0832 8.43191 22.756 7.83735L21.744 7.38535C21.6212 7.32887 21.5172 7.23838 21.4443 7.12459C21.3714 7.0108 21.3326 6.87849 21.3326 6.74335C21.3326 6.60821 21.3714 6.4759 21.4443 6.36211C21.5172 6.24832 21.6212 6.15783 21.744 6.10135L22.7 5.67602C24.0605 5.06452 25.1347 3.95453 25.7013 2.57468L26.0387 1.76002C26.0882 1.63382 26.1746 1.52548 26.2866 1.44912C26.3987 1.37275 26.5311 1.33191 26.6667 1.33191C26.8022 1.33191 26.9347 1.37275 27.0467 1.44912C27.1587 1.52548 27.2451 1.63382 27.2947 1.76002L27.632 2.57335C28.198 3.95345 29.2717 5.06393 30.632 5.67602L31.5893 6.10268C31.7117 6.15932 31.8154 6.24981 31.888 6.36345C31.9606 6.47709 31.9992 6.60915 31.9992 6.74402C31.9992 6.87889 31.9606 7.01094 31.888 7.12459C31.8154 7.23823 31.7117 7.32871 31.5893 7.38535L30.576 7.83602C29.2491 8.43117 28.1934 9.50205 27.6173 10.8374ZM16 5.33335C13.836 5.33368 11.7233 5.99218 9.94237 7.22144C8.16143 8.45069 6.7965 10.1926 6.02878 12.2158C5.26106 14.239 5.12686 16.4479 5.64401 18.5492C6.16116 20.6504 7.3052 22.5447 8.92423 23.9805C10.5433 25.4163 12.5607 26.3258 14.7087 26.588C16.8568 26.8503 19.0338 26.4531 20.9507 25.449C22.8677 24.445 24.4339 22.8817 25.4415 20.9666C26.4491 19.0515 26.8503 16.8752 26.592 14.7267L29.24 14.412C29.3022 14.9338 29.3333 15.4631 29.3333 16C29.3333 23.364 23.364 29.3334 16 29.3334C8.636 29.3334 2.66666 23.364 2.66666 16C2.66666 8.63602 8.636 2.66668 16 2.66668C17.148 2.66668 18.2653 2.81335 19.3307 3.08668L18.6667 5.66935C17.7955 5.44536 16.8995 5.33247 16 5.33335ZM17.3333 14.6667H21.3333L14.6667 24V17.3334H10.6667L17.3333 8.00002V14.6667Z" fill="#3499FF"/>
</g>
<defs>
<clipPath id="clip0_1_16">
<rect width="32" height="32" fill="white"/>
</clipPath>
</defs>
</svg>
