<svg width="32" height="32" viewBox="0 0 32 32" fill="none" xmlns="http://www.w3.org/2000/svg">
<path d="M11.9997 14.6664H19.9997M15.9997 18.6664V10.6664M5.33301 15.0024C5.33301 25.2518 14.557 28.8518 15.849 29.3064C15.9495 29.342 16.0499 29.342 16.1503 29.3064C17.445 28.8664 26.6663 25.3571 26.6663 15.0038V5.73842C26.6666 5.61926 26.627 5.50344 26.5538 5.40944C26.4805 5.31543 26.3779 5.24865 26.2623 5.21976L16.129 2.68242C16.0441 2.6612 15.9553 2.6612 15.8703 2.68242L5.73701 5.21976C5.62141 5.24865 5.51881 5.31543 5.44559 5.40944C5.37236 5.50344 5.33273 5.61926 5.33301 5.73842V15.0024Z" stroke="#3499FF" stroke-width="2" stroke-miterlimit="10" stroke-linecap="round" stroke-linejoin="round"/>
</svg>
