<svg width="32" height="32" viewBox="0 0 32 32" fill="none" xmlns="http://www.w3.org/2000/svg">
<path d="M20.6663 19.3335C20.6663 19.6871 20.5259 20.0263 20.2758 20.2763C20.0258 20.5264 19.6866 20.6668 19.333 20.6668C18.9794 20.6668 18.6402 20.5264 18.3902 20.2763C18.1402 20.0263 17.9997 19.6871 17.9997 19.3335C17.9997 18.9799 18.1402 18.6407 18.3902 18.3907C18.6402 18.1406 18.9794 18.0002 19.333 18.0002C19.6866 18.0002 20.0258 18.1406 20.2758 18.3907C20.5259 18.6407 20.6663 18.9799 20.6663 19.3335ZM13.9997 12.6668C13.9997 13.0205 13.8592 13.3596 13.6092 13.6096C13.3591 13.8597 13.02 14.0002 12.6663 14.0002C12.3127 14.0002 11.9736 13.8597 11.7235 13.6096C11.4735 13.3596 11.333 13.0205 11.333 12.6668C11.333 12.3132 11.4735 11.9741 11.7235 11.724C11.9736 11.474 12.3127 11.3335 12.6663 11.3335C13.02 11.3335 13.3591 11.474 13.6092 11.724C13.8592 11.9741 13.9997 12.3132 13.9997 12.6668Z" fill="#3499FF"/>
<path fill-rule="evenodd" clip-rule="evenodd" d="M20.7071 11.2934C20.8944 11.4809 20.9996 11.7351 20.9996 12.0001C20.9996 12.2651 20.8944 12.5193 20.7071 12.7068L12.7071 20.7068C12.5175 20.8834 12.2668 20.9796 12.0078 20.975C11.7487 20.9704 11.5015 20.8655 11.3183 20.6823C11.1351 20.499 11.0301 20.2519 11.0255 19.9928C11.021 19.7337 11.1171 19.483 11.2938 19.2934L19.2938 11.2934C19.4813 11.1062 19.7354 11.001 20.0004 11.001C20.2654 11.001 20.5196 11.1062 20.7071 11.2934Z" fill="#3499FF"/>
<path fill-rule="evenodd" clip-rule="evenodd" d="M15.9243 1.6665H16.0763C19.155 1.6665 21.567 1.6665 23.4497 1.91984C25.375 2.1785 26.895 2.71984 28.0883 3.91184C29.2817 5.10517 29.8217 6.62517 30.0803 8.55184C30.3337 10.4332 30.3337 12.8452 30.3337 15.9238V16.0758C30.3337 19.1545 30.3337 21.5665 30.0803 23.4492C29.8217 25.3745 29.2803 26.8945 28.0883 28.0878C26.895 29.2812 25.375 29.8212 23.4483 30.0798C21.567 30.3332 19.155 30.3332 16.0763 30.3332H15.9243C12.8457 30.3332 10.4337 30.3332 8.55099 30.0798C6.62566 29.8212 5.10566 29.2798 3.91233 28.0878C2.71899 26.8945 2.17899 25.3745 1.92033 23.4478C1.66699 21.5665 1.66699 19.1545 1.66699 16.0758V15.9238C1.66699 12.8452 1.66699 10.4332 1.92033 8.5505C2.17899 6.62517 2.72033 5.10517 3.91233 3.91184C5.10566 2.7185 6.62566 2.1785 8.55233 1.91984C10.4337 1.6665 12.8457 1.6665 15.9243 1.6665ZM8.81766 3.90117C7.11366 4.1305 6.08566 4.56784 5.32699 5.3265C4.56699 6.0865 4.13099 7.11317 3.90166 8.8185C3.66966 10.5518 3.66699 12.8292 3.66699 15.9998C3.66699 19.1705 3.66966 21.4478 3.90166 23.1812C4.13099 24.8865 4.56833 25.9145 5.32699 26.6745C6.08699 27.4332 7.11366 27.8692 8.81899 28.0985C10.5523 28.3305 12.8297 28.3332 16.0003 28.3332C19.171 28.3332 21.4483 28.3305 23.1817 28.0985C24.887 27.8692 25.915 27.4318 26.675 26.6732C27.4337 25.9132 27.8697 24.8865 28.099 23.1812C28.331 21.4478 28.3337 19.1705 28.3337 15.9998C28.3337 12.8292 28.331 10.5518 28.099 8.8185C27.8697 7.11317 27.4323 6.08517 26.6737 5.32517C25.9137 4.5665 24.887 4.1305 23.1817 3.90117C21.4483 3.66917 19.171 3.6665 16.0003 3.6665C12.8297 3.6665 10.551 3.66917 8.81766 3.90117Z" fill="#3499FF"/>
</svg>
