<svg width="273" height="720" viewBox="0 0 273 720" fill="none" xmlns="http://www.w3.org/2000/svg">
<path d="M31.6336 181.722C16.2756 181.722 3.82812 169.275 3.82812 153.917C3.82812 138.559 16.2756 126.111 31.6336 126.111H241.346V113.529V2.5" stroke="#8EA1BD" stroke-width="5" stroke-linecap="round" stroke-linejoin="round"/>
<path d="M74.1367 181.723H241.342C256.7 181.723 269.147 194.17 269.147 209.528C269.147 224.886 256.7 237.334 241.342 237.334" stroke="#3499FF" stroke-width="5" stroke-linecap="round" stroke-linejoin="round"/>
<path opacity="0.3" d="M31.6336 292.93C16.2756 292.93 3.82812 280.483 3.82812 265.125C3.82812 249.767 16.2756 237.319 31.6336 237.319H198.839" stroke="#8EA1BD" stroke-width="5" stroke-linecap="round" stroke-linejoin="round"/>
<path opacity="0.3" d="M74.1367 292.931H241.342C256.7 292.931 269.147 305.378 269.147 320.736C269.147 336.094 256.7 348.542 241.342 348.542" stroke="#3499FF" stroke-width="5" stroke-linecap="round" stroke-linejoin="round"/>
<g filter="url(#filter0_d_211_15460)">
<path d="M241.345 231.154C229.419 231.154 219.713 221.447 219.713 209.521C219.713 197.595 229.419 187.889 241.345 187.889C253.272 187.889 262.978 197.595 262.978 209.521C262.978 221.447 253.272 231.154 241.345 231.154Z" fill="#BBD1F0"/>
</g>
<path d="M241.346 225.751C232.398 225.751 225.115 218.468 225.115 209.52C225.115 200.572 232.398 193.289 241.346 193.289C250.294 193.289 257.578 200.572 257.578 209.52C257.578 218.468 250.294 225.751 241.346 225.751Z" fill="#4D72A8"/>
<path d="M236.538 216.5V214.284L241.716 209.49C242.156 209.064 242.526 208.68 242.824 208.339C243.127 207.999 243.357 207.665 243.513 207.338C243.669 207.007 243.747 206.649 243.747 206.266C243.747 205.839 243.65 205.473 243.456 205.165C243.262 204.852 242.997 204.613 242.661 204.447C242.324 204.277 241.943 204.192 241.517 204.192C241.072 204.192 240.684 204.282 240.352 204.462C240.021 204.642 239.765 204.9 239.585 205.236C239.405 205.572 239.315 205.972 239.315 206.436H236.396C236.396 205.484 236.612 204.658 237.043 203.957C237.473 203.257 238.077 202.714 238.854 202.331C239.63 201.947 240.525 201.756 241.538 201.756C242.58 201.756 243.487 201.94 244.259 202.31C245.035 202.674 245.639 203.181 246.07 203.83C246.5 204.478 246.716 205.222 246.716 206.06C246.716 206.609 246.607 207.151 246.389 207.686C246.176 208.221 245.795 208.815 245.246 209.469C244.696 210.117 243.922 210.896 242.923 211.805L240.8 213.886V213.986H246.908V216.5H236.538Z" fill="#B8D0F2"/>
<g opacity="0.4" filter="url(#filter1_d_211_15460)">
<path d="M31.6325 286.757C19.7062 286.757 10 277.051 10 265.125C10 253.198 19.7062 243.492 31.6325 243.492C43.5588 243.492 53.265 253.198 53.265 265.125C53.265 277.051 43.5588 286.757 31.6325 286.757Z" fill="#BBD1F0"/>
</g>
<path opacity="0.5" d="M31.6335 281.357C22.6854 281.357 15.4023 274.074 15.4023 265.126C15.4023 256.178 22.6854 248.895 31.6335 248.895C40.5816 248.895 47.8646 256.178 47.8646 265.126C47.8646 274.074 40.5816 281.357 31.6335 281.357Z" fill="#4D72A8"/>
<g opacity="0.4" filter="url(#filter2_d_211_15460)">
<path d="M241.345 342.363C229.419 342.363 219.713 332.656 219.713 320.73C219.713 308.804 229.419 299.098 241.345 299.098C253.272 299.098 262.978 308.804 262.978 320.73C262.978 332.656 253.272 342.363 241.345 342.363Z" fill="#BBD1F0"/>
</g>
<path opacity="0.5" d="M241.346 336.96C232.398 336.96 225.115 329.677 225.115 320.729C225.115 311.781 232.398 304.498 241.346 304.498C250.294 304.498 257.578 311.781 257.578 320.729C257.578 329.677 250.294 336.96 241.346 336.96Z" fill="#4D72A8"/>
<g filter="url(#filter3_d_211_15460)">
<path d="M31.6325 175.55C19.7062 175.55 10 165.844 10 153.918C10 141.991 19.7062 132.285 31.6325 132.285C43.5588 132.285 53.265 141.991 53.265 153.918C53.265 165.844 43.5588 175.55 31.6325 175.55Z" fill="#BBD1F0"/>
</g>
<path d="M31.6335 170.148C22.6854 170.148 15.4023 162.865 15.4023 153.917C15.4023 144.969 22.6854 137.686 31.6335 137.686C40.5816 137.686 47.8646 144.969 47.8646 153.917C47.8646 162.865 40.5816 170.148 31.6335 170.148Z" fill="#4D72A8"/>
<path d="M33.7727 146.955V161.5H30.6974V149.874H30.6122L27.2812 151.962V149.234L30.8821 146.955H33.7727Z" fill="#B8D0F2"/>
<path d="M198.427 131.567L192.979 126.119L198.427 120.67" stroke="#8EA1BD" stroke-width="5" stroke-linecap="round" stroke-linejoin="round"/>
<path d="M218.459 131.567L213.004 126.119L218.459 120.67" stroke="#8EA1BD" stroke-width="5" stroke-linecap="round" stroke-linejoin="round"/>
<circle opacity="0.4" cx="74.1375" cy="292.93" r="1.69215" fill="#8EA1BD"/>
<path opacity="0.4" d="M68.2367 292.931H41.6699" stroke="#8EA1BD" stroke-width="5" stroke-linecap="round" stroke-linejoin="round"/>
<circle opacity="0.4" cx="38.7175" cy="292.93" r="1.69215" fill="#8EA1BD"/>
<circle cx="234.257" cy="237.327" r="1.69215" fill="#3499FF"/>
<path opacity="0.8" d="M228.354 237.326H201.787" stroke="#3499FF" stroke-width="5" stroke-linecap="round" stroke-linejoin="round"/>
<circle cx="196.839" cy="237.327" r="1.69215" fill="#3499FF"/>
<circle opacity="0.4" cx="234.257" cy="348.535" r="1.69215" fill="#3499FF"/>
<path opacity="0.3" d="M228.354 348.535H201.787" stroke="#3499FF" stroke-width="5" stroke-linecap="round" stroke-linejoin="round"/>
<circle opacity="0.4" cx="198.837" cy="348.535" r="1.69215" fill="#1460D0" fill-opacity="0.5"/>
<circle cx="74.1375" cy="181.721" r="1.69215" fill="#8EA1BD"/>
<path d="M68.2367 181.723H41.6699" stroke="#8EA1BD" stroke-width="5" stroke-linecap="round" stroke-linejoin="round"/>
<circle cx="38.7175" cy="181.721" r="1.69215" fill="#8EA1BD"/>
<path opacity="0.3" d="M31.6336 404.409C16.2756 404.409 3.82812 391.961 3.82812 376.603C3.82812 361.245 16.2756 348.798 31.6336 348.798H200.734" stroke="#8EA1BD" stroke-width="5" stroke-linecap="round" stroke-linejoin="round"/>
<path opacity="0.3" d="M74.1367 404.41H241.342C256.7 404.41 269.147 416.858 269.147 432.216C269.147 447.574 256.7 460.021 241.342 460.021" stroke="#3499FF" stroke-width="5" stroke-linecap="round" stroke-linejoin="round"/>
<path opacity="0.4" d="M31.6336 515.618C16.2756 515.618 3.82812 503.17 3.82812 487.812C3.82812 472.454 16.2756 460.007 31.6336 460.007H198.839" stroke="#8EA1BD" stroke-opacity="0.9" stroke-width="5" stroke-linecap="round" stroke-linejoin="round"/>
<path d="M75.8282 620.007H243.033V675.618V705V717" stroke="#8EA1BD" stroke-opacity="0.9" stroke-width="5" stroke-linecap="round" stroke-linejoin="round"/>
<path d="M74.1367 515.617H241.342C256.7 515.617 269.147 528.065 269.147 543.423C269.147 558.781 256.7 571.228 241.342 571.228" stroke="#3499FF" stroke-width="5" stroke-linecap="round" stroke-linejoin="round"/>
<g opacity="0.4" filter="url(#filter4_d_211_15460)">
<path d="M241.345 453.841C229.419 453.841 219.713 444.135 219.713 432.209C219.713 420.282 229.419 410.576 241.345 410.576C253.272 410.576 262.978 420.282 262.978 432.209C262.978 444.135 253.272 453.841 241.345 453.841Z" fill="#BBD1F0"/>
</g>
<path opacity="0.5" d="M241.346 448.439C232.398 448.439 225.115 441.156 225.115 432.208C225.115 423.26 232.398 415.977 241.346 415.977C250.294 415.977 257.578 423.26 257.578 432.208C257.578 441.156 250.294 448.439 241.346 448.439Z" fill="#4D72A8"/>
<g opacity="0.8" filter="url(#filter5_d_211_15460)">
<path d="M31.6325 509.445C19.7062 509.445 10 499.738 10 487.812C10 475.886 19.7062 466.18 31.6325 466.18C43.5588 466.18 53.265 475.886 53.265 487.812C53.265 499.738 43.5588 509.445 31.6325 509.445Z" fill="#BBD1F0"/>
</g>
<path opacity="0.5" d="M31.6335 504.043C22.6854 504.043 15.4023 496.76 15.4023 487.812C15.4023 478.864 22.6854 471.581 31.6335 471.581C40.5816 471.581 47.8646 478.864 47.8646 487.812C47.8646 496.76 40.5816 504.043 31.6335 504.043Z" fill="#4D72A8"/>
<g filter="url(#filter6_d_211_15460)">
<path d="M241.345 565.05C229.419 565.05 219.713 555.344 219.713 543.418C219.713 531.491 229.419 521.785 241.345 521.785C253.272 521.785 262.978 531.491 262.978 543.418C262.978 555.344 253.272 565.05 241.345 565.05Z" fill="#BBD1F0"/>
</g>
<path d="M241.346 559.648C232.398 559.648 225.115 552.365 225.115 543.417C225.115 534.469 232.398 527.186 241.346 527.186C250.294 527.186 257.578 534.469 257.578 543.417C257.578 552.365 250.294 559.648 241.346 559.648Z" fill="#4D72A8"/>
<g opacity="0.4" filter="url(#filter7_d_211_15460)">
<path d="M31.6325 398.237C19.7062 398.237 10 388.53 10 376.604C10 364.678 19.7062 354.972 31.6325 354.972C43.5588 354.972 53.265 364.678 53.265 376.604C53.265 388.53 43.5588 398.237 31.6325 398.237Z" fill="#BBD1F0"/>
</g>
<path opacity="0.5" d="M31.6335 392.834C22.6854 392.834 15.4023 385.551 15.4023 376.603C15.4023 367.655 22.6854 360.372 31.6335 360.372C40.5816 360.372 47.8646 367.655 47.8646 376.603C47.8646 385.551 40.5816 392.834 31.6335 392.834Z" fill="#4D72A8"/>
<circle cx="74.1375" cy="515.618" r="1.69215" fill="#8EA1BD"/>
<path d="M68.2367 515.617H41.6699" stroke="#8EA1BD" stroke-width="5" stroke-linecap="round" stroke-linejoin="round"/>
<circle cx="38.7175" cy="515.618" r="1.69215" fill="#8EA1BD"/>
<circle opacity="0.5" cx="234.257" cy="460.013" r="1.69215" fill="#3499FF"/>
<circle cx="76.2566" cy="620.013" r="1.69215" fill="#3499FF"/>
<path opacity="0.5" d="M228.354 460.014H201.787" stroke="#3499FF" stroke-width="5" stroke-linecap="round" stroke-linejoin="round"/>
<path d="M70.3539 620.014H41.7871" stroke="#3499FF" stroke-width="5" stroke-linecap="round" stroke-linejoin="round"/>
<circle opacity="0.5" cx="198.837" cy="460.013" r="1.69215" fill="#3499FF"/>
<circle cx="36.8367" cy="620.013" r="1.69215" fill="#3499FF"/>
<circle cx="234.257" cy="571.221" r="1.69215" fill="#3499FF"/>
<path d="M228.354 571.223H201.787" stroke="#3499FF" stroke-width="5" stroke-linecap="round" stroke-linejoin="round"/>
<circle cx="198.837" cy="571.221" r="1.69215" fill="#045482"/>
<circle opacity="0.4" cx="74.1375" cy="404.409" r="1.69215" fill="#8EA1BD"/>
<path opacity="0.4" d="M68.2367 404.41H41.6699" stroke="#8EA1BD" stroke-width="5" stroke-linecap="round" stroke-linejoin="round"/>
<circle opacity="0.4" cx="38.7175" cy="404.409" r="1.69215" fill="#8EA1BD"/>
<path d="M198.84 571.223H31.6348V619.5" stroke="#3499FF" stroke-width="5" stroke-linecap="round" stroke-linejoin="round"/>
<path d="M65.4194 576.671L59.9707 571.222L65.4194 565.773" stroke="#3499FF" stroke-width="5" stroke-linecap="round" stroke-linejoin="round"/>
<path d="M85.4507 576.671L80.002 571.222L85.4507 565.773" stroke="#3499FF" stroke-width="5" stroke-linecap="round" stroke-linejoin="round"/>
<defs>
<filter id="filter0_d_211_15460" x="209.713" y="177.889" width="63.2656" height="63.2651" filterUnits="userSpaceOnUse" color-interpolation-filters="sRGB">
<feFlood flood-opacity="0" result="BackgroundImageFix"/>
<feColorMatrix in="SourceAlpha" type="matrix" values="0 0 0 0 0 0 0 0 0 0 0 0 0 0 0 0 0 0 127 0" result="hardAlpha"/>
<feOffset/>
<feGaussianBlur stdDeviation="5"/>
<feColorMatrix type="matrix" values="0 0 0 0 0.45098 0 0 0 0 0.627451 0 0 0 0 0.886275 0 0 0 1 0"/>
<feBlend mode="normal" in2="BackgroundImageFix" result="effect1_dropShadow_211_15460"/>
<feBlend mode="normal" in="SourceGraphic" in2="effect1_dropShadow_211_15460" result="shape"/>
</filter>
<filter id="filter1_d_211_15460" x="0" y="233.492" width="63.2656" height="63.2651" filterUnits="userSpaceOnUse" color-interpolation-filters="sRGB">
<feFlood flood-opacity="0" result="BackgroundImageFix"/>
<feColorMatrix in="SourceAlpha" type="matrix" values="0 0 0 0 0 0 0 0 0 0 0 0 0 0 0 0 0 0 127 0" result="hardAlpha"/>
<feOffset/>
<feGaussianBlur stdDeviation="5"/>
<feColorMatrix type="matrix" values="0 0 0 0 0.45098 0 0 0 0 0.627451 0 0 0 0 0.886275 0 0 0 1 0"/>
<feBlend mode="normal" in2="BackgroundImageFix" result="effect1_dropShadow_211_15460"/>
<feBlend mode="normal" in="SourceGraphic" in2="effect1_dropShadow_211_15460" result="shape"/>
</filter>
<filter id="filter2_d_211_15460" x="209.713" y="289.098" width="63.2656" height="63.2651" filterUnits="userSpaceOnUse" color-interpolation-filters="sRGB">
<feFlood flood-opacity="0" result="BackgroundImageFix"/>
<feColorMatrix in="SourceAlpha" type="matrix" values="0 0 0 0 0 0 0 0 0 0 0 0 0 0 0 0 0 0 127 0" result="hardAlpha"/>
<feOffset/>
<feGaussianBlur stdDeviation="5"/>
<feColorMatrix type="matrix" values="0 0 0 0 0.45098 0 0 0 0 0.627451 0 0 0 0 0.886275 0 0 0 1 0"/>
<feBlend mode="normal" in2="BackgroundImageFix" result="effect1_dropShadow_211_15460"/>
<feBlend mode="normal" in="SourceGraphic" in2="effect1_dropShadow_211_15460" result="shape"/>
</filter>
<filter id="filter3_d_211_15460" x="0" y="122.285" width="63.2656" height="63.2651" filterUnits="userSpaceOnUse" color-interpolation-filters="sRGB">
<feFlood flood-opacity="0" result="BackgroundImageFix"/>
<feColorMatrix in="SourceAlpha" type="matrix" values="0 0 0 0 0 0 0 0 0 0 0 0 0 0 0 0 0 0 127 0" result="hardAlpha"/>
<feOffset/>
<feGaussianBlur stdDeviation="5"/>
<feColorMatrix type="matrix" values="0 0 0 0 0.45098 0 0 0 0 0.627451 0 0 0 0 0.886275 0 0 0 1 0"/>
<feBlend mode="normal" in2="BackgroundImageFix" result="effect1_dropShadow_211_15460"/>
<feBlend mode="normal" in="SourceGraphic" in2="effect1_dropShadow_211_15460" result="shape"/>
</filter>
<filter id="filter4_d_211_15460" x="209.713" y="400.576" width="63.2656" height="63.2651" filterUnits="userSpaceOnUse" color-interpolation-filters="sRGB">
<feFlood flood-opacity="0" result="BackgroundImageFix"/>
<feColorMatrix in="SourceAlpha" type="matrix" values="0 0 0 0 0 0 0 0 0 0 0 0 0 0 0 0 0 0 127 0" result="hardAlpha"/>
<feOffset/>
<feGaussianBlur stdDeviation="5"/>
<feColorMatrix type="matrix" values="0 0 0 0 0.45098 0 0 0 0 0.627451 0 0 0 0 0.886275 0 0 0 1 0"/>
<feBlend mode="normal" in2="BackgroundImageFix" result="effect1_dropShadow_211_15460"/>
<feBlend mode="normal" in="SourceGraphic" in2="effect1_dropShadow_211_15460" result="shape"/>
</filter>
<filter id="filter5_d_211_15460" x="0" y="456.18" width="63.2656" height="63.2651" filterUnits="userSpaceOnUse" color-interpolation-filters="sRGB">
<feFlood flood-opacity="0" result="BackgroundImageFix"/>
<feColorMatrix in="SourceAlpha" type="matrix" values="0 0 0 0 0 0 0 0 0 0 0 0 0 0 0 0 0 0 127 0" result="hardAlpha"/>
<feOffset/>
<feGaussianBlur stdDeviation="5"/>
<feColorMatrix type="matrix" values="0 0 0 0 0.45098 0 0 0 0 0.627451 0 0 0 0 0.886275 0 0 0 1 0"/>
<feBlend mode="normal" in2="BackgroundImageFix" result="effect1_dropShadow_211_15460"/>
<feBlend mode="normal" in="SourceGraphic" in2="effect1_dropShadow_211_15460" result="shape"/>
</filter>
<filter id="filter6_d_211_15460" x="209.713" y="511.785" width="63.2656" height="63.2651" filterUnits="userSpaceOnUse" color-interpolation-filters="sRGB">
<feFlood flood-opacity="0" result="BackgroundImageFix"/>
<feColorMatrix in="SourceAlpha" type="matrix" values="0 0 0 0 0 0 0 0 0 0 0 0 0 0 0 0 0 0 127 0" result="hardAlpha"/>
<feOffset/>
<feGaussianBlur stdDeviation="5"/>
<feColorMatrix type="matrix" values="0 0 0 0 0.45098 0 0 0 0 0.627451 0 0 0 0 0.886275 0 0 0 1 0"/>
<feBlend mode="normal" in2="BackgroundImageFix" result="effect1_dropShadow_211_15460"/>
<feBlend mode="normal" in="SourceGraphic" in2="effect1_dropShadow_211_15460" result="shape"/>
</filter>
<filter id="filter7_d_211_15460" x="0" y="344.972" width="63.2656" height="63.2651" filterUnits="userSpaceOnUse" color-interpolation-filters="sRGB">
<feFlood flood-opacity="0" result="BackgroundImageFix"/>
<feColorMatrix in="SourceAlpha" type="matrix" values="0 0 0 0 0 0 0 0 0 0 0 0 0 0 0 0 0 0 127 0" result="hardAlpha"/>
<feOffset/>
<feGaussianBlur stdDeviation="5"/>
<feColorMatrix type="matrix" values="0 0 0 0 0.45098 0 0 0 0 0.627451 0 0 0 0 0.886275 0 0 0 1 0"/>
<feBlend mode="normal" in2="BackgroundImageFix" result="effect1_dropShadow_211_15460"/>
<feBlend mode="normal" in="SourceGraphic" in2="effect1_dropShadow_211_15460" result="shape"/>
</filter>
</defs>
</svg>
