<svg width="274" height="720" viewBox="0 0 274 720" fill="none" xmlns="http://www.w3.org/2000/svg">
<path d="M31.8055 181.722C16.4475 181.722 4 169.275 4 153.917C4 138.559 16.4475 126.111 31.8055 126.111H241.517V113.529V2.5" stroke="#8EA1BD" stroke-width="5" stroke-linecap="round" stroke-linejoin="round"/>
<path opacity="0.4" d="M31.8055 292.93C16.4475 292.93 4 280.483 4 265.125C4 249.767 16.4475 237.319 31.8055 237.319H199.01" stroke="#8EA1BD" stroke-width="5" stroke-linecap="round" stroke-linejoin="round"/>
<path opacity="0.3" d="M74.3086 292.931H241.514C256.872 292.931 269.319 305.378 269.319 320.736C269.319 336.094 256.872 348.542 241.514 348.542" stroke="#3499FF" stroke-width="5" stroke-linecap="round" stroke-linejoin="round"/>
<g opacity="0.4" filter="url(#filter0_d_218_15874)">
<path d="M31.8044 286.757C19.8781 286.757 10.1719 277.051 10.1719 265.125C10.1719 253.198 19.8781 243.492 31.8044 243.492C43.7307 243.492 53.4368 253.198 53.4368 265.125C53.4368 277.051 43.7307 286.757 31.8044 286.757Z" fill="#BBD1F0"/>
</g>
<path opacity="0.5" d="M31.8054 281.357C22.8572 281.357 15.5742 274.074 15.5742 265.126C15.5742 256.178 22.8572 248.895 31.8054 248.895C40.7535 248.895 48.0365 256.178 48.0365 265.126C48.0365 274.074 40.7535 281.357 31.8054 281.357Z" fill="#4D72A8"/>
<g opacity="0.4" filter="url(#filter1_d_218_15874)">
<path d="M241.517 342.363C229.591 342.363 219.885 332.656 219.885 320.73C219.885 308.804 229.591 299.098 241.517 299.098C253.444 299.098 263.15 308.804 263.15 320.73C263.15 332.656 253.444 342.363 241.517 342.363Z" fill="#BBD1F0"/>
</g>
<path opacity="0.5" d="M241.518 336.96C232.57 336.96 225.287 329.677 225.287 320.729C225.287 311.781 232.57 304.498 241.518 304.498C250.466 304.498 257.749 311.781 257.749 320.729C257.749 329.677 250.466 336.96 241.518 336.96Z" fill="#4D72A8"/>
<path d="M198.599 131.567L193.15 126.119L198.599 120.67" stroke="#8EA1BD" stroke-width="5" stroke-linecap="round" stroke-linejoin="round"/>
<path d="M218.631 131.567L213.176 126.119L218.631 120.67" stroke="#8EA1BD" stroke-width="5" stroke-linecap="round" stroke-linejoin="round"/>
<circle opacity="0.4" cx="74.3093" cy="292.93" r="1.69215" fill="#8EA1BD"/>
<path opacity="0.4" d="M68.4086 292.931H41.8418" stroke="#8EA1BD" stroke-width="5" stroke-linecap="round" stroke-linejoin="round"/>
<circle opacity="0.4" cx="38.8894" cy="292.93" r="1.69215" fill="#8EA1BD"/>
<circle opacity="0.4" cx="234.428" cy="348.535" r="1.69215" fill="#3499FF"/>
<path opacity="0.3" d="M228.526 348.535H201.959" stroke="#3499FF" stroke-width="5" stroke-linecap="round" stroke-linejoin="round"/>
<circle cx="199.009" cy="348.535" r="1.69215" fill="#1460D0"/>
<circle cx="74.3093" cy="181.721" r="1.69215" fill="#8EA1BD"/>
<path d="M68.4086 181.723H41.8418" stroke="#8EA1BD" stroke-width="5" stroke-linecap="round" stroke-linejoin="round"/>
<circle cx="38.8894" cy="181.721" r="1.69215" fill="#8EA1BD"/>
<path d="M31.8055 404.409C16.4475 404.409 4 391.961 4 376.603C4 361.245 16.4475 348.798 31.8055 348.798H200.906" stroke="#8EA1BD" stroke-width="5" stroke-linecap="round" stroke-linejoin="round"/>
<path d="M74.3086 404.41H241.514C256.872 404.41 269.319 416.858 269.319 432.216C269.319 447.574 256.872 460.021 241.514 460.021" stroke="#3499FF" stroke-width="5" stroke-linecap="round" stroke-linejoin="round"/>
<path opacity="0.3" d="M31.8055 515.618C16.4475 515.618 4 503.17 4 487.812C4 472.454 16.4475 460.007 31.8055 460.007H199.01" stroke="#8EA1BD" stroke-opacity="0.9" stroke-width="5" stroke-linecap="round" stroke-linejoin="round"/>
<path opacity="0.3" d="M76 620.007H243.205V675.618V705V717" stroke="#8EA1BD" stroke-opacity="0.9" stroke-width="5" stroke-linecap="round" stroke-linejoin="round"/>
<path opacity="0.3" d="M74.3086 515.617H241.514C256.872 515.617 269.319 528.065 269.319 543.423C269.319 558.781 256.872 571.228 241.514 571.228" stroke="#3499FF" stroke-width="5" stroke-linecap="round" stroke-linejoin="round"/>
<g filter="url(#filter2_d_218_15874)">
<path d="M241.517 453.841C229.591 453.841 219.885 444.135 219.885 432.209C219.885 420.282 229.591 410.576 241.517 410.576C253.444 410.576 263.15 420.282 263.15 432.209C263.15 444.135 253.444 453.841 241.517 453.841Z" fill="#BBD1F0"/>
</g>
<path d="M241.518 448.439C232.57 448.439 225.287 441.156 225.287 432.208C225.287 423.26 232.57 415.977 241.518 415.977C250.466 415.977 257.749 423.26 257.749 432.208C257.749 441.156 250.466 448.439 241.518 448.439Z" fill="#4D72A8"/>
<g opacity="0.4" filter="url(#filter3_d_218_15874)">
<path d="M31.8044 509.445C19.8781 509.445 10.1719 499.738 10.1719 487.812C10.1719 475.886 19.8781 466.18 31.8044 466.18C43.7307 466.18 53.4368 475.886 53.4368 487.812C53.4368 499.738 43.7307 509.445 31.8044 509.445Z" fill="#BBD1F0"/>
</g>
<path opacity="0.5" d="M31.8054 504.043C22.8572 504.043 15.5742 496.76 15.5742 487.812C15.5742 478.864 22.8572 471.581 31.8054 471.581C40.7535 471.581 48.0365 478.864 48.0365 487.812C48.0365 496.76 40.7535 504.043 31.8054 504.043Z" fill="#4D72A8"/>
<g opacity="0.4" filter="url(#filter4_d_218_15874)">
<path d="M241.517 565.05C229.591 565.05 219.885 555.344 219.885 543.418C219.885 531.491 229.591 521.785 241.517 521.785C253.444 521.785 263.15 531.491 263.15 543.418C263.15 555.344 253.444 565.05 241.517 565.05Z" fill="#BBD1F0"/>
</g>
<path opacity="0.5" d="M241.518 559.648C232.57 559.648 225.287 552.365 225.287 543.417C225.287 534.469 232.57 527.186 241.518 527.186C250.466 527.186 257.749 534.469 257.749 543.417C257.749 552.365 250.466 559.648 241.518 559.648Z" fill="#4D72A8"/>
<g filter="url(#filter5_d_218_15874)">
<path d="M31.8044 398.237C19.8781 398.237 10.1719 388.53 10.1719 376.604C10.1719 364.678 19.8781 354.972 31.8044 354.972C43.7307 354.972 53.4368 364.678 53.4368 376.604C53.4368 388.53 43.7307 398.237 31.8044 398.237Z" fill="#BBD1F0"/>
</g>
<path d="M31.8054 392.834C22.8572 392.834 15.5742 385.551 15.5742 376.603C15.5742 367.655 22.8572 360.372 31.8054 360.372C40.7535 360.372 48.0365 367.655 48.0365 376.603C48.0365 385.551 40.7535 392.834 31.8054 392.834Z" fill="#4D72A8"/>
<path d="M30.8762 383.699C29.8725 383.699 28.9776 383.514 28.1916 383.145C27.4103 382.776 26.7901 382.267 26.3308 381.618C25.8715 380.969 25.6324 380.226 25.6135 379.388H28.5964C28.6296 379.951 28.8663 380.408 29.3066 380.759C29.747 381.109 30.2702 381.284 30.8762 381.284C31.3592 381.284 31.7853 381.178 32.1547 380.964C32.5287 380.747 32.8199 380.446 33.0282 380.062C33.2413 379.674 33.3478 379.229 33.3478 378.727C33.3478 378.216 33.2389 377.766 33.0211 377.378C32.8081 376.99 32.5121 376.687 32.1333 376.469C31.7546 376.251 31.3213 376.14 30.8336 376.135C30.4075 376.135 29.9932 376.223 29.5907 376.398C29.193 376.573 28.8829 376.812 28.6603 377.115L25.926 376.625L26.6149 368.955H35.5069V371.469H29.1504L28.774 375.112H28.8592C29.1149 374.752 29.5008 374.454 30.0169 374.217C30.533 373.981 31.1106 373.862 31.7498 373.862C32.6258 373.862 33.407 374.068 34.0936 374.48C34.7801 374.892 35.3223 375.458 35.72 376.178C36.1177 376.893 36.3142 377.716 36.3095 378.649C36.3142 379.629 36.0869 380.5 35.6277 381.263C35.1731 382.02 34.5363 382.617 33.7172 383.053C32.9028 383.483 31.9558 383.699 30.8762 383.699Z" fill="#B8D0F2"/>
<circle opacity="0.4" cx="74.3093" cy="515.618" r="1.69215" fill="#8EA1BD"/>
<path opacity="0.4" d="M68.4086 515.617H41.8418" stroke="#8EA1BD" stroke-width="5" stroke-linecap="round" stroke-linejoin="round"/>
<circle opacity="0.4" cx="38.8894" cy="515.618" r="1.69215" fill="#8EA1BD"/>
<circle cx="234.428" cy="460.013" r="1.69215" fill="#3499FF"/>
<circle opacity="0.4" cx="76.4285" cy="620.013" r="1.69215" fill="#3499FF"/>
<path d="M228.526 460.014H201.959" stroke="#3499FF" stroke-width="5" stroke-linecap="round" stroke-linejoin="round"/>
<path opacity="0.4" d="M70.5258 620.014H41.959" stroke="#3499FF" stroke-width="5" stroke-linecap="round" stroke-linejoin="round"/>
<circle cx="199.009" cy="460.013" r="1.69215" fill="#3499FF"/>
<circle opacity="0.4" cx="37.0086" cy="620.013" r="1.69215" fill="#3499FF"/>
<circle opacity="0.4" cx="234.428" cy="571.221" r="1.69215" fill="#3499FF"/>
<path opacity="0.3" d="M228.526 571.223H201.959" stroke="#3499FF" stroke-width="5" stroke-linecap="round" stroke-linejoin="round"/>
<circle opacity="0.4" cx="199.009" cy="571.221" r="1.69215" fill="#045482"/>
<circle cx="74.3093" cy="404.409" r="1.69215" fill="#8EA1BD"/>
<path d="M68.4086 404.41H41.8418" stroke="#8EA1BD" stroke-width="5" stroke-linecap="round" stroke-linejoin="round"/>
<circle cx="38.8894" cy="404.409" r="1.69215" fill="#8EA1BD"/>
<path opacity="0.3" d="M199.012 571.223H31.8066V619.5" stroke="#3499FF" stroke-width="5" stroke-linecap="round" stroke-linejoin="round"/>
<path d="M65.5913 576.671L60.1426 571.222L65.5913 565.773" stroke="#153667" stroke-width="5" stroke-linecap="round" stroke-linejoin="round"/>
<path d="M85.6226 576.671L80.1738 571.222L85.6226 565.773" stroke="#153667" stroke-width="5" stroke-linecap="round" stroke-linejoin="round"/>
<path d="M241.49 439.699C240.742 439.694 240.02 439.569 239.324 439.322C238.632 439.076 238.012 438.676 237.463 438.122C236.914 437.568 236.478 436.834 236.156 435.92C235.839 435.007 235.68 433.884 235.68 432.554C235.685 431.332 235.825 430.241 236.099 429.28C236.379 428.314 236.776 427.495 237.292 426.822C237.813 426.15 238.436 425.639 239.16 425.288C239.885 424.933 240.697 424.756 241.596 424.756C242.567 424.756 243.424 424.945 244.167 425.324C244.911 425.698 245.507 426.207 245.957 426.851C246.412 427.495 246.686 428.217 246.781 429.017H243.748C243.63 428.51 243.381 428.113 243.003 427.824C242.624 427.535 242.155 427.391 241.596 427.391C240.649 427.391 239.93 427.803 239.437 428.626C238.95 429.45 238.701 430.57 238.692 431.986H238.791C239.009 431.555 239.302 431.188 239.672 430.885C240.046 430.577 240.47 430.343 240.943 430.182C241.421 430.016 241.925 429.933 242.456 429.933C243.318 429.933 244.085 430.137 244.757 430.544C245.429 430.946 245.96 431.5 246.348 432.206C246.736 432.911 246.93 433.719 246.93 434.628C246.93 435.613 246.701 436.489 246.241 437.256C245.787 438.023 245.15 438.624 244.331 439.06C243.516 439.491 242.569 439.704 241.49 439.699ZM241.476 437.284C241.949 437.284 242.373 437.17 242.747 436.943C243.121 436.716 243.415 436.408 243.628 436.02C243.841 435.632 243.947 435.196 243.947 434.713C243.947 434.23 243.841 433.797 243.628 433.413C243.419 433.03 243.131 432.724 242.761 432.497C242.392 432.27 241.97 432.156 241.497 432.156C241.142 432.156 240.813 432.223 240.51 432.355C240.211 432.488 239.949 432.672 239.721 432.909C239.499 433.146 239.324 433.42 239.196 433.733C239.068 434.041 239.004 434.37 239.004 434.72C239.004 435.189 239.111 435.617 239.324 436.006C239.541 436.394 239.835 436.704 240.204 436.936C240.578 437.168 241.002 437.284 241.476 437.284Z" fill="#B8D0F2"/>
<g opacity="0.4" filter="url(#filter6_d_218_15874)">
<path d="M31.6325 174.765C19.7062 174.765 10 165.059 10 153.132C10 141.206 19.7062 131.5 31.6325 131.5C43.5588 131.5 53.265 141.206 53.265 153.132C53.265 165.059 43.5588 174.765 31.6325 174.765Z" fill="#BBD1F0"/>
</g>
<path opacity="0.5" d="M31.6335 169.363C22.6854 169.363 15.4023 162.08 15.4023 153.132C15.4023 144.183 22.6854 136.9 31.6335 136.9C40.5816 136.9 47.8646 144.183 47.8646 153.132C47.8646 162.08 40.5816 169.363 31.6335 169.363Z" fill="#4D72A8"/>
<circle opacity="0.4" cx="234.692" cy="237.192" r="1.69215" fill="#3499FF"/>
<path opacity="0.3" d="M74 181.5H241.205C256.563 181.5 269.01 193.947 269.01 209.305C269.01 224.663 256.563 237.111 241.205 237.111" stroke="#3499FF" stroke-width="5" stroke-linecap="round" stroke-linejoin="round"/>
<g opacity="0.4" filter="url(#filter7_d_218_15874)">
<path d="M241.632 230.765C229.706 230.765 220 221.059 220 209.132C220 197.206 229.706 187.5 241.632 187.5C253.559 187.5 263.265 197.206 263.265 209.132C263.265 221.059 253.559 230.765 241.632 230.765Z" fill="#BBD1F0"/>
</g>
<path opacity="0.5" d="M241.633 225.363C232.685 225.363 225.402 218.08 225.402 209.132C225.402 200.183 232.685 192.9 241.633 192.9C250.582 192.9 257.865 200.183 257.865 209.132C257.865 218.08 250.582 225.363 241.633 225.363Z" fill="#4D72A8"/>
<path opacity="0.3" d="M229.067 237.5H202.5" stroke="#3499FF" stroke-width="5" stroke-linecap="round" stroke-linejoin="round"/>
<defs>
<filter id="filter0_d_218_15874" x="0.171875" y="233.492" width="63.2656" height="63.2651" filterUnits="userSpaceOnUse" color-interpolation-filters="sRGB">
<feFlood flood-opacity="0" result="BackgroundImageFix"/>
<feColorMatrix in="SourceAlpha" type="matrix" values="0 0 0 0 0 0 0 0 0 0 0 0 0 0 0 0 0 0 127 0" result="hardAlpha"/>
<feOffset/>
<feGaussianBlur stdDeviation="5"/>
<feColorMatrix type="matrix" values="0 0 0 0 0.45098 0 0 0 0 0.627451 0 0 0 0 0.886275 0 0 0 1 0"/>
<feBlend mode="normal" in2="BackgroundImageFix" result="effect1_dropShadow_218_15874"/>
<feBlend mode="normal" in="SourceGraphic" in2="effect1_dropShadow_218_15874" result="shape"/>
</filter>
<filter id="filter1_d_218_15874" x="209.885" y="289.098" width="63.2656" height="63.2651" filterUnits="userSpaceOnUse" color-interpolation-filters="sRGB">
<feFlood flood-opacity="0" result="BackgroundImageFix"/>
<feColorMatrix in="SourceAlpha" type="matrix" values="0 0 0 0 0 0 0 0 0 0 0 0 0 0 0 0 0 0 127 0" result="hardAlpha"/>
<feOffset/>
<feGaussianBlur stdDeviation="5"/>
<feColorMatrix type="matrix" values="0 0 0 0 0.45098 0 0 0 0 0.627451 0 0 0 0 0.886275 0 0 0 1 0"/>
<feBlend mode="normal" in2="BackgroundImageFix" result="effect1_dropShadow_218_15874"/>
<feBlend mode="normal" in="SourceGraphic" in2="effect1_dropShadow_218_15874" result="shape"/>
</filter>
<filter id="filter2_d_218_15874" x="209.885" y="400.576" width="63.2656" height="63.2651" filterUnits="userSpaceOnUse" color-interpolation-filters="sRGB">
<feFlood flood-opacity="0" result="BackgroundImageFix"/>
<feColorMatrix in="SourceAlpha" type="matrix" values="0 0 0 0 0 0 0 0 0 0 0 0 0 0 0 0 0 0 127 0" result="hardAlpha"/>
<feOffset/>
<feGaussianBlur stdDeviation="5"/>
<feColorMatrix type="matrix" values="0 0 0 0 0.45098 0 0 0 0 0.627451 0 0 0 0 0.886275 0 0 0 1 0"/>
<feBlend mode="normal" in2="BackgroundImageFix" result="effect1_dropShadow_218_15874"/>
<feBlend mode="normal" in="SourceGraphic" in2="effect1_dropShadow_218_15874" result="shape"/>
</filter>
<filter id="filter3_d_218_15874" x="0.171875" y="456.18" width="63.2656" height="63.2651" filterUnits="userSpaceOnUse" color-interpolation-filters="sRGB">
<feFlood flood-opacity="0" result="BackgroundImageFix"/>
<feColorMatrix in="SourceAlpha" type="matrix" values="0 0 0 0 0 0 0 0 0 0 0 0 0 0 0 0 0 0 127 0" result="hardAlpha"/>
<feOffset/>
<feGaussianBlur stdDeviation="5"/>
<feColorMatrix type="matrix" values="0 0 0 0 0.45098 0 0 0 0 0.627451 0 0 0 0 0.886275 0 0 0 1 0"/>
<feBlend mode="normal" in2="BackgroundImageFix" result="effect1_dropShadow_218_15874"/>
<feBlend mode="normal" in="SourceGraphic" in2="effect1_dropShadow_218_15874" result="shape"/>
</filter>
<filter id="filter4_d_218_15874" x="209.885" y="511.785" width="63.2656" height="63.2651" filterUnits="userSpaceOnUse" color-interpolation-filters="sRGB">
<feFlood flood-opacity="0" result="BackgroundImageFix"/>
<feColorMatrix in="SourceAlpha" type="matrix" values="0 0 0 0 0 0 0 0 0 0 0 0 0 0 0 0 0 0 127 0" result="hardAlpha"/>
<feOffset/>
<feGaussianBlur stdDeviation="5"/>
<feColorMatrix type="matrix" values="0 0 0 0 0.45098 0 0 0 0 0.627451 0 0 0 0 0.886275 0 0 0 1 0"/>
<feBlend mode="normal" in2="BackgroundImageFix" result="effect1_dropShadow_218_15874"/>
<feBlend mode="normal" in="SourceGraphic" in2="effect1_dropShadow_218_15874" result="shape"/>
</filter>
<filter id="filter5_d_218_15874" x="0.171875" y="344.972" width="63.2656" height="63.2651" filterUnits="userSpaceOnUse" color-interpolation-filters="sRGB">
<feFlood flood-opacity="0" result="BackgroundImageFix"/>
<feColorMatrix in="SourceAlpha" type="matrix" values="0 0 0 0 0 0 0 0 0 0 0 0 0 0 0 0 0 0 127 0" result="hardAlpha"/>
<feOffset/>
<feGaussianBlur stdDeviation="5"/>
<feColorMatrix type="matrix" values="0 0 0 0 0.45098 0 0 0 0 0.627451 0 0 0 0 0.886275 0 0 0 1 0"/>
<feBlend mode="normal" in2="BackgroundImageFix" result="effect1_dropShadow_218_15874"/>
<feBlend mode="normal" in="SourceGraphic" in2="effect1_dropShadow_218_15874" result="shape"/>
</filter>
<filter id="filter6_d_218_15874" x="0" y="121.5" width="63.2656" height="63.2651" filterUnits="userSpaceOnUse" color-interpolation-filters="sRGB">
<feFlood flood-opacity="0" result="BackgroundImageFix"/>
<feColorMatrix in="SourceAlpha" type="matrix" values="0 0 0 0 0 0 0 0 0 0 0 0 0 0 0 0 0 0 127 0" result="hardAlpha"/>
<feOffset/>
<feGaussianBlur stdDeviation="5"/>
<feColorMatrix type="matrix" values="0 0 0 0 0.45098 0 0 0 0 0.627451 0 0 0 0 0.886275 0 0 0 1 0"/>
<feBlend mode="normal" in2="BackgroundImageFix" result="effect1_dropShadow_218_15874"/>
<feBlend mode="normal" in="SourceGraphic" in2="effect1_dropShadow_218_15874" result="shape"/>
</filter>
<filter id="filter7_d_218_15874" x="210" y="177.5" width="63.2656" height="63.2651" filterUnits="userSpaceOnUse" color-interpolation-filters="sRGB">
<feFlood flood-opacity="0" result="BackgroundImageFix"/>
<feColorMatrix in="SourceAlpha" type="matrix" values="0 0 0 0 0 0 0 0 0 0 0 0 0 0 0 0 0 0 127 0" result="hardAlpha"/>
<feOffset/>
<feGaussianBlur stdDeviation="5"/>
<feColorMatrix type="matrix" values="0 0 0 0 0.45098 0 0 0 0 0.627451 0 0 0 0 0.886275 0 0 0 1 0"/>
<feBlend mode="normal" in2="BackgroundImageFix" result="effect1_dropShadow_218_15874"/>
<feBlend mode="normal" in="SourceGraphic" in2="effect1_dropShadow_218_15874" result="shape"/>
</filter>
</defs>
</svg>
