<svg width="274" height="820" viewBox="0 0 274 820" fill="none" xmlns="http://www.w3.org/2000/svg">
<path d="M31.8055 181.722C16.4475 181.722 4 169.275 4 153.917C4 138.559 16.4475 126.111 31.8055 126.111H241.517V113.529V2.5" stroke="#8EA1BD" stroke-width="5" stroke-linecap="round" stroke-linejoin="round"/>
<path d="M31.8055 292.93C16.4475 292.93 4 280.483 4 265.125C4 249.767 16.4475 237.319 31.8055 237.319H199.01" stroke="#8EA1BD" stroke-width="5" stroke-linecap="round" stroke-linejoin="round"/>
<path opacity="0.4" d="M74.3086 292.931H241.514C256.872 292.931 269.319 305.378 269.319 320.736C269.319 336.094 256.872 348.542 241.514 348.542" stroke="#3499FF" stroke-width="5" stroke-linecap="round" stroke-linejoin="round"/>
<path d="M198.599 131.567L193.15 126.119L198.599 120.67" stroke="#8EA1BD" stroke-width="5" stroke-linecap="round" stroke-linejoin="round"/>
<path d="M218.631 131.567L213.176 126.119L218.631 120.67" stroke="#8EA1BD" stroke-width="5" stroke-linecap="round" stroke-linejoin="round"/>
<circle cx="74.3093" cy="292.93" r="1.69215" fill="#8EA1BD"/>
<path d="M68.4086 292.931H41.8418" stroke="#8EA1BD" stroke-width="5" stroke-linecap="round" stroke-linejoin="round"/>
<circle cx="38.8894" cy="292.93" r="1.69215" fill="#8EA1BD"/>
<circle cx="234.428" cy="237.327" r="1.69215" fill="#3499FF"/>
<path opacity="0.8" d="M228.526 237.326H201.959" stroke="#3499FF" stroke-width="5" stroke-linecap="round" stroke-linejoin="round"/>
<circle cx="197.011" cy="237.327" r="1.69215" fill="#3499FF"/>
<circle opacity="0.5" cx="234.428" cy="348.535" r="1.69215" fill="#3499FF"/>
<path opacity="0.5" d="M228.526 348.535H201.959" stroke="#3499FF" stroke-width="5" stroke-linecap="round" stroke-linejoin="round"/>
<circle cx="199.009" cy="348.535" r="1.69215" fill="#1460D0"/>
<circle cx="74.3093" cy="181.721" r="1.69215" fill="#8EA1BD"/>
<path d="M68.4086 181.723H41.8418" stroke="#8EA1BD" stroke-width="5" stroke-linecap="round" stroke-linejoin="round"/>
<circle cx="38.8894" cy="181.721" r="1.69215" fill="#8EA1BD"/>
<path opacity="0.5" d="M31.8055 404.409C16.4475 404.409 4 391.961 4 376.603C4 361.245 16.4475 348.798 31.8055 348.798H200.906" stroke="#8EA1BD" stroke-width="5" stroke-linecap="round" stroke-linejoin="round"/>
<path opacity="0.3" d="M74.3086 404.41H241.514C256.872 404.41 269.319 416.858 269.319 432.216C269.319 447.574 256.872 460.021 241.514 460.021" stroke="#3499FF" stroke-width="5" stroke-linecap="round" stroke-linejoin="round"/>
<path d="M31.8055 515.618C16.4475 515.618 4 503.17 4 487.812C4 472.454 16.4475 460.007 31.8055 460.007H199.01" stroke="#8EA1BD" stroke-width="5" stroke-linecap="round" stroke-linejoin="round"/>
<path d="M76 620.007H243.205V675.618V705V817" stroke="#8EA1BD" stroke-opacity="0.9" stroke-width="5" stroke-linecap="round" stroke-linejoin="round"/>
<path d="M74.3086 515.617H241.514C256.872 515.617 269.319 528.065 269.319 543.423C269.319 558.781 256.872 571.228 241.514 571.228" stroke="#3499FF" stroke-width="5" stroke-linecap="round" stroke-linejoin="round"/>
<g opacity="0.4" filter="url(#filter0_d_217_15855)">
<path d="M241.517 453.841C229.591 453.841 219.885 444.135 219.885 432.209C219.885 420.282 229.591 410.576 241.517 410.576C253.444 410.576 263.15 420.282 263.15 432.209C263.15 444.135 253.444 453.841 241.517 453.841Z" fill="#BBD1F0"/>
</g>
<path opacity="0.5" d="M241.518 448.439C232.57 448.439 225.287 441.156 225.287 432.208C225.287 423.26 232.57 415.977 241.518 415.977C250.466 415.977 257.749 423.26 257.749 432.208C257.749 441.156 250.466 448.439 241.518 448.439Z" fill="#4D72A8"/>
<g filter="url(#filter1_d_217_15855)">
<path d="M31.8044 509.445C19.8781 509.445 10.1719 499.738 10.1719 487.812C10.1719 475.886 19.8781 466.18 31.8044 466.18C43.7307 466.18 53.4368 475.886 53.4368 487.812C53.4368 499.738 43.7307 509.445 31.8044 509.445Z" fill="#BBD1F0"/>
</g>
<path d="M31.8054 504.043C22.8572 504.043 15.5742 496.76 15.5742 487.812C15.5742 478.864 22.8572 471.581 31.8054 471.581C40.7535 471.581 48.0365 478.864 48.0365 487.812C48.0365 496.76 40.7535 504.043 31.8054 504.043Z" fill="#4D72A8"/>
<path d="M28.1371 495.5L34.1669 483.568V483.469H27.1428V480.955H37.3487V483.504L31.3118 495.5H28.1371Z" fill="#B8D0F2"/>
<g filter="url(#filter2_d_217_15855)">
<path d="M241.517 565.05C229.591 565.05 219.885 555.344 219.885 543.418C219.885 531.491 229.591 521.785 241.517 521.785C253.444 521.785 263.15 531.491 263.15 543.418C263.15 555.344 253.444 565.05 241.517 565.05Z" fill="#BBD1F0"/>
</g>
<path d="M241.518 559.648C232.57 559.648 225.287 552.365 225.287 543.417C225.287 534.469 232.57 527.186 241.518 527.186C250.466 527.186 257.749 534.469 257.749 543.417C257.749 552.365 250.466 559.648 241.518 559.648Z" fill="#4D72A8"/>
<g opacity="0.4" filter="url(#filter3_d_217_15855)">
<path d="M31.8044 398.237C19.8781 398.237 10.1719 388.53 10.1719 376.604C10.1719 364.678 19.8781 354.972 31.8044 354.972C43.7307 354.972 53.4368 364.678 53.4368 376.604C53.4368 388.53 43.7307 398.237 31.8044 398.237Z" fill="#BBD1F0"/>
</g>
<path opacity="0.5" d="M31.8054 392.834C22.8572 392.834 15.5742 385.551 15.5742 376.603C15.5742 367.655 22.8572 360.372 31.8054 360.372C40.7535 360.372 48.0365 367.655 48.0365 376.603C48.0365 385.551 40.7535 392.834 31.8054 392.834Z" fill="#4D72A8"/>
<circle cx="74.3093" cy="515.618" r="1.69215" fill="#8EA1BD"/>
<path d="M68.4086 515.617H41.8418" stroke="#8EA1BD" stroke-width="5" stroke-linecap="round" stroke-linejoin="round"/>
<circle cx="38.8894" cy="515.618" r="1.69215" fill="#8EA1BD"/>
<circle opacity="0.4" cx="234.428" cy="460.013" r="1.69215" fill="#3499FF"/>
<circle cx="76.4285" cy="620.013" r="1.69215" fill="#3499FF"/>
<path opacity="0.4" d="M228.526 460.014H201.959" stroke="#3499FF" stroke-width="5" stroke-linecap="round" stroke-linejoin="round"/>
<path d="M70.5258 620.014H41.959" stroke="#3499FF" stroke-width="5" stroke-linecap="round" stroke-linejoin="round"/>
<circle opacity="0.4" cx="199.009" cy="460.013" r="1.69215" fill="#3499FF"/>
<circle cx="37.0086" cy="620.013" r="1.69215" fill="#3499FF"/>
<circle cx="234.428" cy="571.221" r="1.69215" fill="#3499FF"/>
<path d="M228.526 571.223H201.959" stroke="#3499FF" stroke-width="5" stroke-linecap="round" stroke-linejoin="round"/>
<circle cx="199.009" cy="571.221" r="1.69215" fill="#045482"/>
<circle opacity="0.4" cx="74.3093" cy="404.409" r="1.69215" fill="#8EA1BD"/>
<path opacity="0.4" d="M68.4086 404.41H41.8418" stroke="#8EA1BD" stroke-width="5" stroke-linecap="round" stroke-linejoin="round"/>
<circle opacity="0.4" cx="38.8894" cy="404.409" r="1.69215" fill="#8EA1BD"/>
<path d="M199.012 571.223H31.8066V619.5" stroke="#3499FF" stroke-width="5" stroke-linecap="round" stroke-linejoin="round"/>
<path d="M65.5913 576.671L60.1426 571.222L65.5913 565.773" stroke="#3499FF" stroke-width="5" stroke-linecap="round" stroke-linejoin="round"/>
<path d="M85.6226 576.671L80.1738 571.222L85.6226 565.773" stroke="#3499FF" stroke-width="5" stroke-linecap="round" stroke-linejoin="round"/>
<path d="M241.324 551.699C240.23 551.699 239.257 551.521 238.405 551.166C237.557 550.806 236.892 550.316 236.409 549.696C235.926 549.076 235.685 548.373 235.685 547.587C235.685 546.981 235.822 546.424 236.097 545.918C236.376 545.406 236.755 544.982 237.233 544.646C237.711 544.305 238.246 544.088 238.838 543.993V543.893C238.062 543.737 237.432 543.361 236.949 542.764C236.466 542.163 236.224 541.464 236.224 540.669C236.224 539.916 236.445 539.246 236.885 538.659C237.325 538.067 237.929 537.603 238.696 537.267C239.468 536.926 240.344 536.756 241.324 536.756C242.304 536.756 243.178 536.926 243.945 537.267C244.716 537.608 245.322 538.074 245.763 538.666C246.203 539.253 246.426 539.921 246.43 540.669C246.426 541.469 246.179 542.168 245.692 542.764C245.204 543.361 244.579 543.737 243.817 543.893V543.993C244.399 544.088 244.927 544.305 245.401 544.646C245.879 544.982 246.258 545.406 246.537 545.918C246.821 546.424 246.965 546.981 246.97 547.587C246.965 548.373 246.722 549.076 246.239 549.696C245.756 550.316 245.088 550.806 244.236 551.166C243.388 551.521 242.418 551.699 241.324 551.699ZM241.324 549.44C241.812 549.44 242.238 549.353 242.602 549.178C242.967 548.998 243.251 548.751 243.455 548.439C243.663 548.122 243.767 547.757 243.767 547.345C243.767 546.924 243.661 546.552 243.447 546.23C243.234 545.903 242.946 545.648 242.581 545.463C242.216 545.274 241.797 545.179 241.324 545.179C240.855 545.179 240.436 545.274 240.067 545.463C239.697 545.648 239.406 545.903 239.193 546.23C238.985 546.552 238.881 546.924 238.881 547.345C238.881 547.757 238.982 548.122 239.186 548.439C239.39 548.751 239.676 548.998 240.045 549.178C240.415 549.353 240.841 549.44 241.324 549.44ZM241.324 542.942C241.731 542.942 242.093 542.859 242.411 542.693C242.728 542.527 242.976 542.298 243.156 542.004C243.336 541.711 243.426 541.372 243.426 540.989C243.426 540.61 243.336 540.278 243.156 539.994C242.976 539.705 242.73 539.481 242.418 539.32C242.105 539.154 241.741 539.071 241.324 539.071C240.912 539.071 240.547 539.154 240.23 539.32C239.913 539.481 239.664 539.705 239.484 539.994C239.309 540.278 239.222 540.61 239.222 540.989C239.222 541.372 239.312 541.711 239.491 542.004C239.671 542.298 239.92 542.527 240.237 542.693C240.554 542.859 240.917 542.942 241.324 542.942Z" fill="#B8D0F2"/>
<path opacity="0.3" d="M74.4297 181.5H241.635C256.993 181.5 269.44 193.947 269.44 209.305C269.44 224.663 256.993 237.111 241.635 237.111" stroke="#3499FF" stroke-width="5" stroke-linecap="round" stroke-linejoin="round"/>
<g opacity="0.4" filter="url(#filter4_d_217_15855)">
<path d="M31.6325 286.765C19.7062 286.765 10 277.059 10 265.132C10 253.206 19.7062 243.5 31.6325 243.5C43.5588 243.5 53.265 253.206 53.265 265.132C53.265 277.059 43.5588 286.765 31.6325 286.765Z" fill="#BBD1F0"/>
</g>
<path opacity="0.5" d="M31.6335 281.363C22.6854 281.363 15.4023 274.08 15.4023 265.132C15.4023 256.183 22.6854 248.9 31.6335 248.9C40.5816 248.9 47.8646 256.183 47.8646 265.132C47.8646 274.08 40.5816 281.363 31.6335 281.363Z" fill="#4D72A8"/>
<g opacity="0.4" filter="url(#filter5_d_217_15855)">
<path d="M241.062 341.765C229.136 341.765 219.43 332.059 219.43 320.132C219.43 308.206 229.136 298.5 241.062 298.5C252.988 298.5 262.695 308.206 262.695 320.132C262.695 332.059 252.988 341.765 241.062 341.765Z" fill="#BBD1F0"/>
</g>
<path opacity="0.5" d="M241.063 336.363C232.115 336.363 224.832 329.08 224.832 320.132C224.832 311.183 232.115 303.9 241.063 303.9C250.011 303.9 257.294 311.183 257.294 320.132C257.294 329.08 250.011 336.363 241.063 336.363Z" fill="#4D72A8"/>
<g opacity="0.4" filter="url(#filter6_d_217_15855)">
<path d="M241.062 230.765C229.136 230.765 219.43 221.059 219.43 209.132C219.43 197.206 229.136 187.5 241.062 187.5C252.988 187.5 262.695 197.206 262.695 209.132C262.695 221.059 252.988 230.765 241.062 230.765Z" fill="#BBD1F0"/>
</g>
<path opacity="0.5" d="M241.063 225.363C232.115 225.363 224.832 218.08 224.832 209.132C224.832 200.183 232.115 192.9 241.063 192.9C250.011 192.9 257.294 200.183 257.294 209.132C257.294 218.08 250.011 225.363 241.063 225.363Z" fill="#4D72A8"/>
<g opacity="0.4" filter="url(#filter7_d_217_15855)">
<path d="M32.0622 174.765C20.1359 174.765 10.4297 165.059 10.4297 153.132C10.4297 141.206 20.1359 131.5 32.0622 131.5C43.9885 131.5 53.6946 141.206 53.6946 153.132C53.6946 165.059 43.9885 174.765 32.0622 174.765Z" fill="#BBD1F0"/>
</g>
<path opacity="0.5" d="M32.0632 169.363C23.1151 169.363 15.832 162.08 15.832 153.132C15.832 144.183 23.1151 136.9 32.0632 136.9C41.0113 136.9 48.2943 144.183 48.2943 153.132C48.2943 162.08 41.0113 169.363 32.0632 169.363Z" fill="#4D72A8"/>
<defs>
<filter id="filter0_d_217_15855" x="209.885" y="400.576" width="63.2656" height="63.2646" filterUnits="userSpaceOnUse" color-interpolation-filters="sRGB">
<feFlood flood-opacity="0" result="BackgroundImageFix"/>
<feColorMatrix in="SourceAlpha" type="matrix" values="0 0 0 0 0 0 0 0 0 0 0 0 0 0 0 0 0 0 127 0" result="hardAlpha"/>
<feOffset/>
<feGaussianBlur stdDeviation="5"/>
<feColorMatrix type="matrix" values="0 0 0 0 0.45098 0 0 0 0 0.627451 0 0 0 0 0.886275 0 0 0 1 0"/>
<feBlend mode="normal" in2="BackgroundImageFix" result="effect1_dropShadow_217_15855"/>
<feBlend mode="normal" in="SourceGraphic" in2="effect1_dropShadow_217_15855" result="shape"/>
</filter>
<filter id="filter1_d_217_15855" x="0.171875" y="456.18" width="63.2656" height="63.2646" filterUnits="userSpaceOnUse" color-interpolation-filters="sRGB">
<feFlood flood-opacity="0" result="BackgroundImageFix"/>
<feColorMatrix in="SourceAlpha" type="matrix" values="0 0 0 0 0 0 0 0 0 0 0 0 0 0 0 0 0 0 127 0" result="hardAlpha"/>
<feOffset/>
<feGaussianBlur stdDeviation="5"/>
<feColorMatrix type="matrix" values="0 0 0 0 0.45098 0 0 0 0 0.627451 0 0 0 0 0.886275 0 0 0 1 0"/>
<feBlend mode="normal" in2="BackgroundImageFix" result="effect1_dropShadow_217_15855"/>
<feBlend mode="normal" in="SourceGraphic" in2="effect1_dropShadow_217_15855" result="shape"/>
</filter>
<filter id="filter2_d_217_15855" x="209.885" y="511.785" width="63.2656" height="63.2646" filterUnits="userSpaceOnUse" color-interpolation-filters="sRGB">
<feFlood flood-opacity="0" result="BackgroundImageFix"/>
<feColorMatrix in="SourceAlpha" type="matrix" values="0 0 0 0 0 0 0 0 0 0 0 0 0 0 0 0 0 0 127 0" result="hardAlpha"/>
<feOffset/>
<feGaussianBlur stdDeviation="5"/>
<feColorMatrix type="matrix" values="0 0 0 0 0.45098 0 0 0 0 0.627451 0 0 0 0 0.886275 0 0 0 1 0"/>
<feBlend mode="normal" in2="BackgroundImageFix" result="effect1_dropShadow_217_15855"/>
<feBlend mode="normal" in="SourceGraphic" in2="effect1_dropShadow_217_15855" result="shape"/>
</filter>
<filter id="filter3_d_217_15855" x="0.171875" y="344.972" width="63.2656" height="63.2646" filterUnits="userSpaceOnUse" color-interpolation-filters="sRGB">
<feFlood flood-opacity="0" result="BackgroundImageFix"/>
<feColorMatrix in="SourceAlpha" type="matrix" values="0 0 0 0 0 0 0 0 0 0 0 0 0 0 0 0 0 0 127 0" result="hardAlpha"/>
<feOffset/>
<feGaussianBlur stdDeviation="5"/>
<feColorMatrix type="matrix" values="0 0 0 0 0.45098 0 0 0 0 0.627451 0 0 0 0 0.886275 0 0 0 1 0"/>
<feBlend mode="normal" in2="BackgroundImageFix" result="effect1_dropShadow_217_15855"/>
<feBlend mode="normal" in="SourceGraphic" in2="effect1_dropShadow_217_15855" result="shape"/>
</filter>
<filter id="filter4_d_217_15855" x="0" y="233.5" width="63.2656" height="63.2646" filterUnits="userSpaceOnUse" color-interpolation-filters="sRGB">
<feFlood flood-opacity="0" result="BackgroundImageFix"/>
<feColorMatrix in="SourceAlpha" type="matrix" values="0 0 0 0 0 0 0 0 0 0 0 0 0 0 0 0 0 0 127 0" result="hardAlpha"/>
<feOffset/>
<feGaussianBlur stdDeviation="5"/>
<feColorMatrix type="matrix" values="0 0 0 0 0.45098 0 0 0 0 0.627451 0 0 0 0 0.886275 0 0 0 1 0"/>
<feBlend mode="normal" in2="BackgroundImageFix" result="effect1_dropShadow_217_15855"/>
<feBlend mode="normal" in="SourceGraphic" in2="effect1_dropShadow_217_15855" result="shape"/>
</filter>
<filter id="filter5_d_217_15855" x="209.43" y="288.5" width="63.2656" height="63.2646" filterUnits="userSpaceOnUse" color-interpolation-filters="sRGB">
<feFlood flood-opacity="0" result="BackgroundImageFix"/>
<feColorMatrix in="SourceAlpha" type="matrix" values="0 0 0 0 0 0 0 0 0 0 0 0 0 0 0 0 0 0 127 0" result="hardAlpha"/>
<feOffset/>
<feGaussianBlur stdDeviation="5"/>
<feColorMatrix type="matrix" values="0 0 0 0 0.45098 0 0 0 0 0.627451 0 0 0 0 0.886275 0 0 0 1 0"/>
<feBlend mode="normal" in2="BackgroundImageFix" result="effect1_dropShadow_217_15855"/>
<feBlend mode="normal" in="SourceGraphic" in2="effect1_dropShadow_217_15855" result="shape"/>
</filter>
<filter id="filter6_d_217_15855" x="209.43" y="177.5" width="63.2656" height="63.2646" filterUnits="userSpaceOnUse" color-interpolation-filters="sRGB">
<feFlood flood-opacity="0" result="BackgroundImageFix"/>
<feColorMatrix in="SourceAlpha" type="matrix" values="0 0 0 0 0 0 0 0 0 0 0 0 0 0 0 0 0 0 127 0" result="hardAlpha"/>
<feOffset/>
<feGaussianBlur stdDeviation="5"/>
<feColorMatrix type="matrix" values="0 0 0 0 0.45098 0 0 0 0 0.627451 0 0 0 0 0.886275 0 0 0 1 0"/>
<feBlend mode="normal" in2="BackgroundImageFix" result="effect1_dropShadow_217_15855"/>
<feBlend mode="normal" in="SourceGraphic" in2="effect1_dropShadow_217_15855" result="shape"/>
</filter>
<filter id="filter7_d_217_15855" x="0.429688" y="121.5" width="63.2656" height="63.2646" filterUnits="userSpaceOnUse" color-interpolation-filters="sRGB">
<feFlood flood-opacity="0" result="BackgroundImageFix"/>
<feColorMatrix in="SourceAlpha" type="matrix" values="0 0 0 0 0 0 0 0 0 0 0 0 0 0 0 0 0 0 127 0" result="hardAlpha"/>
<feOffset/>
<feGaussianBlur stdDeviation="5"/>
<feColorMatrix type="matrix" values="0 0 0 0 0.45098 0 0 0 0 0.627451 0 0 0 0 0.886275 0 0 0 1 0"/>
<feBlend mode="normal" in2="BackgroundImageFix" result="effect1_dropShadow_217_15855"/>
<feBlend mode="normal" in="SourceGraphic" in2="effect1_dropShadow_217_15855" result="shape"/>
</filter>
</defs>
</svg>
