<svg width="32" height="32" viewBox="0 0 32 32" fill="none" xmlns="http://www.w3.org/2000/svg">
<path d="M29.6928 16.0121C29.6928 24.7824 24.7557 29.715 15.9877 29.715C7.21968 29.715 2.28711 24.7824 2.28711 16.0121C2.28711 7.24638 7.21968 2.31152 15.99 2.31152" stroke="#6B8BBA" stroke-width="2.28571" stroke-linecap="round" stroke-linejoin="round"/>
<path d="M13.7949 9.11585C10.6154 9.83813 8.8623 12.2427 8.8623 16.0118C8.8623 20.5718 11.4292 23.1364 15.9892 23.1364C19.9412 23.1364 22.396 21.2096 22.9789 17.7238M15.9892 16.0118L20.7366 11.2621M20.7343 11.269L20.4509 10.3456C20.2057 9.55094 20.1819 8.70449 20.3821 7.89735C20.5823 7.09021 20.9988 6.35296 21.5869 5.76499L25.0634 2.28613L26.1606 5.84042L29.7149 6.93756L26.236 10.4164C25.6483 11.0041 24.9114 11.4204 24.1047 11.6205C23.298 11.8207 22.452 11.7972 21.6577 11.5524L20.7343 11.269Z" stroke="#6B8BBA" stroke-width="2.28571" stroke-linecap="round" stroke-linejoin="round"/>
</svg>
