<svg width="32" height="32" viewBox="0 0 32 32" fill="none" xmlns="http://www.w3.org/2000/svg">
<path d="M23.3333 28.2282C22.9349 28.4083 22.5061 28.5114 22.0693 28.5322C20.6413 28.6042 18.6413 28.6668 16 28.6668C13.3587 28.6668 11.3587 28.6035 9.93067 28.5315C9.49398 28.511 9.0651 28.4081 8.66667 28.2282M26.3333 24.5862C25.8232 24.9137 25.2361 25.1017 24.6307 25.1315C22.772 25.2328 19.9407 25.3328 16 25.3328C12.0593 25.3328 9.228 25.2328 7.36933 25.1315C6.76386 25.1017 6.17678 24.9137 5.66667 24.5862M2.26533 18.8068C2.42933 20.4702 3.77067 21.6655 5.44067 21.7568C7.588 21.8748 11.0413 22.0002 16 22.0002C20.9587 22.0002 24.412 21.8748 26.56 21.7568C28.2293 21.6655 29.5707 20.4702 29.7347 18.8068C29.876 17.3742 30 15.3515 30 12.6668C30 9.98216 29.876 7.9595 29.7347 6.52683C29.5707 4.86283 28.2293 3.66816 26.5593 3.57683C24.412 3.45883 20.9587 3.3335 16 3.3335C11.0413 3.3335 7.588 3.45883 5.44 3.57683C3.77067 3.66816 2.42933 4.8635 2.26533 6.52683C2.124 7.96016 2 9.98216 2 12.6668C2 15.3515 2.124 17.3742 2.26533 18.8068Z" stroke="#3499FF" stroke-width="1.6" stroke-linecap="round" stroke-linejoin="round"/>
<path d="M18.6663 9.6735C18.6663 9.6735 17.5997 8.85683 15.9997 8.85683C14.6663 8.85683 13.333 9.6735 13.333 10.7615C13.333 13.4828 18.6663 11.8502 18.6663 14.5715C18.6663 15.6595 17.333 16.4762 15.9997 16.4762M15.9997 16.4762C14.3997 16.4762 13.333 15.6595 13.333 15.6595M15.9997 16.4762V18.0002M15.9997 8.8575V7.3335M24.6663 12.6668H23.9997M7.99967 12.6668H7.33301" stroke="#3499FF" stroke-width="1.6" stroke-linecap="round" stroke-linejoin="round"/>
</svg>
