<svg width="64" height="64" viewBox="0 0 64 64" fill="none" xmlns="http://www.w3.org/2000/svg">
<path d="M30.6667 31.9999H46.6667M30.6667 31.9999C30.6667 36.2746 30.424 39.2146 30.144 41.1813C29.82 43.4599 28.0373 44.9559 25.74 45.1079C23.8973 45.2306 21.2013 45.3333 17.3333 45.3333C13.4653 45.3333 10.7693 45.2306 8.92667 45.1079C6.62933 44.9546 4.84667 43.4599 4.52267 41.1813C4.244 39.2146 4 36.2746 4 31.9999C4 27.7253 4.24267 24.7866 4.52267 22.8186C4.84667 20.5399 6.62933 19.0439 8.92667 18.8919C10.7693 18.7693 13.4653 18.6666 17.3333 18.6666C21.2013 18.6666 23.8973 18.7693 25.74 18.8919C28.0373 19.0453 29.8213 20.5399 30.144 22.8186C30.4227 24.7853 30.6667 27.7253 30.6667 31.9999ZM46.6667 31.9999C46.6667 30.5999 46.7187 29.4879 46.7947 28.6106C46.9573 26.6986 48.4187 25.4573 50.336 25.3839C51.1293 25.3533 52.1147 25.3333 53.3333 25.3333C54.3327 25.3311 55.332 25.348 56.3307 25.3839C58.2467 25.4573 59.7093 26.6986 59.8733 28.6106C59.9467 29.4879 60 30.6013 60 31.9999C60 33.3986 59.948 34.5119 59.872 35.3893C59.7093 37.3013 58.248 38.5426 56.3307 38.6159C55.5373 38.6466 54.552 38.6666 53.3333 38.6666C52.1147 38.6666 51.1293 38.6466 50.336 38.6159C48.4187 38.5426 46.9573 37.3013 46.7947 35.3893C46.72 34.5119 46.6667 33.3999 46.6667 31.9999ZM56.3307 17.2826C58.248 17.2093 59.7093 15.9679 59.872 14.0559C59.9493 13.1786 60 12.0666 60 10.6666C60 9.26661 59.9467 8.15461 59.8733 7.27727C59.7093 5.36527 58.2467 4.12394 56.3307 4.0506C55.332 4.01468 54.3327 3.99779 53.3333 3.99994C52.1147 3.99994 51.1293 4.01994 50.336 4.0506C48.4187 4.12394 46.9573 5.36527 46.7947 7.27727C46.7041 8.40473 46.6614 9.53553 46.6667 10.6666C46.6667 12.0666 46.72 13.1786 46.7947 14.0559C46.9573 15.9679 48.4187 17.2093 50.336 17.2826C51.1293 17.3133 52.1147 17.3333 53.3333 17.3333C54.552 17.3333 55.5373 17.3133 56.3307 17.2826ZM56.3307 59.9493C58.248 59.8759 59.7093 58.6346 59.872 56.7226C59.948 55.8453 60 54.7319 60 53.3333C60 51.9346 59.9467 50.8213 59.8733 49.9439C59.7093 48.0319 58.2467 46.7906 56.3307 46.7173C55.332 46.6813 54.3327 46.6645 53.3333 46.6666C52.1147 46.6666 51.1293 46.6866 50.336 46.7173C48.4187 46.7906 46.9573 48.0319 46.7947 49.9439C46.7187 50.8213 46.6667 51.9333 46.6667 53.3333C46.6667 54.7333 46.72 55.8453 46.7947 56.7226C46.9573 58.6346 48.4187 59.8759 50.336 59.9493C51.1293 59.9799 52.1147 59.9999 53.3333 59.9999C54.552 59.9999 55.5373 59.9799 56.3307 59.9493Z" stroke="url(#paint0_linear_127_2855)" stroke-width="3.2" stroke-linecap="round" stroke-linejoin="round"/>
<path d="M46.671 52.7279L43.5177 52.4412C42.1921 52.3207 40.9595 51.709 40.062 50.7261C39.1644 49.7432 38.6669 48.4602 38.667 47.1292V16.8705C38.6672 15.5397 39.1649 14.2571 40.0624 13.2745C40.9599 12.2919 42.1923 11.6803 43.5177 11.5599L46.671 11.2732" stroke="url(#paint1_linear_127_2855)" stroke-width="3.2" stroke-linecap="round" stroke-linejoin="round"/>
<defs>
<linearGradient id="paint0_linear_127_2855" x1="10.6667" y1="26.0001" x2="69.3333" y2="80.6667" gradientUnits="userSpaceOnUse">
<stop stop-color="#75BAFF"/>
<stop offset="1" stop-color="#66F2C3"/>
</linearGradient>
<linearGradient id="paint1_linear_127_2855" x1="21.314" y1="18.6409" x2="46.02" y2="68.6926" gradientUnits="userSpaceOnUse">
<stop stop-color="#75BAFF"/>
<stop offset="1" stop-color="#66F2C3"/>
</linearGradient>
</defs>
</svg>
