<svg width="48" height="48" viewBox="0 0 48 48" fill="none" xmlns="http://www.w3.org/2000/svg">
<path d="M10 34L14 28M18 20L22 14M26 14L30 20M34 28L38 34M30 28L26 34M18 28L22 34M20 10C20 11.0609 20.4214 12.0783 21.1716 12.8284C21.9217 13.5786 22.9391 14 24 14C25.0609 14 26.0783 13.5786 26.8284 12.8284C27.5786 12.0783 28 11.0609 28 10C28 8.93913 27.5786 7.92172 26.8284 7.17157C26.0783 6.42143 25.0609 6 24 6C22.9391 6 21.9217 6.42143 21.1716 7.17157C20.4214 7.92172 20 8.93913 20 10ZM12 24C12 25.0609 12.4214 26.0783 13.1716 26.8284C13.9217 27.5786 14.9391 28 16 28C17.0609 28 18.0783 27.5786 18.8284 26.8284C19.5786 26.0783 20 25.0609 20 24C20 22.9391 19.5786 21.9217 18.8284 21.1716C18.0783 20.4214 17.0609 20 16 20C14.9391 20 13.9217 20.4214 13.1716 21.1716C12.4214 21.9217 12 22.9391 12 24ZM20 38C20 39.0609 20.4214 40.0783 21.1716 40.8284C21.9217 41.5786 22.9391 42 24 42C25.0609 42 26.0783 41.5786 26.8284 40.8284C27.5786 40.0783 28 39.0609 28 38C28 36.9391 27.5786 35.9217 26.8284 35.1716C26.0783 34.4214 25.0609 34 24 34C22.9391 34 21.9217 34.4214 21.1716 35.1716C20.4214 35.9217 20 36.9391 20 38ZM36 38C36 39.0609 36.4214 40.0783 37.1716 40.8284C37.9217 41.5786 38.9391 42 40 42C41.0609 42 42.0783 41.5786 42.8284 40.8284C43.5786 40.0783 44 39.0609 44 38C44 36.9391 43.5786 35.9217 42.8284 35.1716C42.0783 34.4214 41.0609 34 40 34C38.9391 34 37.9217 34.4214 37.1716 35.1716C36.4214 35.9217 36 36.9391 36 38ZM4 38C4 39.0609 4.42143 40.0783 5.17157 40.8284C5.92172 41.5786 6.93913 42 8 42C9.06087 42 10.0783 41.5786 10.8284 40.8284C11.5786 40.0783 12 39.0609 12 38C12 36.9391 11.5786 35.9217 10.8284 35.1716C10.0783 34.4214 9.06087 34 8 34C6.93913 34 5.92172 34.4214 5.17157 35.1716C4.42143 35.9217 4 36.9391 4 38ZM28 24C28 25.0609 28.4214 26.0783 29.1716 26.8284C29.9217 27.5786 30.9391 28 32 28C33.0609 28 34.0783 27.5786 34.8284 26.8284C35.5786 26.0783 36 25.0609 36 24C36 22.9391 35.5786 21.9217 34.8284 21.1716C34.0783 20.4214 33.0609 20 32 20C30.9391 20 29.9217 20.4214 29.1716 21.1716C28.4214 21.9217 28 22.9391 28 24Z" stroke="url(#paint0_linear_282_298)" stroke-width="2.4" stroke-linecap="round" stroke-linejoin="round"/>
<defs>
<linearGradient id="paint0_linear_282_298" x1="24.5" y1="14.5" x2="66.5" y2="74" gradientUnits="userSpaceOnUse">
<stop stop-color="#75BAFF"/>
<stop offset="1" stop-color="#66F2C3"/>
</linearGradient>
</defs>
</svg>
