<svg width="32" height="32" viewBox="0 0 32 32" fill="none" xmlns="http://www.w3.org/2000/svg">
<path d="M8.92383 15.5895L12.9238 19.5895L21.0264 11.487M26.2572 19.5895C24.9238 20.9229 27.9238 24.5895 26.2572 26.2562C24.5905 27.9229 20.9238 24.9229 19.5905 26.2562C18.2572 27.5895 17.5905 30.2562 15.5905 30.2562C13.5905 30.2562 12.9238 27.5895 11.5905 26.2562C10.2572 24.9229 6.5905 27.9229 4.92383 26.2562C3.25716 24.5895 6.25716 20.9229 4.92383 19.5895C3.59049 18.2562 0.923828 17.5895 0.923828 15.5895C0.923828 13.5895 3.59049 12.9229 4.92383 11.5895C6.25716 10.2562 3.25716 6.58952 4.92383 4.92285C6.5905 3.25618 10.2572 6.25619 11.5905 4.92285C12.9238 3.58952 13.5905 0.922852 15.5905 0.922852C17.5905 0.922852 18.2572 3.58952 19.5905 4.92285C20.9238 6.25619 24.5905 3.25618 26.2572 4.92285C27.9238 6.58952 24.9238 10.2562 26.2572 11.5895C27.5905 12.9229 30.2572 13.5895 30.2572 15.5895C30.2572 17.5895 27.5905 18.2562 26.2572 19.5895Z" stroke="#6B8BBA" stroke-width="1.84615" stroke-linecap="round"/>
</svg>
