<svg width="22" height="32" viewBox="0 0 22 32" fill="none" xmlns="http://www.w3.org/2000/svg">
<path d="M14.5635 1.10449C14.6238 1.09049 14.6872 1.09755 14.7432 1.12402C14.7991 1.15057 14.8447 1.19539 14.8721 1.25098C14.8993 1.30643 14.9066 1.3693 14.8936 1.42969L12.0859 13.9258C12.0129 14.251 12.0916 14.5923 12.2998 14.8525C12.5081 15.1128 12.8239 15.2646 13.1572 15.2646H19.6602L19.7354 15.2744C19.7597 15.2813 19.783 15.2922 19.8047 15.3057C19.848 15.3325 19.8835 15.3704 19.9062 15.416C19.929 15.4617 19.9383 15.5136 19.9336 15.5645C19.9288 15.6147 19.9101 15.6627 19.8799 15.7031L8.44824 30.793L8.44727 30.7939C8.40965 30.8435 8.35625 30.8793 8.2959 30.8945C8.23559 30.9097 8.17185 30.9037 8.11523 30.8779C8.0585 30.852 8.01148 30.8076 7.9834 30.752C7.95535 30.6963 7.94704 30.6323 7.95996 30.5713L7.96094 30.5703L10.2246 19.8818C10.2932 19.5581 10.2123 19.22 10.0039 18.9629C9.79556 18.7058 9.48224 18.5567 9.15137 18.5566H1.37109C1.31993 18.5565 1.26996 18.5418 1.22656 18.5146C1.183 18.4874 1.1475 18.4486 1.125 18.4023C1.10251 18.3561 1.09323 18.304 1.09863 18.2529C1.10406 18.2023 1.12305 18.1535 1.1543 18.1133L1.15527 18.1143L14.4111 1.20117C14.4496 1.15276 14.5033 1.11855 14.5635 1.10449Z" stroke="#6B8BBA" stroke-width="2.19489" stroke-linejoin="round"/>
</svg>
