<svg width="17" height="29" viewBox="0 0 17 29" fill="none" xmlns="http://www.w3.org/2000/svg">
<path d="M0.633996 0.63437C0.22781 1.04068 -0.00037391 1.59168 -0.000373935 2.1662C-0.00037396 2.74073 0.22781 3.29173 0.633996 3.69804L11.359 14.423L0.633995 25.148C0.23932 25.5567 0.020932 26.104 0.0258682 26.6721C0.0308044 27.2402 0.25867 27.7836 0.660388 28.1853C1.06211 28.587 1.60553 28.8149 2.17363 28.8198C2.74172 28.8248 3.28902 28.6064 3.69766 28.2117L15.9545 15.9549C16.3607 15.5486 16.5889 14.9976 16.5889 14.423C16.5889 13.8485 16.3607 13.2975 15.9545 12.8912L3.69766 0.63437C3.29135 0.228183 2.74035 -6.05338e-07 2.16583 -6.30451e-07C1.59131 -6.55564e-07 1.04031 0.228183 0.633996 0.63437Z" fill="#5C85EB"/>
</svg>
