<svg width="17" height="29" viewBox="0 0 17 29" fill="none" xmlns="http://www.w3.org/2000/svg">
<path d="M0.634973 0.63437C0.228786 1.04068 0.000601965 1.59168 0.00060194 2.1662C0.000601914 2.74073 0.228786 3.29173 0.634973 3.69804L11.36 14.423L0.634972 25.148C0.240296 25.5567 0.0219083 26.104 0.0268449 26.6721C0.0317814 27.2402 0.259647 27.7836 0.661365 28.1853C1.06308 28.587 1.60651 28.8149 2.1746 28.8198C2.7427 28.8248 3.29 28.6064 3.69864 28.2117L15.9555 15.9549C16.3617 15.5486 16.5898 14.9976 16.5898 14.423C16.5898 13.8485 16.3617 13.2975 15.9555 12.8912L3.69864 0.63437C3.29233 0.228183 2.74133 -6.05338e-07 2.16681 -6.30451e-07C1.59228 -6.55564e-07 1.04128 0.228183 0.634973 0.63437Z" fill="#7557FF"/>
</svg>
