<svg width="502" height="362" viewBox="0 0 502 362" fill="none" xmlns="http://www.w3.org/2000/svg">
<mask id="mask0_5150_233" style="mask-type:alpha" maskUnits="userSpaceOnUse" x="0" y="0" width="502" height="362">
<rect width="502" height="362" fill="url(#paint0_radial_5150_233)"/>
</mask>
<g mask="url(#mask0_5150_233)">
<g clip-path="url(#clip0_5150_233)">
<path d="M401 133V201.571C401 204.602 402.218 207.509 404.385 209.652C406.552 211.796 409.491 213 412.556 213H479M418.334 178.714V195.857M441.445 161.571V195.857M464.556 144.428V195.857" stroke="#3499FF" stroke-width="4.28571" stroke-linecap="round" stroke-linejoin="round"/>
</g>
<path d="M28.4165 164V176.5C28.4165 176.5 28.4165 182.75 42.9998 182.75C57.5832 182.75 57.5832 176.5 57.5832 176.5V164" stroke="#3499FF" stroke-width="3"/>
<path d="M28.4165 151.5V164C28.4165 164 28.4165 170.25 42.9998 170.25C57.5832 170.25 57.5832 164 57.5832 164V151.5" stroke="#3499FF" stroke-width="3"/>
<path d="M42.9998 145.25C57.5832 145.25 57.5832 151.5 57.5832 151.5C57.5832 151.5 57.5832 157.75 42.9998 157.75C28.4165 157.75 28.4165 151.5 28.4165 151.5C28.4165 151.5 28.4165 145.25 42.9998 145.25Z" stroke="#3499FF" stroke-width="3"/>
<path d="M19.2207 228L28.4165 218.804L31.3624 221.75L25.1124 228L31.3624 234.25L28.4165 237.195L19.2207 228ZM33.804 213.416L42.9999 204.22L52.1957 213.416L49.2499 216.362L42.9999 210.112L36.7499 216.362L33.804 213.416ZM36.7499 239.637L42.9999 245.887L49.2499 239.637L52.1957 242.583L42.9999 251.779L33.804 242.583L36.7499 239.637ZM54.6374 234.25L60.8874 228L54.6374 221.75L57.5832 218.804L66.779 228L57.5832 237.195L54.6374 234.25Z" fill="#3499FF"/>
<path d="M34.716 223.768C34.8747 223.675 35.1127 223.586 35.43 223.502C35.7567 223.418 36.0833 223.376 36.41 223.376C36.8767 223.376 37.2873 223.446 37.642 223.586C38.006 223.717 38.2393 223.927 38.342 224.216C38.51 224.701 38.692 225.266 38.888 225.91C39.084 226.554 39.28 227.221 39.476 227.912C39.672 228.593 39.8633 229.27 40.05 229.942C40.2367 230.605 40.4 231.193 40.54 231.706C40.428 231.837 40.26 231.939 40.036 232.014C39.812 232.098 39.546 232.14 39.238 232.14C39.014 232.14 38.8227 232.121 38.664 232.084C38.5147 232.047 38.3887 231.991 38.286 231.916C38.1927 231.841 38.1133 231.743 38.048 231.622C37.992 231.501 37.9407 231.361 37.894 231.202L37.642 230.236H35.108C35.0333 230.516 34.9587 230.805 34.884 231.104C34.8093 231.403 34.7347 231.692 34.66 231.972C34.5293 232.019 34.3893 232.056 34.24 232.084C34.1 232.121 33.9273 232.14 33.722 232.14C33.246 232.14 32.8913 232.061 32.658 231.902C32.434 231.734 32.322 231.505 32.322 231.216C32.322 231.085 32.3407 230.955 32.378 230.824C32.4153 230.693 32.4573 230.539 32.504 230.362C32.5693 230.11 32.658 229.797 32.77 229.424C32.8913 229.051 33.022 228.649 33.162 228.22C33.302 227.781 33.4513 227.333 33.61 226.876C33.7687 226.419 33.918 225.989 34.058 225.588C34.198 225.177 34.324 224.813 34.436 224.496C34.5573 224.179 34.6507 223.936 34.716 223.768ZM36.396 225.574C36.2653 225.966 36.116 226.405 35.948 226.89C35.7893 227.366 35.6447 227.851 35.514 228.346H37.25C37.1193 227.842 36.984 227.352 36.844 226.876C36.7133 226.391 36.592 225.957 36.48 225.574H36.396ZM44.8653 227.45C45.2573 227.45 45.556 227.361 45.7613 227.184C45.976 226.997 46.0833 226.717 46.0833 226.344C46.0833 225.989 45.9713 225.719 45.7473 225.532C45.5327 225.336 45.2153 225.238 44.7953 225.238C44.646 225.238 44.52 225.243 44.4173 225.252C44.324 225.252 44.226 225.261 44.1233 225.28V227.45H44.8653ZM44.1373 231.944C44.0347 231.972 43.8713 232 43.6473 232.028C43.4327 232.056 43.218 232.07 43.0033 232.07C42.7887 232.07 42.5973 232.051 42.4293 232.014C42.2707 231.986 42.1353 231.93 42.0233 231.846C41.9113 231.762 41.8273 231.645 41.7713 231.496C41.7153 231.347 41.6873 231.151 41.6873 230.908V224.314C41.6873 224.118 41.7387 223.969 41.8413 223.866C41.9533 223.754 42.1027 223.665 42.2893 223.6C42.6067 223.488 42.966 223.409 43.3673 223.362C43.778 223.306 44.1887 223.278 44.5993 223.278C45.8873 223.278 46.872 223.553 47.5533 224.104C48.2347 224.655 48.5753 225.401 48.5753 226.344C48.5753 226.801 48.5007 227.217 48.3513 227.59C48.2113 227.954 47.9967 228.271 47.7073 228.542C47.4273 228.803 47.068 229.009 46.6293 229.158C46.2 229.298 45.7007 229.368 45.1313 229.368H44.1373V231.944ZM52.2721 231.944C52.1694 231.972 52.0061 232 51.7821 232.028C51.5674 232.056 51.3528 232.07 51.1381 232.07C50.9234 232.07 50.7321 232.051 50.5641 232.014C50.4054 231.986 50.2701 231.93 50.1581 231.846C50.0461 231.762 49.9621 231.645 49.9061 231.496C49.8501 231.347 49.8221 231.151 49.8221 230.908V223.516C49.9248 223.497 50.0881 223.474 50.3121 223.446C50.5361 223.409 50.7508 223.39 50.9561 223.39C51.1708 223.39 51.3574 223.409 51.5161 223.446C51.6841 223.474 51.8241 223.53 51.9361 223.614C52.0481 223.698 52.1321 223.815 52.1881 223.964C52.2441 224.113 52.2721 224.309 52.2721 224.552V231.944Z" fill="#3499FF"/>
<path d="M27.375 80.1558C27.375 82.3042 28.7773 84.062 30.5 84.062C30.877 84.0536 31.2484 83.9685 31.5916 83.8121C31.9347 83.6556 32.2425 83.431 32.4961 83.1519C32.784 82.8587 33.1758 82.6906 33.5866 82.6842C33.9975 82.6778 34.3943 82.8335 34.6912 83.1175C34.9881 83.4016 35.1612 83.7912 35.1729 84.2019C35.1846 84.6126 35.0341 85.0115 34.7539 85.312C34.2098 85.8977 33.5519 86.3661 32.8204 86.6885C32.089 87.0109 31.2994 87.1805 30.5 87.187C27.0527 87.187 24.25 84.0327 24.25 80.1558C24.25 76.2788 27.0527 73.1245 30.5 73.1245C31.2994 73.131 32.089 73.3006 32.8204 73.623C33.5519 73.9455 34.2098 74.4138 34.7539 74.9995C35.0341 75.3001 35.1846 75.6989 35.1729 76.1096C35.1612 76.5204 34.9881 76.9099 34.6912 77.194C34.3943 77.4781 33.9975 77.6337 33.5866 77.6273C33.1758 77.6209 32.784 77.4529 32.4961 77.1597C32.2425 76.8806 31.9347 76.6559 31.5916 76.4995C31.2484 76.343 30.877 76.258 30.5 76.2495C28.7773 76.2495 27.375 78.0073 27.375 80.1558ZM42.9219 78.4585C42.1406 78.2319 41.332 77.9995 40.8809 77.7085C40.6367 77.5503 40.6406 77.5132 40.6621 77.3374C40.6655 77.1955 40.7027 77.0564 40.7707 76.9317C40.8386 76.8071 40.9353 76.7004 41.0527 76.6206C41.9512 76.0112 44.0488 76.2827 44.9238 76.5112C45.3248 76.6187 45.752 76.5625 46.1115 76.355C46.471 76.1475 46.7333 75.8057 46.8408 75.4048C46.9483 75.0039 46.8921 74.5766 46.6846 74.2171C46.4771 73.8576 46.1353 73.5953 45.7344 73.4878C45.3203 73.3804 41.6328 72.4683 39.3203 74.0269C38.8313 74.3551 38.4204 74.7867 38.1166 75.2913C37.8129 75.7959 37.6237 76.361 37.5625 76.9468C37.1719 80.0483 40.2285 80.9331 42.0547 81.4604C44.4102 82.1421 44.6172 82.4214 44.5508 82.9429C44.4902 83.4136 44.3047 83.5952 44.1328 83.7104C43.2344 84.3081 41.1699 84.0151 40.3145 83.7808C39.9146 83.6691 39.4867 83.7209 39.125 83.9248C38.7633 84.1286 38.4974 84.4678 38.3857 84.8677C38.2741 85.2676 38.3259 85.6954 38.5297 86.0571C38.7336 86.4188 39.0728 86.6848 39.4727 86.7964C40.4414 87.0502 41.4381 87.1814 42.4395 87.187C43.5762 87.187 44.8418 86.9917 45.8555 86.3159C46.3558 85.9835 46.7762 85.5443 47.0866 85.0299C47.3969 84.5156 47.5895 83.9389 47.6504 83.3413C48.0781 79.9604 44.8535 79.0171 42.9219 78.4585ZM59.1504 73.2163C58.9571 73.1471 58.7521 73.1167 58.5471 73.1268C58.3421 73.1368 58.1411 73.1872 57.9555 73.275C57.7699 73.3628 57.6035 73.4863 57.4657 73.6384C57.3279 73.7905 57.2214 73.9683 57.1523 74.1616L54.7188 80.978L52.2832 74.1616C52.1439 73.7713 51.8552 73.4523 51.4806 73.2749C51.1061 73.0974 50.6764 73.076 50.2861 73.2153C49.8958 73.3547 49.5768 73.6434 49.3994 74.0179C49.2219 74.3924 49.2005 74.8221 49.3398 75.2124L53.2461 86.1499C53.3544 86.4535 53.554 86.7162 53.8174 86.902C54.0809 87.0877 54.3954 87.1875 54.7178 87.1875C55.0401 87.1875 55.3546 87.0877 55.6181 86.902C55.8816 86.7162 56.0811 86.4535 56.1895 86.1499L60.0957 75.2124C60.2348 74.8223 60.2134 74.393 60.0362 74.0187C59.8589 73.6444 59.5403 73.3558 59.1504 73.2163ZM60.1875 62.187V66.8745C60.1875 67.2889 60.0229 67.6863 59.7299 67.9794C59.4368 68.2724 59.0394 68.437 58.625 68.437C58.2106 68.437 57.8132 68.2724 57.5201 67.9794C57.2271 67.6863 57.0625 67.2889 57.0625 66.8745V63.7495H47.6875C47.2731 63.7495 46.8757 63.5849 46.5826 63.2919C46.2896 62.9988 46.125 62.6014 46.125 62.187V52.812H28.9375V66.8745C28.9375 67.2889 28.7729 67.6863 28.4799 67.9794C28.1868 68.2724 27.7894 68.437 27.375 68.437C26.9606 68.437 26.5632 68.2724 26.2701 67.9794C25.9771 67.6863 25.8125 67.2889 25.8125 66.8745V52.812C25.8125 51.9832 26.1417 51.1884 26.7278 50.6023C27.3138 50.0163 28.1087 49.687 28.9375 49.687H47.6875C47.8928 49.6869 48.096 49.7271 48.2857 49.8055C48.4754 49.884 48.6478 49.999 48.793 50.144L59.7305 61.0815C59.8755 61.2268 59.9905 61.3991 60.069 61.5888C60.1474 61.7785 60.1877 61.9818 60.1875 62.187ZM54.8535 60.6245L49.25 55.021V60.6245H54.8535Z" fill="#3499FF"/>
<path d="M24.15 92.092C24.282 92.068 24.492 92.038 24.78 92.002C25.068 91.954 25.344 91.93 25.608 91.93C25.884 91.93 26.124 91.954 26.328 92.002C26.544 92.038 26.724 92.11 26.868 92.218C27.012 92.326 27.12 92.476 27.192 92.668C27.264 92.86 27.3 93.112 27.3 93.424V100.084C27.3 101.152 26.994 101.956 26.382 102.496C25.77 103.024 24.87 103.288 23.682 103.288C23.058 103.288 22.554 103.192 22.17 103C21.894 102.868 21.69 102.688 21.558 102.46C21.438 102.232 21.378 101.974 21.378 101.686C21.378 101.446 21.408 101.236 21.468 101.056C21.54 100.876 21.624 100.732 21.72 100.624C21.948 100.672 22.14 100.708 22.296 100.732C22.464 100.744 22.644 100.75 22.836 100.75C23.304 100.75 23.64 100.636 23.844 100.408C24.048 100.168 24.15 99.82 24.15 99.364V92.092ZM32.684 98.662C32.156 98.482 31.676 98.302 31.244 98.122C30.812 97.93 30.44 97.702 30.128 97.438C29.816 97.174 29.57 96.862 29.39 96.502C29.222 96.13 29.138 95.68 29.138 95.152C29.138 94.132 29.528 93.316 30.308 92.704C31.1 92.092 32.204 91.786 33.62 91.786C34.136 91.786 34.616 91.822 35.06 91.894C35.504 91.966 35.882 92.08 36.194 92.236C36.518 92.38 36.77 92.572 36.95 92.812C37.13 93.04 37.22 93.31 37.22 93.622C37.22 93.934 37.148 94.204 37.004 94.432C36.86 94.648 36.686 94.834 36.482 94.99C36.218 94.822 35.864 94.678 35.42 94.558C34.976 94.426 34.49 94.36 33.962 94.36C33.422 94.36 33.026 94.438 32.774 94.594C32.522 94.738 32.396 94.924 32.396 95.152C32.396 95.332 32.474 95.482 32.63 95.602C32.786 95.71 33.02 95.812 33.332 95.908L34.286 96.214C35.414 96.574 36.278 97.036 36.878 97.6C37.49 98.152 37.796 98.908 37.796 99.868C37.796 100.888 37.394 101.716 36.59 102.352C35.786 102.976 34.604 103.288 33.044 103.288C32.492 103.288 31.976 103.24 31.496 103.144C31.028 103.06 30.614 102.934 30.254 102.766C29.906 102.586 29.63 102.37 29.426 102.118C29.234 101.854 29.138 101.554 29.138 101.218C29.138 100.87 29.24 100.576 29.444 100.336C29.648 100.084 29.87 99.892 30.11 99.76C30.446 100.024 30.854 100.252 31.334 100.444C31.826 100.636 32.36 100.732 32.936 100.732C33.524 100.732 33.938 100.642 34.178 100.462C34.418 100.282 34.538 100.072 34.538 99.832C34.538 99.592 34.442 99.412 34.25 99.292C34.058 99.16 33.788 99.034 33.44 98.914L32.684 98.662ZM39.0323 97.528C39.0323 96.592 39.1763 95.764 39.4643 95.044C39.7643 94.324 40.1663 93.724 40.6703 93.244C41.1863 92.752 41.7863 92.38 42.4703 92.128C43.1663 91.876 43.9163 91.75 44.7203 91.75C45.5243 91.75 46.2683 91.876 46.9523 92.128C47.6483 92.38 48.2543 92.752 48.7703 93.244C49.2863 93.724 49.6883 94.324 49.9763 95.044C50.2763 95.764 50.4263 96.592 50.4263 97.528C50.4263 98.464 50.2823 99.298 49.9943 100.03C49.7063 100.75 49.3043 101.356 48.7883 101.848C48.2843 102.328 47.6843 102.694 46.9883 102.946C46.2923 103.198 45.5363 103.324 44.7203 103.324C43.9043 103.324 43.1483 103.198 42.4523 102.946C41.7563 102.682 41.1563 102.304 40.6523 101.812C40.1483 101.32 39.7523 100.714 39.4643 99.994C39.1763 99.274 39.0323 98.452 39.0323 97.528ZM42.2723 97.528C42.2723 98.62 42.4943 99.436 42.9383 99.976C43.3823 100.516 43.9763 100.786 44.7203 100.786C45.4763 100.786 46.0763 100.516 46.5203 99.976C46.9643 99.436 47.1863 98.62 47.1863 97.528C47.1863 96.448 46.9643 95.638 46.5203 95.098C46.0883 94.558 45.4943 94.288 44.7383 94.288C43.9943 94.288 43.3943 94.558 42.9383 95.098C42.4943 95.626 42.2723 96.436 42.2723 97.528ZM62.1106 102.622C61.9426 102.79 61.6966 102.916 61.3726 103C61.0606 103.096 60.6826 103.144 60.2386 103.144C59.7946 103.144 59.3746 103.078 58.9786 102.946C58.5826 102.814 58.2586 102.496 58.0066 101.992L56.2246 98.356C56.0446 97.984 55.8826 97.636 55.7386 97.312C55.5946 96.976 55.4386 96.592 55.2706 96.16L55.1626 96.178C55.2106 96.826 55.2346 97.486 55.2346 98.158C55.2466 98.83 55.2526 99.49 55.2526 100.138V102.928C55.1206 102.964 54.9166 103 54.6406 103.036C54.3766 103.072 54.1126 103.09 53.8486 103.09C53.5846 103.09 53.3506 103.072 53.1466 103.036C52.9426 103 52.7746 102.928 52.6426 102.82C52.5106 102.712 52.4086 102.568 52.3366 102.388C52.2646 102.196 52.2286 101.95 52.2286 101.65V92.65C52.3966 92.41 52.6546 92.23 53.0026 92.11C53.3506 91.99 53.7226 91.93 54.1186 91.93C54.5626 91.93 54.9826 92.002 55.3786 92.146C55.7866 92.278 56.1106 92.59 56.3506 93.082L58.1506 96.718C58.3306 97.09 58.4926 97.444 58.6366 97.78C58.7806 98.104 58.9366 98.482 59.1046 98.914L59.1946 98.896C59.1466 98.248 59.1166 97.6 59.1046 96.952C59.0926 96.304 59.0866 95.656 59.0866 95.008V92.092C59.2186 92.056 59.4166 92.02 59.6806 91.984C59.9566 91.948 60.2266 91.93 60.4906 91.93C61.0186 91.93 61.4206 92.026 61.6966 92.218C61.9726 92.398 62.1106 92.782 62.1106 93.37V102.622Z" fill="#3499FF"/>
<path d="M26.414 109.424C26.474 109.256 26.558 109.088 26.666 108.92C26.774 108.752 26.906 108.602 27.062 108.47C27.23 108.326 27.422 108.212 27.638 108.128C27.854 108.032 28.094 107.984 28.358 107.984C28.706 107.984 29.012 108.074 29.276 108.254C29.54 108.422 29.81 108.716 30.086 109.136L31.49 111.278L33.56 108.218C33.656 108.17 33.788 108.128 33.956 108.092C34.136 108.044 34.31 108.02 34.478 108.02C35.03 108.02 35.462 108.152 35.774 108.416C36.086 108.68 36.242 109.004 36.242 109.388C36.242 109.724 36.152 110.024 35.972 110.288C35.804 110.552 35.57 110.87 35.27 111.242L33.416 113.51L36.35 117.704C36.254 118.148 36.044 118.502 35.72 118.766C35.408 119.018 34.982 119.144 34.442 119.144C34.094 119.144 33.794 119.06 33.542 118.892C33.29 118.712 33.032 118.412 32.768 117.992L31.31 115.688L29.042 119.108C28.946 119.12 28.856 119.126 28.772 119.126C28.688 119.138 28.604 119.144 28.52 119.144C27.836 119.144 27.332 119.006 27.008 118.73C26.684 118.454 26.522 118.112 26.522 117.704C26.522 117.356 26.594 117.056 26.738 116.804C26.894 116.54 27.11 116.234 27.386 115.886L29.276 113.456L26.414 109.424ZM45.6104 116.318C45.4544 116.45 45.2504 116.558 44.9984 116.642C44.7584 116.714 44.4764 116.75 44.1524 116.75C43.7204 116.75 43.3604 116.696 43.0724 116.588C42.7964 116.48 42.6164 116.294 42.5324 116.03C42.1964 114.974 41.9204 114.122 41.7044 113.474C41.4884 112.814 41.3204 112.238 41.2004 111.746H41.1104C41.0744 112.454 41.0444 113.102 41.0204 113.69C41.0084 114.266 40.9964 114.83 40.9844 115.382C40.9844 115.934 40.9724 116.492 40.9484 117.056C40.9364 117.62 40.9124 118.244 40.8764 118.928C40.7204 118.988 40.5164 119.036 40.2644 119.072C40.0124 119.12 39.7604 119.144 39.5084 119.144C38.9804 119.144 38.5664 119.06 38.2664 118.892C37.9784 118.724 37.8344 118.418 37.8344 117.974L38.3564 108.794C38.4524 108.638 38.6624 108.47 38.9864 108.29C39.3104 108.11 39.7664 108.02 40.3544 108.02C40.9904 108.02 41.4884 108.122 41.8484 108.326C42.2084 108.518 42.4724 108.836 42.6404 109.28C42.7484 109.568 42.8624 109.898 42.9824 110.27C43.1144 110.642 43.2404 111.026 43.3604 111.422C43.4924 111.818 43.6184 112.214 43.7384 112.61C43.8584 112.994 43.9664 113.342 44.0624 113.654H44.1524C44.4404 112.646 44.7284 111.674 45.0164 110.738C45.3044 109.79 45.5684 108.998 45.8084 108.362C45.9884 108.266 46.2164 108.188 46.4924 108.128C46.7804 108.056 47.0984 108.02 47.4464 108.02C48.0344 108.02 48.5144 108.11 48.8864 108.29C49.2584 108.458 49.4744 108.704 49.5344 109.028C49.5824 109.268 49.6304 109.64 49.6784 110.144C49.7384 110.636 49.7984 111.194 49.8584 111.818C49.9184 112.442 49.9784 113.102 50.0384 113.798C50.0984 114.494 50.1524 115.166 50.2004 115.814C50.2604 116.45 50.3084 117.038 50.3444 117.578C50.3804 118.106 50.4044 118.514 50.4164 118.802C50.2124 118.922 49.9964 119.006 49.7684 119.054C49.5524 119.114 49.2704 119.144 48.9224 119.144C48.4664 119.144 48.0824 119.066 47.7704 118.91C47.4584 118.754 47.2904 118.448 47.2664 117.992C47.1944 116.684 47.1464 115.508 47.1224 114.464C47.1104 113.42 47.0864 112.544 47.0504 111.836H46.9604C46.8404 112.304 46.6664 112.892 46.4384 113.6C46.2104 114.308 45.9344 115.214 45.6104 116.318ZM54.0862 119.054C53.5702 119.054 53.1622 118.904 52.8622 118.604C52.5622 118.304 52.4122 117.896 52.4122 117.38V108.074C52.5442 108.05 52.7542 108.02 53.0422 107.984C53.3302 107.936 53.6062 107.912 53.8702 107.912C54.1462 107.912 54.3862 107.936 54.5902 107.984C54.8062 108.02 54.9862 108.092 55.1302 108.2C55.2742 108.308 55.3822 108.458 55.4542 108.65C55.5262 108.842 55.5622 109.094 55.5622 109.406V116.516H59.6842C59.7682 116.648 59.8462 116.828 59.9182 117.056C59.9902 117.272 60.0262 117.5 60.0262 117.74C60.0262 118.22 59.9242 118.562 59.7202 118.766C59.5162 118.958 59.2462 119.054 58.9102 119.054H54.0862Z" fill="#3499FF"/>
<path d="M466.688 78.1246C464.903 78.1239 463.165 78.7027 461.737 79.7741C460.308 80.8455 459.266 82.3515 458.767 84.066C458.268 85.7804 458.339 87.6105 458.969 89.2812C459.599 90.9519 460.754 92.373 462.261 93.3308L456.878 112.173C456.711 112.162 456.543 112.156 456.376 112.156C454.601 112.154 452.874 112.727 451.452 113.79L441.507 105.502C441.978 104.105 442.065 102.607 441.761 101.165C441.457 99.7224 440.772 98.3878 439.777 97.2999C438.782 96.2119 437.514 95.4104 436.104 94.9788C434.695 94.5471 433.195 94.501 431.762 94.8454C430.328 95.1897 429.013 95.9118 427.954 96.9367C426.894 97.9615 426.128 99.2516 425.736 100.673C425.344 102.094 425.34 103.594 425.724 105.017C426.108 106.441 426.867 107.735 427.921 108.766L422.082 120.443C421.827 120.419 421.57 120.406 421.313 120.406C419.337 120.403 417.425 121.11 415.925 122.396C414.424 123.683 413.435 125.465 413.137 127.419C412.838 129.372 413.25 131.368 414.298 133.044C415.345 134.721 416.959 135.965 418.846 136.553C420.733 137.141 422.768 137.033 424.582 136.248C426.396 135.464 427.869 134.055 428.732 132.277C429.596 130.499 429.794 128.471 429.29 126.56C428.786 124.649 427.613 122.982 425.985 121.861L431.502 110.828C432.843 111.198 434.255 111.222 435.607 110.898C436.959 110.575 438.207 109.914 439.234 108.978L448.864 117.002C448.21 118.443 447.984 120.042 448.214 121.608C448.443 123.173 449.118 124.64 450.158 125.833C451.198 127.026 452.558 127.894 454.078 128.335C455.598 128.776 457.213 128.77 458.729 128.319C460.246 127.868 461.601 126.99 462.632 125.79C463.664 124.59 464.329 123.118 464.547 121.551C464.766 119.984 464.529 118.387 463.865 116.95C463.201 115.514 462.138 114.299 460.803 113.45L466.186 94.6079C466.352 94.6179 466.519 94.6246 466.688 94.6246C468.876 94.6246 470.975 93.7554 472.522 92.2083C474.069 90.6611 474.938 88.5627 474.938 86.3746C474.938 84.1866 474.069 82.0882 472.522 80.541C470.975 78.9938 468.876 78.1246 466.688 78.1246ZM421.313 132.781C420.497 132.781 419.7 132.539 419.021 132.086C418.343 131.632 417.814 130.988 417.502 130.234C417.19 129.481 417.108 128.651 417.267 127.851C417.427 127.051 417.819 126.316 418.396 125.739C418.973 125.162 419.708 124.769 420.508 124.61C421.309 124.451 422.138 124.533 422.892 124.845C423.645 125.157 424.29 125.686 424.743 126.364C425.196 127.043 425.438 127.84 425.438 128.656C425.437 129.75 425.002 130.798 424.229 131.571C423.455 132.345 422.407 132.78 421.313 132.781ZM433.688 107C432.872 107 432.075 106.758 431.396 106.304C430.718 105.851 430.189 105.207 429.877 104.453C429.565 103.699 429.483 102.87 429.642 102.07C429.802 101.27 430.194 100.535 430.771 99.9578C431.348 99.3809 432.083 98.9881 432.883 98.8289C433.684 98.6697 434.513 98.7514 435.267 99.0636C436.02 99.3758 436.665 99.9046 437.118 100.583C437.571 101.261 437.813 102.059 437.813 102.875C437.812 103.968 437.377 105.017 436.604 105.79C435.83 106.563 434.782 106.998 433.688 107ZM456.376 124.531C455.56 124.531 454.762 124.289 454.084 123.836C453.406 123.382 452.877 122.738 452.565 121.984C452.252 121.231 452.171 120.401 452.33 119.601C452.489 118.801 452.882 118.066 453.459 117.489C454.036 116.912 454.771 116.519 455.571 116.36C456.371 116.201 457.2 116.283 457.954 116.595C458.708 116.907 459.352 117.436 459.805 118.114C460.259 118.793 460.501 119.59 460.501 120.406C460.499 121.5 460.064 122.548 459.291 123.321C458.518 124.095 457.469 124.53 456.376 124.531ZM466.688 90.4996C465.872 90.4996 465.075 90.2577 464.396 89.8044C463.718 89.3512 463.189 88.7069 462.877 87.9532C462.565 87.1995 462.483 86.3701 462.642 85.5699C462.802 84.7697 463.194 84.0347 463.771 83.4578C464.348 82.8809 465.083 82.4881 465.883 82.3289C466.684 82.1697 467.513 82.2514 468.267 82.5636C469.02 82.8758 469.665 83.4046 470.118 84.0829C470.571 84.7613 470.813 85.5588 470.813 86.3746C470.812 87.4683 470.377 88.5168 469.604 89.2901C468.83 90.0634 467.782 90.4984 466.688 90.4996Z" fill="#3499FF"/>
<path d="M59.6821 167.297L78.1685 167.297" stroke="#3499FF" stroke-width="2" stroke-dasharray="11 8"/>
<path d="M144.667 167C144.667 169.946 147.054 172.333 150 172.333C152.946 172.333 155.333 169.946 155.333 167C155.333 164.054 152.946 161.667 150 161.667C147.054 161.667 144.667 164.054 144.667 167ZM84 168L150 168L150 166L84 166L84 168Z" fill="#3499FF"/>
<path d="M333.916 167.297H352.402" stroke="#3499FF" stroke-width="2" stroke-dasharray="11 8"/>
<path d="M388.583 167.297C388.583 170.243 390.971 172.631 393.916 172.631C396.862 172.631 399.249 170.243 399.249 167.297C399.249 164.352 396.862 161.964 393.916 161.964C390.971 161.964 388.583 164.352 388.583 167.297ZM355.646 168.297H393.916V166.297H355.646V168.297Z" fill="#3499FF"/>
<path d="M169.948 298V287.091H172.255V296.098H176.931V298H169.948ZM188.059 292.545C188.059 293.735 187.833 294.747 187.382 295.582C186.935 296.416 186.324 297.054 185.55 297.494C184.779 297.931 183.913 298.149 182.951 298.149C181.981 298.149 181.111 297.929 180.341 297.489C179.57 297.048 178.961 296.411 178.513 295.576C178.066 294.742 177.842 293.732 177.842 292.545C177.842 291.356 178.066 290.344 178.513 289.509C178.961 288.675 179.57 288.039 180.341 287.602C181.111 287.162 181.981 286.942 182.951 286.942C183.913 286.942 184.779 287.162 185.55 287.602C186.324 288.039 186.935 288.675 187.382 289.509C187.833 290.344 188.059 291.356 188.059 292.545ZM185.721 292.545C185.721 291.775 185.605 291.125 185.374 290.596C185.147 290.067 184.826 289.665 184.41 289.392C183.995 289.119 183.508 288.982 182.951 288.982C182.393 288.982 181.907 289.119 181.491 289.392C181.076 289.665 180.752 290.067 180.522 290.596C180.294 291.125 180.181 291.775 180.181 292.545C180.181 293.316 180.294 293.966 180.522 294.495C180.752 295.024 181.076 295.425 181.491 295.699C181.907 295.972 182.393 296.109 182.951 296.109C183.508 296.109 183.995 295.972 184.41 295.699C184.826 295.425 185.147 295.024 185.374 294.495C185.605 293.966 185.721 293.316 185.721 292.545ZM191.033 298H188.561L192.327 287.091H195.299L199.06 298H196.588L193.856 289.584H193.771L191.033 298ZM190.878 293.712H196.716V295.512H190.878V293.712ZM204.24 298H200.373V287.091H204.272C205.369 287.091 206.314 287.309 207.106 287.746C207.898 288.179 208.507 288.803 208.933 289.616C209.363 290.429 209.578 291.402 209.578 292.535C209.578 293.671 209.363 294.648 208.933 295.464C208.507 296.281 207.894 296.908 207.095 297.345C206.3 297.782 205.348 298 204.24 298ZM202.679 296.024H204.144C204.826 296.024 205.4 295.903 205.865 295.662C206.334 295.417 206.685 295.038 206.919 294.527C207.157 294.012 207.276 293.348 207.276 292.535C207.276 291.729 207.157 291.07 206.919 290.559C206.685 290.047 206.335 289.671 205.87 289.429C205.405 289.188 204.831 289.067 204.15 289.067H202.679V296.024ZM219.467 286.58L215.951 299.641H213.996L217.512 286.58H219.467ZM223.659 288.993V287.091H232.618V288.993H229.278V298H226.998V288.993H223.659ZM234.094 298V287.091H238.398C239.222 287.091 239.925 287.238 240.507 287.533C241.093 287.824 241.539 288.238 241.844 288.774C242.153 289.307 242.307 289.934 242.307 290.654C242.307 291.379 242.151 292.002 241.839 292.524C241.526 293.043 241.073 293.44 240.48 293.717C239.891 293.994 239.177 294.133 238.339 294.133H235.457V292.279H237.966C238.407 292.279 238.772 292.219 239.063 292.098C239.355 291.977 239.571 291.796 239.713 291.555C239.859 291.313 239.932 291.013 239.932 290.654C239.932 290.292 239.859 289.987 239.713 289.738C239.571 289.49 239.353 289.301 239.058 289.174C238.767 289.042 238.399 288.977 237.956 288.977H236.4V298H234.094ZM239.985 293.036L242.696 298H240.15L237.497 293.036H239.985ZM245.818 298H243.346L247.112 287.091H250.084L253.845 298H251.373L248.641 289.584H248.556L245.818 298ZM245.663 293.712H251.501V295.512H245.663V293.712ZM264.283 287.091V298H262.291L257.544 291.134H257.465V298H255.158V287.091H257.182L261.891 293.952H261.987V287.091H264.283ZM272.106 290.228C272.064 289.799 271.881 289.465 271.558 289.227C271.235 288.989 270.796 288.87 270.242 288.87C269.866 288.87 269.548 288.923 269.289 289.03C269.029 289.133 268.83 289.277 268.692 289.461C268.557 289.646 268.49 289.855 268.49 290.09C268.482 290.285 268.523 290.456 268.612 290.601C268.704 290.747 268.83 290.873 268.99 290.979C269.15 291.082 269.335 291.173 269.544 291.251C269.754 291.326 269.977 291.39 270.215 291.443L271.195 291.677C271.671 291.784 272.108 291.926 272.506 292.103C272.904 292.281 273.248 292.499 273.539 292.759C273.83 293.018 274.056 293.323 274.216 293.675C274.379 294.026 274.463 294.429 274.466 294.884C274.463 295.551 274.292 296.13 273.955 296.62C273.621 297.107 273.138 297.485 272.506 297.755C271.877 298.021 271.119 298.154 270.231 298.154C269.351 298.154 268.584 298.02 267.93 297.75C267.28 297.48 266.773 297.08 266.407 296.551C266.045 296.018 265.855 295.36 265.837 294.575H268.069C268.094 294.941 268.198 295.246 268.383 295.491C268.571 295.733 268.822 295.915 269.134 296.04C269.45 296.161 269.807 296.221 270.205 296.221C270.595 296.221 270.934 296.164 271.222 296.05C271.513 295.937 271.739 295.779 271.899 295.576C272.058 295.374 272.138 295.141 272.138 294.879C272.138 294.634 272.066 294.428 271.92 294.261C271.778 294.094 271.568 293.952 271.291 293.835C271.018 293.717 270.682 293.611 270.285 293.515L269.097 293.217C268.177 292.993 267.451 292.643 266.918 292.167C266.385 291.691 266.121 291.05 266.124 290.244C266.121 289.584 266.297 289.007 266.652 288.513C267.01 288.02 267.502 287.634 268.127 287.357C268.752 287.08 269.463 286.942 270.258 286.942C271.068 286.942 271.774 287.08 272.378 287.357C272.985 287.634 273.458 288.02 273.795 288.513C274.132 289.007 274.306 289.578 274.317 290.228H272.106ZM276.017 298V287.091H283.241V288.993H278.324V291.592H282.761V293.494H278.324V298H276.017ZM294.817 292.545C294.817 293.735 294.591 294.747 294.14 295.582C293.693 296.416 293.082 297.054 292.308 297.494C291.537 297.931 290.671 298.149 289.708 298.149C288.739 298.149 287.869 297.929 287.098 297.489C286.328 297.048 285.719 296.411 285.271 295.576C284.824 294.742 284.6 293.732 284.6 292.545C284.6 291.356 284.824 290.344 285.271 289.509C285.719 288.675 286.328 288.039 287.098 287.602C287.869 287.162 288.739 286.942 289.708 286.942C290.671 286.942 291.537 287.162 292.308 287.602C293.082 288.039 293.693 288.675 294.14 289.509C294.591 290.344 294.817 291.356 294.817 292.545ZM292.478 292.545C292.478 291.775 292.363 291.125 292.132 290.596C291.905 290.067 291.583 289.665 291.168 289.392C290.752 289.119 290.266 288.982 289.708 288.982C289.151 288.982 288.664 289.119 288.249 289.392C287.833 289.665 287.51 290.067 287.279 290.596C287.052 291.125 286.939 291.775 286.939 292.545C286.939 293.316 287.052 293.966 287.279 294.495C287.51 295.024 287.833 295.425 288.249 295.699C288.664 295.972 289.151 296.109 289.708 296.109C290.266 296.109 290.752 295.972 291.168 295.699C291.583 295.425 291.905 295.024 292.132 294.495C292.363 293.966 292.478 293.316 292.478 292.545ZM296.525 298V287.091H300.829C301.653 287.091 302.356 287.238 302.939 287.533C303.525 287.824 303.97 288.238 304.276 288.774C304.585 289.307 304.739 289.934 304.739 290.654C304.739 291.379 304.583 292.002 304.27 292.524C303.958 293.043 303.505 293.44 302.912 293.717C302.323 293.994 301.609 294.133 300.771 294.133H297.889V292.279H300.398C300.838 292.279 301.204 292.219 301.495 292.098C301.786 291.977 302.003 291.796 302.145 291.555C302.291 291.313 302.363 291.013 302.363 290.654C302.363 290.292 302.291 289.987 302.145 289.738C302.003 289.49 301.785 289.301 301.49 289.174C301.199 289.042 300.831 288.977 300.387 288.977H298.832V298H296.525ZM302.417 293.036L305.128 298H302.582L299.929 293.036H302.417ZM306.369 287.091H309.214L312.218 294.42H312.346L315.35 287.091H318.194V298H315.957V290.9H315.867L313.043 297.947H311.52L308.697 290.873H308.606V298H306.369V287.091Z" fill="#3499FF"/>
<path d="M19.9482 298V287.091H27.299V288.993H22.2546V291.592H26.9208V293.494H22.2546V296.098H27.3203V298H19.9482ZM31.2954 287.091L33.4953 290.809H33.5805L35.7911 287.091H38.3959L35.0667 292.545L38.4704 298H35.8177L33.5805 294.277H33.4953L31.2581 298H28.616L32.0305 292.545L28.68 287.091H31.2954ZM39.4399 288.993V287.091H48.3994V288.993H45.0596V298H42.7797V288.993H39.4399ZM49.8749 298V287.091H54.1789C55.0028 287.091 55.7059 287.238 56.2883 287.533C56.8742 287.824 57.3199 288.238 57.6253 288.774C57.9342 289.307 58.0887 289.934 58.0887 290.654C58.0887 291.379 57.9324 292.002 57.6199 292.524C57.3074 293.043 56.8547 293.44 56.2616 293.717C55.6721 293.994 54.9584 294.133 54.1203 294.133H51.2385V292.279H53.7474C54.1878 292.279 54.5535 292.219 54.8447 292.098C55.1359 291.977 55.3525 291.796 55.4946 291.555C55.6402 291.313 55.713 291.013 55.713 290.654C55.713 290.292 55.6402 289.987 55.4946 289.738C55.3525 289.49 55.1341 289.301 54.8394 289.174C54.5482 289.042 54.1807 288.977 53.7368 288.977H52.1814V298H49.8749ZM55.7662 293.036L58.4775 298H55.9314L53.2787 293.036H55.7662ZM61.599 298H59.1274L62.8934 287.091H65.8657L69.6263 298H67.1547L64.4221 289.584H64.3369L61.599 298ZM61.4445 293.712H67.2826V295.512H61.4445V293.712ZM80.052 290.91H77.7189C77.6763 290.608 77.5893 290.34 77.4579 290.106C77.3265 289.868 77.1578 289.665 76.9519 289.499C76.7459 289.332 76.508 289.204 76.2381 289.115C75.9718 289.026 75.6824 288.982 75.3699 288.982C74.8052 288.982 74.3134 289.122 73.8944 289.403C73.4753 289.68 73.1504 290.085 72.9196 290.617C72.6887 291.146 72.5733 291.789 72.5733 292.545C72.5733 293.323 72.6887 293.977 72.9196 294.506C73.1539 295.035 73.4806 295.434 73.8997 295.704C74.3187 295.974 74.8034 296.109 75.3539 296.109C75.6628 296.109 75.9487 296.068 76.2115 295.987C76.4778 295.905 76.714 295.786 76.9199 295.63C77.1259 295.47 77.2963 295.276 77.4313 295.049C77.5698 294.822 77.6657 294.562 77.7189 294.271L80.052 294.282C79.9917 294.783 79.8407 295.266 79.5993 295.731C79.3613 296.192 79.04 296.606 78.6351 296.972C78.2338 297.334 77.7544 297.622 77.1969 297.835C76.6429 298.044 76.0162 298.149 75.3166 298.149C74.3436 298.149 73.4735 297.929 72.7065 297.489C71.943 297.048 71.3393 296.411 70.8954 295.576C70.4551 294.742 70.2349 293.732 70.2349 292.545C70.2349 291.356 70.4586 290.344 70.9061 289.509C71.3535 288.675 71.9608 288.039 72.7278 287.602C73.4949 287.162 74.3578 286.942 75.3166 286.942C75.9487 286.942 76.5346 287.031 77.0744 287.208C77.6177 287.386 78.0989 287.645 78.5179 287.986C78.937 288.323 79.2779 288.737 79.5407 289.227C79.807 289.717 79.9775 290.278 80.052 290.91ZM81.2905 288.993V287.091H90.25V288.993H86.9102V298H84.6303V288.993H81.2905Z" fill="#3499FF"/>
<path d="M400.828 298H398.357L402.123 287.091H405.095L408.856 298H406.384L403.652 289.584H403.566L400.828 298ZM400.674 293.712H406.512V295.512H400.674V293.712ZM419.294 287.091V298H417.301L412.555 291.134H412.475V298H410.169V287.091H412.193L416.902 293.952H416.998V287.091H419.294ZM423.079 298H420.608L424.374 287.091H427.346L431.107 298H428.635L425.903 289.584H425.817L423.079 298ZM422.925 293.712H428.763V295.512H422.925V293.712ZM432.42 298V287.091H434.726V296.098H439.403V298H432.42ZM438.9 287.091H441.483L443.971 291.789H444.077L446.565 287.091H449.148L445.169 294.143V298H442.879V294.143L438.9 287.091ZM450.681 288.993V287.091H459.641V288.993H456.301V298H454.021V288.993H450.681ZM463.423 287.091V298H461.116V287.091H463.423ZM474.946 290.91H472.612C472.57 290.608 472.483 290.34 472.351 290.106C472.22 289.868 472.051 289.665 471.845 289.499C471.639 289.332 471.402 289.204 471.132 289.115C470.865 289.026 470.576 288.982 470.263 288.982C469.699 288.982 469.207 289.122 468.788 289.403C468.369 289.68 468.044 290.085 467.813 290.617C467.582 291.146 467.467 291.789 467.467 292.545C467.467 293.323 467.582 293.977 467.813 294.506C468.047 295.035 468.374 295.434 468.793 295.704C469.212 295.974 469.697 296.109 470.247 296.109C470.556 296.109 470.842 296.068 471.105 295.987C471.371 295.905 471.608 295.786 471.813 295.63C472.019 295.47 472.19 295.276 472.325 295.049C472.463 294.822 472.559 294.562 472.612 294.271L474.946 294.282C474.885 294.783 474.734 295.266 474.493 295.731C474.255 296.192 473.934 296.606 473.529 296.972C473.127 297.334 472.648 297.622 472.09 297.835C471.536 298.044 470.91 298.149 470.21 298.149C469.237 298.149 468.367 297.929 467.6 297.489C466.837 297.048 466.233 296.411 465.789 295.576C465.349 294.742 465.128 293.732 465.128 292.545C465.128 291.356 465.352 290.344 465.8 289.509C466.247 288.675 466.854 288.039 467.621 287.602C468.388 287.162 469.251 286.942 470.21 286.942C470.842 286.942 471.428 287.031 471.968 287.208C472.511 287.386 472.992 287.645 473.411 287.986C473.831 288.323 474.171 288.737 474.434 289.227C474.701 289.717 474.871 290.278 474.946 290.91ZM482.517 290.228C482.475 289.799 482.292 289.465 481.969 289.227C481.646 288.989 481.207 288.87 480.653 288.87C480.277 288.87 479.959 288.923 479.7 289.03C479.44 289.133 479.242 289.277 479.103 289.461C478.968 289.646 478.901 289.855 478.901 290.09C478.894 290.285 478.934 290.456 479.023 290.601C479.116 290.747 479.242 290.873 479.401 290.979C479.561 291.082 479.746 291.173 479.955 291.251C480.165 291.326 480.389 291.39 480.627 291.443L481.607 291.677C482.082 291.784 482.519 291.926 482.917 292.103C483.315 292.281 483.659 292.499 483.95 292.759C484.242 293.018 484.467 293.323 484.627 293.675C484.79 294.026 484.874 294.429 484.877 294.884C484.874 295.551 484.703 296.13 484.366 296.62C484.032 297.107 483.549 297.485 482.917 297.755C482.288 298.021 481.53 298.154 480.642 298.154C479.762 298.154 478.995 298.02 478.341 297.75C477.691 297.48 477.184 297.08 476.818 296.551C476.456 296.018 476.266 295.36 476.248 294.575H478.48C478.505 294.941 478.609 295.246 478.794 295.491C478.982 295.733 479.233 295.915 479.545 296.04C479.861 296.161 480.218 296.221 480.616 296.221C481.006 296.221 481.346 296.164 481.633 296.05C481.924 295.937 482.15 295.779 482.31 295.576C482.47 295.374 482.549 295.141 482.549 294.879C482.549 294.634 482.477 294.428 482.331 294.261C482.189 294.094 481.979 293.952 481.703 293.835C481.429 293.717 481.093 293.611 480.696 293.515L479.508 293.217C478.588 292.993 477.862 292.643 477.329 292.167C476.797 291.691 476.532 291.05 476.536 290.244C476.532 289.584 476.708 289.007 477.063 288.513C477.422 288.02 477.913 287.634 478.538 287.357C479.163 287.08 479.874 286.942 480.669 286.942C481.479 286.942 482.185 287.08 482.789 287.357C483.396 287.634 483.869 288.02 484.206 288.513C484.543 289.007 484.717 289.578 484.728 290.228H482.517Z" fill="#3499FF"/>
<path d="M333.5 168C333.5 217.43 293.429 257.5 244 257.5C194.571 257.5 154.5 217.43 154.5 168C154.5 118.571 194.571 78.5 244 78.5C293.429 78.5 333.5 118.571 333.5 168Z" fill="url(#paint1_linear_5150_233)" stroke="url(#paint2_linear_5150_233)"/>
<path d="M267.921 191.625L255.398 167.22L252.257 168.716L261.62 186.961C261.936 187.433 261.225 187.335 261.225 187.335C250.38 187.217 245.995 176.175 245.995 176.175L251.131 166.315L260.119 162.516L251.822 160.115L244 145L236.158 160.194L227.901 162.516L237.106 166.433L242.044 176.293C236.119 188.22 226.835 187.394 226.835 187.394C226.183 187.433 226.42 187.079 226.42 187.079L235.743 168.716L232.721 167.181L220 191.999H228.454C238.904 191.999 243.763 180.466 243.763 180.466C243.98 179.895 244.198 180.545 244.198 180.545C249.867 192.039 258.123 191.999 258.123 191.999H267.605C268.237 192.019 267.921 191.625 267.921 191.625ZM244.059 172.338L239.022 162.556L244.02 152.774L249.096 162.556L244.059 172.338Z" fill="url(#paint3_linear_5150_233)"/>
<rect x="277" y="209" width="20" height="20" rx="2" fill="#3499FF"/>
<ellipse cx="201" cy="117" rx="10" ry="10" fill="#3499FF"/>
<path d="M296 198V127.751C296 124.966 294.894 122.295 292.925 120.326C290.955 118.357 288.285 117.251 285.5 117.251L223 117.251M223 117.251L238.75 133.001M223 117.251L238.75 101.501" stroke="#3499FF" stroke-width="2" stroke-linecap="round" stroke-linejoin="round"/>
<path d="M193 139.501L193 209.75C193 212.535 194.106 215.205 196.075 217.175C198.045 219.144 200.715 220.25 203.5 220.25L266 220.25M266 220.25L250.25 204.5M266 220.25L250.25 236" stroke="#3499FF" stroke-width="2" stroke-linecap="round" stroke-linejoin="round"/>
</g>
<defs>
<radialGradient id="paint0_radial_5150_233" cx="0" cy="0" r="1" gradientUnits="userSpaceOnUse" gradientTransform="translate(235 153.591) rotate(90.0649) scale(244.092 371.612)">
<stop/>
<stop offset="0.760471" stop-opacity="0.7"/>
<stop offset="1" stop-opacity="0"/>
</radialGradient>
<linearGradient id="paint1_linear_5150_233" x1="244" y1="78" x2="244" y2="258" gradientUnits="userSpaceOnUse">
<stop stop-color="#3560B5" stop-opacity="0.41"/>
<stop offset="1" stop-color="#172A4F" stop-opacity="0.15"/>
</linearGradient>
<linearGradient id="paint2_linear_5150_233" x1="244" y1="78" x2="244" y2="258" gradientUnits="userSpaceOnUse">
<stop stop-color="#3499FF"/>
<stop offset="1" stop-color="#7557FF"/>
</linearGradient>
<linearGradient id="paint3_linear_5150_233" x1="244.47" y1="145" x2="243.886" y2="177.239" gradientUnits="userSpaceOnUse">
<stop stop-color="#30D5C8"/>
<stop offset="1" stop-color="#7557FF"/>
</linearGradient>
<clipPath id="clip0_5150_233">
<rect width="90" height="90" fill="white" transform="translate(394 126)"/>
</clipPath>
</defs>
</svg>
