<svg width="502" height="362" viewBox="0 0 502 362" fill="none" xmlns="http://www.w3.org/2000/svg">
<mask id="mask0_5150_165" style="mask-type:alpha" maskUnits="userSpaceOnUse" x="0" y="0" width="502" height="362">
<rect width="502" height="362" fill="url(#paint0_radial_5150_165)"/>
</mask>
<g mask="url(#mask0_5150_165)">
<path d="M34.0657 111.207H36.0259L37.0114 112.475L37.9808 113.604L39.8079 115.895H37.6559L36.3988 114.35L35.7543 113.434L34.0657 111.207ZM39.973 109.545C39.973 110.735 39.7475 111.747 39.2965 112.582C38.8491 113.416 38.2383 114.054 37.4641 114.494C36.6935 114.931 35.8271 115.149 34.8647 115.149C33.8952 115.149 33.0252 114.929 32.2546 114.489C31.484 114.048 30.875 113.411 30.4276 112.576C29.9801 111.742 29.7564 110.732 29.7564 109.545C29.7564 108.356 29.9801 107.344 30.4276 106.509C30.875 105.675 31.484 105.039 32.2546 104.602C33.0252 104.162 33.8952 103.942 34.8647 103.942C35.8271 103.942 36.6935 104.162 37.4641 104.602C38.2383 105.039 38.8491 105.675 39.2965 106.509C39.7475 107.344 39.973 108.356 39.973 109.545ZM37.6346 109.545C37.6346 108.775 37.5192 108.125 37.2884 107.596C37.0611 107.067 36.7397 106.665 36.3242 106.392C35.9087 106.119 35.4222 105.982 34.8647 105.982C34.3072 105.982 33.8207 106.119 33.4052 106.392C32.9897 106.665 32.6665 107.067 32.4357 107.596C32.2085 108.125 32.0948 108.775 32.0948 109.545C32.0948 110.316 32.2085 110.966 32.4357 111.495C32.6665 112.024 32.9897 112.425 33.4052 112.699C33.8207 112.972 34.3072 113.109 34.8647 113.109C35.4222 113.109 35.9087 112.972 36.3242 112.699C36.7397 112.425 37.0611 112.024 37.2884 111.495C37.5192 110.966 37.6346 110.316 37.6346 109.545ZM48.4198 104.091H50.7263V111.175C50.7263 111.971 50.5363 112.667 50.1563 113.263C49.7799 113.86 49.2526 114.325 48.5743 114.659C47.896 114.989 47.1059 115.154 46.2039 115.154C45.2984 115.154 44.5065 114.989 43.8282 114.659C43.1499 114.325 42.6226 113.86 42.2462 113.263C41.8698 112.667 41.6816 111.971 41.6816 111.175V104.091H43.988V110.978C43.988 111.394 44.0786 111.763 44.2597 112.086C44.4443 112.409 44.7036 112.663 45.0374 112.848C45.3712 113.033 45.76 113.125 46.2039 113.125C46.6514 113.125 47.0402 113.033 47.3705 112.848C47.7043 112.663 47.9617 112.409 48.1428 112.086C48.3275 111.763 48.4198 111.394 48.4198 110.978V104.091ZM52.6239 115V104.091H59.9748V105.993H54.9304V108.592H59.5966V110.494H54.9304V113.098H59.9961V115H52.6239ZM67.7265 107.228C67.6839 106.799 67.501 106.465 67.1778 106.227C66.8547 105.989 66.4161 105.87 65.8621 105.87C65.4857 105.87 65.1679 105.923 64.9086 106.03C64.6494 106.133 64.4506 106.277 64.3121 106.461C64.1771 106.646 64.1096 106.855 64.1096 107.09C64.1025 107.285 64.1434 107.456 64.2322 107.601C64.3245 107.747 64.4506 107.873 64.6104 107.979C64.7702 108.082 64.9548 108.173 65.1643 108.251C65.3738 108.326 65.5976 108.39 65.8355 108.443L66.8156 108.677C67.2915 108.784 67.7282 108.926 68.126 109.103C68.5237 109.281 68.8682 109.499 69.1594 109.759C69.4506 110.018 69.676 110.323 69.8358 110.675C69.9992 111.026 70.0827 111.429 70.0862 111.884C70.0827 112.551 69.9122 113.13 69.5748 113.62C69.241 114.107 68.7581 114.485 68.126 114.755C67.4974 115.021 66.7393 115.154 65.8515 115.154C64.9708 115.154 64.2037 115.02 63.5503 114.75C62.9005 114.48 62.3927 114.08 62.0269 113.551C61.6647 113.018 61.4747 112.36 61.4569 111.575H63.6888C63.7137 111.941 63.8184 112.246 64.0031 112.491C64.1913 112.733 64.4417 112.915 64.7542 113.04C65.0702 113.161 65.4271 113.221 65.8248 113.221C66.2155 113.221 66.5546 113.164 66.8422 113.05C67.1334 112.937 67.3589 112.779 67.5187 112.576C67.6785 112.374 67.7584 112.141 67.7584 111.879C67.7584 111.634 67.6856 111.428 67.54 111.261C67.398 111.094 67.1885 110.952 66.9115 110.835C66.6381 110.717 66.3025 110.611 65.9047 110.515L64.7169 110.217C63.7971 109.993 63.0709 109.643 62.5383 109.167C62.0056 108.691 61.741 108.05 61.7446 107.244C61.741 106.584 61.9168 106.007 62.2719 105.513C62.6306 105.02 63.1224 104.634 63.7474 104.357C64.3724 104.08 65.0827 103.942 65.8781 103.942C66.6878 103.942 67.3944 104.08 67.9981 104.357C68.6054 104.634 69.0777 105.02 69.415 105.513C69.7524 106.007 69.9264 106.578 69.9371 107.228H67.7265ZM71.2221 105.993V104.091H80.1816V105.993H76.8418V115H74.562V105.993H71.2221ZM83.9636 104.091V115H81.6571V104.091H83.9636ZM95.8861 109.545C95.8861 110.735 95.6606 111.747 95.2096 112.582C94.7622 113.416 94.1514 114.054 93.3772 114.494C92.6066 114.931 91.7401 115.149 90.7778 115.149C89.8083 115.149 88.9383 114.929 88.1677 114.489C87.3971 114.048 86.7881 113.411 86.3406 112.576C85.8932 111.742 85.6695 110.732 85.6695 109.545C85.6695 108.356 85.8932 107.344 86.3406 106.509C86.7881 105.675 87.3971 105.039 88.1677 104.602C88.9383 104.162 89.8083 103.942 90.7778 103.942C91.7401 103.942 92.6066 104.162 93.3772 104.602C94.1514 105.039 94.7622 105.675 95.2096 106.509C95.6606 107.344 95.8861 108.356 95.8861 109.545ZM93.5477 109.545C93.5477 108.775 93.4323 108.125 93.2014 107.596C92.9742 107.067 92.6528 106.665 92.2373 106.392C91.8218 106.119 91.3353 105.982 90.7778 105.982C90.2203 105.982 89.7338 106.119 89.3183 106.392C88.9028 106.665 88.5796 107.067 88.3488 107.596C88.1215 108.125 88.0079 108.775 88.0079 109.545C88.0079 110.316 88.1215 110.966 88.3488 111.495C88.5796 112.024 88.9028 112.425 89.3183 112.699C89.7338 112.972 90.2203 113.109 90.7778 113.109C91.3353 113.109 91.8218 112.972 92.2373 112.699C92.6528 112.425 92.9742 112.024 93.2014 111.495C93.4323 110.966 93.5477 110.316 93.5477 109.545ZM106.719 104.091V115H104.727L99.981 108.134H99.9011V115H97.5946V104.091H99.6188L104.328 110.952H104.423V104.091H106.719ZM114.543 107.228C114.5 106.799 114.317 106.465 113.994 106.227C113.671 105.989 113.233 105.87 112.679 105.87C112.302 105.87 111.984 105.923 111.725 106.03C111.466 106.133 111.267 106.277 111.128 106.461C110.994 106.646 110.926 106.855 110.926 107.09C110.919 107.285 110.96 107.456 111.049 107.601C111.141 107.747 111.267 107.873 111.427 107.979C111.587 108.082 111.771 108.173 111.981 108.251C112.19 108.326 112.414 108.39 112.652 108.443L113.632 108.677C114.108 108.784 114.545 108.926 114.942 109.103C115.34 109.281 115.685 109.499 115.976 109.759C116.267 110.018 116.492 110.323 116.652 110.675C116.816 111.026 116.899 111.429 116.903 111.884C116.899 112.551 116.729 113.13 116.391 113.62C116.057 114.107 115.574 114.485 114.942 114.755C114.314 115.021 113.556 115.154 112.668 115.154C111.787 115.154 111.02 115.02 110.367 114.75C109.717 114.48 109.209 114.08 108.843 113.551C108.481 113.018 108.291 112.36 108.273 111.575H110.505C110.53 111.941 110.635 112.246 110.82 112.491C111.008 112.733 111.258 112.915 111.571 113.04C111.887 113.161 112.244 113.221 112.641 113.221C113.032 113.221 113.371 113.164 113.659 113.05C113.95 112.937 114.175 112.779 114.335 112.576C114.495 112.374 114.575 112.141 114.575 111.879C114.575 111.634 114.502 111.428 114.356 111.261C114.214 111.094 114.005 110.952 113.728 110.835C113.454 110.717 113.119 110.611 112.721 110.515L111.533 110.217C110.614 109.993 109.887 109.643 109.355 109.167C108.822 108.691 108.557 108.05 108.561 107.244C108.557 106.584 108.733 106.007 109.088 105.513C109.447 105.02 109.939 104.634 110.564 104.357C111.189 104.08 111.899 103.942 112.695 103.942C113.504 103.942 114.211 104.08 114.815 104.357C115.422 104.634 115.894 105.02 116.231 105.513C116.569 106.007 116.743 106.578 116.753 107.228H114.543Z" fill="#3499FF"/>
<path d="M71.1659 195V184.091H75.4699C76.2938 184.091 76.9969 184.238 77.5793 184.533C78.1652 184.824 78.6109 185.238 78.9163 185.774C79.2252 186.307 79.3797 186.934 79.3797 187.654C79.3797 188.379 79.2235 189.002 78.911 189.524C78.5985 190.043 78.1457 190.44 77.5526 190.717C76.9632 190.994 76.2494 191.133 75.4113 191.133H72.5296V189.279H75.0384C75.4788 189.279 75.8445 189.219 76.1357 189.098C76.4269 188.977 76.6436 188.796 76.7856 188.555C76.9312 188.313 77.004 188.013 77.004 187.654C77.004 187.292 76.9312 186.987 76.7856 186.738C76.6436 186.49 76.4252 186.301 76.1304 186.174C75.8392 186.042 75.4717 185.977 75.0278 185.977H73.4724V195H71.1659ZM77.0573 190.036L79.7686 195H77.2224L74.5697 190.036H77.0573ZM81.0097 195V184.091H88.3605V185.993H83.3161V188.592H87.9823V190.494H83.3161V193.098H88.3818V195H81.0097ZM89.7788 185.993V184.091H98.7383V185.993H95.3984V195H93.1186V185.993H89.7788ZM100.214 195V184.091H104.518C105.342 184.091 106.045 184.238 106.627 184.533C107.213 184.824 107.659 185.238 107.964 185.774C108.273 186.307 108.428 186.934 108.428 187.654C108.428 188.379 108.271 189.002 107.959 189.524C107.646 190.043 107.194 190.44 106.6 190.717C106.011 190.994 105.297 191.133 104.459 191.133H101.577V189.279H104.086C104.527 189.279 104.892 189.219 105.184 189.098C105.475 188.977 105.691 188.796 105.833 188.555C105.979 188.313 106.052 188.013 106.052 187.654C106.052 187.292 105.979 186.987 105.833 186.738C105.691 186.49 105.473 186.301 105.178 186.174C104.887 186.042 104.52 185.977 104.076 185.977H102.52V195H100.214ZM106.105 190.036L108.816 195H106.27L103.618 190.036H106.105ZM112.364 184.091V195H110.058V184.091H112.364ZM114.262 195V184.091H121.612V185.993H116.568V188.592H121.234V190.494H116.568V193.098H121.634V195H114.262ZM125.417 184.091L128.054 192.379H128.155L130.797 184.091H133.354L129.593 195H126.621L122.855 184.091H125.417ZM135.097 195H132.625L136.391 184.091H139.364L143.124 195H140.653L137.92 186.584H137.835L135.097 195ZM134.943 190.712H140.781V192.512H134.943V190.712ZM144.437 195V184.091H146.744V193.098H151.421V195H144.437ZM104.947 209.207H106.907L107.892 210.475L108.862 211.604L110.689 213.895H108.537L107.28 212.35L106.635 211.434L104.947 209.207ZM110.854 207.545C110.854 208.735 110.628 209.747 110.177 210.582C109.73 211.416 109.119 212.054 108.345 212.494C107.574 212.931 106.708 213.149 105.746 213.149C104.776 213.149 103.906 212.929 103.135 212.489C102.365 212.048 101.756 211.411 101.308 210.576C100.861 209.742 100.637 208.732 100.637 207.545C100.637 206.356 100.861 205.344 101.308 204.509C101.756 203.675 102.365 203.039 103.135 202.602C103.906 202.162 104.776 201.942 105.746 201.942C106.708 201.942 107.574 202.162 108.345 202.602C109.119 203.039 109.73 203.675 110.177 204.509C110.628 205.344 110.854 206.356 110.854 207.545ZM108.515 207.545C108.515 206.775 108.4 206.125 108.169 205.596C107.942 205.067 107.621 204.665 107.205 204.392C106.79 204.119 106.303 203.982 105.746 203.982C105.188 203.982 104.702 204.119 104.286 204.392C103.871 204.665 103.547 205.067 103.317 205.596C103.089 206.125 102.976 206.775 102.976 207.545C102.976 208.316 103.089 208.966 103.317 209.495C103.547 210.024 103.871 210.425 104.286 210.699C104.702 210.972 105.188 211.109 105.746 211.109C106.303 211.109 106.79 210.972 107.205 210.699C107.621 210.425 107.942 210.024 108.169 209.495C108.4 208.966 108.515 208.316 108.515 207.545ZM119.301 202.091H121.607V209.175C121.607 209.971 121.417 210.667 121.037 211.263C120.661 211.86 120.133 212.325 119.455 212.659C118.777 212.989 117.987 213.154 117.085 213.154C116.179 213.154 115.387 212.989 114.709 212.659C114.031 212.325 113.503 211.86 113.127 211.263C112.751 210.667 112.562 209.971 112.562 209.175V202.091H114.869V208.978C114.869 209.394 114.959 209.763 115.141 210.086C115.325 210.409 115.584 210.663 115.918 210.848C116.252 211.033 116.641 211.125 117.085 211.125C117.532 211.125 117.921 211.033 118.251 210.848C118.585 210.663 118.843 210.409 119.024 210.086C119.208 209.763 119.301 209.394 119.301 208.978V202.091ZM123.505 213V202.091H130.856V203.993H125.811V206.592H130.477V208.494H125.811V211.098H130.877V213H123.505ZM132.689 213V202.091H136.993C137.817 202.091 138.52 202.238 139.103 202.533C139.689 202.824 140.134 203.238 140.44 203.774C140.749 204.307 140.903 204.934 140.903 205.654C140.903 206.379 140.747 207.002 140.434 207.524C140.122 208.043 139.669 208.44 139.076 208.717C138.487 208.994 137.773 209.133 136.935 209.133H134.053V207.279H136.562C137.002 207.279 137.368 207.219 137.659 207.098C137.95 206.977 138.167 206.796 138.309 206.555C138.455 206.313 138.527 206.013 138.527 205.654C138.527 205.292 138.455 204.987 138.309 204.738C138.167 204.49 137.949 204.301 137.654 204.174C137.363 204.042 136.995 203.977 136.551 203.977H134.996V213H132.689ZM138.581 208.036L141.292 213H138.746L136.093 208.036H138.581ZM141.44 202.091H144.023L146.511 206.789H146.617L149.105 202.091H151.688L147.709 209.143V213H145.419V209.143L141.44 202.091Z" fill="#3499FF"/>
<path d="M204.948 198V187.091H209.252C210.076 187.091 210.779 187.238 211.362 187.533C211.947 187.824 212.393 188.238 212.699 188.774C213.007 189.307 213.162 189.934 213.162 190.655C213.162 191.379 213.006 192.002 212.693 192.524C212.381 193.043 211.928 193.44 211.335 193.717C210.745 193.994 210.032 194.133 209.194 194.133H206.312V192.279H208.821C209.261 192.279 209.627 192.219 209.918 192.098C210.209 191.977 210.426 191.796 210.568 191.555C210.713 191.313 210.786 191.013 210.786 190.655C210.786 190.292 210.713 189.987 210.568 189.738C210.426 189.49 210.207 189.302 209.913 189.174C209.621 189.042 209.254 188.977 208.81 188.977H207.255V198H204.948ZM210.839 193.036L213.551 198H211.005L208.352 193.036H210.839ZM214.792 198V187.091H222.143V188.993H217.098V191.592H221.765V193.494H217.098V196.098H222.164V198H214.792ZM223.561 188.993V187.091H232.521V188.993H229.181V198H226.901V188.993H223.561ZM233.996 198V187.091H238.3C239.124 187.091 239.827 187.238 240.409 187.533C240.995 187.824 241.441 188.238 241.746 188.774C242.055 189.307 242.21 189.934 242.21 190.655C242.21 191.379 242.054 192.002 241.741 192.524C241.429 193.043 240.976 193.44 240.383 193.717C239.793 193.994 239.079 194.133 238.241 194.133H235.36V192.279H237.869C238.309 192.279 238.675 192.219 238.966 192.098C239.257 191.977 239.474 191.796 239.616 191.555C239.761 191.313 239.834 191.013 239.834 190.655C239.834 190.292 239.761 189.987 239.616 189.738C239.474 189.49 239.255 189.302 238.96 189.174C238.669 189.042 238.302 188.977 237.858 188.977H236.302V198H233.996ZM239.887 193.036L242.599 198H240.052L237.4 193.036H239.887ZM246.146 187.091V198H243.84V187.091H246.146ZM248.044 198V187.091H255.395V188.993H250.35V191.592H255.017V193.494H250.35V196.098H255.416V198H248.044ZM259.199 187.091L261.836 195.379H261.937L264.579 187.091H267.136L263.375 198H260.403L256.637 187.091H259.199ZM268.449 198V187.091H275.8V188.993H270.756V191.592H275.422V193.494H270.756V196.098H275.821V198H268.449ZM281.501 198H277.634V187.091H281.533C282.63 187.091 283.575 187.309 284.367 187.746C285.159 188.179 285.768 188.803 286.194 189.616C286.623 190.429 286.838 191.402 286.838 192.535C286.838 193.671 286.623 194.648 286.194 195.465C285.768 196.281 285.155 196.908 284.356 197.345C283.561 197.782 282.609 198 281.501 198ZM279.94 196.024H281.405C282.087 196.024 282.66 195.903 283.126 195.662C283.594 195.417 283.946 195.038 284.18 194.527C284.418 194.012 284.537 193.348 284.537 192.535C284.537 191.729 284.418 191.07 284.18 190.559C283.946 190.047 283.596 189.671 283.131 189.429C282.666 189.188 282.092 189.067 281.41 189.067H279.94V196.024ZM204.533 206.993V205.091H213.492V206.993H210.152V216H207.873V206.993H204.533ZM214.968 216V205.091H222.319V206.993H217.274V209.592H221.94V211.494H217.274V214.098H222.34V216H214.968ZM226.315 205.091L228.515 208.809H228.6L230.811 205.091H233.415L230.086 210.546L233.49 216H230.837L228.6 212.277H228.515L226.278 216H223.636L227.05 210.546L223.699 205.091H226.315ZM234.459 206.993V205.091H243.419V206.993H240.079V216H237.799V206.993H234.459Z" fill="#3499FF"/>
<path d="M232.948 115V104.091H237.252C238.08 104.091 238.784 104.249 239.367 104.565C239.949 104.877 240.393 105.312 240.699 105.87C241.007 106.424 241.162 107.063 241.162 107.788C241.162 108.512 241.006 109.151 240.693 109.705C240.381 110.259 239.928 110.691 239.335 111C238.745 111.309 238.032 111.463 237.194 111.463H234.45V109.615H236.821C237.265 109.615 237.63 109.538 237.918 109.386C238.209 109.229 238.426 109.015 238.568 108.741C238.713 108.464 238.786 108.146 238.786 107.788C238.786 107.425 238.713 107.109 238.568 106.839C238.426 106.566 238.209 106.355 237.918 106.206C237.627 106.053 237.257 105.977 236.81 105.977H235.255V115H232.948ZM242.66 115V104.091H246.964C247.788 104.091 248.491 104.238 249.073 104.533C249.659 104.824 250.105 105.238 250.41 105.774C250.719 106.307 250.874 106.934 250.874 107.654C250.874 108.379 250.718 109.002 250.405 109.524C250.093 110.043 249.64 110.44 249.047 110.717C248.457 110.994 247.744 111.133 246.905 111.133H244.024V109.279H246.533C246.973 109.279 247.339 109.219 247.63 109.098C247.921 108.977 248.138 108.796 248.28 108.555C248.425 108.313 248.498 108.013 248.498 107.654C248.498 107.292 248.425 106.987 248.28 106.738C248.138 106.49 247.919 106.301 247.625 106.174C247.333 106.042 246.966 105.977 246.522 105.977H244.967V115H242.66ZM248.551 110.036L251.263 115H248.717L246.064 110.036H248.551ZM262.529 109.545C262.529 110.735 262.303 111.747 261.852 112.582C261.405 113.416 260.794 114.054 260.02 114.494C259.249 114.931 258.383 115.149 257.42 115.149C256.451 115.149 255.581 114.929 254.81 114.489C254.04 114.048 253.431 113.411 252.983 112.576C252.536 111.742 252.312 110.732 252.312 109.545C252.312 108.356 252.536 107.344 252.983 106.509C253.431 105.675 254.04 105.039 254.81 104.602C255.581 104.162 256.451 103.942 257.42 103.942C258.383 103.942 259.249 104.162 260.02 104.602C260.794 105.039 261.405 105.675 261.852 106.509C262.303 107.344 262.529 108.356 262.529 109.545ZM260.19 109.545C260.19 108.775 260.075 108.125 259.844 107.596C259.617 107.067 259.295 106.665 258.88 106.392C258.464 106.119 257.978 105.982 257.42 105.982C256.863 105.982 256.376 106.119 255.961 106.392C255.545 106.665 255.222 107.067 254.991 107.596C254.764 108.125 254.65 108.775 254.65 109.545C254.65 110.316 254.764 110.966 254.991 111.495C255.222 112.024 255.545 112.425 255.961 112.699C256.376 112.972 256.863 113.109 257.42 113.109C257.978 113.109 258.464 112.972 258.88 112.699C259.295 112.425 259.617 112.024 259.844 111.495C260.075 110.966 260.19 110.316 260.19 109.545ZM264.237 104.091H267.082L270.086 111.42H270.214L273.218 104.091H276.062V115H273.825V107.9H273.735L270.912 114.947H269.388L266.565 107.873H266.474V115H264.237V104.091ZM277.963 115V104.091H282.267C283.094 104.091 283.799 104.249 284.381 104.565C284.964 104.877 285.408 105.312 285.713 105.87C286.022 106.424 286.177 107.063 286.177 107.788C286.177 108.512 286.02 109.151 285.708 109.705C285.395 110.259 284.943 110.691 284.35 111C283.76 111.309 283.046 111.463 282.208 111.463H279.465V109.615H281.835C282.279 109.615 282.645 109.538 282.933 109.386C283.224 109.229 283.44 109.015 283.582 108.741C283.728 108.464 283.801 108.146 283.801 107.788C283.801 107.425 283.728 107.109 283.582 106.839C283.44 106.566 283.224 106.355 282.933 106.206C282.641 106.053 282.272 105.977 281.825 105.977H280.269V115H277.963ZM287.259 105.993V104.091H296.219V105.993H292.879V115H290.599V105.993H287.259Z" fill="#3499FF"/>
<path d="M388.948 115V104.091H393.252C394.076 104.091 394.779 104.238 395.362 104.533C395.947 104.824 396.393 105.238 396.699 105.774C397.007 106.307 397.162 106.934 397.162 107.654C397.162 108.379 397.006 109.002 396.693 109.524C396.381 110.043 395.928 110.44 395.335 110.717C394.745 110.994 394.032 111.133 393.194 111.133H390.312V109.279H392.821C393.261 109.279 393.627 109.219 393.918 109.098C394.209 108.977 394.426 108.796 394.568 108.555C394.713 108.313 394.786 108.013 394.786 107.654C394.786 107.292 394.713 106.987 394.568 106.738C394.426 106.49 394.207 106.301 393.913 106.174C393.621 106.042 393.254 105.977 392.81 105.977H391.255V115H388.948ZM394.839 110.036L397.551 115H395.005L392.352 110.036H394.839ZM398.792 115V104.091H406.143V105.993H401.098V108.592H405.765V110.494H401.098V113.098H406.164V115H398.792ZM413.894 107.228C413.852 106.799 413.669 106.465 413.346 106.227C413.023 105.989 412.584 105.87 412.03 105.87C411.654 105.87 411.336 105.923 411.077 106.03C410.817 106.133 410.619 106.277 410.48 106.461C410.345 106.646 410.278 106.855 410.278 107.09C410.271 107.285 410.311 107.456 410.4 107.601C410.492 107.747 410.619 107.873 410.778 107.979C410.938 108.082 411.123 108.173 411.332 108.251C411.542 108.326 411.766 108.39 412.003 108.443L412.984 108.677C413.459 108.784 413.896 108.926 414.294 109.103C414.692 109.281 415.036 109.499 415.327 109.759C415.619 110.018 415.844 110.323 416.004 110.675C416.167 111.026 416.251 111.429 416.254 111.884C416.251 112.551 416.08 113.13 415.743 113.62C415.409 114.107 414.926 114.485 414.294 114.755C413.665 115.021 412.907 115.154 412.019 115.154C411.139 115.154 410.372 115.02 409.718 114.75C409.068 114.48 408.561 114.08 408.195 113.551C407.833 113.018 407.643 112.36 407.625 111.575H409.857C409.882 111.941 409.986 112.246 410.171 112.491C410.359 112.733 410.61 112.915 410.922 113.04C411.238 113.161 411.595 113.221 411.993 113.221C412.383 113.221 412.723 113.164 413.01 113.05C413.301 112.937 413.527 112.779 413.687 112.576C413.847 112.374 413.926 112.141 413.926 111.879C413.926 111.634 413.854 111.428 413.708 111.261C413.566 111.094 413.356 110.952 413.079 110.835C412.806 110.717 412.47 110.611 412.073 110.515L410.885 110.217C409.965 109.993 409.239 109.643 408.706 109.167C408.174 108.691 407.909 108.05 407.913 107.244C407.909 106.584 408.085 106.007 408.44 105.513C408.799 105.02 409.29 104.634 409.915 104.357C410.54 104.08 411.251 103.942 412.046 103.942C412.856 103.942 413.562 104.08 414.166 104.357C414.773 104.634 415.246 105.02 415.583 105.513C415.92 106.007 416.094 106.578 416.105 107.228H413.894ZM417.806 115V104.091H422.11C422.937 104.091 423.642 104.249 424.224 104.565C424.807 104.877 425.251 105.312 425.556 105.87C425.865 106.424 426.019 107.063 426.019 107.788C426.019 108.512 425.863 109.151 425.551 109.705C425.238 110.259 424.785 110.691 424.192 111C423.603 111.309 422.889 111.463 422.051 111.463H419.308V109.615H421.678C422.122 109.615 422.488 109.538 422.775 109.386C423.067 109.229 423.283 109.015 423.425 108.741C423.571 108.464 423.644 108.146 423.644 107.788C423.644 107.425 423.571 107.109 423.425 106.839C423.283 106.566 423.067 106.355 422.775 106.206C422.484 106.053 422.115 105.977 421.667 105.977H420.112V115H417.806ZM437.542 109.545C437.542 110.735 437.317 111.747 436.866 112.582C436.418 113.416 435.808 114.054 435.033 114.494C434.263 114.931 433.396 115.149 432.434 115.149C431.465 115.149 430.595 114.929 429.824 114.489C429.053 114.048 428.444 113.411 427.997 112.576C427.549 111.742 427.326 110.732 427.326 109.545C427.326 108.356 427.549 107.344 427.997 106.509C428.444 105.675 429.053 105.039 429.824 104.602C430.595 104.162 431.465 103.942 432.434 103.942C433.396 103.942 434.263 104.162 435.033 104.602C435.808 105.039 436.418 105.675 436.866 106.509C437.317 107.344 437.542 108.356 437.542 109.545ZM435.204 109.545C435.204 108.775 435.089 108.125 434.858 107.596C434.63 107.067 434.309 106.665 433.894 106.392C433.478 106.119 432.992 105.982 432.434 105.982C431.877 105.982 431.39 106.119 430.975 106.392C430.559 106.665 430.236 107.067 430.005 107.596C429.778 108.125 429.664 108.775 429.664 109.545C429.664 110.316 429.778 110.966 430.005 111.495C430.236 112.024 430.559 112.425 430.975 112.699C431.39 112.972 431.877 113.109 432.434 113.109C432.992 113.109 433.478 112.972 433.894 112.699C434.309 112.425 434.63 112.024 434.858 111.495C435.089 110.966 435.204 110.316 435.204 109.545ZM448.376 104.091V115H446.383L441.637 108.134H441.557V115H439.251V104.091H441.275L445.984 110.952H446.08V104.091H448.376ZM456.199 107.228C456.157 106.799 455.974 106.465 455.65 106.227C455.327 105.989 454.889 105.87 454.335 105.87C453.958 105.87 453.641 105.923 453.381 106.03C453.122 106.133 452.923 106.277 452.785 106.461C452.65 106.646 452.582 106.855 452.582 107.09C452.575 107.285 452.616 107.456 452.705 107.601C452.797 107.747 452.923 107.873 453.083 107.979C453.243 108.082 453.427 108.173 453.637 108.251C453.847 108.326 454.07 108.39 454.308 108.443L455.288 108.677C455.764 108.784 456.201 108.926 456.599 109.103C456.996 109.281 457.341 109.499 457.632 109.759C457.923 110.018 458.149 110.323 458.309 110.675C458.472 111.026 458.555 111.429 458.559 111.884C458.555 112.551 458.385 113.13 458.047 113.62C457.714 114.107 457.231 114.485 456.599 114.755C455.97 115.021 455.212 115.154 454.324 115.154C453.443 115.154 452.676 115.02 452.023 114.75C451.373 114.48 450.865 114.08 450.5 113.551C450.137 113.018 449.947 112.36 449.93 111.575H452.161C452.186 111.941 452.291 112.246 452.476 112.491C452.664 112.733 452.914 112.915 453.227 113.04C453.543 113.161 453.9 113.221 454.297 113.221C454.688 113.221 455.027 113.164 455.315 113.05C455.606 112.937 455.832 112.779 455.991 112.576C456.151 112.374 456.231 112.141 456.231 111.879C456.231 111.634 456.158 111.428 456.013 111.261C455.871 111.094 455.661 110.952 455.384 110.835C455.111 110.717 454.775 110.611 454.377 110.515L453.19 110.217C452.27 109.993 451.544 109.643 451.011 109.167C450.478 108.691 450.214 108.05 450.217 107.244C450.214 106.584 450.389 106.007 450.745 105.513C451.103 105.02 451.595 104.634 452.22 104.357C452.845 104.08 453.555 103.942 454.351 103.942C455.16 103.942 455.867 104.08 456.471 104.357C457.078 104.634 457.55 105.02 457.888 105.513C458.225 106.007 458.399 106.578 458.41 107.228H456.199ZM460.11 115V104.091H467.461V105.993H462.417V108.592H467.083V110.494H462.417V113.098H467.482V115H460.11Z" fill="#3499FF"/>
<path d="M9.68311 125.297L28.1695 125.297" stroke="#3499FF" stroke-width="2" stroke-dasharray="11 8"/>
<path d="M128.667 125C128.667 127.946 131.054 130.333 134 130.333C136.946 130.333 139.333 127.946 139.333 125C139.333 122.054 136.946 119.667 134 119.667C131.054 119.667 128.667 122.054 128.667 125ZM34 126L134 126L134 124L34 124L34 126Z" fill="#3499FF"/>
<g opacity="0.9">
<path d="M191.99 249.307L191.99 230.821" stroke="#3499FF" stroke-width="2" stroke-dasharray="11 8"/>
<path d="M191.693 164.324C194.638 164.324 197.026 161.936 197.026 158.99C197.026 156.045 194.638 153.657 191.693 153.657C188.747 153.657 186.36 156.045 186.36 158.99C186.36 161.936 188.747 164.324 191.693 164.324ZM192.693 224.99L192.693 158.99L190.693 158.99L190.693 224.99L192.693 224.99Z" fill="#3499FF"/>
</g>
<g opacity="0.9">
<path d="M165 148.99L165 168.233" stroke="#3499FF" stroke-width="2" stroke-dasharray="11 8"/>
<path d="M164.99 237.666C167.936 237.666 170.324 240.054 170.324 243C170.324 245.945 167.936 248.333 164.99 248.333C162.045 248.333 159.657 245.945 159.657 243C159.657 240.054 162.045 237.666 164.99 237.666ZM165.99 174.301L165.99 243L163.99 243L163.99 174.301L165.99 174.301Z" fill="#3499FF"/>
<path d="M217.667 282.167C223.678 282.167 229.444 284.625 233.695 289.001C237.945 293.377 240.333 299.312 240.333 305.5C240.333 311.688 237.945 317.623 233.695 321.999C229.444 326.375 223.678 328.833 217.667 328.833H144C136.633 328.856 129.547 325.925 124.244 320.66C118.942 315.396 115.84 308.212 115.596 300.633C115.352 293.053 117.985 285.674 122.938 280.059C127.89 274.445 134.772 271.037 142.124 270.558C145.768 262.625 151.797 256.11 159.319 251.979C166.84 247.848 175.454 246.321 183.884 247.624C192.315 248.926 200.114 252.989 206.126 259.21C212.138 265.432 216.044 273.481 217.264 282.167H217.667Z" fill="#55A9FF" fill-opacity="0.19" stroke="url(#paint1_linear_5150_165)" stroke-width="2" stroke-linecap="round" stroke-linejoin="round"/>
<path d="M196.937 306.697L187.023 286.966L184.537 288.175L191.949 302.926C192.199 303.308 191.636 303.228 191.636 303.228C183.051 303.133 179.579 294.206 179.579 294.206L183.645 286.234L190.76 283.162L184.193 281.221L178 269L171.792 281.285L165.255 283.162L172.542 286.329L176.452 294.301C171.76 303.944 164.411 303.276 164.411 303.276C163.895 303.308 164.082 303.021 164.082 303.021L171.463 288.175L169.071 286.934L159 307H165.693C173.965 307 177.812 297.675 177.812 297.675C177.984 297.213 178.156 297.738 178.156 297.738C182.644 307.031 189.181 307 189.181 307H196.687C197.188 307.015 196.937 306.697 196.937 306.697ZM178.047 291.103L174.059 283.194L178.016 275.286L182.035 283.194L178.047 291.103Z" fill="url(#paint2_linear_5150_165)"/>
</g>
<path d="M305.667 125C305.667 127.946 308.054 130.333 311 130.333C313.946 130.333 316.333 127.946 316.333 125C316.333 122.054 313.946 119.667 311 119.667C308.054 119.667 305.667 122.054 305.667 125ZM216 126L311 126L311 124L216 124L216 126Z" fill="#3499FF"/>
</g>
<path d="M350.4 71.0001C350.4 70.3636 350.147 69.7531 349.697 69.303C349.247 68.853 348.636 68.6001 348 68.6001C347.363 68.6001 346.753 68.853 346.303 69.303C345.853 69.7531 345.6 70.3636 345.6 71.0001V73.4001H331.2C329.29 73.4001 327.459 74.1587 326.109 75.5089C324.758 76.8592 324 78.6905 324 80.6001V99.8001C324 101.71 324.758 103.541 326.109 104.891C327.459 106.242 329.29 107 331.2 107H364.8C366.709 107 368.541 106.242 369.891 104.891C371.241 103.541 372 101.71 372 99.8001V80.6001C372 78.6905 371.241 76.8592 369.891 75.5089C368.541 74.1587 366.709 73.4001 364.8 73.4001H350.4V71.0001ZM331.2 78.2001H364.8C365.436 78.2001 366.047 78.453 366.497 78.903C366.947 79.3531 367.2 79.9636 367.2 80.6001V99.8001C367.2 100.437 366.947 101.047 366.497 101.497C366.047 101.947 365.436 102.2 364.8 102.2H331.2C330.563 102.2 329.953 101.947 329.503 101.497C329.053 101.047 328.8 100.437 328.8 99.8001V80.6001C328.8 79.9636 329.053 79.3531 329.503 78.903C329.953 78.453 330.563 78.2001 331.2 78.2001ZM349.2 145.39C361.757 145.232 369.336 142.535 373.785 138.479C377.985 134.639 379.013 129.949 379.176 126.21H379.2V122.898C379.199 120.594 378.283 118.386 376.653 116.757C375.024 115.129 372.815 114.215 370.512 114.215H355.2V114.2H340.8V114.215H325.488C320.688 114.215 316.8 118.102 316.8 122.903V126.21H316.824C316.987 129.954 318.014 134.643 322.214 138.474C326.664 142.534 334.243 145.232 346.8 145.39V145.4H349.2V145.39ZM325.488 119.014H370.512C371.543 119.014 372.532 119.424 373.261 120.153C373.99 120.882 374.4 121.871 374.4 122.903V125C374.4 128.312 373.771 131.989 370.55 134.931C367.248 137.941 360.768 140.6 348 140.6C335.232 140.6 328.752 137.941 325.449 134.931C322.233 131.989 321.6 128.307 321.6 125V122.898C321.601 121.867 322.011 120.88 322.74 120.152C323.469 119.423 324.457 119.014 325.488 119.014Z" fill="#3499FF"/>
<path d="M342.492 85.4161C342.696 85.2961 343.002 85.1821 343.41 85.0741C343.83 84.9661 344.25 84.9121 344.67 84.9121C345.27 84.9121 345.798 85.0021 346.254 85.1821C346.722 85.3501 347.022 85.6201 347.154 85.9921C347.37 86.6161 347.604 87.3421 347.856 88.1701C348.108 88.9981 348.36 89.8561 348.612 90.7441C348.864 91.6201 349.11 92.4901 349.35 93.3541C349.59 94.2061 349.8 94.9621 349.98 95.6221C349.836 95.7901 349.62 95.9221 349.332 96.0181C349.044 96.1261 348.702 96.1801 348.306 96.1801C348.018 96.1801 347.772 96.1561 347.568 96.1081C347.376 96.0601 347.214 95.9881 347.082 95.8921C346.962 95.7961 346.86 95.6701 346.776 95.5141C346.704 95.3581 346.638 95.1781 346.578 94.9741L346.254 93.7321H342.996C342.9 94.0921 342.804 94.4641 342.708 94.8481C342.612 95.2321 342.516 95.6041 342.42 95.9641C342.252 96.0241 342.072 96.0721 341.88 96.1081C341.7 96.1561 341.478 96.1801 341.214 96.1801C340.602 96.1801 340.146 96.0781 339.846 95.8741C339.558 95.6581 339.414 95.3641 339.414 94.9921C339.414 94.8241 339.438 94.6561 339.486 94.4881C339.534 94.3201 339.588 94.1221 339.648 93.8941C339.732 93.5701 339.846 93.1681 339.99 92.6881C340.146 92.2081 340.314 91.6921 340.494 91.1401C340.674 90.5761 340.866 90.0001 341.07 89.4121C341.274 88.8241 341.466 88.2721 341.646 87.7561C341.826 87.2281 341.988 86.7601 342.132 86.3521C342.288 85.9441 342.408 85.6321 342.492 85.4161ZM344.652 87.7381C344.484 88.2421 344.292 88.8061 344.076 89.4301C343.872 90.0421 343.686 90.6661 343.518 91.3021H345.75C345.582 90.6541 345.408 90.0241 345.228 89.4121C345.06 88.7881 344.904 88.2301 344.76 87.7381H344.652ZM354.605 95.9281C354.473 95.9641 354.263 96.0001 353.975 96.0361C353.699 96.0721 353.423 96.0901 353.147 96.0901C352.871 96.0901 352.625 96.0661 352.409 96.0181C352.205 95.9821 352.031 95.9101 351.887 95.8021C351.743 95.6941 351.635 95.5441 351.563 95.3521C351.491 95.1601 351.455 94.9081 351.455 94.5961V85.0921C351.587 85.0681 351.797 85.0381 352.085 85.0021C352.373 84.9541 352.649 84.9301 352.913 84.9301C353.189 84.9301 353.429 84.9541 353.633 85.0021C353.849 85.0381 354.029 85.1101 354.173 85.2181C354.317 85.3261 354.425 85.4761 354.497 85.6681C354.569 85.8601 354.605 86.1121 354.605 86.4241V95.9281Z" fill="#3499FF"/>
<path d="M473.667 125C473.667 127.946 476.054 130.333 479 130.333C481.946 130.333 484.333 127.946 484.333 125C484.333 122.054 481.946 119.667 479 119.667C476.054 119.667 473.667 122.054 473.667 125ZM379 126L479 126L479 124L379 124L379 126Z" fill="#3499FF"/>
<g clip-path="url(#clip0_5150_165)">
<path d="M162.359 91.2663C166.937 93.0663 172.107 90.8146 173.907 86.237C175.707 81.6594 173.455 76.4893 168.877 74.6893C164.3 72.8894 159.13 75.1411 157.33 79.7187C155.53 84.2963 157.781 89.4663 162.359 91.2663Z" stroke="#3499FF" stroke-width="4" stroke-linecap="round" stroke-linejoin="round"/>
<path d="M188.3 150.828C192.878 152.628 198.048 150.376 199.848 145.799C201.648 141.221 199.396 136.051 194.818 134.251C190.241 132.451 185.071 134.703 183.271 139.28C181.471 143.858 183.722 149.028 188.3 150.828Z" stroke="#3499FF" stroke-width="4" stroke-linecap="round" stroke-linejoin="round"/>
<path d="M164.867 147.658C145.593 140.079 136.112 118.311 143.691 99.0365L153.038 109.427M192.313 77.8603C211.588 85.4394 221.068 107.207 213.489 126.482L204.142 116.092" stroke="#3499FF" stroke-width="4" stroke-linecap="round" stroke-linejoin="round"/>
<path d="M187.597 118.028L188.774 115.037L185.763 113.853C185.973 112.899 185.896 111.833 185.819 110.767L188.851 109.368L187.668 106.485L184.635 107.884C184.095 107.153 183.412 106.366 182.467 105.822L183.702 102.681L180.835 101.554L179.6 104.695C178.682 104.506 177.645 104.617 176.609 104.727L175.341 101.638L172.511 102.943L173.779 106.032C173.055 106.611 172.272 107.339 171.717 108.33L168.707 107.146L167.53 110.138L170.54 111.321C170.331 112.275 170.408 113.341 170.485 114.408L167.453 115.806L168.636 118.689L171.668 117.291C172.209 118.021 172.892 118.808 173.837 119.352L172.602 122.493L175.468 123.621L176.704 120.48C177.622 120.668 178.659 120.558 179.695 120.447L180.963 123.536L183.793 122.231L182.525 119.142C183.249 118.564 184.032 117.835 184.587 116.845L187.597 118.028ZM176.388 117.074C173.951 116.116 172.852 113.439 173.852 110.896C174.852 108.354 177.48 107.142 179.916 108.1C182.353 109.058 183.452 111.735 182.452 114.278C181.452 116.821 178.824 118.032 176.388 117.074Z" fill="#3499FF"/>
</g>
<defs>
<radialGradient id="paint0_radial_5150_165" cx="0" cy="0" r="1" gradientUnits="userSpaceOnUse" gradientTransform="translate(237 181) rotate(90.5662) scale(230.375 350.743)">
<stop/>
<stop offset="0.720247" stop-opacity="0.7"/>
<stop offset="1" stop-opacity="0"/>
</radialGradient>
<linearGradient id="paint1_linear_5150_165" x1="177.957" y1="247.171" x2="177.957" y2="328.833" gradientUnits="userSpaceOnUse">
<stop stop-color="#3499FF"/>
<stop offset="1" stop-color="#7557FF"/>
</linearGradient>
<linearGradient id="paint2_linear_5150_165" x1="178.372" y1="269" x2="177.89" y2="295.066" gradientUnits="userSpaceOnUse">
<stop stop-color="#30D5C8"/>
<stop offset="1" stop-color="#7557FF"/>
</linearGradient>
<clipPath id="clip0_5150_165">
<rect width="96" height="96" fill="white" transform="translate(152.895 53.7642) rotate(21.4655)"/>
</clipPath>
</defs>
</svg>
