<svg width="1003" height="555" viewBox="0 0 1003 555" fill="none" xmlns="http://www.w3.org/2000/svg">
<g opacity="0.51">
<g clip-path="url(#clip0_203_3034)">
<mask id="mask0_203_3034" style="mask-type:alpha" maskUnits="userSpaceOnUse" x="301" y="137" width="349" height="349">
<path d="M301 311.5C301 407.874 379.126 486 475.5 486C571.874 486 650 407.874 650 311.5C650 215.126 571.874 137 475.5 137C379.126 137 301 215.126 301 311.5Z" fill="#D9D9D9"/>
</mask>
<g mask="url(#mask0_203_3034)">
<path style="mix-blend-mode:screen" d="M646.276 354.069C668.61 259.371 610.003 164.484 515.373 142.134C420.743 119.783 325.924 178.432 303.59 273.13C281.255 367.828 339.862 462.715 434.492 485.066C529.122 507.416 623.941 448.767 646.276 354.069Z" fill="url(#paint0_radial_203_3034)"/>
<path style="mix-blend-mode:screen" d="M476.091 481.982C430.608 481.988 386.903 462.638 354.47 430.728C322.037 398.817 303.433 355.431 302.668 309.922C302.668 310.908 302.668 311.894 302.668 312.88C302.668 358.907 320.939 403.05 353.462 435.596C385.986 468.143 430.096 486.427 476.091 486.427C522.086 486.427 566.197 468.143 598.72 435.596C631.243 403.05 649.514 358.907 649.514 312.88C649.514 311.894 649.514 310.908 649.514 309.922C648.76 355.449 630.148 398.853 597.695 430.768C565.242 462.683 521.592 482.02 476.091 481.982Z" fill="url(#paint1_linear_203_3034)"/>
<path style="mix-blend-mode:screen" d="M475.044 146.703C521.186 146.717 565.54 165.788 598.45 198.153C631.36 230.518 650.257 274.519 651.075 320.686C651.075 319.659 651.075 318.632 651.075 317.605C650.369 271.351 631.512 227.231 598.577 194.771C565.642 162.312 521.27 144.118 475.044 144.118C428.819 144.118 384.447 162.312 351.512 194.771C318.577 227.231 299.72 271.351 299.014 317.605C299.014 318.632 299.014 319.659 299.014 320.686C299.811 274.49 318.719 230.459 351.66 198.086C384.601 165.713 428.875 146.664 475.044 146.703Z" fill="url(#paint2_linear_203_3034)"/>
<path style="mix-blend-mode:screen" d="M359.08 218.834C383.714 158.15 463.856 133.457 538.169 163.655C612.481 193.853 652.799 267.48 628.206 327.999C603.613 388.519 523.388 413.376 449.076 383.178C374.763 352.98 334.487 279.477 359.08 218.834Z" fill="url(#paint3_linear_203_3034)"/>
<path style="mix-blend-mode:color-dodge" d="M539.737 487.783C510.998 472.704 512.394 413.211 542.899 354.951C573.404 296.691 621.44 261.645 650.221 276.888C679.001 292.131 677.564 351.418 647.059 409.719C616.554 468.02 568.518 502.861 539.737 487.783Z" fill="url(#paint4_radial_203_3034)"/>
<path style="mix-blend-mode:color-dodge" d="M634.447 442.137C641.755 489.139 577.747 538.114 491.529 551.59C405.31 565.066 329.437 537.867 322.129 490.906C314.821 443.944 378.787 394.97 465.047 381.535C551.307 368.099 627.015 395.175 634.447 442.137Z" fill="url(#paint5_radial_203_3034)"/>
<path style="mix-blend-mode:color-dodge" d="M650.91 449.696C603.983 457.01 555.043 392.998 541.577 306.717C528.11 220.436 555.248 144.509 602.381 137.196C649.514 129.882 698.29 193.895 711.756 280.175C725.223 366.456 697.838 442.383 650.91 449.696Z" fill="url(#paint6_radial_203_3034)"/>
<path style="mix-blend-mode:color-dodge" d="M347.379 161.965C343.725 129.63 393.978 97.5828 459.34 90.5982C524.703 83.6135 580.54 103.91 584.07 136.204C587.601 168.497 537.43 200.298 472.068 207.57C406.706 214.842 350.869 194.258 347.379 161.965Z" fill="url(#paint7_radial_203_3034)"/>
</g>
</g>
</g>
<path d="M445.364 337H440.435V322.455H445.463C446.907 322.455 448.148 322.746 449.185 323.328C450.226 323.906 451.027 324.737 451.585 325.821C452.144 326.905 452.423 328.203 452.423 329.713C452.423 331.228 452.142 332.53 451.578 333.619C451.019 334.708 450.212 335.544 449.156 336.126C448.105 336.709 446.841 337 445.364 337ZM443.07 334.72H445.236C446.249 334.72 447.094 334.536 447.771 334.166C448.448 333.792 448.957 333.236 449.298 332.497C449.639 331.754 449.81 330.826 449.81 329.713C449.81 328.6 449.639 327.677 449.298 326.943C448.957 326.205 448.453 325.653 447.786 325.288C447.123 324.919 446.299 324.734 445.314 324.734H443.07V334.72ZM457.952 337.22C457.261 337.22 456.638 337.097 456.085 336.851C455.535 336.6 455.1 336.231 454.778 335.743C454.46 335.255 454.302 334.654 454.302 333.939C454.302 333.323 454.415 332.814 454.643 332.412C454.87 332.009 455.18 331.688 455.573 331.446C455.966 331.205 456.409 331.022 456.901 330.899C457.398 330.771 457.912 330.679 458.442 330.622C459.082 330.556 459.6 330.497 459.998 330.445C460.396 330.388 460.684 330.303 460.864 330.189C461.049 330.071 461.141 329.888 461.141 329.642V329.599C461.141 329.064 460.983 328.65 460.665 328.357C460.348 328.063 459.891 327.916 459.295 327.916C458.665 327.916 458.165 328.054 457.796 328.328C457.432 328.603 457.185 328.927 457.058 329.301L454.657 328.96C454.846 328.297 455.159 327.743 455.594 327.298C456.03 326.848 456.563 326.512 457.192 326.29C457.822 326.062 458.518 325.949 459.281 325.949C459.806 325.949 460.329 326.01 460.85 326.134C461.371 326.257 461.847 326.46 462.278 326.744C462.709 327.024 463.054 327.405 463.315 327.888C463.58 328.371 463.712 328.974 463.712 329.699V337H461.241V335.501H461.156C460.999 335.804 460.779 336.089 460.495 336.354C460.216 336.614 459.863 336.825 459.437 336.986C459.015 337.142 458.521 337.22 457.952 337.22ZM458.62 335.331C459.136 335.331 459.584 335.229 459.962 335.026C460.341 334.817 460.632 334.543 460.836 334.202C461.044 333.861 461.148 333.489 461.148 333.087V331.801C461.068 331.867 460.931 331.929 460.737 331.986C460.547 332.043 460.334 332.092 460.097 332.135C459.861 332.178 459.626 332.215 459.394 332.249C459.162 332.282 458.961 332.31 458.79 332.334C458.407 332.386 458.064 332.471 457.761 332.589C457.458 332.708 457.219 332.874 457.043 333.087C456.868 333.295 456.781 333.565 456.781 333.896C456.781 334.37 456.953 334.727 457.299 334.969C457.645 335.21 458.085 335.331 458.62 335.331ZM471.745 326.091V328.08H465.474V326.091H471.745ZM467.022 323.477H469.593V333.719C469.593 334.064 469.645 334.33 469.749 334.514C469.858 334.694 470 334.817 470.175 334.884C470.351 334.95 470.545 334.983 470.758 334.983C470.919 334.983 471.066 334.971 471.198 334.947C471.335 334.924 471.44 334.902 471.511 334.884L471.944 336.893C471.807 336.941 471.61 336.993 471.354 337.05C471.103 337.107 470.796 337.14 470.431 337.149C469.787 337.168 469.207 337.071 468.691 336.858C468.175 336.64 467.765 336.304 467.462 335.849C467.164 335.395 467.017 334.827 467.022 334.145V323.477ZM477.034 337.22C476.343 337.22 475.721 337.097 475.167 336.851C474.617 336.6 474.182 336.231 473.86 335.743C473.542 335.255 473.384 334.654 473.384 333.939C473.384 333.323 473.498 332.814 473.725 332.412C473.952 332.009 474.262 331.688 474.655 331.446C475.048 331.205 475.491 331.022 475.983 330.899C476.48 330.771 476.994 330.679 477.525 330.622C478.164 330.556 478.682 330.497 479.08 330.445C479.478 330.388 479.766 330.303 479.946 330.189C480.131 330.071 480.223 329.888 480.223 329.642V329.599C480.223 329.064 480.065 328.65 479.748 328.357C479.43 328.063 478.973 327.916 478.377 327.916C477.747 327.916 477.248 328.054 476.878 328.328C476.514 328.603 476.267 328.927 476.14 329.301L473.739 328.96C473.928 328.297 474.241 327.743 474.676 327.298C475.112 326.848 475.645 326.512 476.275 326.29C476.904 326.062 477.6 325.949 478.363 325.949C478.888 325.949 479.411 326.01 479.932 326.134C480.453 326.257 480.929 326.46 481.36 326.744C481.791 327.024 482.136 327.405 482.397 327.888C482.662 328.371 482.794 328.974 482.794 329.699V337H480.323V335.501H480.238C480.081 335.804 479.861 336.089 479.577 336.354C479.298 336.614 478.945 336.825 478.519 336.986C478.097 337.142 477.603 337.22 477.034 337.22ZM477.702 335.331C478.218 335.331 478.666 335.229 479.044 335.026C479.423 334.817 479.714 334.543 479.918 334.202C480.126 333.861 480.23 333.489 480.23 333.087V331.801C480.15 331.867 480.013 331.929 479.819 331.986C479.629 332.043 479.416 332.092 479.179 332.135C478.943 332.178 478.708 332.215 478.476 332.249C478.244 332.282 478.043 332.31 477.873 332.334C477.489 332.386 477.146 332.471 476.843 332.589C476.54 332.708 476.301 332.874 476.125 333.087C475.95 333.295 475.863 333.565 475.863 333.896C475.863 334.37 476.035 334.727 476.381 334.969C476.727 335.21 477.167 335.331 477.702 335.331ZM493.515 337L489.41 322.455H492.244L494.865 333.143H495L497.798 322.455H500.376L503.181 333.151H503.309L505.93 322.455H508.764L504.659 337H502.059L499.147 326.794H499.034L496.115 337H493.515ZM512.503 337.22C511.812 337.22 511.189 337.097 510.635 336.851C510.086 336.6 509.65 336.231 509.328 335.743C509.011 335.255 508.853 334.654 508.853 333.939C508.853 333.323 508.966 332.814 509.194 332.412C509.421 332.009 509.731 331.688 510.124 331.446C510.517 331.205 510.96 331.022 511.452 330.899C511.949 330.771 512.463 330.679 512.993 330.622C513.632 330.556 514.151 330.497 514.549 330.445C514.946 330.388 515.235 330.303 515.415 330.189C515.6 330.071 515.692 329.888 515.692 329.642V329.599C515.692 329.064 515.533 328.65 515.216 328.357C514.899 328.063 514.442 327.916 513.846 327.916C513.216 327.916 512.716 328.054 512.347 328.328C511.982 328.603 511.736 328.927 511.608 329.301L509.208 328.96C509.397 328.297 509.71 327.743 510.145 327.298C510.581 326.848 511.114 326.512 511.743 326.29C512.373 326.062 513.069 325.949 513.831 325.949C514.357 325.949 514.88 326.01 515.401 326.134C515.922 326.257 516.398 326.46 516.828 326.744C517.259 327.024 517.605 327.405 517.865 327.888C518.131 328.371 518.263 328.974 518.263 329.699V337H515.792V335.501H515.706C515.55 335.804 515.33 336.089 515.046 336.354C514.766 336.614 514.414 336.825 513.988 336.986C513.566 337.142 513.071 337.22 512.503 337.22ZM513.171 335.331C513.687 335.331 514.134 335.229 514.513 335.026C514.892 334.817 515.183 334.543 515.387 334.202C515.595 333.861 515.699 333.489 515.699 333.087V331.801C515.619 331.867 515.481 331.929 515.287 331.986C515.098 332.043 514.885 332.092 514.648 332.135C514.411 332.178 514.177 332.215 513.945 332.249C513.713 332.282 513.512 332.31 513.341 332.334C512.958 332.386 512.614 332.471 512.311 332.589C512.008 332.708 511.769 332.874 511.594 333.087C511.419 333.295 511.331 333.565 511.331 333.896C511.331 334.37 511.504 334.727 511.85 334.969C512.195 335.21 512.636 335.331 513.171 335.331ZM520.848 337V326.091H523.341V327.909H523.455C523.654 327.279 523.995 326.794 524.478 326.453C524.965 326.107 525.522 325.935 526.147 325.935C526.289 325.935 526.447 325.942 526.623 325.956C526.802 325.965 526.952 325.982 527.07 326.006V328.371C526.961 328.333 526.788 328.3 526.551 328.271C526.319 328.238 526.095 328.222 525.877 328.222C525.408 328.222 524.987 328.323 524.613 328.527C524.243 328.726 523.952 329.003 523.739 329.358C523.526 329.713 523.419 330.123 523.419 330.587V337H520.848ZM533.158 337.213C532.065 337.213 531.12 336.986 530.325 336.531C529.534 336.072 528.925 335.423 528.499 334.585C528.073 333.742 527.86 332.75 527.86 331.609C527.86 330.487 528.073 329.502 528.499 328.655C528.93 327.803 529.531 327.14 530.303 326.666C531.075 326.188 531.982 325.949 533.023 325.949C533.696 325.949 534.33 326.058 534.927 326.276C535.528 326.489 536.058 326.82 536.518 327.27C536.982 327.72 537.346 328.293 537.612 328.989C537.877 329.68 538.009 330.504 538.009 331.46V332.249H529.067V330.516H535.545C535.54 330.023 535.433 329.585 535.225 329.202C535.017 328.813 534.726 328.508 534.352 328.286C533.982 328.063 533.551 327.952 533.059 327.952C532.533 327.952 532.072 328.08 531.674 328.335C531.276 328.586 530.966 328.918 530.744 329.33C530.526 329.737 530.415 330.184 530.41 330.672V332.185C530.41 332.819 530.526 333.364 530.758 333.818C530.99 334.268 531.314 334.614 531.731 334.855C532.147 335.092 532.635 335.21 533.194 335.21C533.568 335.21 533.906 335.158 534.21 335.054C534.513 334.945 534.775 334.786 534.998 334.578C535.22 334.37 535.388 334.112 535.502 333.804L537.903 334.074C537.751 334.708 537.462 335.262 537.036 335.736C536.615 336.205 536.075 336.569 535.417 336.83C534.759 337.085 534.006 337.213 533.158 337.213ZM542.755 330.608V337H540.184V322.455H542.699V327.945H542.826C543.082 327.329 543.477 326.844 544.012 326.489C544.552 326.129 545.239 325.949 546.072 325.949C546.83 325.949 547.49 326.107 548.054 326.425C548.617 326.742 549.053 327.206 549.36 327.817C549.673 328.428 549.829 329.173 549.829 330.054V337H547.258V330.452C547.258 329.718 547.069 329.147 546.69 328.74C546.316 328.328 545.79 328.122 545.113 328.122C544.659 328.122 544.252 328.222 543.892 328.42C543.537 328.615 543.257 328.896 543.054 329.266C542.855 329.635 542.755 330.082 542.755 330.608ZM557.208 337.213C556.143 337.213 555.22 336.979 554.439 336.51C553.657 336.041 553.051 335.385 552.62 334.543C552.194 333.7 551.981 332.715 551.981 331.588C551.981 330.461 552.194 329.474 552.62 328.626C553.051 327.779 553.657 327.121 554.439 326.652C555.22 326.183 556.143 325.949 557.208 325.949C558.274 325.949 559.197 326.183 559.978 326.652C560.76 327.121 561.363 327.779 561.789 328.626C562.22 329.474 562.436 330.461 562.436 331.588C562.436 332.715 562.22 333.7 561.789 334.543C561.363 335.385 560.76 336.041 559.978 336.51C559.197 336.979 558.274 337.213 557.208 337.213ZM557.223 335.153C557.8 335.153 558.283 334.995 558.672 334.678C559.06 334.356 559.349 333.925 559.538 333.385C559.732 332.845 559.829 332.244 559.829 331.581C559.829 330.913 559.732 330.31 559.538 329.77C559.349 329.225 559.06 328.792 558.672 328.47C558.283 328.148 557.8 327.987 557.223 327.987C556.631 327.987 556.138 328.148 555.745 328.47C555.357 328.792 555.066 329.225 554.872 329.77C554.682 330.31 554.588 330.913 554.588 331.581C554.588 332.244 554.682 332.845 554.872 333.385C555.066 333.925 555.357 334.356 555.745 334.678C556.138 334.995 556.631 335.153 557.223 335.153ZM571.571 332.412V326.091H574.142V337H571.649V335.061H571.536C571.289 335.672 570.884 336.171 570.321 336.56C569.762 336.948 569.073 337.142 568.254 337.142C567.539 337.142 566.907 336.983 566.358 336.666C565.813 336.344 565.387 335.878 565.08 335.267C564.772 334.652 564.618 333.908 564.618 333.037V326.091H567.189V332.639C567.189 333.33 567.378 333.88 567.757 334.287C568.136 334.694 568.633 334.898 569.249 334.898C569.627 334.898 569.994 334.805 570.349 334.621C570.705 334.436 570.996 334.161 571.223 333.797C571.455 333.428 571.571 332.966 571.571 332.412ZM585.408 328.974L583.064 329.23C582.998 328.993 582.882 328.771 582.716 328.562C582.555 328.354 582.337 328.186 582.063 328.058C581.788 327.93 581.452 327.866 581.054 327.866C580.519 327.866 580.069 327.982 579.705 328.214C579.345 328.446 579.167 328.747 579.172 329.116C579.167 329.434 579.283 329.692 579.52 329.891C579.762 330.089 580.159 330.253 580.713 330.381L582.574 330.778C583.606 331.001 584.373 331.354 584.875 331.837C585.382 332.32 585.638 332.952 585.642 333.733C585.638 334.42 585.436 335.026 585.039 335.551C584.646 336.072 584.099 336.479 583.398 336.773C582.697 337.066 581.892 337.213 580.983 337.213C579.648 337.213 578.573 336.934 577.759 336.375C576.944 335.812 576.459 335.028 576.303 334.024L578.81 333.783C578.924 334.275 579.165 334.647 579.534 334.898C579.904 335.149 580.384 335.274 580.976 335.274C581.587 335.274 582.077 335.149 582.446 334.898C582.82 334.647 583.007 334.337 583.007 333.967C583.007 333.655 582.887 333.397 582.645 333.193C582.408 332.99 582.039 332.833 581.537 332.724L579.676 332.334C578.63 332.116 577.856 331.749 577.354 331.233C576.852 330.712 576.604 330.054 576.608 329.259C576.604 328.586 576.786 328.004 577.155 327.511C577.529 327.014 578.048 326.631 578.711 326.361C579.378 326.086 580.148 325.949 581.019 325.949C582.297 325.949 583.303 326.221 584.037 326.766C584.776 327.31 585.233 328.046 585.408 328.974ZM592.592 337.213C591.498 337.213 590.554 336.986 589.758 336.531C588.967 336.072 588.359 335.423 587.933 334.585C587.507 333.742 587.294 332.75 587.294 331.609C587.294 330.487 587.507 329.502 587.933 328.655C588.364 327.803 588.965 327.14 589.737 326.666C590.509 326.188 591.415 325.949 592.457 325.949C593.129 325.949 593.764 326.058 594.36 326.276C594.962 326.489 595.492 326.82 595.951 327.27C596.415 327.72 596.78 328.293 597.045 328.989C597.31 329.68 597.443 330.504 597.443 331.46V332.249H588.501V330.516H594.978C594.974 330.023 594.867 329.585 594.659 329.202C594.45 328.813 594.159 328.508 593.785 328.286C593.416 328.063 592.985 327.952 592.493 327.952C591.967 327.952 591.505 328.08 591.108 328.335C590.71 328.586 590.4 328.918 590.177 329.33C589.959 329.737 589.848 330.184 589.843 330.672V332.185C589.843 332.819 589.959 333.364 590.191 333.818C590.423 334.268 590.748 334.614 591.164 334.855C591.581 335.092 592.069 335.21 592.627 335.21C593.002 335.21 593.34 335.158 593.643 335.054C593.946 334.945 594.209 334.786 594.431 334.578C594.654 334.37 594.822 334.112 594.936 333.804L597.336 334.074C597.185 334.708 596.896 335.262 596.47 335.736C596.048 336.205 595.509 336.569 594.85 336.83C594.192 337.085 593.44 337.213 592.592 337.213Z" fill="#CDDAED"/>
<path d="M445.364 373H440.435V358.455H445.463C446.907 358.455 448.148 358.746 449.185 359.328C450.226 359.906 451.027 360.737 451.585 361.821C452.144 362.905 452.423 364.203 452.423 365.713C452.423 367.228 452.142 368.53 451.578 369.619C451.019 370.708 450.212 371.544 449.156 372.126C448.105 372.709 446.841 373 445.364 373ZM443.07 370.72H445.236C446.249 370.72 447.094 370.536 447.771 370.166C448.448 369.792 448.957 369.236 449.298 368.497C449.639 367.754 449.81 366.826 449.81 365.713C449.81 364.6 449.639 363.677 449.298 362.943C448.957 362.205 448.453 361.653 447.786 361.288C447.123 360.919 446.299 360.734 445.314 360.734H443.07V370.72ZM457.952 373.22C457.261 373.22 456.638 373.097 456.085 372.851C455.535 372.6 455.1 372.231 454.778 371.743C454.46 371.255 454.302 370.654 454.302 369.939C454.302 369.323 454.415 368.814 454.643 368.412C454.87 368.009 455.18 367.688 455.573 367.446C455.966 367.205 456.409 367.022 456.901 366.899C457.398 366.771 457.912 366.679 458.442 366.622C459.082 366.556 459.6 366.497 459.998 366.445C460.396 366.388 460.684 366.303 460.864 366.189C461.049 366.071 461.141 365.888 461.141 365.642V365.599C461.141 365.064 460.983 364.65 460.665 364.357C460.348 364.063 459.891 363.916 459.295 363.916C458.665 363.916 458.165 364.054 457.796 364.328C457.432 364.603 457.185 364.927 457.058 365.301L454.657 364.96C454.846 364.297 455.159 363.743 455.594 363.298C456.03 362.848 456.563 362.512 457.192 362.29C457.822 362.062 458.518 361.949 459.281 361.949C459.806 361.949 460.329 362.01 460.85 362.134C461.371 362.257 461.847 362.46 462.278 362.744C462.709 363.024 463.054 363.405 463.315 363.888C463.58 364.371 463.712 364.974 463.712 365.699V373H461.241V371.501H461.156C460.999 371.804 460.779 372.089 460.495 372.354C460.216 372.614 459.863 372.825 459.437 372.986C459.015 373.142 458.521 373.22 457.952 373.22ZM458.62 371.331C459.136 371.331 459.584 371.229 459.962 371.026C460.341 370.817 460.632 370.543 460.836 370.202C461.044 369.861 461.148 369.489 461.148 369.087V367.801C461.068 367.867 460.931 367.929 460.737 367.986C460.547 368.043 460.334 368.092 460.097 368.135C459.861 368.178 459.626 368.215 459.394 368.249C459.162 368.282 458.961 368.31 458.79 368.334C458.407 368.386 458.064 368.471 457.761 368.589C457.458 368.708 457.219 368.874 457.043 369.087C456.868 369.295 456.781 369.565 456.781 369.896C456.781 370.37 456.953 370.727 457.299 370.969C457.645 371.21 458.085 371.331 458.62 371.331ZM471.745 362.091V364.08H465.474V362.091H471.745ZM467.022 359.477H469.593V369.719C469.593 370.064 469.645 370.33 469.749 370.514C469.858 370.694 470 370.817 470.175 370.884C470.351 370.95 470.545 370.983 470.758 370.983C470.919 370.983 471.066 370.971 471.198 370.947C471.335 370.924 471.44 370.902 471.511 370.884L471.944 372.893C471.807 372.941 471.61 372.993 471.354 373.05C471.103 373.107 470.796 373.14 470.431 373.149C469.787 373.168 469.207 373.071 468.691 372.858C468.175 372.64 467.765 372.304 467.462 371.849C467.164 371.395 467.017 370.827 467.022 370.145V359.477ZM477.034 373.22C476.343 373.22 475.721 373.097 475.167 372.851C474.617 372.6 474.182 372.231 473.86 371.743C473.542 371.255 473.384 370.654 473.384 369.939C473.384 369.323 473.498 368.814 473.725 368.412C473.952 368.009 474.262 367.688 474.655 367.446C475.048 367.205 475.491 367.022 475.983 366.899C476.48 366.771 476.994 366.679 477.525 366.622C478.164 366.556 478.682 366.497 479.08 366.445C479.478 366.388 479.766 366.303 479.946 366.189C480.131 366.071 480.223 365.888 480.223 365.642V365.599C480.223 365.064 480.065 364.65 479.748 364.357C479.43 364.063 478.973 363.916 478.377 363.916C477.747 363.916 477.248 364.054 476.878 364.328C476.514 364.603 476.267 364.927 476.14 365.301L473.739 364.96C473.928 364.297 474.241 363.743 474.676 363.298C475.112 362.848 475.645 362.512 476.275 362.29C476.904 362.062 477.6 361.949 478.363 361.949C478.888 361.949 479.411 362.01 479.932 362.134C480.453 362.257 480.929 362.46 481.36 362.744C481.791 363.024 482.136 363.405 482.397 363.888C482.662 364.371 482.794 364.974 482.794 365.699V373H480.323V371.501H480.238C480.081 371.804 479.861 372.089 479.577 372.354C479.298 372.614 478.945 372.825 478.519 372.986C478.097 373.142 477.603 373.22 477.034 373.22ZM477.702 371.331C478.218 371.331 478.666 371.229 479.044 371.026C479.423 370.817 479.714 370.543 479.918 370.202C480.126 369.861 480.23 369.489 480.23 369.087V367.801C480.15 367.867 480.013 367.929 479.819 367.986C479.629 368.043 479.416 368.092 479.179 368.135C478.943 368.178 478.708 368.215 478.476 368.249C478.244 368.282 478.043 368.31 477.873 368.334C477.489 368.386 477.146 368.471 476.843 368.589C476.54 368.708 476.301 368.874 476.125 369.087C475.95 369.295 475.863 369.565 475.863 369.896C475.863 370.37 476.035 370.727 476.381 370.969C476.727 371.21 477.167 371.331 477.702 371.331ZM490.454 373V358.455H493.089V370.791H499.495V373H490.454ZM504.808 373.22C504.117 373.22 503.494 373.097 502.94 372.851C502.391 372.6 501.955 372.231 501.633 371.743C501.316 371.255 501.157 370.654 501.157 369.939C501.157 369.323 501.271 368.814 501.498 368.412C501.725 368.009 502.036 367.688 502.429 367.446C502.822 367.205 503.264 367.022 503.757 366.899C504.254 366.771 504.768 366.679 505.298 366.622C505.937 366.556 506.456 366.497 506.853 366.445C507.251 366.388 507.54 366.303 507.72 366.189C507.904 366.071 507.997 365.888 507.997 365.642V365.599C507.997 365.064 507.838 364.65 507.521 364.357C507.204 364.063 506.747 363.916 506.15 363.916C505.52 363.916 505.021 364.054 504.652 364.328C504.287 364.603 504.041 364.927 503.913 365.301L501.512 364.96C501.702 364.297 502.014 363.743 502.45 363.298C502.886 362.848 503.418 362.512 504.048 362.29C504.678 362.062 505.374 361.949 506.136 361.949C506.662 361.949 507.185 362.01 507.706 362.134C508.226 362.257 508.702 362.46 509.133 362.744C509.564 363.024 509.91 363.405 510.17 363.888C510.435 364.371 510.568 364.974 510.568 365.699V373H508.096V371.501H508.011C507.855 371.804 507.635 372.089 507.35 372.354C507.071 372.614 506.718 372.825 506.292 372.986C505.871 373.142 505.376 373.22 504.808 373.22ZM505.475 371.331C505.992 371.331 506.439 371.229 506.818 371.026C507.197 370.817 507.488 370.543 507.691 370.202C507.9 369.861 508.004 369.489 508.004 369.087V367.801C507.923 367.867 507.786 367.929 507.592 367.986C507.403 368.043 507.19 368.092 506.953 368.135C506.716 368.178 506.482 368.215 506.25 368.249C506.018 368.282 505.816 368.31 505.646 368.334C505.262 368.386 504.919 368.471 504.616 368.589C504.313 368.708 504.074 368.874 503.899 369.087C503.724 369.295 503.636 369.565 503.636 369.896C503.636 370.37 503.809 370.727 504.154 370.969C504.5 371.21 504.94 371.331 505.475 371.331ZM515.497 369.577L515.49 366.473H515.902L519.822 362.091H522.826L518.004 367.46H517.471L515.497 369.577ZM513.153 373V358.455H515.724V373H513.153ZM520 373L516.449 368.036L518.181 366.224L523.075 373H520ZM528.92 373.213C527.826 373.213 526.882 372.986 526.086 372.531C525.296 372.072 524.687 371.423 524.261 370.585C523.835 369.742 523.622 368.75 523.622 367.609C523.622 366.487 523.835 365.502 524.261 364.655C524.692 363.803 525.293 363.14 526.065 362.666C526.837 362.188 527.743 361.949 528.785 361.949C529.458 361.949 530.092 362.058 530.689 362.276C531.29 362.489 531.82 362.82 532.279 363.27C532.743 363.72 533.108 364.293 533.373 364.989C533.638 365.68 533.771 366.504 533.771 367.46V368.249H524.829V366.516H531.306C531.302 366.023 531.195 365.585 530.987 365.202C530.779 364.813 530.487 364.508 530.113 364.286C529.744 364.063 529.313 363.952 528.821 363.952C528.295 363.952 527.833 364.08 527.436 364.335C527.038 364.586 526.728 364.918 526.505 365.33C526.288 365.737 526.176 366.184 526.172 366.672V368.185C526.172 368.819 526.288 369.364 526.52 369.818C526.752 370.268 527.076 370.614 527.493 370.855C527.909 371.092 528.397 371.21 528.956 371.21C529.33 371.21 529.668 371.158 529.971 371.054C530.274 370.945 530.537 370.786 530.76 370.578C530.982 370.37 531.15 370.112 531.264 369.804L533.664 370.074C533.513 370.708 533.224 371.262 532.798 371.736C532.377 372.205 531.837 372.569 531.179 372.83C530.52 373.085 529.768 373.213 528.92 373.213ZM538.517 366.608V373H535.946V358.455H538.46V363.945H538.588C538.844 363.329 539.239 362.844 539.774 362.489C540.314 362.129 541 361.949 541.834 361.949C542.591 361.949 543.252 362.107 543.815 362.425C544.379 362.742 544.814 363.206 545.122 363.817C545.435 364.428 545.591 365.173 545.591 366.054V373H543.02V366.452C543.02 365.718 542.83 365.147 542.452 364.74C542.078 364.328 541.552 364.122 540.875 364.122C540.42 364.122 540.013 364.222 539.653 364.42C539.298 364.615 539.019 364.896 538.815 365.266C538.616 365.635 538.517 366.082 538.517 366.608ZM552.97 373.213C551.905 373.213 550.982 372.979 550.2 372.51C549.419 372.041 548.813 371.385 548.382 370.543C547.956 369.7 547.743 368.715 547.743 367.588C547.743 366.461 547.956 365.474 548.382 364.626C548.813 363.779 549.419 363.121 550.2 362.652C550.982 362.183 551.905 361.949 552.97 361.949C554.036 361.949 554.959 362.183 555.74 362.652C556.521 363.121 557.125 363.779 557.551 364.626C557.982 365.474 558.197 366.461 558.197 367.588C558.197 368.715 557.982 369.7 557.551 370.543C557.125 371.385 556.521 372.041 555.74 372.51C554.959 372.979 554.036 373.213 552.97 373.213ZM552.984 371.153C553.562 371.153 554.045 370.995 554.433 370.678C554.821 370.356 555.11 369.925 555.3 369.385C555.494 368.845 555.591 368.244 555.591 367.581C555.591 366.913 555.494 366.31 555.3 365.77C555.11 365.225 554.821 364.792 554.433 364.47C554.045 364.148 553.562 363.987 552.984 363.987C552.393 363.987 551.9 364.148 551.507 364.47C551.119 364.792 550.828 365.225 550.634 365.77C550.444 366.31 550.349 366.913 550.349 367.581C550.349 368.244 550.444 368.845 550.634 369.385C550.828 369.925 551.119 370.356 551.507 370.678C551.9 370.995 552.393 371.153 552.984 371.153ZM567.333 368.412V362.091H569.904V373H567.411V371.061H567.297C567.051 371.672 566.646 372.171 566.083 372.56C565.524 372.948 564.835 373.142 564.016 373.142C563.301 373.142 562.669 372.983 562.12 372.666C561.575 372.344 561.149 371.878 560.841 371.267C560.533 370.652 560.38 369.908 560.38 369.037V362.091H562.951V368.639C562.951 369.33 563.14 369.88 563.519 370.287C563.898 370.694 564.395 370.898 565.01 370.898C565.389 370.898 565.756 370.805 566.111 370.621C566.466 370.436 566.757 370.161 566.985 369.797C567.217 369.428 567.333 368.966 567.333 368.412ZM581.17 364.974L578.826 365.23C578.76 364.993 578.644 364.771 578.478 364.562C578.317 364.354 578.099 364.186 577.825 364.058C577.55 363.93 577.214 363.866 576.816 363.866C576.281 363.866 575.831 363.982 575.467 364.214C575.107 364.446 574.929 364.747 574.934 365.116C574.929 365.434 575.045 365.692 575.282 365.891C575.523 366.089 575.921 366.253 576.475 366.381L578.336 366.778C579.368 367.001 580.135 367.354 580.637 367.837C581.144 368.32 581.399 368.952 581.404 369.733C581.399 370.42 581.198 371.026 580.8 371.551C580.407 372.072 579.861 372.479 579.16 372.773C578.459 373.066 577.654 373.213 576.745 373.213C575.41 373.213 574.335 372.934 573.521 372.375C572.706 371.812 572.221 371.028 572.065 370.024L574.572 369.783C574.685 370.275 574.927 370.647 575.296 370.898C575.665 371.149 576.146 371.274 576.738 371.274C577.349 371.274 577.839 371.149 578.208 370.898C578.582 370.647 578.769 370.337 578.769 369.967C578.769 369.655 578.648 369.397 578.407 369.193C578.17 368.99 577.801 368.833 577.299 368.724L575.438 368.334C574.392 368.116 573.618 367.749 573.116 367.233C572.614 366.712 572.365 366.054 572.37 365.259C572.365 364.586 572.548 364.004 572.917 363.511C573.291 363.014 573.809 362.631 574.472 362.361C575.14 362.086 575.909 361.949 576.781 361.949C578.059 361.949 579.065 362.221 579.799 362.766C580.538 363.31 580.995 364.046 581.17 364.974ZM588.354 373.213C587.26 373.213 586.315 372.986 585.52 372.531C584.729 372.072 584.121 371.423 583.695 370.585C583.268 369.742 583.055 368.75 583.055 367.609C583.055 366.487 583.268 365.502 583.695 364.655C584.125 363.803 584.727 363.14 585.499 362.666C586.27 362.188 587.177 361.949 588.219 361.949C588.891 361.949 589.526 362.058 590.122 362.276C590.723 362.489 591.254 362.82 591.713 363.27C592.177 363.72 592.542 364.293 592.807 364.989C593.072 365.68 593.205 366.504 593.205 367.46V368.249H584.263V366.516H590.74C590.735 366.023 590.629 365.585 590.42 365.202C590.212 364.813 589.921 364.508 589.547 364.286C589.178 364.063 588.747 363.952 588.254 363.952C587.729 363.952 587.267 364.08 586.869 364.335C586.472 364.586 586.161 364.918 585.939 365.33C585.721 365.737 585.61 366.184 585.605 366.672V368.185C585.605 368.819 585.721 369.364 585.953 369.818C586.185 370.268 586.509 370.614 586.926 370.855C587.343 371.092 587.83 371.21 588.389 371.21C588.763 371.21 589.102 371.158 589.405 371.054C589.708 370.945 589.971 370.786 590.193 370.578C590.416 370.37 590.584 370.112 590.697 369.804L593.098 370.074C592.946 370.708 592.658 371.262 592.232 371.736C591.81 372.205 591.27 372.569 590.612 372.83C589.954 373.085 589.201 373.213 588.354 373.213Z" fill="#CDDAED"/>
<g opacity="0.51">
<g clip-path="url(#clip1_203_3034)">
<mask id="mask1_203_3034" style="mask-type:alpha" maskUnits="userSpaceOnUse" x="65" y="137" width="349" height="349">
<path d="M414 311.5C414 407.874 335.874 486 239.5 486C143.126 486 65 407.874 65 311.5C65 215.126 143.126 137 239.5 137C335.874 137 414 215.126 414 311.5Z" fill="#D9D9D9"/>
</mask>
<g mask="url(#mask1_203_3034)">
<path style="mix-blend-mode:screen" d="M68.7243 354.069C46.3896 259.371 104.997 164.484 199.627 142.134C294.257 119.783 389.076 178.432 411.41 273.13C433.745 367.828 375.138 462.715 280.508 485.066C185.878 507.416 91.0591 448.767 68.7243 354.069Z" fill="url(#paint8_radial_203_3034)"/>
<path style="mix-blend-mode:screen" d="M238.909 481.982C284.392 481.988 328.097 462.638 360.53 430.728C392.963 398.817 411.567 355.431 412.332 309.922C412.332 310.908 412.332 311.894 412.332 312.88C412.332 358.907 394.061 403.05 361.538 435.596C329.014 468.143 284.904 486.427 238.909 486.427C192.914 486.427 148.803 468.143 116.28 435.596C83.757 403.05 65.4857 358.907 65.4857 312.88C65.4857 311.894 65.4857 310.908 65.4857 309.922C66.2401 355.449 84.8521 398.853 117.305 430.768C149.758 462.683 193.408 482.02 238.909 481.982Z" fill="url(#paint9_linear_203_3034)"/>
<path style="mix-blend-mode:screen" d="M239.956 146.703C193.814 146.717 149.46 165.788 116.55 198.153C83.6404 230.518 64.7431 274.519 63.9253 320.686C63.9253 319.659 63.9253 318.632 63.9253 317.605C64.6312 271.351 83.4876 227.231 116.423 194.771C149.358 162.312 193.73 144.118 239.956 144.118C286.181 144.118 330.553 162.312 363.488 194.771C396.423 227.231 415.28 271.351 415.986 317.605C415.986 318.632 415.986 319.659 415.986 320.686C415.189 274.49 396.281 230.459 363.34 198.086C330.399 165.713 286.125 146.664 239.956 146.703Z" fill="url(#paint10_linear_203_3034)"/>
<path style="mix-blend-mode:screen" d="M355.92 218.834C331.286 158.15 251.144 133.457 176.831 163.655C102.519 193.853 62.201 267.48 86.7939 327.999C111.387 388.519 191.612 413.376 265.924 383.178C340.237 352.98 380.513 279.477 355.92 218.834Z" fill="url(#paint11_linear_203_3034)"/>
<path style="mix-blend-mode:color-dodge" d="M175.263 487.783C204.002 472.704 202.606 413.211 172.101 354.951C141.596 296.691 93.56 261.645 64.7793 276.888C35.9986 292.131 37.4356 351.418 67.9407 409.719C98.4457 468.02 146.482 502.861 175.263 487.783Z" fill="url(#paint12_radial_203_3034)"/>
<path style="mix-blend-mode:color-dodge" d="M80.5533 442.137C73.2453 489.139 137.253 538.114 223.471 551.59C309.69 565.066 385.563 537.867 392.871 490.906C400.179 443.944 336.213 394.97 249.953 381.535C163.693 368.099 87.9846 395.175 80.5533 442.137Z" fill="url(#paint13_radial_203_3034)"/>
<path style="mix-blend-mode:color-dodge" d="M64.0897 449.696C111.017 457.01 159.957 392.998 173.423 306.717C186.89 220.436 159.752 144.509 112.619 137.196C65.4856 129.882 16.7103 193.895 3.24373 280.175C-10.2228 366.456 17.1619 442.383 64.0897 449.696Z" fill="url(#paint14_radial_203_3034)"/>
<path style="mix-blend-mode:color-dodge" d="M367.621 161.965C371.275 129.63 321.022 97.5828 255.66 90.5982C190.297 83.6135 134.46 103.91 130.93 136.204C127.399 168.497 177.57 200.298 242.932 207.57C308.294 214.842 364.131 194.258 367.621 161.965Z" fill="url(#paint15_radial_203_3034)"/>
</g>
</g>
</g>
<path d="M143.435 342V327.455H148.889C150.007 327.455 150.944 327.649 151.702 328.037C152.464 328.425 153.039 328.97 153.428 329.67C153.821 330.366 154.017 331.179 154.017 332.107C154.017 333.039 153.818 333.849 153.42 334.536C153.027 335.217 152.447 335.745 151.68 336.119C150.913 336.489 149.971 336.673 148.854 336.673H144.969V334.486H148.499C149.152 334.486 149.687 334.396 150.104 334.216C150.52 334.031 150.828 333.764 151.027 333.413C151.231 333.058 151.332 332.623 151.332 332.107C151.332 331.59 151.231 331.15 151.027 330.786C150.823 330.416 150.513 330.137 150.097 329.947C149.68 329.753 149.143 329.656 148.484 329.656H146.07V342H143.435ZM150.949 335.409L154.55 342H151.609L148.072 335.409H150.949ZM161.002 342.213C159.908 342.213 158.964 341.986 158.168 341.531C157.378 341.072 156.769 340.423 156.343 339.585C155.917 338.742 155.704 337.75 155.704 336.609C155.704 335.487 155.917 334.502 156.343 333.655C156.774 332.803 157.375 332.14 158.147 331.666C158.919 331.188 159.826 330.949 160.867 330.949C161.54 330.949 162.174 331.058 162.771 331.276C163.372 331.489 163.902 331.82 164.362 332.27C164.826 332.72 165.19 333.293 165.455 333.989C165.72 334.68 165.853 335.504 165.853 336.46V337.249H156.911V335.516H163.388C163.384 335.023 163.277 334.585 163.069 334.202C162.861 333.813 162.569 333.508 162.195 333.286C161.826 333.063 161.395 332.952 160.903 332.952C160.377 332.952 159.915 333.08 159.518 333.335C159.12 333.586 158.81 333.918 158.587 334.33C158.37 334.737 158.258 335.184 158.254 335.672V337.185C158.254 337.819 158.37 338.364 158.602 338.818C158.834 339.268 159.158 339.614 159.575 339.855C159.991 340.092 160.479 340.21 161.038 340.21C161.412 340.21 161.75 340.158 162.053 340.054C162.356 339.945 162.619 339.786 162.842 339.578C163.064 339.37 163.232 339.112 163.346 338.804L165.746 339.074C165.595 339.708 165.306 340.262 164.88 340.736C164.459 341.205 163.919 341.569 163.261 341.83C162.603 342.085 161.85 342.213 161.002 342.213ZM171.167 342.22C170.476 342.22 169.853 342.097 169.299 341.851C168.75 341.6 168.315 341.231 167.993 340.743C167.675 340.255 167.517 339.654 167.517 338.939C167.517 338.323 167.63 337.814 167.858 337.412C168.085 337.009 168.395 336.688 168.788 336.446C169.181 336.205 169.624 336.022 170.116 335.899C170.613 335.771 171.127 335.679 171.657 335.622C172.297 335.556 172.815 335.497 173.213 335.445C173.61 335.388 173.899 335.303 174.079 335.189C174.264 335.071 174.356 334.888 174.356 334.642V334.599C174.356 334.064 174.198 333.65 173.88 333.357C173.563 333.063 173.106 332.916 172.51 332.916C171.88 332.916 171.38 333.054 171.011 333.328C170.646 333.603 170.4 333.927 170.272 334.301L167.872 333.96C168.061 333.297 168.374 332.743 168.809 332.298C169.245 331.848 169.778 331.512 170.407 331.29C171.037 331.062 171.733 330.949 172.495 330.949C173.021 330.949 173.544 331.01 174.065 331.134C174.586 331.257 175.062 331.46 175.493 331.744C175.923 332.024 176.269 332.405 176.529 332.888C176.795 333.371 176.927 333.974 176.927 334.699V342H174.456V340.501H174.37C174.214 340.804 173.994 341.089 173.71 341.354C173.431 341.614 173.078 341.825 172.652 341.986C172.23 342.142 171.735 342.22 171.167 342.22ZM171.835 340.331C172.351 340.331 172.798 340.229 173.177 340.026C173.556 339.817 173.847 339.543 174.051 339.202C174.259 338.861 174.363 338.489 174.363 338.087V336.801C174.283 336.867 174.145 336.929 173.951 336.986C173.762 337.043 173.549 337.092 173.312 337.135C173.075 337.178 172.841 337.215 172.609 337.249C172.377 337.282 172.176 337.31 172.005 337.334C171.622 337.386 171.279 337.471 170.975 337.589C170.672 337.708 170.433 337.874 170.258 338.087C170.083 338.295 169.995 338.565 169.995 338.896C169.995 339.37 170.168 339.727 170.514 339.969C170.859 340.21 171.3 340.331 171.835 340.331ZM182.083 327.455V342H179.512V327.455H182.083ZM190.175 331.091V333.08H183.903V331.091H190.175ZM185.452 328.477H188.023V338.719C188.023 339.064 188.075 339.33 188.179 339.514C188.288 339.694 188.43 339.817 188.605 339.884C188.78 339.95 188.974 339.983 189.188 339.983C189.348 339.983 189.495 339.971 189.628 339.947C189.765 339.924 189.869 339.902 189.94 339.884L190.374 341.893C190.236 341.941 190.04 341.993 189.784 342.05C189.533 342.107 189.225 342.14 188.861 342.149C188.217 342.168 187.637 342.071 187.121 341.858C186.605 341.64 186.195 341.304 185.892 340.849C185.594 340.395 185.447 339.827 185.452 339.145V328.477ZM192.325 342V331.091H194.896V342H192.325ZM193.618 329.543C193.21 329.543 192.86 329.408 192.566 329.138C192.273 328.863 192.126 328.534 192.126 328.151C192.126 327.762 192.273 327.433 192.566 327.163C192.86 326.889 193.21 326.751 193.618 326.751C194.029 326.751 194.38 326.889 194.669 327.163C194.962 327.433 195.109 327.762 195.109 328.151C195.109 328.534 194.962 328.863 194.669 329.138C194.38 329.408 194.029 329.543 193.618 329.543ZM197.54 342V331.091H199.997V332.945H200.125C200.352 332.32 200.729 331.832 201.254 331.482C201.78 331.126 202.407 330.949 203.136 330.949C203.875 330.949 204.498 331.129 205.004 331.489C205.516 331.844 205.875 332.329 206.084 332.945H206.197C206.439 332.339 206.846 331.856 207.419 331.496C207.997 331.131 208.681 330.949 209.472 330.949C210.475 330.949 211.295 331.266 211.929 331.901C212.563 332.535 212.881 333.461 212.881 334.678V342H210.303V335.075C210.303 334.398 210.123 333.903 209.763 333.591C209.403 333.274 208.963 333.115 208.442 333.115C207.821 333.115 207.336 333.309 206.986 333.697C206.64 334.081 206.467 334.58 206.467 335.196V342H203.946V334.969C203.946 334.405 203.776 333.955 203.435 333.619C203.098 333.283 202.658 333.115 202.114 333.115C201.744 333.115 201.408 333.21 201.105 333.399C200.802 333.584 200.561 333.847 200.381 334.188C200.201 334.524 200.111 334.917 200.111 335.366V342H197.54ZM220.319 342.213C219.225 342.213 218.28 341.986 217.485 341.531C216.694 341.072 216.086 340.423 215.659 339.585C215.233 338.742 215.02 337.75 215.02 336.609C215.02 335.487 215.233 334.502 215.659 333.655C216.09 332.803 216.692 332.14 217.463 331.666C218.235 331.188 219.142 330.949 220.184 330.949C220.856 330.949 221.49 331.058 222.087 331.276C222.688 331.489 223.219 331.82 223.678 332.27C224.142 332.72 224.507 333.293 224.772 333.989C225.037 334.68 225.169 335.504 225.169 336.46V337.249H216.228V335.516H222.705C222.7 335.023 222.594 334.585 222.385 334.202C222.177 333.813 221.886 333.508 221.512 333.286C221.142 333.063 220.712 332.952 220.219 332.952C219.694 332.952 219.232 333.08 218.834 333.335C218.436 333.586 218.126 333.918 217.904 334.33C217.686 334.737 217.575 335.184 217.57 335.672V337.185C217.57 337.819 217.686 338.364 217.918 338.818C218.15 339.268 218.474 339.614 218.891 339.855C219.308 340.092 219.795 340.21 220.354 340.21C220.728 340.21 221.067 340.158 221.37 340.054C221.673 339.945 221.935 339.786 222.158 339.578C222.381 339.37 222.549 339.112 222.662 338.804L225.063 339.074C224.911 339.708 224.623 340.262 224.196 340.736C223.775 341.205 223.235 341.569 222.577 341.83C221.919 342.085 221.166 342.213 220.319 342.213ZM148.364 370H143.435V355.455H148.463C149.907 355.455 151.148 355.746 152.185 356.328C153.226 356.906 154.027 357.737 154.585 358.821C155.144 359.905 155.423 361.203 155.423 362.713C155.423 364.228 155.142 365.53 154.578 366.619C154.019 367.708 153.212 368.544 152.156 369.126C151.105 369.709 149.841 370 148.364 370ZM146.07 367.72H148.236C149.249 367.72 150.094 367.536 150.771 367.166C151.448 366.792 151.957 366.236 152.298 365.497C152.639 364.754 152.81 363.826 152.81 362.713C152.81 361.6 152.639 360.677 152.298 359.943C151.957 359.205 151.453 358.653 150.786 358.288C150.123 357.919 149.299 357.734 148.314 357.734H146.07V367.72ZM160.952 370.22C160.261 370.22 159.638 370.097 159.085 369.851C158.535 369.6 158.1 369.231 157.778 368.743C157.46 368.255 157.302 367.654 157.302 366.939C157.302 366.323 157.415 365.814 157.643 365.412C157.87 365.009 158.18 364.688 158.573 364.446C158.966 364.205 159.409 364.022 159.901 363.899C160.398 363.771 160.912 363.679 161.442 363.622C162.082 363.556 162.6 363.497 162.998 363.445C163.396 363.388 163.684 363.303 163.864 363.189C164.049 363.071 164.141 362.888 164.141 362.642V362.599C164.141 362.064 163.983 361.65 163.665 361.357C163.348 361.063 162.891 360.916 162.295 360.916C161.665 360.916 161.165 361.054 160.796 361.328C160.432 361.603 160.185 361.927 160.058 362.301L157.657 361.96C157.846 361.297 158.159 360.743 158.594 360.298C159.03 359.848 159.563 359.512 160.192 359.29C160.822 359.062 161.518 358.949 162.281 358.949C162.806 358.949 163.329 359.01 163.85 359.134C164.371 359.257 164.847 359.46 165.278 359.744C165.709 360.024 166.054 360.405 166.315 360.888C166.58 361.371 166.712 361.974 166.712 362.699V370H164.241V368.501H164.156C163.999 368.804 163.779 369.089 163.495 369.354C163.216 369.614 162.863 369.825 162.437 369.986C162.015 370.142 161.521 370.22 160.952 370.22ZM161.62 368.331C162.136 368.331 162.584 368.229 162.962 368.026C163.341 367.817 163.632 367.543 163.836 367.202C164.044 366.861 164.148 366.489 164.148 366.087V364.801C164.068 364.867 163.931 364.929 163.737 364.986C163.547 365.043 163.334 365.092 163.097 365.135C162.861 365.178 162.626 365.215 162.394 365.249C162.162 365.282 161.961 365.31 161.79 365.334C161.407 365.386 161.064 365.471 160.761 365.589C160.458 365.708 160.219 365.874 160.043 366.087C159.868 366.295 159.781 366.565 159.781 366.896C159.781 367.37 159.953 367.727 160.299 367.969C160.645 368.21 161.085 368.331 161.62 368.331ZM174.745 359.091V361.08H168.474V359.091H174.745ZM170.022 356.477H172.593V366.719C172.593 367.064 172.645 367.33 172.749 367.514C172.858 367.694 173 367.817 173.175 367.884C173.351 367.95 173.545 367.983 173.758 367.983C173.919 367.983 174.066 367.971 174.198 367.947C174.335 367.924 174.44 367.902 174.511 367.884L174.944 369.893C174.807 369.941 174.61 369.993 174.354 370.05C174.103 370.107 173.796 370.14 173.431 370.149C172.787 370.168 172.207 370.071 171.691 369.858C171.175 369.64 170.765 369.304 170.462 368.849C170.164 368.395 170.017 367.827 170.022 367.145V356.477ZM180.034 370.22C179.343 370.22 178.721 370.097 178.167 369.851C177.617 369.6 177.182 369.231 176.86 368.743C176.542 368.255 176.384 367.654 176.384 366.939C176.384 366.323 176.498 365.814 176.725 365.412C176.952 365.009 177.262 364.688 177.655 364.446C178.048 364.205 178.491 364.022 178.983 363.899C179.48 363.771 179.994 363.679 180.525 363.622C181.164 363.556 181.682 363.497 182.08 363.445C182.478 363.388 182.766 363.303 182.946 363.189C183.131 363.071 183.223 362.888 183.223 362.642V362.599C183.223 362.064 183.065 361.65 182.748 361.357C182.43 361.063 181.973 360.916 181.377 360.916C180.747 360.916 180.248 361.054 179.878 361.328C179.514 361.603 179.267 361.927 179.14 362.301L176.739 361.96C176.928 361.297 177.241 360.743 177.676 360.298C178.112 359.848 178.645 359.512 179.275 359.29C179.904 359.062 180.6 358.949 181.363 358.949C181.888 358.949 182.411 359.01 182.932 359.134C183.453 359.257 183.929 359.46 184.36 359.744C184.791 360.024 185.136 360.405 185.397 360.888C185.662 361.371 185.794 361.974 185.794 362.699V370H183.323V368.501H183.238C183.081 368.804 182.861 369.089 182.577 369.354C182.298 369.614 181.945 369.825 181.519 369.986C181.097 370.142 180.603 370.22 180.034 370.22ZM180.702 368.331C181.218 368.331 181.666 368.229 182.044 368.026C182.423 367.817 182.714 367.543 182.918 367.202C183.126 366.861 183.23 366.489 183.23 366.087V364.801C183.15 364.867 183.013 364.929 182.819 364.986C182.629 365.043 182.416 365.092 182.179 365.135C181.943 365.178 181.708 365.215 181.476 365.249C181.244 365.282 181.043 365.31 180.873 365.334C180.489 365.386 180.146 365.471 179.843 365.589C179.54 365.708 179.301 365.874 179.125 366.087C178.95 366.295 178.863 366.565 178.863 366.896C178.863 367.37 179.035 367.727 179.381 367.969C179.727 368.21 180.167 368.331 180.702 368.331ZM188.493 370V355.455H191.064V360.895H191.171C191.303 360.63 191.49 360.348 191.732 360.05C191.973 359.747 192.3 359.489 192.712 359.276C193.124 359.058 193.65 358.949 194.289 358.949C195.132 358.949 195.891 359.164 196.569 359.595C197.25 360.021 197.79 360.653 198.188 361.491C198.59 362.325 198.792 363.348 198.792 364.56C198.792 365.758 198.595 366.776 198.202 367.614C197.809 368.452 197.274 369.091 196.597 369.531C195.92 369.972 195.153 370.192 194.296 370.192C193.671 370.192 193.152 370.088 192.74 369.879C192.328 369.671 191.997 369.42 191.746 369.126C191.5 368.828 191.308 368.546 191.171 368.281H191.022V370H188.493ZM191.015 364.545C191.015 365.251 191.114 365.869 191.313 366.399C191.516 366.929 191.808 367.344 192.186 367.642C192.57 367.936 193.034 368.082 193.578 368.082C194.147 368.082 194.623 367.931 195.006 367.628C195.39 367.32 195.678 366.901 195.873 366.371C196.071 365.836 196.171 365.227 196.171 364.545C196.171 363.868 196.074 363.267 195.88 362.741C195.685 362.216 195.397 361.804 195.013 361.506C194.63 361.207 194.151 361.058 193.578 361.058C193.029 361.058 192.563 361.203 192.179 361.491C191.796 361.78 191.505 362.185 191.306 362.706C191.112 363.227 191.015 363.84 191.015 364.545ZM204.116 370.22C203.425 370.22 202.803 370.097 202.249 369.851C201.699 369.6 201.264 369.231 200.942 368.743C200.625 368.255 200.466 367.654 200.466 366.939C200.466 366.323 200.58 365.814 200.807 365.412C201.034 365.009 201.344 364.688 201.737 364.446C202.13 364.205 202.573 364.022 203.065 363.899C203.563 363.771 204.076 363.679 204.607 363.622C205.246 363.556 205.764 363.497 206.162 363.445C206.56 363.388 206.848 363.303 207.028 363.189C207.213 363.071 207.305 362.888 207.305 362.642V362.599C207.305 362.064 207.147 361.65 206.83 361.357C206.512 361.063 206.055 360.916 205.459 360.916C204.829 360.916 204.33 361.054 203.96 361.328C203.596 361.603 203.349 361.927 203.222 362.301L200.821 361.96C201.01 361.297 201.323 360.743 201.759 360.298C202.194 359.848 202.727 359.512 203.357 359.29C203.986 359.062 204.682 358.949 205.445 358.949C205.97 358.949 206.493 359.01 207.014 359.134C207.535 359.257 208.011 359.46 208.442 359.744C208.873 360.024 209.218 360.405 209.479 360.888C209.744 361.371 209.876 361.974 209.876 362.699V370H207.405V368.501H207.32C207.163 368.804 206.943 369.089 206.659 369.354C206.38 369.614 206.027 369.825 205.601 369.986C205.179 370.142 204.685 370.22 204.116 370.22ZM204.784 368.331C205.3 368.331 205.748 368.229 206.126 368.026C206.505 367.817 206.796 367.543 207 367.202C207.208 366.861 207.312 366.489 207.312 366.087V364.801C207.232 364.867 207.095 364.929 206.901 364.986C206.711 365.043 206.498 365.092 206.261 365.135C206.025 365.178 205.79 365.215 205.558 365.249C205.326 365.282 205.125 365.31 204.955 365.334C204.571 365.386 204.228 365.471 203.925 365.589C203.622 365.708 203.383 365.874 203.207 366.087C203.032 366.295 202.945 366.565 202.945 366.896C202.945 367.37 203.117 367.727 203.463 367.969C203.809 368.21 204.249 368.331 204.784 368.331ZM221.084 361.974L218.74 362.23C218.674 361.993 218.558 361.771 218.392 361.562C218.231 361.354 218.013 361.186 217.739 361.058C217.464 360.93 217.128 360.866 216.73 360.866C216.195 360.866 215.745 360.982 215.381 361.214C215.021 361.446 214.843 361.747 214.848 362.116C214.843 362.434 214.959 362.692 215.196 362.891C215.438 363.089 215.835 363.253 216.389 363.381L218.25 363.778C219.282 364.001 220.049 364.354 220.551 364.837C221.058 365.32 221.313 365.952 221.318 366.733C221.313 367.42 221.112 368.026 220.714 368.551C220.321 369.072 219.775 369.479 219.074 369.773C218.373 370.066 217.568 370.213 216.659 370.213C215.324 370.213 214.249 369.934 213.435 369.375C212.62 368.812 212.135 368.028 211.979 367.024L214.486 366.783C214.599 367.275 214.841 367.647 215.21 367.898C215.58 368.149 216.06 368.274 216.652 368.274C217.263 368.274 217.753 368.149 218.122 367.898C218.496 367.647 218.683 367.337 218.683 366.967C218.683 366.655 218.563 366.397 218.321 366.193C218.084 365.99 217.715 365.833 217.213 365.724L215.352 365.334C214.306 365.116 213.532 364.749 213.03 364.233C212.528 363.712 212.279 363.054 212.284 362.259C212.279 361.586 212.462 361.004 212.831 360.511C213.205 360.014 213.723 359.631 214.386 359.361C215.054 359.086 215.823 358.949 216.695 358.949C217.973 358.949 218.979 359.221 219.713 359.766C220.452 360.31 220.909 361.046 221.084 361.974ZM228.268 370.213C227.174 370.213 226.229 369.986 225.434 369.531C224.643 369.072 224.035 368.423 223.609 367.585C223.183 366.742 222.969 365.75 222.969 364.609C222.969 363.487 223.183 362.502 223.609 361.655C224.04 360.803 224.641 360.14 225.413 359.666C226.184 359.188 227.091 358.949 228.133 358.949C228.805 358.949 229.44 359.058 230.036 359.276C230.638 359.489 231.168 359.82 231.627 360.27C232.091 360.72 232.456 361.293 232.721 361.989C232.986 362.68 233.119 363.504 233.119 364.46V365.249H224.177V363.516H230.654C230.649 363.023 230.543 362.585 230.335 362.202C230.126 361.813 229.835 361.508 229.461 361.286C229.092 361.063 228.661 360.952 228.168 360.952C227.643 360.952 227.181 361.08 226.783 361.335C226.386 361.586 226.076 361.918 225.853 362.33C225.635 362.737 225.524 363.184 225.519 363.672V365.185C225.519 365.819 225.635 366.364 225.867 366.818C226.099 367.268 226.424 367.614 226.84 367.855C227.257 368.092 227.745 368.21 228.303 368.21C228.677 368.21 229.016 368.158 229.319 368.054C229.622 367.945 229.885 367.786 230.107 367.578C230.33 367.37 230.498 367.112 230.612 366.804L233.012 367.074C232.861 367.708 232.572 368.262 232.146 368.736C231.724 369.205 231.184 369.569 230.526 369.83C229.868 370.085 229.115 370.213 228.268 370.213Z" fill="#CDDAED"/>
<mask id="path-22-outside-1_203_3034" maskUnits="userSpaceOnUse" x="304" y="192" width="108" height="243" fill="black">
<rect fill="white" x="304" y="192" width="108" height="243"/>
<path fill-rule="evenodd" clip-rule="evenodd" d="M358 432C326.164 403.361 306 360.897 306 313.5C306 266.103 326.164 223.639 358 195C389.835 223.639 410 266.103 410 313.5C410 360.897 389.835 403.361 358 432Z"/>
</mask>
<path fill-rule="evenodd" clip-rule="evenodd" d="M358 432C326.164 403.361 306 360.897 306 313.5C306 266.103 326.164 223.639 358 195C389.835 223.639 410 266.103 410 313.5C410 360.897 389.835 403.361 358 432Z" fill="url(#paint16_radial_203_3034)" fill-opacity="0.9"/>
<path d="M358 432L356.796 433.338L358 434.421L359.204 433.338L358 432ZM358 195L359.204 193.662L358 192.579L356.796 193.662L358 195ZM359.204 430.662C327.743 402.36 307.8 360.38 307.8 313.5L304.2 313.5C304.2 361.413 324.586 404.362 356.796 433.338L359.204 430.662ZM307.8 313.5C307.8 266.62 327.743 224.64 359.204 196.338L356.796 193.662C324.586 222.638 304.2 265.587 304.2 313.5L307.8 313.5ZM356.796 196.338C388.257 224.64 408.2 266.62 408.2 313.5L411.8 313.5C411.8 265.587 391.414 222.638 359.204 193.662L356.796 196.338ZM408.2 313.5C408.2 360.38 388.257 402.36 356.796 430.662L359.204 433.338C391.414 404.362 411.8 361.413 411.8 313.5L408.2 313.5Z" fill="#6DDCFF" mask="url(#path-22-outside-1_203_3034)"/>
<path d="M320.232 338H316.607L322.131 322H326.49L332.006 338H328.381L324.373 325.656H324.248L320.232 338ZM320.006 331.711H328.568V334.352H320.006V331.711ZM336.885 334.547L336.893 330.555H337.377L341.221 326H345.041L339.877 332.031H339.088L336.885 334.547ZM333.869 338V322H337.197V338H333.869ZM341.369 338L337.838 332.773L340.057 330.422L345.268 338H341.369ZM350.096 338.227C349.33 338.227 348.648 338.094 348.049 337.828C347.45 337.557 346.976 337.159 346.627 336.633C346.283 336.102 346.111 335.44 346.111 334.648C346.111 333.982 346.234 333.422 346.479 332.969C346.723 332.516 347.057 332.151 347.479 331.875C347.9 331.599 348.38 331.391 348.916 331.25C349.458 331.109 350.025 331.01 350.619 330.953C351.317 330.88 351.88 330.812 352.307 330.75C352.734 330.682 353.044 330.583 353.236 330.453C353.429 330.323 353.525 330.13 353.525 329.875V329.828C353.525 329.333 353.369 328.95 353.057 328.68C352.749 328.409 352.312 328.273 351.744 328.273C351.145 328.273 350.669 328.406 350.314 328.672C349.96 328.932 349.726 329.26 349.611 329.656L346.533 329.406C346.689 328.677 346.997 328.047 347.455 327.516C347.913 326.979 348.505 326.568 349.229 326.281C349.958 325.99 350.801 325.844 351.76 325.844C352.426 325.844 353.064 325.922 353.674 326.078C354.288 326.234 354.833 326.477 355.307 326.805C355.786 327.133 356.163 327.555 356.439 328.07C356.715 328.581 356.854 329.193 356.854 329.906V338H353.697V336.336H353.604C353.411 336.711 353.153 337.042 352.83 337.328C352.507 337.609 352.119 337.831 351.666 337.992C351.213 338.148 350.689 338.227 350.096 338.227ZM351.049 335.93C351.538 335.93 351.971 335.833 352.346 335.641C352.721 335.443 353.015 335.177 353.229 334.844C353.442 334.51 353.549 334.133 353.549 333.711V332.437C353.445 332.505 353.301 332.568 353.119 332.625C352.942 332.677 352.742 332.727 352.518 332.773C352.294 332.815 352.07 332.854 351.846 332.891C351.622 332.922 351.419 332.95 351.236 332.977C350.846 333.034 350.505 333.125 350.213 333.25C349.921 333.375 349.695 333.544 349.533 333.758C349.372 333.966 349.291 334.227 349.291 334.539C349.291 334.992 349.455 335.338 349.783 335.578C350.117 335.812 350.538 335.93 351.049 335.93ZM369.42 329.422L366.373 329.609C366.321 329.349 366.209 329.115 366.037 328.906C365.865 328.693 365.639 328.523 365.357 328.398C365.081 328.268 364.751 328.203 364.365 328.203C363.85 328.203 363.415 328.312 363.061 328.531C362.706 328.745 362.529 329.031 362.529 329.391C362.529 329.677 362.644 329.919 362.873 330.117C363.102 330.315 363.495 330.474 364.053 330.594L366.225 331.031C367.391 331.271 368.261 331.656 368.834 332.187C369.407 332.719 369.693 333.417 369.693 334.281C369.693 335.068 369.462 335.758 368.998 336.352C368.54 336.945 367.91 337.409 367.107 337.742C366.311 338.07 365.391 338.234 364.35 338.234C362.761 338.234 361.495 337.904 360.553 337.242C359.615 336.575 359.066 335.669 358.904 334.523L362.178 334.352C362.277 334.836 362.516 335.206 362.896 335.461C363.277 335.711 363.764 335.836 364.357 335.836C364.941 335.836 365.41 335.724 365.764 335.5C366.123 335.271 366.305 334.977 366.311 334.617C366.305 334.315 366.178 334.068 365.928 333.875C365.678 333.677 365.292 333.526 364.771 333.422L362.693 333.008C361.521 332.773 360.649 332.367 360.076 331.789C359.508 331.211 359.225 330.474 359.225 329.578C359.225 328.807 359.433 328.143 359.85 327.586C360.271 327.029 360.863 326.599 361.623 326.297C362.389 325.995 363.285 325.844 364.311 325.844C365.826 325.844 367.019 326.164 367.889 326.805C368.764 327.445 369.274 328.318 369.42 329.422ZM375.117 331.062V338H371.789V322H375.023V328.117H375.164C375.435 327.409 375.872 326.854 376.477 326.453C377.081 326.047 377.839 325.844 378.75 325.844C379.583 325.844 380.31 326.026 380.93 326.391C381.555 326.75 382.039 327.268 382.383 327.945C382.732 328.617 382.904 329.422 382.898 330.359V338H379.57V330.953C379.576 330.213 379.388 329.638 379.008 329.227C378.633 328.815 378.107 328.609 377.43 328.609C376.977 328.609 376.576 328.706 376.227 328.898C375.883 329.091 375.612 329.372 375.414 329.742C375.221 330.107 375.122 330.547 375.117 331.062ZM388.752 322L391.979 327.453H392.104L395.346 322H399.166L394.283 330L399.275 338H395.385L392.104 332.539H391.979L388.697 338H384.822L389.83 330L384.916 322H388.752Z" fill="#F4F8FF"/>
<path d="M380.926 300.649L369.185 277.802L366.241 279.202L375.019 296.282C375.315 296.725 374.648 296.632 374.648 296.632C364.481 296.522 360.37 286.185 360.37 286.185L365.185 276.954L373.611 273.398L365.833 271.15L358.5 257L351.148 271.224L343.407 273.398L352.037 277.065L356.667 286.296C351.111 297.462 342.407 296.688 342.407 296.688C341.796 296.725 342.019 296.393 342.019 296.393L350.759 279.202L347.926 277.765L336 300.999H343.926C353.722 300.999 358.278 290.202 358.278 290.202C358.481 289.668 358.685 290.276 358.685 290.276C364 301.036 371.741 300.999 371.741 300.999H380.63C381.222 301.018 380.926 300.649 380.926 300.649ZM358.556 282.593L353.833 273.435L358.519 264.278L363.278 273.435L358.556 282.593Z" fill="#EEEBFF"/>
<path d="M359 6H923.651M991 6H923.651M923.651 6V208.912M923.651 208.912H991M923.651 208.912V418H991" stroke="#6B8BBA" stroke-opacity="0.6" stroke-width="2.5" stroke-dasharray="6 6"/>
<circle cx="997" cy="6" r="6" fill="url(#paint17_linear_203_3034)"/>
<circle cx="997" cy="208" r="6" fill="url(#paint18_linear_203_3034)"/>
<circle cx="997" cy="417" r="6" fill="url(#paint19_linear_203_3034)"/>
<path d="M358 6L358 175" stroke="#6B8BBA" stroke-opacity="0.6" stroke-width="2.5" stroke-dasharray="6 6"/>
<defs>
<radialGradient id="paint0_radial_203_3034" cx="0" cy="0" r="1" gradientUnits="userSpaceOnUse" gradientTransform="translate(474.943 313.596) scale(176.297 176.424)">
<stop offset="0.13"/>
<stop offset="0.38" stop-color="#000303"/>
<stop offset="0.53" stop-color="#020B0B"/>
<stop offset="0.65" stop-color="#041919"/>
<stop offset="0.75" stop-color="#072D2D"/>
<stop offset="0.85" stop-color="#0B4747"/>
<stop offset="0.94" stop-color="#106767"/>
<stop offset="1" stop-color="#148282"/>
</radialGradient>
<linearGradient id="paint1_linear_203_3034" x1="302.627" y1="398.174" x2="649.473" y2="398.174" gradientUnits="userSpaceOnUse">
<stop/>
<stop offset="0.07" stop-color="#282828"/>
<stop offset="0.16" stop-color="#5A5A5A"/>
<stop offset="0.26" stop-color="#868686"/>
<stop offset="0.36" stop-color="#ACACAC"/>
<stop offset="0.47" stop-color="#CACACA"/>
<stop offset="0.58" stop-color="#E1E1E1"/>
<stop offset="0.7" stop-color="#F2F2F2"/>
<stop offset="0.83" stop-color="#FCFCFC"/>
<stop offset="1" stop-color="white"/>
</linearGradient>
<linearGradient id="paint2_linear_203_3034" x1="474.942" y1="273.602" x2="474.942" y2="88.0567" gradientUnits="userSpaceOnUse">
<stop/>
<stop offset="0.07" stop-color="#282828"/>
<stop offset="0.16" stop-color="#5A5A5A"/>
<stop offset="0.26" stop-color="#868686"/>
<stop offset="0.36" stop-color="#ACACAC"/>
<stop offset="0.47" stop-color="#CACACA"/>
<stop offset="0.58" stop-color="#E1E1E1"/>
<stop offset="0.7" stop-color="#F2F2F2"/>
<stop offset="0.83" stop-color="#FCFCFC"/>
<stop offset="1" stop-color="white"/>
</linearGradient>
<linearGradient id="paint3_linear_203_3034" x1="410.126" y1="427.009" x2="606.664" y2="88.4207" gradientUnits="userSpaceOnUse">
<stop/>
<stop offset="0.37" stop-color="#020202"/>
<stop offset="0.51" stop-color="#090909"/>
<stop offset="0.6" stop-color="#141414"/>
<stop offset="0.68" stop-color="#252525"/>
<stop offset="0.75" stop-color="#3B3B3B"/>
<stop offset="0.8" stop-color="#575757"/>
<stop offset="0.86" stop-color="#777777"/>
<stop offset="0.91" stop-color="#9D9D9D"/>
<stop offset="0.95" stop-color="#C8C8C8"/>
<stop offset="0.99" stop-color="#F6F6F6"/>
<stop offset="1" stop-color="white"/>
</linearGradient>
<radialGradient id="paint4_radial_203_3034" cx="0" cy="0" r="1" gradientUnits="userSpaceOnUse" gradientTransform="translate(608.993 415.898) rotate(117.645) scale(119.15 58.9388)">
<stop stop-color="#F6F6F6"/>
<stop offset="0.03" stop-color="#C8C8C8"/>
<stop offset="0.06" stop-color="#9D9D9D"/>
<stop offset="0.09" stop-color="#777777"/>
<stop offset="0.13" stop-color="#575757"/>
<stop offset="0.17" stop-color="#3B3B3B"/>
<stop offset="0.21" stop-color="#252525"/>
<stop offset="0.26" stop-color="#141414"/>
<stop offset="0.33" stop-color="#090909"/>
<stop offset="0.41" stop-color="#020202"/>
<stop offset="0.66"/>
</radialGradient>
<radialGradient id="paint5_radial_203_3034" cx="0" cy="0" r="1" gradientUnits="userSpaceOnUse" gradientTransform="translate(478.479 465.344) rotate(-8.87682) scale(157.653 85.7653)">
<stop stop-color="#943948"/>
<stop offset="0.09" stop-color="#732C38"/>
<stop offset="0.21" stop-color="#501F27"/>
<stop offset="0.34" stop-color="#331319"/>
<stop offset="0.47" stop-color="#1C0B0E"/>
<stop offset="0.61" stop-color="#0C0506"/>
<stop offset="0.78" stop-color="#030101"/>
<stop offset="1"/>
</radialGradient>
<radialGradient id="paint6_radial_203_3034" cx="0" cy="0" r="1" gradientUnits="userSpaceOnUse" gradientTransform="translate(597.819 267.072) rotate(81.1357) scale(157.76 85.7067)">
<stop stop-color="#6246B3"/>
<stop offset="0.05" stop-color="#563D9C"/>
<stop offset="0.15" stop-color="#3F2D73"/>
<stop offset="0.27" stop-color="#2C1F50"/>
<stop offset="0.38" stop-color="#1C1433"/>
<stop offset="0.51" stop-color="#0F0B1C"/>
<stop offset="0.64" stop-color="#07050C"/>
<stop offset="0.79" stop-color="#020103"/>
<stop offset="1"/>
</radialGradient>
<radialGradient id="paint7_radial_203_3034" cx="0" cy="0" r="1" gradientUnits="userSpaceOnUse" gradientTransform="translate(454.326 140.987) rotate(173.76) scale(119.117 58.7989)">
<stop stop-color="white"/>
<stop offset="0.03" stop-color="#E2E2E2"/>
<stop offset="0.1" stop-color="#AEAEAE"/>
<stop offset="0.17" stop-color="#7F7F7F"/>
<stop offset="0.24" stop-color="#585858"/>
<stop offset="0.32" stop-color="#383838"/>
<stop offset="0.4" stop-color="#1F1F1F"/>
<stop offset="0.48" stop-color="#0E0E0E"/>
<stop offset="0.56" stop-color="#030303"/>
<stop offset="0.66"/>
</radialGradient>
<radialGradient id="paint8_radial_203_3034" cx="0" cy="0" r="1" gradientUnits="userSpaceOnUse" gradientTransform="translate(240.057 313.596) rotate(-180) scale(176.297 176.424)">
<stop offset="0.13"/>
<stop offset="0.38" stop-color="#000303"/>
<stop offset="0.53" stop-color="#020B0B"/>
<stop offset="0.65" stop-color="#041919"/>
<stop offset="0.75" stop-color="#072D2D"/>
<stop offset="0.85" stop-color="#0B4747"/>
<stop offset="0.94" stop-color="#106767"/>
<stop offset="1" stop-color="#148282"/>
</radialGradient>
<linearGradient id="paint9_linear_203_3034" x1="412.373" y1="398.174" x2="65.5267" y2="398.174" gradientUnits="userSpaceOnUse">
<stop/>
<stop offset="0.07" stop-color="#282828"/>
<stop offset="0.16" stop-color="#5A5A5A"/>
<stop offset="0.26" stop-color="#868686"/>
<stop offset="0.36" stop-color="#ACACAC"/>
<stop offset="0.47" stop-color="#CACACA"/>
<stop offset="0.58" stop-color="#E1E1E1"/>
<stop offset="0.7" stop-color="#F2F2F2"/>
<stop offset="0.83" stop-color="#FCFCFC"/>
<stop offset="1" stop-color="white"/>
</linearGradient>
<linearGradient id="paint10_linear_203_3034" x1="240.058" y1="273.602" x2="240.058" y2="88.0567" gradientUnits="userSpaceOnUse">
<stop/>
<stop offset="0.07" stop-color="#282828"/>
<stop offset="0.16" stop-color="#5A5A5A"/>
<stop offset="0.26" stop-color="#868686"/>
<stop offset="0.36" stop-color="#ACACAC"/>
<stop offset="0.47" stop-color="#CACACA"/>
<stop offset="0.58" stop-color="#E1E1E1"/>
<stop offset="0.7" stop-color="#F2F2F2"/>
<stop offset="0.83" stop-color="#FCFCFC"/>
<stop offset="1" stop-color="white"/>
</linearGradient>
<linearGradient id="paint11_linear_203_3034" x1="304.874" y1="427.009" x2="108.336" y2="88.4207" gradientUnits="userSpaceOnUse">
<stop/>
<stop offset="0.37" stop-color="#020202"/>
<stop offset="0.51" stop-color="#090909"/>
<stop offset="0.6" stop-color="#141414"/>
<stop offset="0.68" stop-color="#252525"/>
<stop offset="0.75" stop-color="#3B3B3B"/>
<stop offset="0.8" stop-color="#575757"/>
<stop offset="0.86" stop-color="#777777"/>
<stop offset="0.91" stop-color="#9D9D9D"/>
<stop offset="0.95" stop-color="#C8C8C8"/>
<stop offset="0.99" stop-color="#F6F6F6"/>
<stop offset="1" stop-color="white"/>
</linearGradient>
<radialGradient id="paint12_radial_203_3034" cx="0" cy="0" r="1" gradientUnits="userSpaceOnUse" gradientTransform="translate(106.007 415.898) rotate(62.355) scale(119.15 58.9388)">
<stop stop-color="#F6F6F6"/>
<stop offset="0.03" stop-color="#C8C8C8"/>
<stop offset="0.06" stop-color="#9D9D9D"/>
<stop offset="0.09" stop-color="#777777"/>
<stop offset="0.13" stop-color="#575757"/>
<stop offset="0.17" stop-color="#3B3B3B"/>
<stop offset="0.21" stop-color="#252525"/>
<stop offset="0.26" stop-color="#141414"/>
<stop offset="0.33" stop-color="#090909"/>
<stop offset="0.41" stop-color="#020202"/>
<stop offset="0.66"/>
</radialGradient>
<radialGradient id="paint13_radial_203_3034" cx="0" cy="0" r="1" gradientUnits="userSpaceOnUse" gradientTransform="translate(236.521 465.344) rotate(-171.123) scale(157.653 85.7653)">
<stop stop-color="#943948"/>
<stop offset="0.09" stop-color="#732C38"/>
<stop offset="0.21" stop-color="#501F27"/>
<stop offset="0.34" stop-color="#331319"/>
<stop offset="0.47" stop-color="#1C0B0E"/>
<stop offset="0.61" stop-color="#0C0506"/>
<stop offset="0.78" stop-color="#030101"/>
<stop offset="1"/>
</radialGradient>
<radialGradient id="paint14_radial_203_3034" cx="0" cy="0" r="1" gradientUnits="userSpaceOnUse" gradientTransform="translate(117.181 267.072) rotate(98.8643) scale(157.76 85.7067)">
<stop stop-color="#6246B3"/>
<stop offset="0.05" stop-color="#563D9C"/>
<stop offset="0.15" stop-color="#3F2D73"/>
<stop offset="0.27" stop-color="#2C1F50"/>
<stop offset="0.38" stop-color="#1C1433"/>
<stop offset="0.51" stop-color="#0F0B1C"/>
<stop offset="0.64" stop-color="#07050C"/>
<stop offset="0.79" stop-color="#020103"/>
<stop offset="1"/>
</radialGradient>
<radialGradient id="paint15_radial_203_3034" cx="0" cy="0" r="1" gradientUnits="userSpaceOnUse" gradientTransform="translate(260.674 140.987) rotate(6.24049) scale(119.117 58.7989)">
<stop stop-color="white"/>
<stop offset="0.03" stop-color="#E2E2E2"/>
<stop offset="0.1" stop-color="#AEAEAE"/>
<stop offset="0.17" stop-color="#7F7F7F"/>
<stop offset="0.24" stop-color="#585858"/>
<stop offset="0.32" stop-color="#383838"/>
<stop offset="0.4" stop-color="#1F1F1F"/>
<stop offset="0.48" stop-color="#0E0E0E"/>
<stop offset="0.56" stop-color="#030303"/>
<stop offset="0.66"/>
</radialGradient>
<radialGradient id="paint16_radial_203_3034" cx="0" cy="0" r="1" gradientUnits="userSpaceOnUse" gradientTransform="translate(358 195) rotate(90) scale(240.686 233.45)">
<stop stop-color="#28B2BA"/>
<stop offset="0.444599" stop-color="#6243F0"/>
<stop offset="1" stop-color="#28B2BB"/>
</radialGradient>
<linearGradient id="paint17_linear_203_3034" x1="999" y1="2.5" x2="997" y2="12" gradientUnits="userSpaceOnUse">
<stop stop-color="#7557FF"/>
<stop offset="1" stop-color="#8DEFFF"/>
</linearGradient>
<linearGradient id="paint18_linear_203_3034" x1="999" y1="204.5" x2="997" y2="214" gradientUnits="userSpaceOnUse">
<stop stop-color="#7557FF"/>
<stop offset="1" stop-color="#8DEFFF"/>
</linearGradient>
<linearGradient id="paint19_linear_203_3034" x1="999" y1="413.5" x2="997" y2="423" gradientUnits="userSpaceOnUse">
<stop stop-color="#7557FF"/>
<stop offset="1" stop-color="#8DEFFF"/>
</linearGradient>
<clipPath id="clip0_203_3034">
<rect width="349" height="349" fill="white" transform="translate(301 137)"/>
</clipPath>
<clipPath id="clip1_203_3034">
<rect width="349" height="349" fill="white" transform="matrix(-1 0 0 1 414 137)"/>
</clipPath>
</defs>
</svg>
