<svg width="360" height="304" viewBox="0 0 360 304" fill="none" xmlns="http://www.w3.org/2000/svg">
<g opacity="0.51">
<mask id="mask0_151_2663" style="mask-type:alpha" maskUnits="userSpaceOnUse" x="148" y="72" width="196" height="196">
<path d="M151.088 147.77C138.708 200.257 171.192 252.85 223.642 265.238C276.092 277.626 328.647 245.119 341.026 192.631C353.406 140.144 320.922 87.5514 268.472 75.1632C216.022 62.775 163.467 95.282 151.088 147.77Z" fill="black"/>
</mask>
<g mask="url(#mask0_151_2663)">
<path style="mix-blend-mode:screen" d="M340.207 192.632C352.587 140.144 320.103 87.5516 267.653 75.1633C215.203 62.7751 162.648 95.2822 150.269 147.77C137.889 200.258 170.373 252.85 222.823 265.238C275.273 277.626 327.828 245.119 340.207 192.632Z" fill="url(#paint0_radial_151_2663)"/>
<path style="mix-blend-mode:screen" d="M245.88 263.529C220.671 263.532 196.446 252.807 178.47 235.121C160.493 217.434 150.182 193.386 149.758 168.162C149.758 168.709 149.758 169.255 149.758 169.802C149.758 195.313 159.885 219.78 177.912 237.819C195.938 255.858 220.387 265.993 245.88 265.993C271.373 265.993 295.822 255.858 313.849 237.819C331.875 219.78 342.002 195.313 342.002 169.802C342.002 169.255 342.002 168.709 342.002 168.162C341.584 193.396 331.268 217.454 313.281 235.143C295.293 252.832 271.1 263.55 245.88 263.529Z" fill="url(#paint1_linear_151_2663)"/>
<path style="mix-blend-mode:screen" d="M245.3 77.6958C270.875 77.7038 295.458 88.2739 313.699 106.213C331.94 124.151 342.414 148.539 342.867 174.128C342.867 173.559 342.867 172.99 342.867 172.421C342.476 146.784 332.024 122.33 313.77 104.339C295.515 86.3474 270.921 76.2631 245.3 76.2631C219.679 76.2631 195.085 86.3474 176.83 104.339C158.576 122.33 148.124 146.784 147.733 172.421C147.733 172.99 147.733 173.559 147.733 174.128C148.175 148.524 158.654 124.119 176.913 106.176C195.171 88.2324 219.71 77.6741 245.3 77.6958Z" fill="url(#paint2_linear_151_2663)"/>
<path style="mix-blend-mode:screen" d="M181.025 117.675C194.679 84.0404 239.099 70.3541 280.288 87.0919C321.476 103.83 343.823 144.638 330.192 178.182C316.561 211.726 272.095 225.503 230.907 208.765C189.718 192.028 167.394 151.288 181.025 117.675Z" fill="url(#paint3_linear_151_2663)"/>
<path style="mix-blend-mode:color-dodge" d="M281.157 266.744C265.228 258.386 266.001 225.412 282.909 193.12C299.817 160.829 326.442 141.404 342.394 149.853C358.346 158.301 357.55 191.162 340.642 223.476C323.734 255.79 297.109 275.101 281.157 266.744Z" fill="url(#paint4_radial_151_2663)"/>
<path style="mix-blend-mode:color-dodge" d="M333.651 241.444C337.701 267.496 302.225 294.641 254.437 302.11C206.649 309.579 164.595 294.504 160.545 268.475C156.494 242.446 191.948 215.301 239.759 207.855C287.57 200.408 329.532 215.415 333.651 241.444Z" fill="url(#paint5_radial_151_2663)"/>
<path style="mix-blend-mode:color-dodge" d="M342.776 245.634C316.766 249.688 289.64 214.208 282.176 166.386C274.712 118.564 289.754 76.4799 315.878 72.4264C342.002 68.3729 369.037 103.852 376.501 151.675C383.965 199.497 368.786 241.581 342.776 245.634Z" fill="url(#paint6_radial_151_2663)"/>
<path style="mix-blend-mode:color-dodge" d="M174.54 86.1549C172.514 68.233 200.368 50.4704 236.596 46.5991C272.824 42.7277 303.772 53.9774 305.729 71.8766C307.686 89.7758 279.878 107.402 243.65 111.432C207.422 115.463 176.474 104.054 174.54 86.1549Z" fill="url(#paint7_radial_151_2663)"/>
</g>
</g>
<path d="M228.818 172H225.861V163.273H228.878C229.744 163.273 230.489 163.447 231.111 163.797C231.736 164.143 232.216 164.642 232.551 165.293C232.886 165.943 233.054 166.722 233.054 167.628C233.054 168.537 232.885 169.318 232.547 169.972C232.212 170.625 231.727 171.126 231.094 171.476C230.463 171.825 229.705 172 228.818 172ZM227.442 170.632H228.741C229.349 170.632 229.857 170.521 230.263 170.3C230.669 170.075 230.974 169.741 231.179 169.298C231.384 168.852 231.486 168.295 231.486 167.628C231.486 166.96 231.384 166.406 231.179 165.966C230.974 165.523 230.672 165.192 230.271 164.973C229.874 164.751 229.379 164.641 228.788 164.641H227.442V170.632ZM236.371 172.132C235.957 172.132 235.583 172.058 235.251 171.911C234.921 171.76 234.66 171.538 234.467 171.246C234.276 170.953 234.181 170.592 234.181 170.163C234.181 169.794 234.249 169.489 234.386 169.247C234.522 169.006 234.708 168.812 234.944 168.668C235.18 168.523 235.445 168.413 235.741 168.339C236.039 168.263 236.347 168.207 236.665 168.173C237.049 168.134 237.36 168.098 237.599 168.067C237.837 168.033 238.011 167.982 238.119 167.913C238.229 167.842 238.285 167.733 238.285 167.585V167.56C238.285 167.239 238.19 166.99 237.999 166.814C237.809 166.638 237.535 166.55 237.177 166.55C236.799 166.55 236.499 166.632 236.278 166.797C236.059 166.962 235.911 167.156 235.835 167.381L234.394 167.176C234.508 166.778 234.695 166.446 234.957 166.179C235.218 165.909 235.538 165.707 235.915 165.574C236.293 165.438 236.711 165.369 237.168 165.369C237.484 165.369 237.798 165.406 238.11 165.48C238.423 165.554 238.708 165.676 238.967 165.847C239.225 166.014 239.433 166.243 239.589 166.533C239.748 166.822 239.827 167.185 239.827 167.619V172H238.344V171.101H238.293C238.2 171.283 238.067 171.453 237.897 171.612C237.729 171.768 237.518 171.895 237.262 171.991C237.009 172.085 236.712 172.132 236.371 172.132ZM236.772 170.999C237.082 170.999 237.35 170.937 237.577 170.815C237.805 170.69 237.979 170.526 238.102 170.321C238.227 170.116 238.289 169.893 238.289 169.652V168.881C238.241 168.92 238.158 168.957 238.042 168.991C237.928 169.026 237.8 169.055 237.658 169.081C237.516 169.107 237.376 169.129 237.237 169.149C237.097 169.169 236.977 169.186 236.874 169.2C236.644 169.232 236.438 169.283 236.256 169.354C236.075 169.425 235.931 169.524 235.826 169.652C235.721 169.777 235.668 169.939 235.668 170.138C235.668 170.422 235.772 170.636 235.979 170.781C236.187 170.926 236.451 170.999 236.772 170.999ZM244.647 165.455V166.648H240.884V165.455H244.647ZM241.813 163.886H243.356V170.031C243.356 170.239 243.387 170.398 243.45 170.509C243.515 170.616 243.6 170.69 243.705 170.73C243.81 170.77 243.927 170.79 244.055 170.79C244.151 170.79 244.239 170.783 244.319 170.768C244.401 170.754 244.464 170.741 244.506 170.73L244.766 171.936C244.684 171.964 244.566 171.996 244.413 172.03C244.262 172.064 244.077 172.084 243.859 172.089C243.472 172.101 243.124 172.043 242.815 171.915C242.505 171.784 242.259 171.582 242.077 171.31C241.898 171.037 241.81 170.696 241.813 170.287V163.886ZM247.821 172.132C247.406 172.132 247.032 172.058 246.7 171.911C246.37 171.76 246.109 171.538 245.916 171.246C245.725 170.953 245.63 170.592 245.63 170.163C245.63 169.794 245.699 169.489 245.835 169.247C245.971 169.006 246.157 168.812 246.393 168.668C246.629 168.523 246.895 168.413 247.19 168.339C247.488 168.263 247.797 168.207 248.115 168.173C248.498 168.134 248.809 168.098 249.048 168.067C249.287 168.033 249.46 167.982 249.568 167.913C249.679 167.842 249.734 167.733 249.734 167.585V167.56C249.734 167.239 249.639 166.99 249.449 166.814C249.258 166.638 248.984 166.55 248.626 166.55C248.248 166.55 247.949 166.632 247.727 166.797C247.508 166.962 247.36 167.156 247.284 167.381L245.843 167.176C245.957 166.778 246.145 166.446 246.406 166.179C246.667 165.909 246.987 165.707 247.365 165.574C247.743 165.438 248.16 165.369 248.618 165.369C248.933 165.369 249.247 165.406 249.559 165.48C249.872 165.554 250.157 165.676 250.416 165.847C250.674 166.014 250.882 166.243 251.038 166.533C251.197 166.822 251.277 167.185 251.277 167.619V172H249.794V171.101H249.743C249.649 171.283 249.517 171.453 249.346 171.612C249.179 171.768 248.967 171.895 248.711 171.991C248.458 172.085 248.162 172.132 247.821 172.132ZM248.221 170.999C248.531 170.999 248.799 170.937 249.027 170.815C249.254 170.69 249.429 170.526 249.551 170.321C249.676 170.116 249.738 169.893 249.738 169.652V168.881C249.69 168.92 249.608 168.957 249.491 168.991C249.377 169.026 249.25 169.055 249.108 169.081C248.966 169.107 248.825 169.129 248.686 169.149C248.547 169.169 248.426 169.186 248.324 169.2C248.093 169.232 247.887 169.283 247.706 169.354C247.524 169.425 247.38 169.524 247.275 169.652C247.17 169.777 247.118 169.939 247.118 170.138C247.118 170.422 247.221 170.636 247.429 170.781C247.636 170.926 247.9 170.999 248.221 170.999ZM257.709 172L255.246 163.273H256.946L258.519 169.686H258.6L260.279 163.273H261.826L263.509 169.69H263.586L265.158 163.273H266.858L264.395 172H262.836L261.088 165.876H261.02L259.269 172H257.709ZM269.102 172.132C268.687 172.132 268.314 172.058 267.981 171.911C267.652 171.76 267.39 171.538 267.197 171.246C267.007 170.953 266.912 170.592 266.912 170.163C266.912 169.794 266.98 169.489 267.116 169.247C267.252 169.006 267.439 168.812 267.674 168.668C267.91 168.523 268.176 168.413 268.471 168.339C268.77 168.263 269.078 168.207 269.396 168.173C269.779 168.134 270.091 168.098 270.329 168.067C270.568 168.033 270.741 167.982 270.849 167.913C270.96 167.842 271.015 167.733 271.015 167.585V167.56C271.015 167.239 270.92 166.99 270.73 166.814C270.539 166.638 270.265 166.55 269.907 166.55C269.529 166.55 269.23 166.632 269.008 166.797C268.789 166.962 268.642 167.156 268.565 167.381L267.125 167.176C267.238 166.778 267.426 166.446 267.687 166.179C267.949 165.909 268.268 165.707 268.646 165.574C269.024 165.438 269.441 165.369 269.899 165.369C270.214 165.369 270.528 165.406 270.841 165.48C271.153 165.554 271.439 165.676 271.697 165.847C271.956 166.014 272.163 166.243 272.319 166.533C272.478 166.822 272.558 167.185 272.558 167.619V172H271.075V171.101H271.024C270.93 171.283 270.798 171.453 270.627 171.612C270.46 171.768 270.248 171.895 269.993 171.991C269.74 172.085 269.443 172.132 269.102 172.132ZM269.502 170.999C269.812 170.999 270.081 170.937 270.308 170.815C270.535 170.69 270.71 170.526 270.832 170.321C270.957 170.116 271.02 169.893 271.02 169.652V168.881C270.971 168.92 270.889 168.957 270.772 168.991C270.659 169.026 270.531 169.055 270.389 169.081C270.247 169.107 270.106 169.129 269.967 169.149C269.828 169.169 269.707 169.186 269.605 169.2C269.375 169.232 269.169 169.283 268.987 169.354C268.805 169.425 268.662 169.524 268.556 169.652C268.451 169.777 268.399 169.939 268.399 170.138C268.399 170.422 268.502 170.636 268.71 170.781C268.917 170.926 269.181 170.999 269.502 170.999ZM274.109 172V165.455H275.605V166.545H275.673C275.792 166.168 275.997 165.876 276.287 165.672C276.579 165.464 276.913 165.361 277.288 165.361C277.373 165.361 277.468 165.365 277.574 165.374C277.681 165.379 277.771 165.389 277.842 165.403V166.822C277.777 166.8 277.673 166.78 277.531 166.763C277.392 166.743 277.257 166.733 277.126 166.733C276.845 166.733 276.592 166.794 276.368 166.916C276.146 167.036 275.971 167.202 275.843 167.415C275.716 167.628 275.652 167.874 275.652 168.152V172H274.109ZM281.495 172.128C280.839 172.128 280.272 171.991 279.795 171.719C279.32 171.443 278.955 171.054 278.7 170.551C278.444 170.045 278.316 169.45 278.316 168.766C278.316 168.092 278.444 167.501 278.7 166.993C278.958 166.482 279.319 166.084 279.782 165.8C280.245 165.513 280.789 165.369 281.414 165.369C281.817 165.369 282.198 165.435 282.556 165.565C282.917 165.693 283.235 165.892 283.511 166.162C283.789 166.432 284.008 166.776 284.167 167.193C284.326 167.608 284.406 168.102 284.406 168.676V169.149H279.04V168.109H282.927C282.924 167.814 282.86 167.551 282.735 167.321C282.61 167.088 282.435 166.905 282.211 166.771C281.989 166.638 281.731 166.571 281.435 166.571C281.12 166.571 280.843 166.648 280.604 166.801C280.366 166.952 280.18 167.151 280.046 167.398C279.915 167.642 279.849 167.911 279.846 168.203V169.111C279.846 169.491 279.915 169.818 280.055 170.091C280.194 170.361 280.388 170.568 280.638 170.713C280.888 170.855 281.181 170.926 281.516 170.926C281.741 170.926 281.944 170.895 282.126 170.832C282.308 170.767 282.465 170.672 282.599 170.547C282.732 170.422 282.833 170.267 282.901 170.082L284.342 170.244C284.251 170.625 284.077 170.957 283.822 171.241C283.569 171.523 283.245 171.741 282.85 171.898C282.455 172.051 282.004 172.128 281.495 172.128ZM287.253 168.165V172H285.711V163.273H287.219V166.567H287.296C287.449 166.197 287.686 165.906 288.007 165.693C288.331 165.477 288.743 165.369 289.243 165.369C289.698 165.369 290.094 165.464 290.432 165.655C290.77 165.845 291.032 166.124 291.216 166.49C291.404 166.857 291.498 167.304 291.498 167.832V172H289.955V168.071C289.955 167.631 289.841 167.288 289.614 167.044C289.39 166.797 289.074 166.673 288.668 166.673C288.395 166.673 288.151 166.733 287.935 166.852C287.722 166.969 287.554 167.138 287.432 167.359C287.313 167.581 287.253 167.849 287.253 168.165ZM295.925 172.128C295.286 172.128 294.732 171.987 294.263 171.706C293.794 171.425 293.431 171.031 293.172 170.526C292.917 170.02 292.789 169.429 292.789 168.753C292.789 168.077 292.917 167.484 293.172 166.976C293.431 166.467 293.794 166.072 294.263 165.791C294.732 165.51 295.286 165.369 295.925 165.369C296.564 165.369 297.118 165.51 297.587 165.791C298.056 166.072 298.418 166.467 298.674 166.976C298.932 167.484 299.061 168.077 299.061 168.753C299.061 169.429 298.932 170.02 298.674 170.526C298.418 171.031 298.056 171.425 297.587 171.706C297.118 171.987 296.564 172.128 295.925 172.128ZM295.934 170.892C296.28 170.892 296.57 170.797 296.803 170.607C297.036 170.413 297.209 170.155 297.323 169.831C297.439 169.507 297.498 169.146 297.498 168.749C297.498 168.348 297.439 167.986 297.323 167.662C297.209 167.335 297.036 167.075 296.803 166.882C296.57 166.689 296.28 166.592 295.934 166.592C295.578 166.592 295.283 166.689 295.047 166.882C294.814 167.075 294.64 167.335 294.523 167.662C294.409 167.986 294.353 168.348 294.353 168.749C294.353 169.146 294.409 169.507 294.523 169.831C294.64 170.155 294.814 170.413 295.047 170.607C295.283 170.797 295.578 170.892 295.934 170.892ZM304.543 169.247V165.455H306.085V172H304.589V170.837H304.521C304.374 171.203 304.131 171.503 303.793 171.736C303.457 171.969 303.044 172.085 302.553 172.085C302.124 172.085 301.744 171.99 301.415 171.8C301.088 171.607 300.832 171.327 300.648 170.96C300.463 170.591 300.371 170.145 300.371 169.622V165.455H301.913V169.384C301.913 169.798 302.027 170.128 302.254 170.372C302.482 170.616 302.78 170.739 303.149 170.739C303.376 170.739 303.597 170.683 303.81 170.572C304.023 170.462 304.197 170.297 304.334 170.078C304.473 169.857 304.543 169.58 304.543 169.247ZM312.845 167.185L311.439 167.338C311.399 167.196 311.329 167.062 311.23 166.938C311.133 166.812 311.002 166.712 310.838 166.635C310.673 166.558 310.471 166.52 310.233 166.52C309.912 166.52 309.642 166.589 309.423 166.729C309.207 166.868 309.1 167.048 309.103 167.27C309.1 167.46 309.17 167.615 309.312 167.734C309.457 167.854 309.696 167.952 310.028 168.028L311.145 168.267C311.764 168.401 312.224 168.612 312.525 168.902C312.829 169.192 312.983 169.571 312.985 170.04C312.983 170.452 312.862 170.815 312.623 171.131C312.387 171.443 312.059 171.687 311.639 171.864C311.218 172.04 310.735 172.128 310.19 172.128C309.389 172.128 308.744 171.96 308.255 171.625C307.767 171.287 307.475 170.817 307.382 170.214L308.886 170.07C308.954 170.365 309.099 170.588 309.321 170.739C309.542 170.889 309.831 170.964 310.186 170.964C310.552 170.964 310.846 170.889 311.068 170.739C311.292 170.588 311.404 170.402 311.404 170.18C311.404 169.993 311.332 169.838 311.187 169.716C311.045 169.594 310.824 169.5 310.522 169.435L309.406 169.2C308.778 169.07 308.314 168.849 308.012 168.54C307.711 168.227 307.562 167.832 307.565 167.355C307.562 166.952 307.672 166.602 307.893 166.307C308.118 166.009 308.429 165.778 308.826 165.616C309.227 165.452 309.689 165.369 310.211 165.369C310.978 165.369 311.582 165.533 312.022 165.859C312.466 166.186 312.74 166.628 312.845 167.185ZM317.155 172.128C316.499 172.128 315.932 171.991 315.455 171.719C314.98 171.443 314.615 171.054 314.36 170.551C314.104 170.045 313.976 169.45 313.976 168.766C313.976 168.092 314.104 167.501 314.36 166.993C314.618 166.482 314.979 166.084 315.442 165.8C315.905 165.513 316.449 165.369 317.074 165.369C317.478 165.369 317.858 165.435 318.216 165.565C318.577 165.693 318.895 165.892 319.171 166.162C319.449 166.432 319.668 166.776 319.827 167.193C319.986 167.608 320.066 168.102 320.066 168.676V169.149H314.701V168.109H318.587C318.584 167.814 318.52 167.551 318.395 167.321C318.27 167.088 318.096 166.905 317.871 166.771C317.65 166.638 317.391 166.571 317.096 166.571C316.78 166.571 316.503 166.648 316.265 166.801C316.026 166.952 315.84 167.151 315.706 167.398C315.576 167.642 315.509 167.911 315.506 168.203V169.111C315.506 169.491 315.576 169.818 315.715 170.091C315.854 170.361 316.049 170.568 316.299 170.713C316.549 170.855 316.841 170.926 317.176 170.926C317.401 170.926 317.604 170.895 317.786 170.832C317.968 170.767 318.125 170.672 318.259 170.547C318.392 170.422 318.493 170.267 318.561 170.082L320.002 170.244C319.911 170.625 319.738 170.957 319.482 171.241C319.229 171.523 318.905 171.741 318.51 171.898C318.115 172.051 317.664 172.128 317.155 172.128Z" fill="#CDDAED"/>
<path d="M228.818 190H225.861V181.273H228.878C229.744 181.273 230.489 181.447 231.111 181.797C231.736 182.143 232.216 182.642 232.551 183.293C232.886 183.943 233.054 184.722 233.054 185.628C233.054 186.537 232.885 187.318 232.547 187.972C232.212 188.625 231.727 189.126 231.094 189.476C230.463 189.825 229.705 190 228.818 190ZM227.442 188.632H228.741C229.349 188.632 229.857 188.521 230.263 188.3C230.669 188.075 230.974 187.741 231.179 187.298C231.384 186.852 231.486 186.295 231.486 185.628C231.486 184.96 231.384 184.406 231.179 183.966C230.974 183.523 230.672 183.192 230.271 182.973C229.874 182.751 229.379 182.641 228.788 182.641H227.442V188.632ZM236.371 190.132C235.957 190.132 235.583 190.058 235.251 189.911C234.921 189.76 234.66 189.538 234.467 189.246C234.276 188.953 234.181 188.592 234.181 188.163C234.181 187.794 234.249 187.489 234.386 187.247C234.522 187.006 234.708 186.812 234.944 186.668C235.18 186.523 235.445 186.413 235.741 186.339C236.039 186.263 236.347 186.207 236.665 186.173C237.049 186.134 237.36 186.098 237.599 186.067C237.837 186.033 238.011 185.982 238.119 185.913C238.229 185.842 238.285 185.733 238.285 185.585V185.56C238.285 185.239 238.19 184.99 237.999 184.814C237.809 184.638 237.535 184.55 237.177 184.55C236.799 184.55 236.499 184.632 236.278 184.797C236.059 184.962 235.911 185.156 235.835 185.381L234.394 185.176C234.508 184.778 234.695 184.446 234.957 184.179C235.218 183.909 235.538 183.707 235.915 183.574C236.293 183.438 236.711 183.369 237.168 183.369C237.484 183.369 237.798 183.406 238.11 183.48C238.423 183.554 238.708 183.676 238.967 183.847C239.225 184.014 239.433 184.243 239.589 184.533C239.748 184.822 239.827 185.185 239.827 185.619V190H238.344V189.101H238.293C238.2 189.283 238.067 189.453 237.897 189.612C237.729 189.768 237.518 189.895 237.262 189.991C237.009 190.085 236.712 190.132 236.371 190.132ZM236.772 188.999C237.082 188.999 237.35 188.937 237.577 188.815C237.805 188.69 237.979 188.526 238.102 188.321C238.227 188.116 238.289 187.893 238.289 187.652V186.881C238.241 186.92 238.158 186.957 238.042 186.991C237.928 187.026 237.8 187.055 237.658 187.081C237.516 187.107 237.376 187.129 237.237 187.149C237.097 187.169 236.977 187.186 236.874 187.2C236.644 187.232 236.438 187.283 236.256 187.354C236.075 187.425 235.931 187.524 235.826 187.652C235.721 187.777 235.668 187.939 235.668 188.138C235.668 188.422 235.772 188.636 235.979 188.781C236.187 188.926 236.451 188.999 236.772 188.999ZM244.647 183.455V184.648H240.884V183.455H244.647ZM241.813 181.886H243.356V188.031C243.356 188.239 243.387 188.398 243.45 188.509C243.515 188.616 243.6 188.69 243.705 188.73C243.81 188.77 243.927 188.79 244.055 188.79C244.151 188.79 244.239 188.783 244.319 188.768C244.401 188.754 244.464 188.741 244.506 188.73L244.766 189.936C244.684 189.964 244.566 189.996 244.413 190.03C244.262 190.064 244.077 190.084 243.859 190.089C243.472 190.101 243.124 190.043 242.815 189.915C242.505 189.784 242.259 189.582 242.077 189.31C241.898 189.037 241.81 188.696 241.813 188.287V181.886ZM247.821 190.132C247.406 190.132 247.032 190.058 246.7 189.911C246.37 189.76 246.109 189.538 245.916 189.246C245.725 188.953 245.63 188.592 245.63 188.163C245.63 187.794 245.699 187.489 245.835 187.247C245.971 187.006 246.157 186.812 246.393 186.668C246.629 186.523 246.895 186.413 247.19 186.339C247.488 186.263 247.797 186.207 248.115 186.173C248.498 186.134 248.809 186.098 249.048 186.067C249.287 186.033 249.46 185.982 249.568 185.913C249.679 185.842 249.734 185.733 249.734 185.585V185.56C249.734 185.239 249.639 184.99 249.449 184.814C249.258 184.638 248.984 184.55 248.626 184.55C248.248 184.55 247.949 184.632 247.727 184.797C247.508 184.962 247.36 185.156 247.284 185.381L245.843 185.176C245.957 184.778 246.145 184.446 246.406 184.179C246.667 183.909 246.987 183.707 247.365 183.574C247.743 183.438 248.16 183.369 248.618 183.369C248.933 183.369 249.247 183.406 249.559 183.48C249.872 183.554 250.157 183.676 250.416 183.847C250.674 184.014 250.882 184.243 251.038 184.533C251.197 184.822 251.277 185.185 251.277 185.619V190H249.794V189.101H249.743C249.649 189.283 249.517 189.453 249.346 189.612C249.179 189.768 248.967 189.895 248.711 189.991C248.458 190.085 248.162 190.132 247.821 190.132ZM248.221 188.999C248.531 188.999 248.799 188.937 249.027 188.815C249.254 188.69 249.429 188.526 249.551 188.321C249.676 188.116 249.738 187.893 249.738 187.652V186.881C249.69 186.92 249.608 186.957 249.491 186.991C249.377 187.026 249.25 187.055 249.108 187.081C248.966 187.107 248.825 187.129 248.686 187.149C248.547 187.169 248.426 187.186 248.324 187.2C248.093 187.232 247.887 187.283 247.706 187.354C247.524 187.425 247.38 187.524 247.275 187.652C247.17 187.777 247.118 187.939 247.118 188.138C247.118 188.422 247.221 188.636 247.429 188.781C247.636 188.926 247.9 188.999 248.221 188.999ZM255.873 190V181.273H257.453V188.675H261.297V190H255.873ZM264.485 190.132C264.07 190.132 263.696 190.058 263.364 189.911C263.034 189.76 262.773 189.538 262.58 189.246C262.39 188.953 262.294 188.592 262.294 188.163C262.294 187.794 262.363 187.489 262.499 187.247C262.635 187.006 262.821 186.812 263.057 186.668C263.293 186.523 263.559 186.413 263.854 186.339C264.152 186.263 264.461 186.207 264.779 186.173C265.162 186.134 265.473 186.098 265.712 186.067C265.951 186.033 266.124 185.982 266.232 185.913C266.343 185.842 266.398 185.733 266.398 185.585V185.56C266.398 185.239 266.303 184.99 266.113 184.814C265.922 184.638 265.648 184.55 265.29 184.55C264.912 184.55 264.613 184.632 264.391 184.797C264.172 184.962 264.025 185.156 263.948 185.381L262.507 185.176C262.621 184.778 262.809 184.446 263.07 184.179C263.331 183.909 263.651 183.707 264.029 183.574C264.407 183.438 264.824 183.369 265.282 183.369C265.597 183.369 265.911 183.406 266.223 183.48C266.536 183.554 266.821 183.676 267.08 183.847C267.338 184.014 267.546 184.243 267.702 184.533C267.861 184.822 267.941 185.185 267.941 185.619V190H266.458V189.101H266.407C266.313 189.283 266.181 189.453 266.01 189.612C265.843 189.768 265.631 189.895 265.375 189.991C265.123 190.085 264.826 190.132 264.485 190.132ZM264.885 188.999C265.195 188.999 265.463 188.937 265.691 188.815C265.918 188.69 266.093 188.526 266.215 188.321C266.34 188.116 266.402 187.893 266.402 187.652V186.881C266.354 186.92 266.272 186.957 266.155 186.991C266.042 187.026 265.914 187.055 265.772 187.081C265.63 187.107 265.489 187.129 265.35 187.149C265.211 187.169 265.09 187.186 264.988 187.2C264.757 187.232 264.551 187.283 264.37 187.354C264.188 187.425 264.044 187.524 263.939 187.652C263.834 187.777 263.782 187.939 263.782 188.138C263.782 188.422 263.885 188.636 264.093 188.781C264.3 188.926 264.564 188.999 264.885 188.999ZM270.898 187.946L270.894 186.084H271.141L273.493 183.455H275.296L272.402 186.676H272.083L270.898 187.946ZM269.492 190V181.273H271.034V190H269.492ZM273.6 190L271.469 187.021L272.509 185.935L275.445 190H273.6ZM278.952 190.128C278.296 190.128 277.729 189.991 277.252 189.719C276.777 189.443 276.412 189.054 276.157 188.551C275.901 188.045 275.773 187.45 275.773 186.766C275.773 186.092 275.901 185.501 276.157 184.993C276.415 184.482 276.776 184.084 277.239 183.8C277.702 183.513 278.246 183.369 278.871 183.369C279.275 183.369 279.655 183.435 280.013 183.565C280.374 183.693 280.692 183.892 280.968 184.162C281.246 184.432 281.465 184.776 281.624 185.193C281.783 185.608 281.863 186.102 281.863 186.676V187.149H276.498V186.109H280.384C280.381 185.814 280.317 185.551 280.192 185.321C280.067 185.088 279.892 184.905 279.668 184.771C279.446 184.638 279.188 184.571 278.892 184.571C278.577 184.571 278.3 184.648 278.061 184.801C277.823 184.952 277.637 185.151 277.503 185.398C277.373 185.642 277.306 185.911 277.303 186.203V187.111C277.303 187.491 277.373 187.818 277.512 188.091C277.651 188.361 277.846 188.568 278.096 188.713C278.346 188.855 278.638 188.926 278.973 188.926C279.198 188.926 279.401 188.895 279.583 188.832C279.765 188.767 279.922 188.672 280.056 188.547C280.189 188.422 280.29 188.267 280.358 188.082L281.799 188.244C281.708 188.625 281.534 188.957 281.279 189.241C281.026 189.523 280.702 189.741 280.307 189.898C279.912 190.051 279.461 190.128 278.952 190.128ZM284.71 186.165V190H283.168V181.273H284.676V184.567H284.753C284.906 184.197 285.143 183.906 285.464 183.693C285.788 183.477 286.2 183.369 286.7 183.369C287.155 183.369 287.551 183.464 287.889 183.655C288.227 183.845 288.489 184.124 288.673 184.49C288.861 184.857 288.955 185.304 288.955 185.832V190H287.412V186.071C287.412 185.631 287.298 185.288 287.071 185.044C286.847 184.797 286.531 184.673 286.125 184.673C285.852 184.673 285.608 184.733 285.392 184.852C285.179 184.969 285.011 185.138 284.889 185.359C284.77 185.581 284.71 185.849 284.71 186.165ZM293.382 190.128C292.743 190.128 292.189 189.987 291.72 189.706C291.251 189.425 290.888 189.031 290.629 188.526C290.374 188.02 290.246 187.429 290.246 186.753C290.246 186.077 290.374 185.484 290.629 184.976C290.888 184.467 291.251 184.072 291.72 183.791C292.189 183.51 292.743 183.369 293.382 183.369C294.021 183.369 294.575 183.51 295.044 183.791C295.513 184.072 295.875 184.467 296.131 184.976C296.389 185.484 296.518 186.077 296.518 186.753C296.518 187.429 296.389 188.02 296.131 188.526C295.875 189.031 295.513 189.425 295.044 189.706C294.575 189.987 294.021 190.128 293.382 190.128ZM293.391 188.892C293.737 188.892 294.027 188.797 294.26 188.607C294.493 188.413 294.666 188.155 294.78 187.831C294.896 187.507 294.955 187.146 294.955 186.749C294.955 186.348 294.896 185.986 294.78 185.662C294.666 185.335 294.493 185.075 294.26 184.882C294.027 184.689 293.737 184.592 293.391 184.592C293.036 184.592 292.74 184.689 292.504 184.882C292.271 185.075 292.097 185.335 291.98 185.662C291.866 185.986 291.81 186.348 291.81 186.749C291.81 187.146 291.866 187.507 291.98 187.831C292.097 188.155 292.271 188.413 292.504 188.607C292.74 188.797 293.036 188.892 293.391 188.892ZM302 187.247V183.455H303.542V190H302.047V188.837H301.978C301.831 189.203 301.588 189.503 301.25 189.736C300.914 189.969 300.501 190.085 300.01 190.085C299.581 190.085 299.201 189.99 298.872 189.8C298.545 189.607 298.289 189.327 298.105 188.96C297.92 188.591 297.828 188.145 297.828 187.622V183.455H299.37V187.384C299.37 187.798 299.484 188.128 299.711 188.372C299.939 188.616 300.237 188.739 300.606 188.739C300.833 188.739 301.054 188.683 301.267 188.572C301.48 188.462 301.654 188.297 301.791 188.078C301.93 187.857 302 187.58 302 187.247ZM310.302 185.185L308.896 185.338C308.856 185.196 308.786 185.062 308.687 184.938C308.59 184.812 308.46 184.712 308.295 184.635C308.13 184.558 307.928 184.52 307.69 184.52C307.369 184.52 307.099 184.589 306.88 184.729C306.664 184.868 306.558 185.048 306.56 185.27C306.558 185.46 306.627 185.615 306.769 185.734C306.914 185.854 307.153 185.952 307.485 186.028L308.602 186.267C309.221 186.401 309.681 186.612 309.982 186.902C310.286 187.192 310.44 187.571 310.442 188.04C310.44 188.452 310.319 188.815 310.08 189.131C309.844 189.443 309.516 189.687 309.096 189.864C308.675 190.04 308.192 190.128 307.647 190.128C306.846 190.128 306.201 189.96 305.712 189.625C305.224 189.287 304.933 188.817 304.839 188.214L306.343 188.07C306.411 188.365 306.556 188.588 306.778 188.739C306.999 188.889 307.288 188.964 307.643 188.964C308.009 188.964 308.303 188.889 308.525 188.739C308.749 188.588 308.862 188.402 308.862 188.18C308.862 187.993 308.789 187.838 308.644 187.716C308.502 187.594 308.281 187.5 307.979 187.435L306.863 187.2C306.235 187.07 305.771 186.849 305.469 186.54C305.168 186.227 305.019 185.832 305.022 185.355C305.019 184.952 305.129 184.602 305.35 184.307C305.575 184.009 305.886 183.778 306.283 183.616C306.684 183.452 307.146 183.369 307.668 183.369C308.435 183.369 309.039 183.533 309.479 183.859C309.923 184.186 310.197 184.628 310.302 185.185ZM314.612 190.128C313.956 190.128 313.389 189.991 312.912 189.719C312.438 189.443 312.072 189.054 311.817 188.551C311.561 188.045 311.433 187.45 311.433 186.766C311.433 186.092 311.561 185.501 311.817 184.993C312.075 184.482 312.436 184.084 312.899 183.8C313.362 183.513 313.906 183.369 314.531 183.369C314.935 183.369 315.315 183.435 315.673 183.565C316.034 183.693 316.352 183.892 316.628 184.162C316.906 184.432 317.125 184.776 317.284 185.193C317.443 185.608 317.523 186.102 317.523 186.676V187.149H312.158V186.109H316.044C316.041 185.814 315.977 185.551 315.852 185.321C315.727 185.088 315.553 184.905 315.328 184.771C315.107 184.638 314.848 184.571 314.553 184.571C314.237 184.571 313.96 184.648 313.722 184.801C313.483 184.952 313.297 185.151 313.163 185.398C313.033 185.642 312.966 185.911 312.963 186.203V187.111C312.963 187.491 313.033 187.818 313.172 188.091C313.311 188.361 313.506 188.568 313.756 188.713C314.006 188.855 314.298 188.926 314.634 188.926C314.858 188.926 315.061 188.895 315.243 188.832C315.425 188.767 315.582 188.672 315.716 188.547C315.849 188.422 315.95 188.267 316.018 188.082L317.459 188.244C317.368 188.625 317.195 188.957 316.939 189.241C316.686 189.523 316.362 189.741 315.967 189.898C315.572 190.051 315.121 190.128 314.612 190.128Z" fill="#CDDAED"/>
<g opacity="0.51">
<mask id="mask1_151_2663" style="mask-type:alpha" maskUnits="userSpaceOnUse" x="17" y="72" width="196" height="196">
<path d="M20.0914 192.631C7.71203 140.144 40.1958 87.5514 92.6458 75.1632C145.096 62.775 197.65 95.282 210.03 147.77C222.409 200.257 189.925 252.85 137.475 265.238C85.0253 277.626 32.4707 245.119 20.0914 192.631Z" fill="black"/>
</mask>
<g mask="url(#mask1_151_2663)">
<path style="mix-blend-mode:screen" d="M20.0914 192.631C7.71203 140.144 40.1958 87.5514 92.6458 75.1632C145.096 62.775 197.65 95.282 210.03 147.77C222.409 200.257 189.925 252.85 137.475 265.238C85.0253 277.626 32.4707 245.119 20.0914 192.631Z" fill="url(#paint8_radial_151_2663)"/>
<path style="mix-blend-mode:screen" d="M114.418 263.529C139.628 263.532 163.852 252.807 181.829 235.12C199.805 217.434 210.117 193.386 210.541 168.162C210.541 168.709 210.541 169.255 210.541 169.802C210.541 195.313 200.413 219.78 182.387 237.819C164.361 255.858 139.912 265.993 114.418 265.993C88.9252 265.993 64.4761 255.858 46.4497 237.819C28.4233 219.78 18.2962 195.313 18.2962 169.802C18.2962 169.255 18.2962 168.709 18.2962 168.162C18.7143 193.396 29.0303 217.454 47.0178 235.143C65.0053 252.832 89.199 263.55 114.418 263.529Z" fill="url(#paint9_linear_151_2663)"/>
<path style="mix-blend-mode:screen" d="M114.999 77.6957C89.4239 77.7037 64.8404 88.2738 46.5996 106.212C28.3588 124.151 17.8847 148.539 17.4314 174.128C17.4314 173.559 17.4314 172.99 17.4314 172.42C17.8227 146.784 28.2742 122.329 46.529 104.338C64.7838 86.3474 89.3773 76.263 114.999 76.263C140.62 76.263 165.213 86.3474 183.468 104.338C201.723 122.329 212.175 146.784 212.566 172.42C212.566 172.99 212.566 173.559 212.566 174.128C212.124 148.524 201.644 124.119 183.386 106.175C165.128 88.2324 140.589 77.674 114.999 77.6957Z" fill="url(#paint10_linear_151_2663)"/>
<path style="mix-blend-mode:screen" d="M179.274 117.675C165.62 84.0403 121.2 70.354 80.0111 87.0918C38.8223 103.83 16.4758 144.638 30.1067 178.182C43.7377 211.726 88.2033 225.503 129.392 208.765C170.581 192.028 192.905 151.288 179.274 117.675Z" fill="url(#paint11_linear_151_2663)"/>
<path style="mix-blend-mode:color-dodge" d="M79.1416 266.744C95.0709 258.386 94.2972 225.412 77.3894 193.12C60.4815 160.829 33.8568 141.404 17.9047 149.853C1.95261 158.301 2.74906 191.162 19.6569 223.476C36.5648 255.79 63.1895 275.101 79.1416 266.744Z" fill="url(#paint12_radial_151_2663)"/>
<path style="mix-blend-mode:color-dodge" d="M26.6477 241.444C22.5971 267.496 58.074 294.64 105.862 302.11C153.65 309.579 195.703 294.504 199.754 268.475C203.805 242.446 168.351 215.301 120.54 207.854C72.729 200.408 30.7666 215.415 26.6477 241.444Z" fill="url(#paint13_radial_151_2663)"/>
<path style="mix-blend-mode:color-dodge" d="M17.5224 245.634C43.5328 249.688 70.6581 214.208 78.1222 166.386C85.5862 118.563 70.5444 76.4798 44.4202 72.4263C18.2961 68.3728 -8.73823 103.852 -16.2023 151.675C-23.6663 199.497 -8.48791 241.581 17.5224 245.634Z" fill="url(#paint14_radial_151_2663)"/>
<path style="mix-blend-mode:color-dodge" d="M185.759 86.1548C187.784 68.2329 159.931 50.4703 123.703 46.599C87.4748 42.7276 56.5264 53.9773 54.5694 71.8765C52.6124 89.7757 80.4204 107.402 116.648 111.432C152.876 115.463 183.825 104.054 185.759 86.1548Z" fill="url(#paint15_radial_151_2663)"/>
</g>
</g>
<path d="M29.8608 174V165.273H33.1335C33.804 165.273 34.3665 165.389 34.821 165.622C35.2784 165.855 35.6236 166.182 35.8565 166.602C36.0923 167.02 36.2102 167.507 36.2102 168.064C36.2102 168.624 36.0909 169.109 35.8523 169.521C35.6165 169.93 35.2685 170.247 34.8082 170.472C34.348 170.693 33.7827 170.804 33.1122 170.804H30.7812V169.491H32.8991C33.2912 169.491 33.6122 169.437 33.8622 169.33C34.1122 169.219 34.2969 169.058 34.4162 168.848C34.5384 168.635 34.5994 168.374 34.5994 168.064C34.5994 167.754 34.5384 167.49 34.4162 167.271C34.294 167.05 34.108 166.882 33.858 166.768C33.608 166.652 33.2855 166.594 32.8906 166.594H31.4418V174H29.8608ZM34.3693 170.045L36.5298 174H34.7656L32.6435 170.045H34.3693ZM40.4013 174.128C39.745 174.128 39.1783 173.991 38.701 173.719C38.2266 173.443 37.8615 173.054 37.6058 172.551C37.3501 172.045 37.2223 171.45 37.2223 170.766C37.2223 170.092 37.3501 169.501 37.6058 168.993C37.8643 168.482 38.2251 168.084 38.6882 167.8C39.1513 167.513 39.6953 167.369 40.3203 167.369C40.7237 167.369 41.1044 167.435 41.4624 167.565C41.8232 167.693 42.1413 167.892 42.4169 168.162C42.6953 168.432 42.9141 168.776 43.0732 169.193C43.2322 169.608 43.3118 170.102 43.3118 170.676V171.149H37.9467V170.109H41.8331C41.8303 169.814 41.7663 169.551 41.6413 169.321C41.5163 169.088 41.3416 168.905 41.1172 168.771C40.8956 168.638 40.6371 168.571 40.3416 168.571C40.0263 168.571 39.7493 168.648 39.5107 168.801C39.272 168.952 39.0859 169.151 38.9524 169.398C38.8217 169.642 38.755 169.911 38.7521 170.203V171.111C38.7521 171.491 38.8217 171.818 38.9609 172.091C39.1001 172.361 39.2947 172.568 39.5447 172.713C39.7947 172.855 40.0874 172.926 40.4226 172.926C40.647 172.926 40.8501 172.895 41.032 172.832C41.2138 172.767 41.3714 172.672 41.505 172.547C41.6385 172.422 41.7393 172.267 41.8075 172.082L43.2479 172.244C43.157 172.625 42.9837 172.957 42.728 173.241C42.4751 173.523 42.1513 173.741 41.7564 173.898C41.3615 174.051 40.9098 174.128 40.4013 174.128ZM46.5004 174.132C46.0856 174.132 45.712 174.058 45.3796 173.911C45.0501 173.76 44.7887 173.538 44.5955 173.246C44.4052 172.953 44.31 172.592 44.31 172.163C44.31 171.794 44.3782 171.489 44.5146 171.247C44.6509 171.006 44.837 170.812 45.0728 170.668C45.3086 170.523 45.5742 170.413 45.8697 170.339C46.168 170.263 46.4762 170.207 46.7944 170.173C47.1779 170.134 47.489 170.098 47.7276 170.067C47.9663 170.033 48.1396 169.982 48.2475 169.913C48.3583 169.842 48.4137 169.733 48.4137 169.585V169.56C48.4137 169.239 48.3185 168.99 48.1282 168.814C47.9379 168.638 47.6637 168.55 47.3058 168.55C46.9279 168.55 46.6282 168.632 46.4066 168.797C46.1879 168.962 46.0401 169.156 45.9634 169.381L44.5231 169.176C44.6367 168.778 44.8242 168.446 45.0856 168.179C45.3469 167.909 45.6665 167.707 46.0444 167.574C46.4222 167.438 46.8398 167.369 47.2972 167.369C47.6126 167.369 47.9265 167.406 48.239 167.48C48.5515 167.554 48.837 167.676 49.0955 167.847C49.354 168.014 49.5614 168.243 49.7177 168.533C49.8768 168.822 49.9563 169.185 49.9563 169.619V174H48.4734V173.101H48.4222C48.3285 173.283 48.1964 173.453 48.0259 173.612C47.8583 173.768 47.6467 173.895 47.391 173.991C47.1381 174.085 46.8413 174.132 46.5004 174.132ZM46.9009 172.999C47.2106 172.999 47.479 172.937 47.7063 172.815C47.9336 172.69 48.1083 172.526 48.2305 172.321C48.3555 172.116 48.418 171.893 48.418 171.652V170.881C48.3697 170.92 48.2873 170.957 48.1708 170.991C48.0572 171.026 47.9293 171.055 47.7873 171.081C47.6452 171.107 47.5046 171.129 47.3654 171.149C47.2262 171.169 47.1055 171.186 47.0032 171.2C46.7731 171.232 46.5671 171.283 46.3853 171.354C46.2035 171.425 46.06 171.524 45.9549 171.652C45.8498 171.777 45.7972 171.939 45.7972 172.138C45.7972 172.422 45.9009 172.636 46.1083 172.781C46.3157 172.926 46.5799 172.999 46.9009 172.999ZM53.0501 165.273V174H51.5075V165.273H53.0501ZM57.9048 167.455V168.648H54.142V167.455H57.9048ZM55.071 165.886H56.6136V172.031C56.6136 172.239 56.6449 172.398 56.7074 172.509C56.7727 172.616 56.858 172.69 56.9631 172.73C57.0682 172.77 57.1847 172.79 57.3125 172.79C57.4091 172.79 57.4972 172.783 57.5767 172.768C57.6591 172.754 57.7216 172.741 57.7642 172.73L58.0241 173.936C57.9418 173.964 57.8239 173.996 57.6705 174.03C57.5199 174.064 57.3352 174.084 57.1165 174.089C56.7301 174.101 56.3821 174.043 56.0724 173.915C55.7628 173.784 55.517 173.582 55.3352 173.31C55.1563 173.037 55.0682 172.696 55.071 172.287V165.886ZM59.195 174V167.455H60.7376V174H59.195ZM59.9705 166.526C59.7262 166.526 59.516 166.445 59.3398 166.283C59.1637 166.118 59.0756 165.92 59.0756 165.69C59.0756 165.457 59.1637 165.26 59.3398 165.098C59.516 164.933 59.7262 164.851 59.9705 164.851C60.2177 164.851 60.4279 164.933 60.6012 165.098C60.7773 165.26 60.8654 165.457 60.8654 165.69C60.8654 165.92 60.7773 166.118 60.6012 166.283C60.4279 166.445 60.2177 166.526 59.9705 166.526ZM62.3239 174V167.455H63.7983V168.567H63.875C64.0114 168.192 64.2372 167.899 64.5526 167.689C64.8679 167.476 65.2443 167.369 65.6818 167.369C66.125 167.369 66.4986 167.477 66.8026 167.693C67.1094 167.906 67.3253 168.197 67.4503 168.567H67.5185C67.6634 168.203 67.9077 167.913 68.2514 167.697C68.598 167.479 69.0085 167.369 69.483 167.369C70.0852 167.369 70.5767 167.56 70.9574 167.94C71.3381 168.321 71.5284 168.876 71.5284 169.607V174H69.9815V169.845C69.9815 169.439 69.8736 169.142 69.6577 168.955C69.4418 168.764 69.1776 168.669 68.8651 168.669C68.4929 168.669 68.2017 168.786 67.9915 169.018C67.7841 169.249 67.6804 169.548 67.6804 169.918V174H66.1676V169.781C66.1676 169.443 66.0653 169.173 65.8608 168.972C65.6591 168.77 65.3949 168.669 65.0682 168.669C64.8466 168.669 64.6449 168.726 64.4631 168.839C64.2813 168.95 64.1364 169.108 64.0284 169.312C63.9205 169.514 63.8665 169.75 63.8665 170.02V174H62.3239ZM75.9911 174.128C75.3349 174.128 74.7681 173.991 74.2908 173.719C73.8164 173.443 73.4513 173.054 73.1957 172.551C72.94 172.045 72.8121 171.45 72.8121 170.766C72.8121 170.092 72.94 169.501 73.1957 168.993C73.4542 168.482 73.815 168.084 74.2781 167.8C74.7411 167.513 75.2852 167.369 75.9102 167.369C76.3136 167.369 76.6942 167.435 77.0522 167.565C77.413 167.693 77.7312 167.892 78.0067 168.162C78.2852 168.432 78.5039 168.776 78.663 169.193C78.8221 169.608 78.9016 170.102 78.9016 170.676V171.149H73.5366V170.109H77.4229C77.4201 169.814 77.3562 169.551 77.2312 169.321C77.1062 169.088 76.9315 168.905 76.707 168.771C76.4854 168.638 76.2269 168.571 75.9315 168.571C75.6161 168.571 75.3391 168.648 75.1005 168.801C74.8619 168.952 74.6758 169.151 74.5423 169.398C74.4116 169.642 74.3448 169.911 74.342 170.203V171.111C74.342 171.491 74.4116 171.818 74.5508 172.091C74.69 172.361 74.8846 172.568 75.1346 172.713C75.3846 172.855 75.6772 172.926 76.0124 172.926C76.2369 172.926 76.44 172.895 76.6218 172.832C76.8036 172.767 76.9613 172.672 77.0948 172.547C77.2283 172.422 77.3292 172.267 77.3974 172.082L78.8377 172.244C78.7468 172.625 78.5735 172.957 78.3178 173.241C78.065 173.523 77.7411 173.741 77.3462 173.898C76.9513 174.051 76.4996 174.128 75.9911 174.128ZM86.2088 174H83.2514V165.273H86.2685C87.1349 165.273 87.8793 165.447 88.5014 165.797C89.1264 166.143 89.6065 166.642 89.9418 167.293C90.277 167.943 90.4446 168.722 90.4446 169.628C90.4446 170.537 90.2756 171.318 89.9375 171.972C89.6023 172.625 89.1179 173.126 88.4844 173.476C87.8537 173.825 87.0952 174 86.2088 174ZM84.8324 172.632H86.1321C86.7401 172.632 87.2472 172.521 87.6534 172.3C88.0597 172.075 88.3651 171.741 88.5696 171.298C88.7741 170.852 88.8764 170.295 88.8764 169.628C88.8764 168.96 88.7741 168.406 88.5696 167.966C88.3651 167.523 88.0625 167.192 87.6619 166.973C87.2642 166.751 86.7699 166.641 86.179 166.641H84.8324V172.632ZM93.7621 174.132C93.3473 174.132 92.9737 174.058 92.6413 173.911C92.3118 173.76 92.0504 173.538 91.8572 173.246C91.6669 172.953 91.5717 172.592 91.5717 172.163C91.5717 171.794 91.6399 171.489 91.7763 171.247C91.9126 171.006 92.0987 170.812 92.3345 170.668C92.5703 170.523 92.8359 170.413 93.1314 170.339C93.4297 170.263 93.7379 170.207 94.0561 170.173C94.4396 170.134 94.7507 170.098 94.9893 170.067C95.228 170.033 95.4013 169.982 95.5092 169.913C95.62 169.842 95.6754 169.733 95.6754 169.585V169.56C95.6754 169.239 95.5803 168.99 95.3899 168.814C95.1996 168.638 94.9254 168.55 94.5675 168.55C94.1896 168.55 93.8899 168.632 93.6683 168.797C93.4496 168.962 93.3018 169.156 93.2251 169.381L91.7848 169.176C91.8984 168.778 92.0859 168.446 92.3473 168.179C92.6087 167.909 92.9283 167.707 93.3061 167.574C93.6839 167.438 94.1016 167.369 94.5589 167.369C94.8743 167.369 95.1882 167.406 95.5007 167.48C95.8132 167.554 96.0987 167.676 96.3572 167.847C96.6158 168.014 96.8232 168.243 96.9794 168.533C97.1385 168.822 97.218 169.185 97.218 169.619V174H95.7351V173.101H95.6839C95.5902 173.283 95.4581 173.453 95.2876 173.612C95.12 173.768 94.9084 173.895 94.6527 173.991C94.3999 174.085 94.103 174.132 93.7621 174.132ZM94.1626 172.999C94.4723 172.999 94.7408 172.937 94.968 172.815C95.1953 172.69 95.37 172.526 95.4922 172.321C95.6172 172.116 95.6797 171.893 95.6797 171.652V170.881C95.6314 170.92 95.549 170.957 95.4325 170.991C95.3189 171.026 95.1911 171.055 95.049 171.081C94.907 171.107 94.7663 171.129 94.6271 171.149C94.4879 171.169 94.3672 171.186 94.2649 171.2C94.0348 171.232 93.8288 171.283 93.647 171.354C93.4652 171.425 93.3217 171.524 93.2166 171.652C93.1115 171.777 93.0589 171.939 93.0589 172.138C93.0589 172.422 93.1626 172.636 93.37 172.781C93.5774 172.926 93.8416 172.999 94.1626 172.999ZM102.038 167.455V168.648H98.2749V167.455H102.038ZM99.2038 165.886H100.746V172.031C100.746 172.239 100.778 172.398 100.84 172.509C100.906 172.616 100.991 172.69 101.096 172.73C101.201 172.77 101.317 172.79 101.445 172.79C101.542 172.79 101.63 172.783 101.71 172.768C101.792 172.754 101.854 172.741 101.897 172.73L102.157 173.936C102.075 173.964 101.957 173.996 101.803 174.03C101.653 174.064 101.468 174.084 101.249 174.089C100.863 174.101 100.515 174.043 100.205 173.915C99.8956 173.784 99.6499 173.582 99.468 173.31C99.2891 173.037 99.201 172.696 99.2038 172.287V165.886ZM105.211 174.132C104.797 174.132 104.423 174.058 104.091 173.911C103.761 173.76 103.5 173.538 103.306 173.246C103.116 172.953 103.021 172.592 103.021 172.163C103.021 171.794 103.089 171.489 103.225 171.247C103.362 171.006 103.548 170.812 103.784 170.668C104.02 170.523 104.285 170.413 104.581 170.339C104.879 170.263 105.187 170.207 105.505 170.173C105.889 170.134 106.2 170.098 106.439 170.067C106.677 170.033 106.85 169.982 106.958 169.913C107.069 169.842 107.125 169.733 107.125 169.585V169.56C107.125 169.239 107.029 168.99 106.839 168.814C106.649 168.638 106.375 168.55 106.017 168.55C105.639 168.55 105.339 168.632 105.118 168.797C104.899 168.962 104.751 169.156 104.674 169.381L103.234 169.176C103.348 168.778 103.535 168.446 103.797 168.179C104.058 167.909 104.377 167.707 104.755 167.574C105.133 167.438 105.551 167.369 106.008 167.369C106.324 167.369 106.637 167.406 106.95 167.48C107.262 167.554 107.548 167.676 107.806 167.847C108.065 168.014 108.272 168.243 108.429 168.533C108.588 168.822 108.667 169.185 108.667 169.619V174H107.184V173.101H107.133C107.039 173.283 106.907 173.453 106.737 173.612C106.569 173.768 106.358 173.895 106.102 173.991C105.849 174.085 105.552 174.132 105.211 174.132ZM105.612 172.999C105.922 172.999 106.19 172.937 106.417 172.815C106.645 172.69 106.819 172.526 106.941 172.321C107.066 172.116 107.129 171.893 107.129 171.652V170.881C107.081 170.92 106.998 170.957 106.882 170.991C106.768 171.026 106.64 171.055 106.498 171.081C106.356 171.107 106.216 171.129 106.076 171.149C105.937 171.169 105.816 171.186 105.714 171.2C105.484 171.232 105.278 171.283 105.096 171.354C104.914 171.425 104.771 171.524 104.666 171.652C104.561 171.777 104.508 171.939 104.508 172.138C104.508 172.422 104.612 172.636 104.819 172.781C105.027 172.926 105.291 172.999 105.612 172.999ZM110.287 174V165.273H111.829V168.537H111.893C111.973 168.378 112.085 168.209 112.23 168.03C112.375 167.848 112.571 167.693 112.818 167.565C113.065 167.435 113.38 167.369 113.764 167.369C114.27 167.369 114.725 167.499 115.132 167.757C115.541 168.013 115.865 168.392 116.103 168.895C116.345 169.395 116.466 170.009 116.466 170.736C116.466 171.455 116.348 172.065 116.112 172.568C115.876 173.071 115.555 173.455 115.149 173.719C114.743 173.983 114.282 174.115 113.768 174.115C113.393 174.115 113.082 174.053 112.835 173.928C112.588 173.803 112.389 173.652 112.238 173.476C112.091 173.297 111.975 173.128 111.893 172.969H111.804V174H110.287ZM111.799 170.727C111.799 171.151 111.859 171.521 111.978 171.839C112.1 172.158 112.275 172.406 112.502 172.585C112.733 172.761 113.011 172.849 113.338 172.849C113.679 172.849 113.964 172.759 114.194 172.577C114.424 172.392 114.598 172.141 114.714 171.822C114.833 171.501 114.893 171.136 114.893 170.727C114.893 170.321 114.835 169.96 114.718 169.645C114.602 169.33 114.429 169.082 114.199 168.903C113.968 168.724 113.681 168.635 113.338 168.635C113.008 168.635 112.728 168.722 112.498 168.895C112.268 169.068 112.093 169.311 111.974 169.624C111.858 169.936 111.799 170.304 111.799 170.727ZM119.661 174.132C119.246 174.132 118.872 174.058 118.54 173.911C118.21 173.76 117.949 173.538 117.756 173.246C117.565 172.953 117.47 172.592 117.47 172.163C117.47 171.794 117.538 171.489 117.675 171.247C117.811 171.006 117.997 170.812 118.233 170.668C118.469 170.523 118.734 170.413 119.03 170.339C119.328 170.263 119.636 170.207 119.955 170.173C120.338 170.134 120.649 170.098 120.888 170.067C121.126 170.033 121.3 169.982 121.408 169.913C121.518 169.842 121.574 169.733 121.574 169.585V169.56C121.574 169.239 121.479 168.99 121.288 168.814C121.098 168.638 120.824 168.55 120.466 168.55C120.088 168.55 119.788 168.632 119.567 168.797C119.348 168.962 119.2 169.156 119.124 169.381L117.683 169.176C117.797 168.778 117.984 168.446 118.246 168.179C118.507 167.909 118.827 167.707 119.205 167.574C119.582 167.438 120 167.369 120.457 167.369C120.773 167.369 121.087 167.406 121.399 167.48C121.712 167.554 121.997 167.676 122.256 167.847C122.514 168.014 122.722 168.243 122.878 168.533C123.037 168.822 123.116 169.185 123.116 169.619V174H121.634V173.101H121.582C121.489 173.283 121.357 173.453 121.186 173.612C121.018 173.768 120.807 173.895 120.551 173.991C120.298 174.085 120.001 174.132 119.661 174.132ZM120.061 172.999C120.371 172.999 120.639 172.937 120.866 172.815C121.094 172.69 121.268 172.526 121.391 172.321C121.516 172.116 121.578 171.893 121.578 171.652V170.881C121.53 170.92 121.447 170.957 121.331 170.991C121.217 171.026 121.089 171.055 120.947 171.081C120.805 171.107 120.665 171.129 120.526 171.149C120.386 171.169 120.266 171.186 120.163 171.2C119.933 171.232 119.727 171.283 119.545 171.354C119.364 171.425 119.22 171.524 119.115 171.652C119.01 171.777 118.957 171.939 118.957 172.138C118.957 172.422 119.061 172.636 119.268 172.781C119.476 172.926 119.74 172.999 120.061 172.999ZM129.841 169.185L128.435 169.338C128.395 169.196 128.325 169.062 128.226 168.938C128.129 168.812 127.999 168.712 127.834 168.635C127.669 168.558 127.467 168.52 127.229 168.52C126.908 168.52 126.638 168.589 126.419 168.729C126.203 168.868 126.097 169.048 126.099 169.27C126.097 169.46 126.166 169.615 126.308 169.734C126.453 169.854 126.692 169.952 127.024 170.028L128.141 170.267C128.76 170.401 129.22 170.612 129.521 170.902C129.825 171.192 129.979 171.571 129.982 172.04C129.979 172.452 129.858 172.815 129.619 173.131C129.384 173.443 129.055 173.687 128.635 173.864C128.214 174.04 127.732 174.128 127.186 174.128C126.385 174.128 125.74 173.96 125.251 173.625C124.763 173.287 124.472 172.817 124.378 172.214L125.882 172.07C125.95 172.365 126.095 172.588 126.317 172.739C126.538 172.889 126.827 172.964 127.182 172.964C127.548 172.964 127.842 172.889 128.064 172.739C128.288 172.588 128.401 172.402 128.401 172.18C128.401 171.993 128.328 171.838 128.183 171.716C128.041 171.594 127.82 171.5 127.518 171.435L126.402 171.2C125.774 171.07 125.31 170.849 125.009 170.54C124.707 170.227 124.558 169.832 124.561 169.355C124.558 168.952 124.668 168.602 124.889 168.307C125.114 168.009 125.425 167.778 125.822 167.616C126.223 167.452 126.685 167.369 127.207 167.369C127.974 167.369 128.578 167.533 129.018 167.859C129.462 168.186 129.736 168.628 129.841 169.185ZM134.151 174.128C133.495 174.128 132.928 173.991 132.451 173.719C131.977 173.443 131.612 173.054 131.356 172.551C131.1 172.045 130.972 171.45 130.972 170.766C130.972 170.092 131.1 169.501 131.356 168.993C131.614 168.482 131.975 168.084 132.438 167.8C132.901 167.513 133.445 167.369 134.07 167.369C134.474 167.369 134.854 167.435 135.212 167.565C135.573 167.693 135.891 167.892 136.167 168.162C136.445 168.432 136.664 168.776 136.823 169.193C136.982 169.608 137.062 170.102 137.062 170.676V171.149H131.697V170.109H135.583C135.58 169.814 135.516 169.551 135.391 169.321C135.266 169.088 135.092 168.905 134.867 168.771C134.646 168.638 134.387 168.571 134.092 168.571C133.776 168.571 133.499 168.648 133.261 168.801C133.022 168.952 132.836 169.151 132.702 169.398C132.572 169.642 132.505 169.911 132.502 170.203V171.111C132.502 171.491 132.572 171.818 132.711 172.091C132.85 172.361 133.045 172.568 133.295 172.713C133.545 172.855 133.837 172.926 134.173 172.926C134.397 172.926 134.6 172.895 134.782 172.832C134.964 172.767 135.121 172.672 135.255 172.547C135.388 172.422 135.489 172.267 135.558 172.082L136.998 172.244C136.907 172.625 136.734 172.957 136.478 173.241C136.225 173.523 135.901 173.741 135.506 173.898C135.112 174.051 134.66 174.128 134.151 174.128Z" fill="#CDDAED"/>
<mask id="path-22-outside-1_151_2663" maskUnits="userSpaceOnUse" x="149.605" y="101.826" width="62" height="137" fill="black">
<rect fill="white" x="149.605" y="101.826" width="62" height="137"/>
<path fill-rule="evenodd" clip-rule="evenodd" d="M180.426 235.826C162.781 219.952 151.605 196.416 151.605 170.145C151.605 143.875 162.781 120.338 180.426 104.465C198.072 120.338 209.248 143.875 209.248 170.145C209.248 196.416 198.072 219.952 180.426 235.826Z"/>
</mask>
<path fill-rule="evenodd" clip-rule="evenodd" d="M180.426 235.826C162.781 219.952 151.605 196.416 151.605 170.145C151.605 143.875 162.781 120.338 180.426 104.465C198.072 120.338 209.248 143.875 209.248 170.145C209.248 196.416 198.072 219.952 180.426 235.826Z" fill="url(#paint16_radial_151_2663)" fill-opacity="0.9"/>
<path d="M180.426 235.826L179.222 237.164L180.426 238.247L181.63 237.164L180.426 235.826ZM180.426 104.465L181.63 103.127L180.426 102.044L179.222 103.127L180.426 104.465ZM181.63 234.487C164.36 218.951 153.405 195.899 153.405 170.145L149.805 170.145C149.805 196.932 161.202 220.953 179.222 237.164L181.63 234.487ZM153.405 170.145C153.405 144.392 164.36 121.339 181.63 105.803L179.222 103.127C161.202 119.337 149.805 143.359 149.805 170.145L153.405 170.145ZM179.222 105.803C196.493 121.339 207.448 144.392 207.448 170.145L211.048 170.145C211.048 143.359 199.65 119.337 181.63 103.127L179.222 105.803ZM207.448 170.145C207.448 195.899 196.493 218.951 179.222 234.487L181.63 237.164C199.65 220.953 211.048 196.932 211.048 170.145L207.448 170.145Z" fill="#6DDCFF" mask="url(#path-22-outside-1_151_2663)"/>
<path d="M159.4 174H157.422L160.435 165.273H162.813L165.821 174H163.844L161.658 167.267H161.59L159.4 174ZM159.276 170.57H163.946V172.01H159.276V170.57ZM168.483 172.116L168.487 169.939H168.751L170.848 167.455H172.931L170.115 170.744H169.684L168.483 172.116ZM166.838 174V165.273H168.653V174H166.838ZM170.929 174L169.002 171.149L170.213 169.866L173.055 174H170.929ZM175.689 174.124C175.271 174.124 174.899 174.051 174.572 173.906C174.245 173.759 173.987 173.541 173.797 173.254C173.609 172.964 173.515 172.604 173.515 172.172C173.515 171.808 173.582 171.503 173.716 171.256C173.849 171.009 174.031 170.81 174.261 170.659C174.491 170.509 174.752 170.395 175.045 170.318C175.341 170.241 175.65 170.188 175.974 170.156C176.355 170.116 176.662 170.08 176.895 170.045C177.127 170.009 177.297 169.955 177.402 169.884C177.507 169.812 177.559 169.707 177.559 169.568V169.543C177.559 169.273 177.474 169.064 177.304 168.916C177.136 168.768 176.897 168.695 176.588 168.695C176.261 168.695 176.001 168.767 175.808 168.912C175.615 169.054 175.487 169.233 175.424 169.449L173.745 169.312C173.831 168.915 173.998 168.571 174.248 168.281C174.498 167.989 174.821 167.764 175.216 167.608C175.613 167.449 176.074 167.369 176.596 167.369C176.96 167.369 177.308 167.412 177.64 167.497C177.975 167.582 178.272 167.714 178.531 167.893C178.792 168.072 178.998 168.303 179.149 168.584C179.299 168.862 179.375 169.196 179.375 169.585V174H177.653V173.092H177.602C177.497 173.297 177.356 173.477 177.18 173.634C177.004 173.787 176.792 173.908 176.545 173.996C176.298 174.081 176.012 174.124 175.689 174.124ZM176.208 172.871C176.475 172.871 176.711 172.818 176.916 172.713C177.12 172.605 177.281 172.46 177.397 172.278C177.514 172.097 177.572 171.891 177.572 171.661V170.966C177.515 171.003 177.437 171.037 177.338 171.068C177.241 171.097 177.132 171.124 177.01 171.149C176.887 171.172 176.765 171.193 176.643 171.213C176.521 171.23 176.41 171.246 176.311 171.26C176.098 171.291 175.912 171.341 175.752 171.409C175.593 171.477 175.47 171.57 175.382 171.686C175.294 171.8 175.25 171.942 175.25 172.112C175.25 172.359 175.339 172.548 175.518 172.679C175.7 172.807 175.93 172.871 176.208 172.871ZM186.229 169.321L184.567 169.423C184.539 169.281 184.478 169.153 184.384 169.04C184.29 168.923 184.167 168.831 184.013 168.763C183.863 168.692 183.682 168.656 183.472 168.656C183.191 168.656 182.953 168.716 182.76 168.835C182.567 168.952 182.471 169.108 182.471 169.304C182.471 169.46 182.533 169.592 182.658 169.7C182.783 169.808 182.998 169.895 183.301 169.96L184.486 170.199C185.123 170.33 185.597 170.54 185.909 170.83C186.222 171.119 186.378 171.5 186.378 171.972C186.378 172.401 186.252 172.777 185.999 173.101C185.749 173.425 185.405 173.678 184.968 173.859C184.533 174.038 184.032 174.128 183.463 174.128C182.597 174.128 181.907 173.947 181.392 173.587C180.881 173.223 180.581 172.729 180.493 172.104L182.279 172.01C182.333 172.274 182.463 172.476 182.671 172.615C182.878 172.751 183.144 172.82 183.468 172.82C183.786 172.82 184.042 172.759 184.235 172.636C184.431 172.511 184.53 172.351 184.533 172.155C184.53 171.99 184.461 171.855 184.324 171.75C184.188 171.642 183.978 171.56 183.694 171.503L182.56 171.277C181.921 171.149 181.445 170.928 181.132 170.612C180.823 170.297 180.668 169.895 180.668 169.406C180.668 168.986 180.782 168.624 181.009 168.32C181.239 168.016 181.561 167.781 181.976 167.616C182.394 167.452 182.882 167.369 183.442 167.369C184.269 167.369 184.919 167.544 185.394 167.893C185.871 168.243 186.15 168.719 186.229 169.321ZM189.337 170.216V174H187.521V165.273H189.286V168.609H189.362C189.51 168.223 189.749 167.92 190.078 167.702C190.408 167.48 190.821 167.369 191.318 167.369C191.773 167.369 192.169 167.469 192.507 167.668C192.848 167.864 193.112 168.146 193.3 168.516C193.49 168.882 193.584 169.321 193.581 169.832V174H191.766V170.156C191.768 169.753 191.666 169.439 191.459 169.214C191.254 168.99 190.967 168.878 190.598 168.878C190.351 168.878 190.132 168.93 189.942 169.036C189.754 169.141 189.607 169.294 189.499 169.496C189.393 169.695 189.339 169.935 189.337 170.216ZM196.774 165.273L198.534 168.247H198.602L200.37 165.273H202.454L199.791 169.636L202.514 174H200.392L198.602 171.021H198.534L196.744 174H194.63L197.362 169.636L194.681 165.273H196.774Z" fill="#F4F8FF"/>
<path d="M193.133 156.023L186.626 143.359L184.994 144.135L189.859 153.602C190.023 153.847 189.654 153.796 189.654 153.796C184.019 153.735 181.74 148.006 181.74 148.006L184.409 142.889L189.079 140.918L184.768 139.673L180.703 131.829L176.629 139.713L172.338 140.918L177.121 142.951L179.687 148.067C176.608 154.256 171.784 153.827 171.784 153.827C171.445 153.847 171.568 153.664 171.568 153.664L176.413 144.135L174.843 143.339L168.233 156.217H172.626C178.055 156.217 180.58 150.232 180.58 150.232C180.693 149.936 180.806 150.273 180.806 150.273C183.752 156.237 188.042 156.217 188.042 156.217H192.969C193.298 156.227 193.133 156.023 193.133 156.023ZM180.734 146.014L178.117 140.939L180.714 135.863L183.352 140.939L180.734 146.014Z" fill="#EEEBFF"/>
<path d="M180 96.802V7.53623" stroke="#6B8BBA" stroke-opacity="0.8" stroke-width="2.5" stroke-dasharray="5 3"/>
<circle cx="180.17" cy="6.83013" r="5" transform="rotate(150 180.17 6.83013)" fill="url(#paint17_linear_151_2663)"/>
<defs>
<radialGradient id="paint0_radial_151_2663" cx="0" cy="0" r="1" gradientUnits="userSpaceOnUse" gradientTransform="translate(245.244 170.199) scale(97.7151 97.7852)">
<stop offset="0.13"/>
<stop offset="0.38" stop-color="#000303"/>
<stop offset="0.53" stop-color="#020B0B"/>
<stop offset="0.65" stop-color="#041919"/>
<stop offset="0.75" stop-color="#072D2D"/>
<stop offset="0.85" stop-color="#0B4747"/>
<stop offset="0.94" stop-color="#106767"/>
<stop offset="1" stop-color="#148282"/>
</radialGradient>
<linearGradient id="paint1_linear_151_2663" x1="149.735" y1="217.077" x2="341.98" y2="217.077" gradientUnits="userSpaceOnUse">
<stop/>
<stop offset="0.07" stop-color="#282828"/>
<stop offset="0.16" stop-color="#5A5A5A"/>
<stop offset="0.26" stop-color="#868686"/>
<stop offset="0.36" stop-color="#ACACAC"/>
<stop offset="0.47" stop-color="#CACACA"/>
<stop offset="0.58" stop-color="#E1E1E1"/>
<stop offset="0.7" stop-color="#F2F2F2"/>
<stop offset="0.83" stop-color="#FCFCFC"/>
<stop offset="1" stop-color="white"/>
</linearGradient>
<linearGradient id="paint2_linear_151_2663" x1="245.243" y1="148.031" x2="245.243" y2="45.1905" gradientUnits="userSpaceOnUse">
<stop/>
<stop offset="0.07" stop-color="#282828"/>
<stop offset="0.16" stop-color="#5A5A5A"/>
<stop offset="0.26" stop-color="#868686"/>
<stop offset="0.36" stop-color="#ACACAC"/>
<stop offset="0.47" stop-color="#CACACA"/>
<stop offset="0.58" stop-color="#E1E1E1"/>
<stop offset="0.7" stop-color="#F2F2F2"/>
<stop offset="0.83" stop-color="#FCFCFC"/>
<stop offset="1" stop-color="white"/>
</linearGradient>
<linearGradient id="paint3_linear_151_2663" x1="209.318" y1="233.059" x2="318.252" y2="45.3922" gradientUnits="userSpaceOnUse">
<stop/>
<stop offset="0.37" stop-color="#020202"/>
<stop offset="0.51" stop-color="#090909"/>
<stop offset="0.6" stop-color="#141414"/>
<stop offset="0.68" stop-color="#252525"/>
<stop offset="0.75" stop-color="#3B3B3B"/>
<stop offset="0.8" stop-color="#575757"/>
<stop offset="0.86" stop-color="#777777"/>
<stop offset="0.91" stop-color="#9D9D9D"/>
<stop offset="0.95" stop-color="#C8C8C8"/>
<stop offset="0.99" stop-color="#F6F6F6"/>
<stop offset="1" stop-color="white"/>
</linearGradient>
<radialGradient id="paint4_radial_151_2663" cx="0" cy="0" r="1" gradientUnits="userSpaceOnUse" gradientTransform="translate(319.543 226.901) rotate(117.645) scale(66.0407 32.6677)">
<stop stop-color="#F6F6F6"/>
<stop offset="0.03" stop-color="#C8C8C8"/>
<stop offset="0.06" stop-color="#9D9D9D"/>
<stop offset="0.09" stop-color="#777777"/>
<stop offset="0.13" stop-color="#575757"/>
<stop offset="0.17" stop-color="#3B3B3B"/>
<stop offset="0.21" stop-color="#252525"/>
<stop offset="0.26" stop-color="#141414"/>
<stop offset="0.33" stop-color="#090909"/>
<stop offset="0.41" stop-color="#020202"/>
<stop offset="0.66"/>
</radialGradient>
<radialGradient id="paint5_radial_151_2663" cx="0" cy="0" r="1" gradientUnits="userSpaceOnUse" gradientTransform="translate(247.204 254.307) rotate(-8.87682) scale(87.3811 47.5366)">
<stop stop-color="#943948"/>
<stop offset="0.09" stop-color="#732C38"/>
<stop offset="0.21" stop-color="#501F27"/>
<stop offset="0.34" stop-color="#331319"/>
<stop offset="0.47" stop-color="#1C0B0E"/>
<stop offset="0.61" stop-color="#0C0506"/>
<stop offset="0.78" stop-color="#030101"/>
<stop offset="1"/>
</radialGradient>
<radialGradient id="paint6_radial_151_2663" cx="0" cy="0" r="1" gradientUnits="userSpaceOnUse" gradientTransform="translate(313.35 144.412) rotate(81.1357) scale(87.4408 47.5041)">
<stop stop-color="#6246B3"/>
<stop offset="0.05" stop-color="#563D9C"/>
<stop offset="0.15" stop-color="#3F2D73"/>
<stop offset="0.27" stop-color="#2C1F50"/>
<stop offset="0.38" stop-color="#1C1433"/>
<stop offset="0.51" stop-color="#0F0B1C"/>
<stop offset="0.64" stop-color="#07050C"/>
<stop offset="0.79" stop-color="#020103"/>
<stop offset="1"/>
</radialGradient>
<radialGradient id="paint7_radial_151_2663" cx="0" cy="0" r="1" gradientUnits="userSpaceOnUse" gradientTransform="translate(233.816 74.5275) rotate(173.76) scale(66.0224 32.5901)">
<stop stop-color="white"/>
<stop offset="0.03" stop-color="#E2E2E2"/>
<stop offset="0.1" stop-color="#AEAEAE"/>
<stop offset="0.17" stop-color="#7F7F7F"/>
<stop offset="0.24" stop-color="#585858"/>
<stop offset="0.32" stop-color="#383838"/>
<stop offset="0.4" stop-color="#1F1F1F"/>
<stop offset="0.48" stop-color="#0E0E0E"/>
<stop offset="0.56" stop-color="#030303"/>
<stop offset="0.66"/>
</radialGradient>
<radialGradient id="paint8_radial_151_2663" cx="0" cy="0" r="1" gradientUnits="userSpaceOnUse" gradientTransform="translate(115.055 170.199) rotate(-180) scale(97.7151 97.7852)">
<stop offset="0.13"/>
<stop offset="0.38" stop-color="#000303"/>
<stop offset="0.53" stop-color="#020B0B"/>
<stop offset="0.65" stop-color="#041919"/>
<stop offset="0.75" stop-color="#072D2D"/>
<stop offset="0.85" stop-color="#0B4747"/>
<stop offset="0.94" stop-color="#106767"/>
<stop offset="1" stop-color="#148282"/>
</radialGradient>
<linearGradient id="paint9_linear_151_2663" x1="210.563" y1="217.077" x2="18.319" y2="217.077" gradientUnits="userSpaceOnUse">
<stop/>
<stop offset="0.07" stop-color="#282828"/>
<stop offset="0.16" stop-color="#5A5A5A"/>
<stop offset="0.26" stop-color="#868686"/>
<stop offset="0.36" stop-color="#ACACAC"/>
<stop offset="0.47" stop-color="#CACACA"/>
<stop offset="0.58" stop-color="#E1E1E1"/>
<stop offset="0.7" stop-color="#F2F2F2"/>
<stop offset="0.83" stop-color="#FCFCFC"/>
<stop offset="1" stop-color="white"/>
</linearGradient>
<linearGradient id="paint10_linear_151_2663" x1="115.056" y1="148.031" x2="115.056" y2="45.1904" gradientUnits="userSpaceOnUse">
<stop/>
<stop offset="0.07" stop-color="#282828"/>
<stop offset="0.16" stop-color="#5A5A5A"/>
<stop offset="0.26" stop-color="#868686"/>
<stop offset="0.36" stop-color="#ACACAC"/>
<stop offset="0.47" stop-color="#CACACA"/>
<stop offset="0.58" stop-color="#E1E1E1"/>
<stop offset="0.7" stop-color="#F2F2F2"/>
<stop offset="0.83" stop-color="#FCFCFC"/>
<stop offset="1" stop-color="white"/>
</linearGradient>
<linearGradient id="paint11_linear_151_2663" x1="150.981" y1="233.059" x2="42.0467" y2="45.3921" gradientUnits="userSpaceOnUse">
<stop/>
<stop offset="0.37" stop-color="#020202"/>
<stop offset="0.51" stop-color="#090909"/>
<stop offset="0.6" stop-color="#141414"/>
<stop offset="0.68" stop-color="#252525"/>
<stop offset="0.75" stop-color="#3B3B3B"/>
<stop offset="0.8" stop-color="#575757"/>
<stop offset="0.86" stop-color="#777777"/>
<stop offset="0.91" stop-color="#9D9D9D"/>
<stop offset="0.95" stop-color="#C8C8C8"/>
<stop offset="0.99" stop-color="#F6F6F6"/>
<stop offset="1" stop-color="white"/>
</linearGradient>
<radialGradient id="paint12_radial_151_2663" cx="0" cy="0" r="1" gradientUnits="userSpaceOnUse" gradientTransform="translate(40.7556 226.901) rotate(62.355) scale(66.0407 32.6677)">
<stop stop-color="#F6F6F6"/>
<stop offset="0.03" stop-color="#C8C8C8"/>
<stop offset="0.06" stop-color="#9D9D9D"/>
<stop offset="0.09" stop-color="#777777"/>
<stop offset="0.13" stop-color="#575757"/>
<stop offset="0.17" stop-color="#3B3B3B"/>
<stop offset="0.21" stop-color="#252525"/>
<stop offset="0.26" stop-color="#141414"/>
<stop offset="0.33" stop-color="#090909"/>
<stop offset="0.41" stop-color="#020202"/>
<stop offset="0.66"/>
</radialGradient>
<radialGradient id="paint13_radial_151_2663" cx="0" cy="0" r="1" gradientUnits="userSpaceOnUse" gradientTransform="translate(113.095 254.307) rotate(-171.123) scale(87.3811 47.5366)">
<stop stop-color="#943948"/>
<stop offset="0.09" stop-color="#732C38"/>
<stop offset="0.21" stop-color="#501F27"/>
<stop offset="0.34" stop-color="#331319"/>
<stop offset="0.47" stop-color="#1C0B0E"/>
<stop offset="0.61" stop-color="#0C0506"/>
<stop offset="0.78" stop-color="#030101"/>
<stop offset="1"/>
</radialGradient>
<radialGradient id="paint14_radial_151_2663" cx="0" cy="0" r="1" gradientUnits="userSpaceOnUse" gradientTransform="translate(46.9489 144.412) rotate(98.8643) scale(87.4408 47.5041)">
<stop stop-color="#6246B3"/>
<stop offset="0.05" stop-color="#563D9C"/>
<stop offset="0.15" stop-color="#3F2D73"/>
<stop offset="0.27" stop-color="#2C1F50"/>
<stop offset="0.38" stop-color="#1C1433"/>
<stop offset="0.51" stop-color="#0F0B1C"/>
<stop offset="0.64" stop-color="#07050C"/>
<stop offset="0.79" stop-color="#020103"/>
<stop offset="1"/>
</radialGradient>
<radialGradient id="paint15_radial_151_2663" cx="0" cy="0" r="1" gradientUnits="userSpaceOnUse" gradientTransform="translate(126.482 74.5274) rotate(6.24049) scale(66.0224 32.5901)">
<stop stop-color="white"/>
<stop offset="0.03" stop-color="#E2E2E2"/>
<stop offset="0.1" stop-color="#AEAEAE"/>
<stop offset="0.17" stop-color="#7F7F7F"/>
<stop offset="0.24" stop-color="#585858"/>
<stop offset="0.32" stop-color="#383838"/>
<stop offset="0.4" stop-color="#1F1F1F"/>
<stop offset="0.48" stop-color="#0E0E0E"/>
<stop offset="0.56" stop-color="#030303"/>
<stop offset="0.66"/>
</radialGradient>
<radialGradient id="paint16_radial_151_2663" cx="0" cy="0" r="1" gradientUnits="userSpaceOnUse" gradientTransform="translate(180.426 104.465) rotate(90) scale(133.404 129.393)">
<stop stop-color="#28B2BA"/>
<stop offset="0.444599" stop-color="#6243F0"/>
<stop offset="1" stop-color="#28B2BB"/>
</radialGradient>
<linearGradient id="paint17_linear_151_2663" x1="181.837" y1="3.91346" x2="180.17" y2="11.8301" gradientUnits="userSpaceOnUse">
<stop stop-color="#7557FF"/>
<stop offset="1" stop-color="#8DEFFF"/>
</linearGradient>
</defs>
</svg>
