<svg xmlns="http://www.w3.org/2000/svg" width="28" height="29" viewBox="0 0 28 29" fill="none">
  <g clip-path="url(#clip0_4881_202)">
    <path d="M26.4445 16.8375L24.0022 6.99858C23.9066 6.67691 23.7095 6.3948 23.4404 6.19435C23.1712 5.9939 22.8445 5.88586 22.5089 5.88635H5.49112C5.15019 5.8861 4.81862 5.99785 4.54741 6.20442C4.27619 6.411 4.08035 6.70095 3.99001 7.02969L1.55556 16.8375C1.54807 16.8995 1.54807 16.9621 1.55556 17.0241V22.9975C1.55556 23.41 1.71945 23.8057 2.01117 24.0974C2.3029 24.3891 2.69856 24.553 3.11112 24.553H24.8889C25.3015 24.553 25.6971 24.3891 25.9888 24.0974C26.2806 23.8057 26.4445 23.41 26.4445 22.9975V17.0164C26.4513 16.9569 26.4513 16.8969 26.4445 16.8375ZM3.11112 22.9975V17.1175L5.49112 7.44191H22.5011L24.8889 17.1175V22.9975H3.11112Z" fill="#30D5C8"/>
    <path d="M4.66667 15.9974H23.3333V17.553H4.66667V15.9974Z" fill="#30D5C8"/>
    <path d="M20.2222 19.1085H23.3333V20.6641H20.2222V19.1085Z" fill="#30D5C8"/>
  </g>
  <defs>
    <clipPath id="clip0_4881_202">
      <rect width="28" height="28" fill="white" transform="translate(0 0.441895)"/>
    </clipPath>
  </defs>
</svg>