<svg width="377" height="525" viewBox="0 0 377 525" fill="none" xmlns="http://www.w3.org/2000/svg">
<path d="M0 423H320" stroke="url(#paint0_linear_5312_7429)" stroke-opacity="0.5" stroke-width="1.5"/>
<path d="M28.3503 442.909C28.3503 444.006 28.1448 444.946 27.7338 445.728C27.3262 446.507 26.7694 447.103 26.0634 447.518C25.3607 447.932 24.5636 448.139 23.6721 448.139C22.7805 448.139 21.9817 447.932 21.2757 447.518C20.5731 447.1 20.0163 446.502 19.6053 445.723C19.1976 444.941 18.9938 444.003 18.9938 442.909C18.9938 441.812 19.1976 440.874 19.6053 440.095C20.0163 439.313 20.5731 438.715 21.2757 438.3C21.9817 437.886 22.7805 437.679 23.6721 437.679C24.5636 437.679 25.3607 437.886 26.0634 438.3C26.7694 438.715 27.3262 439.313 27.7338 440.095C28.1448 440.874 28.3503 441.812 28.3503 442.909ZM26.4959 442.909C26.4959 442.137 26.3749 441.486 26.133 440.955C25.8944 440.422 25.5629 440.019 25.1387 439.747C24.7144 439.472 24.2256 439.335 23.6721 439.335C23.1185 439.335 22.6297 439.472 22.2054 439.747C21.7812 440.019 21.4481 440.422 21.2061 440.955C20.9675 441.486 20.8482 442.137 20.8482 442.909C20.8482 443.681 20.9675 444.334 21.2061 444.868C21.4481 445.398 21.7812 445.801 22.2054 446.076C22.6297 446.348 23.1185 446.484 23.6721 446.484C24.2256 446.484 24.7144 446.348 25.1387 446.076C25.5629 445.801 25.8944 445.398 26.133 444.868C26.3749 444.334 26.4959 443.681 26.4959 442.909ZM33.8278 440.364V441.756H29.4379V440.364H33.8278ZM30.5217 438.534H32.3214V445.703C32.3214 445.945 32.3578 446.131 32.4308 446.26C32.507 446.386 32.6064 446.472 32.729 446.518C32.8517 446.565 32.9876 446.588 33.1367 446.588C33.2494 446.588 33.3522 446.58 33.445 446.563C33.5411 446.547 33.614 446.532 33.6637 446.518L33.967 447.925C33.8709 447.959 33.7333 447.995 33.5543 448.035C33.3787 448.075 33.1632 448.098 32.908 448.104C32.4573 448.118 32.0513 448.05 31.69 447.901C31.3287 447.748 31.042 447.513 30.8299 447.195C30.6211 446.876 30.5183 446.479 30.5217 446.001V438.534ZM37.2967 443.526V448H35.497V437.818H37.2569V441.661H37.3464C37.5254 441.23 37.8021 440.891 38.1767 440.642C38.5545 440.39 39.0351 440.264 39.6184 440.264C40.1487 440.264 40.6111 440.375 41.0055 440.597C41.3999 440.819 41.7048 441.144 41.9203 441.572C42.139 441.999 42.2484 442.521 42.2484 443.138V448H40.4487V443.416C40.4487 442.902 40.3161 442.503 40.051 442.218C39.7891 441.93 39.4212 441.786 38.9473 441.786C38.6291 441.786 38.344 441.855 38.0922 441.994C37.8436 442.13 37.648 442.327 37.5055 442.586C37.3663 442.844 37.2967 443.158 37.2967 443.526ZM47.4636 448.149C46.698 448.149 46.0368 447.99 45.4799 447.672C44.9264 447.35 44.5005 446.896 44.2022 446.31C43.9039 445.72 43.7548 445.025 43.7548 444.227C43.7548 443.441 43.9039 442.752 44.2022 442.158C44.5038 441.562 44.9248 441.098 45.465 440.766C46.0053 440.432 46.64 440.264 47.3691 440.264C47.8398 440.264 48.2839 440.34 48.7015 440.493C49.1225 440.642 49.4937 440.874 49.8152 441.189C50.14 441.504 50.3952 441.905 50.5808 442.392C50.7664 442.876 50.8592 443.453 50.8592 444.122V444.674H44.6V443.461H49.1341C49.1307 443.116 49.0562 442.81 48.9103 442.541C48.7645 442.269 48.5607 442.056 48.2988 441.9C48.0403 441.744 47.7387 441.666 47.394 441.666C47.0261 441.666 46.7029 441.756 46.4245 441.935C46.1461 442.11 45.929 442.342 45.7733 442.631C45.6208 442.916 45.5429 443.229 45.5396 443.57V444.629C45.5396 445.073 45.6208 445.455 45.7832 445.773C45.9456 446.088 46.1726 446.33 46.4643 446.499C46.756 446.664 47.0974 446.747 47.4885 446.747C47.7503 446.747 47.9873 446.711 48.1994 446.638C48.4115 446.562 48.5955 446.451 48.7512 446.305C48.907 446.159 49.0247 445.978 49.1042 445.763L50.7846 445.952C50.6786 446.396 50.4764 446.784 50.1781 447.115C49.8831 447.443 49.5053 447.698 49.0446 447.881C48.5839 448.06 48.0569 448.149 47.4636 448.149ZM52.3817 448V440.364H54.1268V441.636H54.2063C54.3455 441.196 54.5842 440.856 54.9222 440.617C55.2636 440.375 55.6531 440.254 56.0906 440.254C56.19 440.254 56.301 440.259 56.4237 440.269C56.5496 440.276 56.654 440.287 56.7369 440.304V441.96C56.6606 441.933 56.5397 441.91 56.3739 441.89C56.2115 441.867 56.0541 441.855 55.9016 441.855C55.5735 441.855 55.2785 441.926 55.0167 442.069C54.7582 442.208 54.5543 442.402 54.4052 442.651C54.256 442.899 54.1815 443.186 54.1815 443.511V448H52.3817ZM63.6275 448L60.7539 437.818H62.7376L64.5721 445.3H64.6665L66.6254 437.818H68.43L70.3938 445.305H70.4833L72.3178 437.818H74.3015L71.4279 448H69.6083L67.57 440.856H67.4904L65.4471 448H63.6275ZM76.919 448.154C76.4351 448.154 75.9993 448.068 75.6115 447.896C75.227 447.72 74.9221 447.461 74.6967 447.12C74.4747 446.779 74.3636 446.358 74.3636 445.857C74.3636 445.426 74.4432 445.07 74.6023 444.788C74.7614 444.507 74.9785 444.281 75.2536 444.112C75.5286 443.943 75.8385 443.816 76.1832 443.729C76.5313 443.64 76.8909 443.575 77.2621 443.536C77.7095 443.489 78.0724 443.448 78.3509 443.411C78.6293 443.371 78.8314 443.312 78.9574 443.232C79.0866 443.149 79.1513 443.022 79.1513 442.849V442.82C79.1513 442.445 79.0402 442.155 78.8182 441.95C78.5961 441.744 78.2763 441.641 77.8587 441.641C77.4179 441.641 77.0682 441.737 76.8097 441.93C76.5545 442.122 76.3821 442.349 76.2926 442.611L74.6122 442.372C74.7448 441.908 74.9635 441.52 75.2685 441.209C75.5734 440.894 75.9463 440.659 76.3871 440.503C76.8279 440.344 77.3151 440.264 77.8487 440.264C78.2166 440.264 78.5829 440.307 78.9474 440.393C79.312 440.48 79.6451 440.622 79.9467 440.821C80.2483 441.017 80.4903 441.283 80.6726 441.621C80.8582 441.96 80.951 442.382 80.951 442.889V448H79.2209V446.951H79.1612C79.0518 447.163 78.8977 447.362 78.6989 447.548C78.5033 447.73 78.2564 447.877 77.9581 447.99C77.6631 448.099 77.3168 448.154 76.919 448.154ZM77.3864 446.832C77.7476 446.832 78.0608 446.76 78.326 446.618C78.5911 446.472 78.795 446.28 78.9375 446.041C79.0833 445.803 79.1562 445.542 79.1562 445.261V444.361C79.0999 444.407 79.0038 444.45 78.8679 444.49C78.7353 444.53 78.5862 444.565 78.4205 444.594C78.2547 444.624 78.0907 444.651 77.9283 444.674C77.7659 444.697 77.625 444.717 77.5057 444.734C77.2372 444.77 76.9969 444.83 76.7848 444.913C76.5727 444.996 76.4053 445.112 76.2827 445.261C76.16 445.407 76.0987 445.595 76.0987 445.827C76.0987 446.159 76.2197 446.409 76.4616 446.578C76.7036 446.747 77.0118 446.832 77.3864 446.832ZM82.7607 448V440.364H84.5057V441.636H84.5852C84.7244 441.196 84.9631 440.856 85.3011 440.617C85.6425 440.375 86.032 440.254 86.4695 440.254C86.5689 440.254 86.6799 440.259 86.8026 440.269C86.9285 440.276 87.0329 440.287 87.1158 440.304V441.96C87.0395 441.933 86.9186 441.91 86.7528 441.89C86.5904 441.867 86.433 441.855 86.2805 441.855C85.9524 441.855 85.6574 441.926 85.3956 442.069C85.1371 442.208 84.9332 442.402 84.7841 442.651C84.6349 442.899 84.5604 443.186 84.5604 443.511V448H82.7607ZM91.3777 448.149C90.612 448.149 89.9508 447.99 89.394 447.672C88.8405 447.35 88.4146 446.896 88.1163 446.31C87.818 445.72 87.6689 445.025 87.6689 444.227C87.6689 443.441 87.818 442.752 88.1163 442.158C88.4179 441.562 88.8388 441.098 89.3791 440.766C89.9193 440.432 90.554 440.264 91.2832 440.264C91.7538 440.264 92.198 440.34 92.6156 440.493C93.0365 440.642 93.4077 440.874 93.7292 441.189C94.054 441.504 94.3092 441.905 94.4949 442.392C94.6805 442.876 94.7733 443.453 94.7733 444.122V444.674H88.514V443.461H93.0481C93.0448 443.116 92.9702 442.81 92.8244 442.541C92.6786 442.269 92.4747 442.056 92.2129 441.9C91.9544 441.744 91.6528 441.666 91.3081 441.666C90.9402 441.666 90.617 441.756 90.3386 441.935C90.0602 442.11 89.8431 442.342 89.6873 442.631C89.5349 442.916 89.457 443.229 89.4537 443.57V444.629C89.4537 445.073 89.5349 445.455 89.6973 445.773C89.8597 446.088 90.0867 446.33 90.3784 446.499C90.67 446.664 91.0114 446.747 91.4025 446.747C91.6644 446.747 91.9013 446.711 92.1135 446.638C92.3256 446.562 92.5095 446.451 92.6653 446.305C92.8211 446.159 92.9387 445.978 93.0183 445.763L94.6987 445.952C94.5926 446.396 94.3904 446.784 94.0922 447.115C93.7972 447.443 93.4193 447.698 92.9586 447.881C92.4979 448.06 91.9709 448.149 91.3777 448.149ZM98.0955 443.526V448H96.2958V437.818H98.0558V441.661H98.1452C98.3242 441.23 98.601 440.891 98.9755 440.642C99.3533 440.39 99.8339 440.264 100.417 440.264C100.948 440.264 101.41 440.375 101.804 440.597C102.199 440.819 102.504 441.144 102.719 441.572C102.938 441.999 103.047 442.521 103.047 443.138V448H101.248V443.416C101.248 442.902 101.115 442.503 100.85 442.218C100.588 441.93 100.22 441.786 99.7461 441.786C99.4279 441.786 99.1429 441.855 98.891 441.994C98.6424 442.13 98.4469 442.327 98.3043 442.586C98.1651 442.844 98.0955 443.158 98.0955 443.526ZM108.213 448.149C107.467 448.149 106.821 447.985 106.274 447.657C105.727 447.329 105.303 446.87 105.001 446.28C104.703 445.69 104.554 445.001 104.554 444.212C104.554 443.423 104.703 442.732 105.001 442.139C105.303 441.545 105.727 441.085 106.274 440.756C106.821 440.428 107.467 440.264 108.213 440.264C108.958 440.264 109.605 440.428 110.152 440.756C110.699 441.085 111.121 441.545 111.419 442.139C111.721 442.732 111.872 443.423 111.872 444.212C111.872 445.001 111.721 445.69 111.419 446.28C111.121 446.87 110.699 447.329 110.152 447.657C109.605 447.985 108.958 448.149 108.213 448.149ZM108.223 446.707C108.627 446.707 108.965 446.596 109.237 446.374C109.509 446.149 109.711 445.847 109.843 445.469C109.979 445.092 110.047 444.671 110.047 444.207C110.047 443.739 109.979 443.317 109.843 442.939C109.711 442.558 109.509 442.255 109.237 442.029C108.965 441.804 108.627 441.691 108.223 441.691C107.808 441.691 107.464 441.804 107.189 442.029C106.917 442.255 106.713 442.558 106.577 442.939C106.444 443.317 106.378 443.739 106.378 444.207C106.378 444.671 106.444 445.092 106.577 445.469C106.713 445.847 106.917 446.149 107.189 446.374C107.464 446.596 107.808 446.707 108.223 446.707ZM118.267 444.788V440.364H120.066V448H118.321V446.643H118.242C118.069 447.07 117.786 447.42 117.392 447.692C117 447.964 116.518 448.099 115.945 448.099C115.444 448.099 115.002 447.988 114.617 447.766C114.236 447.541 113.938 447.215 113.722 446.787C113.507 446.356 113.399 445.836 113.399 445.226V440.364H115.199V444.947C115.199 445.431 115.332 445.816 115.597 446.101C115.862 446.386 116.21 446.528 116.641 446.528C116.906 446.528 117.163 446.464 117.411 446.335C117.66 446.205 117.864 446.013 118.023 445.758C118.185 445.499 118.267 445.176 118.267 444.788ZM127.952 442.382L126.312 442.561C126.265 442.395 126.184 442.24 126.068 442.094C125.955 441.948 125.803 441.83 125.611 441.741C125.419 441.651 125.183 441.607 124.905 441.607C124.53 441.607 124.215 441.688 123.96 441.85C123.708 442.013 123.584 442.223 123.587 442.482C123.584 442.704 123.665 442.884 123.831 443.023C124 443.163 124.278 443.277 124.666 443.367L125.969 443.645C126.691 443.801 127.228 444.048 127.58 444.386C127.934 444.724 128.113 445.166 128.116 445.713C128.113 446.194 127.972 446.618 127.694 446.986C127.419 447.35 127.036 447.635 126.545 447.841C126.055 448.046 125.491 448.149 124.855 448.149C123.92 448.149 123.168 447.954 122.598 447.563C122.028 447.168 121.688 446.62 121.579 445.917L123.334 445.748C123.413 446.093 123.582 446.353 123.841 446.528C124.099 446.704 124.436 446.792 124.85 446.792C125.278 446.792 125.621 446.704 125.879 446.528C126.141 446.353 126.272 446.136 126.272 445.877C126.272 445.658 126.188 445.478 126.018 445.335C125.853 445.193 125.594 445.083 125.243 445.007L123.94 444.734C123.208 444.581 122.666 444.324 122.315 443.963C121.963 443.599 121.789 443.138 121.793 442.581C121.789 442.11 121.917 441.703 122.175 441.358C122.437 441.01 122.8 440.742 123.264 440.553C123.732 440.36 124.27 440.264 124.88 440.264C125.775 440.264 126.479 440.455 126.993 440.836C127.51 441.217 127.83 441.733 127.952 442.382ZM132.981 448.149C132.216 448.149 131.554 447.99 130.998 447.672C130.444 447.35 130.018 446.896 129.72 446.31C129.422 445.72 129.272 445.025 129.272 444.227C129.272 443.441 129.422 442.752 129.72 442.158C130.021 441.562 130.442 441.098 130.983 440.766C131.523 440.432 132.158 440.264 132.887 440.264C133.357 440.264 133.801 440.34 134.219 440.493C134.64 440.642 135.011 440.874 135.333 441.189C135.658 441.504 135.913 441.905 136.098 442.392C136.284 442.876 136.377 443.453 136.377 444.122V444.674H130.118V443.461H134.652C134.648 443.116 134.574 442.81 134.428 442.541C134.282 442.269 134.078 442.056 133.816 441.9C133.558 441.744 133.256 441.666 132.912 441.666C132.544 441.666 132.221 441.756 131.942 441.935C131.664 442.11 131.447 442.342 131.291 442.631C131.138 442.916 131.06 443.229 131.057 443.57V444.629C131.057 445.073 131.138 445.455 131.301 445.773C131.463 446.088 131.69 446.33 131.982 446.499C132.274 446.664 132.615 446.747 133.006 446.747C133.268 446.747 133.505 446.711 133.717 446.638C133.929 446.562 134.113 446.451 134.269 446.305C134.425 446.159 134.542 445.978 134.622 445.763L136.302 445.952C136.196 446.396 135.994 446.784 135.696 447.115C135.401 447.443 135.023 447.698 134.562 447.881C134.101 448.06 133.574 448.149 132.981 448.149ZM142.056 437.341L138.774 449.531H137.198L140.48 437.341H142.056ZM32.184 467H28.7338V456.818H32.2536C33.2645 456.818 34.1329 457.022 34.8588 457.43C35.5879 457.834 36.1481 458.416 36.5392 459.175C36.9303 459.934 37.1258 460.842 37.1258 461.899C37.1258 462.96 36.9286 463.871 36.5342 464.634C36.1431 465.396 35.578 465.981 34.8389 466.389C34.1031 466.796 33.2181 467 32.184 467ZM30.5782 465.404H32.0945C32.8038 465.404 33.3954 465.275 33.8694 465.016C34.3434 464.755 34.6997 464.365 34.9383 463.848C35.1769 463.328 35.2963 462.678 35.2963 461.899C35.2963 461.12 35.1769 460.474 34.9383 459.96C34.6997 459.443 34.3467 459.057 33.8794 458.802C33.4153 458.543 32.8386 458.414 32.1492 458.414H30.5782V465.404ZM40.9962 467.154C40.5123 467.154 40.0764 467.068 39.6887 466.896C39.3042 466.72 38.9993 466.461 38.7739 466.12C38.5518 465.779 38.4408 465.358 38.4408 464.857C38.4408 464.426 38.5203 464.07 38.6794 463.788C38.8385 463.507 39.0556 463.281 39.3307 463.112C39.6058 462.943 39.9157 462.816 40.2604 462.729C40.6084 462.64 40.968 462.575 41.3392 462.536C41.7867 462.489 42.1496 462.448 42.428 462.411C42.7064 462.371 42.9086 462.312 43.0345 462.232C43.1638 462.149 43.2284 462.022 43.2284 461.849V461.82C43.2284 461.445 43.1174 461.155 42.8953 460.95C42.6733 460.744 42.3534 460.641 41.9358 460.641C41.495 460.641 41.1453 460.737 40.8868 460.93C40.6316 461.122 40.4593 461.349 40.3698 461.611L38.6894 461.372C38.8219 460.908 39.0407 460.52 39.3456 460.209C39.6505 459.894 40.0234 459.659 40.4642 459.503C40.905 459.344 41.3923 459.264 41.9259 459.264C42.2938 459.264 42.66 459.307 43.0246 459.393C43.3892 459.48 43.7223 459.622 44.0239 459.821C44.3255 460.017 44.5674 460.283 44.7497 460.621C44.9353 460.96 45.0281 461.382 45.0281 461.889V467H43.298V465.951H43.2384C43.129 466.163 42.9749 466.362 42.776 466.548C42.5805 466.73 42.3335 466.877 42.0352 466.99C41.7403 467.099 41.3939 467.154 40.9962 467.154ZM41.4635 465.832C41.8248 465.832 42.138 465.76 42.4031 465.618C42.6683 465.472 42.8721 465.28 43.0146 465.041C43.1605 464.803 43.2334 464.542 43.2334 464.261V463.361C43.1771 463.407 43.0809 463.45 42.945 463.49C42.8125 463.53 42.6633 463.565 42.4976 463.594C42.3319 463.624 42.1678 463.651 42.0054 463.674C41.843 463.697 41.7021 463.717 41.5828 463.734C41.3144 463.77 41.0741 463.83 40.8619 463.913C40.6498 463.996 40.4825 464.112 40.3598 464.261C40.2372 464.407 40.1759 464.595 40.1759 464.827C40.1759 465.159 40.2968 465.409 40.5388 465.578C40.7807 465.747 41.089 465.832 41.4635 465.832ZM50.651 459.364V460.756H46.2611V459.364H50.651ZM47.3449 457.534H49.1446V464.703C49.1446 464.945 49.1811 465.131 49.254 465.26C49.3302 465.386 49.4297 465.472 49.5523 465.518C49.6749 465.565 49.8108 465.588 49.96 465.588C50.0727 465.588 50.1754 465.58 50.2682 465.563C50.3643 465.547 50.4372 465.532 50.4869 465.518L50.7902 466.925C50.6941 466.959 50.5566 466.995 50.3776 467.035C50.2019 467.075 49.9865 467.098 49.7313 467.104C49.2805 467.118 48.8745 467.05 48.5132 466.901C48.152 466.748 47.8653 466.513 47.6531 466.195C47.4443 465.876 47.3416 465.479 47.3449 465.001V457.534ZM54.3536 467.154C53.8697 467.154 53.4339 467.068 53.0461 466.896C52.6616 466.72 52.3567 466.461 52.1313 466.12C51.9092 465.779 51.7982 465.358 51.7982 464.857C51.7982 464.426 51.8778 464.07 52.0368 463.788C52.1959 463.507 52.413 463.281 52.6881 463.112C52.9632 462.943 53.2731 462.816 53.6178 462.729C53.9658 462.64 54.3254 462.575 54.6966 462.536C55.1441 462.489 55.507 462.448 55.7854 462.411C56.0638 462.371 56.266 462.312 56.392 462.232C56.5212 462.149 56.5858 462.022 56.5858 461.849V461.82C56.5858 461.445 56.4748 461.155 56.2528 460.95C56.0307 460.744 55.7108 460.641 55.2932 460.641C54.8524 460.641 54.5028 460.737 54.2442 460.93C53.989 461.122 53.8167 461.349 53.7272 461.611L52.0468 461.372C52.1794 460.908 52.3981 460.52 52.703 460.209C53.008 459.894 53.3808 459.659 53.8216 459.503C54.2625 459.344 54.7497 459.264 55.2833 459.264C55.6512 459.264 56.0174 459.307 56.382 459.393C56.7466 459.48 57.0797 459.622 57.3813 459.821C57.6829 460.017 57.9249 460.283 58.1072 460.621C58.2928 460.96 58.3856 461.382 58.3856 461.889V467H56.6555V465.951H56.5958C56.4864 466.163 56.3323 466.362 56.1334 466.548C55.9379 466.73 55.691 466.877 55.3927 466.99C55.0977 467.099 54.7513 467.154 54.3536 467.154ZM54.8209 465.832C55.1822 465.832 55.4954 465.76 55.7606 465.618C56.0257 465.472 56.2296 465.28 56.3721 465.041C56.5179 464.803 56.5908 464.542 56.5908 464.261V463.361C56.5345 463.407 56.4384 463.45 56.3025 463.49C56.1699 463.53 56.0207 463.565 55.855 463.594C55.6893 463.624 55.5252 463.651 55.3628 463.674C55.2004 463.697 55.0596 463.717 54.9403 463.734C54.6718 463.77 54.4315 463.83 54.2194 463.913C54.0073 463.996 53.8399 464.112 53.7172 464.261C53.5946 464.407 53.5333 464.595 53.5333 464.827C53.5333 465.159 53.6543 465.409 53.8962 465.578C54.1382 465.747 54.4464 465.832 54.8209 465.832ZM63.7474 467V456.818H65.5919V465.454H70.0763V467H63.7474ZM73.795 467.154C73.3111 467.154 72.8753 467.068 72.4875 466.896C72.103 466.72 71.7981 466.461 71.5727 466.12C71.3506 465.779 71.2396 465.358 71.2396 464.857C71.2396 464.426 71.3192 464.07 71.4782 463.788C71.6373 463.507 71.8544 463.281 72.1295 463.112C72.4046 462.943 72.7145 462.816 73.0592 462.729C73.4072 462.64 73.7668 462.575 74.1381 462.536C74.5855 462.489 74.9484 462.448 75.2268 462.411C75.5052 462.371 75.7074 462.312 75.8334 462.232C75.9626 462.149 76.0273 462.022 76.0273 461.849V461.82C76.0273 461.445 75.9162 461.155 75.6942 460.95C75.4721 460.744 75.1523 460.641 74.7346 460.641C74.2938 460.641 73.9442 460.737 73.6856 460.93C73.4304 461.122 73.2581 461.349 73.1686 461.611L71.4882 461.372C71.6208 460.908 71.8395 460.52 72.1444 460.209C72.4494 459.894 72.8222 459.659 73.2631 459.503C73.7039 459.344 74.1911 459.264 74.7247 459.264C75.0926 459.264 75.4588 459.307 75.8234 459.393C76.188 459.48 76.5211 459.622 76.8227 459.821C77.1243 460.017 77.3663 460.283 77.5486 460.621C77.7342 460.96 77.827 461.382 77.827 461.889V467H76.0969V465.951H76.0372C75.9278 466.163 75.7737 466.362 75.5748 466.548C75.3793 466.73 75.1324 466.877 74.8341 466.99C74.5391 467.099 74.1927 467.154 73.795 467.154ZM74.2623 465.832C74.6236 465.832 74.9368 465.76 75.202 465.618C75.4671 465.472 75.671 465.28 75.8135 465.041C75.9593 464.803 76.0322 464.542 76.0322 464.261V463.361C75.9759 463.407 75.8798 463.45 75.7439 463.49C75.6113 463.53 75.4622 463.565 75.2964 463.594C75.1307 463.624 74.9666 463.651 74.8042 463.674C74.6418 463.697 74.501 463.717 74.3817 463.734C74.1132 463.77 73.8729 463.83 73.6608 463.913C73.4487 463.996 73.2813 464.112 73.1586 464.261C73.036 464.407 72.9747 464.595 72.9747 464.827C72.9747 465.159 73.0957 465.409 73.3376 465.578C73.5796 465.747 73.8878 465.832 74.2623 465.832ZM81.2773 464.604L81.2723 462.431H81.5606L84.305 459.364H86.4079L83.0322 463.122H82.6594L81.2773 464.604ZM79.6366 467V456.818H81.4363V467H79.6366ZM84.4292 467L81.9434 463.525L83.1565 462.257L86.5819 467H84.4292ZM90.6736 467.149C89.9079 467.149 89.2467 466.99 88.6899 466.672C88.1364 466.35 87.7105 465.896 87.4122 465.31C87.1139 464.72 86.9648 464.025 86.9648 463.227C86.9648 462.441 87.1139 461.752 87.4122 461.158C87.7138 460.562 88.1347 460.098 88.675 459.766C89.2152 459.432 89.8499 459.264 90.5791 459.264C91.0497 459.264 91.4939 459.34 91.9115 459.493C92.3324 459.642 92.7036 459.874 93.0251 460.189C93.3499 460.504 93.6051 460.905 93.7907 461.392C93.9764 461.876 94.0692 462.453 94.0692 463.122V463.674H87.8099V462.461H92.344C92.3407 462.116 92.2661 461.81 92.1203 461.541C91.9745 461.269 91.7706 461.056 91.5088 460.9C91.2503 460.744 90.9487 460.666 90.604 460.666C90.2361 460.666 89.9129 460.756 89.6345 460.935C89.3561 461.11 89.139 461.342 88.9832 461.631C88.8308 461.916 88.7529 462.229 88.7496 462.57V463.629C88.7496 464.073 88.8308 464.455 88.9932 464.773C89.1556 465.088 89.3826 465.33 89.6743 465.499C89.9659 465.664 90.3073 465.747 90.6984 465.747C90.9603 465.747 91.1972 465.711 91.4094 465.638C91.6215 465.562 91.8054 465.451 91.9612 465.305C92.117 465.159 92.2346 464.978 92.3142 464.763L93.9946 464.952C93.8885 465.396 93.6863 465.784 93.3881 466.115C93.0931 466.443 92.7152 466.698 92.2545 466.881C91.7938 467.06 91.2668 467.149 90.6736 467.149ZM97.3914 462.526V467H95.5917V456.818H97.3517V460.661H97.4411C97.6201 460.23 97.8969 459.891 98.2714 459.642C98.6492 459.39 99.1298 459.264 99.7132 459.264C100.243 459.264 100.706 459.375 101.1 459.597C101.495 459.819 101.8 460.144 102.015 460.572C102.234 460.999 102.343 461.521 102.343 462.138V467H100.543V462.416C100.543 461.902 100.411 461.503 100.146 461.218C99.8838 460.93 99.516 460.786 99.042 460.786C98.7238 460.786 98.4388 460.855 98.1869 460.994C97.9383 461.13 97.7427 461.327 97.6002 461.586C97.461 461.844 97.3914 462.158 97.3914 462.526ZM107.509 467.149C106.763 467.149 106.117 466.985 105.57 466.657C105.023 466.329 104.599 465.87 104.297 465.28C103.999 464.69 103.85 464.001 103.85 463.212C103.85 462.423 103.999 461.732 104.297 461.139C104.599 460.545 105.023 460.085 105.57 459.756C106.117 459.428 106.763 459.264 107.509 459.264C108.254 459.264 108.901 459.428 109.448 459.756C109.994 460.085 110.417 460.545 110.715 461.139C111.017 461.732 111.168 462.423 111.168 463.212C111.168 464.001 111.017 464.69 110.715 465.28C110.417 465.87 109.994 466.329 109.448 466.657C108.901 466.985 108.254 467.149 107.509 467.149ZM107.519 465.707C107.923 465.707 108.261 465.596 108.533 465.374C108.805 465.149 109.007 464.847 109.139 464.469C109.275 464.092 109.343 463.671 109.343 463.207C109.343 462.739 109.275 462.317 109.139 461.939C109.007 461.558 108.805 461.255 108.533 461.029C108.261 460.804 107.923 460.691 107.519 460.691C107.104 460.691 106.76 460.804 106.484 461.029C106.213 461.255 106.009 461.558 105.873 461.939C105.74 462.317 105.674 462.739 105.674 463.207C105.674 463.671 105.74 464.092 105.873 464.469C106.009 464.847 106.213 465.149 106.484 465.374C106.76 465.596 107.104 465.707 107.519 465.707ZM117.562 463.788V459.364H119.362V467H117.617V465.643H117.538C117.365 466.07 117.082 466.42 116.687 466.692C116.296 466.964 115.814 467.099 115.241 467.099C114.74 467.099 114.298 466.988 113.913 466.766C113.532 466.541 113.234 466.215 113.018 465.787C112.803 465.356 112.695 464.836 112.695 464.226V459.364H114.495V463.947C114.495 464.431 114.628 464.816 114.893 465.101C115.158 465.386 115.506 465.528 115.937 465.528C116.202 465.528 116.459 465.464 116.707 465.335C116.956 465.205 117.16 465.013 117.319 464.758C117.481 464.499 117.562 464.176 117.562 463.788ZM127.248 461.382L125.608 461.561C125.561 461.395 125.48 461.24 125.364 461.094C125.251 460.948 125.099 460.83 124.907 460.741C124.714 460.651 124.479 460.607 124.201 460.607C123.826 460.607 123.511 460.688 123.256 460.85C123.004 461.013 122.88 461.223 122.883 461.482C122.88 461.704 122.961 461.884 123.127 462.023C123.296 462.163 123.574 462.277 123.962 462.367L125.265 462.645C125.987 462.801 126.524 463.048 126.875 463.386C127.23 463.724 127.409 464.166 127.412 464.713C127.409 465.194 127.268 465.618 126.99 465.986C126.715 466.35 126.332 466.635 125.841 466.841C125.351 467.046 124.787 467.149 124.151 467.149C123.216 467.149 122.464 466.954 121.894 466.563C121.324 466.168 120.984 465.62 120.875 464.917L122.63 464.748C122.709 465.093 122.878 465.353 123.137 465.528C123.395 465.704 123.732 465.792 124.146 465.792C124.574 465.792 124.917 465.704 125.175 465.528C125.437 465.353 125.568 465.136 125.568 464.877C125.568 464.658 125.483 464.478 125.314 464.335C125.149 464.193 124.89 464.083 124.539 464.007L123.236 463.734C122.504 463.581 121.962 463.324 121.611 462.963C121.259 462.599 121.085 462.138 121.089 461.581C121.085 461.11 121.213 460.703 121.471 460.358C121.733 460.01 122.096 459.742 122.56 459.553C123.027 459.36 123.566 459.264 124.176 459.264C125.071 459.264 125.775 459.455 126.289 459.836C126.806 460.217 127.126 460.733 127.248 461.382ZM132.277 467.149C131.511 467.149 130.85 466.99 130.293 466.672C129.74 466.35 129.314 465.896 129.016 465.31C128.717 464.72 128.568 464.025 128.568 463.227C128.568 462.441 128.717 461.752 129.016 461.158C129.317 460.562 129.738 460.098 130.278 459.766C130.819 459.432 131.453 459.264 132.183 459.264C132.653 459.264 133.097 459.34 133.515 459.493C133.936 459.642 134.307 459.874 134.629 460.189C134.953 460.504 135.209 460.905 135.394 461.392C135.58 461.876 135.673 462.453 135.673 463.122V463.674H129.413V462.461H133.948C133.944 462.116 133.87 461.81 133.724 461.541C133.578 461.269 133.374 461.056 133.112 460.9C132.854 460.744 132.552 460.666 132.207 460.666C131.84 460.666 131.516 460.756 131.238 460.935C130.96 461.11 130.743 461.342 130.587 461.631C130.434 461.916 130.356 462.229 130.353 462.57V463.629C130.353 464.073 130.434 464.455 130.597 464.773C130.759 465.088 130.986 465.33 131.278 465.499C131.569 465.664 131.911 465.747 132.302 465.747C132.564 465.747 132.801 465.711 133.013 465.638C133.225 465.562 133.409 465.451 133.565 465.305C133.72 465.159 133.838 464.978 133.918 464.763L135.598 464.952C135.492 465.396 135.29 465.784 134.992 466.115C134.697 466.443 134.319 466.698 133.858 466.881C133.397 467.06 132.87 467.149 132.277 467.149Z" fill="#CDDAED"/>
<path d="M0 393H320" stroke="url(#paint1_linear_5312_7429)" stroke-opacity="0.5" stroke-width="1.5"/>
<path d="M0 363H320" stroke="url(#paint2_linear_5312_7429)" stroke-opacity="0.5" stroke-width="1.5"/>
<path d="M0 333H320" stroke="url(#paint3_linear_5312_7429)" stroke-opacity="0.5" stroke-width="1.5"/>
<path d="M0 303L320 303" stroke="url(#paint4_linear_5312_7429)" stroke-opacity="0.5" stroke-width="1.5"/>
<path d="M0 273H320" stroke="url(#paint5_linear_5312_7429)" stroke-opacity="0.5" stroke-width="1.5"/>
<path d="M0 243L320 241.923" stroke="url(#paint6_linear_5312_7429)" stroke-opacity="0.5" stroke-width="1.5"/>
<path d="M0 211L320 209.923" stroke="url(#paint7_linear_5312_7429)" stroke-opacity="0.5" stroke-width="1.5"/>
<rect x="49" y="393" width="65" height="30" rx="8" fill="#3499FF"/>
<rect x="49" y="211" width="65" height="182" rx="10" fill="#A5C4FF"/>
<rect x="206" y="393" width="65" height="30" rx="5" fill="#3499FF"/>
<rect x="206" y="360" width="65" height="33" rx="8" fill="#6D4DFF"/>
<rect x="206" y="295" width="65" height="65" rx="8" fill="#A5C4FF"/>
<path d="M244 215.262L239.325 239L222.059 222.875L228.242 220.73C226.958 217.708 225.464 214.789 223.771 211.997C221.354 208.046 218.547 204.372 215.397 201.037C212.196 197.658 208.692 194.61 204.933 191.937C201.119 189.222 197.102 186.834 192.921 184.796C184.509 180.667 175.465 177.774 166.226 175.772C156.921 173.812 147.483 172.626 138 172.223C147.553 171.737 157.128 172.045 166.635 173.143C176.167 174.298 185.683 176.382 194.864 179.886C199.488 181.638 203.969 183.778 208.264 186.285C212.618 188.828 216.727 191.805 220.537 195.174C224.397 198.602 227.901 202.449 230.991 206.649C233.489 210.057 235.713 213.676 237.642 217.468L244 215.262Z" fill="url(#paint8_linear_5312_7429)"/>
<path d="M243.672 214.317L245.318 213.746L244.981 215.455L240.306 239.193L239.958 240.96L238.642 239.731L221.376 223.606L220.164 222.474L221.731 221.93L226.895 220.138C225.729 217.51 224.4 214.964 222.917 212.518C220.536 208.626 217.772 205.008 214.671 201.725C211.514 198.392 208.059 195.387 204.354 192.752L204.354 192.752C200.583 190.069 196.614 187.709 192.483 185.695L192.481 185.693C184.157 181.608 175.194 178.738 166.017 176.75C156.767 174.802 147.384 173.622 137.958 173.222L137.949 171.224C147.558 170.736 157.188 171.045 166.75 172.149L166.756 172.15C176.349 173.313 185.948 175.413 195.219 178.951C199.895 180.723 204.426 182.887 208.768 185.422L208.769 185.422C213.179 187.998 217.341 191.013 221.199 194.425L221.201 194.426C225.114 197.902 228.665 201.8 231.797 206.056L231.798 206.058C234.157 209.277 236.275 212.681 238.133 216.239L243.672 214.317Z" stroke="url(#paint9_linear_5312_7429)" stroke-opacity="0.5" stroke-width="2"/>
<rect x="10" y="155" width="125" height="42" rx="8" fill="url(#paint10_linear_5312_7429)"/>
<rect x="10.5" y="155.5" width="124" height="41" rx="7.5" stroke="url(#paint11_linear_5312_7429)" stroke-opacity="0.9"/>
<path d="M30.2457 182.773V170.045H31.0611V182.773H30.2457ZM32.4084 174.246C32.3686 173.845 32.1979 173.534 31.8963 173.312C31.5947 173.09 31.1854 172.979 30.6683 172.979C30.317 172.979 30.0204 173.028 29.7784 173.128C29.5365 173.224 29.3509 173.358 29.2216 173.531C29.0956 173.703 29.0327 173.898 29.0327 174.117C29.026 174.299 29.0642 174.459 29.147 174.594C29.2332 174.73 29.3509 174.848 29.5 174.947C29.6491 175.044 29.8215 175.128 30.017 175.201C30.2126 175.271 30.4214 175.33 30.6435 175.38L31.5582 175.599C32.0024 175.698 32.41 175.831 32.7812 175.996C33.1525 176.162 33.474 176.366 33.7457 176.608C34.0175 176.85 34.228 177.135 34.3771 177.463C34.5296 177.791 34.6075 178.167 34.6108 178.592C34.6075 179.215 34.4484 179.755 34.1335 180.212C33.822 180.666 33.3712 181.019 32.7812 181.271C32.1946 181.52 31.487 181.644 30.6584 181.644C29.8364 181.644 29.1205 181.518 28.5107 181.266C27.9041 181.014 27.4302 180.642 27.0888 180.148C26.7507 179.651 26.5734 179.036 26.5568 178.303H28.6399C28.6631 178.645 28.7609 178.93 28.9332 179.158C29.1089 179.384 29.3426 179.554 29.6342 179.67C29.9292 179.783 30.2623 179.839 30.6335 179.839C30.9981 179.839 31.3146 179.786 31.5831 179.68C31.8549 179.574 32.0653 179.427 32.2145 179.238C32.3636 179.049 32.4382 178.832 32.4382 178.587C32.4382 178.358 32.3703 178.166 32.2344 178.01C32.1018 177.854 31.9063 177.722 31.6477 177.612C31.3925 177.503 31.0793 177.403 30.7081 177.314L29.5994 177.036C28.741 176.827 28.0632 176.5 27.5661 176.056C27.0689 175.612 26.822 175.014 26.8253 174.261C26.822 173.645 26.986 173.106 27.3175 172.646C27.6522 172.185 28.1113 171.825 28.6946 171.567C29.2779 171.308 29.9408 171.179 30.6832 171.179C31.4389 171.179 32.0985 171.308 32.6619 171.567C33.2287 171.825 33.6695 172.185 33.9844 172.646C34.2992 173.106 34.4616 173.64 34.4716 174.246H32.4084ZM39.7626 181.639C39.0202 181.639 38.359 181.512 37.7789 181.256C37.2022 180.998 36.7465 180.643 36.4118 180.192C36.0803 179.738 35.9096 179.215 35.8997 178.621H38.0673C38.0806 178.87 38.1618 179.089 38.3109 179.278C38.4634 179.463 38.6655 179.607 38.9174 179.71C39.1693 179.813 39.4527 179.864 39.7676 179.864C40.0957 179.864 40.3857 179.806 40.6376 179.69C40.8895 179.574 41.0867 179.414 41.2292 179.208C41.3717 179.003 41.443 178.766 41.443 178.497C41.443 178.225 41.3668 177.985 41.2143 177.776C41.0652 177.564 40.8497 177.398 40.568 177.279C40.2896 177.16 39.9582 177.1 39.5737 177.1H38.6241V175.519H39.5737C39.8985 175.519 40.1852 175.463 40.4338 175.35C40.6857 175.237 40.8812 175.082 41.0204 174.883C41.1596 174.681 41.2292 174.445 41.2292 174.177C41.2292 173.922 41.1679 173.698 41.0453 173.506C40.926 173.31 40.7569 173.158 40.5382 173.048C40.3227 172.939 40.0708 172.884 39.7825 172.884C39.4908 172.884 39.224 172.937 38.9821 173.043C38.7401 173.146 38.5462 173.294 38.4004 173.486C38.2546 173.678 38.1767 173.903 38.1667 174.162H36.1035C36.1135 173.575 36.2808 173.058 36.6056 172.611C36.9305 172.163 37.368 171.814 37.9181 171.562C38.4717 171.307 39.0964 171.179 39.7924 171.179C40.4951 171.179 41.1099 171.307 41.6369 171.562C42.1639 171.817 42.5732 172.162 42.8649 172.596C43.1599 173.027 43.3057 173.511 43.3024 174.048C43.3057 174.618 43.1284 175.093 42.7704 175.474C42.4158 175.856 41.9534 176.098 41.3833 176.2V176.28C42.1324 176.376 42.7025 176.636 43.0936 177.06C43.488 177.481 43.6835 178.008 43.6802 178.641C43.6835 179.221 43.5162 179.737 43.1781 180.188C42.8433 180.638 42.381 180.993 41.791 181.251C41.2011 181.51 40.5249 181.639 39.7626 181.639ZM45.0735 179.71V178.015L49.3242 171.318H50.7859V173.665H49.9208L47.2411 177.906V177.985H53.2816V179.71H45.0735ZM49.9606 181.5V179.193L50.0004 178.442V171.318H52.0188V181.5H49.9606ZM54.7159 181.5V179.949L58.3402 176.593C58.6484 176.295 58.907 176.026 59.1158 175.788C59.3279 175.549 59.4886 175.315 59.598 175.087C59.7074 174.855 59.7621 174.604 59.7621 174.336C59.7621 174.038 59.6941 173.781 59.5582 173.565C59.4223 173.347 59.2367 173.179 59.0014 173.063C58.7661 172.944 58.4993 172.884 58.201 172.884C57.8894 172.884 57.6177 172.947 57.3857 173.073C57.1536 173.199 56.9747 173.38 56.8487 173.615C56.7228 173.85 56.6598 174.13 56.6598 174.455H54.6165C54.6165 173.789 54.7673 173.211 55.0689 172.72C55.3705 172.23 55.7931 171.85 56.3366 171.582C56.8802 171.313 57.5066 171.179 58.2159 171.179C58.9451 171.179 59.5798 171.308 60.12 171.567C60.6636 171.822 61.0862 172.177 61.3878 172.631C61.6894 173.085 61.8402 173.605 61.8402 174.192C61.8402 174.576 61.764 174.956 61.6115 175.33C61.4624 175.705 61.1955 176.121 60.8111 176.578C60.4266 177.032 59.8847 177.577 59.1854 178.214L57.6989 179.67V179.74H61.9744V181.5H54.7159ZM63.5939 181.5V171.318H65.7466V175.808H65.8809L69.5449 171.318H72.1252L68.3468 175.877L72.1699 181.5H69.5946L66.8056 177.314L65.7466 178.607V181.5H63.5939Z" fill="#FF4B4B"/>
<g clip-path="url(#clip0_5312_7429)">
<path d="M92 183.5C96.1422 183.5 99.5 180.142 99.5 176C99.5 171.858 96.1422 168.5 92 168.5C87.8578 168.5 84.5 171.858 84.5 176C84.5 180.142 87.8578 183.5 92 183.5Z" stroke="#DF4343" stroke-width="1.75" stroke-linecap="round" stroke-linejoin="round"/>
<path d="M94.25 173.375C93.7362 172.861 92.8317 172.504 92 172.482M92 172.482C91.01 172.455 90.125 172.902 90.125 174.125C90.125 176.375 94.25 175.25 94.25 177.5C94.25 178.783 93.152 179.334 92 179.293M92 172.482V171.125M89.75 178.25C90.233 178.895 91.1323 179.262 92 179.293M92 179.293V180.875" stroke="#DF4343" stroke-width="1.75" stroke-linecap="round" stroke-linejoin="round"/>
</g>
<path d="M105.25 179.75L109.75 175.25L112.75 178.25L118.75 172.25" stroke="#DF4343" stroke-width="2.33333" stroke-linecap="round" stroke-linejoin="round"/>
<path d="M115.75 172.25H118.75V175.25" stroke="#DF4343" stroke-width="2.33333" stroke-linecap="round" stroke-linejoin="round"/>
<rect x="170" y="243" width="115" height="42" rx="8" fill="url(#paint12_linear_5312_7429)"/>
<rect x="170.5" y="243.5" width="114" height="41" rx="7.5" stroke="url(#paint13_linear_5312_7429)" stroke-opacity="0.9"/>
<path d="M190.246 270.773V258.045H191.061V270.773H190.246ZM192.408 262.246C192.369 261.845 192.198 261.534 191.896 261.312C191.595 261.09 191.185 260.979 190.668 260.979C190.317 260.979 190.02 261.028 189.778 261.128C189.536 261.224 189.351 261.358 189.222 261.531C189.096 261.703 189.033 261.898 189.033 262.117C189.026 262.299 189.064 262.459 189.147 262.594C189.233 262.73 189.351 262.848 189.5 262.947C189.649 263.044 189.821 263.128 190.017 263.201C190.213 263.271 190.421 263.33 190.643 263.38L191.558 263.599C192.002 263.698 192.41 263.831 192.781 263.996C193.152 264.162 193.474 264.366 193.746 264.608C194.018 264.85 194.228 265.135 194.377 265.463C194.53 265.791 194.607 266.167 194.611 266.592C194.607 267.215 194.448 267.755 194.134 268.212C193.822 268.666 193.371 269.019 192.781 269.271C192.195 269.52 191.487 269.644 190.658 269.644C189.836 269.644 189.121 269.518 188.511 269.266C187.904 269.014 187.43 268.642 187.089 268.148C186.751 267.651 186.573 267.036 186.557 266.303H188.64C188.663 266.645 188.761 266.93 188.933 267.158C189.109 267.384 189.343 267.554 189.634 267.67C189.929 267.783 190.262 267.839 190.634 267.839C190.998 267.839 191.315 267.786 191.583 267.68C191.855 267.574 192.065 267.427 192.214 267.238C192.364 267.049 192.438 266.832 192.438 266.587C192.438 266.358 192.37 266.166 192.234 266.01C192.102 265.854 191.906 265.722 191.648 265.612C191.393 265.503 191.079 265.403 190.708 265.314L189.599 265.036C188.741 264.827 188.063 264.5 187.566 264.056C187.069 263.612 186.822 263.014 186.825 262.261C186.822 261.645 186.986 261.106 187.317 260.646C187.652 260.185 188.111 259.825 188.695 259.567C189.278 259.308 189.941 259.179 190.683 259.179C191.439 259.179 192.098 259.308 192.662 259.567C193.229 259.825 193.67 260.185 193.984 260.646C194.299 261.106 194.462 261.64 194.472 262.246H192.408ZM196.402 269.5L200.623 261.148V261.078H195.706V259.318H202.85V261.103L198.624 269.5H196.402ZM207.919 269.639C207.153 269.639 206.472 269.515 205.875 269.266C205.282 269.014 204.816 268.671 204.478 268.237C204.14 267.803 203.971 267.311 203.971 266.761C203.971 266.336 204.067 265.947 204.259 265.592C204.455 265.234 204.72 264.938 205.055 264.702C205.39 264.464 205.764 264.311 206.178 264.245V264.175C205.635 264.066 205.194 263.803 204.856 263.385C204.518 262.964 204.349 262.475 204.349 261.918C204.349 261.391 204.503 260.922 204.811 260.511C205.119 260.097 205.542 259.772 206.079 259.537C206.619 259.298 207.232 259.179 207.919 259.179C208.605 259.179 209.216 259.298 209.753 259.537C210.293 259.776 210.718 260.102 211.026 260.516C211.334 260.927 211.49 261.395 211.493 261.918C211.49 262.478 211.317 262.967 210.976 263.385C210.635 263.803 210.197 264.066 209.664 264.175V264.245C210.071 264.311 210.441 264.464 210.772 264.702C211.107 264.938 211.372 265.234 211.568 265.592C211.767 265.947 211.868 266.336 211.871 266.761C211.868 267.311 211.697 267.803 211.359 268.237C211.021 268.671 210.553 269.014 209.957 269.266C209.364 269.515 208.684 269.639 207.919 269.639ZM207.919 268.058C208.26 268.058 208.558 267.997 208.813 267.874C209.069 267.748 209.267 267.576 209.41 267.357C209.556 267.135 209.629 266.88 209.629 266.592C209.629 266.297 209.554 266.036 209.405 265.811C209.256 265.582 209.054 265.403 208.798 265.274C208.543 265.142 208.25 265.075 207.919 265.075C207.59 265.075 207.297 265.142 207.039 265.274C206.78 265.403 206.576 265.582 206.427 265.811C206.281 266.036 206.208 266.297 206.208 266.592C206.208 266.88 206.28 267.135 206.422 267.357C206.565 267.576 206.765 267.748 207.024 267.874C207.282 267.997 207.58 268.058 207.919 268.058ZM207.919 263.509C208.204 263.509 208.457 263.451 208.679 263.335C208.901 263.219 209.075 263.058 209.201 262.853C209.327 262.647 209.39 262.411 209.39 262.142C209.39 261.877 209.327 261.645 209.201 261.446C209.075 261.244 208.903 261.086 208.684 260.974C208.465 260.858 208.21 260.8 207.919 260.8C207.63 260.8 207.375 260.858 207.153 260.974C206.931 261.086 206.757 261.244 206.631 261.446C206.508 261.645 206.447 261.877 206.447 262.142C206.447 262.411 206.51 262.647 206.636 262.853C206.762 263.058 206.936 263.219 207.158 263.335C207.38 263.451 207.633 263.509 207.919 263.509ZM213.436 269.5V259.318H215.588V263.808H215.723L219.387 259.318H221.967L218.189 263.877L222.012 269.5H219.436L216.647 265.314L215.588 266.607V269.5H213.436Z" fill="#30D5C8"/>
<g clip-path="url(#clip1_5312_7429)">
<path d="M242 271.5C246.142 271.5 249.5 268.142 249.5 264C249.5 259.858 246.142 256.5 242 256.5C237.858 256.5 234.5 259.858 234.5 264C234.5 268.142 237.858 271.5 242 271.5Z" stroke="#66F2C3" stroke-width="1.75" stroke-linecap="round" stroke-linejoin="round"/>
<path d="M244.25 261.375C243.736 260.861 242.832 260.504 242 260.482M242 260.482C241.01 260.455 240.125 260.903 240.125 262.125C240.125 264.375 244.25 263.25 244.25 265.5C244.25 266.783 243.152 267.335 242 267.293M242 260.482V259.125M239.75 266.25C240.233 266.895 241.132 267.263 242 267.293M242 267.293V268.875" stroke="#66F2C3" stroke-width="1.75" stroke-linecap="round" stroke-linejoin="round"/>
</g>
<path d="M268.75 260.25L264.25 264.75L261.25 261.75L255.25 267.75" stroke="#66F2C3" stroke-width="2.33333" stroke-linecap="round" stroke-linejoin="round"/>
<path d="M258.25 267.75H255.25V264.75" stroke="#66F2C3" stroke-width="2.33333" stroke-linecap="round" stroke-linejoin="round"/>
<g filter="url(#filter0_f_5312_7429)">
<path d="M183.958 144.135C152.462 109.687 92.8812 110.523 136.053 79.8859C179.225 49.2487 331.182 90.3009 362.678 124.75C394.173 159.198 293.28 173.998 250.108 204.635C206.936 235.273 215.453 178.584 183.958 144.135Z" fill="url(#paint14_linear_5312_7429)" fill-opacity="0.6"/>
</g>
<path d="M42.472 121V107.368H37.096V104.2H51.736V107.368H46.36V121H42.472ZM61.6336 121.288C60.3376 121.288 59.1296 121.08 58.0096 120.664C56.9056 120.232 55.9456 119.624 55.1296 118.84C54.3136 118.056 53.6736 117.136 53.2096 116.08C52.7616 115.024 52.5376 113.864 52.5376 112.6C52.5376 111.336 52.7616 110.176 53.2096 109.12C53.6736 108.064 54.3136 107.144 55.1296 106.36C55.9616 105.576 56.9296 104.976 58.0336 104.56C59.1376 104.128 60.3456 103.912 61.6576 103.912C63.1136 103.912 64.4256 104.168 65.5936 104.68C66.7776 105.176 67.7696 105.912 68.5696 106.888L66.0736 109.192C65.4976 108.536 64.8576 108.048 64.1536 107.728C63.4496 107.392 62.6816 107.224 61.8496 107.224C61.0656 107.224 60.3456 107.352 59.6896 107.608C59.0336 107.864 58.4656 108.232 57.9856 108.712C57.5056 109.192 57.1296 109.76 56.8576 110.416C56.6016 111.072 56.4736 111.8 56.4736 112.6C56.4736 113.4 56.6016 114.128 56.8576 114.784C57.1296 115.44 57.5056 116.008 57.9856 116.488C58.4656 116.968 59.0336 117.336 59.6896 117.592C60.3456 117.848 61.0656 117.976 61.8496 117.976C62.6816 117.976 63.4496 117.816 64.1536 117.496C64.8576 117.16 65.4976 116.656 66.0736 115.984L68.5696 118.288C67.7696 119.264 66.7776 120.008 65.5936 120.52C64.4256 121.032 63.1056 121.288 61.6336 121.288ZM79.0036 121.288C77.6756 121.288 76.4436 121.072 75.3076 120.64C74.1876 120.208 73.2116 119.6 72.3796 118.816C71.5636 118.032 70.9236 117.112 70.4596 116.056C70.0116 115 69.7876 113.848 69.7876 112.6C69.7876 111.352 70.0116 110.2 70.4596 109.144C70.9236 108.088 71.5716 107.168 72.4036 106.384C73.2356 105.6 74.2116 104.992 75.3316 104.56C76.4516 104.128 77.6676 103.912 78.9796 103.912C80.3076 103.912 81.5236 104.128 82.6276 104.56C83.7476 104.992 84.7156 105.6 85.5316 106.384C86.3636 107.168 87.0116 108.088 87.4756 109.144C87.9396 110.184 88.1716 111.336 88.1716 112.6C88.1716 113.848 87.9396 115.008 87.4756 116.08C87.0116 117.136 86.3636 118.056 85.5316 118.84C84.7156 119.608 83.7476 120.208 82.6276 120.64C81.5236 121.072 80.3156 121.288 79.0036 121.288ZM78.9796 117.976C79.7316 117.976 80.4196 117.848 81.0436 117.592C81.6836 117.336 82.2436 116.968 82.7236 116.488C83.2036 116.008 83.5716 115.44 83.8276 114.784C84.0996 114.128 84.2356 113.4 84.2356 112.6C84.2356 111.8 84.0996 111.072 83.8276 110.416C83.5716 109.76 83.2036 109.192 82.7236 108.712C82.2596 108.232 81.7076 107.864 81.0676 107.608C80.4276 107.352 79.7316 107.224 78.9796 107.224C78.2276 107.224 77.5316 107.352 76.8916 107.608C76.2676 107.864 75.7156 108.232 75.2356 108.712C74.7556 109.192 74.3796 109.76 74.1076 110.416C73.8516 111.072 73.7236 111.8 73.7236 112.6C73.7236 113.384 73.8516 114.112 74.1076 114.784C74.3796 115.44 74.7476 116.008 75.2116 116.488C75.6916 116.968 76.2516 117.336 76.8916 117.592C77.5316 117.848 78.2276 117.976 78.9796 117.976ZM97.8904 121V104.2H105.162C106.666 104.2 107.962 104.448 109.05 104.944C110.138 105.424 110.978 106.12 111.57 107.032C112.162 107.944 112.458 109.032 112.458 110.296C112.458 111.544 112.162 112.624 111.57 113.536C110.978 114.432 110.138 115.12 109.05 115.6C107.962 116.08 106.666 116.32 105.162 116.32H100.05L101.778 114.616V121H97.8904ZM108.57 121L104.37 114.904H108.522L112.77 121H108.57ZM101.778 115.048L100.05 113.224H104.946C106.146 113.224 107.042 112.968 107.634 112.456C108.226 111.928 108.522 111.208 108.522 110.296C108.522 109.368 108.226 108.648 107.634 108.136C107.042 107.624 106.146 107.368 104.946 107.368H100.05L101.778 105.52V115.048ZM121.683 121.192C120.211 121.192 118.915 120.904 117.795 120.328C116.691 119.752 115.835 118.968 115.227 117.976C114.619 116.968 114.315 115.824 114.315 114.544C114.315 113.248 114.611 112.104 115.203 111.112C115.811 110.104 116.635 109.32 117.675 108.76C118.715 108.184 119.891 107.896 121.203 107.896C122.467 107.896 123.603 108.168 124.611 108.712C125.635 109.24 126.443 110.008 127.035 111.016C127.627 112.008 127.923 113.2 127.923 114.592C127.923 114.736 127.915 114.904 127.899 115.096C127.883 115.272 127.867 115.44 127.851 115.6H117.363V113.416H125.883L124.443 114.064C124.443 113.392 124.307 112.808 124.035 112.312C123.763 111.816 123.387 111.432 122.907 111.16C122.427 110.872 121.867 110.728 121.227 110.728C120.587 110.728 120.019 110.872 119.523 111.16C119.043 111.432 118.667 111.824 118.395 112.336C118.123 112.832 117.987 113.424 117.987 114.112V114.688C117.987 115.392 118.139 116.016 118.443 116.56C118.763 117.088 119.203 117.496 119.763 117.784C120.339 118.056 121.011 118.192 121.779 118.192C122.467 118.192 123.067 118.088 123.579 117.88C124.107 117.672 124.587 117.36 125.019 116.944L127.011 119.104C126.419 119.776 125.675 120.296 124.779 120.664C123.883 121.016 122.851 121.192 121.683 121.192ZM135.96 121.192C134.744 121.192 133.648 120.92 132.672 120.376C131.696 119.816 130.92 119.04 130.344 118.048C129.784 117.056 129.504 115.888 129.504 114.544C129.504 113.184 129.784 112.008 130.344 111.016C130.92 110.024 131.696 109.256 132.672 108.712C133.648 108.168 134.744 107.896 135.96 107.896C137.048 107.896 138 108.136 138.816 108.616C139.632 109.096 140.264 109.824 140.712 110.8C141.16 111.776 141.384 113.024 141.384 114.544C141.384 116.048 141.168 117.296 140.736 118.288C140.304 119.264 139.68 119.992 138.864 120.472C138.064 120.952 137.096 121.192 135.96 121.192ZM136.608 118.12C137.216 118.12 137.768 117.976 138.264 117.688C138.76 117.4 139.152 116.992 139.44 116.464C139.744 115.92 139.896 115.28 139.896 114.544C139.896 113.792 139.744 113.152 139.44 112.624C139.152 112.096 138.76 111.688 138.264 111.4C137.768 111.112 137.216 110.968 136.608 110.968C135.984 110.968 135.424 111.112 134.928 111.4C134.432 111.688 134.032 112.096 133.728 112.624C133.44 113.152 133.296 113.792 133.296 114.544C133.296 115.28 133.44 115.92 133.728 116.464C134.032 116.992 134.432 117.4 134.928 117.688C135.424 117.976 135.984 118.12 136.608 118.12ZM139.992 121V118.36L140.064 114.52L139.824 110.704V103.192H143.568V121H139.992ZM152.481 121.192C151.409 121.192 150.449 120.984 149.601 120.568C148.769 120.152 148.121 119.52 147.657 118.672C147.193 117.808 146.961 116.712 146.961 115.384V108.088H150.705V114.832C150.705 115.904 150.929 116.696 151.377 117.208C151.841 117.704 152.489 117.952 153.321 117.952C153.897 117.952 154.409 117.832 154.857 117.592C155.305 117.336 155.657 116.952 155.913 116.44C156.169 115.912 156.297 115.256 156.297 114.472V108.088H160.041V121H156.489V117.448L157.137 118.48C156.705 119.376 156.065 120.056 155.217 120.52C154.385 120.968 153.473 121.192 152.481 121.192ZM169.749 121.192C168.357 121.192 167.117 120.912 166.029 120.352C164.941 119.776 164.085 118.984 163.461 117.976C162.853 116.968 162.549 115.824 162.549 114.544C162.549 113.248 162.853 112.104 163.461 111.112C164.085 110.104 164.941 109.32 166.029 108.76C167.117 108.184 168.357 107.896 169.749 107.896C171.109 107.896 172.293 108.184 173.301 108.76C174.309 109.32 175.053 110.128 175.533 111.184L172.629 112.744C172.293 112.136 171.869 111.688 171.357 111.4C170.861 111.112 170.317 110.968 169.725 110.968C169.085 110.968 168.509 111.112 167.997 111.4C167.485 111.688 167.077 112.096 166.773 112.624C166.485 113.152 166.341 113.792 166.341 114.544C166.341 115.296 166.485 115.936 166.773 116.464C167.077 116.992 167.485 117.4 167.997 117.688C168.509 117.976 169.085 118.12 169.725 118.12C170.317 118.12 170.861 117.984 171.357 117.712C171.869 117.424 172.293 116.968 172.629 116.344L175.533 117.928C175.053 118.968 174.309 119.776 173.301 120.352C172.293 120.912 171.109 121.192 169.749 121.192ZM183.156 121.192C181.636 121.192 180.452 120.808 179.604 120.04C178.756 119.256 178.332 118.096 178.332 116.56V105.232H182.076V116.512C182.076 117.056 182.22 117.48 182.508 117.784C182.796 118.072 183.188 118.216 183.684 118.216C184.276 118.216 184.78 118.056 185.196 117.736L186.204 120.376C185.82 120.648 185.356 120.856 184.812 121C184.284 121.128 183.732 121.192 183.156 121.192ZM176.34 111.256V108.376H185.292V111.256H176.34ZM188.306 121V108.088H192.05V121H188.306ZM190.178 106.288C189.49 106.288 188.93 106.088 188.498 105.688C188.066 105.288 187.85 104.792 187.85 104.2C187.85 103.608 188.066 103.112 188.498 102.712C188.93 102.312 189.49 102.112 190.178 102.112C190.866 102.112 191.426 102.304 191.858 102.688C192.29 103.056 192.506 103.536 192.506 104.128C192.506 104.752 192.29 105.272 191.858 105.688C191.442 106.088 190.882 106.288 190.178 106.288ZM201.669 121.192C200.293 121.192 199.069 120.904 197.997 120.328C196.941 119.752 196.101 118.968 195.477 117.976C194.869 116.968 194.565 115.824 194.565 114.544C194.565 113.248 194.869 112.104 195.477 111.112C196.101 110.104 196.941 109.32 197.997 108.76C199.069 108.184 200.293 107.896 201.669 107.896C203.029 107.896 204.245 108.184 205.317 108.76C206.389 109.32 207.229 110.096 207.837 111.088C208.445 112.08 208.749 113.232 208.749 114.544C208.749 115.824 208.445 116.968 207.837 117.976C207.229 118.968 206.389 119.752 205.317 120.328C204.245 120.904 203.029 121.192 201.669 121.192ZM201.669 118.12C202.293 118.12 202.853 117.976 203.349 117.688C203.845 117.4 204.237 116.992 204.525 116.464C204.813 115.92 204.957 115.28 204.957 114.544C204.957 113.792 204.813 113.152 204.525 112.624C204.237 112.096 203.845 111.688 203.349 111.4C202.853 111.112 202.293 110.968 201.669 110.968C201.045 110.968 200.485 111.112 199.989 111.4C199.493 111.688 199.093 112.096 198.789 112.624C198.501 113.152 198.357 113.792 198.357 114.544C198.357 115.28 198.501 115.92 198.789 116.464C199.093 116.992 199.493 117.4 199.989 117.688C200.485 117.976 201.045 118.12 201.669 118.12ZM219.099 107.896C220.123 107.896 221.035 108.104 221.835 108.52C222.651 108.92 223.291 109.544 223.755 110.392C224.219 111.224 224.451 112.296 224.451 113.608V121H220.707V114.184C220.707 113.144 220.475 112.376 220.011 111.88C219.563 111.384 218.923 111.136 218.091 111.136C217.499 111.136 216.963 111.264 216.483 111.52C216.019 111.76 215.651 112.136 215.379 112.648C215.123 113.16 214.995 113.816 214.995 114.616V121H211.251V108.088H214.827V111.664L214.155 110.584C214.619 109.72 215.283 109.056 216.147 108.592C217.011 108.128 217.995 107.896 219.099 107.896Z" fill="#CDDAED"/>
<path d="M236.538 121L243.306 105.688L244.314 107.368H235.266L236.994 105.544V110.104H233.538V104.2H247.002V106.72L240.762 121H236.538ZM251.421 121L258.189 105.688L259.197 107.368H250.149L251.877 105.544V110.104H248.421V104.2H261.885V106.72L255.645 121H251.421ZM266.133 121L277.605 104.2H280.461L268.989 121H266.133ZM267.597 113.272C266.781 113.272 266.061 113.088 265.437 112.72C264.813 112.336 264.317 111.8 263.949 111.112C263.597 110.408 263.421 109.584 263.421 108.64C263.421 107.696 263.597 106.88 263.949 106.192C264.317 105.504 264.813 104.968 265.437 104.584C266.061 104.2 266.781 104.008 267.597 104.008C268.413 104.008 269.133 104.2 269.757 104.584C270.381 104.968 270.869 105.504 271.221 106.192C271.573 106.88 271.749 107.696 271.749 108.64C271.749 109.584 271.573 110.408 271.221 111.112C270.869 111.8 270.381 112.336 269.757 112.72C269.133 113.088 268.413 113.272 267.597 113.272ZM267.597 111.304C268.125 111.304 268.549 111.088 268.869 110.656C269.189 110.208 269.349 109.536 269.349 108.64C269.349 107.744 269.189 107.08 268.869 106.648C268.549 106.2 268.125 105.976 267.597 105.976C267.085 105.976 266.661 106.2 266.325 106.648C266.005 107.08 265.845 107.744 265.845 108.64C265.845 109.52 266.005 110.184 266.325 110.632C266.661 111.08 267.085 111.304 267.597 111.304ZM278.997 121.192C278.197 121.192 277.477 121.008 276.837 120.64C276.213 120.256 275.725 119.72 275.373 119.032C275.021 118.328 274.845 117.504 274.845 116.56C274.845 115.616 275.021 114.8 275.373 114.112C275.725 113.424 276.213 112.888 276.837 112.504C277.477 112.12 278.197 111.928 278.997 111.928C279.829 111.928 280.557 112.12 281.181 112.504C281.805 112.888 282.293 113.424 282.645 114.112C282.997 114.8 283.173 115.616 283.173 116.56C283.173 117.504 282.997 118.328 282.645 119.032C282.293 119.72 281.805 120.256 281.181 120.64C280.557 121.008 279.829 121.192 278.997 121.192ZM278.997 119.224C279.525 119.224 279.949 119.008 280.269 118.576C280.589 118.128 280.749 117.456 280.749 116.56C280.749 115.68 280.589 115.016 280.269 114.568C279.949 114.12 279.525 113.896 278.997 113.896C278.485 113.896 278.061 114.12 277.725 114.568C277.405 115 277.245 115.664 277.245 116.56C277.245 117.456 277.405 118.128 277.725 118.576C278.061 119.008 278.485 119.224 278.997 119.224Z" fill="#30D5C8"/>
<path d="M277.97 456.954L273.165 447.556L271.96 448.132L275.552 455.158C275.674 455.34 275.401 455.302 275.401 455.302C271.24 455.256 269.558 451.005 269.558 451.005L271.528 447.208L274.976 445.745L271.793 444.82L268.792 439L265.783 444.851L262.615 445.745L266.147 447.253L268.042 451.05C265.768 455.643 262.206 455.325 262.206 455.325C261.956 455.34 262.047 455.203 262.047 455.203L265.624 448.132L264.465 447.541L259.584 457.098H262.828C266.837 457.098 268.701 452.657 268.701 452.657C268.785 452.437 268.868 452.687 268.868 452.687C271.043 457.113 274.211 457.098 274.211 457.098H277.849C278.091 457.106 277.97 456.954 277.97 456.954ZM268.815 449.527L266.882 445.76L268.8 441.994L270.747 445.76L268.815 449.527Z" fill="url(#paint15_linear_5312_7429)"/>
<path d="M202.585 452.733L201.751 455.742H199L202.585 444.017H206.063L209.701 455.742H206.852L205.95 452.733H202.585ZM205.563 450.755L204.836 448.269C204.623 447.572 204.419 446.7 204.244 446.011H204.207C204.032 446.708 203.858 447.595 203.668 448.269L202.971 450.755H205.563Z" fill="white"/>
<path d="M213.717 450.823H213.755C213.945 450.475 214.157 450.126 214.361 449.8L216.082 447.246H219.265L216.218 450.687L219.697 455.749H216.446L214.392 452.256L213.71 453.089V455.749H211.072V443.396H213.717V450.823Z" fill="white"/>
<path d="M227.678 453.673C227.678 454.491 227.716 455.272 227.799 455.742H225.419L225.26 454.886H225.207C224.654 455.568 223.782 455.931 222.775 455.931C221.054 455.931 220.023 454.681 220.023 453.324C220.023 451.111 222.009 450.058 225.018 450.073V449.952C225.018 449.497 224.775 448.853 223.472 448.853C222.6 448.853 221.683 449.148 221.122 449.497L220.637 447.792C221.228 447.458 222.396 447.042 223.942 447.042C226.776 447.042 227.678 448.709 227.678 450.71V453.673ZM225.101 451.725C223.707 451.71 222.631 452.036 222.631 453.067C222.631 453.749 223.085 454.075 223.676 454.075C224.336 454.075 224.874 453.643 225.048 453.097C225.086 452.961 225.101 452.801 225.101 452.642V451.725Z" fill="white"/>
<path d="M229.745 453.43C230.23 453.726 231.238 454.075 232.026 454.075C232.83 454.075 233.156 453.794 233.156 453.362C233.156 452.93 232.898 452.718 231.905 452.385C230.147 451.793 229.472 450.838 229.488 449.846C229.488 448.247 230.844 447.042 232.951 447.042C233.944 447.042 234.831 447.269 235.354 447.527L234.884 449.353C234.505 449.141 233.77 448.868 233.042 448.868C232.398 448.868 232.034 449.126 232.034 449.565C232.034 449.967 232.367 450.172 233.406 450.543C235.02 451.096 235.702 451.915 235.717 453.165C235.717 454.749 234.467 455.931 232.026 455.931C230.912 455.931 229.92 455.674 229.275 455.325L229.745 453.43Z" fill="white"/>
<path d="M237.311 443.396H239.956V448.247H239.993C240.274 447.883 240.622 447.587 241.039 447.375C241.441 447.163 241.926 447.041 242.411 447.041C244.101 447.041 245.382 448.209 245.382 450.763V455.734H242.737V451.058C242.737 449.944 242.358 449.179 241.365 449.179C240.668 449.179 240.236 449.633 240.046 450.103C239.978 450.278 239.956 450.505 239.956 450.694V455.742H237.311V443.396Z" fill="white"/>
<path d="M253.755 455.742L252.694 453.62C252.262 452.801 251.982 452.195 251.648 451.513H251.61C251.368 452.187 251.072 452.801 250.709 453.62L249.731 455.742H246.707L250.095 449.808L246.828 444.017H249.875L250.898 446.155C251.247 446.867 251.504 447.443 251.785 448.102H251.823C252.103 447.352 252.33 446.829 252.626 446.155L253.619 444.017H256.643L253.338 449.739L256.817 455.742H253.755Z" fill="white"/>
<path d="M70.2074 516.111H68.8778C68.8267 515.827 68.7315 515.577 68.5923 515.361C68.4531 515.145 68.2827 514.962 68.081 514.811C67.8793 514.661 67.6534 514.547 67.4034 514.47C67.1563 514.393 66.8935 514.355 66.6151 514.355C66.1122 514.355 65.6619 514.482 65.2642 514.734C64.8693 514.987 64.5568 515.358 64.3267 515.847C64.0994 516.335 63.9858 516.932 63.9858 517.636C63.9858 518.347 64.0994 518.946 64.3267 519.435C64.5568 519.923 64.8707 520.293 65.2685 520.543C65.6662 520.793 66.1136 520.918 66.6108 520.918C66.8864 520.918 67.1477 520.881 67.3949 520.807C67.6449 520.73 67.8707 520.618 68.0724 520.47C68.2741 520.322 68.4446 520.142 68.5838 519.929C68.7259 519.713 68.8239 519.466 68.8778 519.188L70.2074 519.192C70.1364 519.621 69.9986 520.016 69.794 520.376C69.5923 520.734 69.3324 521.044 69.0142 521.305C68.6989 521.564 68.3381 521.764 67.9318 521.906C67.5256 522.048 67.0824 522.119 66.6023 522.119C65.8466 522.119 65.1733 521.94 64.5824 521.582C63.9915 521.222 63.5256 520.706 63.1847 520.036C62.8466 519.365 62.6776 518.565 62.6776 517.636C62.6776 516.705 62.848 515.905 63.1889 515.237C63.5298 514.567 63.9957 514.053 64.5866 513.695C65.1776 513.334 65.8494 513.153 66.6023 513.153C67.0653 513.153 67.4972 513.22 67.8977 513.354C68.3011 513.484 68.6634 513.678 68.9844 513.933C69.3054 514.186 69.571 514.496 69.7812 514.862C69.9915 515.226 70.1335 515.642 70.2074 516.111ZM74.4379 522.132C73.8242 522.132 73.2887 521.992 72.8313 521.71C72.3739 521.429 72.0188 521.036 71.766 520.53C71.5131 520.024 71.3867 519.433 71.3867 518.757C71.3867 518.078 71.5131 517.484 71.766 516.976C72.0188 516.467 72.3739 516.072 72.8313 515.791C73.2887 515.51 73.8242 515.369 74.4379 515.369C75.0515 515.369 75.587 515.51 76.0444 515.791C76.5018 516.072 76.8569 516.467 77.1097 516.976C77.3626 517.484 77.489 518.078 77.489 518.757C77.489 519.433 77.3626 520.024 77.1097 520.53C76.8569 521.036 76.5018 521.429 76.0444 521.71C75.587 521.992 75.0515 522.132 74.4379 522.132ZM74.4421 521.063C74.8398 521.063 75.1694 520.957 75.4308 520.747C75.6921 520.537 75.8853 520.257 76.0103 519.908C76.1381 519.558 76.2021 519.173 76.2021 518.753C76.2021 518.335 76.1381 517.952 76.0103 517.602C75.8853 517.25 75.6921 516.967 75.4308 516.754C75.1694 516.541 74.8398 516.435 74.4421 516.435C74.0415 516.435 73.7092 516.541 73.445 516.754C73.1836 516.967 72.989 517.25 72.8612 517.602C72.7362 517.952 72.6737 518.335 72.6737 518.753C72.6737 519.173 72.7362 519.558 72.8612 519.908C72.989 520.257 73.1836 520.537 73.445 520.747C73.7092 520.957 74.0415 521.063 74.4421 521.063ZM78.9112 522V515.455H80.1342V516.52H80.2152C80.3516 516.159 80.5746 515.878 80.8842 515.676C81.1939 515.472 81.5646 515.369 81.9964 515.369C82.4339 515.369 82.8004 515.472 83.0959 515.676C83.3942 515.881 83.6143 516.162 83.7564 516.52H83.8246C83.9808 516.17 84.2294 515.892 84.5703 515.685C84.9112 515.474 85.3175 515.369 85.7891 515.369C86.3828 515.369 86.8672 515.555 87.2422 515.928C87.62 516.3 87.8089 516.861 87.8089 517.611V522H86.5348V517.73C86.5348 517.287 86.4141 516.966 86.1726 516.767C85.9311 516.568 85.6428 516.469 85.3075 516.469C84.8928 516.469 84.5703 516.597 84.3402 516.852C84.1101 517.105 83.995 517.43 83.995 517.828V522H82.7251V517.649C82.7251 517.294 82.6143 517.009 82.3928 516.793C82.1712 516.577 81.8828 516.469 81.5277 516.469C81.2862 516.469 81.0632 516.533 80.8587 516.661C80.657 516.786 80.4936 516.96 80.3686 517.185C80.2464 517.409 80.1854 517.669 80.1854 517.965V522H78.9112ZM89.5167 524.455V515.455H90.761V516.516H90.8675C90.9414 516.379 91.0479 516.222 91.1871 516.043C91.3263 515.864 91.5195 515.707 91.7667 515.574C92.0138 515.438 92.3406 515.369 92.7468 515.369C93.2752 515.369 93.7468 515.503 94.1616 515.77C94.5763 516.037 94.9016 516.422 95.1374 516.925C95.3761 517.428 95.4954 518.033 95.4954 518.74C95.4954 519.447 95.3775 520.054 95.1417 520.56C94.9059 521.063 94.582 521.45 94.1701 521.723C93.7582 521.993 93.288 522.128 92.7596 522.128C92.3619 522.128 92.0366 522.061 91.7837 521.928C91.5337 521.794 91.3377 521.638 91.1957 521.459C91.0536 521.28 90.9442 521.121 90.8675 520.982H90.7908V524.455H89.5167ZM90.7653 518.727C90.7653 519.188 90.832 519.591 90.9656 519.938C91.0991 520.284 91.2923 520.555 91.5451 520.751C91.7979 520.945 92.1076 521.041 92.4741 521.041C92.8548 521.041 93.1729 520.94 93.4286 520.739C93.6843 520.534 93.8775 520.257 94.0082 519.908C94.1417 519.558 94.2085 519.165 94.2085 518.727C94.2085 518.295 94.1431 517.908 94.0124 517.564C93.8846 517.22 93.6914 516.949 93.4329 516.75C93.1772 516.551 92.8576 516.452 92.4741 516.452C92.1048 516.452 91.7923 516.547 91.5366 516.737C91.2837 516.928 91.092 517.193 90.9613 517.534C90.8306 517.875 90.7653 518.273 90.7653 518.727ZM101.069 519.286V515.455H102.348V522H101.095V520.867H101.027C100.876 521.216 100.635 521.507 100.302 521.74C99.9727 521.97 99.5621 522.085 99.0707 522.085C98.6502 522.085 98.2781 521.993 97.9542 521.808C97.6332 521.621 97.3803 521.344 97.1957 520.977C97.0138 520.611 96.9229 520.158 96.9229 519.618V515.455H98.1971V519.465C98.1971 519.911 98.3207 520.266 98.5678 520.53C98.815 520.794 99.136 520.926 99.5309 520.926C99.7695 520.926 100.007 520.867 100.243 520.747C100.481 520.628 100.679 520.447 100.835 520.206C100.994 519.965 101.072 519.658 101.069 519.286ZM107.115 515.455V516.477H103.54V515.455H107.115ZM104.499 513.886H105.773V520.078C105.773 520.325 105.81 520.511 105.884 520.636C105.957 520.759 106.053 520.842 106.169 520.888C106.288 520.93 106.418 520.952 106.557 520.952C106.659 520.952 106.749 520.945 106.825 520.93C106.902 520.916 106.962 520.905 107.004 520.896L107.234 521.949C107.161 521.977 107.055 522.006 106.919 522.034C106.783 522.065 106.612 522.082 106.408 522.085C106.072 522.091 105.76 522.031 105.47 521.906C105.18 521.781 104.946 521.588 104.767 521.327C104.588 521.065 104.499 520.737 104.499 520.342V513.886ZM111.275 522.132C110.63 522.132 110.075 521.994 109.609 521.719C109.146 521.44 108.788 521.05 108.535 520.547C108.285 520.041 108.16 519.449 108.16 518.77C108.16 518.099 108.285 517.509 108.535 516.997C108.788 516.486 109.14 516.087 109.592 515.8C110.047 515.513 110.578 515.369 111.186 515.369C111.555 515.369 111.913 515.43 112.26 515.553C112.606 515.675 112.917 515.867 113.193 516.128C113.468 516.389 113.686 516.729 113.845 517.146C114.004 517.561 114.083 518.065 114.083 518.659V519.111H108.88V518.156H112.835C112.835 517.821 112.767 517.524 112.63 517.266C112.494 517.004 112.302 516.798 112.055 516.648C111.811 516.497 111.524 516.422 111.194 516.422C110.836 516.422 110.524 516.51 110.257 516.686C109.993 516.859 109.788 517.087 109.643 517.368C109.501 517.646 109.43 517.949 109.43 518.276V519.021C109.43 519.459 109.507 519.831 109.66 520.138C109.816 520.445 110.034 520.679 110.312 520.841C110.591 521 110.916 521.08 111.288 521.08C111.529 521.08 111.75 521.045 111.949 520.977C112.147 520.906 112.319 520.801 112.464 520.662C112.609 520.523 112.72 520.351 112.797 520.146L114.002 520.364C113.906 520.719 113.733 521.03 113.483 521.297C113.235 521.561 112.924 521.767 112.549 521.915C112.177 522.06 111.752 522.132 111.275 522.132Z" fill="#CDDAED"/>
<rect x="40" y="510" width="14" height="14" rx="2" fill="#A5C4FF"/>
<path d="M180.719 515.565C180.673 515.162 180.486 514.849 180.156 514.628C179.827 514.403 179.412 514.291 178.912 514.291C178.554 514.291 178.244 514.348 177.983 514.462C177.722 514.572 177.518 514.726 177.374 514.922C177.232 515.115 177.161 515.335 177.161 515.582C177.161 515.79 177.209 515.969 177.305 516.119C177.405 516.27 177.534 516.396 177.693 516.499C177.855 516.598 178.028 516.682 178.213 516.75C178.398 516.815 178.575 516.869 178.746 516.912L179.598 517.134C179.876 517.202 180.162 517.294 180.455 517.411C180.747 517.527 181.018 517.68 181.268 517.871C181.518 518.061 181.72 518.297 181.874 518.578C182.03 518.859 182.108 519.196 182.108 519.588C182.108 520.082 181.98 520.521 181.724 520.905C181.472 521.288 181.104 521.591 180.621 521.813C180.141 522.034 179.56 522.145 178.878 522.145C178.224 522.145 177.659 522.041 177.182 521.834C176.705 521.626 176.331 521.332 176.061 520.952C175.791 520.568 175.642 520.114 175.614 519.588H176.935C176.96 519.903 177.063 520.166 177.241 520.376C177.423 520.584 177.655 520.739 177.936 520.841C178.22 520.94 178.531 520.99 178.869 520.99C179.241 520.99 179.572 520.932 179.862 520.815C180.155 520.696 180.385 520.531 180.553 520.321C180.72 520.108 180.804 519.859 180.804 519.575C180.804 519.317 180.73 519.105 180.582 518.94C180.438 518.776 180.24 518.639 179.99 518.531C179.743 518.423 179.463 518.328 179.151 518.246L178.119 517.965C177.42 517.774 176.866 517.494 176.457 517.125C176.051 516.756 175.848 516.267 175.848 515.659C175.848 515.156 175.984 514.717 176.257 514.342C176.53 513.967 176.899 513.676 177.365 513.469C177.831 513.259 178.357 513.153 178.942 513.153C179.533 513.153 180.054 513.257 180.506 513.465C180.96 513.672 181.318 513.957 181.58 514.321C181.841 514.682 181.977 515.097 181.989 515.565H180.719ZM186.6 522.119C186.015 522.119 185.493 522.018 185.032 521.817C184.575 521.615 184.213 521.335 183.946 520.977C183.681 520.617 183.539 520.199 183.52 519.724H184.858C184.875 519.983 184.961 520.207 185.118 520.398C185.277 520.585 185.484 520.73 185.74 520.832C185.995 520.935 186.279 520.986 186.592 520.986C186.936 520.986 187.24 520.926 187.504 520.807C187.771 520.688 187.98 520.521 188.13 520.308C188.281 520.092 188.356 519.844 188.356 519.563C188.356 519.27 188.281 519.013 188.13 518.791C187.983 518.567 187.765 518.391 187.478 518.263C187.194 518.135 186.85 518.071 186.447 518.071H185.71V516.997H186.447C186.771 516.997 187.055 516.939 187.299 516.822C187.547 516.706 187.74 516.544 187.879 516.337C188.018 516.126 188.088 515.881 188.088 515.599C188.088 515.33 188.027 515.095 187.904 514.896C187.785 514.695 187.615 514.537 187.393 514.423C187.174 514.31 186.916 514.253 186.618 514.253C186.333 514.253 186.068 514.305 185.821 514.411C185.576 514.513 185.377 514.661 185.224 514.854C185.071 515.044 184.988 515.273 184.977 515.54H183.703C183.717 515.068 183.856 514.653 184.12 514.295C184.387 513.938 184.74 513.658 185.177 513.456C185.615 513.254 186.1 513.153 186.635 513.153C187.194 513.153 187.677 513.263 188.083 513.482C188.493 513.697 188.808 513.986 189.029 514.347C189.254 514.707 189.365 515.102 189.362 515.531C189.365 516.02 189.228 516.435 188.953 516.776C188.68 517.117 188.316 517.345 187.862 517.462V517.53C188.441 517.618 188.89 517.848 189.208 518.22C189.529 518.592 189.689 519.054 189.686 519.605C189.689 520.085 189.555 520.516 189.285 520.896C189.018 521.277 188.653 521.577 188.19 521.795C187.727 522.011 187.197 522.119 186.6 522.119Z" fill="#CDDAED"/>
<rect x="153" y="510" width="14" height="14" rx="2" fill="#3499FF"/>
<path d="M251.959 522V513.273H257.43V514.406H253.276V517.065H257.145V518.195H253.276V520.867H257.482V522H251.959ZM262.944 517.082V518.19H259.074V517.082H262.944ZM269.504 515.565C269.458 515.162 269.271 514.849 268.941 514.628C268.612 514.403 268.197 514.291 267.697 514.291C267.339 514.291 267.029 514.348 266.768 514.462C266.507 514.572 266.304 514.726 266.159 514.922C266.017 515.115 265.946 515.335 265.946 515.582C265.946 515.79 265.994 515.969 266.091 516.119C266.19 516.27 266.319 516.396 266.478 516.499C266.64 516.598 266.814 516.682 266.998 516.75C267.183 516.815 267.36 516.869 267.531 516.912L268.383 517.134C268.662 517.202 268.947 517.294 269.24 517.411C269.532 517.527 269.804 517.68 270.054 517.871C270.304 518.061 270.505 518.297 270.659 518.578C270.815 518.859 270.893 519.196 270.893 519.588C270.893 520.082 270.765 520.521 270.51 520.905C270.257 521.288 269.889 521.591 269.406 521.813C268.926 522.034 268.345 522.145 267.663 522.145C267.01 522.145 266.444 522.041 265.967 521.834C265.49 521.626 265.116 521.332 264.846 520.952C264.576 520.568 264.427 520.114 264.399 519.588H265.72C265.745 519.903 265.848 520.166 266.027 520.376C266.208 520.584 266.44 520.739 266.721 520.841C267.005 520.94 267.316 520.99 267.654 520.99C268.027 520.99 268.358 520.932 268.647 520.815C268.94 520.696 269.17 520.531 269.338 520.321C269.505 520.108 269.589 519.859 269.589 519.575C269.589 519.317 269.515 519.105 269.368 518.94C269.223 518.776 269.025 518.639 268.775 518.531C268.528 518.423 268.248 518.328 267.936 518.246L266.904 517.965C266.206 517.774 265.652 517.494 265.243 517.125C264.836 516.756 264.633 516.267 264.633 515.659C264.633 515.156 264.77 514.717 265.042 514.342C265.315 513.967 265.684 513.676 266.15 513.469C266.616 513.259 267.142 513.153 267.727 513.153C268.318 513.153 268.839 513.257 269.291 513.465C269.745 513.672 270.103 513.957 270.365 514.321C270.626 514.682 270.762 515.097 270.774 515.565H269.504ZM275.386 522.119C274.8 522.119 274.278 522.018 273.817 521.817C273.36 521.615 272.998 521.335 272.731 520.977C272.467 520.617 272.325 520.199 272.305 519.724H273.643C273.66 519.983 273.746 520.207 273.903 520.398C274.062 520.585 274.269 520.73 274.525 520.832C274.781 520.935 275.065 520.986 275.377 520.986C275.721 520.986 276.025 520.926 276.289 520.807C276.556 520.688 276.765 520.521 276.915 520.308C277.066 520.092 277.141 519.844 277.141 519.563C277.141 519.27 277.066 519.013 276.915 518.791C276.768 518.567 276.55 518.391 276.263 518.263C275.979 518.135 275.636 518.071 275.232 518.071H274.495V516.997H275.232C275.556 516.997 275.84 516.939 276.085 516.822C276.332 516.706 276.525 516.544 276.664 516.337C276.803 516.126 276.873 515.881 276.873 515.599C276.873 515.33 276.812 515.095 276.69 514.896C276.57 514.695 276.4 514.537 276.178 514.423C275.96 514.31 275.701 514.253 275.403 514.253C275.119 514.253 274.853 514.305 274.606 514.411C274.362 514.513 274.163 514.661 274.009 514.854C273.856 515.044 273.773 515.273 273.762 515.54H272.488C272.502 515.068 272.641 514.653 272.906 514.295C273.173 513.938 273.525 513.658 273.962 513.456C274.4 513.254 274.886 513.153 275.42 513.153C275.979 513.153 276.462 513.263 276.869 513.482C277.278 513.697 277.593 513.986 277.815 514.347C278.039 514.707 278.15 515.102 278.147 515.531C278.15 516.02 278.013 516.435 277.738 516.776C277.465 517.117 277.102 517.345 276.647 517.462V517.53C277.227 517.618 277.675 517.848 277.994 518.22C278.315 518.592 278.474 519.054 278.471 519.605C278.474 520.085 278.34 520.516 278.07 520.896C277.803 521.277 277.438 521.577 276.975 521.795C276.512 522.011 275.982 522.119 275.386 522.119Z" fill="#CDDAED"/>
<rect x="229" y="511" width="13" height="13" rx="2" fill="#6243F0"/>
<defs>
<filter id="filter0_f_5312_7429" x="-89.1035" y="-140.875" width="667.771" height="564.29" filterUnits="userSpaceOnUse" color-interpolation-filters="sRGB">
<feFlood flood-opacity="0" result="BackgroundImageFix"/>
<feBlend mode="normal" in="SourceGraphic" in2="BackgroundImageFix" result="shape"/>
<feGaussianBlur stdDeviation="105" result="effect1_foregroundBlur_5312_7429"/>
</filter>
<linearGradient id="paint0_linear_5312_7429" x1="-25.776" y1="423.5" x2="320" y2="423.5" gradientUnits="userSpaceOnUse">
<stop stop-color="#080C26"/>
<stop offset="0.465026" stop-color="#50688B"/>
<stop offset="1" stop-color="#080C26"/>
</linearGradient>
<linearGradient id="paint1_linear_5312_7429" x1="-25.776" y1="393.5" x2="320" y2="393.5" gradientUnits="userSpaceOnUse">
<stop stop-color="#080C26"/>
<stop offset="0.465026" stop-color="#50688B"/>
<stop offset="1" stop-color="#080C26"/>
</linearGradient>
<linearGradient id="paint2_linear_5312_7429" x1="-25.776" y1="363.5" x2="320" y2="363.5" gradientUnits="userSpaceOnUse">
<stop stop-color="#080C26"/>
<stop offset="0.465026" stop-color="#50688B"/>
<stop offset="1" stop-color="#080C26"/>
</linearGradient>
<linearGradient id="paint3_linear_5312_7429" x1="-25.776" y1="333.5" x2="320" y2="333.5" gradientUnits="userSpaceOnUse">
<stop stop-color="#080C26"/>
<stop offset="0.465026" stop-color="#50688B"/>
<stop offset="1" stop-color="#080C26"/>
</linearGradient>
<linearGradient id="paint4_linear_5312_7429" x1="-25.776" y1="303.5" x2="320" y2="303.5" gradientUnits="userSpaceOnUse">
<stop stop-color="#080C26"/>
<stop offset="0.465026" stop-color="#50688B"/>
<stop offset="1" stop-color="#080C26"/>
</linearGradient>
<linearGradient id="paint5_linear_5312_7429" x1="-25.776" y1="273.5" x2="320" y2="273.5" gradientUnits="userSpaceOnUse">
<stop stop-color="#080C26"/>
<stop offset="0.465026" stop-color="#50688B"/>
<stop offset="1" stop-color="#080C26"/>
</linearGradient>
<linearGradient id="paint6_linear_5312_7429" x1="-25.7759" y1="243.587" x2="320" y2="243.483" gradientUnits="userSpaceOnUse">
<stop stop-color="#080C26"/>
<stop offset="0.465026" stop-color="#50688B"/>
<stop offset="1" stop-color="#080C26"/>
</linearGradient>
<linearGradient id="paint7_linear_5312_7429" x1="-25.7759" y1="211.587" x2="320" y2="211.483" gradientUnits="userSpaceOnUse">
<stop stop-color="#080C26"/>
<stop offset="0.465026" stop-color="#50688B"/>
<stop offset="1" stop-color="#080C26"/>
</linearGradient>
<linearGradient id="paint8_linear_5312_7429" x1="240.623" y1="302.595" x2="136.549" y2="218.233" gradientUnits="userSpaceOnUse">
<stop stop-color="#30D5C8"/>
<stop offset="1" stop-color="#080C26"/>
</linearGradient>
<linearGradient id="paint9_linear_5312_7429" x1="226.885" y1="235.684" x2="185.994" y2="207.174" gradientUnits="userSpaceOnUse">
<stop stop-color="#38FFEF"/>
<stop offset="1" stop-color="#30D5C8" stop-opacity="0.3"/>
</linearGradient>
<linearGradient id="paint10_linear_5312_7429" x1="10" y1="176" x2="135" y2="176" gradientUnits="userSpaceOnUse">
<stop stop-color="#2B0D0D"/>
<stop offset="1" stop-color="#080C26"/>
</linearGradient>
<linearGradient id="paint11_linear_5312_7429" x1="10" y1="176" x2="135" y2="176" gradientUnits="userSpaceOnUse">
<stop stop-color="#DF4343"/>
<stop offset="1" stop-color="#521919"/>
</linearGradient>
<linearGradient id="paint12_linear_5312_7429" x1="170" y1="264" x2="285" y2="264" gradientUnits="userSpaceOnUse">
<stop stop-color="#0D3236"/>
<stop offset="1" stop-color="#080C26"/>
</linearGradient>
<linearGradient id="paint13_linear_5312_7429" x1="170" y1="264" x2="285" y2="264" gradientUnits="userSpaceOnUse">
<stop stop-color="#66F2C3"/>
<stop offset="1" stop-color="#184D52"/>
</linearGradient>
<linearGradient id="paint14_linear_5312_7429" x1="376.676" y1="140.06" x2="223.512" y2="248.331" gradientUnits="userSpaceOnUse">
<stop stop-color="#30D5C8"/>
<stop offset="1" stop-color="#7557FF"/>
</linearGradient>
<linearGradient id="paint15_linear_5312_7429" x1="268.972" y1="439" x2="268.747" y2="451.414" gradientUnits="userSpaceOnUse">
<stop stop-color="#30D5C8"/>
<stop offset="1" stop-color="#7557FF"/>
</linearGradient>
<clipPath id="clip0_5312_7429">
<rect width="18" height="18" fill="white" transform="translate(83 167)"/>
</clipPath>
<clipPath id="clip1_5312_7429">
<rect width="18" height="18" fill="white" transform="translate(233 255)"/>
</clipPath>
</defs>
</svg>
