<svg width="360" height="666" viewBox="0 0 360 666" fill="none" xmlns="http://www.w3.org/2000/svg">
<path d="M20 564H340" stroke="url(#paint0_linear_212_84)" stroke-opacity="0.5" stroke-width="1.5"/>
<path d="M48.3503 583.909C48.3503 585.006 48.1448 585.946 47.7338 586.728C47.3262 587.507 46.7694 588.103 46.0634 588.518C45.3607 588.932 44.5636 589.139 43.6721 589.139C42.7805 589.139 41.9817 588.932 41.2757 588.518C40.5731 588.1 40.0163 587.502 39.6053 586.723C39.1976 585.941 38.9938 585.003 38.9938 583.909C38.9938 582.812 39.1976 581.874 39.6053 581.095C40.0163 580.313 40.5731 579.715 41.2757 579.3C41.9817 578.886 42.7805 578.679 43.6721 578.679C44.5636 578.679 45.3607 578.886 46.0634 579.3C46.7694 579.715 47.3262 580.313 47.7338 581.095C48.1448 581.874 48.3503 582.812 48.3503 583.909ZM46.4959 583.909C46.4959 583.137 46.3749 582.486 46.133 581.955C45.8944 581.422 45.5629 581.019 45.1387 580.747C44.7144 580.472 44.2256 580.335 43.6721 580.335C43.1185 580.335 42.6297 580.472 42.2054 580.747C41.7812 581.019 41.4481 581.422 41.2061 581.955C40.9675 582.486 40.8482 583.137 40.8482 583.909C40.8482 584.681 40.9675 585.334 41.2061 585.868C41.4481 586.398 41.7812 586.801 42.2054 587.076C42.6297 587.348 43.1185 587.484 43.6721 587.484C44.2256 587.484 44.7144 587.348 45.1387 587.076C45.5629 586.801 45.8944 586.398 46.133 585.868C46.3749 585.334 46.4959 584.681 46.4959 583.909ZM53.8278 581.364V582.756H49.4379V581.364H53.8278ZM50.5217 579.534H52.3214V586.703C52.3214 586.945 52.3578 587.131 52.4308 587.26C52.507 587.386 52.6064 587.472 52.729 587.518C52.8517 587.565 52.9876 587.588 53.1367 587.588C53.2494 587.588 53.3522 587.58 53.445 587.563C53.5411 587.547 53.614 587.532 53.6637 587.518L53.967 588.925C53.8709 588.959 53.7333 588.995 53.5543 589.035C53.3787 589.075 53.1632 589.098 52.908 589.104C52.4573 589.118 52.0513 589.05 51.69 588.901C51.3287 588.748 51.042 588.513 50.8299 588.195C50.6211 587.876 50.5183 587.479 50.5217 587.001V579.534ZM57.2967 584.526V589H55.497V578.818H57.2569V582.661H57.3464C57.5254 582.23 57.8021 581.891 58.1767 581.642C58.5545 581.39 59.0351 581.264 59.6184 581.264C60.1487 581.264 60.6111 581.375 61.0055 581.597C61.3999 581.819 61.7048 582.144 61.9203 582.572C62.139 582.999 62.2484 583.521 62.2484 584.138V589H60.4487V584.416C60.4487 583.902 60.3161 583.503 60.051 583.218C59.7891 582.93 59.4212 582.786 58.9473 582.786C58.6291 582.786 58.344 582.855 58.0922 582.994C57.8436 583.13 57.648 583.327 57.5055 583.586C57.3663 583.844 57.2967 584.158 57.2967 584.526ZM67.4636 589.149C66.698 589.149 66.0368 588.99 65.4799 588.672C64.9264 588.35 64.5005 587.896 64.2022 587.31C63.9039 586.72 63.7548 586.025 63.7548 585.227C63.7548 584.441 63.9039 583.752 64.2022 583.158C64.5038 582.562 64.9248 582.098 65.465 581.766C66.0053 581.432 66.64 581.264 67.3691 581.264C67.8398 581.264 68.2839 581.34 68.7015 581.493C69.1225 581.642 69.4937 581.874 69.8152 582.189C70.14 582.504 70.3952 582.905 70.5808 583.392C70.7664 583.876 70.8592 584.453 70.8592 585.122V585.674H64.6V584.461H69.1341C69.1307 584.116 69.0562 583.81 68.9103 583.541C68.7645 583.269 68.5607 583.056 68.2988 582.9C68.0403 582.744 67.7387 582.666 67.394 582.666C67.0261 582.666 66.7029 582.756 66.4245 582.935C66.1461 583.11 65.929 583.342 65.7733 583.631C65.6208 583.916 65.5429 584.229 65.5396 584.57V585.629C65.5396 586.073 65.6208 586.455 65.7832 586.773C65.9456 587.088 66.1726 587.33 66.4643 587.499C66.756 587.664 67.0974 587.747 67.4885 587.747C67.7503 587.747 67.9873 587.711 68.1994 587.638C68.4115 587.562 68.5955 587.451 68.7512 587.305C68.907 587.159 69.0247 586.978 69.1042 586.763L70.7846 586.952C70.6786 587.396 70.4764 587.784 70.1781 588.115C69.8831 588.443 69.5053 588.698 69.0446 588.881C68.5839 589.06 68.0569 589.149 67.4636 589.149ZM72.3817 589V581.364H74.1268V582.636H74.2063C74.3455 582.196 74.5842 581.856 74.9222 581.617C75.2636 581.375 75.6531 581.254 76.0906 581.254C76.19 581.254 76.301 581.259 76.4237 581.269C76.5496 581.276 76.654 581.287 76.7369 581.304V582.96C76.6606 582.933 76.5397 582.91 76.3739 582.89C76.2115 582.867 76.0541 582.855 75.9016 582.855C75.5735 582.855 75.2785 582.926 75.0167 583.069C74.7582 583.208 74.5543 583.402 74.4052 583.651C74.256 583.899 74.1815 584.186 74.1815 584.511V589H72.3817ZM83.6275 589L80.7539 578.818H82.7376L84.5721 586.3H84.6665L86.6254 578.818H88.43L90.3938 586.305H90.4833L92.3178 578.818H94.3015L91.4279 589H89.6083L87.57 581.856H87.4904L85.4471 589H83.6275ZM96.919 589.154C96.4351 589.154 95.9993 589.068 95.6115 588.896C95.227 588.72 94.9221 588.461 94.6967 588.12C94.4747 587.779 94.3636 587.358 94.3636 586.857C94.3636 586.426 94.4432 586.07 94.6023 585.788C94.7614 585.507 94.9785 585.281 95.2536 585.112C95.5286 584.943 95.8385 584.816 96.1832 584.729C96.5313 584.64 96.8909 584.575 97.2621 584.536C97.7095 584.489 98.0724 584.448 98.3509 584.411C98.6293 584.371 98.8314 584.312 98.9574 584.232C99.0866 584.149 99.1513 584.022 99.1513 583.849V583.82C99.1513 583.445 99.0402 583.155 98.8182 582.95C98.5961 582.744 98.2763 582.641 97.8587 582.641C97.4179 582.641 97.0682 582.737 96.8097 582.93C96.5545 583.122 96.3821 583.349 96.2926 583.611L94.6122 583.372C94.7448 582.908 94.9635 582.52 95.2685 582.209C95.5734 581.894 95.9463 581.659 96.3871 581.503C96.8279 581.344 97.3151 581.264 97.8487 581.264C98.2166 581.264 98.5829 581.307 98.9474 581.393C99.312 581.48 99.6451 581.622 99.9467 581.821C100.248 582.017 100.49 582.283 100.673 582.621C100.858 582.96 100.951 583.382 100.951 583.889V589H99.2209V587.951H99.1612C99.0518 588.163 98.8977 588.362 98.6989 588.548C98.5033 588.73 98.2564 588.877 97.9581 588.99C97.6631 589.099 97.3168 589.154 96.919 589.154ZM97.3864 587.832C97.7476 587.832 98.0608 587.76 98.326 587.618C98.5911 587.472 98.795 587.28 98.9375 587.041C99.0833 586.803 99.1562 586.542 99.1562 586.261V585.361C99.0999 585.407 99.0038 585.45 98.8679 585.49C98.7353 585.53 98.5862 585.565 98.4205 585.594C98.2547 585.624 98.0907 585.651 97.9283 585.674C97.7659 585.697 97.625 585.717 97.5057 585.734C97.2372 585.77 96.9969 585.83 96.7848 585.913C96.5727 585.996 96.4053 586.112 96.2827 586.261C96.16 586.406 96.0987 586.595 96.0987 586.827C96.0987 587.159 96.2197 587.409 96.4616 587.578C96.7036 587.747 97.0118 587.832 97.3864 587.832ZM102.761 589V581.364H104.506V582.636H104.585C104.724 582.196 104.963 581.856 105.301 581.617C105.643 581.375 106.032 581.254 106.469 581.254C106.569 581.254 106.68 581.259 106.803 581.269C106.929 581.276 107.033 581.287 107.116 581.304V582.96C107.04 582.933 106.919 582.91 106.753 582.89C106.59 582.867 106.433 582.855 106.281 582.855C105.952 582.855 105.657 582.926 105.396 583.069C105.137 583.208 104.933 583.402 104.784 583.651C104.635 583.899 104.56 584.186 104.56 584.511V589H102.761ZM111.378 589.149C110.612 589.149 109.951 588.99 109.394 588.672C108.84 588.35 108.415 587.896 108.116 587.31C107.818 586.72 107.669 586.025 107.669 585.227C107.669 584.441 107.818 583.752 108.116 583.158C108.418 582.562 108.839 582.098 109.379 581.766C109.919 581.432 110.554 581.264 111.283 581.264C111.754 581.264 112.198 581.34 112.616 581.493C113.037 581.642 113.408 581.874 113.729 582.189C114.054 582.504 114.309 582.905 114.495 583.392C114.68 583.876 114.773 584.453 114.773 585.122V585.674H108.514V584.461H113.048C113.045 584.116 112.97 583.81 112.824 583.541C112.679 583.269 112.475 583.056 112.213 582.9C111.954 582.744 111.653 582.666 111.308 582.666C110.94 582.666 110.617 582.756 110.339 582.935C110.06 583.11 109.843 583.342 109.687 583.631C109.535 583.916 109.457 584.229 109.454 584.57V585.629C109.454 586.073 109.535 586.455 109.697 586.773C109.86 587.088 110.087 587.33 110.378 587.499C110.67 587.664 111.011 587.747 111.403 587.747C111.664 587.747 111.901 587.711 112.113 587.638C112.326 587.562 112.51 587.451 112.665 587.305C112.821 587.159 112.939 586.978 113.018 586.763L114.699 586.952C114.593 587.396 114.39 587.784 114.092 588.115C113.797 588.443 113.419 588.698 112.959 588.881C112.498 589.06 111.971 589.149 111.378 589.149ZM118.096 584.526V589H116.296V578.818H118.056V582.661H118.145C118.324 582.23 118.601 581.891 118.975 581.642C119.353 581.39 119.834 581.264 120.417 581.264C120.948 581.264 121.41 581.375 121.804 581.597C122.199 581.819 122.504 582.144 122.719 582.572C122.938 582.999 123.047 583.521 123.047 584.138V589H121.248V584.416C121.248 583.902 121.115 583.503 120.85 583.218C120.588 582.93 120.22 582.786 119.746 582.786C119.428 582.786 119.143 582.855 118.891 582.994C118.642 583.13 118.447 583.327 118.304 583.586C118.165 583.844 118.096 584.158 118.096 584.526ZM128.213 589.149C127.467 589.149 126.821 588.985 126.274 588.657C125.727 588.329 125.303 587.87 125.001 587.28C124.703 586.69 124.554 586 124.554 585.212C124.554 584.423 124.703 583.732 125.001 583.138C125.303 582.545 125.727 582.085 126.274 581.756C126.821 581.428 127.467 581.264 128.213 581.264C128.958 581.264 129.605 581.428 130.152 581.756C130.699 582.085 131.121 582.545 131.419 583.138C131.721 583.732 131.872 584.423 131.872 585.212C131.872 586 131.721 586.69 131.419 587.28C131.121 587.87 130.699 588.329 130.152 588.657C129.605 588.985 128.958 589.149 128.213 589.149ZM128.223 587.707C128.627 587.707 128.965 587.596 129.237 587.374C129.509 587.149 129.711 586.847 129.843 586.469C129.979 586.092 130.047 585.671 130.047 585.207C130.047 584.739 129.979 584.317 129.843 583.939C129.711 583.558 129.509 583.254 129.237 583.029C128.965 582.804 128.627 582.691 128.223 582.691C127.808 582.691 127.464 582.804 127.189 583.029C126.917 583.254 126.713 583.558 126.577 583.939C126.444 584.317 126.378 584.739 126.378 585.207C126.378 585.671 126.444 586.092 126.577 586.469C126.713 586.847 126.917 587.149 127.189 587.374C127.464 587.596 127.808 587.707 128.223 587.707ZM138.267 585.788V581.364H140.066V589H138.321V587.643H138.242C138.069 588.07 137.786 588.42 137.392 588.692C137 588.964 136.518 589.099 135.945 589.099C135.444 589.099 135.002 588.988 134.617 588.766C134.236 588.541 133.938 588.214 133.722 587.787C133.507 587.356 133.399 586.836 133.399 586.226V581.364H135.199V585.947C135.199 586.431 135.332 586.816 135.597 587.101C135.862 587.386 136.21 587.528 136.641 587.528C136.906 587.528 137.163 587.464 137.411 587.335C137.66 587.205 137.864 587.013 138.023 586.758C138.185 586.499 138.267 586.176 138.267 585.788ZM147.952 583.382L146.312 583.561C146.265 583.395 146.184 583.24 146.068 583.094C145.955 582.948 145.803 582.83 145.611 582.741C145.419 582.651 145.183 582.607 144.905 582.607C144.53 582.607 144.215 582.688 143.96 582.85C143.708 583.013 143.584 583.223 143.587 583.482C143.584 583.704 143.665 583.884 143.831 584.023C144 584.163 144.278 584.277 144.666 584.366L145.969 584.645C146.691 584.801 147.228 585.048 147.58 585.386C147.934 585.724 148.113 586.166 148.116 586.713C148.113 587.194 147.972 587.618 147.694 587.986C147.419 588.35 147.036 588.635 146.545 588.841C146.055 589.046 145.491 589.149 144.855 589.149C143.92 589.149 143.168 588.954 142.598 588.562C142.028 588.168 141.688 587.62 141.579 586.917L143.334 586.748C143.413 587.093 143.582 587.353 143.841 587.528C144.099 587.704 144.436 587.792 144.85 587.792C145.278 587.792 145.621 587.704 145.879 587.528C146.141 587.353 146.272 587.136 146.272 586.877C146.272 586.658 146.188 586.478 146.018 586.335C145.853 586.193 145.594 586.083 145.243 586.007L143.94 585.734C143.208 585.581 142.666 585.324 142.315 584.963C141.963 584.598 141.789 584.138 141.793 583.581C141.789 583.11 141.917 582.703 142.175 582.358C142.437 582.01 142.8 581.741 143.264 581.553C143.732 581.36 144.27 581.264 144.88 581.264C145.775 581.264 146.479 581.455 146.993 581.836C147.51 582.217 147.83 582.732 147.952 583.382ZM152.981 589.149C152.216 589.149 151.554 588.99 150.998 588.672C150.444 588.35 150.018 587.896 149.72 587.31C149.422 586.72 149.272 586.025 149.272 585.227C149.272 584.441 149.422 583.752 149.72 583.158C150.021 582.562 150.442 582.098 150.983 581.766C151.523 581.432 152.158 581.264 152.887 581.264C153.357 581.264 153.801 581.34 154.219 581.493C154.64 581.642 155.011 581.874 155.333 582.189C155.658 582.504 155.913 582.905 156.098 583.392C156.284 583.876 156.377 584.453 156.377 585.122V585.674H150.118V584.461H154.652C154.648 584.116 154.574 583.81 154.428 583.541C154.282 583.269 154.078 583.056 153.816 582.9C153.558 582.744 153.256 582.666 152.912 582.666C152.544 582.666 152.221 582.756 151.942 582.935C151.664 583.11 151.447 583.342 151.291 583.631C151.138 583.916 151.06 584.229 151.057 584.57V585.629C151.057 586.073 151.138 586.455 151.301 586.773C151.463 587.088 151.69 587.33 151.982 587.499C152.274 587.664 152.615 587.747 153.006 587.747C153.268 587.747 153.505 587.711 153.717 587.638C153.929 587.562 154.113 587.451 154.269 587.305C154.425 587.159 154.542 586.978 154.622 586.763L156.302 586.952C156.196 587.396 155.994 587.784 155.696 588.115C155.401 588.443 155.023 588.698 154.562 588.881C154.101 589.06 153.574 589.149 152.981 589.149ZM162.056 578.341L158.774 590.531H157.198L160.48 578.341H162.056ZM52.184 608H48.7338V597.818H52.2536C53.2645 597.818 54.1329 598.022 54.8588 598.43C55.5879 598.834 56.1481 599.416 56.5392 600.175C56.9303 600.934 57.1258 601.842 57.1258 602.899C57.1258 603.96 56.9286 604.871 56.5342 605.634C56.1431 606.396 55.578 606.981 54.8389 607.388C54.1031 607.796 53.2181 608 52.184 608ZM50.5782 606.404H52.0945C52.8038 606.404 53.3954 606.275 53.8694 606.016C54.3434 605.754 54.6997 605.365 54.9383 604.848C55.1769 604.328 55.2963 603.678 55.2963 602.899C55.2963 602.12 55.1769 601.474 54.9383 600.96C54.6997 600.443 54.3467 600.057 53.8794 599.802C53.4153 599.543 52.8386 599.414 52.1492 599.414H50.5782V606.404ZM60.9962 608.154C60.5123 608.154 60.0764 608.068 59.6887 607.896C59.3042 607.72 58.9993 607.461 58.7739 607.12C58.5518 606.779 58.4408 606.358 58.4408 605.857C58.4408 605.426 58.5203 605.07 58.6794 604.788C58.8385 604.507 59.0556 604.281 59.3307 604.112C59.6058 603.943 59.9157 603.816 60.2604 603.729C60.6084 603.64 60.968 603.575 61.3392 603.536C61.7867 603.489 62.1496 603.448 62.428 603.411C62.7064 603.371 62.9086 603.312 63.0345 603.232C63.1638 603.149 63.2284 603.022 63.2284 602.849V602.82C63.2284 602.445 63.1174 602.155 62.8953 601.95C62.6733 601.744 62.3534 601.641 61.9358 601.641C61.495 601.641 61.1453 601.737 60.8868 601.93C60.6316 602.122 60.4593 602.349 60.3698 602.611L58.6894 602.372C58.8219 601.908 59.0407 601.52 59.3456 601.209C59.6505 600.894 60.0234 600.659 60.4642 600.503C60.905 600.344 61.3923 600.264 61.9259 600.264C62.2938 600.264 62.66 600.307 63.0246 600.393C63.3892 600.48 63.7223 600.622 64.0239 600.821C64.3255 601.017 64.5674 601.283 64.7497 601.621C64.9353 601.96 65.0281 602.382 65.0281 602.889V608H63.298V606.951H63.2384C63.129 607.163 62.9749 607.362 62.776 607.548C62.5805 607.73 62.3335 607.877 62.0352 607.99C61.7403 608.099 61.3939 608.154 60.9962 608.154ZM61.4635 606.832C61.8248 606.832 62.138 606.76 62.4031 606.618C62.6683 606.472 62.8721 606.28 63.0146 606.041C63.1605 605.803 63.2334 605.542 63.2334 605.261V604.361C63.1771 604.407 63.0809 604.45 62.945 604.49C62.8125 604.53 62.6633 604.565 62.4976 604.594C62.3319 604.624 62.1678 604.651 62.0054 604.674C61.843 604.697 61.7021 604.717 61.5828 604.734C61.3144 604.77 61.0741 604.83 60.8619 604.913C60.6498 604.996 60.4825 605.112 60.3598 605.261C60.2372 605.406 60.1759 605.595 60.1759 605.827C60.1759 606.159 60.2968 606.409 60.5388 606.578C60.7807 606.747 61.089 606.832 61.4635 606.832ZM70.651 600.364V601.756H66.2611V600.364H70.651ZM67.3449 598.534H69.1446V605.703C69.1446 605.945 69.1811 606.131 69.254 606.26C69.3302 606.386 69.4297 606.472 69.5523 606.518C69.6749 606.565 69.8108 606.588 69.96 606.588C70.0727 606.588 70.1754 606.58 70.2682 606.563C70.3643 606.547 70.4372 606.532 70.4869 606.518L70.7902 607.925C70.6941 607.959 70.5566 607.995 70.3776 608.035C70.2019 608.075 69.9865 608.098 69.7313 608.104C69.2805 608.118 68.8745 608.05 68.5132 607.901C68.152 607.748 67.8653 607.513 67.6531 607.195C67.4443 606.876 67.3416 606.479 67.3449 606.001V598.534ZM74.3536 608.154C73.8697 608.154 73.4339 608.068 73.0461 607.896C72.6616 607.72 72.3567 607.461 72.1313 607.12C71.9092 606.779 71.7982 606.358 71.7982 605.857C71.7982 605.426 71.8778 605.07 72.0368 604.788C72.1959 604.507 72.413 604.281 72.6881 604.112C72.9632 603.943 73.2731 603.816 73.6178 603.729C73.9658 603.64 74.3254 603.575 74.6966 603.536C75.1441 603.489 75.507 603.448 75.7854 603.411C76.0638 603.371 76.266 603.312 76.392 603.232C76.5212 603.149 76.5858 603.022 76.5858 602.849V602.82C76.5858 602.445 76.4748 602.155 76.2528 601.95C76.0307 601.744 75.7108 601.641 75.2932 601.641C74.8524 601.641 74.5028 601.737 74.2442 601.93C73.989 602.122 73.8167 602.349 73.7272 602.611L72.0468 602.372C72.1794 601.908 72.3981 601.52 72.703 601.209C73.008 600.894 73.3808 600.659 73.8216 600.503C74.2625 600.344 74.7497 600.264 75.2833 600.264C75.6512 600.264 76.0174 600.307 76.382 600.393C76.7466 600.48 77.0797 600.622 77.3813 600.821C77.6829 601.017 77.9249 601.283 78.1072 601.621C78.2928 601.96 78.3856 602.382 78.3856 602.889V608H76.6555V606.951H76.5958C76.4864 607.163 76.3323 607.362 76.1334 607.548C75.9379 607.73 75.691 607.877 75.3927 607.99C75.0977 608.099 74.7513 608.154 74.3536 608.154ZM74.8209 606.832C75.1822 606.832 75.4954 606.76 75.7606 606.618C76.0257 606.472 76.2296 606.28 76.3721 606.041C76.5179 605.803 76.5908 605.542 76.5908 605.261V604.361C76.5345 604.407 76.4384 604.45 76.3025 604.49C76.1699 604.53 76.0207 604.565 75.855 604.594C75.6893 604.624 75.5252 604.651 75.3628 604.674C75.2004 604.697 75.0596 604.717 74.9403 604.734C74.6718 604.77 74.4315 604.83 74.2194 604.913C74.0073 604.996 73.8399 605.112 73.7172 605.261C73.5946 605.406 73.5333 605.595 73.5333 605.827C73.5333 606.159 73.6543 606.409 73.8962 606.578C74.1382 606.747 74.4464 606.832 74.8209 606.832ZM83.7474 608V597.818H85.5919V606.454H90.0763V608H83.7474ZM93.795 608.154C93.3111 608.154 92.8753 608.068 92.4875 607.896C92.103 607.72 91.7981 607.461 91.5727 607.12C91.3506 606.779 91.2396 606.358 91.2396 605.857C91.2396 605.426 91.3192 605.07 91.4782 604.788C91.6373 604.507 91.8544 604.281 92.1295 604.112C92.4046 603.943 92.7145 603.816 93.0592 603.729C93.4072 603.64 93.7668 603.575 94.1381 603.536C94.5855 603.489 94.9484 603.448 95.2268 603.411C95.5052 603.371 95.7074 603.312 95.8334 603.232C95.9626 603.149 96.0273 603.022 96.0273 602.849V602.82C96.0273 602.445 95.9162 602.155 95.6942 601.95C95.4721 601.744 95.1523 601.641 94.7346 601.641C94.2938 601.641 93.9442 601.737 93.6856 601.93C93.4304 602.122 93.2581 602.349 93.1686 602.611L91.4882 602.372C91.6208 601.908 91.8395 601.52 92.1444 601.209C92.4494 600.894 92.8222 600.659 93.2631 600.503C93.7039 600.344 94.1911 600.264 94.7247 600.264C95.0926 600.264 95.4588 600.307 95.8234 600.393C96.188 600.48 96.5211 600.622 96.8227 600.821C97.1243 601.017 97.3663 601.283 97.5486 601.621C97.7342 601.96 97.827 602.382 97.827 602.889V608H96.0969V606.951H96.0372C95.9278 607.163 95.7737 607.362 95.5748 607.548C95.3793 607.73 95.1324 607.877 94.8341 607.99C94.5391 608.099 94.1927 608.154 93.795 608.154ZM94.2623 606.832C94.6236 606.832 94.9368 606.76 95.202 606.618C95.4671 606.472 95.671 606.28 95.8135 606.041C95.9593 605.803 96.0322 605.542 96.0322 605.261V604.361C95.9759 604.407 95.8798 604.45 95.7439 604.49C95.6113 604.53 95.4622 604.565 95.2964 604.594C95.1307 604.624 94.9666 604.651 94.8042 604.674C94.6418 604.697 94.501 604.717 94.3817 604.734C94.1132 604.77 93.8729 604.83 93.6608 604.913C93.4487 604.996 93.2813 605.112 93.1586 605.261C93.036 605.406 92.9747 605.595 92.9747 605.827C92.9747 606.159 93.0957 606.409 93.3376 606.578C93.5796 606.747 93.8878 606.832 94.2623 606.832ZM101.277 605.604L101.272 603.431H101.561L104.305 600.364H106.408L103.032 604.122H102.659L101.277 605.604ZM99.6366 608V597.818H101.436V608H99.6366ZM104.429 608L101.943 604.525L103.157 603.257L106.582 608H104.429ZM110.674 608.149C109.908 608.149 109.247 607.99 108.69 607.672C108.136 607.35 107.71 606.896 107.412 606.31C107.114 605.72 106.965 605.025 106.965 604.227C106.965 603.441 107.114 602.752 107.412 602.158C107.714 601.562 108.135 601.098 108.675 600.766C109.215 600.432 109.85 600.264 110.579 600.264C111.05 600.264 111.494 600.34 111.911 600.493C112.332 600.642 112.704 600.874 113.025 601.189C113.35 601.504 113.605 601.905 113.791 602.392C113.976 602.876 114.069 603.453 114.069 604.122V604.674H107.81V603.461H112.344C112.341 603.116 112.266 602.81 112.12 602.541C111.974 602.269 111.771 602.056 111.509 601.9C111.25 601.744 110.949 601.666 110.604 601.666C110.236 601.666 109.913 601.756 109.634 601.935C109.356 602.11 109.139 602.342 108.983 602.631C108.831 602.916 108.753 603.229 108.75 603.57V604.629C108.75 605.073 108.831 605.455 108.993 605.773C109.156 606.088 109.383 606.33 109.674 606.499C109.966 606.664 110.307 606.747 110.698 606.747C110.96 606.747 111.197 606.711 111.409 606.638C111.621 606.562 111.805 606.451 111.961 606.305C112.117 606.159 112.235 605.978 112.314 605.763L113.995 605.952C113.889 606.396 113.686 606.784 113.388 607.115C113.093 607.443 112.715 607.698 112.255 607.881C111.794 608.06 111.267 608.149 110.674 608.149ZM117.391 603.526V608H115.592V597.818H117.352V601.661H117.441C117.62 601.23 117.897 600.891 118.271 600.642C118.649 600.39 119.13 600.264 119.713 600.264C120.243 600.264 120.706 600.375 121.1 600.597C121.495 600.819 121.8 601.144 122.015 601.572C122.234 601.999 122.343 602.521 122.343 603.138V608H120.543V603.416C120.543 602.902 120.411 602.503 120.146 602.218C119.884 601.93 119.516 601.786 119.042 601.786C118.724 601.786 118.439 601.855 118.187 601.994C117.938 602.13 117.743 602.327 117.6 602.586C117.461 602.844 117.391 603.158 117.391 603.526ZM127.509 608.149C126.763 608.149 126.117 607.985 125.57 607.657C125.023 607.329 124.599 606.87 124.297 606.28C123.999 605.69 123.85 605 123.85 604.212C123.85 603.423 123.999 602.732 124.297 602.138C124.599 601.545 125.023 601.085 125.57 600.756C126.117 600.428 126.763 600.264 127.509 600.264C128.254 600.264 128.901 600.428 129.448 600.756C129.994 601.085 130.417 601.545 130.715 602.138C131.017 602.732 131.168 603.423 131.168 604.212C131.168 605 131.017 605.69 130.715 606.28C130.417 606.87 129.994 607.329 129.448 607.657C128.901 607.985 128.254 608.149 127.509 608.149ZM127.519 606.707C127.923 606.707 128.261 606.596 128.533 606.374C128.805 606.149 129.007 605.847 129.139 605.469C129.275 605.092 129.343 604.671 129.343 604.207C129.343 603.739 129.275 603.317 129.139 602.939C129.007 602.558 128.805 602.254 128.533 602.029C128.261 601.804 127.923 601.691 127.519 601.691C127.104 601.691 126.76 601.804 126.484 602.029C126.213 602.254 126.009 602.558 125.873 602.939C125.74 603.317 125.674 603.739 125.674 604.207C125.674 604.671 125.74 605.092 125.873 605.469C126.009 605.847 126.213 606.149 126.484 606.374C126.76 606.596 127.104 606.707 127.519 606.707ZM137.562 604.788V600.364H139.362V608H137.617V606.643H137.538C137.365 607.07 137.082 607.42 136.687 607.692C136.296 607.964 135.814 608.099 135.241 608.099C134.74 608.099 134.298 607.988 133.913 607.766C133.532 607.541 133.234 607.214 133.018 606.787C132.803 606.356 132.695 605.836 132.695 605.226V600.364H134.495V604.947C134.495 605.431 134.628 605.816 134.893 606.101C135.158 606.386 135.506 606.528 135.937 606.528C136.202 606.528 136.459 606.464 136.707 606.335C136.956 606.205 137.16 606.013 137.319 605.758C137.481 605.499 137.562 605.176 137.562 604.788ZM147.248 602.382L145.608 602.561C145.561 602.395 145.48 602.24 145.364 602.094C145.251 601.948 145.099 601.83 144.907 601.741C144.714 601.651 144.479 601.607 144.201 601.607C143.826 601.607 143.511 601.688 143.256 601.85C143.004 602.013 142.88 602.223 142.883 602.482C142.88 602.704 142.961 602.884 143.127 603.023C143.296 603.163 143.574 603.277 143.962 603.366L145.265 603.645C145.987 603.801 146.524 604.048 146.875 604.386C147.23 604.724 147.409 605.166 147.412 605.713C147.409 606.194 147.268 606.618 146.99 606.986C146.715 607.35 146.332 607.635 145.841 607.841C145.351 608.046 144.787 608.149 144.151 608.149C143.216 608.149 142.464 607.954 141.894 607.562C141.324 607.168 140.984 606.62 140.875 605.917L142.63 605.748C142.709 606.093 142.878 606.353 143.137 606.528C143.395 606.704 143.732 606.792 144.146 606.792C144.574 606.792 144.917 606.704 145.175 606.528C145.437 606.353 145.568 606.136 145.568 605.877C145.568 605.658 145.483 605.478 145.314 605.335C145.149 605.193 144.89 605.083 144.539 605.007L143.236 604.734C142.504 604.581 141.962 604.324 141.611 603.963C141.259 603.598 141.085 603.138 141.089 602.581C141.085 602.11 141.213 601.703 141.471 601.358C141.733 601.01 142.096 600.741 142.56 600.553C143.027 600.36 143.566 600.264 144.176 600.264C145.071 600.264 145.775 600.455 146.289 600.836C146.806 601.217 147.126 601.732 147.248 602.382ZM152.277 608.149C151.511 608.149 150.85 607.99 150.293 607.672C149.74 607.35 149.314 606.896 149.016 606.31C148.717 605.72 148.568 605.025 148.568 604.227C148.568 603.441 148.717 602.752 149.016 602.158C149.317 601.562 149.738 601.098 150.278 600.766C150.819 600.432 151.453 600.264 152.183 600.264C152.653 600.264 153.097 600.34 153.515 600.493C153.936 600.642 154.307 600.874 154.629 601.189C154.953 601.504 155.209 601.905 155.394 602.392C155.58 602.876 155.673 603.453 155.673 604.122V604.674H149.413V603.461H153.948C153.944 603.116 153.87 602.81 153.724 602.541C153.578 602.269 153.374 602.056 153.112 601.9C152.854 601.744 152.552 601.666 152.207 601.666C151.84 601.666 151.516 601.756 151.238 601.935C150.96 602.11 150.743 602.342 150.587 602.631C150.434 602.916 150.356 603.229 150.353 603.57V604.629C150.353 605.073 150.434 605.455 150.597 605.773C150.759 606.088 150.986 606.33 151.278 606.499C151.569 606.664 151.911 606.747 152.302 606.747C152.564 606.747 152.801 606.711 153.013 606.638C153.225 606.562 153.409 606.451 153.565 606.305C153.72 606.159 153.838 605.978 153.918 605.763L155.598 605.952C155.492 606.396 155.29 606.784 154.992 607.115C154.697 607.443 154.319 607.698 153.858 607.881C153.397 608.06 152.87 608.149 152.277 608.149Z" fill="#CDDAED"/>
<path d="M20 534H340" stroke="url(#paint1_linear_212_84)" stroke-opacity="0.5" stroke-width="1.5"/>
<path d="M20 504H340" stroke="url(#paint2_linear_212_84)" stroke-opacity="0.5" stroke-width="1.5"/>
<path d="M20 474H340" stroke="url(#paint3_linear_212_84)" stroke-opacity="0.5" stroke-width="1.5"/>
<path d="M20 444L340 444" stroke="url(#paint4_linear_212_84)" stroke-opacity="0.5" stroke-width="1.5"/>
<path d="M20 414H340" stroke="url(#paint5_linear_212_84)" stroke-opacity="0.5" stroke-width="1.5"/>
<path d="M20 384L340 382.923" stroke="url(#paint6_linear_212_84)" stroke-opacity="0.5" stroke-width="1.5"/>
<path d="M20 352L340 350.923" stroke="url(#paint7_linear_212_84)" stroke-opacity="0.5" stroke-width="1.5"/>
<rect x="69" y="500" width="65" height="64" rx="8" fill="#3499FF"/>
<rect x="69" y="348" width="65" height="152" rx="10" fill="#A5C4FF"/>
<rect x="226" y="542" width="65" height="22" rx="5" fill="#3499FF"/>
<rect x="226" y="509" width="65" height="33" rx="8" fill="#6D4DFF"/>
<rect x="226" y="444" width="65" height="65" rx="8" fill="#A5C4FF"/>
<path d="M266 362.364L260.619 390L240.747 371.228L247.863 368.73C246.386 365.212 244.666 361.814 242.718 358.564C239.936 353.964 236.705 349.687 233.079 345.804C229.396 341.87 225.363 338.322 221.037 335.21C216.646 332.05 212.023 329.27 207.211 326.897C197.529 322.09 187.121 318.722 176.487 316.392C165.777 314.11 154.914 312.728 144 312.26C154.995 311.694 166.015 312.052 176.958 313.33C187.928 314.675 198.881 317.102 209.448 321.18C214.769 323.22 219.926 325.712 224.87 328.631C229.881 331.591 234.611 335.056 238.995 338.978C243.438 342.97 247.471 347.448 251.028 352.338C253.902 356.305 256.462 360.518 258.682 364.933L266 362.364Z" fill="url(#paint8_linear_212_84)"/>
<path d="M265.669 361.421L267.315 360.843L266.982 362.555L261.601 390.191L261.253 391.975L259.932 390.727L240.06 371.955L238.867 370.828L240.416 370.284L246.523 368.141C245.161 365.014 243.603 361.986 241.861 359.079C239.115 354.538 235.926 350.318 232.349 346.487C228.709 342.6 224.725 339.096 220.453 336.022L220.452 336.022C216.106 332.893 211.53 330.142 206.769 327.793L206.767 327.792C197.173 323.03 186.846 319.686 176.276 317.369C165.621 315.099 154.815 313.725 143.957 313.259L143.949 311.261C155 310.693 166.076 311.053 177.074 312.337L177.079 312.338C188.113 313.691 199.149 316.133 209.808 320.247C215.181 322.307 220.388 324.823 225.379 327.77L225.379 327.77C230.446 330.764 235.229 334.268 239.662 338.233L239.663 338.235C244.159 342.273 248.239 346.804 251.837 351.75L251.838 351.751C254.573 355.527 257.027 359.522 259.177 363.7L265.669 361.421Z" stroke="url(#paint9_linear_212_84)" stroke-opacity="0.5" stroke-width="2"/>
<rect x="30" y="296" width="144" height="42" rx="8" fill="url(#paint10_linear_212_84)"/>
<rect x="30.5" y="296.5" width="143" height="41" rx="7.5" stroke="url(#paint11_linear_212_84)" stroke-opacity="0.9"/>
<path d="M50.2457 323.773V311.045H51.0611V323.773H50.2457ZM52.4084 315.246C52.3686 314.845 52.1979 314.534 51.8963 314.312C51.5947 314.09 51.1854 313.979 50.6683 313.979C50.317 313.979 50.0204 314.028 49.7784 314.128C49.5365 314.224 49.3509 314.358 49.2216 314.531C49.0956 314.703 49.0327 314.898 49.0327 315.117C49.026 315.299 49.0642 315.459 49.147 315.594C49.2332 315.73 49.3509 315.848 49.5 315.947C49.6491 316.044 49.8215 316.128 50.017 316.201C50.2126 316.271 50.4214 316.33 50.6435 316.38L51.5582 316.599C52.0024 316.698 52.41 316.831 52.7812 316.996C53.1525 317.162 53.474 317.366 53.7457 317.608C54.0175 317.85 54.228 318.135 54.3771 318.463C54.5296 318.791 54.6075 319.167 54.6108 319.592C54.6075 320.215 54.4484 320.755 54.1335 321.212C53.822 321.666 53.3712 322.019 52.7812 322.271C52.1946 322.52 51.487 322.644 50.6584 322.644C49.8364 322.644 49.1205 322.518 48.5107 322.266C47.9041 322.014 47.4302 321.642 47.0888 321.148C46.7507 320.651 46.5734 320.036 46.5568 319.303H48.6399C48.6631 319.645 48.7609 319.93 48.9332 320.158C49.1089 320.384 49.3426 320.554 49.6342 320.67C49.9292 320.783 50.2623 320.839 50.6335 320.839C50.9981 320.839 51.3146 320.786 51.5831 320.68C51.8549 320.574 52.0653 320.427 52.2145 320.238C52.3636 320.049 52.4382 319.832 52.4382 319.587C52.4382 319.358 52.3703 319.166 52.2344 319.01C52.1018 318.854 51.9063 318.722 51.6477 318.612C51.3925 318.503 51.0793 318.403 50.7081 318.314L49.5994 318.036C48.741 317.827 48.0632 317.5 47.5661 317.056C47.0689 316.612 46.822 316.014 46.8253 315.261C46.822 314.645 46.986 314.106 47.3175 313.646C47.6522 313.185 48.1113 312.825 48.6946 312.567C49.2779 312.308 49.9408 312.179 50.6832 312.179C51.4389 312.179 52.0985 312.308 52.6619 312.567C53.2287 312.825 53.6695 313.185 53.9844 313.646C54.2992 314.106 54.4616 314.64 54.4716 315.246H52.4084ZM59.7626 322.639C59.0202 322.639 58.359 322.512 57.7789 322.256C57.2022 321.998 56.7465 321.643 56.4118 321.192C56.0803 320.738 55.9096 320.215 55.8997 319.621H58.0673C58.0806 319.87 58.1618 320.089 58.3109 320.278C58.4634 320.463 58.6655 320.607 58.9174 320.71C59.1693 320.813 59.4527 320.864 59.7676 320.864C60.0957 320.864 60.3857 320.806 60.6376 320.69C60.8895 320.574 61.0867 320.414 61.2292 320.208C61.3717 320.003 61.443 319.766 61.443 319.497C61.443 319.225 61.3668 318.985 61.2143 318.776C61.0652 318.564 60.8497 318.398 60.568 318.279C60.2896 318.16 59.9582 318.1 59.5737 318.1H58.6241V316.519H59.5737C59.8985 316.519 60.1852 316.463 60.4338 316.35C60.6857 316.237 60.8812 316.082 61.0204 315.883C61.1596 315.681 61.2292 315.445 61.2292 315.177C61.2292 314.922 61.1679 314.698 61.0453 314.506C60.926 314.31 60.7569 314.158 60.5382 314.048C60.3227 313.939 60.0708 313.884 59.7825 313.884C59.4908 313.884 59.224 313.937 58.9821 314.043C58.7401 314.146 58.5462 314.294 58.4004 314.486C58.2546 314.678 58.1767 314.903 58.1667 315.162H56.1035C56.1135 314.575 56.2808 314.058 56.6056 313.611C56.9305 313.163 57.368 312.814 57.9181 312.562C58.4717 312.307 59.0964 312.179 59.7924 312.179C60.4951 312.179 61.1099 312.307 61.6369 312.562C62.1639 312.817 62.5732 313.162 62.8649 313.596C63.1599 314.027 63.3057 314.511 63.3024 315.048C63.3057 315.618 63.1284 316.093 62.7704 316.474C62.4158 316.856 61.9534 317.098 61.3833 317.2V317.28C62.1324 317.376 62.7025 317.636 63.0936 318.06C63.488 318.481 63.6835 319.008 63.6802 319.641C63.6835 320.221 63.5162 320.737 63.1781 321.188C62.8433 321.638 62.381 321.993 61.791 322.251C61.2011 322.51 60.5249 322.639 59.7626 322.639ZM65.0735 320.71V319.015L69.3242 312.318H70.7859V314.665H69.9208L67.2411 318.906V318.985H73.2816V320.71H65.0735ZM69.9606 322.5V320.193L70.0004 319.442V312.318H72.0188V322.5H69.9606ZM79.0089 312.318V322.5H76.8562V314.362H76.7965L74.4648 315.823V313.914L76.9854 312.318H79.0089ZM83.2037 321.108L83.149 321.655C83.1059 322.092 83.023 322.528 82.9004 322.962C82.7811 323.4 82.6551 323.796 82.5225 324.151C82.3933 324.505 82.2889 324.784 82.2093 324.986H80.8372C80.8869 324.79 80.9548 324.517 81.041 324.165C81.1272 323.817 81.2084 323.426 81.2846 322.992C81.3609 322.558 81.4089 322.116 81.4288 321.665L81.4537 321.108H83.2037ZM88.7569 322.639C88.0543 322.639 87.4279 322.51 86.8777 322.251C86.3308 321.993 85.8966 321.637 85.5751 321.183C85.2536 320.728 85.0862 320.208 85.073 319.621H87.161C87.1842 320.016 87.35 320.336 87.6582 320.581C87.9664 320.826 88.3327 320.949 88.7569 320.949C89.095 320.949 89.3933 320.874 89.6518 320.725C89.9136 320.573 90.1175 320.362 90.2633 320.094C90.4125 319.822 90.487 319.51 90.487 319.159C90.487 318.801 90.4108 318.486 90.2583 318.214C90.1092 317.943 89.902 317.731 89.6369 317.578C89.3717 317.426 89.0685 317.348 88.7271 317.344C88.4288 317.344 88.1388 317.406 87.8571 317.528C87.5787 317.651 87.3616 317.818 87.2058 318.031L85.2917 317.688L85.774 312.318H91.9984V314.078H87.5488L87.2853 316.629H87.345C87.524 316.377 87.7941 316.168 88.1554 316.002C88.5166 315.836 88.921 315.754 89.3684 315.754C89.9816 315.754 90.5285 315.898 91.0091 316.186C91.4896 316.474 91.8691 316.871 92.1475 317.374C92.426 317.875 92.5635 318.451 92.5602 319.104C92.5635 319.79 92.4044 320.4 92.0829 320.934C91.7647 321.464 91.319 321.882 90.7456 322.187C90.1755 322.488 89.5126 322.639 88.7569 322.639ZM94.0616 322.5V320.949L97.6859 317.593C97.9941 317.295 98.2527 317.026 98.4615 316.788C98.6736 316.549 98.8343 316.315 98.9437 316.087C99.0531 315.855 99.1078 315.604 99.1078 315.336C99.1078 315.038 99.0398 314.781 98.9039 314.565C98.7681 314.347 98.5824 314.179 98.3471 314.063C98.1118 313.944 97.845 313.884 97.5467 313.884C97.2351 313.884 96.9634 313.947 96.7314 314.073C96.4993 314.199 96.3204 314.38 96.1944 314.615C96.0685 314.85 96.0055 315.13 96.0055 315.455H93.9622C93.9622 314.789 94.113 314.211 94.4146 313.72C94.7162 313.23 95.1388 312.85 95.6824 312.582C96.2259 312.313 96.8523 312.179 97.5616 312.179C98.2908 312.179 98.9255 312.308 99.4657 312.567C100.009 312.822 100.432 313.177 100.733 313.631C101.035 314.085 101.186 314.605 101.186 315.192C101.186 315.576 101.11 315.956 100.957 316.33C100.808 316.705 100.541 317.121 100.157 317.578C99.7723 318.032 99.2304 318.577 98.5311 319.214L97.0446 320.67V320.74H101.32V322.5H94.0616ZM106.872 322.724C106.017 322.72 105.281 322.51 104.665 322.092C104.052 321.675 103.579 321.07 103.248 320.278C102.92 319.486 102.757 318.533 102.761 317.419C102.761 316.309 102.925 315.362 103.253 314.58C103.584 313.798 104.057 313.203 104.67 312.795C105.286 312.384 106.02 312.179 106.872 312.179C107.724 312.179 108.456 312.384 109.07 312.795C109.686 313.206 110.16 313.803 110.491 314.585C110.823 315.364 110.987 316.309 110.984 317.419C110.984 318.536 110.818 319.491 110.487 320.283C110.158 321.075 109.688 321.68 109.075 322.097C108.461 322.515 107.727 322.724 106.872 322.724ZM106.872 320.939C107.455 320.939 107.921 320.646 108.269 320.059C108.617 319.472 108.79 318.592 108.786 317.419C108.786 316.647 108.707 316.004 108.548 315.49C108.392 314.976 108.17 314.59 107.881 314.332C107.596 314.073 107.26 313.944 106.872 313.944C106.292 313.944 105.828 314.234 105.48 314.814C105.132 315.394 104.956 316.262 104.953 317.419C104.953 318.201 105.031 318.854 105.187 319.378C105.346 319.898 105.57 320.289 105.858 320.551C106.146 320.81 106.484 320.939 106.872 320.939Z" fill="#FF4B4B"/>
<g clip-path="url(#clip0_212_84)">
<path d="M131 324.5C135.142 324.5 138.5 321.142 138.5 317C138.5 312.858 135.142 309.5 131 309.5C126.858 309.5 123.5 312.858 123.5 317C123.5 321.142 126.858 324.5 131 324.5Z" stroke="#DF4343" stroke-width="1.75" stroke-linecap="round" stroke-linejoin="round"/>
<path d="M133.25 314.375C132.736 313.861 131.832 313.504 131 313.482M131 313.482C130.01 313.455 129.125 313.902 129.125 315.125C129.125 317.375 133.25 316.25 133.25 318.5C133.25 319.783 132.152 320.334 131 320.293M131 313.482V312.125M128.75 319.25C129.233 319.895 130.132 320.262 131 320.293M131 320.293V321.875" stroke="#DF4343" stroke-width="1.75" stroke-linecap="round" stroke-linejoin="round"/>
</g>
<path d="M144.25 320.75L148.75 316.25L151.75 319.25L157.75 313.25" stroke="#DF4343" stroke-width="2.33333" stroke-linecap="round" stroke-linejoin="round"/>
<path d="M154.75 313.25H157.75V316.25" stroke="#DF4343" stroke-width="2.33333" stroke-linecap="round" stroke-linejoin="round"/>
<rect x="190" y="392" width="137" height="42" rx="8" fill="url(#paint12_linear_212_84)"/>
<rect x="190.5" y="392.5" width="136" height="41" rx="7.5" stroke="url(#paint13_linear_212_84)" stroke-opacity="0.9"/>
<path d="M210.246 419.773V407.045H211.061V419.773H210.246ZM212.408 411.246C212.369 410.845 212.198 410.534 211.896 410.312C211.595 410.09 211.185 409.979 210.668 409.979C210.317 409.979 210.02 410.028 209.778 410.128C209.536 410.224 209.351 410.358 209.222 410.531C209.096 410.703 209.033 410.898 209.033 411.117C209.026 411.299 209.064 411.459 209.147 411.594C209.233 411.73 209.351 411.848 209.5 411.947C209.649 412.044 209.821 412.128 210.017 412.201C210.213 412.271 210.421 412.33 210.643 412.38L211.558 412.599C212.002 412.698 212.41 412.831 212.781 412.996C213.152 413.162 213.474 413.366 213.746 413.608C214.018 413.85 214.228 414.135 214.377 414.463C214.53 414.791 214.607 415.167 214.611 415.592C214.607 416.215 214.448 416.755 214.134 417.212C213.822 417.666 213.371 418.019 212.781 418.271C212.195 418.52 211.487 418.644 210.658 418.644C209.836 418.644 209.121 418.518 208.511 418.266C207.904 418.014 207.43 417.642 207.089 417.148C206.751 416.651 206.573 416.036 206.557 415.303H208.64C208.663 415.645 208.761 415.93 208.933 416.158C209.109 416.384 209.343 416.554 209.634 416.67C209.929 416.783 210.262 416.839 210.634 416.839C210.998 416.839 211.315 416.786 211.583 416.68C211.855 416.574 212.065 416.427 212.214 416.238C212.364 416.049 212.438 415.832 212.438 415.587C212.438 415.358 212.37 415.166 212.234 415.01C212.102 414.854 211.906 414.722 211.648 414.612C211.393 414.503 211.079 414.403 210.708 414.314L209.599 414.036C208.741 413.827 208.063 413.5 207.566 413.056C207.069 412.612 206.822 412.014 206.825 411.261C206.822 410.645 206.986 410.106 207.317 409.646C207.652 409.185 208.111 408.825 208.695 408.567C209.278 408.308 209.941 408.179 210.683 408.179C211.439 408.179 212.098 408.308 212.662 408.567C213.229 408.825 213.67 409.185 213.984 409.646C214.299 410.106 214.462 410.64 214.472 411.246H212.408ZM216.402 418.5L220.623 410.148V410.078H215.706V408.318H222.85V410.103L218.624 418.5H216.402ZM227.919 418.639C227.153 418.639 226.472 418.515 225.875 418.266C225.282 418.014 224.816 417.671 224.478 417.237C224.14 416.803 223.971 416.311 223.971 415.761C223.971 415.336 224.067 414.947 224.259 414.592C224.455 414.234 224.72 413.938 225.055 413.702C225.39 413.464 225.764 413.311 226.178 413.245V413.175C225.635 413.066 225.194 412.803 224.856 412.385C224.518 411.964 224.349 411.475 224.349 410.918C224.349 410.391 224.503 409.922 224.811 409.511C225.119 409.097 225.542 408.772 226.079 408.537C226.619 408.298 227.232 408.179 227.919 408.179C228.605 408.179 229.216 408.298 229.753 408.537C230.293 408.776 230.718 409.102 231.026 409.516C231.334 409.927 231.49 410.395 231.493 410.918C231.49 411.478 231.317 411.967 230.976 412.385C230.635 412.803 230.197 413.066 229.664 413.175V413.245C230.071 413.311 230.441 413.464 230.772 413.702C231.107 413.938 231.372 414.234 231.568 414.592C231.767 414.947 231.868 415.336 231.871 415.761C231.868 416.311 231.697 416.803 231.359 417.237C231.021 417.671 230.553 418.014 229.957 418.266C229.364 418.515 228.684 418.639 227.919 418.639ZM227.919 417.058C228.26 417.058 228.558 416.997 228.813 416.874C229.069 416.748 229.267 416.576 229.41 416.357C229.556 416.135 229.629 415.88 229.629 415.592C229.629 415.297 229.554 415.036 229.405 414.811C229.256 414.582 229.054 414.403 228.798 414.274C228.543 414.142 228.25 414.075 227.919 414.075C227.59 414.075 227.297 414.142 227.039 414.274C226.78 414.403 226.576 414.582 226.427 414.811C226.281 415.036 226.208 415.297 226.208 415.592C226.208 415.88 226.28 416.135 226.422 416.357C226.565 416.576 226.765 416.748 227.024 416.874C227.282 416.997 227.58 417.058 227.919 417.058ZM227.919 412.509C228.204 412.509 228.457 412.451 228.679 412.335C228.901 412.219 229.075 412.058 229.201 411.853C229.327 411.647 229.39 411.411 229.39 411.142C229.39 410.877 229.327 410.645 229.201 410.446C229.075 410.244 228.903 410.086 228.684 409.974C228.465 409.858 228.21 409.8 227.919 409.8C227.63 409.8 227.375 409.858 227.153 409.974C226.931 410.086 226.757 410.244 226.631 410.446C226.508 410.645 226.447 410.877 226.447 411.142C226.447 411.411 226.51 411.647 226.636 411.853C226.762 412.058 226.936 412.219 227.158 412.335C227.38 412.451 227.633 412.509 227.919 412.509ZM235.411 417.108L235.356 417.655C235.313 418.092 235.23 418.528 235.107 418.962C234.988 419.4 234.862 419.796 234.73 420.151C234.6 420.505 234.496 420.784 234.416 420.986H233.044C233.094 420.79 233.162 420.517 233.248 420.165C233.334 419.817 233.415 419.426 233.492 418.992C233.568 418.558 233.616 418.116 233.636 417.665L233.661 417.108H235.411ZM240.763 418.639C240.02 418.639 239.359 418.512 238.779 418.256C238.202 417.998 237.747 417.643 237.412 417.192C237.08 416.738 236.91 416.215 236.9 415.621H239.067C239.081 415.87 239.162 416.089 239.311 416.278C239.463 416.463 239.666 416.607 239.917 416.71C240.169 416.813 240.453 416.864 240.768 416.864C241.096 416.864 241.386 416.806 241.638 416.69C241.89 416.574 242.087 416.414 242.229 416.208C242.372 416.003 242.443 415.766 242.443 415.497C242.443 415.225 242.367 414.985 242.214 414.776C242.065 414.564 241.85 414.398 241.568 414.279C241.29 414.16 240.958 414.1 240.574 414.1H239.624V412.519H240.574C240.898 412.519 241.185 412.463 241.434 412.35C241.686 412.237 241.881 412.082 242.02 411.883C242.16 411.681 242.229 411.445 242.229 411.177C242.229 410.922 242.168 410.698 242.045 410.506C241.926 410.31 241.757 410.158 241.538 410.048C241.323 409.939 241.071 409.884 240.782 409.884C240.491 409.884 240.224 409.937 239.982 410.043C239.74 410.146 239.546 410.294 239.4 410.486C239.255 410.678 239.177 410.903 239.167 411.162H237.104C237.113 410.575 237.281 410.058 237.606 409.611C237.93 409.163 238.368 408.814 238.918 408.562C239.472 408.307 240.096 408.179 240.792 408.179C241.495 408.179 242.11 408.307 242.637 408.562C243.164 408.817 243.573 409.162 243.865 409.596C244.16 410.027 244.306 410.511 244.302 411.048C244.306 411.618 244.128 412.093 243.77 412.474C243.416 412.856 242.953 413.098 242.383 413.2V413.28C243.132 413.376 243.702 413.636 244.094 414.06C244.488 414.481 244.684 415.008 244.68 415.641C244.684 416.221 244.516 416.737 244.178 417.188C243.843 417.638 243.381 417.993 242.791 418.251C242.201 418.51 241.525 418.639 240.763 418.639ZM250.135 418.639C249.612 418.636 249.106 418.548 248.619 418.376C248.135 418.203 247.701 417.923 247.316 417.536C246.932 417.148 246.627 416.634 246.402 415.994C246.18 415.355 246.069 414.569 246.069 413.638C246.072 412.783 246.17 412.019 246.362 411.346C246.557 410.67 246.836 410.096 247.197 409.626C247.562 409.155 247.998 408.797 248.505 408.552C249.012 408.303 249.58 408.179 250.21 408.179C250.889 408.179 251.489 408.312 252.01 408.577C252.53 408.839 252.948 409.195 253.262 409.646C253.581 410.096 253.773 410.602 253.839 411.162H251.716C251.633 410.807 251.459 410.529 251.194 410.327C250.929 410.125 250.601 410.023 250.21 410.023C249.547 410.023 249.043 410.312 248.699 410.888C248.357 411.465 248.183 412.249 248.176 413.24H248.246C248.399 412.938 248.604 412.682 248.863 412.469C249.124 412.254 249.421 412.09 249.752 411.977C250.087 411.861 250.44 411.803 250.811 411.803C251.415 411.803 251.952 411.946 252.422 412.231C252.893 412.513 253.264 412.9 253.536 413.394C253.808 413.888 253.944 414.453 253.944 415.089C253.944 415.779 253.783 416.392 253.461 416.929C253.143 417.466 252.697 417.887 252.124 418.192C251.554 418.493 250.891 418.643 250.135 418.639ZM250.125 416.949C250.457 416.949 250.753 416.869 251.015 416.71C251.277 416.551 251.483 416.336 251.632 416.064C251.781 415.792 251.855 415.487 251.855 415.149C251.855 414.811 251.781 414.508 251.632 414.239C251.486 413.971 251.284 413.757 251.025 413.598C250.767 413.439 250.472 413.359 250.14 413.359C249.892 413.359 249.661 413.406 249.449 413.499C249.24 413.591 249.056 413.721 248.897 413.886C248.742 414.052 248.619 414.244 248.529 414.463C248.44 414.679 248.395 414.909 248.395 415.154C248.395 415.482 248.47 415.782 248.619 416.054C248.771 416.326 248.977 416.543 249.235 416.705C249.497 416.868 249.794 416.949 250.125 416.949ZM259.462 418.724C258.607 418.72 257.871 418.51 257.255 418.092C256.641 417.675 256.169 417.07 255.838 416.278C255.51 415.486 255.347 414.533 255.35 413.419C255.35 412.309 255.515 411.362 255.843 410.58C256.174 409.798 256.646 409.203 257.26 408.795C257.876 408.384 258.61 408.179 259.462 408.179C260.314 408.179 261.046 408.384 261.659 408.795C262.276 409.206 262.75 409.803 263.081 410.585C263.413 411.364 263.577 412.309 263.574 413.419C263.574 414.536 263.408 415.491 263.076 416.283C262.748 417.075 262.278 417.68 261.664 418.097C261.051 418.515 260.317 418.724 259.462 418.724ZM259.462 416.939C260.045 416.939 260.511 416.646 260.859 416.059C261.207 415.472 261.379 414.592 261.376 413.419C261.376 412.647 261.297 412.004 261.137 411.49C260.982 410.976 260.76 410.59 260.471 410.332C260.186 410.073 259.85 409.944 259.462 409.944C258.882 409.944 258.418 410.234 258.07 410.814C257.722 411.394 257.546 412.262 257.543 413.419C257.543 414.201 257.621 414.854 257.777 415.378C257.936 415.898 258.159 416.289 258.448 416.551C258.736 416.81 259.074 416.939 259.462 416.939Z" fill="#30D5C8"/>
<g clip-path="url(#clip1_212_84)">
<path d="M284 420.5C288.142 420.5 291.5 417.142 291.5 413C291.5 408.858 288.142 405.5 284 405.5C279.858 405.5 276.5 408.858 276.5 413C276.5 417.142 279.858 420.5 284 420.5Z" stroke="#66F2C3" stroke-width="1.75" stroke-linecap="round" stroke-linejoin="round"/>
<path d="M286.25 410.375C285.736 409.861 284.832 409.504 284 409.482M284 409.482C283.01 409.455 282.125 409.903 282.125 411.125C282.125 413.375 286.25 412.25 286.25 414.5C286.25 415.783 285.152 416.335 284 416.293M284 409.482V408.125M281.75 415.25C282.233 415.895 283.132 416.263 284 416.293M284 416.293V417.875" stroke="#66F2C3" stroke-width="1.75" stroke-linecap="round" stroke-linejoin="round"/>
</g>
<path d="M310.75 409.25L306.25 413.75L303.25 410.75L297.25 416.75" stroke="#66F2C3" stroke-width="2.33333" stroke-linecap="round" stroke-linejoin="round"/>
<path d="M300.25 416.75H297.25V413.75" stroke="#66F2C3" stroke-width="2.33333" stroke-linecap="round" stroke-linejoin="round"/>
<g filter="url(#filter0_f_212_84)">
<path d="M203.958 285.135C172.463 250.687 112.881 251.523 156.053 220.886C199.225 190.249 351.183 231.301 382.678 265.75C414.173 300.198 313.28 314.998 270.108 345.635C226.937 376.273 235.453 319.584 203.958 285.135Z" fill="url(#paint14_linear_212_84)" fill-opacity="0.6"/>
</g>
<path d="M62.472 262V248.368H57.096V245.2H71.736V248.368H66.36V262H62.472ZM81.6336 262.288C80.3376 262.288 79.1296 262.08 78.0096 261.664C76.9056 261.232 75.9456 260.624 75.1296 259.84C74.3136 259.056 73.6736 258.136 73.2096 257.08C72.7616 256.024 72.5376 254.864 72.5376 253.6C72.5376 252.336 72.7616 251.176 73.2096 250.12C73.6736 249.064 74.3136 248.144 75.1296 247.36C75.9616 246.576 76.9296 245.976 78.0336 245.56C79.1376 245.128 80.3456 244.912 81.6576 244.912C83.1136 244.912 84.4256 245.168 85.5936 245.68C86.7776 246.176 87.7696 246.912 88.5696 247.888L86.0736 250.192C85.4976 249.536 84.8576 249.048 84.1536 248.728C83.4496 248.392 82.6816 248.224 81.8496 248.224C81.0656 248.224 80.3456 248.352 79.6896 248.608C79.0336 248.864 78.4656 249.232 77.9856 249.712C77.5056 250.192 77.1296 250.76 76.8576 251.416C76.6016 252.072 76.4736 252.8 76.4736 253.6C76.4736 254.4 76.6016 255.128 76.8576 255.784C77.1296 256.44 77.5056 257.008 77.9856 257.488C78.4656 257.968 79.0336 258.336 79.6896 258.592C80.3456 258.848 81.0656 258.976 81.8496 258.976C82.6816 258.976 83.4496 258.816 84.1536 258.496C84.8576 258.16 85.4976 257.656 86.0736 256.984L88.5696 259.288C87.7696 260.264 86.7776 261.008 85.5936 261.52C84.4256 262.032 83.1056 262.288 81.6336 262.288ZM99.0036 262.288C97.6756 262.288 96.4436 262.072 95.3076 261.64C94.1876 261.208 93.2116 260.6 92.3796 259.816C91.5636 259.032 90.9236 258.112 90.4596 257.056C90.0116 256 89.7876 254.848 89.7876 253.6C89.7876 252.352 90.0116 251.2 90.4596 250.144C90.9236 249.088 91.5716 248.168 92.4036 247.384C93.2356 246.6 94.2116 245.992 95.3316 245.56C96.4516 245.128 97.6676 244.912 98.9796 244.912C100.308 244.912 101.524 245.128 102.628 245.56C103.748 245.992 104.716 246.6 105.532 247.384C106.364 248.168 107.012 249.088 107.476 250.144C107.94 251.184 108.172 252.336 108.172 253.6C108.172 254.848 107.94 256.008 107.476 257.08C107.012 258.136 106.364 259.056 105.532 259.84C104.716 260.608 103.748 261.208 102.628 261.64C101.524 262.072 100.316 262.288 99.0036 262.288ZM98.9796 258.976C99.7316 258.976 100.42 258.848 101.044 258.592C101.684 258.336 102.244 257.968 102.724 257.488C103.204 257.008 103.572 256.44 103.828 255.784C104.1 255.128 104.236 254.4 104.236 253.6C104.236 252.8 104.1 252.072 103.828 251.416C103.572 250.76 103.204 250.192 102.724 249.712C102.26 249.232 101.708 248.864 101.068 248.608C100.428 248.352 99.7316 248.224 98.9796 248.224C98.2276 248.224 97.5316 248.352 96.8916 248.608C96.2676 248.864 95.7156 249.232 95.2356 249.712C94.7556 250.192 94.3796 250.76 94.1076 251.416C93.8516 252.072 93.7236 252.8 93.7236 253.6C93.7236 254.384 93.8516 255.112 94.1076 255.784C94.3796 256.44 94.7476 257.008 95.2116 257.488C95.6916 257.968 96.2516 258.336 96.8916 258.592C97.5316 258.848 98.2276 258.976 98.9796 258.976ZM117.89 262V245.2H125.162C126.666 245.2 127.962 245.448 129.05 245.944C130.138 246.424 130.978 247.12 131.57 248.032C132.162 248.944 132.458 250.032 132.458 251.296C132.458 252.544 132.162 253.624 131.57 254.536C130.978 255.432 130.138 256.12 129.05 256.6C127.962 257.08 126.666 257.32 125.162 257.32H120.05L121.778 255.616V262H117.89ZM128.57 262L124.37 255.904H128.522L132.77 262H128.57ZM121.778 256.048L120.05 254.224H124.946C126.146 254.224 127.042 253.968 127.634 253.456C128.226 252.928 128.522 252.208 128.522 251.296C128.522 250.368 128.226 249.648 127.634 249.136C127.042 248.624 126.146 248.368 124.946 248.368H120.05L121.778 246.52V256.048ZM141.683 262.192C140.211 262.192 138.915 261.904 137.795 261.328C136.691 260.752 135.835 259.968 135.227 258.976C134.619 257.968 134.315 256.824 134.315 255.544C134.315 254.248 134.611 253.104 135.203 252.112C135.811 251.104 136.635 250.32 137.675 249.76C138.715 249.184 139.891 248.896 141.203 248.896C142.467 248.896 143.603 249.168 144.611 249.712C145.635 250.24 146.443 251.008 147.035 252.016C147.627 253.008 147.923 254.2 147.923 255.592C147.923 255.736 147.915 255.904 147.899 256.096C147.883 256.272 147.867 256.44 147.851 256.6H137.363V254.416H145.883L144.443 255.064C144.443 254.392 144.307 253.808 144.035 253.312C143.763 252.816 143.387 252.432 142.907 252.16C142.427 251.872 141.867 251.728 141.227 251.728C140.587 251.728 140.019 251.872 139.523 252.16C139.043 252.432 138.667 252.824 138.395 253.336C138.123 253.832 137.987 254.424 137.987 255.112V255.688C137.987 256.392 138.139 257.016 138.443 257.56C138.763 258.088 139.203 258.496 139.763 258.784C140.339 259.056 141.011 259.192 141.779 259.192C142.467 259.192 143.067 259.088 143.579 258.88C144.107 258.672 144.587 258.36 145.019 257.944L147.011 260.104C146.419 260.776 145.675 261.296 144.779 261.664C143.883 262.016 142.851 262.192 141.683 262.192ZM155.96 262.192C154.744 262.192 153.648 261.92 152.672 261.376C151.696 260.816 150.92 260.04 150.344 259.048C149.784 258.056 149.504 256.888 149.504 255.544C149.504 254.184 149.784 253.008 150.344 252.016C150.92 251.024 151.696 250.256 152.672 249.712C153.648 249.168 154.744 248.896 155.96 248.896C157.048 248.896 158 249.136 158.816 249.616C159.632 250.096 160.264 250.824 160.712 251.8C161.16 252.776 161.384 254.024 161.384 255.544C161.384 257.048 161.168 258.296 160.736 259.288C160.304 260.264 159.68 260.992 158.864 261.472C158.064 261.952 157.096 262.192 155.96 262.192ZM156.608 259.12C157.216 259.12 157.768 258.976 158.264 258.688C158.76 258.4 159.152 257.992 159.44 257.464C159.744 256.92 159.896 256.28 159.896 255.544C159.896 254.792 159.744 254.152 159.44 253.624C159.152 253.096 158.76 252.688 158.264 252.4C157.768 252.112 157.216 251.968 156.608 251.968C155.984 251.968 155.424 252.112 154.928 252.4C154.432 252.688 154.032 253.096 153.728 253.624C153.44 254.152 153.296 254.792 153.296 255.544C153.296 256.28 153.44 256.92 153.728 257.464C154.032 257.992 154.432 258.4 154.928 258.688C155.424 258.976 155.984 259.12 156.608 259.12ZM159.992 262V259.36L160.064 255.52L159.824 251.704V244.192H163.568V262H159.992ZM172.481 262.192C171.409 262.192 170.449 261.984 169.601 261.568C168.769 261.152 168.121 260.52 167.657 259.672C167.193 258.808 166.961 257.712 166.961 256.384V249.088H170.705V255.832C170.705 256.904 170.929 257.696 171.377 258.208C171.841 258.704 172.489 258.952 173.321 258.952C173.897 258.952 174.409 258.832 174.857 258.592C175.305 258.336 175.657 257.952 175.913 257.44C176.169 256.912 176.297 256.256 176.297 255.472V249.088H180.041V262H176.489V258.448L177.137 259.48C176.705 260.376 176.065 261.056 175.217 261.52C174.385 261.968 173.473 262.192 172.481 262.192ZM189.749 262.192C188.357 262.192 187.117 261.912 186.029 261.352C184.941 260.776 184.085 259.984 183.461 258.976C182.853 257.968 182.549 256.824 182.549 255.544C182.549 254.248 182.853 253.104 183.461 252.112C184.085 251.104 184.941 250.32 186.029 249.76C187.117 249.184 188.357 248.896 189.749 248.896C191.109 248.896 192.293 249.184 193.301 249.76C194.309 250.32 195.053 251.128 195.533 252.184L192.629 253.744C192.293 253.136 191.869 252.688 191.357 252.4C190.861 252.112 190.317 251.968 189.725 251.968C189.085 251.968 188.509 252.112 187.997 252.4C187.485 252.688 187.077 253.096 186.773 253.624C186.485 254.152 186.341 254.792 186.341 255.544C186.341 256.296 186.485 256.936 186.773 257.464C187.077 257.992 187.485 258.4 187.997 258.688C188.509 258.976 189.085 259.12 189.725 259.12C190.317 259.12 190.861 258.984 191.357 258.712C191.869 258.424 192.293 257.968 192.629 257.344L195.533 258.928C195.053 259.968 194.309 260.776 193.301 261.352C192.293 261.912 191.109 262.192 189.749 262.192ZM203.156 262.192C201.636 262.192 200.452 261.808 199.604 261.04C198.756 260.256 198.332 259.096 198.332 257.56V246.232H202.076V257.512C202.076 258.056 202.22 258.48 202.508 258.784C202.796 259.072 203.188 259.216 203.684 259.216C204.276 259.216 204.78 259.056 205.196 258.736L206.204 261.376C205.82 261.648 205.356 261.856 204.812 262C204.284 262.128 203.732 262.192 203.156 262.192ZM196.34 252.256V249.376H205.292V252.256H196.34ZM208.306 262V249.088H212.05V262H208.306ZM210.178 247.288C209.49 247.288 208.93 247.088 208.498 246.688C208.066 246.288 207.85 245.792 207.85 245.2C207.85 244.608 208.066 244.112 208.498 243.712C208.93 243.312 209.49 243.112 210.178 243.112C210.866 243.112 211.426 243.304 211.858 243.688C212.29 244.056 212.506 244.536 212.506 245.128C212.506 245.752 212.29 246.272 211.858 246.688C211.442 247.088 210.882 247.288 210.178 247.288ZM221.669 262.192C220.293 262.192 219.069 261.904 217.997 261.328C216.941 260.752 216.101 259.968 215.477 258.976C214.869 257.968 214.565 256.824 214.565 255.544C214.565 254.248 214.869 253.104 215.477 252.112C216.101 251.104 216.941 250.32 217.997 249.76C219.069 249.184 220.293 248.896 221.669 248.896C223.029 248.896 224.245 249.184 225.317 249.76C226.389 250.32 227.229 251.096 227.837 252.088C228.445 253.08 228.749 254.232 228.749 255.544C228.749 256.824 228.445 257.968 227.837 258.976C227.229 259.968 226.389 260.752 225.317 261.328C224.245 261.904 223.029 262.192 221.669 262.192ZM221.669 259.12C222.293 259.12 222.853 258.976 223.349 258.688C223.845 258.4 224.237 257.992 224.525 257.464C224.813 256.92 224.957 256.28 224.957 255.544C224.957 254.792 224.813 254.152 224.525 253.624C224.237 253.096 223.845 252.688 223.349 252.4C222.853 252.112 222.293 251.968 221.669 251.968C221.045 251.968 220.485 252.112 219.989 252.4C219.493 252.688 219.093 253.096 218.789 253.624C218.501 254.152 218.357 254.792 218.357 255.544C218.357 256.28 218.501 256.92 218.789 257.464C219.093 257.992 219.493 258.4 219.989 258.688C220.485 258.976 221.045 259.12 221.669 259.12ZM239.099 248.896C240.123 248.896 241.035 249.104 241.835 249.52C242.651 249.92 243.291 250.544 243.755 251.392C244.219 252.224 244.451 253.296 244.451 254.608V262H240.707V255.184C240.707 254.144 240.475 253.376 240.011 252.88C239.563 252.384 238.923 252.136 238.091 252.136C237.499 252.136 236.963 252.264 236.483 252.52C236.019 252.76 235.651 253.136 235.379 253.648C235.123 254.16 234.995 254.816 234.995 255.616V262H231.251V249.088H234.827V252.664L234.155 251.584C234.619 250.72 235.283 250.056 236.147 249.592C237.011 249.128 237.995 248.896 239.099 248.896Z" fill="#CDDAED"/>
<path d="M256.538 262L263.306 246.688L264.314 248.368H255.266L256.994 246.544V251.104H253.538V245.2H267.002V247.72L260.762 262H256.538ZM271.421 262L278.189 246.688L279.197 248.368H270.149L271.877 246.544V251.104H268.421V245.2H281.885V247.72L275.645 262H271.421ZM286.133 262L297.605 245.2H300.461L288.989 262H286.133ZM287.597 254.272C286.781 254.272 286.061 254.088 285.437 253.72C284.813 253.336 284.317 252.8 283.949 252.112C283.597 251.408 283.421 250.584 283.421 249.64C283.421 248.696 283.597 247.88 283.949 247.192C284.317 246.504 284.813 245.968 285.437 245.584C286.061 245.2 286.781 245.008 287.597 245.008C288.413 245.008 289.133 245.2 289.757 245.584C290.381 245.968 290.869 246.504 291.221 247.192C291.573 247.88 291.749 248.696 291.749 249.64C291.749 250.584 291.573 251.408 291.221 252.112C290.869 252.8 290.381 253.336 289.757 253.72C289.133 254.088 288.413 254.272 287.597 254.272ZM287.597 252.304C288.125 252.304 288.549 252.088 288.869 251.656C289.189 251.208 289.349 250.536 289.349 249.64C289.349 248.744 289.189 248.08 288.869 247.648C288.549 247.2 288.125 246.976 287.597 246.976C287.085 246.976 286.661 247.2 286.325 247.648C286.005 248.08 285.845 248.744 285.845 249.64C285.845 250.52 286.005 251.184 286.325 251.632C286.661 252.08 287.085 252.304 287.597 252.304ZM298.997 262.192C298.197 262.192 297.477 262.008 296.837 261.64C296.213 261.256 295.725 260.72 295.373 260.032C295.021 259.328 294.845 258.504 294.845 257.56C294.845 256.616 295.021 255.8 295.373 255.112C295.725 254.424 296.213 253.888 296.837 253.504C297.477 253.12 298.197 252.928 298.997 252.928C299.829 252.928 300.557 253.12 301.181 253.504C301.805 253.888 302.293 254.424 302.645 255.112C302.997 255.8 303.173 256.616 303.173 257.56C303.173 258.504 302.997 259.328 302.645 260.032C302.293 260.72 301.805 261.256 301.181 261.64C300.557 262.008 299.829 262.192 298.997 262.192ZM298.997 260.224C299.525 260.224 299.949 260.008 300.269 259.576C300.589 259.128 300.749 258.456 300.749 257.56C300.749 256.68 300.589 256.016 300.269 255.568C299.949 255.12 299.525 254.896 298.997 254.896C298.485 254.896 298.061 255.12 297.725 255.568C297.405 256 297.245 256.664 297.245 257.56C297.245 258.456 297.405 259.128 297.725 259.576C298.061 260.008 298.485 260.224 298.997 260.224Z" fill="#30D5C8"/>
<path d="M297.97 597.954L293.165 588.556L291.96 589.132L295.552 596.158C295.673 596.34 295.4 596.302 295.4 596.302C291.24 596.256 289.557 592.005 289.557 592.005L291.528 588.208L294.976 586.745L291.793 585.82L288.792 580L285.783 585.851L282.615 586.745L286.147 588.253L288.042 592.05C285.768 596.643 282.206 596.324 282.206 596.324C281.956 596.34 282.047 596.203 282.047 596.203L285.624 589.132L284.464 588.541L279.584 598.098H282.827C286.837 598.098 288.701 593.657 288.701 593.657C288.784 593.437 288.868 593.687 288.868 593.687C291.043 598.113 294.211 598.098 294.211 598.098H297.848C298.091 598.105 297.97 597.954 297.97 597.954ZM288.815 590.527L286.882 586.76L288.799 582.994L290.747 586.76L288.815 590.527Z" fill="url(#paint15_linear_212_84)"/>
<path d="M222.585 593.733L221.751 596.742H219L222.585 585.017H226.063L229.701 596.742H226.852L225.95 593.733H222.585ZM225.563 591.755L224.836 589.269C224.623 588.572 224.419 587.7 224.244 587.011H224.207C224.032 587.708 223.858 588.595 223.668 589.269L222.971 591.755H225.563Z" fill="white"/>
<path d="M233.718 591.823H233.756C233.945 591.475 234.157 591.126 234.362 590.8L236.082 588.246H239.265L236.219 591.687L239.697 596.749H236.446L234.392 593.256L233.71 594.089V596.749H231.073V584.396H233.718V591.823Z" fill="white"/>
<path d="M247.678 594.673C247.678 595.491 247.716 596.272 247.799 596.742H245.42L245.26 595.885H245.207C244.654 596.568 243.783 596.931 242.775 596.931C241.054 596.931 240.024 595.681 240.024 594.324C240.024 592.111 242.009 591.058 245.018 591.073V590.952C245.018 590.497 244.775 589.853 243.472 589.853C242.6 589.853 241.683 590.148 241.122 590.497L240.637 588.792C241.229 588.458 242.396 588.042 243.942 588.042C246.776 588.042 247.678 589.709 247.678 591.71V594.673ZM245.101 592.725C243.707 592.71 242.631 593.036 242.631 594.067C242.631 594.749 243.085 595.075 243.676 595.075C244.336 595.075 244.874 594.643 245.048 594.097C245.086 593.96 245.101 593.801 245.101 593.642V592.725Z" fill="white"/>
<path d="M249.746 594.43C250.231 594.726 251.239 595.075 252.027 595.075C252.831 595.075 253.157 594.794 253.157 594.362C253.157 593.93 252.899 593.718 251.906 593.384C250.148 592.793 249.473 591.838 249.489 590.846C249.489 589.247 250.845 588.042 252.952 588.042C253.945 588.042 254.832 588.269 255.354 588.527L254.885 590.353C254.506 590.141 253.771 589.868 253.043 589.868C252.399 589.868 252.035 590.126 252.035 590.565C252.035 590.967 252.368 591.172 253.407 591.543C255.021 592.096 255.703 592.915 255.718 594.165C255.718 595.749 254.468 596.931 252.027 596.931C250.913 596.931 249.921 596.674 249.276 596.325L249.746 594.43Z" fill="white"/>
<path d="M257.311 584.396H259.956V589.246H259.994C260.274 588.883 260.623 588.587 261.04 588.375C261.441 588.163 261.926 588.041 262.411 588.041C264.101 588.041 265.382 589.209 265.382 591.763V596.734H262.737V592.058C262.737 590.944 262.358 590.179 261.366 590.179C260.668 590.179 260.236 590.633 260.047 591.103C259.979 591.278 259.956 591.505 259.956 591.694V596.742H257.311V584.396Z" fill="white"/>
<path d="M273.755 596.742L272.694 594.62C272.262 593.801 271.982 593.195 271.648 592.513H271.611C271.368 593.187 271.072 593.801 270.709 594.62L269.731 596.742H266.707L270.095 590.808L266.828 585.017H269.875L270.898 587.155C271.247 587.867 271.504 588.443 271.785 589.102H271.823C272.103 588.352 272.331 587.829 272.626 587.155L273.619 585.017H276.643L273.339 590.739L276.817 596.742H273.755Z" fill="white"/>
<path d="M90.2074 657.111H88.8778C88.8267 656.827 88.7315 656.577 88.5923 656.361C88.4531 656.145 88.2827 655.962 88.081 655.811C87.8793 655.661 87.6534 655.547 87.4034 655.47C87.1563 655.393 86.8935 655.355 86.6151 655.355C86.1122 655.355 85.6619 655.482 85.2642 655.734C84.8693 655.987 84.5568 656.358 84.3267 656.847C84.0994 657.335 83.9858 657.932 83.9858 658.636C83.9858 659.347 84.0994 659.946 84.3267 660.435C84.5568 660.923 84.8707 661.293 85.2685 661.543C85.6662 661.793 86.1136 661.918 86.6108 661.918C86.8864 661.918 87.1477 661.881 87.3949 661.807C87.6449 661.73 87.8707 661.618 88.0724 661.47C88.2741 661.322 88.4446 661.142 88.5838 660.929C88.7259 660.713 88.8239 660.466 88.8778 660.188L90.2074 660.192C90.1364 660.621 89.9986 661.016 89.794 661.376C89.5923 661.734 89.3324 662.044 89.0142 662.305C88.6989 662.564 88.3381 662.764 87.9318 662.906C87.5256 663.048 87.0824 663.119 86.6023 663.119C85.8466 663.119 85.1733 662.94 84.5824 662.582C83.9915 662.222 83.5256 661.706 83.1847 661.036C82.8466 660.365 82.6776 659.565 82.6776 658.636C82.6776 657.705 82.848 656.905 83.1889 656.237C83.5298 655.567 83.9957 655.053 84.5866 654.695C85.1776 654.334 85.8494 654.153 86.6023 654.153C87.0653 654.153 87.4972 654.22 87.8977 654.354C88.3011 654.484 88.6634 654.678 88.9844 654.933C89.3054 655.186 89.571 655.496 89.7812 655.862C89.9915 656.226 90.1335 656.642 90.2074 657.111ZM94.4379 663.132C93.8242 663.132 93.2887 662.991 92.8313 662.71C92.3739 662.429 92.0188 662.036 91.766 661.53C91.5131 661.024 91.3867 660.433 91.3867 659.757C91.3867 659.078 91.5131 658.484 91.766 657.976C92.0188 657.467 92.3739 657.072 92.8313 656.791C93.2887 656.51 93.8242 656.369 94.4379 656.369C95.0515 656.369 95.587 656.51 96.0444 656.791C96.5018 657.072 96.8569 657.467 97.1097 657.976C97.3626 658.484 97.489 659.078 97.489 659.757C97.489 660.433 97.3626 661.024 97.1097 661.53C96.8569 662.036 96.5018 662.429 96.0444 662.71C95.587 662.991 95.0515 663.132 94.4379 663.132ZM94.4421 662.062C94.8398 662.062 95.1694 661.957 95.4308 661.747C95.6921 661.537 95.8853 661.257 96.0103 660.908C96.1381 660.558 96.2021 660.173 96.2021 659.753C96.2021 659.335 96.1381 658.952 96.0103 658.602C95.8853 658.25 95.6921 657.967 95.4308 657.754C95.1694 657.541 94.8398 657.435 94.4421 657.435C94.0415 657.435 93.7092 657.541 93.445 657.754C93.1836 657.967 92.989 658.25 92.8612 658.602C92.7362 658.952 92.6737 659.335 92.6737 659.753C92.6737 660.173 92.7362 660.558 92.8612 660.908C92.989 661.257 93.1836 661.537 93.445 661.747C93.7092 661.957 94.0415 662.062 94.4421 662.062ZM98.9112 663V656.455H100.134V657.52H100.215C100.352 657.159 100.575 656.878 100.884 656.676C101.194 656.472 101.565 656.369 101.996 656.369C102.434 656.369 102.8 656.472 103.096 656.676C103.394 656.881 103.614 657.162 103.756 657.52H103.825C103.981 657.17 104.229 656.892 104.57 656.685C104.911 656.474 105.317 656.369 105.789 656.369C106.383 656.369 106.867 656.555 107.242 656.928C107.62 657.3 107.809 657.861 107.809 658.611V663H106.535V658.73C106.535 658.287 106.414 657.966 106.173 657.767C105.931 657.568 105.643 657.469 105.308 657.469C104.893 657.469 104.57 657.597 104.34 657.852C104.11 658.105 103.995 658.43 103.995 658.828V663H102.725V658.649C102.725 658.294 102.614 658.009 102.393 657.793C102.171 657.577 101.883 657.469 101.528 657.469C101.286 657.469 101.063 657.533 100.859 657.661C100.657 657.786 100.494 657.96 100.369 658.185C100.246 658.409 100.185 658.669 100.185 658.964V663H98.9112ZM109.517 665.455V656.455H110.761V657.516H110.868C110.941 657.379 111.048 657.222 111.187 657.043C111.326 656.864 111.52 656.707 111.767 656.574C112.014 656.438 112.341 656.369 112.747 656.369C113.275 656.369 113.747 656.503 114.162 656.77C114.576 657.037 114.902 657.422 115.137 657.925C115.376 658.428 115.495 659.033 115.495 659.74C115.495 660.447 115.377 661.054 115.142 661.56C114.906 662.062 114.582 662.45 114.17 662.723C113.758 662.993 113.288 663.128 112.76 663.128C112.362 663.128 112.037 663.061 111.784 662.928C111.534 662.794 111.338 662.638 111.196 662.459C111.054 662.28 110.944 662.121 110.868 661.982H110.791V665.455H109.517ZM110.765 659.727C110.765 660.187 110.832 660.591 110.966 660.938C111.099 661.284 111.292 661.555 111.545 661.751C111.798 661.945 112.108 662.041 112.474 662.041C112.855 662.041 113.173 661.94 113.429 661.739C113.684 661.534 113.877 661.257 114.008 660.908C114.142 660.558 114.208 660.165 114.208 659.727C114.208 659.295 114.143 658.908 114.012 658.564C113.885 658.22 113.691 657.949 113.433 657.75C113.177 657.551 112.858 657.452 112.474 657.452C112.105 657.452 111.792 657.547 111.537 657.737C111.284 657.928 111.092 658.193 110.961 658.534C110.831 658.875 110.765 659.273 110.765 659.727ZM121.069 660.286V656.455H122.348V663H121.095V661.866H121.027C120.876 662.216 120.635 662.507 120.302 662.74C119.973 662.97 119.562 663.085 119.071 663.085C118.65 663.085 118.278 662.993 117.954 662.808C117.633 662.621 117.38 662.344 117.196 661.977C117.014 661.611 116.923 661.158 116.923 660.618V656.455H118.197V660.464C118.197 660.911 118.321 661.266 118.568 661.53C118.815 661.794 119.136 661.926 119.531 661.926C119.77 661.926 120.007 661.866 120.243 661.747C120.481 661.628 120.679 661.447 120.835 661.206C120.994 660.964 121.072 660.658 121.069 660.286ZM127.115 656.455V657.477H123.54V656.455H127.115ZM124.499 654.886H125.773V661.078C125.773 661.325 125.81 661.511 125.884 661.636C125.957 661.759 126.053 661.842 126.169 661.888C126.288 661.93 126.418 661.952 126.557 661.952C126.659 661.952 126.749 661.945 126.825 661.93C126.902 661.916 126.962 661.905 127.004 661.896L127.234 662.949C127.161 662.977 127.055 663.006 126.919 663.034C126.783 663.065 126.612 663.082 126.408 663.085C126.072 663.091 125.76 663.031 125.47 662.906C125.18 662.781 124.946 662.588 124.767 662.327C124.588 662.065 124.499 661.737 124.499 661.342V654.886ZM131.275 663.132C130.63 663.132 130.075 662.994 129.609 662.719C129.146 662.44 128.788 662.05 128.535 661.547C128.285 661.041 128.16 660.449 128.16 659.77C128.16 659.099 128.285 658.509 128.535 657.997C128.788 657.486 129.14 657.087 129.592 656.8C130.047 656.513 130.578 656.369 131.186 656.369C131.555 656.369 131.913 656.43 132.26 656.553C132.606 656.675 132.917 656.866 133.193 657.128C133.468 657.389 133.686 657.729 133.845 658.146C134.004 658.561 134.083 659.065 134.083 659.659V660.111H128.88V659.156H132.835C132.835 658.821 132.767 658.524 132.63 658.266C132.494 658.004 132.302 657.798 132.055 657.648C131.811 657.497 131.524 657.422 131.194 657.422C130.836 657.422 130.524 657.51 130.257 657.686C129.993 657.859 129.788 658.087 129.643 658.368C129.501 658.646 129.43 658.949 129.43 659.276V660.021C129.43 660.459 129.507 660.831 129.66 661.138C129.816 661.445 130.034 661.679 130.312 661.841C130.591 662 130.916 662.08 131.288 662.08C131.529 662.08 131.75 662.045 131.949 661.977C132.147 661.906 132.319 661.801 132.464 661.662C132.609 661.523 132.72 661.351 132.797 661.146L134.002 661.364C133.906 661.719 133.733 662.03 133.483 662.297C133.235 662.561 132.924 662.767 132.549 662.915C132.177 663.06 131.752 663.132 131.275 663.132Z" fill="#CDDAED"/>
<rect x="60" y="651" width="14" height="14" rx="2" fill="#A5C4FF"/>
<path d="M200.719 656.565C200.673 656.162 200.486 655.849 200.156 655.628C199.827 655.403 199.412 655.291 198.912 655.291C198.554 655.291 198.244 655.348 197.983 655.462C197.722 655.572 197.518 655.726 197.374 655.922C197.232 656.115 197.161 656.335 197.161 656.582C197.161 656.79 197.209 656.969 197.305 657.119C197.405 657.27 197.534 657.396 197.693 657.499C197.855 657.598 198.028 657.682 198.213 657.75C198.398 657.815 198.575 657.869 198.746 657.912L199.598 658.134C199.876 658.202 200.162 658.294 200.455 658.411C200.747 658.527 201.018 658.68 201.268 658.871C201.518 659.061 201.72 659.297 201.874 659.578C202.03 659.859 202.108 660.196 202.108 660.588C202.108 661.082 201.98 661.521 201.724 661.905C201.472 662.288 201.104 662.591 200.621 662.812C200.141 663.034 199.56 663.145 198.878 663.145C198.224 663.145 197.659 663.041 197.182 662.834C196.705 662.626 196.331 662.332 196.061 661.952C195.791 661.568 195.642 661.114 195.614 660.588H196.935C196.96 660.903 197.063 661.166 197.241 661.376C197.423 661.584 197.655 661.739 197.936 661.841C198.22 661.94 198.531 661.99 198.869 661.99C199.241 661.99 199.572 661.932 199.862 661.815C200.155 661.696 200.385 661.531 200.553 661.321C200.72 661.108 200.804 660.859 200.804 660.575C200.804 660.317 200.73 660.105 200.582 659.94C200.438 659.776 200.24 659.639 199.99 659.531C199.743 659.423 199.463 659.328 199.151 659.246L198.119 658.964C197.42 658.774 196.866 658.494 196.457 658.125C196.051 657.756 195.848 657.267 195.848 656.659C195.848 656.156 195.984 655.717 196.257 655.342C196.53 654.967 196.899 654.676 197.365 654.469C197.831 654.259 198.357 654.153 198.942 654.153C199.533 654.153 200.054 654.257 200.506 654.464C200.96 654.672 201.318 654.957 201.58 655.321C201.841 655.682 201.977 656.097 201.989 656.565H200.719ZM206.6 663.119C206.015 663.119 205.493 663.018 205.032 662.817C204.575 662.615 204.213 662.335 203.946 661.977C203.681 661.616 203.539 661.199 203.52 660.724H204.858C204.875 660.983 204.961 661.207 205.118 661.398C205.277 661.585 205.484 661.73 205.74 661.832C205.995 661.935 206.279 661.986 206.592 661.986C206.936 661.986 207.24 661.926 207.504 661.807C207.771 661.687 207.98 661.521 208.13 661.308C208.281 661.092 208.356 660.844 208.356 660.562C208.356 660.27 208.281 660.013 208.13 659.791C207.983 659.567 207.765 659.391 207.478 659.263C207.194 659.135 206.85 659.071 206.447 659.071H205.71V657.997H206.447C206.771 657.997 207.055 657.939 207.299 657.822C207.547 657.706 207.74 657.544 207.879 657.337C208.018 657.126 208.088 656.881 208.088 656.599C208.088 656.33 208.027 656.095 207.904 655.896C207.785 655.695 207.615 655.537 207.393 655.423C207.174 655.31 206.916 655.253 206.618 655.253C206.333 655.253 206.068 655.305 205.821 655.411C205.576 655.513 205.377 655.661 205.224 655.854C205.071 656.044 204.988 656.273 204.977 656.54H203.703C203.717 656.068 203.856 655.653 204.12 655.295C204.387 654.937 204.74 654.658 205.177 654.456C205.615 654.254 206.1 654.153 206.635 654.153C207.194 654.153 207.677 654.263 208.083 654.482C208.493 654.697 208.808 654.986 209.029 655.347C209.254 655.707 209.365 656.102 209.362 656.531C209.365 657.02 209.228 657.435 208.953 657.776C208.68 658.116 208.316 658.345 207.862 658.462V658.53C208.441 658.618 208.89 658.848 209.208 659.22C209.529 659.592 209.689 660.054 209.686 660.605C209.689 661.085 209.555 661.516 209.285 661.896C209.018 662.277 208.653 662.577 208.19 662.795C207.727 663.011 207.197 663.119 206.6 663.119Z" fill="#CDDAED"/>
<rect x="173" y="651" width="14" height="14" rx="2" fill="#3499FF"/>
<path d="M271.959 663V654.273H277.43V655.406H273.276V658.065H277.145V659.195H273.276V661.866H277.482V663H271.959ZM282.944 658.082V659.19H279.074V658.082H282.944ZM289.504 656.565C289.458 656.162 289.271 655.849 288.941 655.628C288.612 655.403 288.197 655.291 287.697 655.291C287.339 655.291 287.029 655.348 286.768 655.462C286.507 655.572 286.304 655.726 286.159 655.922C286.017 656.115 285.946 656.335 285.946 656.582C285.946 656.79 285.994 656.969 286.091 657.119C286.19 657.27 286.319 657.396 286.478 657.499C286.64 657.598 286.814 657.682 286.998 657.75C287.183 657.815 287.36 657.869 287.531 657.912L288.383 658.134C288.662 658.202 288.947 658.294 289.24 658.411C289.532 658.527 289.804 658.68 290.054 658.871C290.304 659.061 290.505 659.297 290.659 659.578C290.815 659.859 290.893 660.196 290.893 660.588C290.893 661.082 290.765 661.521 290.51 661.905C290.257 662.288 289.889 662.591 289.406 662.812C288.926 663.034 288.345 663.145 287.663 663.145C287.01 663.145 286.444 663.041 285.967 662.834C285.49 662.626 285.116 662.332 284.846 661.952C284.576 661.568 284.427 661.114 284.399 660.588H285.72C285.745 660.903 285.848 661.166 286.027 661.376C286.208 661.584 286.44 661.739 286.721 661.841C287.005 661.94 287.316 661.99 287.654 661.99C288.027 661.99 288.358 661.932 288.647 661.815C288.94 661.696 289.17 661.531 289.338 661.321C289.505 661.108 289.589 660.859 289.589 660.575C289.589 660.317 289.515 660.105 289.368 659.94C289.223 659.776 289.025 659.639 288.775 659.531C288.528 659.423 288.248 659.328 287.936 659.246L286.904 658.964C286.206 658.774 285.652 658.494 285.243 658.125C284.836 657.756 284.633 657.267 284.633 656.659C284.633 656.156 284.77 655.717 285.042 655.342C285.315 654.967 285.684 654.676 286.15 654.469C286.616 654.259 287.142 654.153 287.727 654.153C288.318 654.153 288.839 654.257 289.291 654.464C289.745 654.672 290.103 654.957 290.365 655.321C290.626 655.682 290.762 656.097 290.774 656.565H289.504ZM295.386 663.119C294.8 663.119 294.278 663.018 293.817 662.817C293.36 662.615 292.998 662.335 292.731 661.977C292.467 661.616 292.325 661.199 292.305 660.724H293.643C293.66 660.983 293.746 661.207 293.903 661.398C294.062 661.585 294.269 661.73 294.525 661.832C294.781 661.935 295.065 661.986 295.377 661.986C295.721 661.986 296.025 661.926 296.289 661.807C296.556 661.687 296.765 661.521 296.915 661.308C297.066 661.092 297.141 660.844 297.141 660.562C297.141 660.27 297.066 660.013 296.915 659.791C296.768 659.567 296.55 659.391 296.263 659.263C295.979 659.135 295.636 659.071 295.232 659.071H294.495V657.997H295.232C295.556 657.997 295.84 657.939 296.085 657.822C296.332 657.706 296.525 657.544 296.664 657.337C296.803 657.126 296.873 656.881 296.873 656.599C296.873 656.33 296.812 656.095 296.69 655.896C296.57 655.695 296.4 655.537 296.178 655.423C295.96 655.31 295.701 655.253 295.403 655.253C295.119 655.253 294.853 655.305 294.606 655.411C294.362 655.513 294.163 655.661 294.009 655.854C293.856 656.044 293.773 656.273 293.762 656.54H292.488C292.502 656.068 292.641 655.653 292.906 655.295C293.173 654.937 293.525 654.658 293.962 654.456C294.4 654.254 294.886 654.153 295.42 654.153C295.979 654.153 296.462 654.263 296.869 654.482C297.278 654.697 297.593 654.986 297.815 655.347C298.039 655.707 298.15 656.102 298.147 656.531C298.15 657.02 298.013 657.435 297.738 657.776C297.465 658.116 297.102 658.345 296.647 658.462V658.53C297.227 658.618 297.675 658.848 297.994 659.22C298.315 659.592 298.474 660.054 298.471 660.605C298.474 661.085 298.34 661.516 298.07 661.896C297.803 662.277 297.438 662.577 296.975 662.795C296.512 663.011 295.982 663.119 295.386 663.119Z" fill="#CDDAED"/>
<rect x="249" y="652" width="13" height="13" rx="2" fill="#6243F0"/>
<defs>
<filter id="filter0_f_212_84" x="-69.1038" y="0.125" width="667.771" height="564.29" filterUnits="userSpaceOnUse" color-interpolation-filters="sRGB">
<feFlood flood-opacity="0" result="BackgroundImageFix"/>
<feBlend mode="normal" in="SourceGraphic" in2="BackgroundImageFix" result="shape"/>
<feGaussianBlur stdDeviation="105" result="effect1_foregroundBlur_212_84"/>
</filter>
<linearGradient id="paint0_linear_212_84" x1="-5.77603" y1="564.5" x2="340" y2="564.5" gradientUnits="userSpaceOnUse">
<stop stop-color="#080C26"/>
<stop offset="0.465026" stop-color="#50688B"/>
<stop offset="1" stop-color="#080C26"/>
</linearGradient>
<linearGradient id="paint1_linear_212_84" x1="-5.77603" y1="534.5" x2="340" y2="534.5" gradientUnits="userSpaceOnUse">
<stop stop-color="#080C26"/>
<stop offset="0.465026" stop-color="#50688B"/>
<stop offset="1" stop-color="#080C26"/>
</linearGradient>
<linearGradient id="paint2_linear_212_84" x1="-5.77603" y1="504.5" x2="340" y2="504.5" gradientUnits="userSpaceOnUse">
<stop stop-color="#080C26"/>
<stop offset="0.465026" stop-color="#50688B"/>
<stop offset="1" stop-color="#080C26"/>
</linearGradient>
<linearGradient id="paint3_linear_212_84" x1="-5.77603" y1="474.5" x2="340" y2="474.5" gradientUnits="userSpaceOnUse">
<stop stop-color="#080C26"/>
<stop offset="0.465026" stop-color="#50688B"/>
<stop offset="1" stop-color="#080C26"/>
</linearGradient>
<linearGradient id="paint4_linear_212_84" x1="-5.77603" y1="444.5" x2="340" y2="444.5" gradientUnits="userSpaceOnUse">
<stop stop-color="#080C26"/>
<stop offset="0.465026" stop-color="#50688B"/>
<stop offset="1" stop-color="#080C26"/>
</linearGradient>
<linearGradient id="paint5_linear_212_84" x1="-5.77603" y1="414.5" x2="340" y2="414.5" gradientUnits="userSpaceOnUse">
<stop stop-color="#080C26"/>
<stop offset="0.465026" stop-color="#50688B"/>
<stop offset="1" stop-color="#080C26"/>
</linearGradient>
<linearGradient id="paint6_linear_212_84" x1="-5.77586" y1="384.587" x2="340" y2="384.483" gradientUnits="userSpaceOnUse">
<stop stop-color="#080C26"/>
<stop offset="0.465026" stop-color="#50688B"/>
<stop offset="1" stop-color="#080C26"/>
</linearGradient>
<linearGradient id="paint7_linear_212_84" x1="-5.77586" y1="352.587" x2="340" y2="352.483" gradientUnits="userSpaceOnUse">
<stop stop-color="#080C26"/>
<stop offset="0.465026" stop-color="#50688B"/>
<stop offset="1" stop-color="#080C26"/>
</linearGradient>
<linearGradient id="paint8_linear_212_84" x1="262.113" y1="464.036" x2="141.247" y2="367.176" gradientUnits="userSpaceOnUse">
<stop stop-color="#30D5C8"/>
<stop offset="1" stop-color="#080C26"/>
</linearGradient>
<linearGradient id="paint9_linear_212_84" x1="246.301" y1="386.139" x2="198.888" y2="353.457" gradientUnits="userSpaceOnUse">
<stop stop-color="#38FFEF"/>
<stop offset="1" stop-color="#30D5C8" stop-opacity="0.3"/>
</linearGradient>
<linearGradient id="paint10_linear_212_84" x1="30" y1="317" x2="174" y2="317" gradientUnits="userSpaceOnUse">
<stop stop-color="#2B0D0D"/>
<stop offset="1" stop-color="#080C26"/>
</linearGradient>
<linearGradient id="paint11_linear_212_84" x1="30" y1="317" x2="174" y2="317" gradientUnits="userSpaceOnUse">
<stop stop-color="#DF4343"/>
<stop offset="1" stop-color="#521919"/>
</linearGradient>
<linearGradient id="paint12_linear_212_84" x1="190" y1="413" x2="327" y2="413" gradientUnits="userSpaceOnUse">
<stop stop-color="#0D3236"/>
<stop offset="1" stop-color="#080C26"/>
</linearGradient>
<linearGradient id="paint13_linear_212_84" x1="190" y1="413" x2="327" y2="413" gradientUnits="userSpaceOnUse">
<stop stop-color="#66F2C3"/>
<stop offset="1" stop-color="#184D52"/>
</linearGradient>
<linearGradient id="paint14_linear_212_84" x1="396.676" y1="281.06" x2="243.513" y2="389.331" gradientUnits="userSpaceOnUse">
<stop stop-color="#30D5C8"/>
<stop offset="1" stop-color="#7557FF"/>
</linearGradient>
<linearGradient id="paint15_linear_212_84" x1="288.972" y1="580" x2="288.746" y2="592.414" gradientUnits="userSpaceOnUse">
<stop stop-color="#30D5C8"/>
<stop offset="1" stop-color="#7557FF"/>
</linearGradient>
<clipPath id="clip0_212_84">
<rect width="18" height="18" fill="white" transform="translate(122 308)"/>
</clipPath>
<clipPath id="clip1_212_84">
<rect width="18" height="18" fill="white" transform="translate(275 404)"/>
</clipPath>
</defs>
</svg>
