<svg width="1205" height="867" viewBox="0 0 1205 867" fill="none" xmlns="http://www.w3.org/2000/svg">
<path d="M317.415 849.222H314.756C314.653 848.653 314.463 848.153 314.185 847.722C313.906 847.29 313.565 846.923 313.162 846.622C312.759 846.321 312.307 846.094 311.807 845.94C311.313 845.787 310.787 845.71 310.23 845.71C309.224 845.71 308.324 845.963 307.528 846.469C306.739 846.974 306.114 847.716 305.653 848.693C305.199 849.67 304.972 850.864 304.972 852.273C304.972 853.693 305.199 854.892 305.653 855.869C306.114 856.847 306.741 857.585 307.537 858.085C308.332 858.585 309.227 858.835 310.222 858.835C310.773 858.835 311.295 858.761 311.79 858.614C312.29 858.46 312.741 858.236 313.145 857.94C313.548 857.645 313.889 857.284 314.168 856.858C314.452 856.426 314.648 855.932 314.756 855.375L317.415 855.384C317.273 856.241 316.997 857.031 316.588 857.753C316.185 858.469 315.665 859.088 315.028 859.611C314.398 860.128 313.676 860.528 312.864 860.812C312.051 861.097 311.165 861.239 310.205 861.239C308.693 861.239 307.347 860.881 306.165 860.165C304.983 859.443 304.051 858.412 303.369 857.071C302.693 855.73 302.355 854.131 302.355 852.273C302.355 850.409 302.696 848.81 303.378 847.474C304.06 846.134 304.991 845.105 306.173 844.389C307.355 843.668 308.699 843.307 310.205 843.307C311.131 843.307 311.994 843.44 312.795 843.707C313.602 843.969 314.327 844.355 314.969 844.866C315.611 845.372 316.142 845.991 316.562 846.724C316.983 847.452 317.267 848.284 317.415 849.222ZM325.876 861.264C324.648 861.264 323.577 860.983 322.663 860.42C321.748 859.858 321.038 859.071 320.532 858.06C320.026 857.048 319.773 855.866 319.773 854.514C319.773 853.156 320.026 851.969 320.532 850.952C321.038 849.935 321.748 849.145 322.663 848.582C323.577 848.02 324.648 847.739 325.876 847.739C327.103 847.739 328.174 848.02 329.089 848.582C330.004 849.145 330.714 849.935 331.219 850.952C331.725 851.969 331.978 853.156 331.978 854.514C331.978 855.866 331.725 857.048 331.219 858.06C330.714 859.071 330.004 859.858 329.089 860.42C328.174 860.983 327.103 861.264 325.876 861.264ZM325.884 859.125C326.68 859.125 327.339 858.915 327.862 858.494C328.384 858.074 328.771 857.514 329.021 856.815C329.276 856.116 329.404 855.347 329.404 854.506C329.404 853.67 329.276 852.903 329.021 852.205C328.771 851.5 328.384 850.935 327.862 850.509C327.339 850.082 326.68 849.869 325.884 849.869C325.083 849.869 324.418 850.082 323.89 850.509C323.367 850.935 322.978 851.5 322.722 852.205C322.472 852.903 322.347 853.67 322.347 854.506C322.347 855.347 322.472 856.116 322.722 856.815C322.978 857.514 323.367 858.074 323.89 858.494C324.418 858.915 325.083 859.125 325.884 859.125ZM334.822 861V847.909H337.268V850.04H337.43C337.703 849.318 338.149 848.756 338.768 848.352C339.388 847.943 340.129 847.739 340.993 847.739C341.868 847.739 342.601 847.943 343.192 848.352C343.788 848.761 344.229 849.324 344.513 850.04H344.649C344.962 849.341 345.459 848.784 346.141 848.369C346.822 847.949 347.635 847.739 348.578 847.739C349.766 847.739 350.734 848.111 351.484 848.855C352.24 849.599 352.618 850.722 352.618 852.222V861H350.07V852.46C350.07 851.574 349.828 850.932 349.345 850.534C348.862 850.136 348.286 849.938 347.615 849.938C346.786 849.938 346.141 850.193 345.68 850.705C345.22 851.21 344.99 851.861 344.99 852.656V861H342.45V852.298C342.45 851.588 342.229 851.017 341.786 850.585C341.342 850.153 340.766 849.938 340.055 849.938C339.572 849.938 339.126 850.065 338.717 850.321C338.314 850.571 337.987 850.92 337.737 851.369C337.493 851.818 337.371 852.338 337.371 852.929V861H334.822ZM356.033 865.909V847.909H358.522V850.031H358.735C358.883 849.759 359.096 849.443 359.374 849.085C359.653 848.727 360.039 848.415 360.533 848.148C361.028 847.875 361.681 847.739 362.494 847.739C363.55 847.739 364.494 848.006 365.323 848.54C366.153 849.074 366.803 849.844 367.275 850.849C367.752 851.855 367.991 853.065 367.991 854.48C367.991 855.895 367.755 857.108 367.283 858.119C366.812 859.125 366.164 859.901 365.34 860.446C364.516 860.986 363.576 861.256 362.519 861.256C361.724 861.256 361.073 861.122 360.567 860.855C360.067 860.588 359.675 860.276 359.391 859.918C359.107 859.56 358.888 859.241 358.735 858.963H358.582V865.909H356.033ZM358.531 854.455C358.531 855.375 358.664 856.182 358.931 856.875C359.198 857.568 359.585 858.111 360.09 858.503C360.596 858.889 361.215 859.082 361.948 859.082C362.71 859.082 363.346 858.881 363.857 858.477C364.369 858.068 364.755 857.514 365.016 856.815C365.283 856.116 365.417 855.33 365.417 854.455C365.417 853.591 365.286 852.815 365.025 852.128C364.769 851.44 364.383 850.898 363.866 850.5C363.354 850.102 362.715 849.903 361.948 849.903C361.21 849.903 360.585 850.094 360.073 850.474C359.567 850.855 359.184 851.386 358.923 852.068C358.661 852.75 358.531 853.545 358.531 854.455ZM379.138 855.571V847.909H381.695V861H379.19V858.733H379.053C378.752 859.432 378.269 860.014 377.604 860.48C376.945 860.94 376.124 861.17 375.141 861.17C374.3 861.17 373.556 860.986 372.908 860.616C372.266 860.241 371.761 859.688 371.391 858.955C371.028 858.222 370.846 857.315 370.846 856.236V847.909H373.394V855.929C373.394 856.821 373.641 857.531 374.136 858.06C374.63 858.588 375.272 858.852 376.062 858.852C376.539 858.852 377.013 858.733 377.485 858.494C377.962 858.256 378.357 857.895 378.67 857.412C378.988 856.929 379.144 856.315 379.138 855.571ZM391.23 847.909V849.955H384.08V847.909H391.23ZM385.997 844.773H388.545V857.156C388.545 857.651 388.619 858.023 388.767 858.273C388.915 858.517 389.105 858.685 389.338 858.776C389.577 858.861 389.835 858.903 390.114 858.903C390.318 858.903 390.497 858.889 390.651 858.861C390.804 858.832 390.923 858.81 391.009 858.793L391.469 860.898C391.321 860.955 391.111 861.011 390.838 861.068C390.565 861.131 390.224 861.165 389.815 861.17C389.145 861.182 388.52 861.062 387.94 860.812C387.361 860.562 386.892 860.176 386.534 859.653C386.176 859.131 385.997 858.474 385.997 857.685V844.773ZM399.55 861.264C398.261 861.264 397.15 860.989 396.218 860.438C395.292 859.881 394.576 859.099 394.07 858.094C393.57 857.082 393.32 855.898 393.32 854.54C393.32 853.199 393.57 852.017 394.07 850.994C394.576 849.972 395.281 849.173 396.184 848.599C397.093 848.026 398.156 847.739 399.371 847.739C400.11 847.739 400.826 847.861 401.519 848.105C402.212 848.349 402.835 848.733 403.386 849.256C403.937 849.778 404.371 850.457 404.69 851.293C405.008 852.122 405.167 853.131 405.167 854.318V855.222H394.761V853.312H402.67C402.67 852.642 402.533 852.048 402.261 851.531C401.988 851.009 401.604 850.597 401.11 850.295C400.621 849.994 400.048 849.844 399.388 849.844C398.673 849.844 398.048 850.02 397.513 850.372C396.985 850.719 396.576 851.173 396.286 851.736C396.002 852.293 395.86 852.898 395.86 853.551V855.043C395.86 855.918 396.013 856.662 396.32 857.276C396.633 857.889 397.067 858.358 397.624 858.682C398.181 859 398.832 859.159 399.576 859.159C400.059 859.159 400.499 859.091 400.897 858.955C401.295 858.812 401.638 858.602 401.928 858.324C402.218 858.045 402.44 857.702 402.593 857.293L405.005 857.727C404.812 858.437 404.465 859.06 403.965 859.594C403.471 860.122 402.849 860.534 402.099 860.83C401.354 861.119 400.505 861.264 399.55 861.264Z" fill="#CDDAED"/>
<rect x="261" y="840" width="26" height="26" rx="4" fill="#A5C4FF"/>
<path d="M677.918 861V843.545H688.861V845.812H680.551V851.131H688.29V853.389H680.551V858.733H688.963V861H677.918ZM699.887 851.165V853.381H692.148V851.165H699.887ZM713.008 848.131C712.917 847.324 712.542 846.699 711.883 846.256C711.224 845.807 710.394 845.582 709.394 845.582C708.678 845.582 708.059 845.696 707.536 845.923C707.013 846.145 706.607 846.452 706.317 846.844C706.033 847.23 705.891 847.67 705.891 848.165C705.891 848.58 705.988 848.937 706.181 849.239C706.38 849.54 706.638 849.793 706.957 849.997C707.281 850.196 707.627 850.364 707.996 850.5C708.366 850.631 708.721 850.739 709.062 850.824L710.766 851.267C711.323 851.403 711.894 851.588 712.479 851.821C713.065 852.054 713.607 852.361 714.107 852.741C714.607 853.122 715.011 853.594 715.317 854.156C715.63 854.719 715.786 855.392 715.786 856.176C715.786 857.165 715.531 858.043 715.019 858.81C714.513 859.577 713.778 860.182 712.812 860.625C711.852 861.068 710.69 861.29 709.326 861.29C708.019 861.29 706.888 861.082 705.934 860.668C704.979 860.253 704.232 859.665 703.692 858.903C703.153 858.136 702.854 857.227 702.798 856.176H705.44C705.491 856.807 705.695 857.332 706.053 857.753C706.417 858.168 706.88 858.477 707.442 858.682C708.011 858.881 708.633 858.98 709.309 858.98C710.053 858.98 710.715 858.864 711.295 858.631C711.88 858.392 712.34 858.062 712.675 857.642C713.011 857.216 713.178 856.719 713.178 856.151C713.178 855.634 713.031 855.21 712.735 854.881C712.445 854.551 712.05 854.278 711.55 854.062C711.056 853.847 710.496 853.656 709.871 853.491L707.809 852.929C706.411 852.548 705.303 851.989 704.485 851.25C703.673 850.511 703.266 849.534 703.266 848.318C703.266 847.312 703.539 846.435 704.085 845.685C704.63 844.935 705.369 844.352 706.3 843.938C707.232 843.517 708.283 843.307 709.454 843.307C710.636 843.307 711.678 843.514 712.582 843.929C713.491 844.344 714.207 844.915 714.729 845.642C715.252 846.364 715.525 847.193 715.548 848.131H713.008ZM724.771 861.239C723.601 861.239 722.555 861.037 721.635 860.634C720.72 860.23 719.996 859.67 719.462 858.955C718.933 858.233 718.649 857.398 718.609 856.449H721.286C721.32 856.966 721.493 857.415 721.805 857.795C722.124 858.17 722.538 858.46 723.05 858.665C723.561 858.869 724.129 858.972 724.754 858.972C725.442 858.972 726.05 858.852 726.578 858.614C727.112 858.375 727.53 858.043 727.831 857.616C728.132 857.185 728.283 856.688 728.283 856.125C728.283 855.54 728.132 855.026 727.831 854.582C727.536 854.134 727.101 853.781 726.527 853.526C725.959 853.27 725.271 853.142 724.464 853.142H722.99V850.994H724.464C725.112 850.994 725.68 850.878 726.169 850.645C726.663 850.412 727.05 850.088 727.328 849.673C727.607 849.253 727.746 848.761 727.746 848.199C727.746 847.659 727.624 847.19 727.379 846.793C727.141 846.389 726.8 846.074 726.357 845.847C725.919 845.619 725.402 845.506 724.805 845.506C724.237 845.506 723.706 845.611 723.212 845.821C722.723 846.026 722.325 846.321 722.018 846.707C721.712 847.088 721.547 847.545 721.524 848.08H718.976C719.004 847.136 719.283 846.307 719.811 845.591C720.345 844.875 721.05 844.315 721.925 843.912C722.8 843.509 723.771 843.307 724.839 843.307C725.959 843.307 726.925 843.526 727.737 843.963C728.555 844.395 729.186 844.972 729.629 845.693C730.078 846.415 730.3 847.205 730.294 848.062C730.3 849.04 730.027 849.869 729.476 850.551C728.93 851.233 728.203 851.69 727.294 851.923V852.06C728.453 852.236 729.351 852.696 729.987 853.44C730.629 854.185 730.947 855.108 730.942 856.21C730.947 857.17 730.68 858.031 730.141 858.793C729.607 859.554 728.876 860.153 727.95 860.591C727.024 861.023 725.964 861.239 724.771 861.239Z" fill="#CDDAED"/>
<rect x="636" y="840" width="26" height="26" rx="4" fill="#6243F0"/>
<path d="M536.438 848.131C536.347 847.324 535.972 846.699 535.312 846.256C534.653 845.807 533.824 845.582 532.824 845.582C532.108 845.582 531.489 845.696 530.966 845.923C530.443 846.145 530.037 846.452 529.747 846.844C529.463 847.23 529.321 847.67 529.321 848.165C529.321 848.58 529.418 848.937 529.611 849.239C529.81 849.54 530.068 849.793 530.386 849.997C530.71 850.196 531.057 850.364 531.426 850.5C531.795 850.631 532.151 850.739 532.491 850.824L534.196 851.267C534.753 851.403 535.324 851.588 535.909 851.821C536.494 852.054 537.037 852.361 537.537 852.741C538.037 853.122 538.44 853.594 538.747 854.156C539.06 854.719 539.216 855.392 539.216 856.176C539.216 857.165 538.96 858.043 538.449 858.81C537.943 859.577 537.207 860.182 536.241 860.625C535.281 861.068 534.119 861.29 532.756 861.29C531.449 861.29 530.318 861.082 529.364 860.668C528.409 860.253 527.662 859.665 527.122 858.903C526.582 858.136 526.284 857.227 526.227 856.176H528.869C528.92 856.807 529.125 857.332 529.483 857.753C529.847 858.168 530.31 858.477 530.872 858.682C531.44 858.881 532.062 858.98 532.739 858.98C533.483 858.98 534.145 858.864 534.724 858.631C535.31 858.392 535.77 858.062 536.105 857.642C536.44 857.216 536.608 856.719 536.608 856.151C536.608 855.634 536.46 855.21 536.165 854.881C535.875 854.551 535.48 854.278 534.98 854.062C534.486 853.847 533.926 853.656 533.301 853.491L531.239 852.929C529.841 852.548 528.733 851.989 527.915 851.25C527.102 850.511 526.696 849.534 526.696 848.318C526.696 847.312 526.969 846.435 527.514 845.685C528.06 844.935 528.798 844.352 529.73 843.938C530.662 843.517 531.713 843.307 532.884 843.307C534.065 843.307 535.108 843.514 536.011 843.929C536.92 844.344 537.636 844.915 538.159 845.642C538.682 846.364 538.955 847.193 538.977 848.131H536.438ZM548.201 861.239C547.031 861.239 545.985 861.037 545.065 860.634C544.15 860.23 543.425 859.67 542.891 858.955C542.363 858.233 542.079 857.398 542.039 856.449H544.715C544.749 856.966 544.923 857.415 545.235 857.795C545.553 858.17 545.968 858.46 546.479 858.665C546.991 858.869 547.559 858.972 548.184 858.972C548.871 858.972 549.479 858.852 550.008 858.614C550.542 858.375 550.96 858.043 551.261 857.616C551.562 857.185 551.712 856.688 551.712 856.125C551.712 855.54 551.562 855.026 551.261 854.582C550.965 854.134 550.531 853.781 549.957 853.526C549.388 853.27 548.701 853.142 547.894 853.142H546.42V850.994H547.894C548.542 850.994 549.11 850.878 549.599 850.645C550.093 850.412 550.479 850.088 550.758 849.673C551.036 849.253 551.175 848.761 551.175 848.199C551.175 847.659 551.053 847.19 550.809 846.793C550.57 846.389 550.229 846.074 549.786 845.847C549.349 845.619 548.832 845.506 548.235 845.506C547.667 845.506 547.136 845.611 546.641 845.821C546.153 846.026 545.755 846.321 545.448 846.707C545.141 847.088 544.977 847.545 544.954 848.08H542.406C542.434 847.136 542.712 846.307 543.241 845.591C543.775 844.875 544.479 844.315 545.354 843.912C546.229 843.509 547.201 843.307 548.269 843.307C549.388 843.307 550.354 843.526 551.167 843.963C551.985 844.395 552.616 844.972 553.059 845.693C553.508 846.415 553.729 847.205 553.724 848.062C553.729 849.04 553.457 849.869 552.906 850.551C552.36 851.233 551.633 851.69 550.724 851.923V852.06C551.883 852.236 552.781 852.696 553.417 853.44C554.059 854.185 554.377 855.108 554.371 856.21C554.377 857.17 554.11 858.031 553.57 858.793C553.036 859.554 552.306 860.153 551.38 860.591C550.454 861.023 549.394 861.239 548.201 861.239Z" fill="#CDDAED"/>
<rect x="487" y="840" width="26" height="26" rx="4" fill="#3499FF"/>
<path d="M0 705H994" stroke="url(#paint0_linear_256_5733)" stroke-opacity="0.5" stroke-width="1.5"/>
<path d="M0 655H994" stroke="url(#paint1_linear_256_5733)" stroke-opacity="0.5" stroke-width="1.5"/>
<path d="M0 605H994" stroke="url(#paint2_linear_256_5733)" stroke-opacity="0.5" stroke-width="1.5"/>
<path d="M0 555H994" stroke="url(#paint3_linear_256_5733)" stroke-opacity="0.5" stroke-width="1.5"/>
<path d="M0 505L994 505" stroke="url(#paint4_linear_256_5733)" stroke-opacity="0.5" stroke-width="1.5"/>
<path d="M0 455H994" stroke="url(#paint5_linear_256_5733)" stroke-opacity="0.5" stroke-width="1.5"/>
<path d="M0 406L994 405" stroke="url(#paint6_linear_256_5733)" stroke-opacity="0.5" stroke-width="1.5"/>
<path d="M0 356L994 355" stroke="url(#paint7_linear_256_5733)" stroke-opacity="0.5" stroke-width="1.5"/>
<rect x="227" y="655" width="132" height="58" rx="10" fill="#3499FF"/>
<rect x="661" y="655" width="132" height="50" rx="8" fill="#3499FF"/>
<rect x="661" y="605" width="132" height="50" rx="10" fill="#6D4DFF"/>
<rect x="661" y="525" width="132" height="80" rx="12" fill="#A5C4FF"/>
<rect x="227" y="355" width="132" height="300" rx="14" fill="#A5C4FF"/>
<path d="M733 392.146L717.122 446L658.483 409.418L679.482 404.551C675.121 397.695 670.046 391.074 664.299 384.741C656.09 375.776 646.557 367.441 635.857 359.875C624.988 352.209 613.087 345.295 600.321 339.231C587.365 333.071 573.722 327.653 559.525 323.029C530.955 313.663 500.241 307.099 468.862 302.558C437.26 298.111 405.207 295.419 373 294.506C405.445 293.404 437.964 294.102 470.252 296.592C502.623 299.214 534.944 303.942 566.124 311.89C581.826 315.865 597.045 320.72 611.634 326.408C626.418 332.177 640.376 338.93 653.313 346.573C666.423 354.352 678.325 363.078 688.82 372.607C697.301 380.339 704.856 388.548 711.406 397.152L733 392.146Z" fill="url(#paint8_linear_256_5733)"/>
<path d="M732.774 391.172L734.444 390.785L733.959 392.429L718.081 446.283L717.709 447.545L716.593 446.848L657.954 410.267L655.906 408.989L658.258 408.444L677.872 403.897C673.719 397.516 668.938 391.341 663.561 385.416C655.405 376.508 645.927 368.22 635.281 360.692C624.461 353.061 612.609 346.175 599.892 340.134L599.892 340.134C586.976 333.994 573.373 328.592 559.215 323.98L559.213 323.979C530.712 314.636 500.059 308.083 468.723 303.549C437.158 299.107 405.142 296.418 372.972 295.506L372.966 293.507C405.448 292.404 438.004 293.102 470.329 295.595L470.332 295.596C502.744 298.22 535.123 302.956 566.369 310.92C582.11 314.906 597.368 319.773 611.997 325.477L611.997 325.477C626.829 331.264 640.835 338.04 653.822 345.712L653.823 345.713C666.987 353.523 678.943 362.289 689.492 371.867L689.494 371.868C697.848 379.484 705.311 387.565 711.809 396.032L732.774 391.172Z" stroke="url(#paint9_linear_256_5733)" stroke-opacity="0.5" stroke-width="2"/>
<rect x="180" y="278" width="227" height="57" rx="8" fill="url(#paint10_linear_256_5733)"/>
<rect x="180.5" y="278.5" width="226" height="56" rx="7.5" stroke="url(#paint11_linear_256_5733)" stroke-opacity="0.9"/>
<path d="M211.278 317.182V295.364H212.676V317.182H211.278ZM214.986 302.565C214.918 301.878 214.625 301.344 214.108 300.963C213.591 300.582 212.889 300.392 212.003 300.392C211.401 300.392 210.892 300.477 210.477 300.648C210.063 300.812 209.744 301.043 209.523 301.338C209.307 301.634 209.199 301.969 209.199 302.344C209.188 302.656 209.253 302.929 209.395 303.162C209.543 303.395 209.744 303.597 210 303.767C210.256 303.932 210.551 304.077 210.886 304.202C211.222 304.321 211.58 304.423 211.96 304.509L213.528 304.884C214.29 305.054 214.989 305.281 215.625 305.565C216.261 305.849 216.813 306.199 217.278 306.614C217.744 307.028 218.105 307.517 218.361 308.08C218.622 308.642 218.756 309.287 218.761 310.014C218.756 311.082 218.483 312.009 217.943 312.793C217.409 313.571 216.636 314.176 215.625 314.608C214.619 315.034 213.406 315.247 211.986 315.247C210.577 315.247 209.349 315.031 208.304 314.599C207.264 314.168 206.452 313.528 205.866 312.682C205.287 311.83 204.983 310.776 204.955 309.52H208.526C208.565 310.105 208.733 310.594 209.028 310.986C209.33 311.372 209.73 311.665 210.23 311.864C210.736 312.057 211.307 312.153 211.943 312.153C212.568 312.153 213.111 312.062 213.571 311.881C214.037 311.699 214.398 311.446 214.653 311.122C214.909 310.798 215.037 310.426 215.037 310.006C215.037 309.614 214.92 309.284 214.688 309.017C214.46 308.75 214.125 308.523 213.682 308.335C213.244 308.148 212.707 307.977 212.071 307.824L210.17 307.347C208.699 306.989 207.537 306.429 206.685 305.668C205.832 304.906 205.409 303.881 205.415 302.591C205.409 301.534 205.69 300.611 206.259 299.821C206.832 299.031 207.619 298.415 208.619 297.972C209.619 297.528 210.756 297.307 212.028 297.307C213.324 297.307 214.455 297.528 215.42 297.972C216.392 298.415 217.148 299.031 217.688 299.821C218.227 300.611 218.506 301.526 218.523 302.565H214.986ZM227.593 315.239C226.32 315.239 225.187 315.02 224.192 314.582C223.204 314.139 222.423 313.531 221.849 312.759C221.281 311.98 220.988 311.082 220.971 310.065H224.687C224.71 310.491 224.849 310.866 225.104 311.19C225.366 311.509 225.712 311.756 226.144 311.932C226.576 312.108 227.062 312.196 227.602 312.196C228.164 312.196 228.661 312.097 229.093 311.898C229.525 311.699 229.863 311.423 230.107 311.071C230.352 310.719 230.474 310.312 230.474 309.852C230.474 309.386 230.343 308.974 230.082 308.616C229.826 308.253 229.457 307.969 228.974 307.764C228.496 307.56 227.928 307.457 227.269 307.457H225.641V304.747H227.269C227.826 304.747 228.317 304.651 228.744 304.457C229.175 304.264 229.511 303.997 229.749 303.656C229.988 303.31 230.107 302.906 230.107 302.446C230.107 302.009 230.002 301.625 229.792 301.295C229.587 300.96 229.298 300.699 228.923 300.511C228.553 300.324 228.121 300.23 227.627 300.23C227.127 300.23 226.67 300.321 226.255 300.503C225.84 300.679 225.508 300.932 225.258 301.261C225.008 301.591 224.874 301.977 224.857 302.42H221.32C221.337 301.415 221.624 300.528 222.181 299.761C222.738 298.994 223.488 298.395 224.431 297.963C225.38 297.526 226.451 297.307 227.644 297.307C228.849 297.307 229.903 297.526 230.806 297.963C231.71 298.401 232.411 298.991 232.911 299.736C233.417 300.474 233.667 301.304 233.661 302.224C233.667 303.202 233.363 304.017 232.749 304.67C232.141 305.324 231.349 305.739 230.371 305.915V306.051C231.656 306.216 232.633 306.662 233.303 307.389C233.979 308.111 234.315 309.014 234.309 310.099C234.315 311.094 234.028 311.977 233.448 312.75C232.874 313.523 232.082 314.131 231.07 314.574C230.059 315.017 228.9 315.239 227.593 315.239ZM236.697 311.932V309.026L243.984 297.545H246.49V301.568H245.007L240.413 308.838V308.974H250.768V311.932H236.697ZM245.075 315V311.045L245.143 309.759V297.545H248.604V315H245.075ZM260.587 297.545V315H256.896V301.048H256.794L252.797 303.554V300.281L257.118 297.545H260.587ZM267.778 312.614L267.684 313.551C267.61 314.301 267.468 315.048 267.258 315.793C267.053 316.543 266.837 317.222 266.61 317.83C266.388 318.438 266.21 318.915 266.073 319.261H263.721C263.806 318.926 263.923 318.457 264.07 317.855C264.218 317.259 264.357 316.588 264.488 315.844C264.619 315.099 264.701 314.341 264.735 313.568L264.778 312.614H267.778ZM277.298 315.239C276.093 315.239 275.019 315.017 274.076 314.574C273.138 314.131 272.394 313.52 271.843 312.741C271.292 311.963 271.005 311.071 270.982 310.065H274.562C274.602 310.741 274.886 311.29 275.414 311.71C275.942 312.131 276.57 312.341 277.298 312.341C277.877 312.341 278.388 312.213 278.832 311.957C279.281 311.696 279.63 311.335 279.88 310.875C280.136 310.409 280.263 309.875 280.263 309.273C280.263 308.659 280.133 308.119 279.871 307.653C279.616 307.187 279.261 306.824 278.806 306.562C278.352 306.301 277.832 306.168 277.246 306.162C276.735 306.162 276.238 306.267 275.755 306.477C275.278 306.687 274.906 306.974 274.638 307.338L271.357 306.75L272.184 297.545H282.854V300.562H275.227L274.775 304.935H274.877C275.184 304.503 275.647 304.145 276.266 303.861C276.886 303.577 277.579 303.435 278.346 303.435C279.397 303.435 280.335 303.682 281.158 304.176C281.982 304.67 282.633 305.349 283.11 306.213C283.587 307.071 283.823 308.06 283.817 309.179C283.823 310.355 283.55 311.401 282.999 312.315C282.454 313.224 281.69 313.94 280.707 314.463C279.729 314.98 278.593 315.239 277.298 315.239ZM286.391 315V312.341L292.604 306.588C293.133 306.077 293.576 305.616 293.934 305.207C294.298 304.798 294.573 304.398 294.761 304.006C294.948 303.608 295.042 303.179 295.042 302.719C295.042 302.207 294.925 301.767 294.692 301.398C294.46 301.023 294.141 300.736 293.738 300.537C293.335 300.332 292.877 300.23 292.366 300.23C291.832 300.23 291.366 300.338 290.968 300.554C290.57 300.77 290.263 301.08 290.048 301.483C289.832 301.886 289.724 302.366 289.724 302.923H286.221C286.221 301.781 286.479 300.79 286.996 299.949C287.513 299.108 288.238 298.457 289.17 297.997C290.102 297.537 291.175 297.307 292.391 297.307C293.641 297.307 294.729 297.528 295.656 297.972C296.587 298.409 297.312 299.017 297.829 299.795C298.346 300.574 298.604 301.466 298.604 302.472C298.604 303.131 298.474 303.781 298.212 304.423C297.957 305.065 297.499 305.778 296.84 306.562C296.181 307.341 295.252 308.276 294.053 309.366L291.505 311.864V311.983H298.835V315H286.391ZM308.352 315.384C306.886 315.378 305.625 315.017 304.568 314.301C303.517 313.585 302.707 312.548 302.139 311.19C301.577 309.832 301.298 308.199 301.304 306.29C301.304 304.386 301.585 302.764 302.148 301.423C302.716 300.082 303.526 299.062 304.577 298.364C305.634 297.659 306.892 297.307 308.352 297.307C309.813 297.307 311.068 297.659 312.119 298.364C313.176 299.068 313.989 300.091 314.557 301.432C315.125 302.767 315.406 304.386 315.401 306.29C315.401 308.205 315.116 309.841 314.548 311.199C313.986 312.557 313.179 313.594 312.128 314.31C311.077 315.026 309.818 315.384 308.352 315.384ZM308.352 312.324C309.352 312.324 310.151 311.821 310.747 310.815C311.344 309.81 311.639 308.301 311.634 306.29C311.634 304.966 311.497 303.864 311.224 302.983C310.957 302.102 310.577 301.44 310.082 300.997C309.594 300.554 309.017 300.332 308.352 300.332C307.358 300.332 306.563 300.83 305.966 301.824C305.369 302.818 305.068 304.307 305.062 306.29C305.062 307.631 305.196 308.75 305.463 309.648C305.736 310.54 306.119 311.21 306.614 311.659C307.108 312.102 307.688 312.324 308.352 312.324Z" fill="#FF4B4B"/>
<path d="M341 318.167C347.443 318.167 352.667 312.943 352.667 306.5C352.667 300.056 347.443 294.833 341 294.833C334.556 294.833 329.333 300.056 329.333 306.5C329.333 312.943 334.556 318.167 341 318.167Z" stroke="#DF4343" stroke-width="1.75" stroke-linecap="round" stroke-linejoin="round"/>
<path d="M344.5 302.417C343.701 301.617 342.294 301.062 341 301.027M341 301.027C339.46 300.985 338.083 301.682 338.083 303.583C338.083 307.083 344.5 305.333 344.5 308.833C344.5 310.829 342.792 311.687 341 311.623M341 301.027V298.917M337.5 310C338.251 311.003 339.65 311.575 341 311.623M341 311.623V314.083" stroke="#DF4343" stroke-width="1.75" stroke-linecap="round" stroke-linejoin="round"/>
<path d="M361.5 312.333L368.5 305.333L373.167 310L382.5 300.667" stroke="#DF4343" stroke-width="2.33333" stroke-linecap="round" stroke-linejoin="round"/>
<path d="M377.833 300.667H382.5V305.333" stroke="#DF4343" stroke-width="2.33333" stroke-linecap="round" stroke-linejoin="round"/>
<rect x="620" y="448" width="214" height="57" rx="8" fill="url(#paint12_linear_256_5733)"/>
<rect x="620.5" y="448.5" width="213" height="56" rx="7.5" stroke="url(#paint13_linear_256_5733)" stroke-opacity="0.9"/>
<path d="M651.278 487.182V465.364H652.676V487.182H651.278ZM654.986 472.565C654.918 471.878 654.625 471.344 654.108 470.963C653.591 470.582 652.889 470.392 652.003 470.392C651.401 470.392 650.892 470.477 650.477 470.648C650.063 470.812 649.744 471.043 649.523 471.338C649.307 471.634 649.199 471.969 649.199 472.344C649.188 472.656 649.253 472.929 649.395 473.162C649.543 473.395 649.744 473.597 650 473.767C650.256 473.932 650.551 474.077 650.886 474.202C651.222 474.321 651.58 474.423 651.96 474.509L653.528 474.884C654.29 475.054 654.989 475.281 655.625 475.565C656.261 475.849 656.813 476.199 657.278 476.614C657.744 477.028 658.105 477.517 658.361 478.08C658.622 478.642 658.756 479.287 658.761 480.014C658.756 481.082 658.483 482.009 657.943 482.793C657.409 483.571 656.636 484.176 655.625 484.608C654.619 485.034 653.406 485.247 651.986 485.247C650.577 485.247 649.349 485.031 648.304 484.599C647.264 484.168 646.452 483.528 645.866 482.682C645.287 481.83 644.983 480.776 644.955 479.52H648.526C648.565 480.105 648.733 480.594 649.028 480.986C649.33 481.372 649.73 481.665 650.23 481.864C650.736 482.057 651.307 482.153 651.943 482.153C652.568 482.153 653.111 482.062 653.571 481.881C654.037 481.699 654.398 481.446 654.653 481.122C654.909 480.798 655.037 480.426 655.037 480.006C655.037 479.614 654.92 479.284 654.688 479.017C654.46 478.75 654.125 478.523 653.682 478.335C653.244 478.148 652.707 477.977 652.071 477.824L650.17 477.347C648.699 476.989 647.537 476.429 646.685 475.668C645.832 474.906 645.409 473.881 645.415 472.591C645.409 471.534 645.69 470.611 646.259 469.821C646.832 469.031 647.619 468.415 648.619 467.972C649.619 467.528 650.756 467.307 652.028 467.307C653.324 467.307 654.455 467.528 655.42 467.972C656.392 468.415 657.148 469.031 657.688 469.821C658.227 470.611 658.506 471.526 658.523 472.565H654.986ZM661.832 485L669.067 470.682V470.562H660.638V467.545H672.886V470.605L665.641 485H661.832ZM681.575 485.239C680.262 485.239 679.094 485.026 678.072 484.599C677.055 484.168 676.256 483.58 675.677 482.835C675.097 482.091 674.808 481.247 674.808 480.304C674.808 479.577 674.972 478.909 675.302 478.301C675.637 477.688 676.092 477.179 676.665 476.776C677.239 476.366 677.881 476.105 678.592 475.991V475.872C677.66 475.685 676.904 475.233 676.325 474.517C675.745 473.795 675.455 472.957 675.455 472.003C675.455 471.099 675.719 470.295 676.248 469.591C676.776 468.881 677.501 468.324 678.421 467.92C679.347 467.511 680.398 467.307 681.575 467.307C682.751 467.307 683.799 467.511 684.719 467.92C685.646 468.33 686.373 468.889 686.901 469.599C687.43 470.304 687.697 471.105 687.702 472.003C687.697 472.963 687.401 473.801 686.816 474.517C686.231 475.233 685.481 475.685 684.566 475.872V475.991C685.265 476.105 685.898 476.366 686.467 476.776C687.04 477.179 687.495 477.688 687.83 478.301C688.171 478.909 688.344 479.577 688.35 480.304C688.344 481.247 688.052 482.091 687.472 482.835C686.893 483.58 686.092 484.168 685.069 484.599C684.052 485.026 682.887 485.239 681.575 485.239ZM681.575 482.528C682.16 482.528 682.671 482.423 683.109 482.213C683.546 481.997 683.887 481.702 684.131 481.327C684.381 480.946 684.506 480.509 684.506 480.014C684.506 479.509 684.379 479.062 684.123 478.676C683.867 478.284 683.521 477.977 683.083 477.756C682.646 477.528 682.143 477.415 681.575 477.415C681.012 477.415 680.509 477.528 680.066 477.756C679.623 477.977 679.273 478.284 679.018 478.676C678.768 479.062 678.643 479.509 678.643 480.014C678.643 480.509 678.765 480.946 679.009 481.327C679.254 481.702 679.597 481.997 680.04 482.213C680.484 482.423 680.995 482.528 681.575 482.528ZM681.575 474.73C682.063 474.73 682.498 474.631 682.879 474.432C683.259 474.233 683.558 473.957 683.773 473.605C683.989 473.253 684.097 472.847 684.097 472.386C684.097 471.932 683.989 471.534 683.773 471.193C683.558 470.847 683.262 470.577 682.887 470.384C682.512 470.185 682.075 470.085 681.575 470.085C681.08 470.085 680.643 470.185 680.262 470.384C679.881 470.577 679.583 470.847 679.367 471.193C679.157 471.534 679.052 471.932 679.052 472.386C679.052 472.847 679.16 473.253 679.376 473.605C679.592 473.957 679.89 474.233 680.271 474.432C680.651 474.631 681.086 474.73 681.575 474.73ZM694.418 482.614L694.325 483.551C694.251 484.301 694.109 485.048 693.898 485.793C693.694 486.543 693.478 487.222 693.251 487.83C693.029 488.438 692.85 488.915 692.714 489.261H690.362C690.447 488.926 690.563 488.457 690.711 487.855C690.859 487.259 690.998 486.588 691.129 485.844C691.259 485.099 691.342 484.341 691.376 483.568L691.418 482.614H694.418ZM703.593 485.239C702.32 485.239 701.187 485.02 700.192 484.582C699.204 484.139 698.423 483.531 697.849 482.759C697.281 481.98 696.988 481.082 696.971 480.065H700.687C700.71 480.491 700.849 480.866 701.104 481.19C701.366 481.509 701.712 481.756 702.144 481.932C702.576 482.108 703.062 482.196 703.602 482.196C704.164 482.196 704.661 482.097 705.093 481.898C705.525 481.699 705.863 481.423 706.107 481.071C706.352 480.719 706.474 480.312 706.474 479.852C706.474 479.386 706.343 478.974 706.082 478.616C705.826 478.253 705.457 477.969 704.974 477.764C704.496 477.56 703.928 477.457 703.269 477.457H701.641V474.747H703.269C703.826 474.747 704.317 474.651 704.744 474.457C705.175 474.264 705.511 473.997 705.749 473.656C705.988 473.31 706.107 472.906 706.107 472.446C706.107 472.009 706.002 471.625 705.792 471.295C705.587 470.96 705.298 470.699 704.923 470.511C704.553 470.324 704.121 470.23 703.627 470.23C703.127 470.23 702.67 470.321 702.255 470.503C701.84 470.679 701.508 470.932 701.258 471.261C701.008 471.591 700.874 471.977 700.857 472.42H697.32C697.337 471.415 697.624 470.528 698.181 469.761C698.738 468.994 699.488 468.395 700.431 467.963C701.38 467.526 702.451 467.307 703.644 467.307C704.849 467.307 705.903 467.526 706.806 467.963C707.71 468.401 708.411 468.991 708.911 469.736C709.417 470.474 709.667 471.304 709.661 472.224C709.667 473.202 709.363 474.017 708.749 474.67C708.141 475.324 707.349 475.739 706.371 475.915V476.051C707.656 476.216 708.633 476.662 709.303 477.389C709.979 478.111 710.315 479.014 710.309 480.099C710.315 481.094 710.028 481.977 709.448 482.75C708.874 483.523 708.082 484.131 707.07 484.574C706.059 485.017 704.9 485.239 703.593 485.239ZM719.661 485.239C718.763 485.233 717.896 485.082 717.061 484.787C716.232 484.491 715.487 484.011 714.828 483.347C714.169 482.682 713.646 481.801 713.26 480.705C712.879 479.608 712.689 478.261 712.689 476.665C712.695 475.199 712.862 473.889 713.192 472.736C713.527 471.577 714.004 470.594 714.624 469.787C715.249 468.98 715.996 468.366 716.865 467.946C717.734 467.52 718.709 467.307 719.788 467.307C720.953 467.307 721.982 467.534 722.874 467.989C723.766 468.437 724.482 469.048 725.021 469.821C725.567 470.594 725.896 471.46 726.01 472.42H722.371C722.229 471.812 721.93 471.335 721.476 470.989C721.021 470.642 720.459 470.469 719.788 470.469C718.652 470.469 717.788 470.963 717.197 471.952C716.612 472.94 716.314 474.284 716.303 475.983H716.422C716.683 475.466 717.036 475.026 717.479 474.662C717.928 474.293 718.436 474.011 719.004 473.818C719.578 473.619 720.183 473.52 720.82 473.52C721.854 473.52 722.774 473.764 723.581 474.253C724.388 474.736 725.024 475.401 725.49 476.247C725.956 477.094 726.189 478.062 726.189 479.153C726.189 480.335 725.913 481.386 725.362 482.307C724.817 483.227 724.053 483.949 723.07 484.472C722.092 484.989 720.956 485.244 719.661 485.239ZM719.643 482.341C720.212 482.341 720.72 482.205 721.169 481.932C721.618 481.659 721.97 481.29 722.226 480.824C722.482 480.358 722.609 479.835 722.609 479.256C722.609 478.676 722.482 478.156 722.226 477.696C721.976 477.236 721.629 476.869 721.186 476.597C720.743 476.324 720.237 476.188 719.669 476.188C719.243 476.188 718.848 476.267 718.484 476.426C718.126 476.585 717.811 476.807 717.538 477.091C717.271 477.375 717.061 477.705 716.908 478.08C716.754 478.449 716.678 478.844 716.678 479.264C716.678 479.827 716.805 480.341 717.061 480.807C717.322 481.273 717.675 481.645 718.118 481.923C718.567 482.202 719.075 482.341 719.643 482.341ZM735.649 485.384C734.183 485.378 732.922 485.017 731.865 484.301C730.814 483.585 730.004 482.548 729.436 481.19C728.874 479.832 728.595 478.199 728.601 476.29C728.601 474.386 728.882 472.764 729.445 471.423C730.013 470.082 730.822 469.062 731.874 468.364C732.93 467.659 734.189 467.307 735.649 467.307C737.109 467.307 738.365 467.659 739.416 468.364C740.473 469.068 741.286 470.091 741.854 471.432C742.422 472.767 742.703 474.386 742.697 476.29C742.697 478.205 742.413 479.841 741.845 481.199C741.283 482.557 740.476 483.594 739.425 484.31C738.374 485.026 737.115 485.384 735.649 485.384ZM735.649 482.324C736.649 482.324 737.447 481.821 738.044 480.815C738.641 479.81 738.936 478.301 738.93 476.29C738.93 474.966 738.794 473.864 738.521 472.983C738.254 472.102 737.874 471.44 737.379 470.997C736.891 470.554 736.314 470.332 735.649 470.332C734.655 470.332 733.859 470.83 733.263 471.824C732.666 472.818 732.365 474.307 732.359 476.29C732.359 477.631 732.493 478.75 732.76 479.648C733.033 480.54 733.416 481.21 733.911 481.659C734.405 482.102 734.984 482.324 735.649 482.324Z" fill="#30D5C8"/>
<path d="M768 488.167C774.443 488.167 779.667 482.943 779.667 476.5C779.667 470.056 774.443 464.833 768 464.833C761.556 464.833 756.333 470.056 756.333 476.5C756.333 482.943 761.556 488.167 768 488.167Z" stroke="#66F2C3" stroke-width="1.75" stroke-linecap="round" stroke-linejoin="round"/>
<path d="M771.5 472.417C770.701 471.617 769.294 471.062 768 471.027M768 471.027C766.46 470.985 765.083 471.682 765.083 473.583C765.083 477.083 771.5 475.333 771.5 478.833C771.5 480.829 769.792 481.687 768 481.623M768 471.027V468.917M764.5 480C765.251 481.003 766.65 481.575 768 481.623M768 481.623V484.083" stroke="#66F2C3" stroke-width="1.75" stroke-linecap="round" stroke-linejoin="round"/>
<path d="M809.5 470.667L802.5 477.667L797.833 473L788.5 482.333" stroke="#66F2C3" stroke-width="2.33333" stroke-linecap="round" stroke-linejoin="round"/>
<path d="M793.167 482.333H788.5V477.667" stroke="#66F2C3" stroke-width="2.33333" stroke-linecap="round" stroke-linejoin="round"/>
<path d="M138.432 744.727C138.432 746.295 138.138 747.637 137.551 748.754C136.969 749.867 136.173 750.719 135.165 751.311C134.161 751.903 133.022 752.199 131.749 752.199C130.475 752.199 129.334 751.903 128.325 751.311C127.321 750.714 126.526 749.86 125.939 748.747C125.357 747.63 125.065 746.29 125.065 744.727C125.065 743.16 125.357 741.82 125.939 740.707C126.526 739.59 127.321 738.735 128.325 738.143C129.334 737.552 130.475 737.256 131.749 737.256C133.022 737.256 134.161 737.552 135.165 738.143C136.173 738.735 136.969 739.59 137.551 740.707C138.138 741.82 138.432 743.16 138.432 744.727ZM135.783 744.727C135.783 743.624 135.61 742.694 135.264 741.936C134.923 741.174 134.45 740.598 133.844 740.21C133.238 739.817 132.539 739.621 131.749 739.621C130.958 739.621 130.259 739.817 129.653 740.21C129.047 740.598 128.571 741.174 128.226 741.936C127.885 742.694 127.714 743.624 127.714 744.727C127.714 745.83 127.885 746.763 128.226 747.526C128.571 748.283 129.047 748.858 129.653 749.251C130.259 749.64 130.958 749.834 131.749 749.834C132.539 749.834 133.238 749.64 133.844 749.251C134.45 748.858 134.923 748.283 135.264 747.526C135.61 746.763 135.783 745.83 135.783 744.727ZM146.257 741.091V743.08H139.985V741.091H146.257ZM141.534 738.477H144.105V748.719C144.105 749.064 144.157 749.33 144.261 749.514C144.37 749.694 144.512 749.817 144.687 749.884C144.862 749.95 145.056 749.983 145.27 749.983C145.431 749.983 145.577 749.971 145.71 749.947C145.847 749.924 145.951 749.902 146.022 749.884L146.456 751.893C146.318 751.941 146.122 751.993 145.866 752.05C145.615 752.107 145.307 752.14 144.943 752.149C144.299 752.168 143.719 752.071 143.203 751.858C142.687 751.64 142.277 751.304 141.974 750.849C141.676 750.395 141.529 749.827 141.534 749.145V738.477ZM151.212 745.608V752H148.641V737.455H151.156V742.945H151.283C151.539 742.329 151.934 741.844 152.469 741.489C153.009 741.129 153.696 740.949 154.529 740.949C155.287 740.949 155.947 741.107 156.511 741.425C157.074 741.742 157.51 742.206 157.817 742.817C158.13 743.428 158.286 744.173 158.286 745.054V752H155.715V745.452C155.715 744.718 155.526 744.147 155.147 743.74C154.773 743.328 154.247 743.122 153.57 743.122C153.116 743.122 152.709 743.222 152.349 743.42C151.994 743.615 151.714 743.896 151.511 744.266C151.312 744.635 151.212 745.082 151.212 745.608ZM165.737 752.213C164.643 752.213 163.698 751.986 162.903 751.531C162.112 751.072 161.504 750.423 161.077 749.585C160.651 748.742 160.438 747.75 160.438 746.609C160.438 745.487 160.651 744.502 161.077 743.655C161.508 742.803 162.11 742.14 162.881 741.666C163.653 741.188 164.56 740.949 165.602 740.949C166.274 740.949 166.908 741.058 167.505 741.276C168.106 741.489 168.637 741.82 169.096 742.27C169.56 742.72 169.924 743.293 170.19 743.989C170.455 744.68 170.587 745.504 170.587 746.46V747.249H161.646V745.516H168.123C168.118 745.023 168.012 744.585 167.803 744.202C167.595 743.813 167.304 743.508 166.93 743.286C166.56 743.063 166.129 742.952 165.637 742.952C165.112 742.952 164.65 743.08 164.252 743.335C163.854 743.586 163.544 743.918 163.322 744.33C163.104 744.737 162.993 745.184 162.988 745.672V747.185C162.988 747.819 163.104 748.364 163.336 748.818C163.568 749.268 163.892 749.614 164.309 749.855C164.726 750.092 165.213 750.21 165.772 750.21C166.146 750.21 166.485 750.158 166.788 750.054C167.091 749.945 167.353 749.786 167.576 749.578C167.799 749.37 167.967 749.112 168.08 748.804L170.481 749.074C170.329 749.708 170.04 750.262 169.614 750.736C169.193 751.205 168.653 751.569 167.995 751.83C167.337 752.085 166.584 752.213 165.737 752.213ZM172.762 752V741.091H175.255V742.909H175.369C175.568 742.279 175.909 741.794 176.392 741.453C176.879 741.107 177.436 740.935 178.061 740.935C178.203 740.935 178.361 740.942 178.537 740.956C178.717 740.965 178.866 740.982 178.984 741.006V743.371C178.875 743.333 178.702 743.3 178.466 743.271C178.234 743.238 178.009 743.222 177.791 743.222C177.322 743.222 176.901 743.323 176.527 743.527C176.157 743.726 175.866 744.003 175.653 744.358C175.44 744.713 175.333 745.123 175.333 745.587V752H172.762ZM188.828 752L184.723 737.455H187.556L190.177 748.143H190.312L193.11 737.455H195.689L198.494 748.151H198.622L201.243 737.455H204.076L199.971 752H197.372L194.46 741.794H194.346L191.427 752H188.828ZM207.816 752.22C207.124 752.22 206.502 752.097 205.948 751.851C205.399 751.6 204.963 751.231 204.641 750.743C204.324 750.255 204.165 749.654 204.165 748.939C204.165 748.323 204.279 747.814 204.506 747.412C204.733 747.009 205.043 746.688 205.436 746.446C205.829 746.205 206.272 746.022 206.765 745.899C207.262 745.771 207.775 745.679 208.306 745.622C208.945 745.556 209.463 745.497 209.861 745.445C210.259 745.388 210.548 745.303 210.728 745.189C210.912 745.071 211.005 744.888 211.005 744.642V744.599C211.005 744.064 210.846 743.65 210.529 743.357C210.212 743.063 209.755 742.916 209.158 742.916C208.528 742.916 208.029 743.054 207.659 743.328C207.295 743.603 207.049 743.927 206.921 744.301L204.52 743.96C204.71 743.297 205.022 742.743 205.458 742.298C205.893 741.848 206.426 741.512 207.056 741.29C207.685 741.062 208.382 740.949 209.144 740.949C209.669 740.949 210.193 741.01 210.713 741.134C211.234 741.257 211.71 741.46 212.141 741.744C212.572 742.024 212.917 742.405 213.178 742.888C213.443 743.371 213.576 743.974 213.576 744.699V752H211.104V750.501H211.019C210.863 750.804 210.642 751.089 210.358 751.354C210.079 751.614 209.726 751.825 209.3 751.986C208.879 752.142 208.384 752.22 207.816 752.22ZM208.483 750.331C208.999 750.331 209.447 750.229 209.826 750.026C210.204 749.817 210.496 749.543 210.699 749.202C210.908 748.861 211.012 748.489 211.012 748.087V746.801C210.931 746.867 210.794 746.929 210.6 746.986C210.41 747.043 210.197 747.092 209.961 747.135C209.724 747.178 209.489 747.215 209.257 747.249C209.025 747.282 208.824 747.31 208.654 747.334C208.27 747.386 207.927 747.471 207.624 747.589C207.321 747.708 207.082 747.874 206.907 748.087C206.731 748.295 206.644 748.565 206.644 748.896C206.644 749.37 206.817 749.727 207.162 749.969C207.508 750.21 207.948 750.331 208.483 750.331ZM216.161 752V741.091H218.654V742.909H218.767C218.966 742.279 219.307 741.794 219.79 741.453C220.278 741.107 220.834 740.935 221.459 740.935C221.601 740.935 221.76 740.942 221.935 740.956C222.115 740.965 222.264 740.982 222.382 741.006V743.371C222.274 743.333 222.101 743.3 221.864 743.271C221.632 743.238 221.407 743.222 221.189 743.222C220.721 743.222 220.299 743.323 219.925 743.527C219.556 743.726 219.265 744.003 219.051 744.358C218.838 744.713 218.732 745.123 218.732 745.587V752H216.161ZM228.471 752.213C227.377 752.213 226.433 751.986 225.637 751.531C224.846 751.072 224.238 750.423 223.812 749.585C223.386 748.742 223.173 747.75 223.173 746.609C223.173 745.487 223.386 744.502 223.812 743.655C224.243 742.803 224.844 742.14 225.616 741.666C226.388 741.188 227.294 740.949 228.336 740.949C229.008 740.949 229.643 741.058 230.239 741.276C230.841 741.489 231.371 741.82 231.83 742.27C232.294 742.72 232.659 743.293 232.924 743.989C233.189 744.68 233.322 745.504 233.322 746.46V747.249H224.38V745.516H230.857C230.853 745.023 230.746 744.585 230.538 744.202C230.329 743.813 230.038 743.508 229.664 743.286C229.295 743.063 228.864 742.952 228.371 742.952C227.846 742.952 227.384 743.08 226.987 743.335C226.589 743.586 226.279 743.918 226.056 744.33C225.838 744.737 225.727 745.184 225.722 745.672V747.185C225.722 747.819 225.838 748.364 226.07 748.818C226.302 749.268 226.627 749.614 227.043 749.855C227.46 750.092 227.948 750.21 228.506 750.21C228.88 750.21 229.219 750.158 229.522 750.054C229.825 749.945 230.088 749.786 230.31 749.578C230.533 749.37 230.701 749.112 230.815 748.804L233.215 749.074C233.064 749.708 232.775 750.262 232.349 750.736C231.927 751.205 231.388 751.569 230.729 751.83C230.071 752.085 229.318 752.213 228.471 752.213ZM238.068 745.608V752H235.497V737.455H238.011V742.945H238.139C238.395 742.329 238.79 741.844 239.325 741.489C239.865 741.129 240.551 740.949 241.385 740.949C242.142 740.949 242.803 741.107 243.366 741.425C243.93 741.742 244.365 742.206 244.673 742.817C244.985 743.428 245.142 744.173 245.142 745.054V752H242.571V745.452C242.571 744.718 242.381 744.147 242.002 743.74C241.628 743.328 241.103 743.122 240.426 743.122C239.971 743.122 239.564 743.222 239.204 743.42C238.849 743.615 238.57 743.896 238.366 744.266C238.167 744.635 238.068 745.082 238.068 745.608ZM252.521 752.213C251.456 752.213 250.532 751.979 249.751 751.51C248.97 751.041 248.364 750.385 247.933 749.543C247.507 748.7 247.294 747.715 247.294 746.588C247.294 745.461 247.507 744.474 247.933 743.626C248.364 742.779 248.97 742.121 249.751 741.652C250.532 741.183 251.456 740.949 252.521 740.949C253.586 740.949 254.51 741.183 255.291 741.652C256.072 742.121 256.676 742.779 257.102 743.626C257.533 744.474 257.748 745.461 257.748 746.588C257.748 747.715 257.533 748.7 257.102 749.543C256.676 750.385 256.072 751.041 255.291 751.51C254.51 751.979 253.586 752.213 252.521 752.213ZM252.535 750.153C253.113 750.153 253.596 749.995 253.984 749.678C254.372 749.356 254.661 748.925 254.85 748.385C255.045 747.845 255.142 747.244 255.142 746.581C255.142 745.913 255.045 745.31 254.85 744.77C254.661 744.225 254.372 743.792 253.984 743.47C253.596 743.148 253.113 742.987 252.535 742.987C251.943 742.987 251.451 743.148 251.058 743.47C250.67 743.792 250.378 744.225 250.184 744.77C249.995 745.31 249.9 745.913 249.9 746.581C249.9 747.244 249.995 747.845 250.184 748.385C250.378 748.925 250.67 749.356 251.058 749.678C251.451 749.995 251.943 750.153 252.535 750.153ZM266.884 747.412V741.091H269.455V752H266.962V750.061H266.848C266.602 750.672 266.197 751.171 265.634 751.56C265.075 751.948 264.386 752.142 263.567 752.142C262.852 752.142 262.22 751.983 261.67 751.666C261.126 751.344 260.7 750.878 260.392 750.267C260.084 749.652 259.93 748.908 259.93 748.037V741.091H262.501V747.639C262.501 748.33 262.691 748.88 263.07 749.287C263.448 749.694 263.946 749.898 264.561 749.898C264.94 749.898 265.307 749.805 265.662 749.621C266.017 749.436 266.308 749.161 266.536 748.797C266.768 748.428 266.884 747.966 266.884 747.412ZM280.721 743.974L278.377 744.23C278.31 743.993 278.194 743.771 278.029 743.562C277.868 743.354 277.65 743.186 277.375 743.058C277.101 742.93 276.765 742.866 276.367 742.866C275.832 742.866 275.382 742.982 275.017 743.214C274.658 743.446 274.48 743.747 274.485 744.116C274.48 744.434 274.596 744.692 274.833 744.891C275.074 745.089 275.472 745.253 276.026 745.381L277.887 745.778C278.919 746.001 279.686 746.354 280.188 746.837C280.694 747.32 280.95 747.952 280.955 748.733C280.95 749.42 280.749 750.026 280.351 750.551C279.958 751.072 279.411 751.479 278.711 751.773C278.01 752.066 277.205 752.213 276.296 752.213C274.961 752.213 273.886 751.934 273.071 751.375C272.257 750.812 271.772 750.028 271.615 749.024L274.123 748.783C274.236 749.275 274.478 749.647 274.847 749.898C275.216 750.149 275.697 750.274 276.289 750.274C276.9 750.274 277.39 750.149 277.759 749.898C278.133 749.647 278.32 749.337 278.32 748.967C278.32 748.655 278.199 748.397 277.958 748.193C277.721 747.99 277.352 747.833 276.85 747.724L274.989 747.334C273.943 747.116 273.168 746.749 272.667 746.233C272.165 745.712 271.916 745.054 271.921 744.259C271.916 743.586 272.098 743.004 272.468 742.511C272.842 742.014 273.36 741.631 274.023 741.361C274.691 741.086 275.46 740.949 276.331 740.949C277.61 740.949 278.616 741.221 279.35 741.766C280.088 742.31 280.545 743.046 280.721 743.974ZM287.904 752.213C286.811 752.213 285.866 751.986 285.071 751.531C284.28 751.072 283.672 750.423 283.245 749.585C282.819 748.742 282.606 747.75 282.606 746.609C282.606 745.487 282.819 744.502 283.245 743.655C283.676 742.803 284.278 742.14 285.049 741.666C285.821 741.188 286.728 740.949 287.77 740.949C288.442 740.949 289.076 741.058 289.673 741.276C290.274 741.489 290.805 741.82 291.264 742.27C291.728 742.72 292.092 743.293 292.358 743.989C292.623 744.68 292.755 745.504 292.755 746.46V747.249H283.814V745.516H290.291C290.286 745.023 290.18 744.585 289.971 744.202C289.763 743.813 289.472 743.508 289.098 743.286C288.728 743.063 288.297 742.952 287.805 742.952C287.279 742.952 286.818 743.08 286.42 743.335C286.022 743.586 285.712 743.918 285.49 744.33C285.272 744.737 285.161 745.184 285.156 745.672V747.185C285.156 747.819 285.272 748.364 285.504 748.818C285.736 749.268 286.06 749.614 286.477 749.855C286.894 750.092 287.381 750.21 287.94 750.21C288.314 750.21 288.653 750.158 288.956 750.054C289.259 749.945 289.521 749.786 289.744 749.578C289.967 749.37 290.135 749.112 290.248 748.804L292.649 749.074C292.497 749.708 292.208 750.262 291.782 750.736C291.361 751.205 290.821 751.569 290.163 751.83C289.505 752.085 288.752 752.213 287.904 752.213ZM300.868 736.773L296.18 754.188H293.929L298.616 736.773H300.868ZM312.512 752H307.583V737.455H312.612C314.056 737.455 315.296 737.746 316.333 738.328C317.375 738.906 318.175 739.737 318.734 740.821C319.292 741.905 319.572 743.203 319.572 744.713C319.572 746.228 319.29 747.53 318.727 748.619C318.168 749.708 317.361 750.544 316.305 751.126C315.254 751.709 313.989 752 312.512 752ZM310.218 749.72H312.384C313.397 749.72 314.243 749.536 314.92 749.166C315.597 748.792 316.106 748.236 316.447 747.497C316.788 746.754 316.958 745.826 316.958 744.713C316.958 743.6 316.788 742.677 316.447 741.943C316.106 741.205 315.602 740.653 314.934 740.288C314.271 739.919 313.447 739.734 312.462 739.734H310.218V749.72ZM325.101 752.22C324.41 752.22 323.787 752.097 323.233 751.851C322.684 751.6 322.248 751.231 321.926 750.743C321.609 750.255 321.45 749.654 321.45 748.939C321.45 748.323 321.564 747.814 321.791 747.412C322.018 747.009 322.329 746.688 322.722 746.446C323.115 746.205 323.557 746.022 324.05 745.899C324.547 745.771 325.061 745.679 325.591 745.622C326.23 745.556 326.749 745.497 327.146 745.445C327.544 745.388 327.833 745.303 328.013 745.189C328.197 745.071 328.29 744.888 328.29 744.642V744.599C328.29 744.064 328.131 743.65 327.814 743.357C327.497 743.063 327.04 742.916 326.443 742.916C325.813 742.916 325.314 743.054 324.945 743.328C324.58 743.603 324.334 743.927 324.206 744.301L321.805 743.96C321.995 743.297 322.307 742.743 322.743 742.298C323.179 741.848 323.711 741.512 324.341 741.29C324.971 741.062 325.667 740.949 326.429 740.949C326.955 740.949 327.478 741.01 327.999 741.134C328.519 741.257 328.995 741.46 329.426 741.744C329.857 742.024 330.203 742.405 330.463 742.888C330.728 743.371 330.861 743.974 330.861 744.699V752H328.389V750.501H328.304C328.148 750.804 327.928 751.089 327.643 751.354C327.364 751.614 327.011 751.825 326.585 751.986C326.164 752.142 325.669 752.22 325.101 752.22ZM325.768 750.331C326.285 750.331 326.732 750.229 327.111 750.026C327.49 749.817 327.781 749.543 327.984 749.202C328.193 748.861 328.297 748.489 328.297 748.087V746.801C328.216 746.867 328.079 746.929 327.885 746.986C327.696 747.043 327.482 747.092 327.246 747.135C327.009 747.178 326.775 747.215 326.543 747.249C326.311 747.282 326.109 747.31 325.939 747.334C325.555 747.386 325.212 747.471 324.909 747.589C324.606 747.708 324.367 747.874 324.192 748.087C324.017 748.295 323.929 748.565 323.929 748.896C323.929 749.37 324.102 749.727 324.447 749.969C324.793 750.21 325.233 750.331 325.768 750.331ZM338.893 741.091V743.08H332.622V741.091H338.893ZM334.17 738.477H336.741V748.719C336.741 749.064 336.794 749.33 336.898 749.514C337.007 749.694 337.149 749.817 337.324 749.884C337.499 749.95 337.693 749.983 337.906 749.983C338.067 749.983 338.214 749.971 338.347 749.947C338.484 749.924 338.588 749.902 338.659 749.884L339.092 751.893C338.955 751.941 338.759 751.993 338.503 752.05C338.252 752.107 337.944 752.14 337.58 752.149C336.936 752.168 336.356 752.071 335.839 751.858C335.323 751.64 334.914 751.304 334.611 750.849C334.313 750.395 334.166 749.827 334.17 749.145V738.477ZM344.183 752.22C343.492 752.22 342.869 752.097 342.315 751.851C341.766 751.6 341.33 751.231 341.008 750.743C340.691 750.255 340.532 749.654 340.532 748.939C340.532 748.323 340.646 747.814 340.873 747.412C341.1 747.009 341.411 746.688 341.804 746.446C342.197 746.205 342.639 746.022 343.132 745.899C343.629 745.771 344.143 745.679 344.673 745.622C345.312 745.556 345.831 745.497 346.228 745.445C346.626 745.388 346.915 745.303 347.095 745.189C347.279 745.071 347.372 744.888 347.372 744.642V744.599C347.372 744.064 347.213 743.65 346.896 743.357C346.579 743.063 346.122 742.916 345.525 742.916C344.895 742.916 344.396 743.054 344.027 743.328C343.662 743.603 343.416 743.927 343.288 744.301L340.887 743.96C341.077 743.297 341.389 742.743 341.825 742.298C342.261 741.848 342.793 741.512 343.423 741.29C344.053 741.062 344.749 740.949 345.511 740.949C346.037 740.949 346.56 741.01 347.081 741.134C347.601 741.257 348.077 741.46 348.508 741.744C348.939 742.024 349.285 742.405 349.545 742.888C349.81 743.371 349.943 743.974 349.943 744.699V752H347.471V750.501H347.386C347.23 750.804 347.01 751.089 346.725 751.354C346.446 751.614 346.093 751.825 345.667 751.986C345.246 752.142 344.751 752.22 344.183 752.22ZM344.85 750.331C345.367 750.331 345.814 750.229 346.193 750.026C346.572 749.817 346.863 749.543 347.066 749.202C347.275 748.861 347.379 748.489 347.379 748.087V746.801C347.298 746.867 347.161 746.929 346.967 746.986C346.778 747.043 346.565 747.092 346.328 747.135C346.091 747.178 345.857 747.215 345.625 747.249C345.393 747.282 345.191 747.31 345.021 747.334C344.637 747.386 344.294 747.471 343.991 747.589C343.688 747.708 343.449 747.874 343.274 748.087C343.099 748.295 343.011 748.565 343.011 748.896C343.011 749.37 343.184 749.727 343.529 749.969C343.875 750.21 344.315 750.331 344.85 750.331ZM357.603 752V737.455H360.238V749.791H366.644V752H357.603ZM371.956 752.22C371.265 752.22 370.642 752.097 370.088 751.851C369.539 751.6 369.104 751.231 368.782 750.743C368.464 750.255 368.306 749.654 368.306 748.939C368.306 748.323 368.419 747.814 368.647 747.412C368.874 747.009 369.184 746.688 369.577 746.446C369.97 746.205 370.413 746.022 370.905 745.899C371.402 745.771 371.916 745.679 372.446 745.622C373.086 745.556 373.604 745.497 374.002 745.445C374.4 745.388 374.688 745.303 374.868 745.189C375.053 745.071 375.145 744.888 375.145 744.642V744.599C375.145 744.064 374.987 743.65 374.669 743.357C374.352 743.063 373.895 742.916 373.299 742.916C372.669 742.916 372.169 743.054 371.8 743.328C371.435 743.603 371.189 743.927 371.061 744.301L368.661 743.96C368.85 743.297 369.163 742.743 369.598 742.298C370.034 741.848 370.567 741.512 371.196 741.29C371.826 741.062 372.522 740.949 373.284 740.949C373.81 740.949 374.333 741.01 374.854 741.134C375.375 741.257 375.851 741.46 376.282 741.744C376.712 742.024 377.058 742.405 377.319 742.888C377.584 743.371 377.716 743.974 377.716 744.699V752H375.245V750.501H375.159C375.003 750.804 374.783 751.089 374.499 751.354C374.22 751.614 373.867 751.825 373.441 751.986C373.019 752.142 372.525 752.22 371.956 752.22ZM372.624 750.331C373.14 750.331 373.587 750.229 373.966 750.026C374.345 749.817 374.636 749.543 374.84 749.202C375.048 748.861 375.152 748.489 375.152 748.087V746.801C375.072 746.867 374.935 746.929 374.74 746.986C374.551 747.043 374.338 747.092 374.101 747.135C373.864 747.178 373.63 747.215 373.398 747.249C373.166 747.282 372.965 747.31 372.794 747.334C372.411 747.386 372.068 747.471 371.765 747.589C371.462 747.708 371.222 747.874 371.047 748.087C370.872 748.295 370.784 748.565 370.784 748.896C370.784 749.37 370.957 749.727 371.303 749.969C371.649 750.21 372.089 750.331 372.624 750.331ZM382.645 748.577L382.638 745.473H383.05L386.971 741.091H389.975L385.152 746.46H384.62L382.645 748.577ZM380.301 752V737.455H382.873V752H380.301ZM387.148 752L383.597 747.036L385.33 745.224L390.223 752H387.148ZM396.069 752.213C394.975 752.213 394.03 751.986 393.235 751.531C392.444 751.072 391.836 750.423 391.409 749.585C390.983 748.742 390.77 747.75 390.77 746.609C390.77 745.487 390.983 744.502 391.409 743.655C391.84 742.803 392.442 742.14 393.213 741.666C393.985 741.188 394.892 740.949 395.934 740.949C396.606 740.949 397.24 741.058 397.837 741.276C398.438 741.489 398.969 741.82 399.428 742.27C399.892 742.72 400.257 743.293 400.522 743.989C400.787 744.68 400.919 745.504 400.919 746.46V747.249H391.978V745.516H398.455C398.45 745.023 398.344 744.585 398.135 744.202C397.927 743.813 397.636 743.508 397.262 743.286C396.892 743.063 396.462 742.952 395.969 742.952C395.444 742.952 394.982 743.08 394.584 743.335C394.186 743.586 393.876 743.918 393.654 744.33C393.436 744.737 393.325 745.184 393.32 745.672V747.185C393.32 747.819 393.436 748.364 393.668 748.818C393.9 749.268 394.224 749.614 394.641 749.855C395.058 750.092 395.545 750.21 396.104 750.21C396.478 750.21 396.817 750.158 397.12 750.054C397.423 749.945 397.685 749.786 397.908 749.578C398.131 749.37 398.299 749.112 398.412 748.804L400.813 749.074C400.661 749.708 400.373 750.262 399.946 750.736C399.525 751.205 398.985 751.569 398.327 751.83C397.669 752.085 396.916 752.213 396.069 752.213ZM405.665 745.608V752H403.094V737.455H405.609V742.945H405.737C405.992 742.329 406.388 741.844 406.923 741.489C407.462 741.129 408.149 740.949 408.982 740.949C409.74 740.949 410.4 741.107 410.964 741.425C411.527 741.742 411.963 742.206 412.271 742.817C412.583 743.428 412.739 744.173 412.739 745.054V752H410.168V745.452C410.168 744.718 409.979 744.147 409.6 743.74C409.226 743.328 408.701 743.122 408.023 743.122C407.569 743.122 407.162 743.222 406.802 743.42C406.447 743.615 406.167 743.896 405.964 744.266C405.765 744.635 405.665 745.082 405.665 745.608ZM420.119 752.213C419.053 752.213 418.13 751.979 417.349 751.51C416.567 751.041 415.961 750.385 415.531 749.543C415.104 748.7 414.891 747.715 414.891 746.588C414.891 745.461 415.104 744.474 415.531 743.626C415.961 742.779 416.567 742.121 417.349 741.652C418.13 741.183 419.053 740.949 420.119 740.949C421.184 740.949 422.107 741.183 422.888 741.652C423.67 742.121 424.273 742.779 424.7 743.626C425.13 744.474 425.346 745.461 425.346 746.588C425.346 747.715 425.13 748.7 424.7 749.543C424.273 750.385 423.67 751.041 422.888 751.51C422.107 751.979 421.184 752.213 420.119 752.213ZM420.133 750.153C420.71 750.153 421.193 749.995 421.582 749.678C421.97 749.356 422.259 748.925 422.448 748.385C422.642 747.845 422.739 747.244 422.739 746.581C422.739 745.913 422.642 745.31 422.448 744.77C422.259 744.225 421.97 743.792 421.582 743.47C421.193 743.148 420.71 742.987 420.133 742.987C419.541 742.987 419.049 743.148 418.656 743.47C418.267 743.792 417.976 744.225 417.782 744.77C417.593 745.31 417.498 745.913 417.498 746.581C417.498 747.244 417.593 747.845 417.782 748.385C417.976 748.925 418.267 749.356 418.656 749.678C419.049 749.995 419.541 750.153 420.133 750.153ZM434.481 747.412V741.091H437.052V752H434.559V750.061H434.446C434.199 750.672 433.795 751.171 433.231 751.56C432.672 751.948 431.984 752.142 431.164 752.142C430.449 752.142 429.817 751.983 429.268 751.666C428.724 751.344 428.297 750.878 427.99 750.267C427.682 749.652 427.528 748.908 427.528 748.037V741.091H430.099V747.639C430.099 748.33 430.288 748.88 430.667 749.287C431.046 749.694 431.543 749.898 432.159 749.898C432.538 749.898 432.904 749.805 433.26 749.621C433.615 749.436 433.906 749.161 434.133 748.797C434.365 748.428 434.481 747.966 434.481 747.412ZM448.318 743.974L445.974 744.23C445.908 743.993 445.792 743.771 445.626 743.562C445.465 743.354 445.248 743.186 444.973 743.058C444.698 742.93 444.362 742.866 443.964 742.866C443.429 742.866 442.98 742.982 442.615 743.214C442.255 743.446 442.078 743.747 442.082 744.116C442.078 744.434 442.194 744.692 442.43 744.891C442.672 745.089 443.07 745.253 443.624 745.381L445.484 745.778C446.517 746.001 447.284 746.354 447.786 746.837C448.292 747.32 448.548 747.952 448.553 748.733C448.548 749.42 448.347 750.026 447.949 750.551C447.556 751.072 447.009 751.479 446.308 751.773C445.607 752.066 444.803 752.213 443.893 752.213C442.558 752.213 441.483 751.934 440.669 751.375C439.855 750.812 439.369 750.028 439.213 749.024L441.72 748.783C441.834 749.275 442.075 749.647 442.445 749.898C442.814 750.149 443.295 750.274 443.886 750.274C444.497 750.274 444.987 750.149 445.357 749.898C445.731 749.647 445.918 749.337 445.918 748.967C445.918 748.655 445.797 748.397 445.555 748.193C445.319 747.99 444.949 747.833 444.447 747.724L442.587 747.334C441.54 747.116 440.766 746.749 440.264 746.233C439.762 745.712 439.514 745.054 439.518 744.259C439.514 743.586 439.696 743.004 440.065 742.511C440.439 742.014 440.958 741.631 441.621 741.361C442.288 741.086 443.058 740.949 443.929 740.949C445.207 740.949 446.214 741.221 446.947 741.766C447.686 742.31 448.143 743.046 448.318 743.974ZM455.502 752.213C454.408 752.213 453.464 751.986 452.668 751.531C451.878 751.072 451.269 750.423 450.843 749.585C450.417 748.742 450.204 747.75 450.204 746.609C450.204 745.487 450.417 744.502 450.843 743.655C451.274 742.803 451.875 742.14 452.647 741.666C453.419 741.188 454.326 740.949 455.367 740.949C456.04 740.949 456.674 741.058 457.271 741.276C457.872 741.489 458.402 741.82 458.862 742.27C459.326 742.72 459.69 743.293 459.955 743.989C460.22 744.68 460.353 745.504 460.353 746.46V747.249H451.411V745.516H457.888C457.884 745.023 457.777 744.585 457.569 744.202C457.361 743.813 457.069 743.508 456.695 743.286C456.326 743.063 455.895 742.952 455.403 742.952C454.877 742.952 454.415 743.08 454.018 743.335C453.62 743.586 453.31 743.918 453.087 744.33C452.87 744.737 452.758 745.184 452.754 745.672V747.185C452.754 747.819 452.87 748.364 453.102 748.818C453.334 749.268 453.658 749.614 454.075 749.855C454.491 750.092 454.979 750.21 455.538 750.21C455.912 750.21 456.25 750.158 456.553 750.054C456.856 749.945 457.119 749.786 457.342 749.578C457.564 749.37 457.732 749.112 457.846 748.804L460.246 749.074C460.095 749.708 459.806 750.262 459.38 750.736C458.959 751.205 458.419 751.569 457.761 751.83C457.103 752.085 456.35 752.213 455.502 752.213Z" fill="#CDDAED"/>
<path d="M784.956 756.363L777.9 742.564L776.131 743.409L781.406 753.725C781.584 753.992 781.183 753.937 781.183 753.937C775.074 753.87 772.603 747.627 772.603 747.627L775.497 742.052L780.56 739.904L775.886 738.546L771.479 730L767.061 738.591L762.41 739.904L767.596 742.119L770.378 747.694C767.039 754.438 761.809 753.97 761.809 753.97C761.442 753.992 761.575 753.792 761.575 753.792L766.828 743.409L765.125 742.541L757.958 756.574H762.721C768.608 756.574 771.346 750.053 771.346 750.053C771.468 749.73 771.591 750.098 771.591 750.098C774.784 756.596 779.436 756.574 779.436 756.574H784.777C785.134 756.585 784.956 756.363 784.956 756.363ZM771.513 745.457L768.675 739.926L771.49 734.396L774.35 739.926L771.513 745.457Z" fill="url(#paint14_linear_256_5733)"/>
<path d="M674.264 750.165L673.04 754.583H669L674.264 737.367H679.371L684.713 754.583H680.529L679.205 750.165H674.264ZM678.637 747.26L677.569 743.61C677.257 742.586 676.957 741.307 676.701 740.294H676.645C676.389 741.318 676.133 742.62 675.855 743.61L674.831 747.26H678.637Z" fill="white"/>
<path d="M690.611 747.361H690.667C690.945 746.849 691.256 746.337 691.557 745.858L694.083 742.108H698.757L694.283 747.16L699.391 754.594H694.617L691.601 749.464L690.6 750.688V754.594H686.727V736.455H690.611V747.361Z" fill="white"/>
<path d="M711.11 751.545C711.11 752.747 711.165 753.893 711.288 754.583H707.793L707.56 753.326H707.482C706.669 754.327 705.39 754.861 703.91 754.861C701.384 754.861 699.87 753.025 699.87 751.033C699.87 747.784 702.786 746.237 707.204 746.259V746.081C707.204 745.413 706.848 744.467 704.933 744.467C703.654 744.467 702.307 744.901 701.484 745.413L700.772 742.91C701.64 742.42 703.353 741.808 705.623 741.808C709.785 741.808 711.11 744.256 711.11 747.194V751.545ZM707.326 748.685C705.278 748.663 703.698 749.141 703.698 750.655C703.698 751.656 704.366 752.135 705.234 752.135C706.202 752.135 706.992 751.5 707.248 750.699C707.304 750.499 707.326 750.265 707.326 750.032V748.685Z" fill="white"/>
<path d="M714.146 751.189C714.858 751.623 716.339 752.135 717.496 752.135C718.675 752.135 719.154 751.723 719.154 751.089C719.154 750.454 718.776 750.143 717.318 749.653C714.736 748.785 713.746 747.383 713.768 745.925C713.768 743.577 715.76 741.808 718.853 741.808C720.311 741.808 721.613 742.142 722.381 742.52L721.691 745.202C721.135 744.89 720.055 744.49 718.987 744.49C718.041 744.49 717.507 744.868 717.507 745.514C717.507 746.103 717.997 746.404 719.521 746.949C721.891 747.761 722.893 748.963 722.915 750.799C722.915 753.125 721.079 754.861 717.496 754.861C715.86 754.861 714.402 754.483 713.456 753.971L714.146 751.189Z" fill="white"/>
<path d="M725.254 736.455H729.138V743.577H729.193C729.605 743.043 730.117 742.609 730.729 742.297C731.319 741.986 732.031 741.808 732.743 741.808C735.225 741.808 737.105 743.521 737.105 747.272V754.572H733.222V747.706C733.222 746.07 732.665 744.946 731.207 744.946C730.184 744.946 729.549 745.614 729.271 746.304C729.171 746.559 729.138 746.893 729.138 747.172V754.583H725.254V736.455Z" fill="white"/>
<path d="M749.4 754.583L747.842 751.467C747.208 750.265 746.796 749.375 746.307 748.373H746.251C745.895 749.363 745.461 750.265 744.927 751.467L743.491 754.583H739.051L744.025 745.869L739.229 737.367H743.703L745.205 740.505C745.717 741.551 746.095 742.397 746.507 743.365H746.563C746.974 742.264 747.308 741.496 747.742 740.505L749.2 737.367H753.64L748.788 745.769L753.896 754.583H749.4Z" fill="white"/>
<path d="M650.524 310.179V291.435H643.132V287.079H663.262V291.435H655.87V310.179H650.524ZM676.871 310.575C675.089 310.575 673.428 310.289 671.888 309.717C670.37 309.123 669.05 308.287 667.928 307.209C666.806 306.131 665.926 304.866 665.288 303.414C664.672 301.962 664.364 300.367 664.364 298.629C664.364 296.891 664.672 295.296 665.288 293.844C665.926 292.392 666.806 291.127 667.928 290.049C669.072 288.971 670.403 288.146 671.921 287.574C673.439 286.98 675.1 286.683 676.904 286.683C678.906 286.683 680.71 287.035 682.316 287.739C683.944 288.421 685.308 289.433 686.408 290.775L682.976 293.943C682.184 293.041 681.304 292.37 680.336 291.93C679.368 291.468 678.312 291.237 677.168 291.237C676.09 291.237 675.1 291.413 674.198 291.765C673.296 292.117 672.515 292.623 671.855 293.283C671.195 293.943 670.678 294.724 670.304 295.626C669.952 296.528 669.776 297.529 669.776 298.629C669.776 299.729 669.952 300.73 670.304 301.632C670.678 302.534 671.195 303.315 671.855 303.975C672.515 304.635 673.296 305.141 674.198 305.493C675.1 305.845 676.09 306.021 677.168 306.021C678.312 306.021 679.368 305.801 680.336 305.361C681.304 304.899 682.184 304.206 682.976 303.282L686.408 306.45C685.308 307.792 683.944 308.815 682.316 309.519C680.71 310.223 678.895 310.575 676.871 310.575ZM700.755 310.575C698.929 310.575 697.235 310.278 695.673 309.684C694.133 309.09 692.791 308.254 691.647 307.176C690.525 306.098 689.645 304.833 689.007 303.381C688.391 301.929 688.083 300.345 688.083 298.629C688.083 296.913 688.391 295.329 689.007 293.877C689.645 292.425 690.536 291.16 691.68 290.082C692.824 289.004 694.166 288.168 695.706 287.574C697.246 286.98 698.918 286.683 700.722 286.683C702.548 286.683 704.22 286.98 705.738 287.574C707.278 288.168 708.609 289.004 709.731 290.082C710.875 291.16 711.766 292.425 712.404 293.877C713.042 295.307 713.361 296.891 713.361 298.629C713.361 300.345 713.042 301.94 712.404 303.414C711.766 304.866 710.875 306.131 709.731 307.209C708.609 308.265 707.278 309.09 705.738 309.684C704.22 310.278 702.559 310.575 700.755 310.575ZM700.722 306.021C701.756 306.021 702.702 305.845 703.56 305.493C704.44 305.141 705.21 304.635 705.87 303.975C706.53 303.315 707.036 302.534 707.388 301.632C707.762 300.73 707.949 299.729 707.949 298.629C707.949 297.529 707.762 296.528 707.388 295.626C707.036 294.724 706.53 293.943 705.87 293.283C705.232 292.623 704.473 292.117 703.593 291.765C702.713 291.413 701.756 291.237 700.722 291.237C699.688 291.237 698.731 291.413 697.851 291.765C696.993 292.117 696.234 292.623 695.574 293.283C694.914 293.943 694.397 294.724 694.023 295.626C693.671 296.528 693.495 297.529 693.495 298.629C693.495 299.707 693.671 300.708 694.023 301.632C694.397 302.534 694.903 303.315 695.541 303.975C696.201 304.635 696.971 305.141 697.851 305.493C698.731 305.845 699.688 306.021 700.722 306.021ZM726.724 310.179V287.079H736.723C738.791 287.079 740.573 287.42 742.069 288.102C743.565 288.762 744.72 289.719 745.534 290.973C746.348 292.227 746.755 293.723 746.755 295.461C746.755 297.177 746.348 298.662 745.534 299.916C744.72 301.148 743.565 302.094 742.069 302.754C740.573 303.414 738.791 303.744 736.723 303.744H729.694L732.07 301.401V310.179H726.724ZM741.409 310.179L735.634 301.797H741.343L747.184 310.179H741.409ZM732.07 301.995L729.694 299.487H736.426C738.076 299.487 739.308 299.135 740.122 298.431C740.936 297.705 741.343 296.715 741.343 295.461C741.343 294.185 740.936 293.195 740.122 292.491C739.308 291.787 738.076 291.435 736.426 291.435H729.694L732.07 288.894V301.995ZM759.439 310.443C757.415 310.443 755.633 310.047 754.093 309.255C752.575 308.463 751.398 307.385 750.562 306.021C749.726 304.635 749.308 303.062 749.308 301.302C749.308 299.52 749.715 297.947 750.529 296.583C751.365 295.197 752.498 294.119 753.928 293.349C755.358 292.557 756.975 292.161 758.779 292.161C760.517 292.161 762.079 292.535 763.465 293.283C764.873 294.009 765.984 295.065 766.798 296.451C767.612 297.815 768.019 299.454 768.019 301.368C768.019 301.566 768.008 301.797 767.986 302.061C767.964 302.303 767.942 302.534 767.92 302.754H753.499V299.751H765.214L763.234 300.642C763.234 299.718 763.047 298.915 762.673 298.233C762.299 297.551 761.782 297.023 761.122 296.649C760.462 296.253 759.692 296.055 758.812 296.055C757.932 296.055 757.151 296.253 756.469 296.649C755.809 297.023 755.292 297.562 754.918 298.266C754.544 298.948 754.357 299.762 754.357 300.708V301.5C754.357 302.468 754.566 303.326 754.984 304.074C755.424 304.8 756.029 305.361 756.799 305.757C757.591 306.131 758.515 306.318 759.571 306.318C760.517 306.318 761.342 306.175 762.046 305.889C762.772 305.603 763.432 305.174 764.026 304.602L766.765 307.572C765.951 308.496 764.928 309.211 763.696 309.717C762.464 310.201 761.045 310.443 759.439 310.443ZM779.069 310.443C777.397 310.443 775.89 310.069 774.548 309.321C773.206 308.551 772.139 307.484 771.347 306.12C770.577 304.756 770.192 303.15 770.192 301.302C770.192 299.432 770.577 297.815 771.347 296.451C772.139 295.087 773.206 294.031 774.548 293.283C775.89 292.535 777.397 292.161 779.069 292.161C780.565 292.161 781.874 292.491 782.996 293.151C784.118 293.811 784.987 294.812 785.603 296.154C786.219 297.496 786.527 299.212 786.527 301.302C786.527 303.37 786.23 305.086 785.636 306.45C785.042 307.792 784.184 308.793 783.062 309.453C781.962 310.113 780.631 310.443 779.069 310.443ZM779.96 306.219C780.796 306.219 781.555 306.021 782.237 305.625C782.919 305.229 783.458 304.668 783.854 303.942C784.272 303.194 784.481 302.314 784.481 301.302C784.481 300.268 784.272 299.388 783.854 298.662C783.458 297.936 782.919 297.375 782.237 296.979C781.555 296.583 780.796 296.385 779.96 296.385C779.102 296.385 778.332 296.583 777.65 296.979C776.968 297.375 776.418 297.936 776 298.662C775.604 299.388 775.406 300.268 775.406 301.302C775.406 302.314 775.604 303.194 776 303.942C776.418 304.668 776.968 305.229 777.65 305.625C778.332 306.021 779.102 306.219 779.96 306.219ZM784.613 310.179V306.549L784.712 301.269L784.382 296.022V285.693H789.53V310.179H784.613ZM801.786 310.443C800.312 310.443 798.992 310.157 797.826 309.585C796.682 309.013 795.791 308.144 795.153 306.978C794.515 305.79 794.196 304.283 794.196 302.457V292.425H799.344V301.698C799.344 303.172 799.652 304.261 800.268 304.965C800.906 305.647 801.797 305.988 802.941 305.988C803.733 305.988 804.437 305.823 805.053 305.493C805.669 305.141 806.153 304.613 806.505 303.909C806.857 303.183 807.033 302.281 807.033 301.203V292.425H812.181V310.179H807.297V305.295L808.188 306.714C807.594 307.946 806.714 308.881 805.548 309.519C804.404 310.135 803.15 310.443 801.786 310.443ZM825.53 310.443C823.616 310.443 821.911 310.058 820.415 309.288C818.919 308.496 817.742 307.407 816.884 306.021C816.048 304.635 815.63 303.062 815.63 301.302C815.63 299.52 816.048 297.947 816.884 296.583C817.742 295.197 818.919 294.119 820.415 293.349C821.911 292.557 823.616 292.161 825.53 292.161C827.4 292.161 829.028 292.557 830.414 293.349C831.8 294.119 832.823 295.23 833.483 296.682L829.49 298.827C829.028 297.991 828.445 297.375 827.741 296.979C827.059 296.583 826.311 296.385 825.497 296.385C824.617 296.385 823.825 296.583 823.121 296.979C822.417 297.375 821.856 297.936 821.438 298.662C821.042 299.388 820.844 300.268 820.844 301.302C820.844 302.336 821.042 303.216 821.438 303.942C821.856 304.668 822.417 305.229 823.121 305.625C823.825 306.021 824.617 306.219 825.497 306.219C826.311 306.219 827.059 306.032 827.741 305.658C828.445 305.262 829.028 304.635 829.49 303.777L833.483 305.955C832.823 307.385 831.8 308.496 830.414 309.288C829.028 310.058 827.4 310.443 825.53 310.443ZM843.965 310.443C841.875 310.443 840.247 309.915 839.081 308.859C837.915 307.781 837.332 306.186 837.332 304.074V288.498H842.48V304.008C842.48 304.756 842.678 305.339 843.074 305.757C843.47 306.153 844.009 306.351 844.691 306.351C845.505 306.351 846.198 306.131 846.77 305.691L848.156 309.321C847.628 309.695 846.99 309.981 846.242 310.179C845.516 310.355 844.757 310.443 843.965 310.443ZM834.593 296.781V292.821H846.902V296.781H834.593ZM851.046 310.179V292.425H856.194V310.179H851.046ZM853.62 289.95C852.674 289.95 851.904 289.675 851.31 289.125C850.716 288.575 850.419 287.893 850.419 287.079C850.419 286.265 850.716 285.583 851.31 285.033C851.904 284.483 852.674 284.208 853.62 284.208C854.566 284.208 855.336 284.472 855.93 285C856.524 285.506 856.821 286.166 856.821 286.98C856.821 287.838 856.524 288.553 855.93 289.125C855.358 289.675 854.588 289.95 853.62 289.95ZM869.42 310.443C867.528 310.443 865.845 310.047 864.371 309.255C862.919 308.463 861.764 307.385 860.906 306.021C860.07 304.635 859.652 303.062 859.652 301.302C859.652 299.52 860.07 297.947 860.906 296.583C861.764 295.197 862.919 294.119 864.371 293.349C865.845 292.557 867.528 292.161 869.42 292.161C871.29 292.161 872.962 292.557 874.436 293.349C875.91 294.119 877.065 295.186 877.901 296.55C878.737 297.914 879.155 299.498 879.155 301.302C879.155 303.062 878.737 304.635 877.901 306.021C877.065 307.385 875.91 308.463 874.436 309.255C872.962 310.047 871.29 310.443 869.42 310.443ZM869.42 306.219C870.278 306.219 871.048 306.021 871.73 305.625C872.412 305.229 872.951 304.668 873.347 303.942C873.743 303.194 873.941 302.314 873.941 301.302C873.941 300.268 873.743 299.388 873.347 298.662C872.951 297.936 872.412 297.375 871.73 296.979C871.048 296.583 870.278 296.385 869.42 296.385C868.562 296.385 867.792 296.583 867.11 296.979C866.428 297.375 865.878 297.936 865.46 298.662C865.064 299.388 864.866 300.268 864.866 301.302C864.866 302.314 865.064 303.194 865.46 303.942C865.878 304.668 866.428 305.229 867.11 305.625C867.792 306.021 868.562 306.219 869.42 306.219ZM893.387 292.161C894.795 292.161 896.049 292.447 897.149 293.019C898.271 293.569 899.151 294.427 899.789 295.593C900.427 296.737 900.746 298.211 900.746 300.015V310.179H895.598V300.807C895.598 299.377 895.279 298.321 894.641 297.639C894.025 296.957 893.145 296.616 892.001 296.616C891.187 296.616 890.45 296.792 889.79 297.144C889.152 297.474 888.646 297.991 888.272 298.695C887.92 299.399 887.744 300.301 887.744 301.401V310.179H882.596V292.425H887.513V297.342L886.589 295.857C887.227 294.669 888.14 293.756 889.328 293.118C890.516 292.48 891.869 292.161 893.387 292.161Z" fill="#CDDAED"/>
<path d="M917.365 310.179L926.671 289.125L928.057 291.435H915.616L917.992 288.927V295.197H913.24V287.079H931.753V290.544L923.173 310.179H917.365ZM937.829 310.179L947.135 289.125L948.521 291.435H936.08L938.456 288.927V295.197H933.704V287.079H952.217V290.544L943.637 310.179H937.829ZM958.058 310.179L973.832 287.079H977.759L961.985 310.179H958.058ZM960.071 299.553C958.949 299.553 957.959 299.3 957.101 298.794C956.243 298.266 955.561 297.529 955.055 296.583C954.571 295.615 954.329 294.482 954.329 293.184C954.329 291.886 954.571 290.764 955.055 289.818C955.561 288.872 956.243 288.135 957.101 287.607C957.959 287.079 958.949 286.815 960.071 286.815C961.193 286.815 962.183 287.079 963.041 287.607C963.899 288.135 964.57 288.872 965.054 289.818C965.538 290.764 965.78 291.886 965.78 293.184C965.78 294.482 965.538 295.615 965.054 296.583C964.57 297.529 963.899 298.266 963.041 298.794C962.183 299.3 961.193 299.553 960.071 299.553ZM960.071 296.847C960.797 296.847 961.38 296.55 961.82 295.956C962.26 295.34 962.48 294.416 962.48 293.184C962.48 291.952 962.26 291.039 961.82 290.445C961.38 289.829 960.797 289.521 960.071 289.521C959.367 289.521 958.784 289.829 958.322 290.445C957.882 291.039 957.662 291.952 957.662 293.184C957.662 294.394 957.882 295.307 958.322 295.923C958.784 296.539 959.367 296.847 960.071 296.847ZM975.746 310.443C974.646 310.443 973.656 310.19 972.776 309.684C971.918 309.156 971.247 308.419 970.763 307.473C970.279 306.505 970.037 305.372 970.037 304.074C970.037 302.776 970.279 301.654 970.763 300.708C971.247 299.762 971.918 299.025 972.776 298.497C973.656 297.969 974.646 297.705 975.746 297.705C976.89 297.705 977.891 297.969 978.749 298.497C979.607 299.025 980.278 299.762 980.762 300.708C981.246 301.654 981.488 302.776 981.488 304.074C981.488 305.372 981.246 306.505 980.762 307.473C980.278 308.419 979.607 309.156 978.749 309.684C977.891 310.19 976.89 310.443 975.746 310.443ZM975.746 307.737C976.472 307.737 977.055 307.44 977.495 306.846C977.935 306.23 978.155 305.306 978.155 304.074C978.155 302.864 977.935 301.951 977.495 301.335C977.055 300.719 976.472 300.411 975.746 300.411C975.042 300.411 974.459 300.719 973.997 301.335C973.557 301.929 973.337 302.842 973.337 304.074C973.337 305.306 973.557 306.23 973.997 306.846C974.459 307.44 975.042 307.737 975.746 307.737Z" fill="#30D5C8"/>
<g filter="url(#filter0_f_256_5733)">
<path d="M925.958 285.135C894.463 250.687 834.881 251.523 878.053 220.886C921.225 190.249 1073.18 231.301 1104.68 265.75C1136.17 300.198 1035.28 314.998 992.108 345.635C948.937 376.273 957.453 319.584 925.958 285.135Z" fill="url(#paint15_linear_256_5733)" fill-opacity="0.6"/>
</g>
<defs>
<filter id="filter0_f_256_5733" x="652.896" y="0.125" width="667.771" height="564.29" filterUnits="userSpaceOnUse" color-interpolation-filters="sRGB">
<feFlood flood-opacity="0" result="BackgroundImageFix"/>
<feBlend mode="normal" in="SourceGraphic" in2="BackgroundImageFix" result="shape"/>
<feGaussianBlur stdDeviation="105" result="effect1_foregroundBlur_256_5733"/>
</filter>
<linearGradient id="paint0_linear_256_5733" x1="-80.0668" y1="705.5" x2="994" y2="705.5" gradientUnits="userSpaceOnUse">
<stop stop-color="#080C26"/>
<stop offset="0.465026" stop-color="#50688B"/>
<stop offset="1" stop-color="#080C26"/>
</linearGradient>
<linearGradient id="paint1_linear_256_5733" x1="-80.0668" y1="655.5" x2="994" y2="655.5" gradientUnits="userSpaceOnUse">
<stop stop-color="#080C26"/>
<stop offset="0.465026" stop-color="#50688B"/>
<stop offset="1" stop-color="#080C26"/>
</linearGradient>
<linearGradient id="paint2_linear_256_5733" x1="-80.0668" y1="605.5" x2="994" y2="605.5" gradientUnits="userSpaceOnUse">
<stop stop-color="#080C26"/>
<stop offset="0.465026" stop-color="#50688B"/>
<stop offset="1" stop-color="#080C26"/>
</linearGradient>
<linearGradient id="paint3_linear_256_5733" x1="-80.0668" y1="555.5" x2="994" y2="555.5" gradientUnits="userSpaceOnUse">
<stop stop-color="#080C26"/>
<stop offset="0.465026" stop-color="#50688B"/>
<stop offset="1" stop-color="#080C26"/>
</linearGradient>
<linearGradient id="paint4_linear_256_5733" x1="-80.0668" y1="505.5" x2="994" y2="505.5" gradientUnits="userSpaceOnUse">
<stop stop-color="#080C26"/>
<stop offset="0.465026" stop-color="#50688B"/>
<stop offset="1" stop-color="#080C26"/>
</linearGradient>
<linearGradient id="paint5_linear_256_5733" x1="-80.0668" y1="455.5" x2="994" y2="455.5" gradientUnits="userSpaceOnUse">
<stop stop-color="#080C26"/>
<stop offset="0.465026" stop-color="#50688B"/>
<stop offset="1" stop-color="#080C26"/>
</linearGradient>
<linearGradient id="paint6_linear_256_5733" x1="-80.0663" y1="406.581" x2="994.001" y2="405.5" gradientUnits="userSpaceOnUse">
<stop stop-color="#080C26"/>
<stop offset="0.465026" stop-color="#50688B"/>
<stop offset="1" stop-color="#080C26"/>
</linearGradient>
<linearGradient id="paint7_linear_256_5733" x1="-80.0663" y1="356.581" x2="994.001" y2="355.5" gradientUnits="userSpaceOnUse">
<stop stop-color="#080C26"/>
<stop offset="0.465026" stop-color="#50688B"/>
<stop offset="1" stop-color="#080C26"/>
</linearGradient>
<linearGradient id="paint8_linear_256_5733" x1="721.53" y1="590.276" x2="484.648" y2="302.822" gradientUnits="userSpaceOnUse">
<stop stop-color="#30D5C8"/>
<stop offset="1" stop-color="#080C26"/>
</linearGradient>
<linearGradient id="paint9_linear_256_5733" x1="674.873" y1="438.476" x2="576.098" y2="335.379" gradientUnits="userSpaceOnUse">
<stop stop-color="#38FFEF"/>
<stop offset="1" stop-color="#30D5C8" stop-opacity="0.3"/>
</linearGradient>
<linearGradient id="paint10_linear_256_5733" x1="180" y1="306.5" x2="407" y2="306.5" gradientUnits="userSpaceOnUse">
<stop stop-color="#2B0D0D"/>
<stop offset="1" stop-color="#080C26"/>
</linearGradient>
<linearGradient id="paint11_linear_256_5733" x1="180" y1="306.5" x2="407" y2="306.5" gradientUnits="userSpaceOnUse">
<stop stop-color="#DF4343"/>
<stop offset="1" stop-color="#521919"/>
</linearGradient>
<linearGradient id="paint12_linear_256_5733" x1="620" y1="476.5" x2="834" y2="476.5" gradientUnits="userSpaceOnUse">
<stop stop-color="#0D3236"/>
<stop offset="1" stop-color="#080C26"/>
</linearGradient>
<linearGradient id="paint13_linear_256_5733" x1="620" y1="476.5" x2="834" y2="476.5" gradientUnits="userSpaceOnUse">
<stop stop-color="#66F2C3"/>
<stop offset="1" stop-color="#184D52"/>
</linearGradient>
<linearGradient id="paint14_linear_256_5733" x1="771.744" y1="730" x2="771.412" y2="748.229" gradientUnits="userSpaceOnUse">
<stop stop-color="#30D5C8"/>
<stop offset="1" stop-color="#7557FF"/>
</linearGradient>
<linearGradient id="paint15_linear_256_5733" x1="1118.68" y1="281.06" x2="965.513" y2="389.331" gradientUnits="userSpaceOnUse">
<stop stop-color="#30D5C8"/>
<stop offset="1" stop-color="#7557FF"/>
</linearGradient>
</defs>
</svg>
