<svg width="22" height="18" viewBox="0 -6 22 22" fill="none" xmlns="http://www.w3.org/2000/svg">
<path d="M21.3559 0.480619C21.048 0.172856 20.6305 -3.67166e-05 20.1952 -3.67546e-05C19.7599 -3.67927e-05 19.3424 0.172855 19.0346 0.480619L10.9083 8.60683L2.78213 0.480618C2.47251 0.181576 2.05783 0.0161062 1.62739 0.0198463C1.19695 0.0235864 0.785202 0.196238 0.480825 0.500615C0.176447 0.804991 0.00379892 1.21674 5.87619e-05 1.64718C-0.00368332 2.07762 0.161787 2.4923 0.460829 2.80192L9.74769 12.0888C10.0555 12.3965 10.473 12.5694 10.9083 12.5694C11.3437 12.5694 11.7611 12.3965 12.069 12.0888L21.3559 2.80192C21.6636 2.49407 21.8365 2.07658 21.8365 1.64127C21.8365 1.20596 21.6636 0.788476 21.3559 0.480619Z" fill="#3BC2D1"/>
</svg>
