<svg width="28" height="28" viewBox="0 0 28 28" fill="none" xmlns="http://www.w3.org/2000/svg">
<g clip-path="url(#clip0_4881_113)">
<path d="M26.4444 16.3956L24.0022 6.55668C23.9066 6.23502 23.7095 5.95291 23.4403 5.75246C23.1712 5.55201 22.8445 5.44397 22.5089 5.44446H5.4911C5.15018 5.4442 4.81861 5.55596 4.54739 5.76253C4.27618 5.9691 4.08034 6.25906 3.98999 6.58779L1.55555 16.3956C1.54805 16.4576 1.54805 16.5202 1.55555 16.5822V22.5556C1.55555 22.9681 1.71944 23.3638 2.01116 23.6555C2.30288 23.9472 2.69854 24.1111 3.1111 24.1111H24.8889C25.3014 24.1111 25.6971 23.9472 25.9888 23.6555C26.2806 23.3638 26.4444 22.9681 26.4444 22.5556V16.5745C26.4513 16.515 26.4513 16.455 26.4444 16.3956ZM3.1111 22.5556V16.6756L5.4911 7.00002H22.5011L24.8889 16.6756V22.5556H3.1111Z" fill="#30D5C8"/>
<path d="M4.66669 15.5555H23.3334V17.1111H4.66669V15.5555Z" fill="#30D5C8"/>
<path d="M20.2222 18.6666H23.3333V20.2222H20.2222V18.6666Z" fill="#30D5C8"/>
</g>
<defs>
<clipPath id="clip0_4881_113">
<rect width="28" height="28" fill="white"/>
</clipPath>
</defs>
</svg>
