<svg width="176" height="41" viewBox="0 0 176 41" fill="none" xmlns="http://www.w3.org/2000/svg">
<path d="M175.854 40.3297L165.154 19.4026L162.471 20.6852L170.47 36.3299C170.74 36.7349 170.133 36.6505 170.133 36.6505C160.867 36.5493 157.121 27.0815 157.121 27.0815L161.509 18.6263L169.188 15.3691L162.099 13.3101L155.416 0.348877L148.716 13.3777L141.662 15.3691L149.526 18.7275L153.745 27.1828C148.682 37.41 140.75 36.7012 140.75 36.7012C140.194 36.7349 140.396 36.4312 140.396 36.4312L148.362 20.6852L145.78 19.3689L134.911 40.6503H142.134C151.062 40.6503 155.214 30.7606 155.214 30.7606C155.399 30.2712 155.585 30.8281 155.585 30.8281C160.429 40.6841 167.483 40.6503 167.483 40.6503H175.584C176.124 40.6672 175.854 40.3297 175.854 40.3297ZM155.467 23.7905L151.163 15.4028L155.433 7.01515L159.77 15.4028L155.467 23.7905Z" fill="url(#paint0_linear_669_2951)"/>
<path d="M7.98265 33.1403L6.12623 39.8404H0L7.98265 13.7322H15.729L23.8298 39.8404H17.4842L15.4759 33.1403H7.98265ZM14.6152 28.7355L12.995 23.2C12.5225 21.6473 12.0668 19.7065 11.6786 18.1707H11.5943C11.2061 19.7234 10.8179 21.698 10.396 23.2L8.84337 28.7355H14.6152Z" fill="#F4F9FF"/>
<path d="M32.7737 28.888H32.8581C33.28 28.1117 33.7526 27.3353 34.2082 26.6096L38.0393 20.9222H45.1274L38.343 28.5842L46.0894 39.8578H38.8493L34.2758 32.0777L32.7569 33.9341V39.8578H26.8838V12.3489H32.7737V28.888Z" fill="#F4F9FF"/>
<path d="M63.8618 35.2339C63.8618 37.0565 63.9462 38.7948 64.1319 39.8412H58.8326L58.4782 37.9341H58.36C57.128 39.453 55.1872 40.2631 52.9426 40.2631C49.1116 40.2631 46.8164 37.4785 46.8164 34.4575C46.8164 29.5296 51.2381 27.1837 57.9381 27.2175V26.9474C57.9381 25.9348 57.3981 24.5003 54.4953 24.5003C52.5545 24.5003 50.5124 25.1585 49.2635 25.9348L48.1834 22.1376C49.4998 21.395 52.0988 20.4668 55.5416 20.4668C61.8535 20.4668 63.8618 24.1797 63.8618 28.6351V35.2339ZM58.1238 30.8966C55.0185 30.8628 52.622 31.5885 52.622 33.8837C52.622 35.4026 53.6346 36.1283 54.951 36.1283C56.4192 36.1283 57.6175 35.1664 58.0056 33.9512C58.09 33.6475 58.1238 33.293 58.1238 32.9386V30.8966Z" fill="#F4F9FF"/>
<path d="M68.4673 34.6938C69.5474 35.352 71.792 36.1283 73.5471 36.1283C75.3361 36.1283 76.0617 35.5039 76.0617 34.5419C76.0617 33.58 75.4879 33.1074 73.2771 32.3648C69.3617 31.0485 67.8597 28.922 67.8935 26.7112C67.8935 23.1502 70.9144 20.4668 75.6061 20.4668C77.8169 20.4668 79.7915 20.9731 80.956 21.5469L79.9096 25.6142C79.0658 25.1416 77.4288 24.5341 75.8086 24.5341C74.3741 24.5341 73.564 25.1079 73.564 26.0867C73.564 26.9812 74.3066 27.4369 76.6187 28.2638C80.2134 29.4958 81.7323 31.3185 81.7661 34.1031C81.7661 37.6303 78.9814 40.2631 73.5471 40.2631C71.0663 40.2631 68.8554 39.6893 67.4209 38.913L68.4673 34.6938Z" fill="#F4F9FF"/>
<path d="M85.3125 12.3489H91.2024V23.1499H91.2868C91.9113 22.3399 92.6876 21.6817 93.6158 21.2091C94.5103 20.7366 95.5904 20.4665 96.6705 20.4665C100.434 20.4665 103.286 23.0656 103.286 28.753V39.8241H97.3962V29.4112C97.3962 26.9303 96.5523 25.2258 94.3415 25.2258C92.7889 25.2258 91.8269 26.2384 91.405 27.2847C91.2531 27.6729 91.2024 28.1792 91.2024 28.6011V39.8409H85.3125V12.3489Z" fill="#F4F9FF"/>
<path d="M121.933 39.8404L119.57 35.1149C118.608 33.2922 117.983 31.9421 117.241 30.4232H117.156C116.616 31.9252 115.958 33.2922 115.148 35.1149L112.971 39.8404H106.237L113.781 26.6259L106.507 13.7322H113.292L115.57 18.4914C116.346 20.0778 116.92 21.3604 117.545 22.8287H117.629C118.253 21.1579 118.76 19.9934 119.418 18.4914L121.629 13.7322H128.363L121.004 26.474L128.751 39.8404H121.933Z" fill="#F4F9FF"/>
<defs>
<linearGradient id="paint0_linear_669_2951" x1="155.817" y1="0.348877" x2="155.315" y2="27.9936" gradientUnits="userSpaceOnUse">
<stop stop-color="#30D5C8"/>
<stop offset="1" stop-color="#7557FF"/>
</linearGradient>
</defs>
</svg>
