<svg width="28" height="28" viewBox="0 0 28 28" fill="none" xmlns="http://www.w3.org/2000/svg">
<path d="M6.30544 28C5.64824 28 5.09994 27.769 4.66053 27.307C4.22113 26.845 4.00095 26.2685 4 25.5775V3.4225C4 2.7325 4.22018 2.1565 4.66053 1.6945C5.10089 1.2325 5.64919 1.001 6.30544 1H21.696C22.3522 1 22.9005 1.2315 23.3409 1.6945C23.7812 2.1575 24.0009 2.734 24 3.424V25.5775C24 26.2675 23.7803 26.844 23.3409 27.307C22.9015 27.77 22.3532 28.001 21.696 28H6.30544ZM6.30544 26.5H21.696C21.9518 26.5 22.162 26.4135 22.3266 26.2405C22.4911 26.0675 22.5734 25.8465 22.5734 25.5775V3.4225C22.5734 3.1535 22.4911 2.9325 22.3266 2.7595C22.162 2.5865 21.9518 2.5 21.696 2.5H6.30544C6.04865 2.5 5.83798 2.5865 5.67344 2.7595C5.5089 2.9325 5.42664 3.154 5.42664 3.424V25.5775C5.42664 25.8465 5.5089 26.0675 5.67344 26.2405C5.83798 26.4135 6.04865 26.5 6.30544 26.5ZM9.54248 22.924H18.4589C18.6606 22.924 18.8299 22.852 18.9668 22.708C19.1038 22.564 19.1723 22.3855 19.1723 22.1725C19.1723 21.9595 19.1038 21.7815 18.9668 21.6385C18.8299 21.4955 18.6606 21.4235 18.4589 21.4225H9.54248C9.3399 21.4225 9.17013 21.4945 9.03317 21.6385C8.89716 21.7825 8.82916 21.961 8.82916 22.174C8.82916 22.387 8.89716 22.565 9.03317 22.708C9.16917 22.851 9.33894 22.923 9.54248 22.924ZM13.9864 17.5C15.5006 17.5 16.7846 16.946 17.8384 15.838C18.8922 14.73 19.4191 13.38 19.4191 11.788C19.4191 10.196 18.8922 8.846 17.8384 7.738C16.7846 6.63 15.5006 6.0765 13.9864 6.0775C12.4723 6.0785 11.1883 6.632 10.1345 7.738C9.08072 8.844 8.55382 10.194 8.55382 11.788C8.55382 13.382 9.08072 14.732 10.1345 15.838C11.1883 16.944 12.4723 17.498 13.9864 17.5ZM14.0007 14.9335C13.1666 14.9335 12.4618 14.626 11.8864 14.011C11.311 13.397 11.0233 12.656 11.0233 11.788C11.0233 10.92 11.311 10.179 11.8864 9.565C12.4618 8.951 13.1661 8.644 13.9993 8.644C14.8324 8.644 15.542 8.945 16.1278 9.547C16.7137 10.149 17.0062 10.8945 17.0052 11.7835C17.0043 12.6725 16.7118 13.42 16.1278 14.026C15.5439 14.632 14.8348 14.9345 14.0007 14.9335Z" fill="#9780FF"/>
</svg>
