<svg width="411" height="521" viewBox="0 0 411 521" fill="none" xmlns="http://www.w3.org/2000/svg">
<path d="M80.2074 512.111H78.8778C78.8267 511.827 78.7315 511.577 78.5923 511.361C78.4531 511.145 78.2827 510.962 78.081 510.811C77.8793 510.661 77.6534 510.547 77.4034 510.47C77.1563 510.393 76.8935 510.355 76.6151 510.355C76.1122 510.355 75.6619 510.482 75.2642 510.734C74.8693 510.987 74.5568 511.358 74.3267 511.847C74.0994 512.335 73.9858 512.932 73.9858 513.636C73.9858 514.347 74.0994 514.946 74.3267 515.435C74.5568 515.923 74.8707 516.293 75.2685 516.543C75.6662 516.793 76.1136 516.918 76.6108 516.918C76.8864 516.918 77.1477 516.881 77.3949 516.807C77.6449 516.73 77.8707 516.618 78.0724 516.47C78.2741 516.322 78.4446 516.142 78.5838 515.929C78.7259 515.713 78.8239 515.466 78.8778 515.188L80.2074 515.192C80.1364 515.621 79.9986 516.016 79.794 516.376C79.5923 516.734 79.3324 517.044 79.0142 517.305C78.6989 517.564 78.3381 517.764 77.9318 517.906C77.5256 518.048 77.0824 518.119 76.6023 518.119C75.8466 518.119 75.1733 517.94 74.5824 517.582C73.9915 517.222 73.5256 516.706 73.1847 516.036C72.8466 515.365 72.6776 514.565 72.6776 513.636C72.6776 512.705 72.848 511.905 73.1889 511.237C73.5298 510.567 73.9957 510.053 74.5866 509.695C75.1776 509.334 75.8494 509.153 76.6023 509.153C77.0653 509.153 77.4972 509.22 77.8977 509.354C78.3011 509.484 78.6634 509.678 78.9844 509.933C79.3054 510.186 79.571 510.496 79.7812 510.862C79.9915 511.226 80.1335 511.642 80.2074 512.111ZM84.4379 518.132C83.8242 518.132 83.2887 517.991 82.8313 517.71C82.3739 517.429 82.0188 517.036 81.766 516.53C81.5131 516.024 81.3867 515.433 81.3867 514.757C81.3867 514.078 81.5131 513.484 81.766 512.976C82.0188 512.467 82.3739 512.072 82.8313 511.791C83.2887 511.51 83.8242 511.369 84.4379 511.369C85.0515 511.369 85.587 511.51 86.0444 511.791C86.5018 512.072 86.8569 512.467 87.1097 512.976C87.3626 513.484 87.489 514.078 87.489 514.757C87.489 515.433 87.3626 516.024 87.1097 516.53C86.8569 517.036 86.5018 517.429 86.0444 517.71C85.587 517.991 85.0515 518.132 84.4379 518.132ZM84.4421 517.062C84.8398 517.062 85.1694 516.957 85.4308 516.747C85.6921 516.537 85.8853 516.257 86.0103 515.908C86.1381 515.558 86.2021 515.173 86.2021 514.753C86.2021 514.335 86.1381 513.952 86.0103 513.602C85.8853 513.25 85.6921 512.967 85.4308 512.754C85.1694 512.541 84.8398 512.435 84.4421 512.435C84.0415 512.435 83.7092 512.541 83.445 512.754C83.1836 512.967 82.989 513.25 82.8612 513.602C82.7362 513.952 82.6737 514.335 82.6737 514.753C82.6737 515.173 82.7362 515.558 82.8612 515.908C82.989 516.257 83.1836 516.537 83.445 516.747C83.7092 516.957 84.0415 517.062 84.4421 517.062ZM88.9112 518V511.455H90.1342V512.52H90.2152C90.3516 512.159 90.5746 511.878 90.8842 511.676C91.1939 511.472 91.5646 511.369 91.9964 511.369C92.4339 511.369 92.8004 511.472 93.0959 511.676C93.3942 511.881 93.6143 512.162 93.7564 512.52H93.8246C93.9808 512.17 94.2294 511.892 94.5703 511.685C94.9112 511.474 95.3175 511.369 95.7891 511.369C96.3828 511.369 96.8672 511.555 97.2422 511.928C97.62 512.3 97.8089 512.861 97.8089 513.611V518H96.5348V513.73C96.5348 513.287 96.4141 512.966 96.1726 512.767C95.9311 512.568 95.6428 512.469 95.3075 512.469C94.8928 512.469 94.5703 512.597 94.3402 512.852C94.1101 513.105 93.995 513.43 93.995 513.828V518H92.7251V513.649C92.7251 513.294 92.6143 513.009 92.3928 512.793C92.1712 512.577 91.8828 512.469 91.5277 512.469C91.2862 512.469 91.0632 512.533 90.8587 512.661C90.657 512.786 90.4936 512.96 90.3686 513.185C90.2464 513.409 90.1854 513.669 90.1854 513.964V518H88.9112ZM99.5167 520.455V511.455H100.761V512.516H100.868C100.941 512.379 101.048 512.222 101.187 512.043C101.326 511.864 101.52 511.707 101.767 511.574C102.014 511.438 102.341 511.369 102.747 511.369C103.275 511.369 103.747 511.503 104.162 511.77C104.576 512.037 104.902 512.422 105.137 512.925C105.376 513.428 105.495 514.033 105.495 514.74C105.495 515.447 105.377 516.054 105.142 516.56C104.906 517.062 104.582 517.45 104.17 517.723C103.758 517.993 103.288 518.128 102.76 518.128C102.362 518.128 102.037 518.061 101.784 517.928C101.534 517.794 101.338 517.638 101.196 517.459C101.054 517.28 100.944 517.121 100.868 516.982H100.791V520.455H99.5167ZM100.765 514.727C100.765 515.187 100.832 515.591 100.966 515.938C101.099 516.284 101.292 516.555 101.545 516.751C101.798 516.945 102.108 517.041 102.474 517.041C102.855 517.041 103.173 516.94 103.429 516.739C103.684 516.534 103.877 516.257 104.008 515.908C104.142 515.558 104.208 515.165 104.208 514.727C104.208 514.295 104.143 513.908 104.012 513.564C103.885 513.22 103.691 512.949 103.433 512.75C103.177 512.551 102.858 512.452 102.474 512.452C102.105 512.452 101.792 512.547 101.537 512.737C101.284 512.928 101.092 513.193 100.961 513.534C100.831 513.875 100.765 514.273 100.765 514.727ZM111.069 515.286V511.455H112.348V518H111.095V516.866H111.027C110.876 517.216 110.635 517.507 110.302 517.74C109.973 517.97 109.562 518.085 109.071 518.085C108.65 518.085 108.278 517.993 107.954 517.808C107.633 517.621 107.38 517.344 107.196 516.977C107.014 516.611 106.923 516.158 106.923 515.618V511.455H108.197V515.464C108.197 515.911 108.321 516.266 108.568 516.53C108.815 516.794 109.136 516.926 109.531 516.926C109.77 516.926 110.007 516.866 110.243 516.747C110.481 516.628 110.679 516.447 110.835 516.206C110.994 515.964 111.072 515.658 111.069 515.286ZM117.115 511.455V512.477H113.54V511.455H117.115ZM114.499 509.886H115.773V516.078C115.773 516.325 115.81 516.511 115.884 516.636C115.957 516.759 116.053 516.842 116.169 516.888C116.288 516.93 116.418 516.952 116.557 516.952C116.659 516.952 116.749 516.945 116.825 516.93C116.902 516.916 116.962 516.905 117.004 516.896L117.234 517.949C117.161 517.977 117.055 518.006 116.919 518.034C116.783 518.065 116.612 518.082 116.408 518.085C116.072 518.091 115.76 518.031 115.47 517.906C115.18 517.781 114.946 517.588 114.767 517.327C114.588 517.065 114.499 516.737 114.499 516.342V509.886ZM121.275 518.132C120.63 518.132 120.075 517.994 119.609 517.719C119.146 517.44 118.788 517.05 118.535 516.547C118.285 516.041 118.16 515.449 118.16 514.77C118.16 514.099 118.285 513.509 118.535 512.997C118.788 512.486 119.14 512.087 119.592 511.8C120.047 511.513 120.578 511.369 121.186 511.369C121.555 511.369 121.913 511.43 122.26 511.553C122.606 511.675 122.917 511.866 123.193 512.128C123.468 512.389 123.686 512.729 123.845 513.146C124.004 513.561 124.083 514.065 124.083 514.659V515.111H118.88V514.156H122.835C122.835 513.821 122.767 513.524 122.63 513.266C122.494 513.004 122.302 512.798 122.055 512.648C121.811 512.497 121.524 512.422 121.194 512.422C120.836 512.422 120.524 512.51 120.257 512.686C119.993 512.859 119.788 513.087 119.643 513.368C119.501 513.646 119.43 513.949 119.43 514.276V515.021C119.43 515.459 119.507 515.831 119.66 516.138C119.816 516.445 120.034 516.679 120.312 516.841C120.591 517 120.916 517.08 121.288 517.08C121.529 517.08 121.75 517.045 121.949 516.977C122.147 516.906 122.319 516.801 122.464 516.662C122.609 516.523 122.72 516.351 122.797 516.146L124.002 516.364C123.906 516.719 123.733 517.03 123.483 517.297C123.235 517.561 122.924 517.767 122.549 517.915C122.177 518.06 121.752 518.132 121.275 518.132Z" fill="#CDDAED"/>
<rect x="50.6" y="506.6" width="12.8" height="12.8" rx="1.4" fill="#0D2651" stroke="#1F8EFF" stroke-width="1.2"/>
<path d="M175.959 518V509.273H181.43V510.406H177.276V513.065H181.145V514.195H177.276V516.866H181.482V518H175.959ZM186.944 513.082V514.19H183.074V513.082H186.944ZM193.504 511.565C193.458 511.162 193.271 510.849 192.941 510.628C192.612 510.403 192.197 510.291 191.697 510.291C191.339 510.291 191.029 510.348 190.768 510.462C190.507 510.572 190.304 510.726 190.159 510.922C190.017 511.115 189.946 511.335 189.946 511.582C189.946 511.79 189.994 511.969 190.091 512.119C190.19 512.27 190.319 512.396 190.478 512.499C190.64 512.598 190.814 512.682 190.998 512.75C191.183 512.815 191.36 512.869 191.531 512.912L192.383 513.134C192.662 513.202 192.947 513.294 193.24 513.411C193.532 513.527 193.804 513.68 194.054 513.871C194.304 514.061 194.505 514.297 194.659 514.578C194.815 514.859 194.893 515.196 194.893 515.588C194.893 516.082 194.765 516.521 194.51 516.905C194.257 517.288 193.889 517.591 193.406 517.812C192.926 518.034 192.345 518.145 191.663 518.145C191.01 518.145 190.444 518.041 189.967 517.834C189.49 517.626 189.116 517.332 188.846 516.952C188.576 516.568 188.427 516.114 188.399 515.588H189.72C189.745 515.903 189.848 516.166 190.027 516.376C190.208 516.584 190.44 516.739 190.721 516.841C191.005 516.94 191.316 516.99 191.654 516.99C192.027 516.99 192.358 516.932 192.647 516.815C192.94 516.696 193.17 516.531 193.338 516.321C193.505 516.108 193.589 515.859 193.589 515.575C193.589 515.317 193.515 515.105 193.368 514.94C193.223 514.776 193.025 514.639 192.775 514.531C192.528 514.423 192.248 514.328 191.936 514.246L190.904 513.964C190.206 513.774 189.652 513.494 189.243 513.125C188.836 512.756 188.633 512.267 188.633 511.659C188.633 511.156 188.77 510.717 189.042 510.342C189.315 509.967 189.684 509.676 190.15 509.469C190.616 509.259 191.142 509.153 191.727 509.153C192.318 509.153 192.839 509.257 193.291 509.464C193.745 509.672 194.103 509.957 194.365 510.321C194.626 510.682 194.762 511.097 194.774 511.565H193.504ZM199.386 518.119C198.8 518.119 198.278 518.018 197.817 517.817C197.36 517.615 196.998 517.335 196.731 516.977C196.467 516.616 196.325 516.199 196.305 515.724H197.643C197.66 515.983 197.746 516.207 197.903 516.398C198.062 516.585 198.269 516.73 198.525 516.832C198.781 516.935 199.065 516.986 199.377 516.986C199.721 516.986 200.025 516.926 200.289 516.807C200.556 516.687 200.765 516.521 200.915 516.308C201.066 516.092 201.141 515.844 201.141 515.562C201.141 515.27 201.066 515.013 200.915 514.791C200.768 514.567 200.55 514.391 200.263 514.263C199.979 514.135 199.636 514.071 199.232 514.071H198.495V512.997H199.232C199.556 512.997 199.84 512.939 200.085 512.822C200.332 512.706 200.525 512.544 200.664 512.337C200.803 512.126 200.873 511.881 200.873 511.599C200.873 511.33 200.812 511.095 200.69 510.896C200.57 510.695 200.4 510.537 200.178 510.423C199.96 510.31 199.701 510.253 199.403 510.253C199.119 510.253 198.853 510.305 198.606 510.411C198.362 510.513 198.163 510.661 198.009 510.854C197.856 511.044 197.773 511.273 197.762 511.54H196.488C196.502 511.068 196.641 510.653 196.906 510.295C197.173 509.937 197.525 509.658 197.962 509.456C198.4 509.254 198.886 509.153 199.42 509.153C199.979 509.153 200.462 509.263 200.869 509.482C201.278 509.697 201.593 509.986 201.815 510.347C202.039 510.707 202.15 511.102 202.147 511.531C202.15 512.02 202.013 512.435 201.738 512.776C201.465 513.116 201.102 513.345 200.647 513.462V513.53C201.227 513.618 201.675 513.848 201.994 514.22C202.315 514.592 202.474 515.054 202.471 515.605C202.474 516.085 202.34 516.516 202.07 516.896C201.803 517.277 201.438 517.577 200.975 517.795C200.512 518.011 199.982 518.119 199.386 518.119Z" fill="#CDDAED"/>
<rect x="153" y="506" width="14" height="14" rx="2" fill="#7557FF"/>
<path d="M259.719 511.565C259.673 511.162 259.486 510.849 259.156 510.628C258.827 510.403 258.412 510.291 257.912 510.291C257.554 510.291 257.244 510.348 256.983 510.462C256.722 510.572 256.518 510.726 256.374 510.922C256.232 511.115 256.161 511.335 256.161 511.582C256.161 511.79 256.209 511.969 256.305 512.119C256.405 512.27 256.534 512.396 256.693 512.499C256.855 512.598 257.028 512.682 257.213 512.75C257.398 512.815 257.575 512.869 257.746 512.912L258.598 513.134C258.876 513.202 259.162 513.294 259.455 513.411C259.747 513.527 260.018 513.68 260.268 513.871C260.518 514.061 260.72 514.297 260.874 514.578C261.03 514.859 261.108 515.196 261.108 515.588C261.108 516.082 260.98 516.521 260.724 516.905C260.472 517.288 260.104 517.591 259.621 517.812C259.141 518.034 258.56 518.145 257.878 518.145C257.224 518.145 256.659 518.041 256.182 517.834C255.705 517.626 255.331 517.332 255.061 516.952C254.791 516.568 254.642 516.114 254.614 515.588H255.935C255.96 515.903 256.063 516.166 256.241 516.376C256.423 516.584 256.655 516.739 256.936 516.841C257.22 516.94 257.531 516.99 257.869 516.99C258.241 516.99 258.572 516.932 258.862 516.815C259.155 516.696 259.385 516.531 259.553 516.321C259.72 516.108 259.804 515.859 259.804 515.575C259.804 515.317 259.73 515.105 259.582 514.94C259.438 514.776 259.24 514.639 258.99 514.531C258.743 514.423 258.463 514.328 258.151 514.246L257.119 513.964C256.42 513.774 255.866 513.494 255.457 513.125C255.051 512.756 254.848 512.267 254.848 511.659C254.848 511.156 254.984 510.717 255.257 510.342C255.53 509.967 255.899 509.676 256.365 509.469C256.831 509.259 257.357 509.153 257.942 509.153C258.533 509.153 259.054 509.257 259.506 509.464C259.96 509.672 260.318 509.957 260.58 510.321C260.841 510.682 260.977 511.097 260.989 511.565H259.719ZM265.6 518.119C265.015 518.119 264.493 518.018 264.032 517.817C263.575 517.615 263.213 517.335 262.946 516.977C262.681 516.616 262.539 516.199 262.52 515.724H263.858C263.875 515.983 263.961 516.207 264.118 516.398C264.277 516.585 264.484 516.73 264.74 516.832C264.995 516.935 265.279 516.986 265.592 516.986C265.936 516.986 266.24 516.926 266.504 516.807C266.771 516.687 266.98 516.521 267.13 516.308C267.281 516.092 267.356 515.844 267.356 515.562C267.356 515.27 267.281 515.013 267.13 514.791C266.983 514.567 266.765 514.391 266.478 514.263C266.194 514.135 265.85 514.071 265.447 514.071H264.71V512.997H265.447C265.771 512.997 266.055 512.939 266.299 512.822C266.547 512.706 266.74 512.544 266.879 512.337C267.018 512.126 267.088 511.881 267.088 511.599C267.088 511.33 267.027 511.095 266.904 510.896C266.785 510.695 266.615 510.537 266.393 510.423C266.174 510.31 265.916 510.253 265.618 510.253C265.333 510.253 265.068 510.305 264.821 510.411C264.576 510.513 264.377 510.661 264.224 510.854C264.071 511.044 263.988 511.273 263.977 511.54H262.703C262.717 511.068 262.856 510.653 263.12 510.295C263.387 509.937 263.74 509.658 264.177 509.456C264.615 509.254 265.1 509.153 265.635 509.153C266.194 509.153 266.677 509.263 267.083 509.482C267.493 509.697 267.808 509.986 268.029 510.347C268.254 510.707 268.365 511.102 268.362 511.531C268.365 512.02 268.228 512.435 267.953 512.776C267.68 513.116 267.316 513.345 266.862 513.462V513.53C267.441 513.618 267.89 513.848 268.208 514.22C268.529 514.592 268.689 515.054 268.686 515.605C268.689 516.085 268.555 516.516 268.285 516.896C268.018 517.277 267.653 517.577 267.19 517.795C266.727 518.011 266.197 518.119 265.6 518.119Z" fill="#CDDAED"/>
<rect x="232" y="507" width="13" height="13" rx="2" fill="#6ECFE5"/>
<path d="M0 431.999H320" stroke="url(#paint0_linear_852_267)" stroke-opacity="0.9"/>
<path d="M28.3503 451.908C28.3503 453.005 28.1448 453.945 27.7338 454.727C27.3262 455.506 26.7694 456.103 26.0634 456.517C25.3607 456.931 24.5636 457.138 23.6721 457.138C22.7805 457.138 21.9817 456.931 21.2757 456.517C20.5731 456.099 20.0163 455.501 19.6053 454.722C19.1976 453.94 18.9938 453.002 18.9938 451.908C18.9938 450.811 19.1976 449.873 19.6053 449.094C20.0163 448.312 20.5731 447.714 21.2757 447.3C21.9817 446.885 22.7805 446.678 23.6721 446.678C24.5636 446.678 25.3607 446.885 26.0634 447.3C26.7694 447.714 27.3262 448.312 27.7338 449.094C28.1448 449.873 28.3503 450.811 28.3503 451.908ZM26.4959 451.908C26.4959 451.136 26.3749 450.485 26.133 449.955C25.8944 449.421 25.5629 449.018 25.1387 448.746C24.7144 448.471 24.2256 448.334 23.6721 448.334C23.1185 448.334 22.6297 448.471 22.2054 448.746C21.7812 449.018 21.4481 449.421 21.2061 449.955C20.9675 450.485 20.8482 451.136 20.8482 451.908C20.8482 452.681 20.9675 453.334 21.2061 453.867C21.4481 454.397 21.7812 454.8 22.2054 455.075C22.6297 455.347 23.1185 455.483 23.6721 455.483C24.2256 455.483 24.7144 455.347 25.1387 455.075C25.5629 454.8 25.8944 454.397 26.133 453.867C26.3749 453.334 26.4959 452.681 26.4959 451.908ZM33.8278 449.363V450.755H29.4379V449.363H33.8278ZM30.5217 447.533H32.3214V454.702C32.3214 454.944 32.3578 455.13 32.4308 455.259C32.507 455.385 32.6064 455.471 32.729 455.518C32.8517 455.564 32.9876 455.587 33.1367 455.587C33.2494 455.587 33.3522 455.579 33.445 455.562C33.5411 455.546 33.614 455.531 33.6637 455.518L33.967 456.925C33.8709 456.958 33.7333 456.994 33.5543 457.034C33.3787 457.074 33.1632 457.097 32.908 457.104C32.4573 457.117 32.0513 457.049 31.69 456.9C31.3287 456.747 31.042 456.512 30.8299 456.194C30.6211 455.876 30.5183 455.478 30.5217 455.001V447.533ZM37.2967 452.525V456.999H35.497V446.817H37.2569V450.66H37.3464C37.5254 450.23 37.8021 449.89 38.1767 449.641C38.5545 449.389 39.0351 449.263 39.6184 449.263C40.1487 449.263 40.6111 449.375 41.0055 449.597C41.3999 449.819 41.7048 450.143 41.9203 450.571C42.139 450.999 42.2484 451.521 42.2484 452.137V456.999H40.4487V452.415C40.4487 451.902 40.3161 451.502 40.051 451.217C39.7891 450.929 39.4212 450.785 38.9473 450.785C38.6291 450.785 38.344 450.854 38.0922 450.994C37.8436 451.129 37.648 451.327 37.5055 451.585C37.3663 451.844 37.2967 452.157 37.2967 452.525ZM47.4636 457.148C46.698 457.148 46.0368 456.989 45.4799 456.671C44.9264 456.35 44.5005 455.896 44.2022 455.309C43.9039 454.719 43.7548 454.025 43.7548 453.226C43.7548 452.44 43.9039 451.751 44.2022 451.158C44.5038 450.561 44.9248 450.097 45.465 449.766C46.0053 449.431 46.64 449.263 47.3691 449.263C47.8398 449.263 48.2839 449.34 48.7015 449.492C49.1225 449.641 49.4937 449.873 49.8152 450.188C50.14 450.503 50.3952 450.904 50.5808 451.391C50.7664 451.875 50.8592 452.452 50.8592 453.121V453.673H44.6V452.46H49.1341C49.1307 452.116 49.0562 451.809 48.9103 451.54C48.7645 451.269 48.5607 451.055 48.2988 450.899C48.0403 450.743 47.7387 450.665 47.394 450.665C47.0261 450.665 46.7029 450.755 46.4245 450.934C46.1461 451.11 45.929 451.342 45.7733 451.63C45.6208 451.915 45.5429 452.228 45.5396 452.57V453.629C45.5396 454.073 45.6208 454.454 45.7832 454.772C45.9456 455.087 46.1726 455.329 46.4643 455.498C46.756 455.664 47.0974 455.746 47.4885 455.746C47.7503 455.746 47.9873 455.71 48.1994 455.637C48.4115 455.561 48.5955 455.45 48.7512 455.304C48.907 455.158 49.0247 454.977 49.1042 454.762L50.7846 454.951C50.6786 455.395 50.4764 455.783 50.1781 456.114C49.8831 456.442 49.5053 456.698 49.0446 456.88C48.5839 457.059 48.0569 457.148 47.4636 457.148ZM52.3817 456.999V449.363H54.1268V450.636H54.2063C54.3455 450.195 54.5842 449.855 54.9222 449.616C55.2636 449.375 55.6531 449.254 56.0906 449.254C56.19 449.254 56.301 449.259 56.4237 449.268C56.5496 449.275 56.654 449.287 56.7369 449.303V450.959C56.6606 450.932 56.5397 450.909 56.3739 450.889C56.2115 450.866 56.0541 450.854 55.9016 450.854C55.5735 450.854 55.2785 450.926 55.0167 451.068C54.7582 451.207 54.5543 451.401 54.4052 451.65C54.256 451.898 54.1815 452.185 54.1815 452.51V456.999H52.3817ZM63.6275 456.999L60.7539 446.817H62.7376L64.5721 454.3H64.6665L66.6254 446.817H68.43L70.3938 454.305H70.4833L72.3178 446.817H74.3015L71.4279 456.999H69.6083L67.57 449.855H67.4904L65.4471 456.999H63.6275ZM76.919 457.153C76.4351 457.153 75.9993 457.067 75.6115 456.895C75.227 456.719 74.9221 456.461 74.6967 456.119C74.4747 455.778 74.3636 455.357 74.3636 454.857C74.3636 454.426 74.4432 454.069 74.6023 453.788C74.7614 453.506 74.9785 453.281 75.2536 453.111C75.5286 452.942 75.8385 452.815 76.1832 452.729C76.5313 452.639 76.8909 452.575 77.2621 452.535C77.7095 452.488 78.0724 452.447 78.3509 452.41C78.6293 452.371 78.8314 452.311 78.9574 452.232C79.0866 452.149 79.1513 452.021 79.1513 451.849V451.819C79.1513 451.444 79.0402 451.154 78.8182 450.949C78.5961 450.743 78.2763 450.641 77.8587 450.641C77.4179 450.641 77.0682 450.737 76.8097 450.929C76.5545 451.121 76.3821 451.348 76.2926 451.61L74.6122 451.371C74.7448 450.907 74.9635 450.52 75.2685 450.208C75.5734 449.893 75.9463 449.658 76.3871 449.502C76.8279 449.343 77.3151 449.263 77.8487 449.263C78.2166 449.263 78.5829 449.307 78.9474 449.393C79.312 449.479 79.6451 449.621 79.9467 449.82C80.2483 450.016 80.4903 450.283 80.6726 450.621C80.8582 450.959 80.951 451.381 80.951 451.888V456.999H79.2209V455.95H79.1612C79.0518 456.162 78.8977 456.361 78.6989 456.547C78.5033 456.729 78.2564 456.877 77.9581 456.989C77.6631 457.099 77.3168 457.153 76.919 457.153ZM77.3864 455.831C77.7476 455.831 78.0608 455.76 78.326 455.617C78.5911 455.471 78.795 455.279 78.9375 455.04C79.0833 454.802 79.1562 454.542 79.1562 454.26V453.36C79.0999 453.406 79.0038 453.45 78.8679 453.489C78.7353 453.529 78.5862 453.564 78.4205 453.594C78.2547 453.624 78.0907 453.65 77.9283 453.673C77.7659 453.696 77.625 453.716 77.5057 453.733C77.2372 453.769 76.9969 453.829 76.7848 453.912C76.5727 453.995 76.4053 454.111 76.2827 454.26C76.16 454.406 76.0987 454.595 76.0987 454.827C76.0987 455.158 76.2197 455.408 76.4616 455.577C76.7036 455.746 77.0118 455.831 77.3864 455.831ZM82.7607 456.999V449.363H84.5057V450.636H84.5852C84.7244 450.195 84.9631 449.855 85.3011 449.616C85.6425 449.375 86.032 449.254 86.4695 449.254C86.5689 449.254 86.6799 449.259 86.8026 449.268C86.9285 449.275 87.0329 449.287 87.1158 449.303V450.959C87.0395 450.932 86.9186 450.909 86.7528 450.889C86.5904 450.866 86.433 450.854 86.2805 450.854C85.9524 450.854 85.6574 450.926 85.3956 451.068C85.1371 451.207 84.9332 451.401 84.7841 451.65C84.6349 451.898 84.5604 452.185 84.5604 452.51V456.999H82.7607ZM91.3777 457.148C90.612 457.148 89.9508 456.989 89.394 456.671C88.8405 456.35 88.4146 455.896 88.1163 455.309C87.818 454.719 87.6689 454.025 87.6689 453.226C87.6689 452.44 87.818 451.751 88.1163 451.158C88.4179 450.561 88.8388 450.097 89.3791 449.766C89.9193 449.431 90.554 449.263 91.2832 449.263C91.7538 449.263 92.198 449.34 92.6156 449.492C93.0365 449.641 93.4077 449.873 93.7292 450.188C94.054 450.503 94.3092 450.904 94.4949 451.391C94.6805 451.875 94.7733 452.452 94.7733 453.121V453.673H88.514V452.46H93.0481C93.0448 452.116 92.9702 451.809 92.8244 451.54C92.6786 451.269 92.4747 451.055 92.2129 450.899C91.9544 450.743 91.6528 450.665 91.3081 450.665C90.9402 450.665 90.617 450.755 90.3386 450.934C90.0602 451.11 89.8431 451.342 89.6873 451.63C89.5349 451.915 89.457 452.228 89.4537 452.57V453.629C89.4537 454.073 89.5349 454.454 89.6973 454.772C89.8597 455.087 90.0867 455.329 90.3784 455.498C90.67 455.664 91.0114 455.746 91.4025 455.746C91.6644 455.746 91.9013 455.71 92.1135 455.637C92.3256 455.561 92.5095 455.45 92.6653 455.304C92.8211 455.158 92.9387 454.977 93.0183 454.762L94.6987 454.951C94.5926 455.395 94.3904 455.783 94.0922 456.114C93.7972 456.442 93.4193 456.698 92.9586 456.88C92.4979 457.059 91.9709 457.148 91.3777 457.148ZM98.0955 452.525V456.999H96.2958V446.817H98.0558V450.66H98.1452C98.3242 450.23 98.601 449.89 98.9755 449.641C99.3533 449.389 99.8339 449.263 100.417 449.263C100.948 449.263 101.41 449.375 101.804 449.597C102.199 449.819 102.504 450.143 102.719 450.571C102.938 450.999 103.047 451.521 103.047 452.137V456.999H101.248V452.415C101.248 451.902 101.115 451.502 100.85 451.217C100.588 450.929 100.22 450.785 99.7461 450.785C99.4279 450.785 99.1429 450.854 98.891 450.994C98.6424 451.129 98.4469 451.327 98.3043 451.585C98.1651 451.844 98.0955 452.157 98.0955 452.525ZM108.213 457.148C107.467 457.148 106.821 456.984 106.274 456.656C105.727 456.328 105.303 455.869 105.001 455.279C104.703 454.689 104.554 454 104.554 453.211C104.554 452.422 104.703 451.731 105.001 451.138C105.303 450.544 105.727 450.084 106.274 449.756C106.821 449.428 107.467 449.263 108.213 449.263C108.958 449.263 109.605 449.428 110.152 449.756C110.699 450.084 111.121 450.544 111.419 451.138C111.721 451.731 111.872 452.422 111.872 453.211C111.872 454 111.721 454.689 111.419 455.279C111.121 455.869 110.699 456.328 110.152 456.656C109.605 456.984 108.958 457.148 108.213 457.148ZM108.223 455.707C108.627 455.707 108.965 455.596 109.237 455.374C109.509 455.148 109.711 454.847 109.843 454.469C109.979 454.091 110.047 453.67 110.047 453.206C110.047 452.739 109.979 452.316 109.843 451.938C109.711 451.557 109.509 451.254 109.237 451.028C108.965 450.803 108.627 450.69 108.223 450.69C107.808 450.69 107.464 450.803 107.189 451.028C106.917 451.254 106.713 451.557 106.577 451.938C106.444 452.316 106.378 452.739 106.378 453.206C106.378 453.67 106.444 454.091 106.577 454.469C106.713 454.847 106.917 455.148 107.189 455.374C107.464 455.596 107.808 455.707 108.223 455.707ZM118.267 453.788V449.363H120.066V456.999H118.321V455.642H118.242C118.069 456.07 117.786 456.419 117.392 456.691C117 456.963 116.518 457.099 115.945 457.099C115.444 457.099 115.002 456.988 114.617 456.766C114.236 456.54 113.938 456.214 113.722 455.786C113.507 455.355 113.399 454.835 113.399 454.225V449.363H115.199V453.947C115.199 454.431 115.332 454.815 115.597 455.1C115.862 455.385 116.21 455.528 116.641 455.528C116.906 455.528 117.163 455.463 117.411 455.334C117.66 455.205 117.864 455.012 118.023 454.757C118.185 454.499 118.267 454.175 118.267 453.788ZM127.952 451.381L126.312 451.56C126.265 451.395 126.184 451.239 126.068 451.093C125.955 450.947 125.803 450.83 125.611 450.74C125.419 450.651 125.183 450.606 124.905 450.606C124.53 450.606 124.215 450.687 123.96 450.849C123.708 451.012 123.584 451.222 123.587 451.481C123.584 451.703 123.665 451.884 123.831 452.023C124 452.162 124.278 452.276 124.666 452.366L125.969 452.644C126.691 452.8 127.228 453.047 127.58 453.385C127.934 453.723 128.113 454.165 128.116 454.712C128.113 455.193 127.972 455.617 127.694 455.985C127.419 456.35 127.036 456.635 126.545 456.84C126.055 457.046 125.491 457.148 124.855 457.148C123.92 457.148 123.168 456.953 122.598 456.562C122.028 456.167 121.688 455.619 121.579 454.916L123.334 454.747C123.413 455.092 123.582 455.352 123.841 455.528C124.099 455.703 124.436 455.791 124.85 455.791C125.278 455.791 125.621 455.703 125.879 455.528C126.141 455.352 126.272 455.135 126.272 454.876C126.272 454.658 126.188 454.477 126.018 454.334C125.853 454.192 125.594 454.083 125.243 454.006L123.94 453.733C123.208 453.58 122.666 453.324 122.315 452.962C121.963 452.598 121.789 452.137 121.793 451.58C121.789 451.11 121.917 450.702 122.175 450.357C122.437 450.009 122.8 449.741 123.264 449.552C123.732 449.36 124.27 449.263 124.88 449.263C125.775 449.263 126.479 449.454 126.993 449.835C127.51 450.216 127.83 450.732 127.952 451.381ZM132.981 457.148C132.216 457.148 131.554 456.989 130.998 456.671C130.444 456.35 130.018 455.896 129.72 455.309C129.422 454.719 129.272 454.025 129.272 453.226C129.272 452.44 129.422 451.751 129.72 451.158C130.021 450.561 130.442 450.097 130.983 449.766C131.523 449.431 132.158 449.263 132.887 449.263C133.357 449.263 133.801 449.34 134.219 449.492C134.64 449.641 135.011 449.873 135.333 450.188C135.658 450.503 135.913 450.904 136.098 451.391C136.284 451.875 136.377 452.452 136.377 453.121V453.673H130.118V452.46H134.652C134.648 452.116 134.574 451.809 134.428 451.54C134.282 451.269 134.078 451.055 133.816 450.899C133.558 450.743 133.256 450.665 132.912 450.665C132.544 450.665 132.221 450.755 131.942 450.934C131.664 451.11 131.447 451.342 131.291 451.63C131.138 451.915 131.06 452.228 131.057 452.57V453.629C131.057 454.073 131.138 454.454 131.301 454.772C131.463 455.087 131.69 455.329 131.982 455.498C132.274 455.664 132.615 455.746 133.006 455.746C133.268 455.746 133.505 455.71 133.717 455.637C133.929 455.561 134.113 455.45 134.269 455.304C134.425 455.158 134.542 454.977 134.622 454.762L136.302 454.951C136.196 455.395 135.994 455.783 135.696 456.114C135.401 456.442 135.023 456.698 134.562 456.88C134.101 457.059 133.574 457.148 132.981 457.148ZM142.056 446.34L138.774 458.531H137.198L140.48 446.34H142.056ZM32.184 475.999H28.7338V465.817H32.2536C33.2645 465.817 34.1329 466.021 34.8588 466.429C35.5879 466.833 36.1481 467.415 36.5392 468.174C36.9303 468.933 37.1258 469.841 37.1258 470.898C37.1258 471.959 36.9286 472.87 36.5342 473.633C36.1431 474.395 35.578 474.98 34.8389 475.388C34.1031 475.795 33.2181 475.999 32.184 475.999ZM30.5782 474.403H32.0945C32.8038 474.403 33.3954 474.274 33.8694 474.016C34.3434 473.754 34.6997 473.364 34.9383 472.847C35.1769 472.327 35.2963 471.677 35.2963 470.898C35.2963 470.12 35.1769 469.473 34.9383 468.959C34.6997 468.442 34.3467 468.056 33.8794 467.801C33.4153 467.543 32.8386 467.413 32.1492 467.413H30.5782V474.403ZM40.9962 476.153C40.5123 476.153 40.0764 476.067 39.6887 475.895C39.3042 475.719 38.9993 475.461 38.7739 475.119C38.5518 474.778 38.4408 474.357 38.4408 473.857C38.4408 473.426 38.5203 473.069 38.6794 472.788C38.8385 472.506 39.0556 472.281 39.3307 472.111C39.6058 471.942 39.9157 471.815 40.2604 471.729C40.6084 471.639 40.968 471.575 41.3392 471.535C41.7867 471.488 42.1496 471.447 42.428 471.41C42.7064 471.371 42.9086 471.311 43.0345 471.232C43.1638 471.149 43.2284 471.021 43.2284 470.849V470.819C43.2284 470.444 43.1174 470.154 42.8953 469.949C42.6733 469.743 42.3534 469.641 41.9358 469.641C41.495 469.641 41.1453 469.737 40.8868 469.929C40.6316 470.121 40.4593 470.348 40.3698 470.61L38.6894 470.371C38.8219 469.907 39.0407 469.52 39.3456 469.208C39.6505 468.893 40.0234 468.658 40.4642 468.502C40.905 468.343 41.3923 468.263 41.9259 468.263C42.2938 468.263 42.66 468.307 43.0246 468.393C43.3892 468.479 43.7223 468.621 44.0239 468.82C44.3255 469.016 44.5674 469.283 44.7497 469.621C44.9353 469.959 45.0281 470.381 45.0281 470.888V475.999H43.298V474.95H43.2384C43.129 475.162 42.9749 475.361 42.776 475.547C42.5805 475.729 42.3335 475.877 42.0352 475.989C41.7403 476.099 41.3939 476.153 40.9962 476.153ZM41.4635 474.831C41.8248 474.831 42.138 474.76 42.4031 474.617C42.6683 474.471 42.8721 474.279 43.0146 474.04C43.1605 473.802 43.2334 473.542 43.2334 473.26V472.36C43.1771 472.406 43.0809 472.45 42.945 472.489C42.8125 472.529 42.6633 472.564 42.4976 472.594C42.3319 472.624 42.1678 472.65 42.0054 472.673C41.843 472.696 41.7021 472.716 41.5828 472.733C41.3144 472.769 41.0741 472.829 40.8619 472.912C40.6498 472.995 40.4825 473.111 40.3598 473.26C40.2372 473.406 40.1759 473.595 40.1759 473.827C40.1759 474.158 40.2968 474.408 40.5388 474.577C40.7807 474.746 41.089 474.831 41.4635 474.831ZM50.651 468.363V469.755H46.2611V468.363H50.651ZM47.3449 466.533H49.1446V473.702C49.1446 473.944 49.1811 474.13 49.254 474.259C49.3302 474.385 49.4297 474.471 49.5523 474.518C49.6749 474.564 49.8108 474.587 49.96 474.587C50.0727 474.587 50.1754 474.579 50.2682 474.562C50.3643 474.546 50.4372 474.531 50.4869 474.518L50.7902 475.925C50.6941 475.958 50.5566 475.994 50.3776 476.034C50.2019 476.074 49.9865 476.097 49.7313 476.104C49.2805 476.117 48.8745 476.049 48.5132 475.9C48.152 475.747 47.8653 475.512 47.6531 475.194C47.4443 474.876 47.3416 474.478 47.3449 474.001V466.533ZM54.3536 476.153C53.8697 476.153 53.4339 476.067 53.0461 475.895C52.6616 475.719 52.3567 475.461 52.1313 475.119C51.9092 474.778 51.7982 474.357 51.7982 473.857C51.7982 473.426 51.8778 473.069 52.0368 472.788C52.1959 472.506 52.413 472.281 52.6881 472.111C52.9632 471.942 53.2731 471.815 53.6178 471.729C53.9658 471.639 54.3254 471.575 54.6966 471.535C55.1441 471.488 55.507 471.447 55.7854 471.41C56.0638 471.371 56.266 471.311 56.392 471.232C56.5212 471.149 56.5858 471.021 56.5858 470.849V470.819C56.5858 470.444 56.4748 470.154 56.2528 469.949C56.0307 469.743 55.7108 469.641 55.2932 469.641C54.8524 469.641 54.5028 469.737 54.2442 469.929C53.989 470.121 53.8167 470.348 53.7272 470.61L52.0468 470.371C52.1794 469.907 52.3981 469.52 52.703 469.208C53.008 468.893 53.3808 468.658 53.8216 468.502C54.2625 468.343 54.7497 468.263 55.2833 468.263C55.6512 468.263 56.0174 468.307 56.382 468.393C56.7466 468.479 57.0797 468.621 57.3813 468.82C57.6829 469.016 57.9249 469.283 58.1072 469.621C58.2928 469.959 58.3856 470.381 58.3856 470.888V475.999H56.6555V474.95H56.5958C56.4864 475.162 56.3323 475.361 56.1334 475.547C55.9379 475.729 55.691 475.877 55.3927 475.989C55.0977 476.099 54.7513 476.153 54.3536 476.153ZM54.8209 474.831C55.1822 474.831 55.4954 474.76 55.7606 474.617C56.0257 474.471 56.2296 474.279 56.3721 474.04C56.5179 473.802 56.5908 473.542 56.5908 473.26V472.36C56.5345 472.406 56.4384 472.45 56.3025 472.489C56.1699 472.529 56.0207 472.564 55.855 472.594C55.6893 472.624 55.5252 472.65 55.3628 472.673C55.2004 472.696 55.0596 472.716 54.9403 472.733C54.6718 472.769 54.4315 472.829 54.2194 472.912C54.0073 472.995 53.8399 473.111 53.7172 473.26C53.5946 473.406 53.5333 473.595 53.5333 473.827C53.5333 474.158 53.6543 474.408 53.8962 474.577C54.1382 474.746 54.4464 474.831 54.8209 474.831ZM63.7474 475.999V465.817H65.5919V474.453H70.0763V475.999H63.7474ZM73.795 476.153C73.3111 476.153 72.8753 476.067 72.4875 475.895C72.103 475.719 71.7981 475.461 71.5727 475.119C71.3506 474.778 71.2396 474.357 71.2396 473.857C71.2396 473.426 71.3192 473.069 71.4782 472.788C71.6373 472.506 71.8544 472.281 72.1295 472.111C72.4046 471.942 72.7145 471.815 73.0592 471.729C73.4072 471.639 73.7668 471.575 74.1381 471.535C74.5855 471.488 74.9484 471.447 75.2268 471.41C75.5052 471.371 75.7074 471.311 75.8334 471.232C75.9626 471.149 76.0273 471.021 76.0273 470.849V470.819C76.0273 470.444 75.9162 470.154 75.6942 469.949C75.4721 469.743 75.1523 469.641 74.7346 469.641C74.2938 469.641 73.9442 469.737 73.6856 469.929C73.4304 470.121 73.2581 470.348 73.1686 470.61L71.4882 470.371C71.6208 469.907 71.8395 469.52 72.1444 469.208C72.4494 468.893 72.8222 468.658 73.2631 468.502C73.7039 468.343 74.1911 468.263 74.7247 468.263C75.0926 468.263 75.4588 468.307 75.8234 468.393C76.188 468.479 76.5211 468.621 76.8227 468.82C77.1243 469.016 77.3663 469.283 77.5486 469.621C77.7342 469.959 77.827 470.381 77.827 470.888V475.999H76.0969V474.95H76.0372C75.9278 475.162 75.7737 475.361 75.5748 475.547C75.3793 475.729 75.1324 475.877 74.8341 475.989C74.5391 476.099 74.1927 476.153 73.795 476.153ZM74.2623 474.831C74.6236 474.831 74.9368 474.76 75.202 474.617C75.4671 474.471 75.671 474.279 75.8135 474.04C75.9593 473.802 76.0322 473.542 76.0322 473.26V472.36C75.9759 472.406 75.8798 472.45 75.7439 472.489C75.6113 472.529 75.4622 472.564 75.2964 472.594C75.1307 472.624 74.9666 472.65 74.8042 472.673C74.6418 472.696 74.501 472.716 74.3817 472.733C74.1132 472.769 73.8729 472.829 73.6608 472.912C73.4487 472.995 73.2813 473.111 73.1586 473.26C73.036 473.406 72.9747 473.595 72.9747 473.827C72.9747 474.158 73.0957 474.408 73.3376 474.577C73.5796 474.746 73.8878 474.831 74.2623 474.831ZM81.2773 473.603L81.2723 471.43H81.5606L84.305 468.363H86.4079L83.0322 472.121H82.6594L81.2773 473.603ZM79.6366 475.999V465.817H81.4363V475.999H79.6366ZM84.4292 475.999L81.9434 472.524L83.1565 471.256L86.5819 475.999H84.4292ZM90.6736 476.148C89.9079 476.148 89.2467 475.989 88.6899 475.671C88.1364 475.35 87.7105 474.896 87.4122 474.309C87.1139 473.719 86.9648 473.025 86.9648 472.226C86.9648 471.44 87.1139 470.751 87.4122 470.158C87.7138 469.561 88.1347 469.097 88.675 468.766C89.2152 468.431 89.8499 468.263 90.5791 468.263C91.0497 468.263 91.4939 468.34 91.9115 468.492C92.3324 468.641 92.7036 468.873 93.0251 469.188C93.3499 469.503 93.6051 469.904 93.7907 470.391C93.9764 470.875 94.0692 471.452 94.0692 472.121V472.673H87.8099V471.46H92.344C92.3407 471.116 92.2661 470.809 92.1203 470.54C91.9745 470.269 91.7706 470.055 91.5088 469.899C91.2503 469.743 90.9487 469.665 90.604 469.665C90.2361 469.665 89.9129 469.755 89.6345 469.934C89.3561 470.11 89.139 470.342 88.9832 470.63C88.8308 470.915 88.7529 471.228 88.7496 471.57V472.629C88.7496 473.073 88.8308 473.454 88.9932 473.772C89.1556 474.087 89.3826 474.329 89.6743 474.498C89.9659 474.664 90.3073 474.746 90.6984 474.746C90.9603 474.746 91.1972 474.71 91.4094 474.637C91.6215 474.561 91.8054 474.45 91.9612 474.304C92.117 474.158 92.2346 473.977 92.3142 473.762L93.9946 473.951C93.8885 474.395 93.6863 474.783 93.3881 475.114C93.0931 475.442 92.7152 475.698 92.2545 475.88C91.7938 476.059 91.2668 476.148 90.6736 476.148ZM97.3914 471.525V475.999H95.5917V465.817H97.3517V469.66H97.4411C97.6201 469.23 97.8969 468.89 98.2714 468.641C98.6492 468.389 99.1298 468.263 99.7132 468.263C100.243 468.263 100.706 468.375 101.1 468.597C101.495 468.819 101.8 469.143 102.015 469.571C102.234 469.999 102.343 470.521 102.343 471.137V475.999H100.543V471.415C100.543 470.902 100.411 470.502 100.146 470.217C99.8838 469.929 99.516 469.785 99.042 469.785C98.7238 469.785 98.4388 469.854 98.1869 469.994C97.9383 470.129 97.7427 470.327 97.6002 470.585C97.461 470.844 97.3914 471.157 97.3914 471.525ZM107.509 476.148C106.763 476.148 106.117 475.984 105.57 475.656C105.023 475.328 104.599 474.869 104.297 474.279C103.999 473.689 103.85 473 103.85 472.211C103.85 471.422 103.999 470.731 104.297 470.138C104.599 469.544 105.023 469.084 105.57 468.756C106.117 468.428 106.763 468.263 107.509 468.263C108.254 468.263 108.901 468.428 109.448 468.756C109.994 469.084 110.417 469.544 110.715 470.138C111.017 470.731 111.168 471.422 111.168 472.211C111.168 473 111.017 473.689 110.715 474.279C110.417 474.869 109.994 475.328 109.448 475.656C108.901 475.984 108.254 476.148 107.509 476.148ZM107.519 474.707C107.923 474.707 108.261 474.596 108.533 474.374C108.805 474.148 109.007 473.847 109.139 473.469C109.275 473.091 109.343 472.67 109.343 472.206C109.343 471.739 109.275 471.316 109.139 470.938C109.007 470.557 108.805 470.254 108.533 470.028C108.261 469.803 107.923 469.69 107.519 469.69C107.104 469.69 106.76 469.803 106.484 470.028C106.213 470.254 106.009 470.557 105.873 470.938C105.74 471.316 105.674 471.739 105.674 472.206C105.674 472.67 105.74 473.091 105.873 473.469C106.009 473.847 106.213 474.148 106.484 474.374C106.76 474.596 107.104 474.707 107.519 474.707ZM117.562 472.788V468.363H119.362V475.999H117.617V474.642H117.538C117.365 475.07 117.082 475.419 116.687 475.691C116.296 475.963 115.814 476.099 115.241 476.099C114.74 476.099 114.298 475.988 113.913 475.766C113.532 475.54 113.234 475.214 113.018 474.786C112.803 474.355 112.695 473.835 112.695 473.225V468.363H114.495V472.947C114.495 473.431 114.628 473.815 114.893 474.1C115.158 474.385 115.506 474.528 115.937 474.528C116.202 474.528 116.459 474.463 116.707 474.334C116.956 474.205 117.16 474.012 117.319 473.757C117.481 473.499 117.562 473.175 117.562 472.788ZM127.248 470.381L125.608 470.56C125.561 470.395 125.48 470.239 125.364 470.093C125.251 469.947 125.099 469.83 124.907 469.74C124.714 469.651 124.479 469.606 124.201 469.606C123.826 469.606 123.511 469.687 123.256 469.849C123.004 470.012 122.88 470.222 122.883 470.481C122.88 470.703 122.961 470.884 123.127 471.023C123.296 471.162 123.574 471.276 123.962 471.366L125.265 471.644C125.987 471.8 126.524 472.047 126.875 472.385C127.23 472.723 127.409 473.165 127.412 473.712C127.409 474.193 127.268 474.617 126.99 474.985C126.715 475.35 126.332 475.635 125.841 475.84C125.351 476.046 124.787 476.148 124.151 476.148C123.216 476.148 122.464 475.953 121.894 475.562C121.324 475.167 120.984 474.619 120.875 473.916L122.63 473.747C122.709 474.092 122.878 474.352 123.137 474.528C123.395 474.703 123.732 474.791 124.146 474.791C124.574 474.791 124.917 474.703 125.175 474.528C125.437 474.352 125.568 474.135 125.568 473.876C125.568 473.658 125.483 473.477 125.314 473.334C125.149 473.192 124.89 473.083 124.539 473.006L123.236 472.733C122.504 472.58 121.962 472.324 121.611 471.962C121.259 471.598 121.085 471.137 121.089 470.58C121.085 470.11 121.213 469.702 121.471 469.357C121.733 469.009 122.096 468.741 122.56 468.552C123.027 468.36 123.566 468.263 124.176 468.263C125.071 468.263 125.775 468.454 126.289 468.835C126.806 469.216 127.126 469.732 127.248 470.381ZM132.277 476.148C131.511 476.148 130.85 475.989 130.293 475.671C129.74 475.35 129.314 474.896 129.016 474.309C128.717 473.719 128.568 473.025 128.568 472.226C128.568 471.44 128.717 470.751 129.016 470.158C129.317 469.561 129.738 469.097 130.278 468.766C130.819 468.431 131.453 468.263 132.183 468.263C132.653 468.263 133.097 468.34 133.515 468.492C133.936 468.641 134.307 468.873 134.629 469.188C134.953 469.503 135.209 469.904 135.394 470.391C135.58 470.875 135.673 471.452 135.673 472.121V472.673H129.413V471.46H133.948C133.944 471.116 133.87 470.809 133.724 470.54C133.578 470.269 133.374 470.055 133.112 469.899C132.854 469.743 132.552 469.665 132.207 469.665C131.84 469.665 131.516 469.755 131.238 469.934C130.96 470.11 130.743 470.342 130.587 470.63C130.434 470.915 130.356 471.228 130.353 471.57V472.629C130.353 473.073 130.434 473.454 130.597 473.772C130.759 474.087 130.986 474.329 131.278 474.498C131.569 474.664 131.911 474.746 132.302 474.746C132.564 474.746 132.801 474.71 133.013 474.637C133.225 474.561 133.409 474.45 133.565 474.304C133.72 474.158 133.838 473.977 133.918 473.762L135.598 473.951C135.492 474.395 135.29 474.783 134.992 475.114C134.697 475.442 134.319 475.698 133.858 475.88C133.397 476.059 132.87 476.148 132.277 476.148Z" fill="#CDDAED"/>
<path d="M0 401.999H320" stroke="url(#paint1_linear_852_267)" stroke-opacity="0.9"/>
<path d="M0 371.999H320" stroke="url(#paint2_linear_852_267)" stroke-opacity="0.9"/>
<path d="M0 341.999H320" stroke="url(#paint3_linear_852_267)" stroke-opacity="0.9"/>
<path d="M0 311.999L320 311.999" stroke="url(#paint4_linear_852_267)" stroke-opacity="0.9"/>
<path d="M0 281.999H320" stroke="url(#paint5_linear_852_267)" stroke-opacity="0.9"/>
<path d="M0 251.999L320 250.922" stroke="url(#paint6_linear_852_267)" stroke-opacity="0.9"/>
<path d="M0 219.999L320 218.922" stroke="url(#paint7_linear_852_267)" stroke-opacity="0.9"/>
<path d="M49 401.999H114V431.999H49V401.999Z" fill="#6ECFE5"/>
<path d="M49 402.749H114V401.249H49V402.749Z" fill="#080C26"/>
<path d="M49.75 224.999C49.75 222.1 52.1005 219.749 55 219.749H108C110.899 219.749 113.25 222.1 113.25 224.999V400.249H49.75V224.999Z" fill="#0D2651" stroke="#1F8EFF" stroke-width="1.5"/>
<path d="M206 401.999H271V431.999H206V401.999Z" fill="#6ECFE5"/>
<path d="M206 402.749H271V401.249H206V402.749Z" fill="#080C26"/>
<path d="M206 362.999H271V400.999H206V362.999Z" fill="#7557FF"/>
<path d="M206 363.749H271V362.249H206V363.749Z" fill="#080C26"/>
<path d="M206.75 315.999C206.75 313.1 209.101 310.749 212 310.749H265C267.899 310.749 270.25 313.1 270.25 315.999V361.249H206.75V315.999Z" fill="#0D2651" stroke="#1F8EFF" stroke-width="1.5"/>
<path d="M243 234.033L237.707 256L218.161 241.078L225.161 239.093C223.707 236.296 222.015 233.596 220.1 231.012C217.363 227.355 214.186 223.956 210.619 220.87C206.996 217.743 203.029 214.922 198.774 212.449C194.455 209.937 189.907 207.727 185.175 205.84C175.652 202.02 165.414 199.343 154.954 197.49C144.42 195.677 133.736 194.578 123 194.206C133.815 193.757 144.655 194.041 155.417 195.057C166.208 196.126 176.981 198.055 187.375 201.297C192.609 202.918 197.682 204.899 202.545 207.219C207.473 209.572 212.125 212.326 216.438 215.444C220.808 218.617 224.775 222.176 228.273 226.063C231.1 229.217 233.619 232.565 235.802 236.075L243 234.033Z" fill="url(#paint8_linear_852_267)"/>
<path d="M242.875 233.591L243.631 233.377L243.446 234.14L238.154 256.107L237.989 256.792L237.429 256.365L217.882 241.443L217.153 240.887L218.036 240.636L224.491 238.805C223.108 236.208 221.518 233.696 219.731 231.286C217.015 227.657 213.861 224.282 210.319 221.217C206.718 218.109 202.774 215.306 198.543 212.846L198.543 212.846C194.244 210.345 189.717 208.145 185.005 206.267L185.004 206.267C175.517 202.461 165.311 199.791 154.875 197.943C144.362 196.133 133.699 195.037 122.984 194.665L122.981 193.747C133.817 193.297 144.677 193.582 155.46 194.6L155.463 194.6C166.276 195.672 177.081 197.605 187.511 200.858C192.765 202.486 197.859 204.475 202.742 206.804L202.743 206.804C207.695 209.169 212.371 211.938 216.707 215.072L216.708 215.072C221.103 218.263 225.094 221.844 228.615 225.756L228.615 225.756C231.381 228.842 233.853 232.113 236.008 235.539L242.875 233.591Z" stroke="url(#paint9_linear_852_267)" stroke-opacity="0.5" stroke-width="0.918522"/>
<rect x="29" y="167.999" width="105" height="42" rx="8" fill="url(#paint10_linear_852_267)"/>
<rect x="29.5" y="168.499" width="104" height="41" rx="7.5" stroke="url(#paint11_linear_852_267)" stroke-opacity="0.9"/>
<path d="M49.2457 195.772V183.045H50.0611V195.772H49.2457ZM51.4084 187.246C51.3686 186.845 51.1979 186.533 50.8963 186.311C50.5947 186.089 50.1854 185.978 49.6683 185.978C49.317 185.978 49.0204 186.028 48.7784 186.127C48.5365 186.223 48.3509 186.357 48.2216 186.53C48.0956 186.702 48.0327 186.898 48.0327 187.116C48.026 187.299 48.0642 187.458 48.147 187.594C48.2332 187.73 48.3509 187.847 48.5 187.947C48.6491 188.043 48.8215 188.127 49.017 188.2C49.2126 188.27 49.4214 188.33 49.6435 188.379L50.5582 188.598C51.0024 188.697 51.41 188.83 51.7812 188.996C52.1525 189.161 52.474 189.365 52.7457 189.607C53.0175 189.849 53.228 190.134 53.3771 190.462C53.5296 190.79 53.6075 191.167 53.6108 191.591C53.6075 192.214 53.4484 192.754 53.1335 193.212C52.822 193.666 52.3712 194.019 51.7812 194.271C51.1946 194.519 50.487 194.643 49.6584 194.643C48.8364 194.643 48.1205 194.517 47.5107 194.266C46.9041 194.014 46.4302 193.641 46.0888 193.147C45.7507 192.65 45.5734 192.035 45.5568 191.303H47.6399C47.6631 191.644 47.7609 191.929 47.9332 192.158C48.1089 192.383 48.3426 192.554 48.6342 192.67C48.9292 192.782 49.2623 192.839 49.6335 192.839C49.9981 192.839 50.3146 192.786 50.5831 192.68C50.8549 192.574 51.0653 192.426 51.2145 192.237C51.3636 192.048 51.4382 191.831 51.4382 191.586C51.4382 191.357 51.3703 191.165 51.2344 191.009C51.1018 190.853 50.9063 190.721 50.6477 190.611C50.3925 190.502 50.0793 190.403 49.7081 190.313L48.5994 190.035C47.741 189.826 47.0632 189.5 46.5661 189.055C46.0689 188.611 45.822 188.013 45.8253 187.261C45.822 186.644 45.986 186.106 46.3175 185.645C46.6522 185.184 47.1113 184.825 47.6946 184.566C48.2779 184.308 48.9408 184.178 49.6832 184.178C50.4389 184.178 51.0985 184.308 51.6619 184.566C52.2287 184.825 52.6695 185.184 52.9844 185.645C53.2992 186.106 53.4616 186.639 53.4716 187.246H51.4084ZM58.7626 194.638C58.0202 194.638 57.359 194.511 56.7789 194.256C56.2022 193.997 55.7465 193.642 55.4118 193.192C55.0803 192.738 54.9096 192.214 54.8997 191.621H57.0673C57.0806 191.869 57.1618 192.088 57.3109 192.277C57.4634 192.463 57.6655 192.607 57.9174 192.709C58.1693 192.812 58.4527 192.864 58.7676 192.864C59.0957 192.864 59.3857 192.806 59.6376 192.69C59.8895 192.574 60.0867 192.413 60.2292 192.207C60.3717 192.002 60.443 191.765 60.443 191.496C60.443 191.225 60.3668 190.984 60.2143 190.776C60.0652 190.563 59.8497 190.398 59.568 190.278C59.2896 190.159 58.9582 190.099 58.5737 190.099H57.6241V188.518H58.5737C58.8985 188.518 59.1852 188.462 59.4338 188.349C59.6857 188.237 59.8812 188.081 60.0204 187.882C60.1596 187.68 60.2292 187.445 60.2292 187.176C60.2292 186.921 60.1679 186.697 60.0453 186.505C59.926 186.309 59.7569 186.157 59.5382 186.048C59.3227 185.938 59.0708 185.884 58.7825 185.884C58.4908 185.884 58.224 185.937 57.9821 186.043C57.7401 186.145 57.5462 186.293 57.4004 186.485C57.2546 186.677 57.1767 186.903 57.1667 187.161H55.1035C55.1135 186.575 55.2808 186.058 55.6056 185.61C55.9305 185.163 56.368 184.813 56.9181 184.561C57.4717 184.306 58.0964 184.178 58.7924 184.178C59.4951 184.178 60.1099 184.306 60.6369 184.561C61.1639 184.816 61.5732 185.161 61.8649 185.595C62.1599 186.026 62.3057 186.51 62.3024 187.047C62.3057 187.617 62.1284 188.093 61.7704 188.474C61.4158 188.855 60.9534 189.097 60.3833 189.2V189.279C61.1324 189.375 61.7025 189.635 62.0936 190.06C62.488 190.481 62.6835 191.008 62.6802 191.641C62.6835 192.221 62.5162 192.736 62.1781 193.187C61.8433 193.638 61.381 193.992 60.791 194.251C60.2011 194.509 59.5249 194.638 58.7626 194.638ZM64.0735 192.709V191.014L68.3242 184.317H69.7859V186.664H68.9208L66.2411 190.905V190.984H72.2816V192.709H64.0735ZM68.9606 194.499V192.192L69.0004 191.442V184.317H71.0188V194.499H68.9606ZM73.7159 194.499V192.948L77.3402 189.592C77.6484 189.294 77.907 189.026 78.1158 188.787C78.3279 188.548 78.4886 188.315 78.598 188.086C78.7074 187.854 78.7621 187.604 78.7621 187.335C78.7621 187.037 78.6941 186.78 78.5582 186.565C78.4223 186.346 78.2367 186.178 78.0014 186.062C77.7661 185.943 77.4993 185.884 77.201 185.884C76.8894 185.884 76.6177 185.946 76.3857 186.072C76.1536 186.198 75.9747 186.379 75.8487 186.614C75.7228 186.85 75.6598 187.13 75.6598 187.455H73.6165C73.6165 186.788 73.7673 186.21 74.0689 185.719C74.3705 185.229 74.7931 184.849 75.3366 184.581C75.8802 184.312 76.5066 184.178 77.2159 184.178C77.9451 184.178 78.5798 184.308 79.12 184.566C79.6636 184.821 80.0862 185.176 80.3878 185.63C80.6894 186.084 80.8402 186.604 80.8402 187.191C80.8402 187.575 80.764 187.955 80.6115 188.33C80.4624 188.704 80.1955 189.12 79.8111 189.577C79.4266 190.031 78.8847 190.577 78.1854 191.213L76.6989 192.67V192.739H80.9744V194.499H73.7159ZM82.5939 194.499V184.317H84.7466V188.807H84.8809L88.5449 184.317H91.1252L87.3468 188.876L91.1699 194.499H88.5946L85.8056 190.313L84.7466 191.606V194.499H82.5939Z" fill="#FF4B4B"/>
<path d="M104.25 192.749L108.75 188.249L111.75 191.249L117.75 185.249" stroke="#DF4343" stroke-width="2.33333" stroke-linecap="round" stroke-linejoin="round"/>
<path d="M114.75 185.249H117.75V188.249" stroke="#DF4343" stroke-width="2.33333" stroke-linecap="round" stroke-linejoin="round"/>
<rect x="191" y="258.999" width="95" height="42" rx="8" fill="url(#paint12_linear_852_267)"/>
<rect x="191.5" y="259.499" width="94" height="41" rx="7.5" stroke="url(#paint13_linear_852_267)" stroke-opacity="0.9"/>
<path d="M211.246 286.772V274.045H212.061V286.772H211.246ZM213.408 278.246C213.369 277.845 213.198 277.533 212.896 277.311C212.595 277.089 212.185 276.978 211.668 276.978C211.317 276.978 211.02 277.028 210.778 277.127C210.536 277.223 210.351 277.357 210.222 277.53C210.096 277.702 210.033 277.898 210.033 278.116C210.026 278.299 210.064 278.458 210.147 278.594C210.233 278.73 210.351 278.847 210.5 278.947C210.649 279.043 210.821 279.127 211.017 279.2C211.213 279.27 211.421 279.33 211.643 279.379L212.558 279.598C213.002 279.697 213.41 279.83 213.781 279.996C214.152 280.161 214.474 280.365 214.746 280.607C215.018 280.849 215.228 281.134 215.377 281.462C215.53 281.79 215.607 282.167 215.611 282.591C215.607 283.214 215.448 283.754 215.134 284.212C214.822 284.666 214.371 285.019 213.781 285.271C213.195 285.519 212.487 285.643 211.658 285.643C210.836 285.643 210.121 285.517 209.511 285.266C208.904 285.014 208.43 284.641 208.089 284.147C207.751 283.65 207.573 283.035 207.557 282.303H209.64C209.663 282.644 209.761 282.929 209.933 283.158C210.109 283.383 210.343 283.554 210.634 283.67C210.929 283.782 211.262 283.839 211.634 283.839C211.998 283.839 212.315 283.786 212.583 283.68C212.855 283.574 213.065 283.426 213.214 283.237C213.364 283.048 213.438 282.831 213.438 282.586C213.438 282.357 213.37 282.165 213.234 282.009C213.102 281.853 212.906 281.721 212.648 281.611C212.393 281.502 212.079 281.403 211.708 281.313L210.599 281.035C209.741 280.826 209.063 280.5 208.566 280.055C208.069 279.611 207.822 279.013 207.825 278.261C207.822 277.644 207.986 277.106 208.317 276.645C208.652 276.184 209.111 275.825 209.695 275.566C210.278 275.308 210.941 275.178 211.683 275.178C212.439 275.178 213.098 275.308 213.662 275.566C214.229 275.825 214.67 276.184 214.984 276.645C215.299 277.106 215.462 277.639 215.472 278.246H213.408ZM217.402 285.499L221.623 277.147V277.077H216.706V275.317H223.85V277.102L219.624 285.499H217.402ZM228.919 285.638C228.153 285.638 227.472 285.514 226.875 285.266C226.282 285.014 225.816 284.671 225.478 284.236C225.14 283.802 224.971 283.31 224.971 282.76C224.971 282.336 225.067 281.946 225.259 281.592C225.455 281.234 225.72 280.937 226.055 280.702C226.39 280.463 226.764 280.311 227.178 280.244V280.175C226.635 280.065 226.194 279.802 225.856 279.384C225.518 278.963 225.349 278.474 225.349 277.918C225.349 277.391 225.503 276.922 225.811 276.511C226.119 276.096 226.542 275.772 227.079 275.536C227.619 275.298 228.232 275.178 228.919 275.178C229.605 275.178 230.216 275.298 230.753 275.536C231.293 275.775 231.718 276.101 232.026 276.516C232.334 276.927 232.49 277.394 232.493 277.918C232.49 278.478 232.317 278.967 231.976 279.384C231.635 279.802 231.197 280.065 230.664 280.175V280.244C231.071 280.311 231.441 280.463 231.772 280.702C232.107 280.937 232.372 281.234 232.568 281.592C232.767 281.946 232.868 282.336 232.871 282.76C232.868 283.31 232.697 283.802 232.359 284.236C232.021 284.671 231.553 285.014 230.957 285.266C230.364 285.514 229.684 285.638 228.919 285.638ZM228.919 284.058C229.26 284.058 229.558 283.996 229.813 283.874C230.069 283.748 230.267 283.575 230.41 283.357C230.556 283.134 230.629 282.879 230.629 282.591C230.629 282.296 230.554 282.036 230.405 281.81C230.256 281.582 230.054 281.403 229.798 281.273C229.543 281.141 229.25 281.075 228.919 281.075C228.59 281.075 228.297 281.141 228.039 281.273C227.78 281.403 227.576 281.582 227.427 281.81C227.281 282.036 227.208 282.296 227.208 282.591C227.208 282.879 227.28 283.134 227.422 283.357C227.565 283.575 227.765 283.748 228.024 283.874C228.282 283.996 228.58 284.058 228.919 284.058ZM228.919 279.509C229.204 279.509 229.457 279.45 229.679 279.334C229.901 279.218 230.075 279.058 230.201 278.852C230.327 278.647 230.39 278.41 230.39 278.141C230.39 277.876 230.327 277.644 230.201 277.445C230.075 277.243 229.903 277.086 229.684 276.973C229.465 276.857 229.21 276.799 228.919 276.799C228.63 276.799 228.375 276.857 228.153 276.973C227.931 277.086 227.757 277.243 227.631 277.445C227.508 277.644 227.447 277.876 227.447 278.141C227.447 278.41 227.51 278.647 227.636 278.852C227.762 279.058 227.936 279.218 228.158 279.334C228.38 279.45 228.633 279.509 228.919 279.509ZM234.436 285.499V275.317H236.588V279.807H236.723L240.387 275.317H242.967L239.189 279.876L243.012 285.499H240.436L237.647 281.313L236.588 282.606V285.499H234.436Z" fill="#30D5C8"/>
<path d="M269.75 276.249L265.25 280.749L262.25 277.749L256.25 283.749" stroke="#66F2C3" stroke-width="2.33333" stroke-linecap="round" stroke-linejoin="round"/>
<path d="M259.25 283.749H256.25V280.749" stroke="#66F2C3" stroke-width="2.33333" stroke-linecap="round" stroke-linejoin="round"/>
<path d="M277.97 465.953L273.165 456.556L271.96 457.132L275.552 464.157C275.674 464.339 275.401 464.301 275.401 464.301C271.24 464.256 269.558 460.004 269.558 460.004L271.528 456.207L274.976 454.744L271.793 453.82L268.792 447.999L265.783 453.85L262.615 454.744L266.147 456.252L268.042 460.049C265.768 464.642 262.206 464.324 262.206 464.324C261.956 464.339 262.047 464.203 262.047 464.203L265.624 457.132L264.465 456.54L259.584 466.097H262.828C266.837 466.097 268.701 461.656 268.701 461.656C268.785 461.436 268.868 461.686 268.868 461.686C271.043 466.112 274.211 466.097 274.211 466.097H277.849C278.091 466.105 277.97 465.953 277.97 465.953ZM268.815 458.526L266.882 454.759L268.8 450.993L270.747 454.759L268.815 458.526Z" fill="url(#paint14_linear_852_267)"/>
<path d="M202.585 462.899L201.751 465.908H199L202.585 454.184H206.063L209.701 465.908H206.852L205.95 462.899H202.585ZM205.563 460.921L204.836 458.435C204.623 457.738 204.419 456.866 204.244 456.177H204.207C204.032 456.874 203.858 457.761 203.668 458.435L202.971 460.921H205.563Z" fill="white"/>
<path d="M213.717 460.989H213.755C213.945 460.641 214.157 460.292 214.361 459.966L216.082 457.412H219.265L216.218 460.853L219.697 465.916H216.446L214.392 462.422L213.71 463.255V465.916H211.072V453.562H213.717V460.989Z" fill="white"/>
<path d="M227.678 463.839C227.678 464.657 227.716 465.438 227.799 465.908H225.419L225.26 465.052H225.207C224.654 465.734 223.782 466.097 222.775 466.097C221.054 466.097 220.023 464.847 220.023 463.49C220.023 461.277 222.009 460.224 225.018 460.239V460.118C225.018 459.663 224.775 459.019 223.472 459.019C222.6 459.019 221.683 459.315 221.122 459.663L220.637 457.958C221.228 457.624 222.396 457.208 223.942 457.208C226.776 457.208 227.678 458.875 227.678 460.876V463.839ZM225.101 461.891C223.707 461.876 222.631 462.202 222.631 463.233C222.631 463.915 223.085 464.241 223.676 464.241C224.336 464.241 224.874 463.809 225.048 463.263C225.086 463.127 225.101 462.967 225.101 462.808V461.891Z" fill="white"/>
<path d="M229.745 463.596C230.23 463.892 231.238 464.241 232.026 464.241C232.83 464.241 233.156 463.96 233.156 463.528C233.156 463.096 232.898 462.884 231.905 462.551C230.147 461.959 229.472 461.005 229.488 460.012C229.488 458.413 230.844 457.208 232.951 457.208C233.944 457.208 234.831 457.435 235.354 457.693L234.884 459.519C234.505 459.307 233.77 459.034 233.042 459.034C232.398 459.034 232.034 459.292 232.034 459.731C232.034 460.133 232.367 460.338 233.406 460.709C235.02 461.262 235.702 462.081 235.717 463.331C235.717 464.915 234.467 466.097 232.026 466.097C230.912 466.097 229.92 465.84 229.275 465.491L229.745 463.596Z" fill="white"/>
<path d="M237.311 453.562H239.956V458.413H239.993C240.274 458.049 240.622 457.753 241.039 457.541C241.441 457.329 241.926 457.208 242.411 457.208C244.101 457.208 245.382 458.375 245.382 460.929V465.9H242.737V461.224C242.737 460.11 242.358 459.345 241.365 459.345C240.668 459.345 240.236 459.8 240.046 460.269C239.978 460.444 239.956 460.671 239.956 460.861V465.908H237.311V453.562Z" fill="white"/>
<path d="M253.755 465.908L252.694 463.786C252.262 462.967 251.982 462.361 251.648 461.679H251.61C251.368 462.353 251.072 462.967 250.709 463.786L249.731 465.908H246.707L250.095 459.974L246.828 454.184H249.875L250.898 456.321C251.247 457.033 251.504 457.609 251.785 458.268H251.823C252.103 457.518 252.33 456.995 252.626 456.321L253.619 454.184H256.643L253.338 459.905L256.817 465.908H253.755Z" fill="white"/>
<g filter="url(#filter0_f_852_267)">
<path d="M222.173 136.589C207.163 120.172 178.768 120.57 199.343 105.969C219.918 91.3678 292.338 110.933 307.348 127.35C322.359 143.768 274.274 150.821 253.7 165.423C233.125 180.024 237.184 153.007 222.173 136.589Z" fill="url(#paint15_linear_852_267)" fill-opacity="0.6"/>
</g>
<path d="M42.472 129.999V116.367H37.096V113.199H51.736V116.367H46.36V129.999H42.472ZM61.6336 130.287C60.3376 130.287 59.1296 130.079 58.0096 129.663C56.9056 129.231 55.9456 128.623 55.1296 127.839C54.3136 127.055 53.6736 126.135 53.2096 125.079C52.7616 124.023 52.5376 122.863 52.5376 121.599C52.5376 120.335 52.7616 119.175 53.2096 118.119C53.6736 117.063 54.3136 116.143 55.1296 115.359C55.9616 114.575 56.9296 113.975 58.0336 113.559C59.1376 113.127 60.3456 112.911 61.6576 112.911C63.1136 112.911 64.4256 113.167 65.5936 113.679C66.7776 114.175 67.7696 114.911 68.5696 115.887L66.0736 118.191C65.4976 117.535 64.8576 117.047 64.1536 116.727C63.4496 116.391 62.6816 116.223 61.8496 116.223C61.0656 116.223 60.3456 116.351 59.6896 116.607C59.0336 116.863 58.4656 117.231 57.9856 117.711C57.5056 118.191 57.1296 118.759 56.8576 119.415C56.6016 120.071 56.4736 120.799 56.4736 121.599C56.4736 122.399 56.6016 123.127 56.8576 123.783C57.1296 124.439 57.5056 125.007 57.9856 125.487C58.4656 125.967 59.0336 126.335 59.6896 126.591C60.3456 126.847 61.0656 126.975 61.8496 126.975C62.6816 126.975 63.4496 126.815 64.1536 126.495C64.8576 126.159 65.4976 125.655 66.0736 124.983L68.5696 127.287C67.7696 128.263 66.7776 129.007 65.5936 129.519C64.4256 130.031 63.1056 130.287 61.6336 130.287ZM79.0036 130.287C77.6756 130.287 76.4436 130.071 75.3076 129.639C74.1876 129.207 73.2116 128.599 72.3796 127.815C71.5636 127.031 70.9236 126.111 70.4596 125.055C70.0116 123.999 69.7876 122.847 69.7876 121.599C69.7876 120.351 70.0116 119.199 70.4596 118.143C70.9236 117.087 71.5716 116.167 72.4036 115.383C73.2356 114.599 74.2116 113.991 75.3316 113.559C76.4516 113.127 77.6676 112.911 78.9796 112.911C80.3076 112.911 81.5236 113.127 82.6276 113.559C83.7476 113.991 84.7156 114.599 85.5316 115.383C86.3636 116.167 87.0116 117.087 87.4756 118.143C87.9396 119.183 88.1716 120.335 88.1716 121.599C88.1716 122.847 87.9396 124.007 87.4756 125.079C87.0116 126.135 86.3636 127.055 85.5316 127.839C84.7156 128.607 83.7476 129.207 82.6276 129.639C81.5236 130.071 80.3156 130.287 79.0036 130.287ZM78.9796 126.975C79.7316 126.975 80.4196 126.847 81.0436 126.591C81.6836 126.335 82.2436 125.967 82.7236 125.487C83.2036 125.007 83.5716 124.439 83.8276 123.783C84.0996 123.127 84.2356 122.399 84.2356 121.599C84.2356 120.799 84.0996 120.071 83.8276 119.415C83.5716 118.759 83.2036 118.191 82.7236 117.711C82.2596 117.231 81.7076 116.863 81.0676 116.607C80.4276 116.351 79.7316 116.223 78.9796 116.223C78.2276 116.223 77.5316 116.351 76.8916 116.607C76.2676 116.863 75.7156 117.231 75.2356 117.711C74.7556 118.191 74.3796 118.759 74.1076 119.415C73.8516 120.071 73.7236 120.799 73.7236 121.599C73.7236 122.383 73.8516 123.111 74.1076 123.783C74.3796 124.439 74.7476 125.007 75.2116 125.487C75.6916 125.967 76.2516 126.335 76.8916 126.591C77.5316 126.847 78.2276 126.975 78.9796 126.975ZM97.8904 129.999V113.199H105.162C106.666 113.199 107.962 113.447 109.05 113.943C110.138 114.423 110.978 115.119 111.57 116.031C112.162 116.943 112.458 118.031 112.458 119.295C112.458 120.543 112.162 121.623 111.57 122.535C110.978 123.431 110.138 124.119 109.05 124.599C107.962 125.079 106.666 125.319 105.162 125.319H100.05L101.778 123.615V129.999H97.8904ZM108.57 129.999L104.37 123.903H108.522L112.77 129.999H108.57ZM101.778 124.047L100.05 122.223H104.946C106.146 122.223 107.042 121.967 107.634 121.455C108.226 120.927 108.522 120.207 108.522 119.295C108.522 118.367 108.226 117.647 107.634 117.135C107.042 116.623 106.146 116.367 104.946 116.367H100.05L101.778 114.519V124.047ZM121.683 130.191C120.211 130.191 118.915 129.903 117.795 129.327C116.691 128.751 115.835 127.967 115.227 126.975C114.619 125.967 114.315 124.823 114.315 123.543C114.315 122.247 114.611 121.103 115.203 120.111C115.811 119.103 116.635 118.319 117.675 117.759C118.715 117.183 119.891 116.895 121.203 116.895C122.467 116.895 123.603 117.167 124.611 117.711C125.635 118.239 126.443 119.007 127.035 120.015C127.627 121.007 127.923 122.199 127.923 123.591C127.923 123.735 127.915 123.903 127.899 124.095C127.883 124.271 127.867 124.439 127.851 124.599H117.363V122.415H125.883L124.443 123.063C124.443 122.391 124.307 121.807 124.035 121.311C123.763 120.815 123.387 120.431 122.907 120.159C122.427 119.871 121.867 119.727 121.227 119.727C120.587 119.727 120.019 119.871 119.523 120.159C119.043 120.431 118.667 120.823 118.395 121.335C118.123 121.831 117.987 122.423 117.987 123.111V123.687C117.987 124.391 118.139 125.015 118.443 125.559C118.763 126.087 119.203 126.495 119.763 126.783C120.339 127.055 121.011 127.191 121.779 127.191C122.467 127.191 123.067 127.087 123.579 126.879C124.107 126.671 124.587 126.359 125.019 125.943L127.011 128.103C126.419 128.775 125.675 129.295 124.779 129.663C123.883 130.015 122.851 130.191 121.683 130.191ZM135.96 130.191C134.744 130.191 133.648 129.919 132.672 129.375C131.696 128.815 130.92 128.039 130.344 127.047C129.784 126.055 129.504 124.887 129.504 123.543C129.504 122.183 129.784 121.007 130.344 120.015C130.92 119.023 131.696 118.255 132.672 117.711C133.648 117.167 134.744 116.895 135.96 116.895C137.048 116.895 138 117.135 138.816 117.615C139.632 118.095 140.264 118.823 140.712 119.799C141.16 120.775 141.384 122.023 141.384 123.543C141.384 125.047 141.168 126.295 140.736 127.287C140.304 128.263 139.68 128.991 138.864 129.471C138.064 129.951 137.096 130.191 135.96 130.191ZM136.608 127.119C137.216 127.119 137.768 126.975 138.264 126.687C138.76 126.399 139.152 125.991 139.44 125.463C139.744 124.919 139.896 124.279 139.896 123.543C139.896 122.791 139.744 122.151 139.44 121.623C139.152 121.095 138.76 120.687 138.264 120.399C137.768 120.111 137.216 119.967 136.608 119.967C135.984 119.967 135.424 120.111 134.928 120.399C134.432 120.687 134.032 121.095 133.728 121.623C133.44 122.151 133.296 122.791 133.296 123.543C133.296 124.279 133.44 124.919 133.728 125.463C134.032 125.991 134.432 126.399 134.928 126.687C135.424 126.975 135.984 127.119 136.608 127.119ZM139.992 129.999V127.359L140.064 123.519L139.824 119.703V112.191H143.568V129.999H139.992ZM152.481 130.191C151.409 130.191 150.449 129.983 149.601 129.567C148.769 129.151 148.121 128.519 147.657 127.671C147.193 126.807 146.961 125.711 146.961 124.383V117.087H150.705V123.831C150.705 124.903 150.929 125.695 151.377 126.207C151.841 126.703 152.489 126.951 153.321 126.951C153.897 126.951 154.409 126.831 154.857 126.591C155.305 126.335 155.657 125.951 155.913 125.439C156.169 124.911 156.297 124.255 156.297 123.471V117.087H160.041V129.999H156.489V126.447L157.137 127.479C156.705 128.375 156.065 129.055 155.217 129.519C154.385 129.967 153.473 130.191 152.481 130.191ZM169.749 130.191C168.357 130.191 167.117 129.911 166.029 129.351C164.941 128.775 164.085 127.983 163.461 126.975C162.853 125.967 162.549 124.823 162.549 123.543C162.549 122.247 162.853 121.103 163.461 120.111C164.085 119.103 164.941 118.319 166.029 117.759C167.117 117.183 168.357 116.895 169.749 116.895C171.109 116.895 172.293 117.183 173.301 117.759C174.309 118.319 175.053 119.127 175.533 120.183L172.629 121.743C172.293 121.135 171.869 120.687 171.357 120.399C170.861 120.111 170.317 119.967 169.725 119.967C169.085 119.967 168.509 120.111 167.997 120.399C167.485 120.687 167.077 121.095 166.773 121.623C166.485 122.151 166.341 122.791 166.341 123.543C166.341 124.295 166.485 124.935 166.773 125.463C167.077 125.991 167.485 126.399 167.997 126.687C168.509 126.975 169.085 127.119 169.725 127.119C170.317 127.119 170.861 126.983 171.357 126.711C171.869 126.423 172.293 125.967 172.629 125.343L175.533 126.927C175.053 127.967 174.309 128.775 173.301 129.351C172.293 129.911 171.109 130.191 169.749 130.191ZM183.156 130.191C181.636 130.191 180.452 129.807 179.604 129.039C178.756 128.255 178.332 127.095 178.332 125.559V114.231H182.076V125.511C182.076 126.055 182.22 126.479 182.508 126.783C182.796 127.071 183.188 127.215 183.684 127.215C184.276 127.215 184.78 127.055 185.196 126.735L186.204 129.375C185.82 129.647 185.356 129.855 184.812 129.999C184.284 130.127 183.732 130.191 183.156 130.191ZM176.34 120.255V117.375H185.292V120.255H176.34ZM188.306 129.999V117.087H192.05V129.999H188.306ZM190.178 115.287C189.49 115.287 188.93 115.087 188.498 114.687C188.066 114.287 187.85 113.791 187.85 113.199C187.85 112.607 188.066 112.111 188.498 111.711C188.93 111.311 189.49 111.111 190.178 111.111C190.866 111.111 191.426 111.303 191.858 111.687C192.29 112.055 192.506 112.535 192.506 113.127C192.506 113.751 192.29 114.271 191.858 114.687C191.442 115.087 190.882 115.287 190.178 115.287ZM201.669 130.191C200.293 130.191 199.069 129.903 197.997 129.327C196.941 128.751 196.101 127.967 195.477 126.975C194.869 125.967 194.565 124.823 194.565 123.543C194.565 122.247 194.869 121.103 195.477 120.111C196.101 119.103 196.941 118.319 197.997 117.759C199.069 117.183 200.293 116.895 201.669 116.895C203.029 116.895 204.245 117.183 205.317 117.759C206.389 118.319 207.229 119.095 207.837 120.087C208.445 121.079 208.749 122.231 208.749 123.543C208.749 124.823 208.445 125.967 207.837 126.975C207.229 127.967 206.389 128.751 205.317 129.327C204.245 129.903 203.029 130.191 201.669 130.191ZM201.669 127.119C202.293 127.119 202.853 126.975 203.349 126.687C203.845 126.399 204.237 125.991 204.525 125.463C204.813 124.919 204.957 124.279 204.957 123.543C204.957 122.791 204.813 122.151 204.525 121.623C204.237 121.095 203.845 120.687 203.349 120.399C202.853 120.111 202.293 119.967 201.669 119.967C201.045 119.967 200.485 120.111 199.989 120.399C199.493 120.687 199.093 121.095 198.789 121.623C198.501 122.151 198.357 122.791 198.357 123.543C198.357 124.279 198.501 124.919 198.789 125.463C199.093 125.991 199.493 126.399 199.989 126.687C200.485 126.975 201.045 127.119 201.669 127.119ZM219.099 116.895C220.123 116.895 221.035 117.103 221.835 117.519C222.651 117.919 223.291 118.543 223.755 119.391C224.219 120.223 224.451 121.295 224.451 122.607V129.999H220.707V123.183C220.707 122.143 220.475 121.375 220.011 120.879C219.563 120.383 218.923 120.135 218.091 120.135C217.499 120.135 216.963 120.263 216.483 120.519C216.019 120.759 215.651 121.135 215.379 121.647C215.123 122.159 214.995 122.815 214.995 123.615V129.999H211.251V117.087H214.827V120.663L214.155 119.583C214.619 118.719 215.283 118.055 216.147 117.591C217.011 117.127 217.995 116.895 219.099 116.895Z" fill="#CDDAED"/>
<path d="M236.538 129.999L243.306 114.687L244.314 116.367H235.266L236.994 114.543V119.103H233.538V113.199H247.002V115.719L240.762 129.999H236.538ZM251.421 129.999L258.189 114.687L259.197 116.367H250.149L251.877 114.543V119.103H248.421V113.199H261.885V115.719L255.645 129.999H251.421ZM266.133 129.999L277.605 113.199H280.461L268.989 129.999H266.133ZM267.597 122.271C266.781 122.271 266.061 122.087 265.437 121.719C264.813 121.335 264.317 120.799 263.949 120.111C263.597 119.407 263.421 118.583 263.421 117.639C263.421 116.695 263.597 115.879 263.949 115.191C264.317 114.503 264.813 113.967 265.437 113.583C266.061 113.199 266.781 113.007 267.597 113.007C268.413 113.007 269.133 113.199 269.757 113.583C270.381 113.967 270.869 114.503 271.221 115.191C271.573 115.879 271.749 116.695 271.749 117.639C271.749 118.583 271.573 119.407 271.221 120.111C270.869 120.799 270.381 121.335 269.757 121.719C269.133 122.087 268.413 122.271 267.597 122.271ZM267.597 120.303C268.125 120.303 268.549 120.087 268.869 119.655C269.189 119.207 269.349 118.535 269.349 117.639C269.349 116.743 269.189 116.079 268.869 115.647C268.549 115.199 268.125 114.975 267.597 114.975C267.085 114.975 266.661 115.199 266.325 115.647C266.005 116.079 265.845 116.743 265.845 117.639C265.845 118.519 266.005 119.183 266.325 119.631C266.661 120.079 267.085 120.303 267.597 120.303ZM278.997 130.191C278.197 130.191 277.477 130.007 276.837 129.639C276.213 129.255 275.725 128.719 275.373 128.031C275.021 127.327 274.845 126.503 274.845 125.559C274.845 124.615 275.021 123.799 275.373 123.111C275.725 122.423 276.213 121.887 276.837 121.503C277.477 121.119 278.197 120.927 278.997 120.927C279.829 120.927 280.557 121.119 281.181 121.503C281.805 121.887 282.293 122.423 282.645 123.111C282.997 123.799 283.173 124.615 283.173 125.559C283.173 126.503 282.997 127.327 282.645 128.031C282.293 128.719 281.805 129.255 281.181 129.639C280.557 130.007 279.829 130.191 278.997 130.191ZM278.997 128.223C279.525 128.223 279.949 128.007 280.269 127.575C280.589 127.127 280.749 126.455 280.749 125.559C280.749 124.679 280.589 124.015 280.269 123.567C279.949 123.119 279.525 122.895 278.997 122.895C278.485 122.895 278.061 123.119 277.725 123.567C277.405 123.999 277.245 124.663 277.245 125.559C277.245 126.455 277.405 127.127 277.725 127.575C278.061 128.007 278.485 128.223 278.997 128.223Z" fill="#30D5C8"/>
<defs>
<filter id="filter0_f_852_267" x="92.0367" y="0.758163" width="318.249" height="268.931" filterUnits="userSpaceOnUse" color-interpolation-filters="sRGB">
<feFlood flood-opacity="0" result="BackgroundImageFix"/>
<feBlend mode="normal" in="SourceGraphic" in2="BackgroundImageFix" result="shape"/>
<feGaussianBlur stdDeviation="50.0412" result="effect1_foregroundBlur_852_267"/>
</filter>
<linearGradient id="paint0_linear_852_267" x1="0" y1="431.999" x2="317.103" y2="431.999" gradientUnits="userSpaceOnUse">
<stop stop-color="#080C26"/>
<stop offset="0.465026" stop-color="#50688B" stop-opacity="0.3"/>
<stop offset="1" stop-color="#080C26"/>
</linearGradient>
<linearGradient id="paint1_linear_852_267" x1="0" y1="401.999" x2="317.103" y2="401.999" gradientUnits="userSpaceOnUse">
<stop stop-color="#080C26"/>
<stop offset="0.465026" stop-color="#50688B" stop-opacity="0.3"/>
<stop offset="1" stop-color="#080C26"/>
</linearGradient>
<linearGradient id="paint2_linear_852_267" x1="0" y1="371.999" x2="317.103" y2="371.999" gradientUnits="userSpaceOnUse">
<stop stop-color="#080C26"/>
<stop offset="0.465026" stop-color="#50688B" stop-opacity="0.3"/>
<stop offset="1" stop-color="#080C26"/>
</linearGradient>
<linearGradient id="paint3_linear_852_267" x1="0" y1="341.999" x2="317.103" y2="341.999" gradientUnits="userSpaceOnUse">
<stop stop-color="#080C26"/>
<stop offset="0.465026" stop-color="#50688B" stop-opacity="0.3"/>
<stop offset="1" stop-color="#080C26"/>
</linearGradient>
<linearGradient id="paint4_linear_852_267" x1="0" y1="311.999" x2="317.103" y2="311.999" gradientUnits="userSpaceOnUse">
<stop stop-color="#080C26"/>
<stop offset="0.465026" stop-color="#50688B" stop-opacity="0.3"/>
<stop offset="1" stop-color="#080C26"/>
</linearGradient>
<linearGradient id="paint5_linear_852_267" x1="0" y1="281.999" x2="317.103" y2="281.999" gradientUnits="userSpaceOnUse">
<stop stop-color="#080C26"/>
<stop offset="0.465026" stop-color="#50688B" stop-opacity="0.3"/>
<stop offset="1" stop-color="#080C26"/>
</linearGradient>
<linearGradient id="paint6_linear_852_267" x1="0" y1="251.999" x2="317.103" y2="251.904" gradientUnits="userSpaceOnUse">
<stop stop-color="#080C26"/>
<stop offset="0.465026" stop-color="#50688B" stop-opacity="0.3"/>
<stop offset="1" stop-color="#080C26"/>
</linearGradient>
<linearGradient id="paint7_linear_852_267" x1="0" y1="219.999" x2="317.103" y2="219.904" gradientUnits="userSpaceOnUse">
<stop stop-color="#080C26"/>
<stop offset="0.465026" stop-color="#50688B" stop-opacity="0.3"/>
<stop offset="1" stop-color="#080C26"/>
</linearGradient>
<linearGradient id="paint8_linear_852_267" x1="239.177" y1="314.849" x2="140.742" y2="217.235" gradientUnits="userSpaceOnUse">
<stop stop-color="#30D5C8"/>
<stop offset="1" stop-color="#080C26"/>
</linearGradient>
<linearGradient id="paint9_linear_852_267" x1="223.624" y1="252.931" x2="183.802" y2="218.964" gradientUnits="userSpaceOnUse">
<stop stop-color="#38FFEF"/>
<stop offset="1" stop-color="#30D5C8" stop-opacity="0.3"/>
</linearGradient>
<linearGradient id="paint10_linear_852_267" x1="29" y1="188.999" x2="134" y2="188.999" gradientUnits="userSpaceOnUse">
<stop stop-color="#2B0D0D"/>
<stop offset="1" stop-color="#080C26"/>
</linearGradient>
<linearGradient id="paint11_linear_852_267" x1="29" y1="188.999" x2="134" y2="188.999" gradientUnits="userSpaceOnUse">
<stop stop-color="#DF4343"/>
<stop offset="1" stop-color="#521919"/>
</linearGradient>
<linearGradient id="paint12_linear_852_267" x1="191" y1="279.999" x2="286" y2="279.999" gradientUnits="userSpaceOnUse">
<stop stop-color="#0D3236"/>
<stop offset="1" stop-color="#080C26"/>
</linearGradient>
<linearGradient id="paint13_linear_852_267" x1="191" y1="279.999" x2="286" y2="279.999" gradientUnits="userSpaceOnUse">
<stop stop-color="#66F2C3"/>
<stop offset="1" stop-color="#184D52"/>
</linearGradient>
<linearGradient id="paint14_linear_852_267" x1="268.972" y1="447.999" x2="268.747" y2="460.414" gradientUnits="userSpaceOnUse">
<stop stop-color="#30D5C8"/>
<stop offset="1" stop-color="#7557FF"/>
</linearGradient>
<linearGradient id="paint15_linear_852_267" x1="314.02" y1="134.647" x2="241.024" y2="186.247" gradientUnits="userSpaceOnUse">
<stop stop-color="#30D5C8"/>
<stop offset="1" stop-color="#7557FF"/>
</linearGradient>
</defs>
</svg>
