<svg width="1182" height="751" viewBox="0 0 1182 751" fill="none" xmlns="http://www.w3.org/2000/svg">
<path d="M0 699L936 699" stroke="url(#paint0_linear_816_340)" stroke-opacity="0.9" stroke-width="1.5"/>
<path d="M0 649L936 649" stroke="url(#paint1_linear_816_340)" stroke-opacity="0.9" stroke-width="1.5"/>
<path d="M0 599L936 599" stroke="url(#paint2_linear_816_340)" stroke-opacity="0.9" stroke-width="1.5"/>
<path d="M0 549L936 549" stroke="url(#paint3_linear_816_340)" stroke-opacity="0.9" stroke-width="1.5"/>
<path d="M0 499L936 499" stroke="url(#paint4_linear_816_340)" stroke-opacity="0.9" stroke-width="1.5"/>
<path d="M0 449L936 449" stroke="url(#paint5_linear_816_340)" stroke-opacity="0.9" stroke-width="1.5"/>
<path d="M0 399L936 399" stroke="url(#paint6_linear_816_340)" stroke-opacity="0.9" stroke-width="1.5"/>
<path d="M0 349L936 349" stroke="url(#paint7_linear_816_340)" stroke-opacity="0.9" stroke-width="1.5"/>
<path d="M215 649H347V699H215V649Z" fill="#6ECFE5"/>
<path d="M215 650H347V648H215V650Z" fill="#080C26"/>
<path d="M589 649H721V699H589V649Z" fill="#6ECFE5"/>
<path d="M589 650H721V648H589V650Z" fill="#080C26"/>
<path d="M589 584H721V648H589V584Z" fill="#7557FF"/>
<path d="M589 585H721V583H589V585Z" fill="#080C26"/>
<path d="M590 508C590 504.134 593.134 501 597 501H713C716.866 501 720 504.134 720 508V581H590V508Z" fill="#0D2651" stroke="#1F8EFF" stroke-width="2"/>
<path d="M216 355C216 351.134 219.134 348 223 348H339C342.866 348 346 351.134 346 355V646H216V355Z" fill="#0D2651" stroke="#1F8EFF" stroke-width="2"/>
<path d="M661 381.169L647.46 429L597.454 396.509L615.361 392.186C611.642 386.098 607.315 380.217 602.413 374.592C595.413 366.629 587.283 359.227 578.159 352.507C568.889 345.698 558.741 339.558 547.854 334.172C536.806 328.701 525.171 323.889 513.064 319.782C488.7 311.464 462.508 305.634 435.749 301.601C408.8 297.651 381.465 295.26 354 294.449C381.668 293.471 409.4 294.09 436.934 296.302C464.539 298.63 492.102 302.83 518.692 309.889C532.082 313.42 545.061 317.732 557.502 322.784C570.109 327.907 582.012 333.905 593.045 340.693C604.225 347.602 614.374 355.352 623.324 363.815C630.557 370.682 636.999 377.974 642.585 385.615L661 381.169Z" fill="url(#paint8_linear_816_340)"/>
<path d="M660.765 380.197L662.428 379.795L661.962 381.441L648.422 429.272L648.052 430.577L646.915 429.838L596.909 397.348L594.961 396.082L597.219 395.537L613.784 391.538C610.262 385.916 606.211 380.473 601.66 375.25C594.711 367.346 586.636 359.992 577.566 353.313C568.346 346.54 558.248 340.43 547.411 335.068L547.411 335.068C536.403 329.618 524.81 324.823 512.743 320.729L512.741 320.729C488.448 312.434 462.318 306.616 435.604 302.59C408.693 298.646 381.397 296.259 353.97 295.449L353.965 293.45C381.671 292.47 409.441 293.09 437.014 295.305L437.018 295.306C464.667 297.638 492.289 301.845 518.948 308.922C532.378 312.463 545.396 316.789 557.878 321.857L557.878 321.857C570.535 327.001 582.487 333.023 593.569 339.841L593.57 339.842C604.804 346.784 615.008 354.575 624.011 363.088L624.013 363.09C631.117 369.835 637.466 376.99 642.997 384.487L660.765 380.197Z" stroke="url(#paint9_linear_816_340)" stroke-opacity="0.5" stroke-width="2"/>
<rect x="200" y="276" width="163" height="57" rx="8" fill="url(#paint10_linear_816_340)"/>
<rect x="200.5" y="276.5" width="162" height="56" rx="7.5" stroke="url(#paint11_linear_816_340)" stroke-opacity="0.9"/>
<path d="M231.278 315.181V293.363H232.676V315.181H231.278ZM234.986 300.565C234.918 299.877 234.625 299.343 234.108 298.963C233.591 298.582 232.889 298.392 232.003 298.392C231.401 298.392 230.892 298.477 230.477 298.647C230.063 298.812 229.744 299.042 229.523 299.338C229.307 299.633 229.199 299.968 229.199 300.343C229.188 300.656 229.253 300.929 229.395 301.162C229.543 301.395 229.744 301.596 230 301.767C230.256 301.931 230.551 302.076 230.886 302.201C231.222 302.321 231.58 302.423 231.96 302.508L233.528 302.883C234.29 303.054 234.989 303.281 235.625 303.565C236.261 303.849 236.813 304.198 237.278 304.613C237.744 305.028 238.105 305.517 238.361 306.079C238.622 306.642 238.756 307.287 238.761 308.014C238.756 309.082 238.483 310.008 237.943 310.792C237.409 311.571 236.636 312.176 235.625 312.608C234.619 313.034 233.406 313.247 231.986 313.247C230.577 313.247 229.349 313.031 228.304 312.599C227.264 312.167 226.452 311.528 225.866 310.681C225.287 309.829 224.983 308.775 224.955 307.52H228.526C228.565 308.105 228.733 308.593 229.028 308.985C229.33 309.372 229.73 309.664 230.23 309.863C230.736 310.056 231.307 310.153 231.943 310.153C232.568 310.153 233.111 310.062 233.571 309.88C234.037 309.698 234.398 309.446 234.653 309.122C234.909 308.798 235.037 308.426 235.037 308.005C235.037 307.613 234.92 307.284 234.688 307.017C234.46 306.75 234.125 306.522 233.682 306.335C233.244 306.147 232.707 305.977 232.071 305.823L230.17 305.346C228.699 304.988 227.537 304.429 226.685 303.667C225.832 302.906 225.409 301.88 225.415 300.591C225.409 299.534 225.69 298.61 226.259 297.821C226.832 297.031 227.619 296.414 228.619 295.971C229.619 295.528 230.756 295.306 232.028 295.306C233.324 295.306 234.455 295.528 235.42 295.971C236.392 296.414 237.148 297.031 237.688 297.821C238.227 298.61 238.506 299.525 238.523 300.565H234.986ZM247.593 313.238C246.32 313.238 245.187 313.02 244.192 312.582C243.204 312.139 242.423 311.531 241.849 310.758C241.281 309.98 240.988 309.082 240.971 308.065H244.687C244.71 308.491 244.849 308.866 245.104 309.19C245.366 309.508 245.712 309.755 246.144 309.931C246.576 310.108 247.062 310.196 247.602 310.196C248.164 310.196 248.661 310.096 249.093 309.897C249.525 309.698 249.863 309.423 250.107 309.071C250.352 308.718 250.474 308.312 250.474 307.852C250.474 307.386 250.343 306.974 250.082 306.616C249.826 306.252 249.457 305.968 248.974 305.764C248.496 305.559 247.928 305.457 247.269 305.457H245.641V302.747H247.269C247.826 302.747 248.317 302.65 248.744 302.457C249.175 302.264 249.511 301.997 249.749 301.656C249.988 301.309 250.107 300.906 250.107 300.446C250.107 300.008 250.002 299.625 249.792 299.295C249.587 298.96 249.298 298.698 248.923 298.511C248.553 298.323 248.121 298.23 247.627 298.23C247.127 298.23 246.67 298.321 246.255 298.502C245.84 298.679 245.508 298.931 245.258 299.261C245.008 299.591 244.874 299.977 244.857 300.42H241.32C241.337 299.414 241.624 298.528 242.181 297.761C242.738 296.994 243.488 296.395 244.431 295.963C245.38 295.525 246.451 295.306 247.644 295.306C248.849 295.306 249.903 295.525 250.806 295.963C251.71 296.4 252.411 296.991 252.911 297.735C253.417 298.474 253.667 299.304 253.661 300.224C253.667 301.201 253.363 302.017 252.749 302.67C252.141 303.323 251.349 303.738 250.371 303.914V304.051C251.656 304.216 252.633 304.662 253.303 305.389C253.979 306.11 254.315 307.014 254.309 308.099C254.315 309.093 254.028 309.977 253.448 310.75C252.874 311.522 252.082 312.13 251.07 312.573C250.059 313.017 248.9 313.238 247.593 313.238ZM256.697 309.931V307.025L263.984 295.545H266.49V299.568H265.007L260.413 306.838V306.974H270.768V309.931H256.697ZM265.075 313V309.045L265.143 307.758V295.545H268.604V313H265.075ZM273.227 313V310.341L279.44 304.588C279.969 304.076 280.412 303.616 280.77 303.207C281.134 302.798 281.409 302.397 281.597 302.005C281.784 301.608 281.878 301.179 281.878 300.718C281.878 300.207 281.761 299.767 281.528 299.397C281.295 299.022 280.977 298.735 280.574 298.537C280.17 298.332 279.713 298.23 279.202 298.23C278.668 298.23 278.202 298.338 277.804 298.554C277.406 298.77 277.099 299.079 276.884 299.483C276.668 299.886 276.56 300.366 276.56 300.923H273.057C273.057 299.781 273.315 298.789 273.832 297.948C274.349 297.108 275.074 296.457 276.006 295.997C276.938 295.537 278.011 295.306 279.227 295.306C280.477 295.306 281.565 295.528 282.491 295.971C283.423 296.409 284.148 297.017 284.665 297.795C285.182 298.573 285.44 299.466 285.44 300.471C285.44 301.13 285.31 301.781 285.048 302.423C284.793 303.065 284.335 303.778 283.676 304.562C283.017 305.341 282.088 306.275 280.889 307.366L278.341 309.863V309.983H285.67V313H273.227ZM288.447 313V295.545H292.137V303.241H292.367L298.648 295.545H303.072L296.594 303.36L303.148 313H298.734L293.952 305.823L292.137 308.039V313H288.447Z" fill="#FF4B4B"/>
<path d="M317.5 310.333L324.5 303.333L329.167 308L338.5 298.666" stroke="#DF4343" stroke-width="2.33333" stroke-linecap="round" stroke-linejoin="round"/>
<path d="M333.834 298.666H338.501V303.333" stroke="#DF4343" stroke-width="2.33333" stroke-linecap="round" stroke-linejoin="round"/>
<rect x="582" y="431" width="146" height="57" rx="8" fill="url(#paint12_linear_816_340)"/>
<rect x="582.5" y="431.5" width="145" height="56" rx="7.5" stroke="url(#paint13_linear_816_340)" stroke-opacity="0.9"/>
<path d="M613.278 470.182V448.363H614.676V470.182H613.278ZM616.986 455.565C616.918 454.878 616.625 454.344 616.108 453.963C615.591 453.582 614.889 453.392 614.003 453.392C613.401 453.392 612.892 453.477 612.477 453.647C612.063 453.812 611.744 454.042 611.523 454.338C611.307 454.633 611.199 454.969 611.199 455.344C611.188 455.656 611.253 455.929 611.395 456.162C611.543 456.395 611.744 456.596 612 456.767C612.256 456.932 612.551 457.076 612.886 457.201C613.222 457.321 613.58 457.423 613.96 457.508L615.528 457.883C616.29 458.054 616.989 458.281 617.625 458.565C618.261 458.849 618.813 459.199 619.278 459.613C619.744 460.028 620.105 460.517 620.361 461.079C620.622 461.642 620.756 462.287 620.761 463.014C620.756 464.082 620.483 465.008 619.943 465.792C619.409 466.571 618.636 467.176 617.625 467.608C616.619 468.034 615.406 468.247 613.986 468.247C612.577 468.247 611.349 468.031 610.304 467.599C609.264 467.167 608.452 466.528 607.866 465.682C607.287 464.829 606.983 463.775 606.955 462.52H610.526C610.565 463.105 610.733 463.594 611.028 463.986C611.33 464.372 611.73 464.665 612.23 464.863C612.736 465.057 613.307 465.153 613.943 465.153C614.568 465.153 615.111 465.062 615.571 464.88C616.037 464.699 616.398 464.446 616.653 464.122C616.909 463.798 617.037 463.426 617.037 463.005C617.037 462.613 616.92 462.284 616.688 462.017C616.46 461.75 616.125 461.522 615.682 461.335C615.244 461.147 614.707 460.977 614.071 460.824L612.17 460.346C610.699 459.988 609.537 459.429 608.685 458.667C607.832 457.906 607.409 456.88 607.415 455.591C607.409 454.534 607.69 453.611 608.259 452.821C608.832 452.031 609.619 451.415 610.619 450.971C611.619 450.528 612.756 450.307 614.028 450.307C615.324 450.307 616.455 450.528 617.42 450.971C618.392 451.415 619.148 452.031 619.688 452.821C620.227 453.611 620.506 454.525 620.523 455.565H616.986ZM623.832 468L631.067 453.682V453.562H622.638V450.545H634.886V453.605L627.641 468H623.832ZM643.575 468.238C642.262 468.238 641.094 468.025 640.072 467.599C639.055 467.167 638.256 466.579 637.677 465.835C637.097 465.091 636.808 464.247 636.808 463.304C636.808 462.576 636.972 461.909 637.302 461.301C637.637 460.687 638.092 460.179 638.665 459.775C639.239 459.366 639.881 459.105 640.592 458.991V458.872C639.66 458.684 638.904 458.233 638.325 457.517C637.745 456.795 637.455 455.957 637.455 455.003C637.455 454.099 637.719 453.295 638.248 452.591C638.776 451.88 639.501 451.324 640.421 450.92C641.347 450.511 642.398 450.307 643.575 450.307C644.751 450.307 645.799 450.511 646.719 450.92C647.646 451.329 648.373 451.889 648.901 452.599C649.43 453.304 649.697 454.105 649.702 455.003C649.697 455.963 649.401 456.801 648.816 457.517C648.231 458.233 647.481 458.684 646.566 458.872V458.991C647.265 459.105 647.898 459.366 648.467 459.775C649.04 460.179 649.495 460.687 649.83 461.301C650.171 461.909 650.344 462.576 650.35 463.304C650.344 464.247 650.052 465.091 649.472 465.835C648.893 466.579 648.092 467.167 647.069 467.599C646.052 468.025 644.887 468.238 643.575 468.238ZM643.575 465.528C644.16 465.528 644.671 465.423 645.109 465.213C645.546 464.997 645.887 464.701 646.131 464.326C646.381 463.946 646.506 463.508 646.506 463.014C646.506 462.508 646.379 462.062 646.123 461.676C645.867 461.284 645.521 460.977 645.083 460.755C644.646 460.528 644.143 460.415 643.575 460.415C643.012 460.415 642.509 460.528 642.066 460.755C641.623 460.977 641.273 461.284 641.018 461.676C640.768 462.062 640.643 462.508 640.643 463.014C640.643 463.508 640.765 463.946 641.009 464.326C641.254 464.701 641.597 464.997 642.04 465.213C642.484 465.423 642.995 465.528 643.575 465.528ZM643.575 457.73C644.063 457.73 644.498 457.63 644.879 457.432C645.259 457.233 645.558 456.957 645.773 456.605C645.989 456.253 646.097 455.846 646.097 455.386C646.097 454.932 645.989 454.534 645.773 454.193C645.558 453.846 645.262 453.576 644.887 453.383C644.512 453.184 644.075 453.085 643.575 453.085C643.08 453.085 642.643 453.184 642.262 453.383C641.881 453.576 641.583 453.846 641.367 454.193C641.157 454.534 641.052 454.932 641.052 455.386C641.052 455.846 641.16 456.253 641.376 456.605C641.592 456.957 641.89 457.233 642.271 457.432C642.651 457.63 643.086 457.73 643.575 457.73ZM653.033 468V450.545H656.723V458.241H656.953L663.234 450.545H667.658L661.18 458.361L667.734 468H663.32L658.538 460.824L656.723 463.04V468H653.033Z" fill="#30D5C8"/>
<path d="M703.5 453.666L696.5 460.666L691.833 456L682.5 465.333" stroke="#66F2C3" stroke-width="2.33333" stroke-linecap="round" stroke-linejoin="round"/>
<path d="M687.166 465.333H682.499V460.666" stroke="#66F2C3" stroke-width="2.33333" stroke-linecap="round" stroke-linejoin="round"/>
<path d="M126.432 738.727C126.432 740.294 126.138 741.637 125.551 742.754C124.969 743.867 124.173 744.719 123.165 745.311C122.161 745.903 121.022 746.199 119.749 746.199C118.475 746.199 117.334 745.903 116.325 745.311C115.321 744.714 114.526 743.86 113.939 742.747C113.357 741.629 113.065 740.29 113.065 738.727C113.065 737.16 113.357 735.82 113.939 734.707C114.526 733.59 115.321 732.735 116.325 732.143C117.334 731.551 118.475 731.255 119.749 731.255C121.022 731.255 122.161 731.551 123.165 732.143C124.173 732.735 124.969 733.59 125.551 734.707C126.138 735.82 126.432 737.16 126.432 738.727ZM123.783 738.727C123.783 737.624 123.61 736.693 123.264 735.936C122.923 735.174 122.45 734.598 121.844 734.21C121.238 733.817 120.539 733.62 119.749 733.62C118.958 733.62 118.259 733.817 117.653 734.21C117.047 734.598 116.571 735.174 116.226 735.936C115.885 736.693 115.714 737.624 115.714 738.727C115.714 739.83 115.885 740.763 116.226 741.525C116.571 742.283 117.047 742.858 117.653 743.251C118.259 743.639 118.958 743.834 119.749 743.834C120.539 743.834 121.238 743.639 121.844 743.251C122.45 742.858 122.923 742.283 123.264 741.525C123.61 740.763 123.783 739.83 123.783 738.727ZM134.257 735.091V737.079H127.985V735.091H134.257ZM129.534 732.477H132.105V742.719C132.105 743.064 132.157 743.329 132.261 743.514C132.37 743.694 132.512 743.817 132.687 743.883C132.862 743.95 133.056 743.983 133.27 743.983C133.431 743.983 133.577 743.971 133.71 743.947C133.847 743.924 133.951 743.902 134.022 743.883L134.456 745.893C134.318 745.941 134.122 745.993 133.866 746.049C133.615 746.106 133.307 746.139 132.943 746.149C132.299 746.168 131.719 746.071 131.203 745.858C130.687 745.64 130.277 745.304 129.974 744.849C129.676 744.395 129.529 743.826 129.534 743.145V732.477ZM139.212 739.608V746H136.641V731.454H139.156V736.944H139.283C139.539 736.329 139.934 735.844 140.469 735.488C141.009 735.129 141.696 734.949 142.529 734.949C143.287 734.949 143.947 735.107 144.511 735.424C145.074 735.742 145.51 736.206 145.817 736.817C146.13 737.427 146.286 738.173 146.286 739.054V746H143.715V739.451C143.715 738.718 143.526 738.147 143.147 737.74C142.773 737.328 142.247 737.122 141.57 737.122C141.116 737.122 140.709 737.221 140.349 737.42C139.994 737.614 139.714 737.896 139.511 738.265C139.312 738.635 139.212 739.082 139.212 739.608ZM153.737 746.213C152.643 746.213 151.698 745.986 150.903 745.531C150.112 745.072 149.504 744.423 149.077 743.585C148.651 742.742 148.438 741.75 148.438 740.609C148.438 739.487 148.651 738.502 149.077 737.655C149.508 736.802 150.11 736.139 150.881 735.666C151.653 735.188 152.56 734.949 153.602 734.949C154.274 734.949 154.908 735.058 155.505 735.275C156.106 735.488 156.637 735.82 157.096 736.27C157.56 736.719 157.924 737.292 158.19 737.988C158.455 738.68 158.587 739.504 158.587 740.46V741.248H149.646V739.515H156.123C156.118 739.023 156.012 738.585 155.803 738.201C155.595 737.813 155.304 737.508 154.93 737.285C154.56 737.063 154.129 736.951 153.637 736.951C153.112 736.951 152.65 737.079 152.252 737.335C151.854 737.586 151.544 737.917 151.322 738.329C151.104 738.736 150.993 739.184 150.988 739.672V741.184C150.988 741.819 151.104 742.363 151.336 742.818C151.568 743.268 151.892 743.613 152.309 743.855C152.726 744.092 153.213 744.21 153.772 744.21C154.146 744.21 154.485 744.158 154.788 744.054C155.091 743.945 155.353 743.786 155.576 743.578C155.799 743.37 155.967 743.111 156.08 742.804L158.481 743.074C158.329 743.708 158.04 744.262 157.614 744.736C157.193 745.204 156.653 745.569 155.995 745.829C155.337 746.085 154.584 746.213 153.737 746.213ZM160.762 746V735.091H163.255V736.909H163.369C163.568 736.279 163.909 735.794 164.392 735.453C164.879 735.107 165.436 734.934 166.061 734.934C166.203 734.934 166.361 734.942 166.537 734.956C166.717 734.965 166.866 734.982 166.984 735.005V737.37C166.875 737.333 166.702 737.299 166.466 737.271C166.234 737.238 166.009 737.221 165.791 737.221C165.322 737.221 164.901 737.323 164.527 737.527C164.157 737.726 163.866 738.003 163.653 738.358C163.44 738.713 163.333 739.122 163.333 739.586V746H160.762ZM176.828 746L172.723 731.454H175.556L178.177 742.143H178.312L181.11 731.454H183.689L186.494 742.15H186.622L189.243 731.454H192.076L187.971 746H185.372L182.46 735.794H182.346L179.427 746H176.828ZM195.816 746.22C195.124 746.22 194.502 746.097 193.948 745.851C193.399 745.6 192.963 745.23 192.641 744.743C192.324 744.255 192.165 743.654 192.165 742.939C192.165 742.323 192.279 741.814 192.506 741.412C192.733 741.009 193.043 740.687 193.436 740.446C193.829 740.204 194.272 740.022 194.765 739.899C195.262 739.771 195.775 739.679 196.306 739.622C196.945 739.556 197.463 739.496 197.861 739.444C198.259 739.388 198.548 739.302 198.728 739.189C198.912 739.07 199.005 738.888 199.005 738.642V738.599C199.005 738.064 198.846 737.65 198.529 737.356C198.212 737.063 197.755 736.916 197.158 736.916C196.528 736.916 196.029 737.053 195.659 737.328C195.295 737.603 195.049 737.927 194.921 738.301L192.52 737.96C192.71 737.297 193.022 736.743 193.458 736.298C193.893 735.848 194.426 735.512 195.056 735.29C195.685 735.062 196.382 734.949 197.144 734.949C197.669 734.949 198.193 735.01 198.713 735.133C199.234 735.256 199.71 735.46 200.141 735.744C200.572 736.023 200.917 736.405 201.178 736.888C201.443 737.37 201.576 737.974 201.576 738.699V746H199.104V744.501H199.019C198.863 744.804 198.642 745.088 198.358 745.353C198.079 745.614 197.726 745.825 197.3 745.986C196.879 746.142 196.384 746.22 195.816 746.22ZM196.483 744.331C196.999 744.331 197.447 744.229 197.826 744.025C198.204 743.817 198.496 743.542 198.699 743.201C198.908 742.861 199.012 742.489 199.012 742.086V740.801C198.931 740.867 198.794 740.929 198.6 740.986C198.41 741.042 198.197 741.092 197.961 741.135C197.724 741.177 197.489 741.215 197.257 741.248C197.025 741.281 196.824 741.31 196.654 741.334C196.27 741.386 195.927 741.471 195.624 741.589C195.321 741.708 195.082 741.873 194.907 742.086C194.731 742.295 194.644 742.565 194.644 742.896C194.644 743.37 194.817 743.727 195.162 743.969C195.508 744.21 195.948 744.331 196.483 744.331ZM204.161 746V735.091H206.654V736.909H206.767C206.966 736.279 207.307 735.794 207.79 735.453C208.278 735.107 208.834 734.934 209.459 734.934C209.601 734.934 209.76 734.942 209.935 734.956C210.115 734.965 210.264 734.982 210.382 735.005V737.37C210.274 737.333 210.101 737.299 209.864 737.271C209.632 737.238 209.407 737.221 209.189 737.221C208.721 737.221 208.299 737.323 207.925 737.527C207.556 737.726 207.265 738.003 207.051 738.358C206.838 738.713 206.732 739.122 206.732 739.586V746H204.161ZM216.471 746.213C215.377 746.213 214.433 745.986 213.637 745.531C212.846 745.072 212.238 744.423 211.812 743.585C211.386 742.742 211.173 741.75 211.173 740.609C211.173 739.487 211.386 738.502 211.812 737.655C212.243 736.802 212.844 736.139 213.616 735.666C214.388 735.188 215.294 734.949 216.336 734.949C217.008 734.949 217.643 735.058 218.239 735.275C218.841 735.488 219.371 735.82 219.83 736.27C220.294 736.719 220.659 737.292 220.924 737.988C221.189 738.68 221.322 739.504 221.322 740.46V741.248H212.38V739.515H218.857C218.853 739.023 218.746 738.585 218.538 738.201C218.329 737.813 218.038 737.508 217.664 737.285C217.295 737.063 216.864 736.951 216.371 736.951C215.846 736.951 215.384 737.079 214.987 737.335C214.589 737.586 214.279 737.917 214.056 738.329C213.838 738.736 213.727 739.184 213.722 739.672V741.184C213.722 741.819 213.838 742.363 214.07 742.818C214.302 743.268 214.627 743.613 215.043 743.855C215.46 744.092 215.948 744.21 216.506 744.21C216.88 744.21 217.219 744.158 217.522 744.054C217.825 743.945 218.088 743.786 218.31 743.578C218.533 743.37 218.701 743.111 218.815 742.804L221.215 743.074C221.064 743.708 220.775 744.262 220.349 744.736C219.927 745.204 219.388 745.569 218.729 745.829C218.071 746.085 217.318 746.213 216.471 746.213ZM226.068 739.608V746H223.497V731.454H226.011V736.944H226.139C226.395 736.329 226.79 735.844 227.325 735.488C227.865 735.129 228.551 734.949 229.385 734.949C230.142 734.949 230.803 735.107 231.366 735.424C231.93 735.742 232.365 736.206 232.673 736.817C232.985 737.427 233.142 738.173 233.142 739.054V746H230.571V739.451C230.571 738.718 230.381 738.147 230.002 737.74C229.628 737.328 229.103 737.122 228.426 737.122C227.971 737.122 227.564 737.221 227.204 737.42C226.849 737.614 226.57 737.896 226.366 738.265C226.167 738.635 226.068 739.082 226.068 739.608ZM240.521 746.213C239.456 746.213 238.532 745.978 237.751 745.51C236.97 745.041 236.364 744.385 235.933 743.542C235.507 742.7 235.294 741.715 235.294 740.588C235.294 739.461 235.507 738.474 235.933 737.626C236.364 736.779 236.97 736.12 237.751 735.652C238.532 735.183 239.456 734.949 240.521 734.949C241.586 734.949 242.51 735.183 243.291 735.652C244.072 736.12 244.676 736.779 245.102 737.626C245.533 738.474 245.748 739.461 245.748 740.588C245.748 741.715 245.533 742.7 245.102 743.542C244.676 744.385 244.072 745.041 243.291 745.51C242.51 745.978 241.586 746.213 240.521 746.213ZM240.535 744.153C241.113 744.153 241.596 743.995 241.984 743.677C242.372 743.355 242.661 742.924 242.85 742.385C243.045 741.845 243.142 741.244 243.142 740.581C243.142 739.913 243.045 739.309 242.85 738.77C242.661 738.225 242.372 737.792 241.984 737.47C241.596 737.148 241.113 736.987 240.535 736.987C239.943 736.987 239.451 737.148 239.058 737.47C238.67 737.792 238.378 738.225 238.184 738.77C237.995 739.309 237.9 739.913 237.9 740.581C237.9 741.244 237.995 741.845 238.184 742.385C238.378 742.924 238.67 743.355 239.058 743.677C239.451 743.995 239.943 744.153 240.535 744.153ZM254.884 741.412V735.091H257.455V746H254.962V744.061H254.848C254.602 744.672 254.197 745.171 253.634 745.559C253.075 745.948 252.386 746.142 251.567 746.142C250.852 746.142 250.22 745.983 249.67 745.666C249.126 745.344 248.7 744.878 248.392 744.267C248.084 743.651 247.93 742.908 247.93 742.037V735.091H250.501V741.639C250.501 742.33 250.691 742.879 251.07 743.287C251.448 743.694 251.946 743.897 252.561 743.897C252.94 743.897 253.307 743.805 253.662 743.62C254.017 743.436 254.308 743.161 254.536 742.797C254.768 742.427 254.884 741.966 254.884 741.412ZM268.721 737.974L266.377 738.23C266.31 737.993 266.194 737.771 266.029 737.562C265.868 737.354 265.65 737.186 265.375 737.058C265.101 736.93 264.765 736.866 264.367 736.866C263.832 736.866 263.382 736.982 263.017 737.214C262.658 737.446 262.48 737.747 262.485 738.116C262.48 738.433 262.596 738.692 262.833 738.89C263.074 739.089 263.472 739.253 264.026 739.38L265.887 739.778C266.919 740.001 267.686 740.353 268.188 740.836C268.694 741.319 268.95 741.951 268.955 742.733C268.95 743.419 268.749 744.025 268.351 744.551C267.958 745.072 267.411 745.479 266.711 745.772C266.01 746.066 265.205 746.213 264.296 746.213C262.961 746.213 261.886 745.933 261.071 745.375C260.257 744.811 259.772 744.028 259.615 743.024L262.123 742.782C262.236 743.275 262.478 743.647 262.847 743.897C263.216 744.148 263.697 744.274 264.289 744.274C264.9 744.274 265.39 744.148 265.759 743.897C266.133 743.647 266.32 743.336 266.32 742.967C266.32 742.655 266.199 742.397 265.958 742.193C265.721 741.989 265.352 741.833 264.85 741.724L262.989 741.334C261.943 741.116 261.168 740.749 260.667 740.233C260.165 739.712 259.916 739.054 259.921 738.258C259.916 737.586 260.098 737.004 260.468 736.511C260.842 736.014 261.36 735.63 262.023 735.361C262.691 735.086 263.46 734.949 264.331 734.949C265.61 734.949 266.616 735.221 267.35 735.765C268.088 736.31 268.545 737.046 268.721 737.974ZM275.904 746.213C274.811 746.213 273.866 745.986 273.071 745.531C272.28 745.072 271.672 744.423 271.245 743.585C270.819 742.742 270.606 741.75 270.606 740.609C270.606 739.487 270.819 738.502 271.245 737.655C271.676 736.802 272.278 736.139 273.049 735.666C273.821 735.188 274.728 734.949 275.77 734.949C276.442 734.949 277.076 735.058 277.673 735.275C278.274 735.488 278.805 735.82 279.264 736.27C279.728 736.719 280.092 737.292 280.358 737.988C280.623 738.68 280.755 739.504 280.755 740.46V741.248H271.814V739.515H278.291C278.286 739.023 278.18 738.585 277.971 738.201C277.763 737.813 277.472 737.508 277.098 737.285C276.728 737.063 276.297 736.951 275.805 736.951C275.279 736.951 274.818 737.079 274.42 737.335C274.022 737.586 273.712 737.917 273.49 738.329C273.272 738.736 273.161 739.184 273.156 739.672V741.184C273.156 741.819 273.272 742.363 273.504 742.818C273.736 743.268 274.06 743.613 274.477 743.855C274.894 744.092 275.381 744.21 275.94 744.21C276.314 744.21 276.653 744.158 276.956 744.054C277.259 743.945 277.521 743.786 277.744 743.578C277.967 743.37 278.135 743.111 278.248 742.804L280.649 743.074C280.497 743.708 280.208 744.262 279.782 744.736C279.361 745.204 278.821 745.569 278.163 745.829C277.505 746.085 276.752 746.213 275.904 746.213ZM288.868 730.772L284.18 748.187H281.929L286.616 730.772H288.868ZM300.512 746H295.583V731.454H300.612C302.056 731.454 303.296 731.745 304.333 732.328C305.375 732.906 306.175 733.736 306.734 734.821C307.292 735.905 307.572 737.202 307.572 738.713C307.572 740.228 307.29 741.53 306.727 742.619C306.168 743.708 305.361 744.544 304.305 745.126C303.254 745.709 301.989 746 300.512 746ZM298.218 743.72H300.384C301.397 743.72 302.243 743.535 302.92 743.166C303.597 742.792 304.106 742.236 304.447 741.497C304.788 740.754 304.958 739.826 304.958 738.713C304.958 737.6 304.788 736.677 304.447 735.943C304.106 735.204 303.602 734.653 302.934 734.288C302.271 733.919 301.447 733.734 300.462 733.734H298.218V743.72ZM313.101 746.22C312.41 746.22 311.787 746.097 311.233 745.851C310.684 745.6 310.248 745.23 309.926 744.743C309.609 744.255 309.45 743.654 309.45 742.939C309.45 742.323 309.564 741.814 309.791 741.412C310.018 741.009 310.329 740.687 310.722 740.446C311.115 740.204 311.557 740.022 312.05 739.899C312.547 739.771 313.061 739.679 313.591 739.622C314.23 739.556 314.749 739.496 315.146 739.444C315.544 739.388 315.833 739.302 316.013 739.189C316.197 739.07 316.29 738.888 316.29 738.642V738.599C316.29 738.064 316.131 737.65 315.814 737.356C315.497 737.063 315.04 736.916 314.443 736.916C313.813 736.916 313.314 737.053 312.945 737.328C312.58 737.603 312.334 737.927 312.206 738.301L309.805 737.96C309.995 737.297 310.307 736.743 310.743 736.298C311.179 735.848 311.711 735.512 312.341 735.29C312.971 735.062 313.667 734.949 314.429 734.949C314.955 734.949 315.478 735.01 315.999 735.133C316.519 735.256 316.995 735.46 317.426 735.744C317.857 736.023 318.203 736.405 318.463 736.888C318.728 737.37 318.861 737.974 318.861 738.699V746H316.389V744.501H316.304C316.148 744.804 315.928 745.088 315.643 745.353C315.364 745.614 315.011 745.825 314.585 745.986C314.164 746.142 313.669 746.22 313.101 746.22ZM313.768 744.331C314.285 744.331 314.732 744.229 315.111 744.025C315.49 743.817 315.781 743.542 315.984 743.201C316.193 742.861 316.297 742.489 316.297 742.086V740.801C316.216 740.867 316.079 740.929 315.885 740.986C315.696 741.042 315.482 741.092 315.246 741.135C315.009 741.177 314.775 741.215 314.543 741.248C314.311 741.281 314.109 741.31 313.939 741.334C313.555 741.386 313.212 741.471 312.909 741.589C312.606 741.708 312.367 741.873 312.192 742.086C312.017 742.295 311.929 742.565 311.929 742.896C311.929 743.37 312.102 743.727 312.447 743.969C312.793 744.21 313.233 744.331 313.768 744.331ZM326.893 735.091V737.079H320.622V735.091H326.893ZM322.17 732.477H324.741V742.719C324.741 743.064 324.794 743.329 324.898 743.514C325.007 743.694 325.149 743.817 325.324 743.883C325.499 743.95 325.693 743.983 325.906 743.983C326.067 743.983 326.214 743.971 326.347 743.947C326.484 743.924 326.588 743.902 326.659 743.883L327.092 745.893C326.955 745.941 326.759 745.993 326.503 746.049C326.252 746.106 325.944 746.139 325.58 746.149C324.936 746.168 324.356 746.071 323.839 745.858C323.323 745.64 322.914 745.304 322.611 744.849C322.313 744.395 322.166 743.826 322.17 743.145V732.477ZM332.183 746.22C331.492 746.22 330.869 746.097 330.315 745.851C329.766 745.6 329.33 745.23 329.008 744.743C328.691 744.255 328.532 743.654 328.532 742.939C328.532 742.323 328.646 741.814 328.873 741.412C329.1 741.009 329.411 740.687 329.804 740.446C330.197 740.204 330.639 740.022 331.132 739.899C331.629 739.771 332.143 739.679 332.673 739.622C333.312 739.556 333.831 739.496 334.228 739.444C334.626 739.388 334.915 739.302 335.095 739.189C335.279 739.07 335.372 738.888 335.372 738.642V738.599C335.372 738.064 335.213 737.65 334.896 737.356C334.579 737.063 334.122 736.916 333.525 736.916C332.895 736.916 332.396 737.053 332.027 737.328C331.662 737.603 331.416 737.927 331.288 738.301L328.887 737.96C329.077 737.297 329.389 736.743 329.825 736.298C330.261 735.848 330.793 735.512 331.423 735.29C332.053 735.062 332.749 734.949 333.511 734.949C334.037 734.949 334.56 735.01 335.081 735.133C335.601 735.256 336.077 735.46 336.508 735.744C336.939 736.023 337.285 736.405 337.545 736.888C337.81 737.37 337.943 737.974 337.943 738.699V746H335.471V744.501H335.386C335.23 744.804 335.01 745.088 334.725 745.353C334.446 745.614 334.093 745.825 333.667 745.986C333.246 746.142 332.751 746.22 332.183 746.22ZM332.85 744.331C333.367 744.331 333.814 744.229 334.193 744.025C334.572 743.817 334.863 743.542 335.066 743.201C335.275 742.861 335.379 742.489 335.379 742.086V740.801C335.298 740.867 335.161 740.929 334.967 740.986C334.778 741.042 334.565 741.092 334.328 741.135C334.091 741.177 333.857 741.215 333.625 741.248C333.393 741.281 333.191 741.31 333.021 741.334C332.637 741.386 332.294 741.471 331.991 741.589C331.688 741.708 331.449 741.873 331.274 742.086C331.099 742.295 331.011 742.565 331.011 742.896C331.011 743.37 331.184 743.727 331.529 743.969C331.875 744.21 332.315 744.331 332.85 744.331ZM345.603 746V731.454H348.238V743.791H354.644V746H345.603ZM359.956 746.22C359.265 746.22 358.642 746.097 358.088 745.851C357.539 745.6 357.104 745.23 356.782 744.743C356.464 744.255 356.306 743.654 356.306 742.939C356.306 742.323 356.419 741.814 356.647 741.412C356.874 741.009 357.184 740.687 357.577 740.446C357.97 740.204 358.413 740.022 358.905 739.899C359.402 739.771 359.916 739.679 360.446 739.622C361.086 739.556 361.604 739.496 362.002 739.444C362.4 739.388 362.688 739.302 362.868 739.189C363.053 739.07 363.145 738.888 363.145 738.642V738.599C363.145 738.064 362.987 737.65 362.669 737.356C362.352 737.063 361.895 736.916 361.299 736.916C360.669 736.916 360.169 737.053 359.8 737.328C359.435 737.603 359.189 737.927 359.061 738.301L356.661 737.96C356.85 737.297 357.163 736.743 357.598 736.298C358.034 735.848 358.567 735.512 359.196 735.29C359.826 735.062 360.522 734.949 361.284 734.949C361.81 734.949 362.333 735.01 362.854 735.133C363.375 735.256 363.851 735.46 364.282 735.744C364.712 736.023 365.058 736.405 365.319 736.888C365.584 737.37 365.716 737.974 365.716 738.699V746H363.245V744.501H363.159C363.003 744.804 362.783 745.088 362.499 745.353C362.22 745.614 361.867 745.825 361.441 745.986C361.019 746.142 360.525 746.22 359.956 746.22ZM360.624 744.331C361.14 744.331 361.587 744.229 361.966 744.025C362.345 743.817 362.636 743.542 362.84 743.201C363.048 742.861 363.152 742.489 363.152 742.086V740.801C363.072 740.867 362.935 740.929 362.74 740.986C362.551 741.042 362.338 741.092 362.101 741.135C361.864 741.177 361.63 741.215 361.398 741.248C361.166 741.281 360.965 741.31 360.794 741.334C360.411 741.386 360.068 741.471 359.765 741.589C359.462 741.708 359.222 741.873 359.047 742.086C358.872 742.295 358.784 742.565 358.784 742.896C358.784 743.37 358.957 743.727 359.303 743.969C359.649 744.21 360.089 744.331 360.624 744.331ZM370.645 742.576L370.638 739.473H371.05L374.971 735.091H377.975L373.152 740.46H372.62L370.645 742.576ZM368.301 746V731.454H370.873V746H368.301ZM375.148 746L371.597 741.035L373.33 739.224L378.223 746H375.148ZM384.069 746.213C382.975 746.213 382.03 745.986 381.235 745.531C380.444 745.072 379.836 744.423 379.409 743.585C378.983 742.742 378.77 741.75 378.77 740.609C378.77 739.487 378.983 738.502 379.409 737.655C379.84 736.802 380.442 736.139 381.213 735.666C381.985 735.188 382.892 734.949 383.934 734.949C384.606 734.949 385.24 735.058 385.837 735.275C386.438 735.488 386.969 735.82 387.428 736.27C387.892 736.719 388.257 737.292 388.522 737.988C388.787 738.68 388.919 739.504 388.919 740.46V741.248H379.978V739.515H386.455C386.45 739.023 386.344 738.585 386.135 738.201C385.927 737.813 385.636 737.508 385.262 737.285C384.892 737.063 384.462 736.951 383.969 736.951C383.444 736.951 382.982 737.079 382.584 737.335C382.186 737.586 381.876 737.917 381.654 738.329C381.436 738.736 381.325 739.184 381.32 739.672V741.184C381.32 741.819 381.436 742.363 381.668 742.818C381.9 743.268 382.224 743.613 382.641 743.855C383.058 744.092 383.545 744.21 384.104 744.21C384.478 744.21 384.817 744.158 385.12 744.054C385.423 743.945 385.685 743.786 385.908 743.578C386.131 743.37 386.299 743.111 386.412 742.804L388.813 743.074C388.661 743.708 388.373 744.262 387.946 744.736C387.525 745.204 386.985 745.569 386.327 745.829C385.669 746.085 384.916 746.213 384.069 746.213ZM393.665 739.608V746H391.094V731.454H393.609V736.944H393.737C393.992 736.329 394.388 735.844 394.923 735.488C395.462 735.129 396.149 734.949 396.982 734.949C397.74 734.949 398.4 735.107 398.964 735.424C399.527 735.742 399.963 736.206 400.271 736.817C400.583 737.427 400.739 738.173 400.739 739.054V746H398.168V739.451C398.168 738.718 397.979 738.147 397.6 737.74C397.226 737.328 396.701 737.122 396.023 737.122C395.569 737.122 395.162 737.221 394.802 737.42C394.447 737.614 394.167 737.896 393.964 738.265C393.765 738.635 393.665 739.082 393.665 739.608ZM408.119 746.213C407.053 746.213 406.13 745.978 405.349 745.51C404.567 745.041 403.961 744.385 403.531 743.542C403.104 742.7 402.891 741.715 402.891 740.588C402.891 739.461 403.104 738.474 403.531 737.626C403.961 736.779 404.567 736.12 405.349 735.652C406.13 735.183 407.053 734.949 408.119 734.949C409.184 734.949 410.107 735.183 410.888 735.652C411.67 736.12 412.273 736.779 412.7 737.626C413.13 738.474 413.346 739.461 413.346 740.588C413.346 741.715 413.13 742.7 412.7 743.542C412.273 744.385 411.67 745.041 410.888 745.51C410.107 745.978 409.184 746.213 408.119 746.213ZM408.133 744.153C408.71 744.153 409.193 743.995 409.582 743.677C409.97 743.355 410.259 742.924 410.448 742.385C410.642 741.845 410.739 741.244 410.739 740.581C410.739 739.913 410.642 739.309 410.448 738.77C410.259 738.225 409.97 737.792 409.582 737.47C409.193 737.148 408.71 736.987 408.133 736.987C407.541 736.987 407.049 737.148 406.656 737.47C406.267 737.792 405.976 738.225 405.782 738.77C405.593 739.309 405.498 739.913 405.498 740.581C405.498 741.244 405.593 741.845 405.782 742.385C405.976 742.924 406.267 743.355 406.656 743.677C407.049 743.995 407.541 744.153 408.133 744.153ZM422.481 741.412V735.091H425.052V746H422.559V744.061H422.446C422.199 744.672 421.795 745.171 421.231 745.559C420.672 745.948 419.984 746.142 419.164 746.142C418.449 746.142 417.817 745.983 417.268 745.666C416.724 745.344 416.297 744.878 415.99 744.267C415.682 743.651 415.528 742.908 415.528 742.037V735.091H418.099V741.639C418.099 742.33 418.288 742.879 418.667 743.287C419.046 743.694 419.543 743.897 420.159 743.897C420.538 743.897 420.904 743.805 421.26 743.62C421.615 743.436 421.906 743.161 422.133 742.797C422.365 742.427 422.481 741.966 422.481 741.412ZM436.318 737.974L433.974 738.23C433.908 737.993 433.792 737.771 433.626 737.562C433.465 737.354 433.248 737.186 432.973 737.058C432.698 736.93 432.362 736.866 431.964 736.866C431.429 736.866 430.98 736.982 430.615 737.214C430.255 737.446 430.078 737.747 430.082 738.116C430.078 738.433 430.194 738.692 430.43 738.89C430.672 739.089 431.07 739.253 431.624 739.38L433.484 739.778C434.517 740.001 435.284 740.353 435.786 740.836C436.292 741.319 436.548 741.951 436.553 742.733C436.548 743.419 436.347 744.025 435.949 744.551C435.556 745.072 435.009 745.479 434.308 745.772C433.607 746.066 432.803 746.213 431.893 746.213C430.558 746.213 429.483 745.933 428.669 745.375C427.855 744.811 427.369 744.028 427.213 743.024L429.72 742.782C429.834 743.275 430.075 743.647 430.445 743.897C430.814 744.148 431.295 744.274 431.886 744.274C432.497 744.274 432.987 744.148 433.357 743.897C433.731 743.647 433.918 743.336 433.918 742.967C433.918 742.655 433.797 742.397 433.555 742.193C433.319 741.989 432.949 741.833 432.447 741.724L430.587 741.334C429.54 741.116 428.766 740.749 428.264 740.233C427.762 739.712 427.514 739.054 427.518 738.258C427.514 737.586 427.696 737.004 428.065 736.511C428.439 736.014 428.958 735.63 429.621 735.361C430.288 735.086 431.058 734.949 431.929 734.949C433.207 734.949 434.214 735.221 434.947 735.765C435.686 736.31 436.143 737.046 436.318 737.974ZM443.502 746.213C442.408 746.213 441.464 745.986 440.668 745.531C439.878 745.072 439.269 744.423 438.843 743.585C438.417 742.742 438.204 741.75 438.204 740.609C438.204 739.487 438.417 738.502 438.843 737.655C439.274 736.802 439.875 736.139 440.647 735.666C441.419 735.188 442.326 734.949 443.367 734.949C444.04 734.949 444.674 735.058 445.271 735.275C445.872 735.488 446.402 735.82 446.862 736.27C447.326 736.719 447.69 737.292 447.955 737.988C448.22 738.68 448.353 739.504 448.353 740.46V741.248H439.411V739.515H445.888C445.884 739.023 445.777 738.585 445.569 738.201C445.361 737.813 445.069 737.508 444.695 737.285C444.326 737.063 443.895 736.951 443.403 736.951C442.877 736.951 442.415 737.079 442.018 737.335C441.62 737.586 441.31 737.917 441.087 738.329C440.87 738.736 440.758 739.184 440.754 739.672V741.184C440.754 741.819 440.87 742.363 441.102 742.818C441.334 743.268 441.658 743.613 442.075 743.855C442.491 744.092 442.979 744.21 443.538 744.21C443.912 744.21 444.25 744.158 444.553 744.054C444.856 743.945 445.119 743.786 445.342 743.578C445.564 743.37 445.732 743.111 445.846 742.804L448.246 743.074C448.095 743.708 447.806 744.262 447.38 744.736C446.959 745.204 446.419 745.569 445.761 745.829C445.103 746.085 444.35 746.213 443.502 746.213Z" fill="#CDDAED"/>
<path d="M712.956 750.362L705.901 736.564L704.131 737.409L709.406 747.725C709.584 747.992 709.184 747.937 709.184 747.937C703.074 747.87 700.604 741.627 700.604 741.627L703.497 736.052L708.56 733.904L703.887 732.546L699.48 724L695.062 732.591L690.41 733.904L695.596 736.118L698.378 741.694C695.04 748.437 689.809 747.97 689.809 747.97C689.442 747.992 689.576 747.792 689.576 747.792L694.828 737.409L693.126 736.541L685.959 750.574H690.722C696.609 750.574 699.346 744.053 699.346 744.053C699.469 743.73 699.591 744.097 699.591 744.097C702.785 750.596 707.436 750.574 707.436 750.574H712.778C713.134 750.585 712.956 750.362 712.956 750.362ZM699.513 739.457L696.675 733.926L699.491 728.395L702.351 733.926L699.513 739.457Z" fill="url(#paint14_linear_816_340)"/>
<path d="M602.264 744.164L601.04 748.582H597L602.264 731.367H607.371L612.713 748.582H608.529L607.205 744.164H602.264ZM606.637 741.26L605.569 737.61C605.257 736.586 604.957 735.306 604.701 734.294H604.645C604.389 735.318 604.133 736.62 603.855 737.61L602.831 741.26H606.637Z" fill="white"/>
<path d="M618.61 741.36H618.666C618.944 740.849 619.256 740.337 619.556 739.858L622.082 736.108H626.756L622.283 741.16L627.39 748.594H622.616L619.601 743.464L618.599 744.688V748.594H614.727V730.455H618.61V741.36Z" fill="white"/>
<path d="M639.109 745.545C639.109 746.747 639.164 747.893 639.287 748.583H635.792L635.559 747.325H635.481C634.668 748.327 633.389 748.861 631.909 748.861C629.383 748.861 627.869 747.025 627.869 745.033C627.869 741.783 630.785 740.237 635.203 740.259V740.081C635.203 739.413 634.847 738.467 632.932 738.467C631.653 738.467 630.306 738.901 629.483 739.413L628.771 736.909C629.639 736.42 631.352 735.808 633.622 735.808C637.784 735.808 639.109 738.256 639.109 741.194V745.545ZM635.325 742.685C633.277 742.663 631.697 743.141 631.697 744.655C631.697 745.656 632.365 746.135 633.233 746.135C634.201 746.135 634.991 745.5 635.247 744.699C635.303 744.499 635.325 744.265 635.325 744.031V742.685Z" fill="white"/>
<path d="M642.147 745.189C642.859 745.623 644.339 746.135 645.497 746.135C646.676 746.135 647.155 745.723 647.155 745.089C647.155 744.454 646.776 744.143 645.319 743.653C642.737 742.785 641.746 741.383 641.769 739.925C641.769 737.577 643.761 735.808 646.854 735.808C648.312 735.808 649.614 736.141 650.382 736.52L649.692 739.202C649.135 738.89 648.056 738.489 646.988 738.489C646.042 738.489 645.508 738.868 645.508 739.513C645.508 740.103 645.997 740.404 647.522 740.949C649.892 741.761 650.894 742.963 650.916 744.799C650.916 747.125 649.08 748.861 645.497 748.861C643.861 748.861 642.403 748.483 641.457 747.971L642.147 745.189Z" fill="white"/>
<path d="M653.254 730.455H657.138V737.577H657.193C657.605 737.043 658.117 736.609 658.729 736.297C659.319 735.986 660.031 735.808 660.743 735.808C663.225 735.808 665.105 737.521 665.105 741.271V748.572H661.222V741.705C661.222 740.07 660.665 738.946 659.207 738.946C658.184 738.946 657.549 739.613 657.271 740.303C657.171 740.559 657.138 740.893 657.138 741.171V748.583H653.254V730.455Z" fill="white"/>
<path d="M677.4 748.582L675.842 745.466C675.208 744.265 674.796 743.374 674.306 742.373H674.251C673.895 743.363 673.461 744.265 672.926 745.466L671.491 748.582H667.051L672.025 739.869L667.229 731.367H671.702L673.205 734.505C673.717 735.551 674.095 736.397 674.507 737.365H674.562C674.974 736.263 675.308 735.496 675.742 734.505L677.2 731.367H681.64L676.788 739.769L681.896 748.582H677.4Z" fill="white"/>
<path d="M693.299 246.179L705.143 219.383L706.907 222.323H691.073L694.097 219.131V227.111H688.049V216.779H711.611V221.189L700.691 246.179H693.299ZM719.344 246.179L731.188 219.383L732.952 222.323H717.118L720.142 219.131V227.111H714.094V216.779H737.656V221.189L726.736 246.179H719.344ZM745.091 246.179L765.167 216.779H770.165L750.089 246.179H745.091ZM747.653 232.655C746.225 232.655 744.965 232.333 743.873 231.689C742.781 231.017 741.913 230.079 741.269 228.875C740.653 227.643 740.345 226.201 740.345 224.549C740.345 222.897 740.653 221.469 741.269 220.265C741.913 219.061 742.781 218.123 743.873 217.451C744.965 216.779 746.225 216.443 747.653 216.443C749.081 216.443 750.341 216.779 751.433 217.451C752.525 218.123 753.379 219.061 753.995 220.265C754.611 221.469 754.919 222.897 754.919 224.549C754.919 226.201 754.611 227.643 753.995 228.875C753.379 230.079 752.525 231.017 751.433 231.689C750.341 232.333 749.081 232.655 747.653 232.655ZM747.653 229.211C748.577 229.211 749.319 228.833 749.879 228.077C750.439 227.293 750.719 226.117 750.719 224.549C750.719 222.981 750.439 221.819 749.879 221.063C749.319 220.279 748.577 219.887 747.653 219.887C746.757 219.887 746.015 220.279 745.427 221.063C744.867 221.819 744.587 222.981 744.587 224.549C744.587 226.089 744.867 227.251 745.427 228.035C746.015 228.819 746.757 229.211 747.653 229.211ZM767.603 246.515C766.203 246.515 764.943 246.193 763.823 245.549C762.731 244.877 761.877 243.939 761.261 242.735C760.645 241.503 760.337 240.061 760.337 238.409C760.337 236.757 760.645 235.329 761.261 234.125C761.877 232.921 762.731 231.983 763.823 231.311C764.943 230.639 766.203 230.303 767.603 230.303C769.059 230.303 770.333 230.639 771.425 231.311C772.517 231.983 773.371 232.921 773.987 234.125C774.603 235.329 774.911 236.757 774.911 238.409C774.911 240.061 774.603 241.503 773.987 242.735C773.371 243.939 772.517 244.877 771.425 245.549C770.333 246.193 769.059 246.515 767.603 246.515ZM767.603 243.071C768.527 243.071 769.269 242.693 769.829 241.937C770.389 241.153 770.669 239.977 770.669 238.409C770.669 236.869 770.389 235.707 769.829 234.923C769.269 234.139 768.527 233.747 767.603 233.747C766.707 233.747 765.965 234.139 765.377 234.923C764.817 235.679 764.537 236.841 764.537 238.409C764.537 239.977 764.817 241.153 765.377 241.937C765.965 242.693 766.707 243.071 767.603 243.071Z" fill="#30D5C8"/>
<path d="M609.006 290.179V271.435H601.614V267.079H621.744V271.435H614.352V290.179H609.006ZM635.353 290.575C633.571 290.575 631.91 290.289 630.37 289.717C628.852 289.123 627.532 288.287 626.41 287.209C625.288 286.131 624.408 284.866 623.77 283.414C623.154 281.962 622.846 280.367 622.846 278.629C622.846 276.891 623.154 275.296 623.77 273.844C624.408 272.392 625.288 271.127 626.41 270.049C627.554 268.971 628.885 268.146 630.403 267.574C631.921 266.98 633.582 266.683 635.386 266.683C637.388 266.683 639.192 267.035 640.798 267.739C642.426 268.421 643.79 269.433 644.89 270.775L641.458 273.943C640.666 273.041 639.786 272.37 638.818 271.93C637.85 271.468 636.794 271.237 635.65 271.237C634.572 271.237 633.582 271.413 632.68 271.765C631.778 272.117 630.997 272.623 630.337 273.283C629.677 273.943 629.16 274.724 628.786 275.626C628.434 276.528 628.258 277.529 628.258 278.629C628.258 279.729 628.434 280.73 628.786 281.632C629.16 282.534 629.677 283.315 630.337 283.975C630.997 284.635 631.778 285.141 632.68 285.493C633.582 285.845 634.572 286.021 635.65 286.021C636.794 286.021 637.85 285.801 638.818 285.361C639.786 284.899 640.666 284.206 641.458 283.282L644.89 286.45C643.79 287.792 642.426 288.815 640.798 289.519C639.192 290.223 637.377 290.575 635.353 290.575ZM659.237 290.575C657.411 290.575 655.717 290.278 654.155 289.684C652.615 289.09 651.273 288.254 650.129 287.176C649.007 286.098 648.127 284.833 647.489 283.381C646.873 281.929 646.565 280.345 646.565 278.629C646.565 276.913 646.873 275.329 647.489 273.877C648.127 272.425 649.018 271.16 650.162 270.082C651.306 269.004 652.648 268.168 654.188 267.574C655.728 266.98 657.4 266.683 659.204 266.683C661.03 266.683 662.702 266.98 664.22 267.574C665.76 268.168 667.091 269.004 668.213 270.082C669.357 271.16 670.248 272.425 670.886 273.877C671.524 275.307 671.843 276.891 671.843 278.629C671.843 280.345 671.524 281.94 670.886 283.414C670.248 284.866 669.357 286.131 668.213 287.209C667.091 288.265 665.76 289.09 664.22 289.684C662.702 290.278 661.041 290.575 659.237 290.575ZM659.204 286.021C660.238 286.021 661.184 285.845 662.042 285.493C662.922 285.141 663.692 284.635 664.352 283.975C665.012 283.315 665.518 282.534 665.87 281.632C666.244 280.73 666.431 279.729 666.431 278.629C666.431 277.529 666.244 276.528 665.87 275.626C665.518 274.724 665.012 273.943 664.352 273.283C663.714 272.623 662.955 272.117 662.075 271.765C661.195 271.413 660.238 271.237 659.204 271.237C658.17 271.237 657.213 271.413 656.333 271.765C655.475 272.117 654.716 272.623 654.056 273.283C653.396 273.943 652.879 274.724 652.505 275.626C652.153 276.528 651.977 277.529 651.977 278.629C651.977 279.707 652.153 280.708 652.505 281.632C652.879 282.534 653.385 283.315 654.023 283.975C654.683 284.635 655.453 285.141 656.333 285.493C657.213 285.845 658.17 286.021 659.204 286.021ZM685.206 290.179V267.079H695.205C697.273 267.079 699.055 267.42 700.551 268.102C702.047 268.762 703.202 269.719 704.016 270.973C704.83 272.227 705.237 273.723 705.237 275.461C705.237 277.177 704.83 278.662 704.016 279.916C703.202 281.148 702.047 282.094 700.551 282.754C699.055 283.414 697.273 283.744 695.205 283.744H688.176L690.552 281.401V290.179H685.206ZM699.891 290.179L694.116 281.797H699.825L705.666 290.179H699.891ZM690.552 281.995L688.176 279.487H694.908C696.558 279.487 697.79 279.135 698.604 278.431C699.418 277.705 699.825 276.715 699.825 275.461C699.825 274.185 699.418 273.195 698.604 272.491C697.79 271.787 696.558 271.435 694.908 271.435H688.176L690.552 268.894V281.995ZM717.921 290.443C715.897 290.443 714.115 290.047 712.575 289.255C711.057 288.463 709.88 287.385 709.044 286.021C708.208 284.635 707.79 283.062 707.79 281.302C707.79 279.52 708.197 277.947 709.011 276.583C709.847 275.197 710.98 274.119 712.41 273.349C713.84 272.557 715.457 272.161 717.261 272.161C718.999 272.161 720.561 272.535 721.947 273.283C723.355 274.009 724.466 275.065 725.28 276.451C726.094 277.815 726.501 279.454 726.501 281.368C726.501 281.566 726.49 281.797 726.468 282.061C726.446 282.303 726.424 282.534 726.402 282.754H711.981V279.751H723.696L721.716 280.642C721.716 279.718 721.529 278.915 721.155 278.233C720.781 277.551 720.264 277.023 719.604 276.649C718.944 276.253 718.174 276.055 717.294 276.055C716.414 276.055 715.633 276.253 714.951 276.649C714.291 277.023 713.774 277.562 713.4 278.266C713.026 278.948 712.839 279.762 712.839 280.708V281.5C712.839 282.468 713.048 283.326 713.466 284.074C713.906 284.8 714.511 285.361 715.281 285.757C716.073 286.131 716.997 286.318 718.053 286.318C718.999 286.318 719.824 286.175 720.528 285.889C721.254 285.603 721.914 285.174 722.508 284.602L725.247 287.572C724.433 288.496 723.41 289.211 722.178 289.717C720.946 290.201 719.527 290.443 717.921 290.443ZM737.551 290.443C735.879 290.443 734.372 290.069 733.03 289.321C731.688 288.551 730.621 287.484 729.829 286.12C729.059 284.756 728.674 283.15 728.674 281.302C728.674 279.432 729.059 277.815 729.829 276.451C730.621 275.087 731.688 274.031 733.03 273.283C734.372 272.535 735.879 272.161 737.551 272.161C739.047 272.161 740.356 272.491 741.478 273.151C742.6 273.811 743.469 274.812 744.085 276.154C744.701 277.496 745.009 279.212 745.009 281.302C745.009 283.37 744.712 285.086 744.118 286.45C743.524 287.792 742.666 288.793 741.544 289.453C740.444 290.113 739.113 290.443 737.551 290.443ZM738.442 286.219C739.278 286.219 740.037 286.021 740.719 285.625C741.401 285.229 741.94 284.668 742.336 283.942C742.754 283.194 742.963 282.314 742.963 281.302C742.963 280.268 742.754 279.388 742.336 278.662C741.94 277.936 741.401 277.375 740.719 276.979C740.037 276.583 739.278 276.385 738.442 276.385C737.584 276.385 736.814 276.583 736.132 276.979C735.45 277.375 734.9 277.936 734.482 278.662C734.086 279.388 733.888 280.268 733.888 281.302C733.888 282.314 734.086 283.194 734.482 283.942C734.9 284.668 735.45 285.229 736.132 285.625C736.814 286.021 737.584 286.219 738.442 286.219ZM743.095 290.179V286.549L743.194 281.269L742.864 276.022V265.693H748.012V290.179H743.095ZM760.268 290.443C758.794 290.443 757.474 290.157 756.308 289.585C755.164 289.013 754.273 288.144 753.635 286.978C752.997 285.79 752.678 284.283 752.678 282.457V272.425H757.826V281.698C757.826 283.172 758.134 284.261 758.75 284.965C759.388 285.647 760.279 285.988 761.423 285.988C762.215 285.988 762.919 285.823 763.535 285.493C764.151 285.141 764.635 284.613 764.987 283.909C765.339 283.183 765.515 282.281 765.515 281.203V272.425H770.663V290.179H765.779V285.295L766.67 286.714C766.076 287.946 765.196 288.881 764.03 289.519C762.886 290.135 761.632 290.443 760.268 290.443ZM784.012 290.443C782.098 290.443 780.393 290.058 778.897 289.288C777.401 288.496 776.224 287.407 775.366 286.021C774.53 284.635 774.112 283.062 774.112 281.302C774.112 279.52 774.53 277.947 775.366 276.583C776.224 275.197 777.401 274.119 778.897 273.349C780.393 272.557 782.098 272.161 784.012 272.161C785.882 272.161 787.51 272.557 788.896 273.349C790.282 274.119 791.305 275.23 791.965 276.682L787.972 278.827C787.51 277.991 786.927 277.375 786.223 276.979C785.541 276.583 784.793 276.385 783.979 276.385C783.099 276.385 782.307 276.583 781.603 276.979C780.899 277.375 780.338 277.936 779.92 278.662C779.524 279.388 779.326 280.268 779.326 281.302C779.326 282.336 779.524 283.216 779.92 283.942C780.338 284.668 780.899 285.229 781.603 285.625C782.307 286.021 783.099 286.219 783.979 286.219C784.793 286.219 785.541 286.032 786.223 285.658C786.927 285.262 787.51 284.635 787.972 283.777L791.965 285.955C791.305 287.385 790.282 288.496 788.896 289.288C787.51 290.058 785.882 290.443 784.012 290.443ZM802.447 290.443C800.357 290.443 798.729 289.915 797.563 288.859C796.397 287.781 795.814 286.186 795.814 284.074V268.498H800.962V284.008C800.962 284.756 801.16 285.339 801.556 285.757C801.952 286.153 802.491 286.351 803.173 286.351C803.987 286.351 804.68 286.131 805.252 285.691L806.638 289.321C806.11 289.695 805.472 289.981 804.724 290.179C803.998 290.355 803.239 290.443 802.447 290.443ZM793.075 276.781V272.821H805.384V276.781H793.075ZM809.528 290.179V272.425H814.676V290.179H809.528ZM812.102 269.95C811.156 269.95 810.386 269.675 809.792 269.125C809.198 268.575 808.901 267.893 808.901 267.079C808.901 266.265 809.198 265.583 809.792 265.033C810.386 264.483 811.156 264.208 812.102 264.208C813.048 264.208 813.818 264.472 814.412 265C815.006 265.506 815.303 266.166 815.303 266.98C815.303 267.838 815.006 268.553 814.412 269.125C813.84 269.675 813.07 269.95 812.102 269.95ZM827.902 290.443C826.01 290.443 824.327 290.047 822.853 289.255C821.401 288.463 820.246 287.385 819.388 286.021C818.552 284.635 818.134 283.062 818.134 281.302C818.134 279.52 818.552 277.947 819.388 276.583C820.246 275.197 821.401 274.119 822.853 273.349C824.327 272.557 826.01 272.161 827.902 272.161C829.772 272.161 831.444 272.557 832.918 273.349C834.392 274.119 835.547 275.186 836.383 276.55C837.219 277.914 837.637 279.498 837.637 281.302C837.637 283.062 837.219 284.635 836.383 286.021C835.547 287.385 834.392 288.463 832.918 289.255C831.444 290.047 829.772 290.443 827.902 290.443ZM827.902 286.219C828.76 286.219 829.53 286.021 830.212 285.625C830.894 285.229 831.433 284.668 831.829 283.942C832.225 283.194 832.423 282.314 832.423 281.302C832.423 280.268 832.225 279.388 831.829 278.662C831.433 277.936 830.894 277.375 830.212 276.979C829.53 276.583 828.76 276.385 827.902 276.385C827.044 276.385 826.274 276.583 825.592 276.979C824.91 277.375 824.36 277.936 823.942 278.662C823.546 279.388 823.348 280.268 823.348 281.302C823.348 282.314 823.546 283.194 823.942 283.942C824.36 284.668 824.91 285.229 825.592 285.625C826.274 286.021 827.044 286.219 827.902 286.219ZM851.869 272.161C853.277 272.161 854.531 272.447 855.631 273.019C856.753 273.569 857.633 274.427 858.271 275.593C858.909 276.737 859.228 278.211 859.228 280.015V290.179H854.08V280.807C854.08 279.377 853.761 278.321 853.123 277.639C852.507 276.957 851.627 276.616 850.483 276.616C849.669 276.616 848.932 276.792 848.272 277.144C847.634 277.474 847.128 277.991 846.754 278.695C846.402 279.399 846.226 280.301 846.226 281.401V290.179H841.078V272.425H845.995V277.342L845.071 275.857C845.709 274.669 846.622 273.756 847.81 273.118C848.998 272.48 850.351 272.161 851.869 272.161Z" fill="#CDDAED"/>
<g filter="url(#filter0_f_816_340)">
<path d="M729.964 256.359C701.67 225.412 648.145 226.164 686.928 198.64C725.712 171.117 862.224 207.997 890.519 238.944C918.813 269.891 828.174 283.187 789.391 310.71C750.607 338.233 758.258 287.307 729.964 256.359Z" fill="url(#paint15_linear_816_340)" fill-opacity="0.6"/>
</g>
<path d="M1092.41 543.222H1089.76C1089.65 542.653 1089.46 542.153 1089.18 541.722C1088.91 541.29 1088.57 540.923 1088.16 540.622C1087.76 540.321 1087.31 540.094 1086.81 539.94C1086.31 539.787 1085.79 539.71 1085.23 539.71C1084.22 539.71 1083.32 539.963 1082.53 540.469C1081.74 540.974 1081.11 541.716 1080.65 542.693C1080.2 543.67 1079.97 544.864 1079.97 546.273C1079.97 547.693 1080.2 548.892 1080.65 549.869C1081.11 550.847 1081.74 551.585 1082.54 552.085C1083.33 552.585 1084.23 552.835 1085.22 552.835C1085.77 552.835 1086.3 552.761 1086.79 552.614C1087.29 552.46 1087.74 552.236 1088.14 551.94C1088.55 551.645 1088.89 551.284 1089.17 550.858C1089.45 550.426 1089.65 549.932 1089.76 549.375L1092.41 549.384C1092.27 550.241 1092 551.031 1091.59 551.753C1091.18 552.469 1090.66 553.088 1090.03 553.611C1089.4 554.128 1088.68 554.528 1087.86 554.812C1087.05 555.097 1086.16 555.239 1085.2 555.239C1083.69 555.239 1082.35 554.881 1081.16 554.165C1079.98 553.443 1079.05 552.412 1078.37 551.071C1077.69 549.73 1077.36 548.131 1077.36 546.273C1077.36 544.409 1077.7 542.81 1078.38 541.474C1079.06 540.134 1079.99 539.105 1081.17 538.389C1082.36 537.668 1083.7 537.307 1085.2 537.307C1086.13 537.307 1086.99 537.44 1087.8 537.707C1088.6 537.969 1089.33 538.355 1089.97 538.866C1090.61 539.372 1091.14 539.991 1091.56 540.724C1091.98 541.452 1092.27 542.284 1092.41 543.222ZM1100.88 555.264C1099.65 555.264 1098.58 554.983 1097.66 554.42C1096.75 553.858 1096.04 553.071 1095.53 552.06C1095.03 551.048 1094.77 549.866 1094.77 548.514C1094.77 547.156 1095.03 545.969 1095.53 544.952C1096.04 543.935 1096.75 543.145 1097.66 542.582C1098.58 542.02 1099.65 541.739 1100.88 541.739C1102.1 541.739 1103.17 542.02 1104.09 542.582C1105 543.145 1105.71 543.935 1106.22 544.952C1106.73 545.969 1106.98 547.156 1106.98 548.514C1106.98 549.866 1106.73 551.048 1106.22 552.06C1105.71 553.071 1105 553.858 1104.09 554.42C1103.17 554.983 1102.1 555.264 1100.88 555.264ZM1100.88 553.125C1101.68 553.125 1102.34 552.915 1102.86 552.494C1103.38 552.074 1103.77 551.514 1104.02 550.815C1104.28 550.116 1104.4 549.347 1104.4 548.506C1104.4 547.67 1104.28 546.903 1104.02 546.205C1103.77 545.5 1103.38 544.935 1102.86 544.509C1102.34 544.082 1101.68 543.869 1100.88 543.869C1100.08 543.869 1099.42 544.082 1098.89 544.509C1098.37 544.935 1097.98 545.5 1097.72 546.205C1097.47 546.903 1097.35 547.67 1097.35 548.506C1097.35 549.347 1097.47 550.116 1097.72 550.815C1097.98 551.514 1098.37 552.074 1098.89 552.494C1099.42 552.915 1100.08 553.125 1100.88 553.125ZM1109.82 555V541.909H1112.27V544.04H1112.43C1112.7 543.318 1113.15 542.756 1113.77 542.352C1114.39 541.943 1115.13 541.739 1115.99 541.739C1116.87 541.739 1117.6 541.943 1118.19 542.352C1118.79 542.761 1119.23 543.324 1119.51 544.04H1119.65C1119.96 543.341 1120.46 542.784 1121.14 542.369C1121.82 541.949 1122.63 541.739 1123.58 541.739C1124.77 541.739 1125.73 542.111 1126.48 542.855C1127.24 543.599 1127.62 544.722 1127.62 546.222V555H1125.07V546.46C1125.07 545.574 1124.83 544.932 1124.35 544.534C1123.86 544.136 1123.29 543.938 1122.62 543.938C1121.79 543.938 1121.14 544.193 1120.68 544.705C1120.22 545.21 1119.99 545.861 1119.99 546.656V555H1117.45V546.298C1117.45 545.588 1117.23 545.017 1116.79 544.585C1116.34 544.153 1115.77 543.938 1115.06 543.938C1114.57 543.938 1114.13 544.065 1113.72 544.321C1113.31 544.571 1112.99 544.92 1112.74 545.369C1112.49 545.818 1112.37 546.338 1112.37 546.929V555H1109.82ZM1131.03 559.909V541.909H1133.52V544.031H1133.74C1133.88 543.759 1134.1 543.443 1134.37 543.085C1134.65 542.727 1135.04 542.415 1135.53 542.148C1136.03 541.875 1136.68 541.739 1137.49 541.739C1138.55 541.739 1139.49 542.006 1140.32 542.54C1141.15 543.074 1141.8 543.844 1142.27 544.849C1142.75 545.855 1142.99 547.065 1142.99 548.48C1142.99 549.895 1142.75 551.108 1142.28 552.119C1141.81 553.125 1141.16 553.901 1140.34 554.446C1139.52 554.986 1138.58 555.256 1137.52 555.256C1136.72 555.256 1136.07 555.122 1135.57 554.855C1135.07 554.588 1134.68 554.276 1134.39 553.918C1134.11 553.56 1133.89 553.241 1133.74 552.963H1133.58V559.909H1131.03ZM1133.53 548.455C1133.53 549.375 1133.66 550.182 1133.93 550.875C1134.2 551.568 1134.58 552.111 1135.09 552.503C1135.6 552.889 1136.22 553.082 1136.95 553.082C1137.71 553.082 1138.35 552.881 1138.86 552.477C1139.37 552.068 1139.75 551.514 1140.02 550.815C1140.28 550.116 1140.42 549.33 1140.42 548.455C1140.42 547.591 1140.29 546.815 1140.02 546.128C1139.77 545.44 1139.38 544.898 1138.87 544.5C1138.35 544.102 1137.72 543.903 1136.95 543.903C1136.21 543.903 1135.58 544.094 1135.07 544.474C1134.57 544.855 1134.18 545.386 1133.92 546.068C1133.66 546.75 1133.53 547.545 1133.53 548.455ZM1154.14 549.571V541.909H1156.7V555H1154.19V552.733H1154.05C1153.75 553.432 1153.27 554.014 1152.6 554.48C1151.95 554.94 1151.12 555.17 1150.14 555.17C1149.3 555.17 1148.56 554.986 1147.91 554.616C1147.27 554.241 1146.76 553.688 1146.39 552.955C1146.03 552.222 1145.85 551.315 1145.85 550.236V541.909H1148.39V549.929C1148.39 550.821 1148.64 551.531 1149.14 552.06C1149.63 552.588 1150.27 552.852 1151.06 552.852C1151.54 552.852 1152.01 552.733 1152.49 552.494C1152.96 552.256 1153.36 551.895 1153.67 551.412C1153.99 550.929 1154.14 550.315 1154.14 549.571ZM1166.23 541.909V543.955H1159.08V541.909H1166.23ZM1161 538.773H1163.55V551.156C1163.55 551.651 1163.62 552.023 1163.77 552.273C1163.91 552.517 1164.11 552.685 1164.34 552.776C1164.58 552.861 1164.84 552.903 1165.11 552.903C1165.32 552.903 1165.5 552.889 1165.65 552.861C1165.8 552.832 1165.92 552.81 1166.01 552.793L1166.47 554.898C1166.32 554.955 1166.11 555.011 1165.84 555.068C1165.57 555.131 1165.22 555.165 1164.82 555.17C1164.14 555.182 1163.52 555.062 1162.94 554.812C1162.36 554.562 1161.89 554.176 1161.53 553.653C1161.18 553.131 1161 552.474 1161 551.685V538.773ZM1174.55 555.264C1173.26 555.264 1172.15 554.989 1171.22 554.438C1170.29 553.881 1169.58 553.099 1169.07 552.094C1168.57 551.082 1168.32 549.898 1168.32 548.54C1168.32 547.199 1168.57 546.017 1169.07 544.994C1169.58 543.972 1170.28 543.173 1171.18 542.599C1172.09 542.026 1173.16 541.739 1174.37 541.739C1175.11 541.739 1175.83 541.861 1176.52 542.105C1177.21 542.349 1177.83 542.733 1178.39 543.256C1178.94 543.778 1179.37 544.457 1179.69 545.293C1180.01 546.122 1180.17 547.131 1180.17 548.318V549.222H1169.76V547.312H1177.67C1177.67 546.642 1177.53 546.048 1177.26 545.531C1176.99 545.009 1176.6 544.597 1176.11 544.295C1175.62 543.994 1175.05 543.844 1174.39 543.844C1173.67 543.844 1173.05 544.02 1172.51 544.372C1171.99 544.719 1171.58 545.173 1171.29 545.736C1171 546.293 1170.86 546.898 1170.86 547.551V549.043C1170.86 549.918 1171.01 550.662 1171.32 551.276C1171.63 551.889 1172.07 552.358 1172.62 552.682C1173.18 553 1173.83 553.159 1174.58 553.159C1175.06 553.159 1175.5 553.091 1175.9 552.955C1176.29 552.812 1176.64 552.602 1176.93 552.324C1177.22 552.045 1177.44 551.702 1177.59 551.293L1180 551.727C1179.81 552.437 1179.47 553.06 1178.97 553.594C1178.47 554.122 1177.85 554.534 1177.1 554.83C1176.35 555.119 1175.5 555.264 1174.55 555.264Z" fill="#CDDAED"/>
<rect x="1036.6" y="534.6" width="24.8" height="24.8" rx="3.4" fill="#0D2651" stroke="#1F8EFF" stroke-width="1.2"/>
<path d="M1087.44 680.131C1087.35 679.324 1086.97 678.699 1086.31 678.256C1085.65 677.807 1084.82 677.582 1083.82 677.582C1083.11 677.582 1082.49 677.696 1081.97 677.923C1081.44 678.145 1081.04 678.452 1080.75 678.844C1080.46 679.23 1080.32 679.67 1080.32 680.165C1080.32 680.58 1080.42 680.937 1080.61 681.239C1080.81 681.54 1081.07 681.793 1081.39 681.997C1081.71 682.196 1082.06 682.364 1082.43 682.5C1082.8 682.631 1083.15 682.739 1083.49 682.824L1085.2 683.267C1085.75 683.403 1086.32 683.588 1086.91 683.821C1087.49 684.054 1088.04 684.361 1088.54 684.741C1089.04 685.122 1089.44 685.594 1089.75 686.156C1090.06 686.719 1090.22 687.392 1090.22 688.176C1090.22 689.165 1089.96 690.043 1089.45 690.81C1088.94 691.577 1088.21 692.182 1087.24 692.625C1086.28 693.068 1085.12 693.29 1083.76 693.29C1082.45 693.29 1081.32 693.082 1080.36 692.668C1079.41 692.253 1078.66 691.665 1078.12 690.903C1077.58 690.136 1077.28 689.227 1077.23 688.176H1079.87C1079.92 688.807 1080.13 689.332 1080.48 689.753C1080.85 690.168 1081.31 690.477 1081.87 690.682C1082.44 690.881 1083.06 690.98 1083.74 690.98C1084.48 690.98 1085.14 690.864 1085.72 690.631C1086.31 690.392 1086.77 690.062 1087.11 689.642C1087.44 689.216 1087.61 688.719 1087.61 688.151C1087.61 687.634 1087.46 687.21 1087.16 686.881C1086.88 686.551 1086.48 686.278 1085.98 686.062C1085.49 685.847 1084.93 685.656 1084.3 685.491L1082.24 684.929C1080.84 684.548 1079.73 683.989 1078.91 683.25C1078.1 682.511 1077.7 681.534 1077.7 680.318C1077.7 679.312 1077.97 678.435 1078.51 677.685C1079.06 676.935 1079.8 676.352 1080.73 675.938C1081.66 675.517 1082.71 675.307 1083.88 675.307C1085.07 675.307 1086.11 675.514 1087.01 675.929C1087.92 676.344 1088.64 676.915 1089.16 677.642C1089.68 678.364 1089.95 679.193 1089.98 680.131H1087.44ZM1099.2 693.239C1098.03 693.239 1096.99 693.037 1096.06 692.634C1095.15 692.23 1094.43 691.67 1093.89 690.955C1093.36 690.233 1093.08 689.398 1093.04 688.449H1095.72C1095.75 688.966 1095.92 689.415 1096.24 689.795C1096.55 690.17 1096.97 690.46 1097.48 690.665C1097.99 690.869 1098.56 690.972 1099.18 690.972C1099.87 690.972 1100.48 690.852 1101.01 690.614C1101.54 690.375 1101.96 690.043 1102.26 689.616C1102.56 689.185 1102.71 688.688 1102.71 688.125C1102.71 687.54 1102.56 687.026 1102.26 686.582C1101.97 686.134 1101.53 685.781 1100.96 685.526C1100.39 685.27 1099.7 685.142 1098.89 685.142H1097.42V682.994H1098.89C1099.54 682.994 1100.11 682.878 1100.6 682.645C1101.09 682.412 1101.48 682.088 1101.76 681.673C1102.04 681.253 1102.18 680.761 1102.18 680.199C1102.18 679.659 1102.05 679.19 1101.81 678.793C1101.57 678.389 1101.23 678.074 1100.79 677.847C1100.35 677.619 1099.83 677.506 1099.24 677.506C1098.67 677.506 1098.14 677.611 1097.64 677.821C1097.15 678.026 1096.75 678.321 1096.45 678.707C1096.14 679.088 1095.98 679.545 1095.95 680.08H1093.41C1093.43 679.136 1093.71 678.307 1094.24 677.591C1094.77 676.875 1095.48 676.315 1096.35 675.912C1097.23 675.509 1098.2 675.307 1099.27 675.307C1100.39 675.307 1101.35 675.526 1102.17 675.963C1102.99 676.395 1103.62 676.972 1104.06 677.693C1104.51 678.415 1104.73 679.205 1104.72 680.062C1104.73 681.04 1104.46 681.869 1103.91 682.551C1103.36 683.233 1102.63 683.69 1101.72 683.923V684.06C1102.88 684.236 1103.78 684.696 1104.42 685.44C1105.06 686.185 1105.38 687.108 1105.37 688.21C1105.38 689.17 1105.11 690.031 1104.57 690.793C1104.04 691.554 1103.31 692.153 1102.38 692.591C1101.45 693.023 1100.39 693.239 1099.2 693.239Z" fill="#CDDAED"/>
<rect x="1036" y="672" width="26" height="26" rx="4" fill="#6ECFE5"/>
<path d="M1075.92 624V606.545H1086.86V608.812H1078.55V614.131H1086.29V616.389H1078.55V621.733H1086.96V624H1075.92ZM1097.89 614.165V616.381H1090.15V614.165H1097.89ZM1111.01 611.131C1110.92 610.324 1110.54 609.699 1109.88 609.256C1109.22 608.807 1108.39 608.582 1107.39 608.582C1106.68 608.582 1106.06 608.696 1105.54 608.923C1105.01 609.145 1104.61 609.452 1104.32 609.844C1104.03 610.23 1103.89 610.67 1103.89 611.165C1103.89 611.58 1103.99 611.937 1104.18 612.239C1104.38 612.54 1104.64 612.793 1104.96 612.997C1105.28 613.196 1105.63 613.364 1106 613.5C1106.37 613.631 1106.72 613.739 1107.06 613.824L1108.77 614.267C1109.32 614.403 1109.89 614.588 1110.48 614.821C1111.06 615.054 1111.61 615.361 1112.11 615.741C1112.61 616.122 1113.01 616.594 1113.32 617.156C1113.63 617.719 1113.79 618.392 1113.79 619.176C1113.79 620.165 1113.53 621.043 1113.02 621.81C1112.51 622.577 1111.78 623.182 1110.81 623.625C1109.85 624.068 1108.69 624.29 1107.33 624.29C1106.02 624.29 1104.89 624.082 1103.93 623.668C1102.98 623.253 1102.23 622.665 1101.69 621.903C1101.15 621.136 1100.85 620.227 1100.8 619.176H1103.44C1103.49 619.807 1103.7 620.332 1104.05 620.753C1104.42 621.168 1104.88 621.477 1105.44 621.682C1106.01 621.881 1106.63 621.98 1107.31 621.98C1108.05 621.98 1108.72 621.864 1109.29 621.631C1109.88 621.392 1110.34 621.062 1110.68 620.642C1111.01 620.216 1111.18 619.719 1111.18 619.151C1111.18 618.634 1111.03 618.21 1110.74 617.881C1110.45 617.551 1110.05 617.278 1109.55 617.062C1109.06 616.847 1108.5 616.656 1107.87 616.491L1105.81 615.929C1104.41 615.548 1103.3 614.989 1102.49 614.25C1101.67 613.511 1101.27 612.534 1101.27 611.318C1101.27 610.312 1101.54 609.435 1102.08 608.685C1102.63 607.935 1103.37 607.352 1104.3 606.938C1105.23 606.517 1106.28 606.307 1107.45 606.307C1108.64 606.307 1109.68 606.514 1110.58 606.929C1111.49 607.344 1112.21 607.915 1112.73 608.642C1113.25 609.364 1113.52 610.193 1113.55 611.131H1111.01ZM1122.77 624.239C1121.6 624.239 1120.56 624.037 1119.63 623.634C1118.72 623.23 1118 622.67 1117.46 621.955C1116.93 621.233 1116.65 620.398 1116.61 619.449H1119.29C1119.32 619.966 1119.49 620.415 1119.81 620.795C1120.12 621.17 1120.54 621.46 1121.05 621.665C1121.56 621.869 1122.13 621.972 1122.75 621.972C1123.44 621.972 1124.05 621.852 1124.58 621.614C1125.11 621.375 1125.53 621.043 1125.83 620.616C1126.13 620.185 1126.28 619.688 1126.28 619.125C1126.28 618.54 1126.13 618.026 1125.83 617.582C1125.54 617.134 1125.1 616.781 1124.53 616.526C1123.96 616.27 1123.27 616.142 1122.46 616.142H1120.99V613.994H1122.46C1123.11 613.994 1123.68 613.878 1124.17 613.645C1124.66 613.412 1125.05 613.088 1125.33 612.673C1125.61 612.253 1125.75 611.761 1125.75 611.199C1125.75 610.659 1125.62 610.19 1125.38 609.793C1125.14 609.389 1124.8 609.074 1124.36 608.847C1123.92 608.619 1123.4 608.506 1122.81 608.506C1122.24 608.506 1121.71 608.611 1121.21 608.821C1120.72 609.026 1120.33 609.321 1120.02 609.707C1119.71 610.088 1119.55 610.545 1119.52 611.08H1116.98C1117 610.136 1117.28 609.307 1117.81 608.591C1118.35 607.875 1119.05 607.315 1119.92 606.912C1120.8 606.509 1121.77 606.307 1122.84 606.307C1123.96 606.307 1124.92 606.526 1125.74 606.963C1126.56 607.395 1127.19 607.972 1127.63 608.693C1128.08 609.415 1128.3 610.205 1128.29 611.062C1128.3 612.04 1128.03 612.869 1127.48 613.551C1126.93 614.233 1126.2 614.69 1125.29 614.923V615.06C1126.45 615.236 1127.35 615.696 1127.99 616.44C1128.63 617.185 1128.95 618.108 1128.94 619.21C1128.95 620.17 1128.68 621.031 1128.14 621.793C1127.61 622.554 1126.88 623.153 1125.95 623.591C1125.02 624.023 1123.96 624.239 1122.77 624.239Z" fill="#CDDAED"/>
<rect x="1036" y="603" width="26" height="26" rx="4" fill="#7557FF"/>
<defs>
<filter id="filter0_f_816_340" x="484.657" y="0.318192" width="599.896" height="506.935" filterUnits="userSpaceOnUse" color-interpolation-filters="sRGB">
<feFlood flood-opacity="0" result="BackgroundImageFix"/>
<feBlend mode="normal" in="SourceGraphic" in2="BackgroundImageFix" result="shape"/>
<feGaussianBlur stdDeviation="94.3276" result="effect1_foregroundBlur_816_340"/>
</filter>
<linearGradient id="paint0_linear_816_340" x1="0" y1="699" x2="927.525" y2="699" gradientUnits="userSpaceOnUse">
<stop stop-color="#080C26"/>
<stop offset="0.465026" stop-color="#50688B" stop-opacity="0.3"/>
<stop offset="1" stop-color="#080C26"/>
</linearGradient>
<linearGradient id="paint1_linear_816_340" x1="0" y1="649" x2="927.525" y2="649" gradientUnits="userSpaceOnUse">
<stop stop-color="#080C26"/>
<stop offset="0.465026" stop-color="#50688B" stop-opacity="0.3"/>
<stop offset="1" stop-color="#080C26"/>
</linearGradient>
<linearGradient id="paint2_linear_816_340" x1="0" y1="599" x2="927.525" y2="599" gradientUnits="userSpaceOnUse">
<stop stop-color="#080C26"/>
<stop offset="0.465026" stop-color="#50688B" stop-opacity="0.3"/>
<stop offset="1" stop-color="#080C26"/>
</linearGradient>
<linearGradient id="paint3_linear_816_340" x1="0" y1="549" x2="927.525" y2="549" gradientUnits="userSpaceOnUse">
<stop stop-color="#080C26"/>
<stop offset="0.465026" stop-color="#50688B" stop-opacity="0.3"/>
<stop offset="1" stop-color="#080C26"/>
</linearGradient>
<linearGradient id="paint4_linear_816_340" x1="0" y1="499" x2="927.525" y2="499" gradientUnits="userSpaceOnUse">
<stop stop-color="#080C26"/>
<stop offset="0.465026" stop-color="#50688B" stop-opacity="0.3"/>
<stop offset="1" stop-color="#080C26"/>
</linearGradient>
<linearGradient id="paint5_linear_816_340" x1="0" y1="449" x2="927.525" y2="449" gradientUnits="userSpaceOnUse">
<stop stop-color="#080C26"/>
<stop offset="0.465026" stop-color="#50688B" stop-opacity="0.3"/>
<stop offset="1" stop-color="#080C26"/>
</linearGradient>
<linearGradient id="paint6_linear_816_340" x1="0" y1="399" x2="927.525" y2="399" gradientUnits="userSpaceOnUse">
<stop stop-color="#080C26"/>
<stop offset="0.465026" stop-color="#50688B" stop-opacity="0.3"/>
<stop offset="1" stop-color="#080C26"/>
</linearGradient>
<linearGradient id="paint7_linear_816_340" x1="0" y1="349" x2="927.525" y2="349" gradientUnits="userSpaceOnUse">
<stop stop-color="#080C26"/>
<stop offset="0.465026" stop-color="#50688B" stop-opacity="0.3"/>
<stop offset="1" stop-color="#080C26"/>
</linearGradient>
<linearGradient id="paint8_linear_816_340" x1="651.218" y1="557.14" x2="439.358" y2="310.29" gradientUnits="userSpaceOnUse">
<stop stop-color="#30D5C8"/>
<stop offset="1" stop-color="#080C26"/>
</linearGradient>
<linearGradient id="paint9_linear_816_340" x1="611.431" y1="422.318" x2="523.623" y2="334.318" gradientUnits="userSpaceOnUse">
<stop stop-color="#38FFEF"/>
<stop offset="1" stop-color="#30D5C8" stop-opacity="0.3"/>
</linearGradient>
<linearGradient id="paint10_linear_816_340" x1="200" y1="304.5" x2="363" y2="304.5" gradientUnits="userSpaceOnUse">
<stop stop-color="#2B0D0D"/>
<stop offset="1" stop-color="#080C26"/>
</linearGradient>
<linearGradient id="paint11_linear_816_340" x1="200" y1="304.5" x2="363" y2="304.5" gradientUnits="userSpaceOnUse">
<stop stop-color="#DF4343"/>
<stop offset="1" stop-color="#521919"/>
</linearGradient>
<linearGradient id="paint12_linear_816_340" x1="582" y1="459.5" x2="728" y2="459.5" gradientUnits="userSpaceOnUse">
<stop stop-color="#0D3236"/>
<stop offset="1" stop-color="#080C26"/>
</linearGradient>
<linearGradient id="paint13_linear_816_340" x1="582" y1="459.5" x2="728" y2="459.5" gradientUnits="userSpaceOnUse">
<stop stop-color="#66F2C3"/>
<stop offset="1" stop-color="#184D52"/>
</linearGradient>
<linearGradient id="paint14_linear_816_340" x1="699.744" y1="724" x2="699.413" y2="742.228" gradientUnits="userSpaceOnUse">
<stop stop-color="#30D5C8"/>
<stop offset="1" stop-color="#7557FF"/>
</linearGradient>
<linearGradient id="paint15_linear_816_340" x1="903.094" y1="252.698" x2="765.498" y2="349.965" gradientUnits="userSpaceOnUse">
<stop stop-color="#30D5C8"/>
<stop offset="1" stop-color="#7557FF"/>
</linearGradient>
</defs>
</svg>
