<svg width="178" height="178" viewBox="0 0 178 178" fill="none" xmlns="http://www.w3.org/2000/svg">
<circle cx="88.9993" cy="89" r="52" fill="#090D27"/>
<path d="M143.239 77.0305C142.522 73.8401 144.024 69.8706 142.724 66.7476C141.424 63.6245 137.549 61.8944 135.79 59.137C133.981 56.3018 134.029 52.0644 131.803 49.644C129.538 47.1811 125.303 46.8819 122.677 44.8779C120.026 42.8557 118.617 38.8544 115.673 37.3304C112.721 35.8025 108.64 36.9631 105.468 35.9674C102.306 34.9746 99.6191 31.6879 96.3128 31.2558C93.0372 30.8273 89.599 33.3078 86.2553 33.4597C82.9703 33.6089 79.3208 31.4401 76.0397 32.1779C72.8487 32.8953 70.4729 36.4026 67.3493 37.7031C64.2263 39.0033 60.0628 38.2184 57.3061 39.9772C54.4708 41.7858 53.4387 45.9038 51.0183 48.1299C48.5553 50.3954 44.3723 51.0886 42.3688 53.7141C40.3461 56.3649 40.7861 60.587 39.2622 63.5307C37.7342 66.4829 34.0342 68.5621 33.0392 71.7333C32.0466 74.8961 33.8931 78.7147 33.4609 82.0209C33.033 85.2963 30.2609 88.5128 30.4126 91.8558C30.5618 95.1409 33.6028 98.092 34.3406 101.373C35.0577 104.563 33.5557 108.533 34.8558 111.656C36.156 114.779 40.0311 116.509 41.7901 119.267C43.5988 122.102 43.5505 126.339 45.7766 128.76C48.0421 131.223 52.2772 131.522 54.9037 133.526C57.5542 135.548 58.9634 139.549 61.9072 141.073C64.8593 142.601 68.9411 141.44 72.1126 142.436C75.2747 143.429 77.9615 146.715 81.2678 147.148C84.5434 147.576 87.9816 145.096 91.3246 144.944C94.6097 144.795 98.2592 146.963 101.54 146.226C104.731 145.508 107.107 142.001 110.23 140.701C113.353 139.401 117.517 140.185 120.273 138.427C123.108 136.618 124.141 132.5 126.561 130.274C129.024 128.009 133.207 127.315 135.21 124.69C137.233 122.039 136.793 117.817 138.317 114.873C139.845 111.921 143.545 109.842 144.54 106.671C145.533 103.508 143.686 99.6892 144.118 96.383C144.546 93.1076 147.318 89.8911 147.167 86.5481C147.018 83.2628 143.977 80.3116 143.239 77.0305ZM108.077 135.528C82.4915 146.18 53.1151 134.074 42.4634 108.489C31.8116 82.9038 43.9177 53.5274 69.5028 42.8757C95.0878 32.2239 124.464 44.33 135.116 69.915C145.768 95.5001 133.662 124.876 108.077 135.528Z" fill="#29B5AA"/>
<path d="M106.863 132.613C82.9258 142.578 55.3445 131.212 45.3787 107.274C35.4132 83.3376 46.7795 55.7563 70.7162 45.7908C94.653 35.8252 122.235 47.1913 132.2 71.128C142.166 95.0654 130.799 122.647 106.863 132.613ZM71.4769 47.6178C48.5474 57.1639 37.6592 83.5852 47.2053 106.515C56.7515 129.444 83.1727 140.332 106.102 130.786C129.032 121.24 139.92 94.8187 130.374 71.8893C120.828 48.9599 94.4063 38.0716 71.4769 47.6178Z" fill="#29B5AA"/>
<path d="M104.813 127.691C83.5909 136.526 59.136 126.449 50.3002 105.226C41.4647 84.0029 51.542 59.5481 72.7653 50.7122C93.9879 41.8767 118.442 51.9543 127.278 73.1776C136.114 94.4008 126.036 118.855 104.813 127.691ZM73.0192 51.3221C52.1317 60.0181 42.2139 84.0856 50.9097 104.972C59.6057 125.86 83.6733 135.778 104.56 127.082C125.447 118.386 135.365 94.3184 126.67 73.4316C117.974 52.5441 93.9061 42.6263 73.0192 51.3221Z" fill="#29B5AA"/>
<path d="M147.196 67.051C150.264 74.4188 146.745 82.9572 139.377 86.0246L50.8927 122.863C43.5249 125.931 34.9865 122.412 31.9191 115.044L30.3822 111.353C27.3148 103.985 30.8335 95.4465 38.2013 92.379L126.686 55.5404C134.054 52.473 142.592 55.9917 145.66 63.3595L147.196 67.051Z" fill="#29B5AA"/>
<path d="M41.0957 116.503L36.063 104.415L40.1221 102.725C40.8483 102.423 41.5024 102.311 42.0839 102.391C42.6654 102.47 43.1793 102.722 43.6256 103.149C44.0719 103.576 44.4506 104.163 44.7612 104.909C45.1506 105.844 45.2931 106.622 45.1903 107.242C45.087 107.864 44.8105 108.379 44.3619 108.787C43.9134 109.195 43.3608 109.537 42.7045 109.81L41.6305 110.257L43.7678 115.391L41.0957 116.503ZM40.853 108.392L41.7484 108.019C42.0772 107.882 42.3003 107.719 42.4197 107.529C42.5391 107.339 42.5766 107.114 42.5317 106.852C42.4872 106.591 42.3879 106.275 42.2347 105.907C42.1065 105.599 41.9712 105.337 41.8293 105.121C41.6876 104.907 41.5023 104.764 41.2758 104.695C41.048 104.627 40.7556 104.666 40.3976 104.815L39.5175 105.182L40.853 108.392Z" fill="white"/>
<path d="M49.0344 113.198L46.2853 100.159L49.3295 98.8918L56.6158 110.042L54.1529 111.067L52.6879 108.683L50.9118 109.422L51.5564 112.148L49.0344 113.198ZM50.4861 107.726L51.77 107.191L49.165 102.742L50.4861 107.726Z" fill="white"/>
<path d="M58.929 109.079L54.7226 98.9754L52.902 99.7334L52.0757 97.7487L58.3885 95.1205L59.2148 97.1052L57.4088 97.8571L61.6151 107.961L58.929 109.079Z" fill="white"/>
<path d="M64.4804 106.768L59.4478 94.6794L64.8798 92.4179L65.6378 94.2386L62.8772 95.3879L64.1261 98.3875L66.2303 97.5115L67.0008 99.362L64.8965 100.238L66.4 103.849L69.1905 102.688L69.9421 104.493L64.4804 106.768Z" fill="white"/>
<path d="M71.1511 103.99L66.1184 91.9021L67.9988 91.1192L72.8994 95.9077L70.4764 90.0878L72.6849 89.1683L77.7176 101.257L75.9116 102.008L70.8246 96.7722L73.434 103.04L71.1511 103.99Z" fill="white"/>
<path d="M80.6126 100.051L76.4062 89.9479L74.5856 90.7059L73.7593 88.7212L80.0721 86.093L80.8984 88.0777L79.0923 88.8296L83.2987 98.9331L80.6126 100.051Z" fill="white"/>
<path d="M89.9841 96.1498L84.9514 84.0615L89.0105 82.3716C89.7367 82.0693 90.3908 81.9574 90.9723 82.0369C91.5538 82.1164 92.0678 82.3687 92.514 82.7955C92.9603 83.2223 93.339 83.8093 93.6496 84.5552C94.039 85.4907 94.1816 86.2685 94.0787 86.8888C93.9754 87.5101 93.6989 88.0252 93.2504 88.4335C92.8018 88.8419 92.2492 89.1831 91.593 89.4563L90.5189 89.9035L92.6562 95.0373L89.9841 96.1498ZM89.7415 88.038L90.6369 87.6652C90.9656 87.5283 91.1887 87.3653 91.3081 87.1753C91.4275 86.9853 91.465 86.76 91.4202 86.4982C91.3756 86.2369 91.2764 85.9216 91.1231 85.5534C90.9949 85.2456 90.8596 84.9833 90.7177 84.7678C90.576 84.553 90.3907 84.4107 90.1642 84.3416C89.9364 84.2731 89.644 84.3127 89.286 84.4618L88.4059 84.8282L89.7415 88.038Z" fill="white"/>
<path d="M98.5053 92.602L93.4727 80.5138L98.9047 78.2523L99.6627 80.0729L96.9022 81.2222L98.151 84.2219L100.255 83.3458L101.026 85.1963L98.9214 86.0724L100.425 89.6838L103.215 88.5221L103.967 90.3274L98.5053 92.602Z" fill="white"/>
<path d="M105.176 89.8247L100.144 77.7365L102.024 76.9536L106.925 81.7421L104.502 75.9221L106.71 75.0026L111.743 87.0909L109.937 87.8428L104.85 82.6066L107.459 88.8742L105.176 89.8247Z" fill="white"/>
<path d="M113.548 86.3393L108.515 74.2511L111.575 72.9774C112.629 72.5384 113.505 72.3289 114.202 72.3478C114.899 72.3673 115.484 72.608 115.956 73.0708C116.429 73.5337 116.852 74.2127 117.225 75.1081L119.051 79.4953C119.428 80.4009 119.616 81.1889 119.616 81.8606C119.615 82.5322 119.38 83.1235 118.909 83.6344C118.439 84.145 117.682 84.6184 116.637 85.0534L113.548 86.3393ZM115.449 83.3766L115.867 83.2026C116.275 83.0327 116.543 82.8508 116.673 82.6573C116.803 82.4631 116.84 82.2371 116.785 81.9801C116.731 81.7229 116.629 81.4147 116.48 81.0567L114.287 75.7887C114.138 75.4307 113.99 75.1534 113.844 74.9574C113.699 74.7614 113.515 74.6511 113.295 74.6263C113.075 74.6015 112.765 74.6717 112.368 74.8372L111.965 75.0048L115.45 83.3761L115.449 83.3766Z" fill="white"/>
<path d="M122.308 82.6924L117.275 70.6041L119.947 69.4919L124.98 81.5801L122.308 82.6924Z" fill="white"/>
<path d="M126.785 80.8285L121.752 68.7402L123.633 67.9574L128.533 72.7458L126.11 66.9259L128.319 66.0064L133.351 78.0946L131.545 78.8465L126.458 73.6104L129.068 79.878L126.785 80.8285Z" fill="white"/>
<path d="M138.38 76.2107C137.545 76.5586 136.813 76.6589 136.186 76.5117C135.558 76.3642 135.011 76.0175 134.543 75.4704C134.076 74.9233 133.671 74.2369 133.327 73.4114L131.637 69.3524C131.281 68.497 131.082 67.71 131.04 66.9919C130.997 66.2738 131.171 65.6322 131.561 65.0678C131.95 64.5028 132.602 64.0298 133.518 63.6486C134.413 63.2758 135.179 63.1315 135.816 63.217C136.453 63.3025 136.99 63.5633 137.429 63.9991C137.867 64.4358 138.234 65.0062 138.528 65.7128L138.851 66.4886L136.239 67.5759L135.829 66.5909C135.722 66.3321 135.605 66.101 135.479 65.8965C135.353 65.6923 135.2 65.5486 135.02 65.4661C134.84 65.3838 134.61 65.4003 134.331 65.5163C134.043 65.6365 133.866 65.8009 133.801 66.0088C133.736 66.2171 133.733 66.4429 133.794 66.6861C133.855 66.9294 133.936 67.1752 134.04 67.4239L136.37 73.02C136.481 73.2884 136.613 73.5282 136.766 73.7394C136.917 73.9509 137.095 74.0982 137.3 74.1825C137.504 74.2667 137.74 74.2528 138.009 74.1408C138.288 74.0249 138.471 73.8615 138.558 73.6499C138.645 73.4382 138.669 73.2008 138.629 72.9375C138.59 72.6741 138.514 72.4079 138.402 72.1389L137.812 70.7215L136.722 71.175L136.07 69.6081L139.562 68.1541L142.172 74.4217L140.41 75.1551L139.845 74.2173C139.827 74.6218 139.71 75.0004 139.495 75.3526C139.279 75.7054 138.907 75.9912 138.38 76.2107Z" fill="white"/>
<path d="M74.9747 56.0198L78.7342 59.3023L83.5696 58.0666L81.6087 62.6563L84.2785 66.8737L79.3076 66.4273L76.1222 70.2694L75.0103 65.4034L70.3717 63.5613L74.6554 61.0004L74.9747 56.0198Z" fill="#29B5AA"/>
<path d="M61.6839 67.2074L64.0274 69.2536L67.0418 68.4829L65.8197 71.3435L67.4836 73.9726L64.3847 73.6944L62.3994 76.0893L61.7059 73.0562L58.8149 71.908L61.4856 70.3118L61.6839 67.2074Z" fill="#29B5AA"/>
<path d="M92.2781 54.4703L94.6209 56.5168L97.6353 55.7461L96.4132 58.6067L98.0771 61.2358L94.9788 60.9573L92.9929 63.3525L92.3001 60.3191L89.4084 59.1712L92.0791 57.575L92.2781 54.4703Z" fill="#29B5AA"/>
<path d="M97.0523 109.049L100.812 112.331L105.647 111.095L103.687 115.686L106.356 119.903L101.385 119.456L98.1998 123.298L97.0882 118.433L92.4493 116.59L96.733 114.029L97.0523 109.049Z" fill="#29B5AA"/>
<path d="M81.6463 115.156L83.9898 117.202L87.0042 116.431L85.7824 119.293L87.446 121.921L84.3473 121.643L82.3618 124.038L81.6686 121.005L78.7773 119.856L81.448 118.26L81.6463 115.156Z" fill="#29B5AA"/>
<path d="M112.24 102.419L114.583 104.465L117.598 103.694L116.376 106.556L118.04 109.184L114.941 108.906L112.955 111.301L112.263 108.268L109.371 107.119L112.042 105.523L112.24 102.419Z" fill="#29B5AA"/>
</svg>
