<svg width="14" height="16" viewBox="0 0 14 16" fill="none" xmlns="http://www.w3.org/2000/svg">
<path d="M7.90058 6.92667L3.91225 1.335C3.866 1.27004 3.80487 1.21708 3.73398 1.18055C3.6631 1.14401 3.5845 1.12497 3.50475 1.125H1.39975C1.308 1.12512 1.21805 1.15048 1.13975 1.19831C1.06146 1.24613 0.997827 1.31458 0.955834 1.39616C0.913842 1.47773 0.895104 1.56929 0.901674 1.6608C0.908244 1.75232 0.939868 1.84026 0.993083 1.915L6.09892 9.07333M7.90058 6.92667L13.0064 14.085C13.0596 14.1597 13.0913 14.2477 13.0978 14.3392C13.1044 14.4307 13.0857 14.5223 13.0437 14.6038C13.0017 14.6854 12.938 14.7539 12.8597 14.8017C12.7814 14.8495 12.6915 14.8749 12.5997 14.875H10.4948C10.415 14.875 10.3364 14.856 10.2655 14.8195C10.1946 14.7829 10.1335 14.73 10.0872 14.665L6.09892 9.07333M7.90058 6.92667L12.7689 1.125M6.09892 9.07333L1.23058 14.875" stroke="#EBF1FA" stroke-width="1.5" stroke-linecap="round" stroke-linejoin="round"/>
</svg>
