<svg width="28" height="28" viewBox="0 0 28 28" fill="none" xmlns="http://www.w3.org/2000/svg">
<g clip-path="url(#clip0_0_11)">
<path d="M7 5.25C6.53587 5.25 6.09075 5.43437 5.76256 5.76256C5.43437 6.09075 5.25 6.53587 5.25 7V21C5.25 21.4641 5.43437 21.9092 5.76256 22.2374C6.09075 22.5656 6.53587 22.75 7 22.75H21C21.4641 22.75 21.9092 22.5656 22.2374 22.2374C22.5656 21.9092 22.75 21.4641 22.75 21V7C22.75 6.53587 22.5656 6.09075 22.2374 5.76256C21.9092 5.43437 21.4641 5.25 21 5.25H7ZM24.5 19.25V21C24.5 21.9283 24.1313 22.8185 23.4749 23.4749C22.8185 24.1313 21.9283 24.5 21 24.5H19.25V28H17.5V24.5H14.875V28H13.125V24.5H10.5V28H8.75V24.5H7C6.07174 24.5 5.1815 24.1313 4.52513 23.4749C3.86875 22.8185 3.5 21.9283 3.5 21V19.25H0V17.5H3.5V14.875H0V13.125H3.5V10.5H0V8.75H3.5V7C3.5 6.07174 3.86875 5.1815 4.52513 4.52513C5.1815 3.86875 6.07174 3.5 7 3.5H8.75V0H10.5V3.5H13.125V0H14.875V3.5H17.5V0H19.25V3.5H21C21.9283 3.5 22.8185 3.86875 23.4749 4.52513C24.1313 5.1815 24.5 6.07174 24.5 7V8.75H28V10.5H24.5V13.125H28V14.875H24.5V17.5H28V19.25H24.5Z" fill="#3499FF" fill-opacity="0.77"/>
<path d="M17.5 8.75H10.5C9.5335 8.75 8.75 9.5335 8.75 10.5V17.5C8.75 18.4665 9.5335 19.25 10.5 19.25H17.5C18.4665 19.25 19.25 18.4665 19.25 17.5V10.5C19.25 9.5335 18.4665 8.75 17.5 8.75Z" fill="#3499FF" fill-opacity="0.77"/>
</g>
<defs>
<clipPath id="clip0_0_11">
<rect width="28" height="28" fill="white"/>
</clipPath>
</defs>
</svg>
