<svg width="30" height="30" viewBox="0 0 30 30" fill="none" xmlns="http://www.w3.org/2000/svg">
<path d="M25.2498 6.56175C25.2498 7.17724 24.975 7.7867 24.441 8.35534C23.9071 8.92398 23.1244 9.44066 22.1378 9.87587C21.1512 10.3111 19.9799 10.6563 18.6908 10.8919C17.4017 11.1274 16.0201 11.2486 14.6248 11.2486C11.8069 11.2486 9.10438 10.7548 7.11181 9.87587C5.11923 8.99691 3.99982 7.80479 3.99982 6.56175C3.99982 5.94626 4.27464 5.3368 4.8086 4.76816C5.34255 4.19953 6.12518 3.68285 7.11181 3.24763C8.09843 2.81242 9.26972 2.46718 10.5588 2.23164C11.8479 1.99611 13.2295 1.87488 14.6248 1.87488C16.0201 1.87488 17.4017 1.99611 18.6908 2.23164C19.9799 2.46718 21.1512 2.81242 22.1378 3.24763C23.1244 3.68285 23.9071 4.19953 24.441 4.76816C24.975 5.3368 25.2498 5.94626 25.2498 6.56175Z" stroke="#6B8BBA" stroke-width="1.875" stroke-linecap="round" stroke-linejoin="round"/>
<path d="M25.2498 23.4345C25.2498 24.2572 24.7589 25.0655 23.8263 25.7779C22.8938 26.4904 21.5525 27.0821 19.9373 27.4935C18.3221 27.9048 16.4899 28.1214 14.6248 28.1214C12.7597 28.1214 10.9275 27.9048 9.31232 27.4935C7.69711 27.0821 6.35583 26.4904 5.4233 25.7779C4.49076 25.0655 3.99982 24.2572 3.99982 23.4345" stroke="#6B8BBA" stroke-width="1.875" stroke-linecap="round" stroke-linejoin="round"/>
<path d="M25.2498 17.8102C25.2498 18.633 24.7589 19.4412 23.8263 20.1537C22.8938 20.8662 21.5525 21.4578 19.9373 21.8692C18.3221 22.2806 16.4899 22.4971 14.6248 22.4971C12.7597 22.4971 10.9275 22.2806 9.31232 21.8692C7.69711 21.4578 6.35584 20.8662 5.4233 20.1537C4.49076 19.4412 3.99982 18.633 3.99982 17.8102" stroke="#6B8BBA" stroke-width="1.875" stroke-linecap="round" stroke-linejoin="round"/>
<path d="M25.2498 12.1864C25.2498 13.0091 24.7589 13.8173 23.8263 14.5298C22.8938 15.2423 21.5525 15.834 19.9373 16.2454C18.3221 16.6567 16.4899 16.8733 14.6248 16.8733C12.7597 16.8733 10.9275 16.6567 9.31232 16.2454C7.69711 15.834 6.35583 15.2423 5.4233 14.5298C4.49076 13.8173 3.99982 13.0091 3.99982 12.1864" stroke="#6B8BBA" stroke-width="1.875" stroke-linecap="round" stroke-linejoin="round"/>
<path d="M3.99982 6.5614V23.4341" stroke="#6B8BBA" stroke-width="1.875" stroke-linecap="round" stroke-linejoin="round"/>
<path d="M25.2498 6.5614V23.4342" stroke="#6B8BBA" stroke-width="1.875" stroke-linecap="round" stroke-linejoin="round"/>
</svg>
