<svg width="30" height="30" viewBox="0 0 30 30" fill="none" xmlns="http://www.w3.org/2000/svg">
<g clip-path="url(#clip0_4881_279)">
<path d="M23.5937 11.1716C24.7955 11.1716 25.9481 11.649 26.7978 12.4987C27.6476 13.3485 28.125 14.5011 28.125 15.7028H30C30 14.0038 29.3251 12.3743 28.1237 11.1729C26.9222 9.97151 25.2928 9.29657 23.5937 9.29657V11.1716ZM28.125 15.7028C28.125 16.9046 27.6476 18.0571 26.7978 18.9069C25.9481 19.7567 24.7955 20.2341 23.5937 20.2341V22.1091C24.435 22.1091 25.2681 21.9434 26.0453 21.6214C26.8226 21.2995 27.5288 20.8276 28.1237 20.2327C28.7185 19.6378 29.1904 18.9316 29.5124 18.1544C29.8343 17.3771 30 16.5441 30 15.7028H28.125ZM22.1875 18.8278V16.5716H20.3125V18.8278H22.1875ZM22.1875 16.5716C22.1875 15.4941 21.7595 14.4608 20.9976 13.6989C20.2358 12.9371 19.2024 12.5091 18.125 12.5091V14.3841C18.4123 14.3841 18.6967 14.4406 18.9621 14.5506C19.2275 14.6605 19.4687 14.8216 19.6718 15.0248C19.8749 15.2279 20.0361 15.469 20.146 15.7344C20.2559 15.9998 20.3125 16.2843 20.3125 16.5716H22.1875ZM18.125 12.5091H11.875V14.3841H18.125V12.5091ZM11.875 12.5091C10.7976 12.5091 9.76424 12.9371 9.00238 13.6989C8.24051 14.4608 7.8125 15.4941 7.8125 16.5716H9.6875C9.6875 15.9914 9.91797 15.435 10.3282 15.0248C10.7384 14.6145 11.2948 14.3841 11.875 14.3841V12.5091ZM7.8125 16.5716V18.8278H9.6875V16.5716H7.8125ZM6.40625 20.2341C5.20449 20.2341 4.05195 19.7567 3.20217 18.9069C2.3524 18.0571 1.875 16.9046 1.875 15.7028H0C0 16.5441 0.165702 17.3771 0.487646 18.1544C0.809591 18.9316 1.28147 19.6378 1.87635 20.2327C3.07775 21.4341 4.70721 22.1091 6.40625 22.1091V20.2341ZM1.875 15.7028C1.875 14.5011 2.3524 13.3485 3.20217 12.4987C4.05195 11.649 5.20449 11.1716 6.40625 11.1716V9.29657C4.70721 9.29657 3.07775 9.97151 1.87635 11.1729C0.674942 12.3743 0 14.0038 0 15.7028H1.875ZM6.41875 8.52626C6.36458 8.80236 6.32287 9.08077 6.29375 9.36063L8.15937 9.54813C8.18125 9.32938 8.21406 9.11063 8.25781 8.89188L6.41875 8.52626ZM8.05781 4.90751C7.24068 5.97199 6.68089 7.21016 6.41875 8.52626L8.25781 8.89344C8.46325 7.85935 8.90377 6.88635 9.54531 6.04969L8.05781 4.90751ZM11.1297 2.38719C9.92617 2.98016 8.87512 3.84352 8.05781 4.90751L9.54531 6.04657C10.1875 5.21028 11.0135 4.53448 11.9594 4.06844L11.1297 2.38719ZM15 1.48407C13.6577 1.48426 12.3334 1.79327 11.1297 2.38719L11.9594 4.06844C12.9056 3.60169 13.9449 3.35896 15 3.35907V1.48407ZM18.8703 2.38719C17.6666 1.79327 16.3423 1.48426 15 1.48407V3.35907C16.0545 3.3592 17.0949 3.60192 18.0406 4.06844L18.8703 2.38719ZM21.9422 4.90751C21.1251 3.84295 20.074 2.98061 18.8703 2.38719L18.0406 4.06844C18.9852 4.53444 19.8116 5.21122 20.4531 6.04657L21.9422 4.90751ZM23.5812 8.52626C23.3191 7.21016 22.7593 5.97199 21.9422 4.90751L20.4547 6.04813C21.0953 6.88563 21.5375 7.85907 21.7437 8.89188L23.5812 8.52626ZM23.7062 9.36063C23.6771 9.08077 23.6354 8.80236 23.5812 8.52626L21.7422 8.89344C21.7859 9.11011 21.8187 9.32834 21.8406 9.54813L23.7062 9.36063ZM6.40625 11.1716C7.375 11.1716 8.07344 10.3981 8.15937 9.54813L6.29375 9.35907C6.29271 9.35282 6.29792 9.34397 6.30937 9.33251L6.34531 9.30907C6.36458 9.30086 6.3853 9.29661 6.40625 9.29657V11.1716ZM7.8125 18.8278C7.8125 19.2044 7.8125 19.4403 7.8 19.6184C7.80005 19.6963 7.78846 19.7737 7.76562 19.8481L9.49687 20.5653C9.6125 20.2872 9.65312 20.0122 9.67031 19.7466C9.6875 19.4888 9.6875 19.1794 9.6875 18.8278H7.8125ZM6.40625 22.1091C6.75781 22.1091 7.06719 22.1091 7.325 22.0934C7.59062 22.0747 7.86719 22.0341 8.14375 21.9184L7.42656 20.1872C7.35214 20.21 7.27472 20.2216 7.19687 20.2216C6.93353 20.2341 6.66986 20.2382 6.40625 20.2341V22.1091ZM7.76562 19.8481C7.73421 19.9242 7.68809 19.9933 7.6299 20.0515C7.57172 20.1097 7.50262 20.1558 7.42656 20.1872L8.14375 21.9184C8.75581 21.6644 9.2435 21.1777 9.49687 20.5653L7.76562 19.8481ZM23.5937 20.2341C23.2172 20.2341 22.9812 20.2341 22.8031 20.2216C22.7253 20.2216 22.6479 20.2085 22.5734 20.1856L21.8547 21.9184C22.1328 22.0341 22.4094 22.0747 22.675 22.0919C22.9328 22.1091 23.2422 22.1091 23.5937 22.1091V20.2341ZM20.3125 18.8278C20.3125 19.1794 20.3125 19.4888 20.3281 19.7466C20.3469 20.0122 20.3875 20.2888 20.5031 20.5653L22.2344 19.8466C22.2115 19.7721 22.1999 19.6963 22.2 19.6184C22.1875 19.3551 22.1833 19.0914 22.1875 18.8278H20.3125ZM22.5734 20.1856C22.4974 20.1542 22.4283 20.1097 22.3701 20.0515C22.3119 19.9933 22.2658 19.9226 22.2344 19.8466L20.5031 20.5653C20.7572 21.1774 21.2439 21.6651 21.8562 21.9184L22.5734 20.1856ZM23.5937 9.29657C23.6146 9.29657 23.6349 9.30074 23.6547 9.30907C23.6714 9.3174 23.6833 9.32522 23.6906 9.33251C23.7021 9.34397 23.7073 9.35334 23.7062 9.36063L21.8406 9.54813C21.9266 10.3966 22.6234 11.1716 23.5937 11.1716V9.29657Z" fill="#6B8BBA"/>
<path d="M18.1244 13.3588H11.8744C10.1485 13.3588 8.74939 14.7579 8.74939 16.4838V25.8588C8.74939 27.5847 10.1485 28.9838 11.8744 28.9838H18.1244C19.8503 28.9838 21.2494 27.5847 21.2494 25.8588V16.4838C21.2494 14.7579 19.8503 13.3588 18.1244 13.3588Z" stroke="#6B8BBA" stroke-width="1.4"/>
<path d="M14.2194 21.1716H15.7819H14.2194Z" fill="#6B8BBA"/>
<path d="M14.2194 21.1716H15.7819" stroke="#6B8BBA" stroke-width="1.4" stroke-linecap="round"/>
</g>
<defs>
<clipPath id="clip0_4881_279">
<rect width="30" height="30" fill="white"/>
</clipPath>
</defs>
</svg>
