<svg width="22" height="18" viewBox="0 6 22 22" fill="none" xmlns="http://www.w3.org/2000/svg">
  <path d="M0.480655 21.5194C0.788511 21.8271 1.206 22 1.64131 22C2.07662 22 2.4941 21.8271 2.80196 21.5194L10.9282 13.3932L19.0544 21.5194C19.364 21.8184 19.7787 21.9839 20.2091 21.9802C20.6396 21.9764 21.0513 21.8038 21.3557 21.4994C21.6601 21.195 21.8327 20.7833 21.8365 20.3528C21.8402 19.9224 21.6747 19.5077 21.3757 19.1981L12.0888 9.91119C11.781 9.60345 11.3635 9.43058 10.9282 9.43058C10.4929 9.43058 10.0754 9.60345 9.76752 9.91119L0.480655 19.1981C0.172891 19.5059 -5.83784e-07 19.9234 -6.08003e-07 20.3587C-6.32222e-07 20.794 0.172891 21.2115 0.480655 21.5194Z" fill="#3BC2D1"/>
</svg>
