<svg width="52" height="52" viewBox="0 0 52 52" fill="none" xmlns="http://www.w3.org/2000/svg">
<path d="M12.058 15.0725L37.6812 14.6957L45.5942 23.3623H50.4928V34.6667L45.971 35.4203L37.3043 43.7102H20.3478L11.6812 35.0435L12.058 15.0725Z" fill="#090D27"/>
<path d="M48.75 21.9375H45.8372L38.4252 14.5255C38.1993 14.2988 37.9309 14.1191 37.6352 13.9967C37.3396 13.8743 37.0226 13.8117 36.7027 13.8125H27.625V7.3125H33.3125C33.528 7.3125 33.7347 7.2269 33.887 7.07452C34.0394 6.92215 34.125 6.71549 34.125 6.5C34.125 6.28451 34.0394 6.07785 33.887 5.92548C33.7347 5.7731 33.528 5.6875 33.3125 5.6875H20.3125C20.097 5.6875 19.8903 5.7731 19.738 5.92548C19.5856 6.07785 19.5 6.28451 19.5 6.5C19.5 6.71549 19.5856 6.92215 19.738 7.07452C19.8903 7.2269 20.097 7.3125 20.3125 7.3125H26V13.8125H13C12.3535 13.8125 11.7335 14.0693 11.2764 14.5264C10.8193 14.9835 10.5625 15.6035 10.5625 16.25V27.625H4.0625V21.9375C4.0625 21.722 3.9769 21.5153 3.82452 21.363C3.67215 21.2106 3.46549 21.125 3.25 21.125C3.03451 21.125 2.82785 21.2106 2.67548 21.363C2.5231 21.5153 2.4375 21.722 2.4375 21.9375V34.9375C2.4375 35.153 2.5231 35.3596 2.67548 35.512C2.82785 35.6644 3.03451 35.75 3.25 35.75C3.46549 35.75 3.67215 35.6644 3.82452 35.512C3.9769 35.3596 4.0625 35.153 4.0625 34.9375V29.25H10.5625V34.2652C10.5617 34.5851 10.6243 34.9021 10.7467 35.1977C10.8691 35.4933 11.0488 35.7618 11.2755 35.9877L19.2623 43.9745C19.4882 44.2012 19.7566 44.3809 20.0523 44.5033C20.3479 44.6256 20.6649 44.6883 20.9848 44.6875H36.7027C37.0226 44.6883 37.3396 44.6256 37.6352 44.5033C37.9309 44.3809 38.1993 44.2012 38.4252 43.9745L45.8372 36.5625H48.75C49.3965 36.5625 50.0165 36.3057 50.4736 35.8486C50.9307 35.3915 51.1875 34.7715 51.1875 34.125V24.375C51.1875 23.7285 50.9307 23.1085 50.4736 22.6514C50.0165 22.1943 49.3965 21.9375 48.75 21.9375ZM49.5625 34.125C49.5625 34.3405 49.4769 34.5471 49.3245 34.6995C49.1722 34.8519 48.9655 34.9375 48.75 34.9375H45.5C45.3933 34.9374 45.2876 34.9584 45.1889 34.9991C45.0903 35.0399 45.0007 35.0997 44.9252 35.1752L37.2755 42.8248C37.1235 42.9767 36.9175 43.0621 36.7027 43.0625H20.9848C20.77 43.0621 20.564 42.9767 20.412 42.8248L12.4252 34.838C12.2733 34.686 12.1879 34.48 12.1875 34.2652V16.25C12.1875 16.0345 12.2731 15.8278 12.4255 15.6755C12.5778 15.5231 12.7845 15.4375 13 15.4375H36.7027C36.9175 15.4379 37.1235 15.5233 37.2755 15.6752L44.9252 23.3248C45.0007 23.4003 45.0903 23.4601 45.1889 23.5009C45.2876 23.5416 45.3933 23.5626 45.5 23.5625H48.75C48.9655 23.5625 49.1722 23.6481 49.3245 23.8005C49.4769 23.9528 49.5625 24.1595 49.5625 24.375V34.125Z" fill="#75BAFF" stroke="#3499FF"/>
</svg>
